<svg width="51" height="50" viewBox="0 0 51 50" fill="none" xmlns="http://www.w3.org/2000/svg">
<path d="M37.1693 18.5547L33.7147 23.5352H29.995C29.534 22.1541 28.4406 21.0607 27.0596 20.5997V14.7519C28.9015 14.137 30.2334 12.3975 30.2334 10.3516C30.2334 8.30566 28.9015 6.56611 27.0596 5.95127V0H24.1299V5.95127C22.7488 6.4123 21.6555 7.50566 21.1944 8.88672H17.4747L14.0201 3.90625H0.594727V16.7969H14.0201L17.4747 11.8164H21.1944C21.6555 13.1975 22.7488 14.2908 24.1299 14.7519V20.5997C22.288 21.2146 20.9561 22.9541 20.9561 25C20.9561 27.0459 22.288 28.7854 24.1299 29.4003V35.2481C22.7488 35.7092 21.6555 36.8025 21.1944 38.1836H17.4747L14.0201 33.2031H0.594727V46.0938H14.0201L17.4747 41.1133H21.1944C21.6555 42.4943 22.7488 43.5877 24.1299 44.0487V50H27.0596V44.0487C28.9015 43.4339 30.2334 41.6943 30.2334 39.6484C30.2334 37.6025 28.9015 35.863 27.0596 35.2481V29.4003C28.4406 28.9393 29.534 27.8459 29.995 26.4648H33.7147L37.1693 31.4453H50.5947V18.5547H37.1693Z" fill="#EF5226"/>
</svg>
