<svg width="595" height="522" viewBox="0 0 595 522" fill="none" xmlns="http://www.w3.org/2000/svg">
<path d="M539.085 315.339C527.745 274.658 495.533 243.113 454.583 232.576L204.721 168.308C163.77 157.778 120.302 169.857 90.691 200.007L0 292.34V522H564.5L578.748 504.5C608.359 474.356 590.087 473.681 578.748 433L539.085 315.339Z" fill="#05A7CC"/>
<g filter="url(#filter0_d_9796_8935)">
<path d="M425.191 298.27C424.217 298.27 423.244 298.01 422.377 297.491L405.502 287.374L406.523 285.67L423.398 295.787C424.489 296.443 425.854 296.45 426.948 295.807L454.413 279.744C454.853 279.488 455.109 279.033 455.099 278.526C455.09 278.02 454.817 277.575 454.372 277.336L417.768 257.736L418.705 255.984L455.309 275.585C456.399 276.169 457.062 277.256 457.086 278.491C457.108 279.728 456.483 280.837 455.414 281.46L427.951 297.522C427.1 298.02 426.144 298.27 425.191 298.27Z" fill="#E6F6FA"/>
<path d="M356.936 450.242C355.744 450.242 354.554 449.945 353.481 449.347L286.137 411.859C285.145 411.308 284.551 410.299 284.546 409.163C284.542 408.026 285.131 407.015 286.12 406.454L316.598 389.266C317.08 388.993 317.133 388.534 317.133 388.349C317.135 388.165 317.084 387.704 316.604 387.428L282.695 367.958C281.763 367.421 281.193 366.459 281.171 365.384C281.147 364.309 281.676 363.324 282.586 362.747L296.438 353.971L297.5 355.648L283.647 364.426C283.192 364.714 283.153 365.163 283.156 365.342C283.16 365.522 283.22 365.967 283.686 366.237L317.594 385.707C318.554 386.26 319.124 387.251 319.119 388.358C319.115 389.466 318.538 390.453 317.575 390.997L287.097 408.185C286.586 408.473 286.533 408.962 286.533 409.157C286.534 409.353 286.591 409.839 287.104 410.125L354.448 447.612C356.05 448.504 358.021 448.467 359.593 447.518L385.199 431.775C385.402 431.65 385.433 431.461 385.433 431.359C385.432 431.277 385.408 431.07 385.198 430.942L366.664 419.677L367.696 417.981L386.229 429.246C386.973 429.697 387.416 430.485 387.417 431.354C387.42 432.221 386.979 433.011 386.241 433.466L360.628 449.213C359.496 449.899 358.215 450.242 356.936 450.242Z" fill="#E6F6FA"/>
<path d="M386.023 299.292L353.554 280.547C351.561 279.396 351.812 277.387 354.112 276.058L385.462 257.958C387.764 256.63 391.244 256.486 393.236 257.636L425.703 276.381C427.697 277.532 427.447 279.541 425.145 280.87L393.795 298.97C391.495 300.298 388.015 300.442 386.023 299.292Z" fill="#E6F6FA"/>
<path d="M436.475 262.104V248.076L405.019 248.058L394.146 241.78C391.651 240.34 387.292 240.52 384.411 242.184L374.268 248.041L342.783 248.023V262.45C342.713 263.426 343.256 264.366 344.455 265.059L385.112 288.532C387.607 289.972 391.966 289.792 394.847 288.128L434.105 265.462C435.766 264.503 436.568 263.26 436.475 262.104Z" fill="#37B9D6"/>
<path d="M389.63 240.815C387.804 240.86 385.909 241.319 384.411 242.184L374.268 248.041L342.783 248.023V262.45C342.713 263.426 343.256 264.366 344.455 265.058L385.112 288.532C386.311 289.224 387.942 289.538 389.63 289.497V240.815Z" fill="#37B9D6"/>
<path d="M346.346 248.025L342.783 248.022V262.449C342.713 263.424 343.256 264.365 344.455 265.057L346.346 266.15V248.025Z" fill="#05A7CC"/>
<path d="M385.738 288.839C387.891 289.761 391.003 289.71 393.521 288.749V272.368H385.738V288.839Z" fill="#05A7CC"/>
<path d="M385.111 274.157L344.454 250.684C341.959 249.244 342.272 246.727 345.152 245.064L384.411 222.398C387.292 220.734 391.65 220.554 394.145 221.994L434.803 245.467C437.298 246.908 436.985 249.425 434.103 251.088L394.845 273.753C391.966 275.417 387.607 275.597 385.111 274.157Z" fill="#E6F6FA"/>
<path d="M385.843 269.932L351.771 250.261C349.68 249.054 349.942 246.945 352.357 245.552L385.255 226.558C387.669 225.164 391.323 225.013 393.413 226.22L427.484 245.891C429.576 247.099 429.313 249.208 426.899 250.602L394.001 269.595C391.586 270.987 387.934 271.139 385.843 269.932Z" fill="#05A7CC"/>
<path d="M421.523 265.806C421.523 266.853 420.788 268.127 419.882 268.65C418.975 269.173 418.24 268.749 418.24 267.702C418.24 266.654 418.976 265.381 419.882 264.857C420.788 264.334 421.523 264.759 421.523 265.806Z" fill="#E6F6FA"/>
<path d="M426.807 262.755C426.807 263.802 426.071 265.076 425.164 265.599C424.257 266.122 423.521 265.699 423.521 264.651C423.521 263.603 424.257 262.33 425.164 261.807C426.071 261.284 426.807 261.708 426.807 262.755Z" fill="#E6F6FA"/>
<path d="M432.09 259.705C432.09 260.753 431.355 262.027 430.447 262.55C429.54 263.073 428.805 262.649 428.805 261.602C428.805 260.554 429.54 259.28 430.447 258.757C431.355 258.233 432.09 258.658 432.09 259.705Z" fill="#E6F6FA"/>
<path d="M436.475 239.685V225.657L405.019 225.64L394.146 219.362C391.651 217.922 387.292 218.102 384.411 219.766L374.268 225.623L342.783 225.605V240.033C342.713 241.009 343.256 241.949 344.455 242.642L385.112 266.115C387.607 267.555 391.966 267.375 394.847 265.711L434.105 243.045C435.766 242.085 436.568 240.842 436.475 239.685Z" fill="#37B9D6"/>
<path d="M389.63 218.397C387.804 218.441 385.909 218.901 384.411 219.765L374.268 225.621L342.783 225.604V240.032C342.713 241.008 343.256 241.948 344.455 242.64L385.112 266.113C386.311 266.806 387.942 267.12 389.63 267.079V218.397Z" fill="#37B9D6"/>
<path d="M346.346 225.606L342.783 225.605V240.033C342.713 241.009 343.256 241.949 344.455 242.642L346.346 243.734V225.606Z" fill="#05A7CC"/>
<path d="M385.738 266.42C387.891 267.343 391.003 267.292 393.521 266.331V249.95H385.738V266.42Z" fill="#05A7CC"/>
<path d="M385.111 251.739L344.454 228.266C341.959 226.826 342.272 224.309 345.152 222.645L384.411 199.98C387.292 198.316 391.65 198.136 394.145 199.576L434.803 223.049C437.298 224.489 436.985 227.006 434.103 228.67L394.845 251.335C391.966 252.999 387.607 253.179 385.111 251.739Z" fill="#E6F6FA"/>
<path d="M385.843 247.514L351.771 227.843C349.68 226.637 349.942 224.527 352.357 223.134L385.255 204.14C387.669 202.746 391.323 202.594 393.413 203.802L427.484 223.473C429.576 224.68 429.313 226.79 426.899 228.182L394.001 247.176C391.586 248.57 387.934 248.721 385.843 247.514Z" fill="#05A7CC"/>
<path d="M421.523 243.387C421.523 244.435 420.788 245.708 419.882 246.232C418.975 246.755 418.24 246.331 418.24 245.283C418.24 244.236 418.976 242.963 419.882 242.439C420.788 241.915 421.523 242.341 421.523 243.387Z" fill="#E6F6FA"/>
<path d="M426.807 240.337C426.807 241.384 426.071 242.658 425.164 243.181C424.257 243.704 423.521 243.28 423.521 242.233C423.521 241.185 424.257 239.913 425.164 239.388C426.071 238.865 426.807 239.29 426.807 240.337Z" fill="#E6F6FA"/>
<path d="M432.09 237.287C432.09 238.335 431.355 239.607 430.447 240.132C429.54 240.655 428.805 240.231 428.805 239.183C428.805 238.136 429.54 236.862 430.447 236.339C431.355 235.815 432.09 236.24 432.09 237.287Z" fill="#E6F6FA"/>
<path d="M436.475 217.267V203.239L405.019 203.222L394.146 196.944C391.651 195.504 387.292 195.684 384.411 197.348L374.268 203.204L342.783 203.187V217.615C342.713 218.591 343.256 219.531 344.455 220.223L385.112 243.696C387.607 245.137 391.966 244.957 394.847 243.293L434.105 220.627C435.766 219.667 436.568 218.424 436.475 217.267Z" fill="#37B9D6"/>
<path d="M389.63 195.978C387.804 196.023 385.909 196.483 384.411 197.347L374.268 203.203L342.783 203.186V217.614C342.713 218.589 343.256 219.53 344.455 220.222L385.112 243.695C386.311 244.387 387.942 244.702 389.63 244.661V195.978Z" fill="#37B9D6"/>
<path d="M346.346 203.188L342.783 203.186V217.614C342.713 218.589 343.256 219.53 344.455 220.222L346.346 221.314V203.188Z" fill="#05A7CC"/>
<path d="M385.738 244.002C387.891 244.924 391.003 244.873 393.521 243.914V227.532H385.738V244.002Z" fill="#05A7CC"/>
<path d="M385.111 229.321L344.454 205.847C341.959 204.407 342.272 201.891 345.152 200.227L384.411 177.562C387.292 175.898 391.65 175.718 394.145 177.158L434.803 200.631C437.298 202.071 436.985 204.587 434.103 206.251L394.845 228.917C391.966 230.581 387.607 230.761 385.111 229.321Z" fill="#E6F6FA"/>
<path d="M434.104 203.49L394.846 226.156C391.964 227.82 387.606 228 385.111 226.559L344.454 203.086C343.897 202.766 343.488 202.389 343.209 201.982C342.351 203.361 342.74 204.858 344.454 205.847L385.111 229.321C387.606 230.761 391.966 230.581 394.846 228.917L434.104 206.251C436.343 204.959 437.023 203.153 436.048 201.736C435.657 202.364 435.008 202.97 434.104 203.49Z" fill="white"/>
<path d="M421.523 220.969C421.523 222.017 420.788 223.289 419.882 223.813C418.976 224.338 418.24 223.913 418.24 222.865C418.24 221.818 418.976 220.545 419.882 220.021C420.788 219.498 421.523 219.923 421.523 220.969Z" fill="#E6F6FA"/>
<path d="M426.807 217.92C426.807 218.967 426.071 220.239 425.164 220.764C424.257 221.287 423.521 220.863 423.521 219.816C423.521 218.768 424.257 217.496 425.164 216.971C426.071 216.447 426.807 216.872 426.807 217.92Z" fill="#E6F6FA"/>
<path d="M432.09 214.869C432.09 215.916 431.355 217.19 430.447 217.713C429.54 218.236 428.805 217.813 428.805 216.765C428.805 215.718 429.54 214.445 430.447 213.921C431.355 213.396 432.09 213.821 432.09 214.869Z" fill="#E6F6FA"/>
<path d="M387.517 214.767L368.492 203.782C367.324 203.107 367.47 201.931 368.818 201.152L387.189 190.546C388.538 189.768 390.577 189.682 391.745 190.357L410.771 201.342C411.939 202.015 411.792 203.193 410.444 203.972L392.073 214.579C390.725 215.357 388.686 215.442 387.517 214.767Z" fill="#05A7CC"/>
<path d="M389.337 205.57L386.705 204.05C386.543 203.957 386.563 203.795 386.75 203.686L389.291 202.219C389.477 202.111 389.759 202.1 389.921 202.193L392.553 203.713C392.714 203.806 392.694 203.968 392.508 204.077L389.967 205.544C389.78 205.651 389.498 205.663 389.337 205.57Z" fill="#E6F6FA"/>
<path d="M368.491 203.783L368.545 203.815C368.633 203.751 368.715 203.685 368.818 203.627L387.189 193.021C388.537 192.242 390.576 192.157 391.744 192.832L410.716 203.786C411.792 203.016 411.848 201.967 410.769 201.344L391.743 190.359C390.575 189.686 388.536 189.77 387.188 190.548L368.817 201.154C367.47 201.931 367.324 203.109 368.491 203.783Z" fill="#37B9D6"/>
<path d="M312.888 366.557L242.715 326.544C240.149 325.062 240.471 322.474 243.433 320.763L283.808 297.452C286.772 295.741 291.254 295.556 293.82 297.037L363.992 337.051C366.558 338.532 366.236 341.121 363.274 342.832L322.899 366.142C319.938 367.853 315.454 368.038 312.888 366.557Z" fill="#E6F6FA"/>
<path d="M370.25 323.581V159.759L305.123 142.714L293.127 135.787C290.373 134.198 285.564 134.397 282.386 136.232L271.193 142.694L236.457 142.674L246.743 300.821C246.665 301.897 247.265 302.935 248.588 303.699L313.58 352.739C316.333 354.329 321.142 354.13 324.322 352.294L367.636 327.288C369.467 326.229 370.352 324.857 370.25 323.581Z" fill="#37B9D6"/>
<path d="M288.146 134.722C286.131 134.771 284.04 135.279 282.388 136.232L271.196 142.694L236.46 142.674V306.936C236.382 308.012 236.982 309.05 238.304 309.814L313.583 352.739C314.907 353.503 316.705 353.849 318.567 353.804L319.344 188.515L288.146 134.722Z" fill="#E6F6FA"/>
<path d="M314.271 353.079C316.646 354.096 320.081 354.039 322.857 352.98V186.562H314.271V353.079Z" fill="#05A7CC"/>
<path d="M313.581 188.535L238.302 145.61C235.549 144.021 235.894 141.245 239.073 139.409L282.388 114.403C285.566 112.568 290.375 112.369 293.129 113.958L368.408 156.883C371.162 158.473 370.816 161.25 367.636 163.084L324.322 188.09C321.144 189.925 316.335 190.125 313.581 188.535Z" fill="#E6F6FA"/>
<path d="M367.636 160.037L324.322 185.044C321.143 186.879 316.334 187.078 313.58 185.488L238.301 142.563C237.687 142.209 237.236 141.793 236.928 141.344C235.982 142.866 236.411 144.517 238.301 145.609L313.58 188.534C316.333 190.123 321.142 189.925 324.322 188.089L367.636 163.083C370.106 161.656 370.857 159.664 369.78 158.1C369.348 158.794 368.631 159.462 367.636 160.037Z" fill="#FAFDFF"/>
<path d="M315.711 171.139L265.593 142.086C264.304 141.342 264.466 140.043 265.953 139.185L286.221 127.483C287.709 126.624 289.959 126.531 291.248 127.274L341.367 156.327C342.655 157.07 342.494 158.369 341.006 159.228L320.738 170.93C319.25 171.789 317 171.882 315.711 171.139Z" fill="#047791"/>
<path d="M288.653 143.391L285.749 141.715C285.571 141.611 285.594 141.433 285.799 141.313L288.603 139.694C288.809 139.575 289.12 139.562 289.299 139.666L292.203 141.342C292.381 141.445 292.358 141.624 292.153 141.743L289.349 143.362C289.142 143.48 288.832 143.494 288.653 143.391Z" fill="#E6F6FA"/>
<path d="M298.356 148.97L295.452 147.294C295.274 147.191 295.297 147.011 295.502 146.893L298.306 145.273C298.513 145.154 298.823 145.142 299.002 145.245L301.906 146.921C302.084 147.024 302.062 147.205 301.856 147.323L299.052 148.942C298.844 149.06 298.534 149.072 298.356 148.97Z" fill="#E6F6FA"/>
<path d="M308.059 154.548L305.155 152.872C304.977 152.769 305 152.589 305.205 152.471L308.009 150.852C308.216 150.732 308.526 150.72 308.705 150.823L311.609 152.499C311.787 152.602 311.765 152.783 311.56 152.901L308.755 154.52C308.549 154.639 308.237 154.652 308.059 154.548Z" fill="#E6F6FA"/>
<path d="M317.762 160.128L314.858 158.452C314.681 158.348 314.703 158.169 314.908 158.05L317.713 156.431C317.919 156.312 318.229 156.299 318.408 156.402L321.312 158.079C321.49 158.182 321.468 158.361 321.263 158.48L318.458 160.099C318.252 160.217 317.94 160.231 317.762 160.128Z" fill="#E6F6FA"/>
<path d="M265.593 142.086L265.652 142.12C265.75 142.05 265.841 141.978 265.954 141.912L286.223 130.21C287.71 129.352 289.96 129.259 291.249 130.002L341.308 159.019C342.496 158.169 342.558 157.013 341.368 156.324L291.249 127.272C289.96 126.527 287.71 126.62 286.223 127.48L265.954 139.182C264.466 140.043 264.304 141.342 265.593 142.086Z" fill="#05A7CC"/>
<path d="M332.779 220.991L361.275 204.676C362.878 203.75 364.179 201.266 364.179 199.129V188.938C364.179 186.799 362.879 185.818 361.275 186.743L332.779 203.059C331.176 203.985 329.875 206.469 329.875 208.606V218.797C329.875 220.935 331.175 221.918 332.779 220.991Z" fill="#047791"/>
<path d="M362.686 186.436C363.135 186.859 363.416 187.58 363.416 188.556V198.747C363.416 200.886 362.116 203.37 360.512 204.294L332.016 220.61C331.501 220.907 331.024 220.989 330.605 220.917C331.137 221.419 331.909 221.495 332.78 220.991L361.276 204.676C362.879 203.75 364.18 201.266 364.18 199.129V188.938C364.18 187.486 363.574 186.587 362.686 186.436Z" fill="white"/>
<path d="M341.349 209.922L343.964 208.412C344.313 208.211 344.596 207.669 344.596 207.203V204.411C344.596 203.945 344.313 203.731 343.964 203.932L341.349 205.441C341 205.642 340.717 206.184 340.717 206.65V209.442C340.717 209.91 341 210.123 341.349 209.922Z" fill="#37B9D6"/>
<path d="M350.09 204.876L352.704 203.366C353.053 203.165 353.337 202.623 353.337 202.157V199.365C353.337 198.899 353.053 198.684 352.704 198.886L350.09 200.396C349.74 200.597 349.457 201.139 349.457 201.605V204.397C349.457 204.863 349.74 205.077 350.09 204.876Z" fill="white"/>
<path d="M332.779 294.631L361.275 278.315C362.878 277.389 364.179 274.905 364.179 272.767V262.576C364.179 260.437 362.879 259.454 361.275 260.38L332.779 276.696C331.176 277.621 329.875 280.105 329.875 282.244V292.435C329.875 294.573 331.175 295.556 332.779 294.631Z" fill="#047791"/>
<path d="M362.686 260.074C363.135 260.497 363.416 261.218 363.416 262.194V272.385C363.416 274.524 362.116 277.006 360.512 277.932L332.016 294.248C331.501 294.545 331.024 294.627 330.605 294.555C331.137 295.057 331.909 295.132 332.78 294.629L361.276 278.314C362.879 277.388 364.18 274.904 364.18 272.767V262.576C364.18 261.124 363.574 260.225 362.686 260.074Z" fill="white"/>
<path d="M341.349 283.56L343.964 282.051C344.313 281.85 344.596 281.308 344.596 280.842V278.05C344.596 277.584 344.313 277.371 343.964 277.572L341.349 279.08C341 279.282 340.717 279.823 340.717 280.289V283.082C340.717 283.548 341 283.761 341.349 283.56Z" fill="#37B9D6"/>
<path d="M350.09 278.514L352.704 277.004C353.053 276.803 353.337 276.261 353.337 275.795V273.003C353.337 272.537 353.053 272.323 352.704 272.524L350.09 274.033C349.74 274.234 349.457 274.776 349.457 275.242V278.034C349.457 278.501 349.74 278.715 350.09 278.514Z" fill="#37B9D6"/>
<path d="M332.779 331.449L361.275 315.134C362.878 314.208 364.179 311.724 364.179 309.585V299.395C364.179 297.256 362.879 296.274 361.275 297.2L332.779 313.516C331.176 314.442 329.875 316.926 329.875 319.064V329.255C329.875 331.392 331.175 332.375 332.779 331.449Z" fill="#047791"/>
<path d="M362.686 296.893C363.135 297.316 363.416 298.037 363.416 299.013V309.204C363.416 311.343 362.116 313.827 360.512 314.752L332.016 331.068C331.501 331.365 331.024 331.447 330.605 331.375C331.137 331.877 331.909 331.953 332.78 331.449L361.276 315.134C362.879 314.208 364.18 311.724 364.18 309.585V299.395C364.18 297.943 363.574 297.044 362.686 296.893Z" fill="white"/>
<path d="M341.349 320.379L343.964 318.87C344.313 318.669 344.596 318.127 344.596 317.661V314.869C344.596 314.403 344.313 314.189 343.964 314.391L341.349 315.899C341 316.101 340.717 316.642 340.717 317.108V319.901C340.717 320.366 341 320.581 341.349 320.379Z" fill="white"/>
<path d="M350.09 315.333L352.704 313.823C353.053 313.622 353.337 313.08 353.337 312.614V309.822C353.337 309.356 353.053 309.142 352.704 309.343L350.09 310.853C349.74 311.054 349.457 311.596 349.457 312.062V314.854C349.457 315.32 349.74 315.535 350.09 315.333Z" fill="#37B9D6"/>
<path d="M332.779 257.81L361.275 241.495C362.878 240.569 364.179 238.085 364.179 235.946V225.756C364.179 223.617 362.879 222.635 361.275 223.561L332.779 239.877C331.176 240.803 329.875 243.287 329.875 245.425V255.616C329.875 257.754 331.175 258.737 332.779 257.81Z" fill="#047791"/>
<path d="M362.686 223.256C363.135 223.678 363.416 224.399 363.416 225.376V235.566C363.416 237.704 362.116 240.188 360.512 241.113L332.016 257.429C331.501 257.726 331.024 257.808 330.605 257.736C331.137 258.238 331.909 258.314 332.78 257.81L361.276 241.495C362.879 240.569 364.18 238.085 364.18 235.948V225.757C364.18 224.306 363.574 223.406 362.686 223.256Z" fill="white"/>
<path d="M341.349 246.741L343.964 245.233C344.313 245.031 344.596 244.49 344.596 244.024V241.231C344.596 240.765 344.313 240.552 343.964 240.753L341.349 242.261C341 242.463 340.717 243.005 340.717 243.471V246.263C340.717 246.729 341 246.942 341.349 246.741Z" fill="white"/>
<path d="M350.09 241.695L352.704 240.185C353.053 239.984 353.337 239.442 353.337 238.976V236.184C353.337 235.718 353.053 235.503 352.704 235.705L350.09 237.215C349.74 237.416 349.457 237.958 349.457 238.424V241.216C349.457 241.682 349.74 241.896 350.09 241.695Z" fill="white"/>
<path d="M308.097 210.561L242.354 172.604C240.882 171.754 239.689 169.475 239.689 167.513V154.977C239.689 153.015 240.882 152.113 242.354 152.963L308.097 190.92C309.568 191.77 310.761 194.049 310.761 196.011V208.547C310.761 210.507 309.568 211.41 308.097 210.561Z" fill="#05A7CC"/>
<path opacity="0.4" d="M306.209 206.164L244.241 170.387C243.494 169.956 242.889 168.8 242.889 167.805V158.381C242.889 157.385 243.494 156.928 244.241 157.359L306.209 193.137C306.956 193.568 307.561 194.724 307.561 195.72V205.144C307.561 206.138 306.956 206.596 306.209 206.164Z" fill="#E6F6FA"/>
<path d="M257.155 173.078L247.908 167.739C247.183 167.32 246.596 166.198 246.596 165.231C246.596 164.264 247.183 163.821 247.908 164.238L257.155 169.578C257.88 169.997 258.468 171.119 258.468 172.086C258.469 173.054 257.881 173.497 257.155 173.078Z" fill="#E6F6FA"/>
<path d="M265.036 175.879C265.036 176.846 264.357 177.237 263.52 176.754C262.682 176.271 262.004 175.095 262.004 174.128C262.004 173.162 262.682 172.77 263.52 173.254C264.357 173.737 265.036 174.913 265.036 175.879Z" fill="#047791"/>
<path d="M270.386 178.966C270.386 179.933 269.707 180.324 268.87 179.841C268.032 179.357 267.354 178.182 267.354 177.215C267.354 176.248 268.032 175.857 268.87 176.34C269.707 176.824 270.386 177.999 270.386 178.966Z" fill="#047791"/>
<path d="M275.731 182.053C275.731 183.019 275.053 183.411 274.215 182.927C273.378 182.444 272.699 181.269 272.699 180.302C272.699 179.335 273.378 178.944 274.215 179.427C275.053 179.912 275.731 181.087 275.731 182.053Z" fill="#E6F6FA"/>
<path d="M281.079 185.141C281.079 186.107 280.4 186.499 279.563 186.015C278.725 185.532 278.047 184.356 278.047 183.39C278.047 182.423 278.725 182.032 279.563 182.515C280.4 182.998 281.079 184.174 281.079 185.141Z" fill="#047791"/>
<path d="M303.602 200.917L300.487 199.119C300.022 198.85 299.645 198.13 299.645 197.51V194.214C299.645 193.594 300.021 193.308 300.487 193.578L303.602 195.376C304.067 195.644 304.445 196.365 304.445 196.985V200.281C304.445 200.899 304.068 201.185 303.602 200.917Z" fill="#047791"/>
<path d="M308.097 232.666L242.354 194.709C240.882 193.859 239.689 191.58 239.689 189.618V177.082C239.689 175.12 240.882 174.218 242.354 175.068L308.097 213.025C309.568 213.875 310.761 216.154 310.761 218.116V230.652C310.761 232.615 309.568 233.516 308.097 232.666Z" fill="#05A7CC"/>
<path opacity="0.4" d="M306.209 228.271L244.241 192.493C243.494 192.062 242.889 190.905 242.889 189.91V180.486C242.889 179.49 243.494 179.033 244.241 179.464L306.209 215.242C306.956 215.673 307.561 216.829 307.561 217.824V227.248C307.561 228.245 306.956 228.702 306.209 228.271Z" fill="#E6F6FA"/>
<path d="M257.155 195.185L247.908 189.845C247.183 189.426 246.596 188.304 246.596 187.337C246.596 186.371 247.183 185.927 247.908 186.345L257.155 191.684C257.88 192.103 258.468 193.226 258.468 194.192C258.469 195.16 257.881 195.603 257.155 195.185Z" fill="#E6F6FA"/>
<path d="M265.036 197.984C265.036 198.951 264.357 199.343 263.52 198.859C262.682 198.376 262.004 197.2 262.004 196.234C262.004 195.267 262.682 194.875 263.52 195.359C264.357 195.843 265.036 197.019 265.036 197.984Z" fill="white"/>
<path d="M270.386 201.072C270.386 202.039 269.707 202.43 268.87 201.947C268.032 201.464 267.354 200.288 267.354 199.321C267.354 198.355 268.032 197.963 268.87 198.447C269.707 198.93 270.386 200.106 270.386 201.072Z" fill="#047791"/>
<path d="M275.731 204.159C275.731 205.126 275.053 205.517 274.215 205.034C273.378 204.55 272.699 203.375 272.699 202.408C272.699 201.441 273.378 201.05 274.215 201.533C275.053 202.018 275.731 203.193 275.731 204.159Z" fill="#E6F6FA"/>
<path d="M281.079 207.247C281.079 208.214 280.4 208.605 279.563 208.122C278.725 207.638 278.047 206.463 278.047 205.496C278.047 204.529 278.725 204.138 279.563 204.621C280.4 205.105 281.079 206.28 281.079 207.247Z" fill="#047791"/>
<path d="M303.602 223.023L300.487 221.225C300.022 220.957 299.645 220.236 299.645 219.616V216.32C299.645 215.7 300.021 215.415 300.487 215.683L303.602 217.481C304.067 217.749 304.445 218.47 304.445 219.09V222.386C304.445 223.006 304.068 223.292 303.602 223.023Z" fill="#047791"/>
<path d="M308.097 254.772L242.354 216.815C240.882 215.965 239.689 213.686 239.689 211.724V199.188C239.689 197.226 240.882 196.324 242.354 197.174L308.097 235.131C309.568 235.981 310.761 238.26 310.761 240.222V252.758C310.761 254.72 309.568 255.622 308.097 254.772Z" fill="#05A7CC"/>
<path opacity="0.4" d="M306.209 250.377L244.241 214.599C243.494 214.168 242.889 213.013 242.889 212.016V202.592C242.889 201.597 243.494 201.139 244.241 201.571L306.209 237.348C306.956 237.779 307.561 238.936 307.561 239.932V249.356C307.561 250.351 306.956 250.808 306.209 250.377Z" fill="#E6F6FA"/>
<path d="M257.155 217.291L247.908 211.951C247.183 211.533 246.596 210.411 246.596 209.444C246.596 208.477 247.183 208.033 247.908 208.451L257.155 213.791C257.88 214.209 258.468 215.333 258.468 216.298C258.469 217.266 257.881 217.71 257.155 217.291Z" fill="#E6F6FA"/>
<path d="M265.036 220.091C265.036 221.057 264.357 221.449 263.52 220.965C262.682 220.482 262.004 219.307 262.004 218.34C262.004 217.373 262.682 216.982 263.52 217.465C264.357 217.95 265.036 219.125 265.036 220.091Z" fill="white"/>
<path d="M270.386 223.179C270.386 224.145 269.707 224.537 268.87 224.053C268.032 223.57 267.354 222.394 267.354 221.428C267.354 220.461 268.032 220.07 268.87 220.553C269.707 221.036 270.386 222.212 270.386 223.179Z" fill="#047791"/>
<path d="M275.731 226.265C275.731 227.232 275.053 227.623 274.215 227.14C273.378 226.657 272.699 225.481 272.699 224.514C272.699 223.548 273.378 223.156 274.215 223.64C275.053 224.123 275.731 225.298 275.731 226.265Z" fill="#E6F6FA"/>
<path d="M281.079 229.353C281.079 230.32 280.4 230.711 279.563 230.228C278.725 229.745 278.047 228.569 278.047 227.602C278.047 226.636 278.725 226.244 279.563 226.728C280.4 227.211 281.079 228.386 281.079 229.353Z" fill="#047791"/>
<path d="M303.602 245.129L300.487 243.331C300.022 243.063 299.645 242.342 299.645 241.722V238.427C299.645 237.807 300.021 237.521 300.487 237.791L303.602 239.589C304.067 239.857 304.445 240.578 304.445 241.198V244.493C304.445 245.112 304.068 245.398 303.602 245.129Z" fill="#047791"/>
<path d="M308.097 276.878L242.354 238.921C240.882 238.071 239.689 235.792 239.689 233.83V221.295C239.689 219.332 240.882 218.43 242.354 219.28L308.097 257.237C309.568 258.087 310.761 260.366 310.761 262.328V274.864C310.761 276.826 309.568 277.728 308.097 276.878Z" fill="#05A7CC"/>
<path opacity="0.4" d="M306.209 272.483L244.241 236.706C243.494 236.274 242.889 235.119 242.889 234.123V224.699C242.889 223.704 243.494 223.247 244.241 223.678L306.209 259.456C306.956 259.887 307.561 261.042 307.561 262.038V271.462C307.561 272.457 306.956 272.914 306.209 272.483Z" fill="#E6F6FA"/>
<path d="M257.155 239.397L247.908 234.058C247.183 233.639 246.596 232.517 246.596 231.55C246.596 230.583 247.183 230.14 247.908 230.557L257.155 235.897C257.88 236.315 258.468 237.437 258.468 238.404C258.469 239.371 257.881 239.816 257.155 239.397Z" fill="#E6F6FA"/>
<path d="M265.036 242.197C265.036 243.164 264.357 243.555 263.52 243.072C262.682 242.588 262.004 241.413 262.004 240.446C262.004 239.479 262.682 239.088 263.52 239.571C264.357 240.056 265.036 241.23 265.036 242.197Z" fill="#047791"/>
<path d="M270.386 245.285C270.386 246.251 269.707 246.643 268.87 246.16C268.032 245.676 267.354 244.501 267.354 243.534C267.354 242.567 268.032 242.176 268.87 242.659C269.707 243.142 270.386 244.318 270.386 245.285Z" fill="#047791"/>
<path d="M275.731 248.371C275.731 249.338 275.053 249.73 274.215 249.246C273.378 248.763 272.699 247.587 272.699 246.621C272.699 245.654 273.378 245.262 274.215 245.746C275.053 246.23 275.731 247.405 275.731 248.371Z" fill="#E6F6FA"/>
<path d="M281.079 251.459C281.079 252.426 280.4 252.817 279.563 252.334C278.725 251.851 278.047 250.675 278.047 249.708C278.047 248.742 278.725 248.35 279.563 248.834C280.4 249.317 281.079 250.493 281.079 251.459Z" fill="#047791"/>
<path d="M303.602 267.236L300.487 265.438C300.022 265.169 299.645 264.448 299.645 263.828V260.533C299.645 259.913 300.021 259.627 300.487 259.897L303.602 261.695C304.067 261.963 304.445 262.684 304.445 263.304V266.599C304.445 267.218 304.068 267.504 303.602 267.236Z" fill="#E6F6FA"/>
<path d="M308.097 298.985L242.354 261.028C240.882 260.178 239.689 257.899 239.689 255.937V243.401C239.689 241.439 240.882 240.537 242.354 241.387L308.097 279.344C309.568 280.194 310.761 282.473 310.761 284.435V296.97C310.761 298.932 309.568 299.835 308.097 298.985Z" fill="#05A7CC"/>
<path opacity="0.4" d="M306.209 294.59L244.241 258.812C243.494 258.381 242.889 257.225 242.889 256.228V246.804C242.889 245.809 243.494 245.352 244.241 245.783L306.209 281.561C306.956 281.992 307.561 283.147 307.561 284.143V293.567C307.561 294.563 306.956 295.021 306.209 294.59Z" fill="#E6F6FA"/>
<path d="M257.155 261.503L247.908 256.164C247.183 255.745 246.596 254.622 246.596 253.656C246.596 252.689 247.183 252.246 247.908 252.663L257.155 258.003C257.88 258.422 258.468 259.545 258.468 260.511C258.469 261.477 257.881 261.922 257.155 261.503Z" fill="#E6F6FA"/>
<path d="M265.036 264.303C265.036 265.27 264.357 265.661 263.52 265.178C262.682 264.695 262.004 263.519 262.004 262.552C262.004 261.585 262.682 261.194 263.52 261.677C264.357 262.162 265.036 263.336 265.036 264.303Z" fill="#047791"/>
<path d="M270.386 267.391C270.386 268.358 269.707 268.749 268.87 268.266C268.032 267.782 267.354 266.607 267.354 265.64C267.354 264.673 268.032 264.282 268.87 264.765C269.707 265.249 270.386 266.424 270.386 267.391Z" fill="white"/>
<path d="M275.731 270.478C275.731 271.444 275.053 271.836 274.215 271.353C273.378 270.869 272.699 269.694 272.699 268.727C272.699 267.76 273.378 267.369 274.215 267.852C275.053 268.335 275.731 269.511 275.731 270.478Z" fill="#E6F6FA"/>
<path d="M281.079 273.566C281.079 274.532 280.4 274.924 279.563 274.44C278.725 273.957 278.047 272.781 278.047 271.815C278.047 270.848 278.725 270.457 279.563 270.94C280.4 271.423 281.079 272.599 281.079 273.566Z" fill="white"/>
<path d="M303.602 289.342L300.487 287.544C300.022 287.275 299.645 286.555 299.645 285.935V282.639C299.645 282.019 300.021 281.733 300.487 282.003L303.602 283.801C304.067 284.069 304.445 284.79 304.445 285.41V288.706C304.445 289.325 304.068 289.61 303.602 289.342Z" fill="#E6F6FA"/>
<path d="M308.097 321.091L242.354 283.134C240.882 282.284 239.689 280.005 239.689 278.043V265.507C239.689 263.545 240.882 262.643 242.354 263.493L308.097 301.45C309.568 302.3 310.761 304.579 310.761 306.541V319.077C310.761 321.039 309.568 321.941 308.097 321.091Z" fill="#05A7CC"/>
<path opacity="0.4" d="M306.209 316.696L244.241 280.918C243.494 280.487 242.889 279.331 242.889 278.335V268.911C242.889 267.915 243.494 267.458 244.241 267.889L306.209 303.667C306.956 304.098 307.561 305.254 307.561 306.25V315.674C307.561 316.67 306.956 317.127 306.209 316.696Z" fill="#E6F6FA"/>
<path d="M257.155 283.61L247.908 278.27C247.183 277.851 246.596 276.728 246.596 275.763C246.596 274.796 247.183 274.352 247.908 274.77L257.155 280.109C257.88 280.528 258.468 281.65 258.468 282.617C258.469 283.584 257.881 284.028 257.155 283.61Z" fill="#E6F6FA"/>
<path d="M265.036 286.409C265.036 287.376 264.357 287.768 263.52 287.284C262.682 286.801 262.004 285.625 262.004 284.659C262.004 283.692 262.682 283.3 263.52 283.784C264.357 284.267 265.036 285.443 265.036 286.409Z" fill="#047791"/>
<path d="M270.386 289.497C270.386 290.464 269.707 290.855 268.87 290.372C268.032 289.889 267.354 288.713 267.354 287.746C267.354 286.78 268.032 286.388 268.87 286.872C269.707 287.355 270.386 288.531 270.386 289.497Z" fill="#047791"/>
<path d="M275.731 292.584C275.731 293.551 275.053 293.942 274.215 293.459C273.378 292.975 272.699 291.8 272.699 290.833C272.699 289.866 273.378 289.475 274.215 289.958C275.053 290.442 275.731 291.617 275.731 292.584Z" fill="#E6F6FA"/>
<path d="M281.079 295.672C281.079 296.639 280.4 297.03 279.563 296.547C278.725 296.063 278.047 294.888 278.047 293.921C278.047 292.954 278.725 292.563 279.563 293.046C280.4 293.53 281.079 294.705 281.079 295.672Z" fill="#047791"/>
<path d="M303.602 311.447L300.487 309.649C300.022 309.38 299.645 308.66 299.645 308.04V304.744C299.645 304.124 300.021 303.838 300.487 304.107L303.602 305.905C304.067 306.173 304.445 306.894 304.445 307.514V310.809C304.445 311.431 304.068 311.717 303.602 311.447Z" fill="#047791"/>
<path d="M308.097 343.197L242.354 305.24C240.882 304.39 239.689 302.111 239.689 300.149V287.613C239.689 285.651 240.882 284.749 242.354 285.599L308.097 323.556C309.568 324.406 310.761 326.685 310.761 328.647V341.183C310.761 343.145 309.568 344.047 308.097 343.197Z" fill="#05A7CC"/>
<path opacity="0.4" d="M306.209 338.802L244.241 303.024C243.494 302.593 242.889 301.438 242.889 300.442V291.018C242.889 290.023 243.494 289.566 244.241 289.997L306.209 325.774C306.956 326.206 307.561 327.361 307.561 328.357V337.781C307.561 338.776 306.956 339.233 306.209 338.802Z" fill="#E6F6FA"/>
<path d="M257.155 305.716L247.908 300.376C247.183 299.958 246.596 298.836 246.596 297.869C246.596 296.902 247.183 296.458 247.908 296.876L257.155 302.215C257.88 302.634 258.468 303.758 258.468 304.723C258.469 305.69 257.881 306.135 257.155 305.716Z" fill="#E6F6FA"/>
<path d="M265.036 308.516C265.036 309.482 264.357 309.874 263.52 309.39C262.682 308.907 262.004 307.732 262.004 306.765C262.004 305.798 262.682 305.407 263.52 305.89C264.357 306.373 265.036 307.549 265.036 308.516Z" fill="white"/>
<path d="M270.386 311.604C270.386 312.57 269.707 312.962 268.87 312.478C268.032 311.995 267.354 310.819 267.354 309.853C267.354 308.886 268.032 308.494 268.87 308.978C269.707 309.461 270.386 310.637 270.386 311.604Z" fill="#047791"/>
<path d="M275.731 314.69C275.731 315.657 275.053 316.048 274.215 315.565C273.378 315.082 272.699 313.906 272.699 312.939C272.699 311.973 273.378 311.581 274.215 312.065C275.053 312.548 275.731 313.723 275.731 314.69Z" fill="#E6F6FA"/>
<path d="M281.079 317.777C281.079 318.744 280.4 319.135 279.563 318.652C278.725 318.168 278.047 316.993 278.047 316.026C278.047 315.059 278.725 314.668 279.563 315.151C280.4 315.636 281.079 316.811 281.079 317.777Z" fill="#047791"/>
<path d="M303.602 333.553L300.487 331.755C300.022 331.487 299.645 330.766 299.645 330.146V326.85C299.645 326.23 300.021 325.945 300.487 326.213L303.602 328.011C304.067 328.279 304.445 329 304.445 329.62V332.916C304.445 333.537 304.068 333.823 303.602 333.553Z" fill="#E6F6FA"/>
<path d="M288.975 141.835C288.427 141.835 287.982 141.392 287.982 140.842V99.9749C287.982 99.4269 288.426 98.982 288.975 98.982C289.524 98.982 289.968 99.4257 289.968 99.9749V140.842C289.967 141.39 289.523 141.835 288.975 141.835Z" fill="#05A7CC"/>
<path d="M292.524 97.4051H285.424V112.727H292.524V97.4051Z" fill="#05A7CC"/>
<path d="M291.484 114.176C290.097 114.976 287.851 114.976 286.464 114.176C285.077 113.375 285.077 112.078 286.464 111.277C287.851 110.476 290.099 110.476 291.484 111.277C292.871 112.077 292.871 113.375 291.484 114.176Z" fill="#05A7CC"/>
<path d="M294.728 76.0518H283.223V100.082H294.728V76.0518Z" fill="#05A7CC"/>
<path d="M285.424 99.925V105.111C287.508 106.062 290.44 106.062 292.524 105.111V99.925C290.44 98.9732 287.508 98.9732 285.424 99.925Z" fill="#37B9D6"/>
<path d="M293.043 102.43C290.796 103.728 287.154 103.728 284.908 102.43C282.661 101.133 282.661 99.0305 284.908 97.7332C287.154 96.4359 290.796 96.4359 293.043 97.7332C295.29 99.0305 295.289 101.133 293.043 102.43Z" fill="#05A7CC"/>
<path d="M298.678 147.628C298.13 147.628 297.686 147.185 297.686 146.635V105.768C297.686 105.22 298.129 104.775 298.678 104.775C299.228 104.775 299.671 105.219 299.671 105.768V146.635C299.671 147.183 299.228 147.628 298.678 147.628Z" fill="#05A7CC"/>
<path d="M302.227 103.198H295.127V118.52H302.227V103.198Z" fill="#05A7CC"/>
<path d="M301.187 119.969C299.8 120.769 297.554 120.769 296.167 119.969C294.78 119.168 294.78 117.871 296.167 117.07C297.554 116.269 299.802 116.269 301.187 117.07C302.574 117.871 302.574 119.168 301.187 119.969Z" fill="#05A7CC"/>
<path d="M304.431 81.8449H292.926V105.875H304.431V81.8449Z" fill="#05A7CC"/>
<path d="M295.127 105.72V110.905C297.211 111.857 300.143 111.857 302.227 110.905V105.72C300.143 104.768 297.211 104.768 295.127 105.72Z" fill="#37B9D6"/>
<path d="M302.746 108.223C300.5 109.521 296.857 109.521 294.611 108.223C292.364 106.926 292.364 104.824 294.611 103.526C296.857 102.229 300.5 102.229 302.746 103.526C304.993 104.824 304.993 106.927 302.746 108.223Z" fill="#05A7CC"/>
<path d="M308.38 153.423C307.832 153.423 307.387 152.979 307.387 152.43V111.562C307.387 111.014 307.83 110.569 308.38 110.569C308.928 110.569 309.372 111.013 309.372 111.562V152.43C309.372 152.979 308.928 153.423 308.38 153.423Z" fill="#05A7CC"/>
<path d="M311.928 108.992H304.828V124.314H311.928V108.992Z" fill="#05A7CC"/>
<path d="M310.888 125.763C309.502 126.563 307.255 126.563 305.868 125.763C304.481 124.963 304.481 123.665 305.868 122.864C307.255 122.064 309.503 122.064 310.888 122.864C312.275 123.664 312.275 124.963 310.888 125.763Z" fill="#05A7CC"/>
<path d="M314.132 87.6381H302.627V111.668H314.132V87.6381Z" fill="#05A7CC"/>
<path d="M304.828 111.513V116.698C306.912 117.65 309.845 117.65 311.928 116.698V111.513C309.845 110.561 306.912 110.561 304.828 111.513Z" fill="#37B9D6"/>
<path d="M312.447 114.018C310.201 115.315 306.559 115.315 304.312 114.018C302.065 112.72 302.065 110.618 304.312 109.321C306.559 108.023 310.201 108.023 312.447 109.321C314.694 110.618 314.694 112.72 312.447 114.018Z" fill="#05A7CC"/>
<path d="M318.083 159.216C317.535 159.216 317.09 158.772 317.09 158.223V117.355C317.09 116.807 317.533 116.363 318.083 116.363C318.632 116.363 319.076 116.806 319.076 117.355V158.223C319.076 158.772 318.632 159.216 318.083 159.216Z" fill="#05A7CC"/>
<path d="M321.632 114.786H314.531V130.107H321.632V114.786Z" fill="#05A7CC"/>
<path d="M320.593 131.556C319.207 132.356 316.96 132.356 315.573 131.556C314.187 130.756 314.187 129.457 315.573 128.657C316.96 127.857 319.208 127.857 320.593 128.657C321.979 129.458 321.979 130.756 320.593 131.556Z" fill="#05A7CC"/>
<path d="M323.836 93.4323H312.33V117.462H323.836V93.4323Z" fill="#05A7CC"/>
<path d="M314.531 117.306V122.491C316.615 123.443 319.548 123.443 321.632 122.491V117.306C319.549 116.355 316.615 116.355 314.531 117.306Z" fill="#37B9D6"/>
<path d="M322.151 119.811C319.904 121.108 316.262 121.108 314.015 119.811C311.768 118.513 311.768 116.411 314.015 115.114C316.262 113.816 319.904 113.816 322.151 115.114C324.397 116.411 324.397 118.513 322.151 119.811Z" fill="#05A7CC"/>
<path d="M363.178 137.367L378.604 128.281L363.913 109.946L360.051 116.256L363.178 137.367Z" fill="#05A7CC"/>
<path d="M251.168 36.7317L275.788 22.567C275.788 22.567 274.862 36.7031 274.862 36.7317C274.862 36.7602 260.719 41.1119 260.719 41.1119L251.168 36.7317Z" fill="#05A7CC"/>
<path d="M367.465 91.2579C365.591 90.1756 363.801 89.5443 362.138 89.2834C359.656 76.2383 350.577 62.3843 339.754 56.1352C336.499 54.2551 333.403 53.2511 330.595 53.0348C329.117 37.2225 318.123 19.2529 304.772 11.5449C297.798 7.5188 291.47 7.04163 286.801 9.50824L286.802 9.49581L286.576 9.62629C286.457 9.69215 286.339 9.76049 286.222 9.83008L271.704 18.4042L276.526 22.2141C272.195 24.1066 269.459 28.9627 269.459 36.1426C269.459 49.3815 278.754 65.4797 290.218 72.0992L367.465 127.258C376.074 132.228 383.053 128.2 383.053 118.258C383.053 108.318 376.074 96.2284 367.465 91.2579Z" fill="#05A7CC"/>
<path d="M270.176 30.3135L303.497 10.8453C297.028 7.47157 291.184 7.19323 286.801 9.50823L286.802 9.49581L286.576 9.62628C286.457 9.69214 286.339 9.76049 286.222 9.83007L271.704 18.4042L276.526 22.2141C273.499 23.5374 271.254 26.3135 270.176 30.3135Z" fill="#05A7CC"/>
<path d="M331.713 87.586L356.025 73.3195C351.855 66.1073 346.114 59.8059 339.757 56.1365C338.915 55.6506 338.085 55.2256 337.268 54.8553L306.344 72.9392L331.713 87.586Z" fill="#05A7CC"/>
<path d="M352.223 100.237C350.349 99.1548 348.561 98.5236 346.895 98.2626C344.414 85.2176 335.335 71.3636 324.512 65.1144C321.256 63.2343 318.161 62.2303 315.353 62.0141C313.875 46.2017 302.88 28.2321 289.53 20.5229C275.171 12.2334 263.532 18.9535 263.532 35.5326C263.532 36.0955 263.548 36.6621 263.574 37.2325C253.074 32.3626 244.871 37.85 244.871 50.2862C244.871 63.5251 254.166 79.6233 265.63 86.2428L352.223 136.236C360.831 141.206 367.811 137.178 367.811 127.236C367.811 117.296 360.831 105.208 352.223 100.237Z" fill="#E6F6FA"/>
<path d="M263.574 37.2323C263.548 36.662 263.532 36.0953 263.532 35.5324C263.532 35.5088 263.533 35.4852 263.533 35.4616C257.732 33.2062 252.748 34.1879 249.619 37.8077C253.018 35.0105 257.96 34.6278 263.574 37.2323Z" fill="white"/>
<path d="M353.49 99.0007C351.616 97.9184 349.828 97.2871 348.163 97.0262C345.682 83.9811 336.604 70.1259 325.78 63.878C322.524 61.9979 319.429 60.9938 316.62 60.7776C315.143 44.9652 304.148 26.9957 290.797 19.2864C281.852 14.1221 273.964 14.7844 269.285 20.027C274.051 15.955 281.346 15.7984 289.529 20.5229C302.879 28.2308 313.874 46.2017 315.352 62.0128C318.16 62.229 321.255 63.233 324.511 65.1131C335.334 71.3623 344.413 85.2163 346.894 98.2626C348.558 98.5235 350.348 99.1548 352.222 100.237C360.83 105.208 367.81 117.296 367.81 127.237C367.81 130.824 366.891 133.628 365.325 135.53C367.66 133.731 369.079 130.47 369.079 126.002C369.079 116.061 362.099 103.971 353.49 99.0007Z" fill="white"/>
<path d="M261.744 41.1801L268.253 44.1985L267.922 37.031C267.899 36.5278 267.885 36.0282 267.885 35.5312C267.885 29.1329 269.817 24.4955 273.324 22.47C276.831 20.447 281.815 21.0931 287.356 24.2917C299.271 31.1708 309.667 47.9189 311.021 62.4178L311.363 66.0711L315.021 66.352C317.271 66.5247 319.731 67.3759 322.339 68.8819C331.804 74.347 340.335 87.0441 342.623 99.0752L343.195 102.086L346.224 102.561C347.43 102.751 348.718 103.235 350.049 104.005C357.319 108.202 363.461 118.84 363.461 127.236C363.461 130.377 362.59 132.682 361.072 133.559C359.555 134.434 357.123 134.038 354.401 132.467L267.808 82.4738C257.735 76.6583 249.225 61.9183 249.225 50.2861C249.225 45.7219 250.57 42.2438 252.918 40.7452C253.883 40.1289 255.051 39.822 256.368 39.822C257.971 39.822 259.796 40.2755 261.744 41.1801Z" fill="#37B9D6"/>
<path d="M304.963 95.4504L307.247 94.3034L304.999 92.5998L304.963 95.4504Z" fill="#05A7CC"/>
<path d="M298.102 64.5936L300.318 63.4728L300.358 64.6334L298.102 64.5936Z" fill="#05A7CC"/>
<path d="M311.478 88.2382L313.793 87.0739L309.338 82.8378L311.478 88.2382Z" fill="#05A7CC"/>
<path d="M306.578 94.2302L295.764 87.8605C295.215 87.5374 294.771 86.7235 294.773 86.0426L294.809 73.5219L307.612 81.0621L307.576 93.5828C307.574 94.2637 307.126 94.5545 306.578 94.2302Z" fill="#05A7CC"/>
<path d="M300.294 63.4864L288.614 71.003C288.118 71.3224 288.518 72.5116 289.271 72.954L301.2 79.9797L313.129 87.0055C313.882 87.4491 314.289 86.7346 313.795 85.8337L302.197 64.6072C301.696 63.6902 300.799 63.1621 300.294 63.4864Z" fill="#05A7CC"/>
<path d="M304.258 95.3982L293.444 89.0285C292.894 88.7055 292.451 87.8915 292.453 87.2106L292.489 74.6899L305.292 82.2301L305.256 94.7508C305.253 95.4318 304.807 95.7213 304.258 95.3982Z" fill="#E6F6FA"/>
<path d="M297.974 64.6544L286.293 72.171C285.797 72.4904 286.198 73.6796 286.951 74.122L298.88 81.1477L310.809 88.1735C311.562 88.6172 311.968 87.9027 311.475 87.0017L299.876 65.7753C299.377 64.8582 298.48 64.3301 297.974 64.6544Z" fill="#E6F6FA"/>
<path d="M343.32 317.384H341.994V243.365L350.736 238.317V201.881H352.061V239.082L343.32 244.129V317.384Z" fill="white"/>
<path d="M133.193 333.376C132.423 333.376 131.652 333.178 130.953 332.783L106.8 319.107C106.067 318.693 105.628 317.941 105.623 317.1C105.619 316.257 106.053 315.503 106.781 315.082L167.026 280.232C170.483 278.234 174.778 278.238 178.233 280.231L247.093 320.03L246.098 321.751L177.24 281.952C174.399 280.312 170.866 280.312 168.021 281.952L107.777 316.8C107.631 316.885 107.61 317.019 107.61 317.09C107.61 317.163 107.634 317.296 107.779 317.378L131.933 331.054C132.766 331.525 133.777 331.497 134.581 330.976L144.788 324.376L145.865 326.044L135.658 332.644C134.907 333.131 134.052 333.376 133.193 333.376Z" fill="#E6F6FA"/>
<path d="M164.643 338.66L132.176 319.915C130.183 318.765 130.432 316.755 132.734 315.427L164.084 297.327C166.385 295.999 169.866 295.855 171.858 297.005L204.326 315.75C206.319 316.901 206.068 318.91 203.768 320.238L172.418 338.339C170.117 339.667 166.636 339.811 164.643 338.66Z" fill="#E6F6FA"/>
<path d="M215.096 301.471V287.443L183.64 287.426L172.767 281.148C170.272 279.708 165.913 279.888 163.032 281.552L152.889 287.408L121.405 287.391V301.819C121.334 302.795 121.877 303.735 123.076 304.427L163.733 327.901C166.228 329.341 170.588 329.161 173.468 327.497L212.726 304.831C214.388 303.872 215.189 302.628 215.096 301.471Z" fill="#37B9D6"/>
<path d="M168.25 280.184C166.424 280.229 164.529 280.688 163.032 281.552L152.889 287.408L121.405 287.391V301.819C121.334 302.795 121.877 303.735 123.076 304.427L163.733 327.901C164.932 328.593 166.563 328.907 168.251 328.866V280.184H168.25Z" fill="#37B9D6"/>
<path d="M124.967 287.393L121.405 287.391V301.819C121.334 302.795 121.877 303.735 123.076 304.427L124.967 305.52V287.393Z" fill="#05A7CC"/>
<path d="M164.359 328.206C166.512 329.128 169.624 329.077 172.141 328.117V311.735H164.359V328.206Z" fill="#05A7CC"/>
<path d="M163.733 313.525L123.075 290.052C120.58 288.611 120.893 286.095 123.773 284.431L163.032 261.766C165.913 260.102 170.271 259.922 172.766 261.362L213.424 284.835C215.919 286.275 215.606 288.791 212.724 290.455L173.466 313.121C170.587 314.785 166.228 314.965 163.733 313.525Z" fill="#E6F6FA"/>
<path d="M164.464 309.3L130.392 289.629C128.301 288.422 128.563 286.312 130.978 284.919L163.876 265.926C166.291 264.532 169.944 264.38 172.034 265.588L206.105 285.259C208.197 286.465 207.935 288.575 205.52 289.968L172.622 308.962C170.207 310.356 166.555 310.508 164.464 309.3Z" fill="#05A7CC"/>
<path d="M200.145 305.174C200.145 306.222 199.409 307.495 198.502 308.019C197.595 308.542 196.859 308.118 196.859 307.07C196.859 306.023 197.595 304.749 198.502 304.226C199.409 303.702 200.145 304.127 200.145 305.174Z" fill="#E6F6FA"/>
<path d="M205.428 302.124C205.428 303.171 204.692 304.445 203.785 304.968C202.878 305.491 202.143 305.067 202.143 304.02C202.143 302.972 202.878 301.699 203.785 301.175C204.692 300.652 205.428 301.076 205.428 302.124Z" fill="#E6F6FA"/>
<path d="M210.711 299.073C210.711 300.12 209.976 301.393 209.069 301.917C208.161 302.44 207.426 302.017 207.426 300.969C207.426 299.922 208.161 298.649 209.069 298.125C209.977 297.602 210.711 298.025 210.711 299.073Z" fill="#E6F6FA"/>
<path d="M215.096 279.053V265.025L183.64 265.008L172.767 258.73C170.272 257.29 165.913 257.47 163.032 259.134L152.889 264.99L121.405 264.973V279.401C121.334 280.376 121.877 281.317 123.076 282.009L163.733 305.482C166.228 306.923 170.588 306.742 173.468 305.079L212.726 282.413C214.388 281.454 215.189 280.21 215.096 279.053Z" fill="#37B9D6"/>
<path d="M168.25 257.766C166.424 257.81 164.529 258.27 163.032 259.135L152.889 264.992L121.405 264.974V279.402C121.334 280.378 121.877 281.318 123.076 282.011L163.733 305.484C164.932 306.176 166.563 306.49 168.251 306.449V257.766H168.25Z" fill="#37B9D6"/>
<path d="M124.967 264.975L121.405 264.973V279.401C121.334 280.376 121.877 281.317 123.076 282.009L124.967 283.101V264.975Z" fill="#05A7CC"/>
<path d="M164.359 305.789C166.512 306.711 169.624 306.66 172.141 305.7V289.318H164.359V305.789Z" fill="#05A7CC"/>
<path d="M163.733 291.106L123.075 267.633C120.58 266.193 120.893 263.677 123.773 262.013L163.032 239.348C165.913 237.684 170.271 237.503 172.766 238.944L213.424 262.417C215.919 263.857 215.606 266.373 212.724 268.037L173.466 290.703C170.587 292.367 166.228 292.548 163.733 291.106Z" fill="#E6F6FA"/>
<path d="M164.464 286.882L130.392 267.211C128.301 266.003 128.563 263.894 130.978 262.5L163.876 243.507C166.291 242.112 169.944 241.961 172.034 243.169L206.105 262.839C208.197 264.047 207.935 266.156 205.52 267.549L172.622 286.542C170.207 287.938 166.555 288.089 164.464 286.882Z" fill="#05A7CC"/>
<path d="M200.145 282.756C200.145 283.804 199.409 285.076 198.502 285.6C197.595 286.124 196.859 285.7 196.859 284.652C196.859 283.605 197.595 282.331 198.502 281.808C199.409 281.284 200.145 281.709 200.145 282.756Z" fill="#E6F6FA"/>
<path d="M205.428 279.705C205.428 280.753 204.692 282.027 203.785 282.55C202.878 283.073 202.143 282.649 202.143 281.602C202.143 280.554 202.878 279.282 203.785 278.757C204.692 278.233 205.428 278.658 205.428 279.705Z" fill="#E6F6FA"/>
<path d="M210.711 276.655C210.711 277.702 209.976 278.976 209.069 279.499C208.161 280.022 207.426 279.599 207.426 278.551C207.426 277.504 208.161 276.23 209.069 275.707C209.977 275.184 210.711 275.607 210.711 276.655Z" fill="#E6F6FA"/>
<path d="M215.096 256.635V242.607L183.64 242.589L172.767 236.312C170.272 234.871 165.913 235.052 163.032 236.716L152.889 242.572L121.405 242.555V256.983C121.334 257.958 121.877 258.899 123.076 259.591L163.733 283.064C166.228 284.504 170.588 284.324 173.468 282.66L212.726 259.995C214.388 259.036 215.189 257.793 215.096 256.635Z" fill="#37B9D6"/>
<path d="M168.25 235.347C166.424 235.392 164.529 235.852 163.032 236.717L152.889 242.573L121.405 242.556V256.984C121.334 257.959 121.877 258.9 123.076 259.592L163.733 283.065C164.932 283.758 166.563 284.072 168.251 284.031V235.347H168.25Z" fill="#37B9D6"/>
<path d="M124.967 242.557L121.405 242.555V256.983C121.334 257.958 121.877 258.899 123.076 259.591L124.967 260.683V242.557Z" fill="#05A7CC"/>
<path d="M164.359 283.371C166.512 284.293 169.624 284.242 172.141 283.282V266.9H164.359V283.371Z" fill="#05A7CC"/>
<path d="M163.733 268.688L123.075 245.215C120.58 243.775 120.893 241.259 123.773 239.595L163.032 216.929C165.913 215.265 170.271 215.085 172.766 216.525L213.424 239.999C215.919 241.439 215.606 243.955 212.724 245.619L173.466 268.284C170.587 269.948 166.228 270.13 163.733 268.688Z" fill="#E6F6FA"/>
<path d="M212.725 242.859L173.467 265.524C170.585 267.188 166.228 267.369 163.732 265.928L123.075 242.455C122.518 242.133 122.109 241.757 121.83 241.35C120.972 242.73 121.361 244.227 123.075 245.216L163.732 268.689C166.228 270.13 170.587 269.949 173.467 268.286L212.725 245.62C214.964 244.328 215.644 242.522 214.67 241.104C214.279 241.733 213.629 242.338 212.725 242.859Z" fill="white"/>
<path d="M200.145 260.338C200.145 261.385 199.409 262.658 198.502 263.182C197.595 263.705 196.859 263.281 196.859 262.234C196.859 261.186 197.595 259.913 198.502 259.39C199.409 258.865 200.145 259.29 200.145 260.338Z" fill="#E6F6FA"/>
<path d="M205.428 257.287C205.428 258.335 204.692 259.608 203.785 260.131C202.878 260.655 202.143 260.231 202.143 259.183C202.143 258.136 202.878 256.862 203.785 256.339C204.692 255.816 205.428 256.24 205.428 257.287Z" fill="#E6F6FA"/>
<path d="M210.711 254.236C210.711 255.284 209.976 256.558 209.069 257.081C208.161 257.604 207.426 257.18 207.426 256.133C207.426 255.085 208.161 253.811 209.069 253.288C209.977 252.765 210.711 253.189 210.711 254.236Z" fill="#E6F6FA"/>
<path d="M166.139 254.136L147.113 243.151C145.945 242.478 146.091 241.3 147.44 240.521L165.811 229.915C167.159 229.136 169.198 229.051 170.366 229.726L189.392 240.711C190.56 241.384 190.413 242.562 189.065 243.341L170.694 253.947C169.346 254.725 167.307 254.809 166.139 254.136Z" fill="#05A7CC"/>
<path d="M167.96 244.938L165.328 243.418C165.166 243.325 165.186 243.162 165.373 243.054L167.914 241.587C168.1 241.479 168.382 241.467 168.544 241.561L171.176 243.08C171.337 243.174 171.317 243.336 171.131 243.444L168.589 244.912C168.403 245.02 168.121 245.031 167.96 244.938Z" fill="#E6F6FA"/>
<path d="M147.113 243.151L147.166 243.182C147.255 243.119 147.337 243.053 147.44 242.995L165.811 232.389C167.159 231.61 169.198 231.525 170.366 232.2L189.337 243.154C190.413 242.383 190.469 241.335 189.391 240.712L170.365 229.727C169.197 229.054 167.158 229.137 165.809 229.916L147.438 240.522C146.091 241.3 145.945 242.478 147.113 243.151Z" fill="#37B9D6"/>
<path d="M161.116 272.788C161.116 273.492 160.621 273.778 160.011 273.425C159.401 273.072 158.906 272.216 158.906 271.512C158.906 270.807 159.401 270.521 160.011 270.874C160.62 271.227 161.116 272.083 161.116 272.788Z" fill="#E6F6FA"/>
<path d="M157.686 270.822C157.686 271.526 157.191 271.812 156.581 271.459C155.971 271.106 155.477 270.25 155.477 269.546C155.477 268.841 155.971 268.555 156.581 268.907C157.191 269.26 157.686 270.117 157.686 270.822Z" fill="#E6F6FA"/>
<path d="M161.116 276.926C161.116 277.63 160.621 277.916 160.011 277.563C159.401 277.211 158.906 276.354 158.906 275.649C158.906 274.945 159.401 274.659 160.011 275.012C160.62 275.364 161.116 276.221 161.116 276.926Z" fill="#E6F6FA"/>
<path d="M157.686 274.959C157.686 275.663 157.191 275.949 156.581 275.596C155.971 275.243 155.477 274.387 155.477 273.682C155.477 272.978 155.971 272.692 156.581 273.045C157.191 273.398 157.686 274.254 157.686 274.959Z" fill="#E6F6FA"/>
<path d="M161.116 295.095C161.116 295.8 160.621 296.086 160.011 295.733C159.401 295.38 158.906 294.524 158.906 293.819C158.906 293.115 159.401 292.829 160.011 293.182C160.62 293.533 161.116 294.391 161.116 295.095Z" fill="#E6F6FA"/>
<path d="M157.686 293.128C157.686 293.833 157.191 294.119 156.581 293.767C155.971 293.414 155.477 292.558 155.477 291.853C155.477 291.149 155.971 290.863 156.581 291.215C157.191 291.567 157.686 292.424 157.686 293.128Z" fill="#E6F6FA"/>
<path d="M161.116 299.232C161.116 299.937 160.621 300.222 160.011 299.869C159.401 299.517 158.906 298.66 158.906 297.956C158.906 297.251 159.401 296.965 160.011 297.318C160.62 297.67 161.116 298.527 161.116 299.232Z" fill="#E6F6FA"/>
<path d="M157.686 297.266C157.686 297.971 157.191 298.256 156.581 297.904C155.971 297.551 155.477 296.694 155.477 295.99C155.477 295.285 155.971 295 156.581 295.352C157.191 295.704 157.686 296.562 157.686 297.266Z" fill="#E6F6FA"/>
<path d="M161.116 317.402C161.116 318.106 160.621 318.392 160.011 318.039C159.401 317.686 158.906 316.83 158.906 316.125C158.906 315.421 159.401 315.135 160.011 315.488C160.62 315.84 161.116 316.697 161.116 317.402Z" fill="#E6F6FA"/>
<path d="M157.686 315.436C157.686 316.14 157.191 316.426 156.581 316.073C155.971 315.72 155.477 314.864 155.477 314.16C155.477 313.455 155.971 313.169 156.581 313.522C157.191 313.874 157.686 314.731 157.686 315.436Z" fill="#E6F6FA"/>
<path d="M161.116 321.539C161.116 322.244 160.621 322.53 160.011 322.177C159.401 321.824 158.906 320.968 158.906 320.263C158.906 319.559 159.401 319.273 160.011 319.626C160.62 319.978 161.116 320.834 161.116 321.539Z" fill="#E6F6FA"/>
<path d="M157.686 319.572C157.686 320.277 157.191 320.563 156.581 320.21C155.971 319.857 155.477 319.001 155.477 318.296C155.477 317.592 155.971 317.306 156.581 317.658C157.191 318.01 157.686 318.868 157.686 319.572Z" fill="#E6F6FA"/>
<path d="M168.778 355.344C167.615 355.344 166.452 355.043 165.416 354.442L144.929 342.552C144.231 342.147 143.816 341.425 143.816 340.62C143.816 339.815 144.233 339.094 144.93 338.689L158.404 330.875L159.401 332.594L145.928 340.408C145.826 340.467 145.803 340.555 145.803 340.621C145.803 340.686 145.826 340.775 145.926 340.834L166.414 352.723C167.86 353.562 169.659 353.567 171.111 352.742L211.239 329.875C213.305 328.7 215.867 328.709 217.921 329.902L251.536 349.317C252.996 350.167 254.809 350.17 256.266 349.325L272.474 339.952L273.469 341.673L257.262 351.046C255.186 352.246 252.613 352.241 250.54 351.036L216.927 331.622C215.478 330.78 213.677 330.772 212.223 331.6L172.095 354.467C171.07 355.052 169.924 355.344 168.778 355.344Z" fill="#E6F6FA"/>
<path d="M346.755 430.986L314.287 412.241C312.294 411.09 312.545 409.081 314.845 407.753L346.195 389.653C348.496 388.324 351.977 388.18 353.969 389.331L386.437 408.076C388.43 409.226 388.179 411.236 385.879 412.564L354.529 430.664C352.228 431.993 348.747 432.137 346.755 430.986Z" fill="#E6F6FA"/>
<path d="M397.208 393.798V379.77L365.753 379.753L354.88 373.475C352.385 372.035 348.025 372.215 345.145 373.879L335 379.735L303.516 379.718V394.146C303.445 395.122 303.988 396.062 305.187 396.754L345.845 420.228C348.34 421.668 352.699 421.488 355.579 419.824L394.837 397.158C396.5 396.198 397.302 394.955 397.208 393.798Z" fill="#37B9D6"/>
<path d="M350.363 372.51C348.536 372.554 346.641 373.014 345.145 373.878L335 379.734L303.516 379.717V394.145C303.445 395.12 303.988 396.061 305.187 396.753L345.845 420.226C347.044 420.918 348.674 421.233 350.363 421.192V372.51Z" fill="#37B9D6"/>
<path d="M307.078 379.719L303.516 379.717V394.145C303.445 395.12 303.988 396.061 305.187 396.753L307.078 397.845V379.719Z" fill="#05A7CC"/>
<path d="M346.471 420.533C348.623 421.455 351.736 421.404 354.253 420.444V404.062H346.471V420.533Z" fill="#05A7CC"/>
<path d="M345.846 405.85L305.188 382.377C302.693 380.937 303.006 378.421 305.887 376.757L345.145 354.091C348.027 352.427 352.384 352.247 354.88 353.687L395.537 377.161C398.032 378.601 397.719 381.117 394.837 382.781L355.579 405.446C352.7 407.11 348.341 407.292 345.846 405.85Z" fill="#E6F6FA"/>
<path d="M346.575 401.625L312.504 381.955C310.412 380.748 310.675 378.638 313.089 377.245L345.987 358.252C348.402 356.857 352.055 356.706 354.145 357.914L388.217 377.584C390.308 378.791 390.046 380.901 387.631 382.294L354.733 401.287C352.319 402.682 348.667 402.833 346.575 401.625Z" fill="#05A7CC"/>
<path d="M382.255 397.5C382.255 398.547 381.519 399.82 380.612 400.344C379.705 400.867 378.971 400.444 378.971 399.396C378.971 398.348 379.706 397.076 380.612 396.552C381.519 396.029 382.255 396.452 382.255 397.5Z" fill="#E6F6FA"/>
<path d="M387.537 394.449C387.537 395.497 386.802 396.77 385.895 397.294C384.988 397.817 384.252 397.393 384.252 396.345C384.252 395.298 384.988 394.025 385.895 393.501C386.803 392.978 387.537 393.402 387.537 394.449Z" fill="#E6F6FA"/>
<path d="M392.821 391.399C392.821 392.446 392.085 393.719 391.178 394.243C390.271 394.766 389.535 394.342 389.535 393.295C389.535 392.247 390.271 390.975 391.178 390.451C392.086 389.927 392.821 390.351 392.821 391.399Z" fill="#E6F6FA"/>
<path d="M397.208 371.38V357.352L365.753 357.335L354.88 351.057C352.385 349.617 348.025 349.797 345.145 351.461L335 357.317L303.516 357.3V371.728C303.445 372.703 303.988 373.644 305.187 374.336L345.845 397.809C348.34 399.25 352.699 399.069 355.579 397.405L394.837 374.74C396.5 373.779 397.302 372.537 397.208 371.38Z" fill="#37B9D6"/>
<path d="M350.363 350.091C348.536 350.136 346.641 350.596 345.145 351.461L335 357.317L303.516 357.3V371.728C303.445 372.703 303.988 373.644 305.187 374.336L345.845 397.809C347.044 398.502 348.674 398.816 350.363 398.775V350.091Z" fill="#37B9D6"/>
<path d="M307.078 357.301L303.516 357.299V371.727C303.445 372.702 303.988 373.643 305.187 374.335L307.078 375.427V357.301Z" fill="#05A7CC"/>
<path d="M346.471 398.115C348.623 399.037 351.736 398.986 354.253 398.026V381.644H346.471V398.115Z" fill="#05A7CC"/>
<path d="M345.846 383.432L305.188 359.959C302.693 358.519 303.006 356.001 305.887 354.339L345.145 331.673C348.027 330.009 352.384 329.829 354.88 331.269L395.537 354.742C398.032 356.183 397.719 358.699 394.837 360.363L355.579 383.028C352.7 384.692 348.341 384.874 345.846 383.432Z" fill="#E6F6FA"/>
<path d="M346.575 379.207L312.504 359.537C310.412 358.329 310.675 356.22 313.089 354.827L345.987 335.834C348.402 334.439 352.055 334.288 354.145 335.496L388.217 355.166C390.308 356.374 390.046 358.483 387.631 359.876L354.733 378.869C352.319 380.264 348.667 380.415 346.575 379.207Z" fill="#05A7CC"/>
<path d="M382.255 375.082C382.255 376.129 381.519 377.402 380.612 377.926C379.705 378.449 378.971 378.026 378.971 376.978C378.971 375.931 379.706 374.657 380.612 374.134C381.519 373.611 382.255 374.034 382.255 375.082Z" fill="#E6F6FA"/>
<path d="M387.537 372.031C387.537 373.079 386.802 374.351 385.895 374.876C384.988 375.399 384.252 374.975 384.252 373.927C384.252 372.88 384.988 371.607 385.895 371.083C386.803 370.56 387.537 370.984 387.537 372.031Z" fill="#E6F6FA"/>
<path d="M392.821 368.981C392.821 370.028 392.085 371.301 391.178 371.825C390.271 372.348 389.535 371.924 389.535 370.877C389.535 369.829 390.271 368.556 391.178 368.032C392.086 367.509 392.821 367.934 392.821 368.981Z" fill="#E6F6FA"/>
<path d="M397.208 348.962V334.934L365.753 334.916L354.88 328.639C352.385 327.198 348.025 327.379 345.145 329.043L335 334.899L303.516 334.882V349.31C303.445 350.285 303.988 351.226 305.187 351.918L345.845 375.391C348.34 376.831 352.699 376.651 355.579 374.987L394.837 352.322C396.5 351.361 397.302 350.119 397.208 348.962Z" fill="#37B9D6"/>
<path d="M350.363 327.673C348.536 327.718 346.641 328.178 345.145 329.041L335 334.898L303.516 334.88V349.309C303.445 350.284 303.988 351.225 305.187 351.917L345.845 375.39C347.044 376.082 348.674 376.397 350.363 376.356V327.673Z" fill="#37B9D6"/>
<path d="M307.078 334.883L303.516 334.88V349.308C303.445 350.284 303.988 351.225 305.187 351.917L307.078 353.009V334.883Z" fill="#05A7CC"/>
<path d="M346.471 375.697C348.623 376.619 351.736 376.568 354.253 375.609V359.227H346.471V375.697Z" fill="#05A7CC"/>
<path d="M345.846 361.015L305.188 337.542C302.693 336.102 303.006 333.584 305.887 331.922L345.145 309.256C348.027 307.592 352.384 307.412 354.88 308.852L395.537 332.326C398.032 333.766 397.719 336.282 394.837 337.946L355.579 360.611C352.7 362.274 348.341 362.455 345.846 361.015Z" fill="#E6F6FA"/>
<path d="M394.839 335.185L355.58 357.85C352.699 359.514 348.341 359.694 345.846 358.254L305.188 334.781C304.632 334.459 304.223 334.084 303.943 333.676C303.086 335.056 303.475 336.553 305.188 337.542L345.846 361.015C348.341 362.455 352.7 362.275 355.58 360.611L394.839 337.946C397.078 336.654 397.757 334.848 396.782 333.43C396.392 334.059 395.742 334.664 394.839 335.185Z" fill="white"/>
<path d="M382.255 352.663C382.255 353.711 381.519 354.985 380.612 355.508C379.705 356.031 378.971 355.607 378.971 354.56C378.971 353.512 379.706 352.24 380.612 351.715C381.519 351.192 382.255 351.616 382.255 352.663Z" fill="#E6F6FA"/>
<path d="M387.537 349.613C387.537 350.66 386.802 351.933 385.895 352.457C384.988 352.98 384.252 352.557 384.252 351.509C384.252 350.462 384.988 349.189 385.895 348.665C386.803 348.142 387.537 348.565 387.537 349.613Z" fill="#E6F6FA"/>
<path d="M392.821 346.562C392.821 347.61 392.085 348.883 391.178 349.407C390.271 349.93 389.535 349.506 389.535 348.459C389.535 347.411 390.271 346.137 391.178 345.614C392.086 345.091 392.821 345.515 392.821 346.562Z" fill="#E6F6FA"/>
<path d="M348.25 346.462L329.224 335.477C328.056 334.802 328.203 333.625 329.551 332.846L347.922 322.241C349.27 321.463 351.309 321.378 352.477 322.052L371.503 333.036C372.671 333.71 372.525 334.888 371.176 335.667L352.805 346.273C351.457 347.051 349.418 347.135 348.25 346.462Z" fill="#05A7CC"/>
<path d="M350.071 337.265L347.439 335.745C347.278 335.652 347.298 335.489 347.484 335.381L350.025 333.914C350.212 333.806 350.494 333.794 350.655 333.888L353.287 335.407C353.449 335.501 353.429 335.663 353.242 335.771L350.7 337.239C350.515 337.346 350.233 337.358 350.071 337.265Z" fill="#E6F6FA"/>
<path d="M329.224 335.477L329.277 335.508C329.365 335.445 329.447 335.379 329.55 335.32L347.921 324.715C349.27 323.937 351.31 323.852 352.477 324.526L371.449 335.479C372.525 334.709 372.581 333.66 371.503 333.038L352.477 322.053C351.309 321.379 349.27 321.464 347.921 322.242L329.55 332.848C328.202 333.625 328.057 334.803 329.224 335.477Z" fill="#37B9D6"/>
<path d="M287.887 110.07C287.887 110.775 287.393 111.06 286.782 110.707C286.172 110.355 285.678 109.498 285.678 108.794C285.678 108.089 286.172 107.803 286.782 108.156C287.393 108.509 287.887 109.365 287.887 110.07Z" fill="#E6F6FA"/>
<path d="M297.62 115.972C297.62 116.677 297.125 116.963 296.515 116.61C295.905 116.257 295.41 115.401 295.41 114.696C295.41 113.992 295.905 113.706 296.515 114.059C297.125 114.412 297.62 115.268 297.62 115.972Z" fill="#E6F6FA"/>
<path d="M307.354 121.875C307.354 122.579 306.859 122.865 306.249 122.512C305.639 122.159 305.145 121.303 305.145 120.599C305.145 119.894 305.639 119.608 306.249 119.961C306.858 120.314 307.354 121.17 307.354 121.875Z" fill="#E6F6FA"/>
<path d="M317.088 127.777C317.088 128.482 316.594 128.768 315.984 128.415C315.373 128.062 314.879 127.206 314.879 126.501C314.879 125.797 315.373 125.511 315.984 125.864C316.594 126.217 317.088 127.073 317.088 127.777Z" fill="#E6F6FA"/>
</g>
<defs>
<filter id="filter0_d_9796_8935" x="85.623" y="0" width="391.463" height="482.242" filterUnits="userSpaceOnUse" color-interpolation-filters="sRGB">
<feFlood flood-opacity="0" result="BackgroundImageFix"/>
<feColorMatrix in="SourceAlpha" type="matrix" values="0 0 0 0 0 0 0 0 0 0 0 0 0 0 0 0 0 0 127 0" result="hardAlpha"/>
<feOffset dy="12"/>
<feGaussianBlur stdDeviation="10"/>
<feComposite in2="hardAlpha" operator="out"/>
<feColorMatrix type="matrix" values="0 0 0 0 0.937255 0 0 0 0 0.321569 0 0 0 0 0.14902 0 0 0 0.6 0"/>
<feBlend mode="normal" in2="BackgroundImageFix" result="effect1_dropShadow_9796_8935"/>
<feBlend mode="normal" in="SourceGraphic" in2="effect1_dropShadow_9796_8935" result="shape"/>
</filter>
</defs>
</svg>
