<?xml version="1.0" encoding="UTF-8"?>
<svg id="Layer_2" data-name="Layer 2" xmlns="http://www.w3.org/2000/svg" viewBox="0 0 298.36 311.73">
  <defs>
    <style>
      .cls-1 {
        fill: #05a7cc;
      }
    </style>
  </defs>
  <g id="Layer_1-2" data-name="Layer 1">
    <g>
      <path class="cls-1" d="M50.17,311.73c-2.88-2.17-4.99-4.3-2.71-7.89l45.8-46.11.11-75.98c-.43-1.61,2.84-5.16,3.97-5.16h16.74v-26.18c-2.51.08-5.8.42-7.24-2.2-2.37-4.3-2.17-17.05-3.83-22.34-.36-.96-2.87-2.16-3.88-2.23-3.41-.22-11.99,5.21-16.02,5.53-.87.99.36,22.62-.07,26.41-.5,4.41-2.78,5.44-6.98,5.81-9.36.83-20.46-.33-29.89-.43-2.2,3.51-4.37,7.22-8.38,9.04-16.46,7.45-30.52-13.69-17.16-25.69,8.42-7.56,20.89-4.08,24.99,6.15.51.82,1.02-.05,1.2-.05h25.87v-16.74c0-.95-.62-5.92-.9-7.02-1.08-4.33-7.41-11.65-9.29-16.28-1-2.47-.85-3.43.72-5.64l7.63-6.66-40.4.68c-.77.27-1.75,3.08-2.57,4.13-11.43,14.81-34.81.88-25.93-16.19,5.95-11.45,22.61-10.44,27.8,1.03l1.22.6,49-.61-.57-2.17-16.14-13.08c-.88-1.45-1.81-3.19-.94-4.83-1.29-.89-26.82.55-31.37,0-2.85-.34-4.83-2.24-5.17-5.17-.79-6.74.58-14.95.05-21.86C7.73,33.88,15.12,7.12,34.37,10.68c15.42,2.85,16.22,24.94,1.8,30.47v16.13h31.35c2.88-2.83,4.76-11,9.19-11.56,4.7-.59,16.95,6.41,22.13,7.61.75.13,3.3-1.36,3.69-1.84,1.39-1.71,2.64-17.33,3.83-21.13.39-1.24,1.77-4.13,3.17-4.13h9.13c.87-.53.84-1.21.94-2.1.56-4.8-1.26-19.23.9-22.24.52-.72,1.27-1.23,2.08-1.57L176.49.04c1.61-.43,5.16,2.84,5.16,3.97v11.87h35c.6,0,2.6-6.37,7.76-5.37,17.87,8.22,34.26,16.76,46.7,32.47,16.8,21.21,28.83,59.3,10.38,82.75,4.23,11.44,10.6,22.47,14.88,33.82,1.87,4.95,3.32,7.77-.02,12.72-.95,1.4-4.46,4.3-6.05,4.3h-10.04v17.35l-10.22,11.08c-1.04,9.22.95,20.09-.11,29.11-.49,4.12-3.33,4.87-6.99,5.18-9.83.83-27.99.95-36.83-2.78-9.56-4.03-18.73-10.8-28.01-15.5l-10.63,18.3-.21,28.76,34.85,35.15c2.05,3.26,1,6.53-2.1,8.49H50.17ZM171.31,10.4h-41.39v15.83c2.51-.14,5.18-.23,6.62,2.2,2.76,4.67,2.26,17.32,4.33,22.91.16.3,3.11,2.01,3.35,2.04,1.85.19,15.81-6.39,19.28-7.25,8.19-2.03,6.95,4.75,9.42,5.57h18.98s17.14-25.47,17.14-25.47h-33.18c-1.17,0-4.57-2.85-4.57-3.96v-11.87ZM36.23,26.06c0-2.87-2.32-5.19-5.19-5.19s-5.19,2.32-5.19,5.19,2.32,5.19,5.19,5.19,5.19-2.32,5.19-5.19ZM287.58,166.24l-17.63-41.16c-.21-3.02,5.71-8.46,7.39-11.99,7.21-15.11.44-39.65-7.53-53.56-10.15-17.71-26.34-29.64-45.15-37l-22.03,31.07-.24,58.13c.02.68.37,1.2.66,1.78,2.68,5.4,13.2,14.92,14.73,19.97.87,2.86.83,18.67.42,22.14-.21,1.77-1.01,3.78-2.61,4.69l-23.29,9.59-.3,34.89c13.52,8.77,27.4,16.99,41.99,23.88l25.59-.32v-27.09c0-.98,3.83-3.83,3.04-4.56-5.81,1.13-33.25-13.17-20.86-19.34,4.53-2.25,7.53,2.75,11.17,4.98,5.05,3.09,11.02,4.97,16.99,4.62v-16.74c0-.78,3.18-3.96,3.96-3.96h13.7ZM128.09,36.57l-12.09.09c-2.05,4.78-1.65,19.39-5.34,22.36-1.52,1.22-9.58,5.64-11.32,5.45l-19.92-7.19-5.33,10.05c.04.5,2.01,2.18,2.59,2.71,3.49,3.27,9.98,7.03,12.81,10.32,2.37,2.77,1.06,5.01,1.1,7.75.04,2.31,1.17,4.86-.31,7.12l-16.19,14.07,5.36,10.01c1.18.86,17.71-7.5,21.29-7,.78.11,9.06,4.62,9.93,5.29,3.73,2.9,3.74,22.02,5.66,22.47l11.77-.02c1.11-5.69,1.13-14.55,3.06-19.77,1.25-3.41,9.18-6.72,12.47-8.15l20.03,7.15,5.87-10.01-15.51-13.08c-2.08-2.56-.89-4.77-.91-7.57-.01-1.6-.53-3.6-.45-4.8.3-4.24,13.25-12.37,16.57-15.61,1.01-1.58-4.5-9.03-5.57-10.88-1.71-.41-16.41,7.06-20.09,7.2-1.65.06-10.94-5.54-11.83-6.96-2.35-3.77-2.54-16.14-3.63-21.02ZM192,62.14h-12.78c.76,3.42,3.56,5.11,1.97,8.98-.89,2.18-10.28,8.72-12.76,10.94-.4.36-1.16-.05-.78,1.39h24.35v-21.31ZM20.89,93.45c0-2.91-2.36-5.28-5.28-5.28s-5.28,2.36-5.28,5.28,2.36,5.28,5.28,5.28,5.28-2.36,5.28-5.28ZM192,93.8h-24.35c3.39,4.43,15.1,9.2,13.87,15.38-.36,1.82-2.25,3.35-2.31,5.32h12.78v-20.7ZM207.83,145.54v-8.83c0-.67-7.51-10.05-8.19-10.68-.57-.52-.99-1.14-1.87-1.17l-24.34-.02c-2.68.51-1.65,6.14-7.3,6.14-5.67,0-17.22-7.64-21.88-7.34-.71.05-3.08,1.01-3.38,1.67-1.09,3.59-2.65,25.1-6.4,25.1h-9.13l-.91.91v25.26h57.22v-11.87c0-.46,1.56-2.34,2.22-2.65l14.21-6.18h-10.96v-10.35h20.7ZM36.21,155.89c0-2.87-2.32-5.19-5.19-5.19s-5.19,2.32-5.19,5.19,2.32,5.19,5.19,5.19,5.19-2.32,5.19-5.19ZM134.78,186.93h-31.05v74.57l-38.96,39.87h36.22l13.09-14.31v-37.44h10.35v24.96l10.35-11.26v-76.4ZM155.48,186.93h-10.35v57.22h31.05l-.58-3.99c-2.67-3.35-20.12-18.51-20.12-21.27v-31.96ZM181.66,186.93h-14.91l-.91.91v28l14.9,14.31,8.8-14.32c-.05-.66-7.88-4.44-7.88-6.69v-22.22ZM155.48,254.5h-10.35v12.48l-29.83,34.39h40.18v-46.87ZM176.18,254.5h-9.44l-.91.91v45.96h39.57l-27.73-27.96c-.45-.65-1.48-2.81-1.48-3.39v-15.52Z"/>
      <path class="cls-1" d="M254.1,119.37c.17-3.74-1.21-13.7,3.47-15.09s7.04,1.99,7.48,6.27c.4,3.93.98,17.17-3.05,18.85-1.51.63-16.14.62-18.57.33-3.83-.45-5.53-3.62-4.09-7.16,1.97-4.85,10.65-2.78,14.76-3.2Z"/>
      <rect class="cls-1" x="212.7" y="51.8" width="10.35" height="20.7"/>
      <rect class="cls-1" x="212.7" y="104.15" width="10.35" height="10.35"/>
      <polygon class="cls-1" points="223.05 83.45 223.05 93.8 213.61 93.8 212.7 92.89 212.7 83.45 223.05 83.45"/>
      <path class="cls-1" d="M142.57,88.36c0,11.47-9.3,20.77-20.77,20.77s-20.77-9.3-20.77-20.77,9.3-20.77,20.77-20.77,20.77,9.3,20.77,20.77ZM132.19,88.35c0-5.73-4.65-10.38-10.38-10.38s-10.38,4.65-10.38,10.38,4.65,10.38,10.38,10.38,10.38-4.65,10.38-10.38Z"/>
      <path class="cls-1" d="M124.43,228.33v10.96h-9.44l-.82-1.01c.19-3.1-1.04-7.44.82-9.95h9.44Z"/>
      <rect class="cls-1" x="114.09" y="207.63" width="10.35" height="10.35"/>
      <rect class="cls-1" x="165.83" y="145.54" width="10.96" height="10.35"/>
      <rect class="cls-1" x="145.13" y="145.54" width="10.35" height="10.35"/>
    </g>
  </g>
</svg>