<svg width="37" height="50" viewBox="0 0 37 50" fill="none" xmlns="http://www.w3.org/2000/svg">
<path d="M18.1493 35.4142C16.2597 35.4002 14.7231 36.9088 14.7091 38.7974C14.6951 40.687 16.2177 42.2237 18.0923 42.2377C19.9819 42.2517 21.5186 40.729 21.5326 38.8394C21.5476 36.9648 20.0249 35.4282 18.1493 35.4142Z" fill="#EF5226"/>
<path d="M33.5806 27.6429H2.66142C1.19074 27.6429 0 28.8337 0 30.3044V47.3386C0 48.8093 1.19074 50 2.66142 50H33.5806C35.0513 50 36.242 48.8093 36.242 47.3386V30.3044C36.242 28.8337 35.0513 27.6429 33.5806 27.6429ZM24.7066 40.0172L23.1639 40.3901C23.0599 40.7211 22.926 41.042 22.76 41.3429L23.5678 42.7096L21.9322 44.3253L20.5755 43.4965C20.2755 43.6624 19.9546 43.7864 19.6227 43.8904L19.2188 45.423L16.9303 45.413L16.5474 43.8704C16.2164 43.7664 15.9055 43.6324 15.6046 43.4665L14.2269 44.2743L12.6222 42.6366L13.451 41.2799C13.2851 40.98 13.1611 40.6591 13.0571 40.3172L11.5245 39.9232L11.5345 37.6347L13.0771 37.2518C13.1811 36.9209 13.3151 36.599 13.481 36.299L12.6732 34.9323L14.3089 33.3277L15.6656 34.1455C15.9655 33.9905 16.2864 33.8556 16.6183 33.7626L17.0223 32.2199L19.3108 32.2409L19.6937 33.7836C20.0246 33.8876 20.3355 34.0215 20.6365 34.1875L22.0142 33.3797L23.6188 35.0153L22.79 36.372C22.9559 36.672 23.0799 36.9929 23.1839 37.3248L24.7166 37.7287L24.7066 40.0172Z" fill="#EF5226"/>
<path d="M18.1207 17.1222C21.5016 17.1222 24.2423 14.3815 24.2423 11.0006C24.2423 7.61966 21.5016 4.87891 18.1207 4.87891C14.7398 4.87891 11.999 7.61966 11.999 11.0006C11.999 14.3815 14.7398 17.1222 18.1207 17.1222Z" fill="#EF5226"/>
<path d="M7.19131 14.3129H9.13588C9.70776 14.3129 10.1717 13.849 10.1717 13.2771V8.72408C10.1717 8.1942 9.76774 7.77329 9.25386 7.7123C9.63977 4.543 12.5321 2.07054 16.0354 2.07054H20.2054C23.7097 2.07054 26.601 4.542 26.987 7.7123C26.4731 7.77329 26.0692 8.1942 26.0692 8.72408V13.2771C26.0692 13.849 26.5331 14.3129 27.1049 14.3129H27.8278V14.5558C27.8278 15.8575 26.769 16.9163 25.4663 16.9163H24.2416C23.6697 16.9163 23.2058 17.3802 23.2058 17.9521C23.2058 18.5239 23.6687 18.9878 24.2416 18.9878H25.4663C27.9108 18.9878 29.8983 17.0003 29.8983 14.5558V14.1359C30.6581 13.807 31.19 13.0521 31.19 12.1723V9.82984C31.19 8.6531 30.2402 7.69931 29.0655 7.69031C28.6666 3.38726 24.8484 0 20.2054 0H16.0354C11.3924 0 7.57423 3.38726 7.17531 7.69031C6.00057 7.69931 5.05078 8.6531 5.05078 9.82984V12.1723C5.05078 13.3541 6.00957 14.3129 7.19131 14.3129Z" fill="#EF5226"/>
<path d="M26.5501 20.6384H9.6918C6.9654 20.6384 4.75488 22.8489 4.75488 25.5753H31.488C31.487 22.8479 29.2775 20.6384 26.5501 20.6384Z" fill="#EF5226"/>
</svg>
