<svg width="50" height="50" viewBox="0 0 50 50" fill="none" xmlns="http://www.w3.org/2000/svg">
<path fill-rule="evenodd" clip-rule="evenodd" d="M49.3652 19.3591L44.8653 18.4972C44.5346 17.4858 44.1265 16.5014 43.6446 15.5526L46.2182 11.7586C46.3202 11.6084 46.3665 11.4272 46.3492 11.2464C46.3319 11.0657 46.252 10.8966 46.1233 10.7685L39.2315 3.87695C39.103 3.74838 38.9338 3.6686 38.7528 3.65135C38.5718 3.63409 38.3905 3.68044 38.24 3.78242L34.4465 6.35518C33.498 5.87357 32.5139 5.46547 31.5029 5.13447L30.6399 0.633497C30.6056 0.455255 30.5103 0.29453 30.3703 0.178927C30.2304 0.0633247 30.0546 6.052e-05 29.873 9.7661e-07H20.127C19.9453 -0.000286356 19.7692 0.0628373 19.6291 0.178485C19.4889 0.294133 19.3936 0.455055 19.3594 0.633497L18.4961 5.13477C17.4852 5.46608 16.5012 5.87416 15.5525 6.35547L11.7586 3.78203C11.6082 3.68009 11.427 3.63376 11.2461 3.65101C11.0652 3.66826 10.896 3.74802 10.7676 3.87656L3.87608 10.7685C3.74785 10.8969 3.66833 11.066 3.65119 11.2466C3.63405 11.4273 3.68034 11.6083 3.78213 11.7586L6.35566 15.5526C5.87393 16.5016 5.46545 17.486 5.13379 18.4972L0.633496 19.3591C0.45509 19.3934 0.294237 19.4889 0.178616 19.6291C0.0629938 19.7692 -0.000167163 19.9453 3.32278e-07 20.127V29.873C-9.90132e-05 30.0547 0.0630929 30.2307 0.178709 30.3708C0.294325 30.5108 0.455139 30.6063 0.633496 30.6406L5.13379 31.5029C5.46506 32.5141 5.87315 33.4984 6.35449 34.4474L3.78213 38.2409C3.68031 38.3913 3.63399 38.5723 3.65113 38.7531C3.66828 38.9339 3.74781 39.103 3.87608 39.2315L10.7676 46.123C10.896 46.2515 11.0652 46.3313 11.246 46.3486C11.4269 46.3659 11.6081 46.3197 11.7586 46.218L15.5526 43.6443C16.5014 44.1255 17.4854 44.5336 18.4962 44.865L19.3596 49.3659C19.3937 49.5444 19.489 49.7054 19.6291 49.8211C19.7692 49.9369 19.9452 50.0001 20.127 50H29.873C30.0547 50 30.2306 49.9367 30.3706 49.821C30.5106 49.7053 30.6059 49.5445 30.6401 49.3661L31.5031 44.8662C32.5143 44.5345 33.4986 44.126 34.4476 43.6443L38.2402 46.218C38.3908 46.3198 38.5721 46.3659 38.753 46.3486C38.934 46.3313 39.1032 46.2515 39.2317 46.123L46.123 39.2315C46.2517 39.1033 46.3316 38.9342 46.3489 38.7533C46.3662 38.5725 46.3199 38.3913 46.2179 38.2409L43.6443 34.4474C44.1257 33.4984 44.5338 32.5141 44.865 31.5029L49.3649 30.6404C49.5435 30.6062 49.7045 30.5108 49.8203 30.3707C49.9362 30.2307 49.9996 30.0546 49.9997 29.8729V20.127C49.9996 19.9452 49.9361 19.7691 49.8203 19.6291C49.7045 19.489 49.5435 19.3936 49.3649 19.3594L49.3652 19.3591ZM15.7784 13.3311C15.7189 13.2475 15.6764 13.153 15.6535 13.053C15.6305 12.953 15.6275 12.8494 15.6446 12.7482C15.6617 12.6471 15.6986 12.5503 15.7532 12.4634C15.8078 12.3765 15.879 12.3012 15.9627 12.2419C18.7238 10.2865 22.0448 9.27954 25.4269 9.37232C28.8091 9.4651 32.0699 10.6526 34.7196 12.7564V10.1424C34.7196 9.93518 34.8019 9.73647 34.9485 9.58996C35.095 9.44344 35.2937 9.36113 35.5009 9.36113C35.7081 9.36113 35.9068 9.44344 36.0533 9.58996C36.1998 9.73647 36.2821 9.93518 36.2821 10.1424V14.4989C36.2821 14.7061 36.1998 14.9048 36.0533 15.0514C35.9068 15.1979 35.7081 15.2802 35.5009 15.2802H31.1444C30.9372 15.2802 30.7385 15.1979 30.592 15.0514C30.4455 14.9048 30.3632 14.7061 30.3632 14.4989C30.3632 14.2917 30.4455 14.093 30.592 13.9465C30.7385 13.8 30.9372 13.7177 31.1444 13.7177H33.4062C31.0238 11.9421 28.1405 10.9662 25.1695 10.9299C22.1984 10.8935 19.2922 11.7986 16.8671 13.5154C16.7836 13.575 16.6891 13.6175 16.5891 13.6404C16.4892 13.6634 16.3856 13.6664 16.2845 13.6493C16.1834 13.6322 16.0866 13.5952 15.9998 13.5407C15.9129 13.4861 15.8377 13.4149 15.7784 13.3312V13.3311ZM34.2216 36.6689C34.281 36.7525 34.3234 36.847 34.3463 36.9469C34.3693 37.0469 34.3722 37.1504 34.3551 37.2515C34.338 37.3526 34.3011 37.4494 34.2466 37.5363C34.1921 37.6231 34.1209 37.6984 34.0373 37.7577C31.276 39.7128 27.9551 40.7195 24.5731 40.6267C21.191 40.5339 17.9303 39.3466 15.2804 37.2431V39.8571C15.2804 40.0643 15.1981 40.263 15.0515 40.4096C14.905 40.5561 14.7063 40.6384 14.4991 40.6384C14.2919 40.6384 14.0932 40.5561 13.9467 40.4096C13.8002 40.263 13.7179 40.0643 13.7179 39.8571V35.5011C13.7179 35.2939 13.8002 35.0952 13.9467 34.9486C14.0932 34.8021 14.2919 34.7198 14.4991 34.7198H18.8557C19.0629 34.7198 19.2616 34.8021 19.4081 34.9486C19.5546 35.0952 19.6369 35.2939 19.6369 35.5011C19.6369 35.7083 19.5546 35.907 19.4081 36.0535C19.2616 36.2 19.0629 36.2823 18.8557 36.2823H16.5925C18.9751 38.0579 21.8586 39.0338 24.8299 39.0701C27.8011 39.1064 30.7076 38.2012 33.1329 36.4844C33.2165 36.4249 33.311 36.3826 33.411 36.3597C33.5109 36.3368 33.6144 36.3339 33.7156 36.351C33.8167 36.3682 33.9134 36.4051 34.0002 36.4597C34.0871 36.5143 34.1623 36.5855 34.2216 36.6691V36.6689ZM13.5156 33.1324C13.6355 33.3014 13.6834 33.511 13.6488 33.7153C13.6141 33.9195 13.4998 34.1016 13.3309 34.2216C13.2473 34.281 13.1528 34.3233 13.0528 34.3462C12.9528 34.369 12.8493 34.372 12.7482 34.3548C12.6471 34.3377 12.5504 34.3007 12.4636 34.2462C12.3767 34.1916 12.3015 34.1205 12.2422 34.0368C10.2833 31.2772 9.27419 27.9556 9.367 24.5727C9.45981 21.1897 10.6495 17.9285 12.7567 15.2804H10.1414C9.93421 15.2804 9.73549 15.1981 9.58898 15.0515C9.44247 14.905 9.36016 14.7063 9.36016 14.4991C9.36016 14.2919 9.44247 14.0932 9.58898 13.9467C9.73549 13.8002 9.93421 13.7179 10.1414 13.7179H14.499C14.7062 13.718 14.9048 13.8004 15.0513 13.9468C15.1978 14.0933 15.2801 14.292 15.2803 14.4991V18.8553C15.2803 19.0625 15.198 19.2612 15.0515 19.4077C14.9049 19.5542 14.7062 19.6365 14.499 19.6365C14.2918 19.6365 14.0931 19.5542 13.9466 19.4077C13.8001 19.2612 13.7178 19.0625 13.7178 18.8553V16.5918C11.9389 18.973 10.9609 21.8571 10.9246 24.8292C10.8883 27.8013 11.7954 30.7084 13.5156 33.1324ZM40.6384 35.5011C40.6385 35.6037 40.6183 35.7053 40.5791 35.8001C40.5398 35.895 40.4823 35.9811 40.4097 36.0537C40.3372 36.1262 40.251 36.1838 40.1562 36.223C40.0614 36.2622 39.9597 36.2824 39.8571 36.2823H35.5011C35.2939 36.2823 35.0952 36.2 34.9486 36.0535C34.8021 35.907 34.7198 35.7083 34.7198 35.5011V31.1444C34.7198 30.9372 34.8021 30.7385 34.9486 30.592C35.0952 30.4455 35.2939 30.3632 35.5011 30.3632C35.7083 30.3632 35.907 30.4455 36.0535 30.592C36.2 30.7385 36.2823 30.9372 36.2823 31.1444V33.4062C39.8806 28.5782 40.0331 21.8659 36.4832 16.8671C36.3633 16.698 36.3154 16.4883 36.3501 16.2839C36.3849 16.0796 36.4994 15.8974 36.6684 15.7775C36.8375 15.6576 37.0472 15.6097 37.2516 15.6444C37.4559 15.6792 37.6381 15.7936 37.758 15.9627C41.7958 21.6494 41.5235 29.3318 37.243 34.7197H39.8575C40.0647 34.7197 40.2634 34.802 40.4099 34.9485C40.5565 35.0951 40.6388 35.2938 40.6388 35.501L40.6384 35.5011ZM25 14.575C27.0618 14.5749 29.0774 15.1863 30.7918 16.3317C32.5062 17.4772 33.8424 19.1053 34.6315 21.0102C35.4205 22.915 35.627 25.0111 35.2248 27.0333C34.8226 29.0556 33.8298 30.9131 32.3719 32.3711C30.914 33.8291 29.0565 34.822 27.0343 35.2243C25.0121 35.6265 22.916 35.4201 21.0111 34.6312C19.1062 33.8422 17.478 32.506 16.3325 30.7917C15.187 29.0774 14.5755 27.0618 14.5755 25C14.5785 22.2361 15.6778 19.5863 17.6321 17.6319C19.5864 15.6775 22.2361 14.5782 25 14.575ZM25 33.8621C23.2472 33.8621 21.5338 33.3423 20.0764 32.3686C18.619 31.3948 17.4831 30.0107 16.8124 28.3913C16.1416 26.7719 15.9661 24.99 16.3081 23.2709C16.65 21.5518 17.4941 19.9727 18.7335 18.7333C19.9729 17.4939 21.552 16.6499 23.2711 16.308C24.9902 15.966 26.7721 16.1415 28.3915 16.8123C30.0108 17.4831 31.3949 18.619 32.3687 20.0764C33.3425 21.5338 33.8622 23.2472 33.8622 25C33.8595 27.3496 32.925 29.6022 31.2636 31.2636C29.6022 32.925 27.3496 33.8595 25 33.8622V33.8621ZM29.7994 26.6394C29.7994 26.8466 29.7171 27.0453 29.5706 27.1918C29.4241 27.3383 29.2254 27.4206 29.0182 27.4206H24.0064C23.7992 27.4206 23.6005 27.3383 23.454 27.1918C23.3075 27.0453 23.2252 26.8466 23.2252 26.6394V19.3015C23.2252 19.0943 23.3075 18.8956 23.454 18.749C23.6005 18.6025 23.7992 18.5202 24.0064 18.5202C24.2136 18.5202 24.4124 18.6025 24.5589 18.749C24.7054 18.8956 24.7877 19.0943 24.7877 19.3015V25.858H29.0186C29.1212 25.858 29.2227 25.8783 29.3175 25.9176C29.4123 25.9568 29.4984 26.0144 29.5709 26.087C29.6435 26.1595 29.701 26.2457 29.7402 26.3405C29.7795 26.4353 29.7996 26.5369 29.7996 26.6395L29.7994 26.6394Z" fill="#EF5226"/>
</svg>
