<svg width="50" height="50" viewBox="0 0 50 50" fill="none" xmlns="http://www.w3.org/2000/svg">
<path fill-rule="evenodd" clip-rule="evenodd" d="M42.6845 14.6299C44.107 14.6299 45.4356 14.2205 46.559 13.5164V12.3559C46.559 10.9083 45.3821 9.73035 43.9334 9.73035H41.441C39.9924 9.73035 38.8155 10.9083 38.8155 12.3559V13.5164C39.9378 14.2205 41.262 14.6299 42.6845 14.6299ZM19.0502 6.56004H29.3668L27.3919 8.53603C27.1376 8.79148 27.1376 9.20633 27.3919 9.46179C27.5164 9.59061 27.6867 9.65393 27.8559 9.65393C28.0207 9.65393 28.19 9.59061 28.3199 9.46179L31.4138 6.369C31.6681 6.11244 31.6681 5.6976 31.4138 5.44214L28.3188 2.34825C28.06 2.09279 27.6452 2.09279 27.3919 2.34825C27.1376 2.6048 27.1376 3.01856 27.3919 3.27511L29.3668 5.25H19.0502C18.6889 5.25 18.3952 5.54367 18.3952 5.90502C18.3952 6.26747 18.6889 6.56004 19.0502 6.56004ZM7.31114 14.6288C11.3461 14.6288 14.6277 11.3483 14.6277 7.31441C14.6277 3.28166 11.3461 0 7.31114 0C3.28166 0 0 3.28166 0 7.31441C0 11.3483 3.28166 14.6288 7.31114 14.6288ZM7.48581 6.68231C9.22926 7.15611 10.1878 8.13537 10.1878 9.44214C10.1878 10.7467 9.23799 11.8417 7.96725 12.1266V12.726C7.96725 13.0884 7.67795 13.381 7.31223 13.381C6.95087 13.381 6.66157 13.0884 6.66157 12.726V12.1266C5.39083 11.8417 4.44105 10.7467 4.44105 9.44214C4.44105 9.07969 4.73581 8.78712 5.09607 8.78712C5.45742 8.78712 5.75109 9.07969 5.75109 9.44214C5.75109 10.2402 6.45087 10.8897 7.31114 10.8897C8.17576 10.8897 8.87555 10.2402 8.87555 9.44214C8.87555 8.59607 7.9345 8.16157 7.14083 7.9476C5.39738 7.47489 4.43886 6.49454 4.43886 5.18886C4.43886 3.88428 5.38865 2.78821 6.65939 2.50328V1.90393C6.65939 1.54258 6.94869 1.24891 7.31004 1.24891C7.67576 1.24891 7.96507 1.54258 7.96507 1.90393V2.50328C9.23581 2.78821 10.1856 3.88428 10.1856 5.18886C10.1856 5.55022 9.89083 5.84389 9.53057 5.84389C9.16921 5.84389 8.87555 5.55022 8.87555 5.18886C8.87555 4.38974 8.17576 3.74017 7.31114 3.74017C6.45087 3.74017 5.75109 4.38974 5.75109 5.18886C5.75109 6.03493 6.69214 6.46834 7.48581 6.68231ZM9.4607 21.6823L6.36681 18.5884C6.24672 18.4651 6.07751 18.3963 5.90284 18.3963C5.72926 18.3963 5.56441 18.4651 5.44323 18.5884L2.34934 21.6823C2.09061 21.9378 2.09061 22.3526 2.34934 22.6081C2.60371 22.8646 3.01856 22.8646 3.27183 22.6081L5.24782 20.6332V30.9498C5.24782 31.3111 5.54258 31.6048 5.90284 31.6048C6.26419 31.6048 6.55786 31.3111 6.55786 30.9498V20.6332L8.53712 22.6081C8.66157 22.7369 8.83188 22.8002 8.99673 22.8002C9.16594 22.8002 9.33079 22.7369 9.4607 22.6081C9.71507 22.3526 9.71507 21.9378 9.4607 21.6823ZM24.7031 27.2314L28.238 23.6954C28.4924 23.44 28.4924 23.0251 28.238 22.7697C27.9836 22.5131 27.5644 22.5131 27.3111 22.7697L24.2391 25.8428L22.6834 24.2893C22.429 24.0338 22.0142 24.0338 21.7609 24.2893C21.5022 24.5448 21.5022 24.9596 21.7609 25.2151L23.7762 27.2314C23.905 27.3603 24.071 27.4236 24.2402 27.4236C24.405 27.4236 24.5742 27.3603 24.7031 27.2314ZM22.4651 32.7129C22.0819 32.5862 21.7031 32.429 21.3373 32.2456C21.1277 32.1386 20.9007 32.0862 20.6736 32.0862C20.2948 32.0862 19.9203 32.2347 19.6397 32.5175L18.2445 33.9116C18.2085 33.9498 18.1638 33.9574 18.1332 33.9574C18.1059 33.9574 18.0622 33.9498 18.0218 33.9116L16.0873 31.9782C16.0295 31.9181 16.0295 31.8166 16.0873 31.7566L17.4825 30.3614C17.9323 29.9116 18.0448 29.2282 17.7544 28.6605C17.5721 28.298 17.4159 27.9192 17.286 27.5338C17.0895 26.9301 16.5284 26.5251 15.8952 26.5251H13.9192C13.8341 26.5251 13.7631 26.4531 13.7631 26.3679V23.6332C13.7631 23.548 13.8341 23.476 13.9192 23.476H15.8941C16.5273 23.476 17.0884 23.071 17.2893 22.4672C17.4138 22.0819 17.5699 21.702 17.7533 21.3406C18.0426 20.7729 17.9312 20.0895 17.4814 19.6397L16.0862 18.2456C16.0284 18.1845 16.0284 18.083 16.0862 18.0229L18.0207 16.0895C18.0611 16.0524 18.1059 16.0437 18.1321 16.0437C18.1638 16.0437 18.2074 16.0524 18.2435 16.0895L19.6386 17.4847C20.0884 17.9345 20.7707 18.0437 21.3373 17.7555C21.7031 17.5721 22.0819 17.4148 22.4651 17.2882C23.0666 17.0895 23.4727 16.5295 23.4727 15.8941V13.9225C23.4727 13.8373 23.548 13.7653 23.6332 13.7653H26.3657C26.4509 13.7653 26.5218 13.8373 26.5218 13.9225V15.8941C26.5218 16.5295 26.9279 17.0895 27.5338 17.2882C27.917 17.4148 28.2958 17.5721 28.6572 17.7555C29.2282 18.0437 29.9105 17.9345 30.3603 17.4847L31.7555 16.0895C31.7915 16.0524 31.8362 16.0437 31.8668 16.0437C31.893 16.0437 31.9378 16.0524 31.9782 16.0895L33.9083 18.0229C33.9487 18.06 33.9531 18.1037 33.9531 18.1343C33.9531 18.1638 33.9487 18.2074 33.9083 18.2456L32.5131 19.6397C32.0633 20.0895 31.9563 20.7729 32.2413 21.3406C32.4279 21.7031 32.5841 22.0819 32.7096 22.4672C32.9105 23.071 33.4716 23.476 34.1048 23.476H36.0753C36.1605 23.476 36.2358 23.548 36.2358 23.6332V26.3679C36.2358 26.4531 36.1605 26.5251 36.0753 26.5251H34.1048C33.4672 26.5251 32.9105 26.9301 32.7096 27.5338C32.5852 27.9192 32.429 28.298 32.2413 28.6605C31.9563 29.2282 32.0633 29.9116 32.5131 30.3614L33.9083 31.7566C33.9487 31.7937 33.9531 31.8373 33.9531 31.8679C33.9531 31.8974 33.9487 31.941 33.9083 31.9782L31.9782 33.9116C31.9378 33.9498 31.893 33.9574 31.8668 33.9574C31.8352 33.9574 31.7915 33.9498 31.7555 33.9116L30.3603 32.5164C29.9105 32.0677 29.2238 31.9585 28.6572 32.2456C28.2958 32.429 27.917 32.5862 27.5338 32.7129C26.9279 32.9116 26.5218 33.4716 26.5218 34.107V36.0786C26.5218 36.1638 26.4509 36.2358 26.3657 36.2358H23.6332C23.548 36.2358 23.4727 36.1638 23.4727 36.0786V34.107C23.4727 33.4716 23.0677 32.9116 22.4651 32.7129ZM24.9127 31.6255C21.3144 31.6255 18.3854 28.6965 18.3854 25.0961C18.3854 21.4956 21.3144 18.5666 24.9127 18.5666C28.5153 18.5666 31.4443 21.4956 31.4443 25.0961C31.4443 28.6965 28.5153 31.6255 24.9127 31.6255ZM14.6277 42.6856C14.6277 38.6528 11.3461 35.3712 7.31114 35.3712C3.28166 35.3712 0 38.6528 0 42.6856C0 46.7194 3.28166 50 7.31223 50C11.3461 50 14.6277 46.7194 14.6277 42.6856ZM11.0873 39.8384V45.5338H9.7762V39.8384H11.0873ZM7.96725 41.6092V45.5338H6.66048V41.6092H7.96725ZM3.5393 43.3177H4.85044V45.5338H3.5393V43.3177ZM31.6048 44.0961C31.6048 43.7336 31.31 43.441 30.9498 43.441H20.6332L22.6081 41.4651C22.8624 41.2096 22.8624 40.7948 22.6081 40.5393C22.3537 40.2827 21.9345 40.2827 21.6812 40.5393L18.5873 43.6321C18.333 43.8886 18.333 44.3035 18.5873 44.559L21.6812 47.6528C21.81 47.7806 21.976 47.845 22.1452 47.845C22.31 47.845 22.4793 47.7806 22.6092 47.6528C22.8635 47.3974 22.8635 46.9825 22.6092 46.726L20.6332 44.7511H30.9498C31.3111 44.7511 31.6048 44.4574 31.6048 44.0961ZM49.9694 42.0306C49.6572 38.5197 46.8526 35.7162 43.3395 35.4028V37.0011C43.3395 37.3624 43.0448 37.6561 42.6845 37.6561C42.3231 37.6561 42.0295 37.3624 42.0295 37.0011V35.4028C38.5207 35.7162 35.7162 38.5197 35.3996 42.0306H37C37.3614 42.0306 37.655 42.3242 37.655 42.6856C37.655 43.048 37.3603 43.3406 37 43.3406H35.3996C35.7162 46.8526 38.5207 49.6561 42.0295 49.9694V48.3712C42.0295 48.0098 42.3242 47.7162 42.6845 47.7162C43.0458 47.7162 43.3395 48.0098 43.3395 48.3712V49.9694C46.8526 49.6561 49.6572 46.8526 49.9694 43.3406H48.369C48.0076 43.3406 47.7183 43.048 47.7183 42.6856C47.7183 42.3242 48.0076 42.0306 48.369 42.0306H49.9694ZM44.8155 42.0306C45.1769 42.0306 45.4705 42.3242 45.4705 42.6856C45.4705 43.048 45.1758 43.3406 44.8155 43.3406H42.6845C42.3231 43.3406 42.0295 43.048 42.0295 42.6856V39.5753C42.0295 39.214 42.3242 38.9203 42.6845 38.9203C43.0458 38.9203 43.3395 39.214 43.3395 39.5753V42.0306H44.8155ZM44.0928 18.3963C43.7314 18.3963 43.4378 18.69 43.4378 19.0513V29.3679L41.4629 27.393C41.2085 27.1365 40.7937 27.1365 40.5404 27.393C40.2817 27.6485 40.2817 28.0633 40.5404 28.3188L43.6343 31.4127C43.7587 31.5404 43.929 31.6048 44.0939 31.6048C44.2631 31.6048 44.4279 31.5404 44.5579 31.4127L47.6517 28.3188C47.9105 28.0633 47.9105 27.6485 47.6517 27.393C47.3974 27.1376 46.9825 27.1365 46.7249 27.393L44.75 29.3679V19.0513C44.7478 18.69 44.4585 18.3963 44.0928 18.3963ZM42.6845 6.24345C43.6168 6.24345 44.3701 5.4869 44.3701 4.55677C44.3701 3.62773 43.6168 2.87118 42.6845 2.87118C41.7576 2.87118 40.9989 3.62773 40.9989 4.55677C40.9989 5.4869 41.7565 6.24345 42.6845 6.24345ZM43.9323 8.42031H41.44C39.2686 8.42031 37.5033 10.1856 37.5033 12.3559V12.4716C36.1878 11.1474 35.3723 9.32533 35.3723 7.31441C35.3723 3.28166 38.6539 0 42.6845 0C46.7183 0 50 3.28166 50 7.31441C50 9.32533 49.1845 11.1474 47.869 12.4716V12.3559C47.869 10.1856 46.1037 8.42031 43.9323 8.42031ZM45.6801 4.55677C45.6801 6.20961 44.3384 7.55349 42.6845 7.55349C41.0349 7.55349 39.6889 6.20961 39.6889 4.55677C39.6889 2.90502 41.0349 1.56114 42.6845 1.56114C44.3384 1.56114 45.6801 2.90502 45.6801 4.55677Z" fill="#EF5226"/>
</svg>
