<svg width="52" height="50" viewBox="0 0 52 50" fill="none" xmlns="http://www.w3.org/2000/svg">
<path d="M5.35367 19.7894V16.4724H9.80355V19.7894H5.35367ZM20.2103 19.7894V12.6376H15.7594V19.7894H20.2103ZM28.2733 19.7894C28.711 19.4225 29.1883 19.0618 29.697 18.7131C29.8158 18.631 29.9489 18.5419 30.1073 18.4385C30.2728 18.329 30.4424 18.2226 30.616 18.1203V10.8509H26.1662V19.7894H28.2733ZM48.2917 38.3151C47.1493 39.7612 46.7817 41.4689 47.2295 43.2535L48.0876 46.6749C48.2663 47.4015 48.1119 48.1201 47.6539 48.7018C47.1959 49.2835 46.5368 49.6037 45.7965 49.6037H45.7813L33.1506 49.5348C32.9902 49.5338 32.8338 49.4862 32.7007 49.396C31.9107 48.8639 31.4344 47.889 31.1968 46.2817C31.0871 46.2949 30.9775 46.3091 30.8688 46.3222C28.7058 46.5928 26.6616 46.8482 25.573 45.4456C24.8084 44.4616 24.7434 42.985 25.3242 41.9209L25.0693 41.6574C24.8175 41.3979 24.6895 41.0574 24.7098 40.6977C24.7271 40.3571 24.8733 40.046 25.1262 39.816L24.8845 39.6406C24.6174 39.4481 24.4499 39.1613 24.4123 38.8339C24.3991 38.7214 24.4032 38.609 24.4214 38.5015C23.7441 38.46 23.1115 38.2948 22.6961 37.8448C22.3102 37.4273 22.1762 36.8658 22.2859 36.1301C22.3031 36.0125 22.3458 35.901 22.4108 35.8027L23.9391 33.4881L24.6652 32.3885C24.7535 32.2233 24.8276 32.049 24.8906 31.8676C25.1374 31.1592 25.2156 30.3292 25.3029 29.3998C25.3405 29.0005 25.3791 28.5871 25.4329 28.1614C25.4999 27.6375 25.5893 27.0953 25.7284 26.5409C26.0087 25.412 26.491 24.2283 27.3928 23.0314C27.798 22.4933 28.2874 21.9511 28.8825 21.4109C29.3821 20.9559 29.9569 20.5019 30.6159 20.0509C30.7419 19.9637 30.8698 19.8786 31.0018 19.7924C31.3897 19.535 31.8031 19.2999 32.2397 19.0881C35.6122 17.4463 40.2875 17.1798 44.1017 18.4638C44.3119 18.5348 44.52 18.6108 44.7252 18.6908C45.0491 18.8175 45.3842 18.9635 45.7254 19.1307C48.0174 20.2546 50.5622 22.3423 51.4944 26.1943C53.0818 30.8501 50.6314 35.3538 48.2917 38.3151ZM49.9469 26.6848C49.9378 26.6595 49.9307 26.6342 49.9246 26.6088C49.0888 23.1054 46.6598 21.3075 44.5983 20.3934C44.5862 20.3883 44.574 20.3833 44.5618 20.3772C44.4166 20.3134 44.2724 20.2546 44.1312 20.1988C40.1992 18.6554 35.0658 19.0486 31.9137 21.1322C31.9076 21.1373 31.9005 21.1413 31.8945 21.1454C31.8753 21.1586 31.8549 21.1707 31.8357 21.1839L31.8336 21.1859C27.4376 24.0722 27.1624 26.9818 26.9197 29.5519C26.8029 30.7903 26.6922 31.9638 26.1601 33.029C26.1337 33.0837 26.1052 33.1384 26.0758 33.1921C26.0646 33.2114 26.0524 33.2306 26.0402 33.2499L23.8742 36.5304C23.8651 36.6946 23.8925 36.7503 23.8925 36.7503C23.8986 36.7554 24.1067 36.954 25.3842 36.8709C25.8077 36.8395 26.2017 37.0614 26.3946 37.4415C26.5866 37.8175 26.5338 38.2684 26.2586 38.5927L26.2362 38.6191L26.9197 39.1157C27.1217 39.2616 27.2446 39.4937 27.2538 39.742C27.2619 39.9913 27.1553 40.2305 26.9643 40.3906L26.4871 40.7899L26.9684 41.2875C27.1187 41.4425 27.2009 41.6513 27.1959 41.8682C27.1908 42.084 27.1004 42.2887 26.943 42.4377C26.5236 42.835 26.3987 43.8646 26.8567 44.4534C27.3776 45.1264 29.0502 44.9166 30.6678 44.7149C31.0436 44.6673 31.4325 44.6186 31.8235 44.5781C32.0408 44.5558 32.2561 44.6207 32.4236 44.7575C32.5922 44.8953 32.6978 45.095 32.7171 45.3108C32.8349 46.6232 33.0878 47.515 33.4533 47.9164L45.7905 47.9833H45.7956C46.0373 47.9833 46.2272 47.891 46.3765 47.7015C46.5257 47.511 46.5704 47.3032 46.5115 47.0651L45.6546 43.6468C45.0889 41.3898 45.5722 39.141 47.0163 37.3128C49.1122 34.6596 51.3209 30.6626 49.9469 26.6848ZM23.2598 31.5696C23.2933 31.4997 23.3258 31.4217 23.3563 31.3355C23.5381 30.8116 23.6061 30.087 23.6853 29.2488L23.6884 29.2194C23.7199 28.8789 23.7534 28.5283 23.797 28.1614C23.8041 28.0945 23.8123 28.0266 23.8214 27.9587C23.8884 27.4348 23.9656 26.9757 24.0611 26.5409C24.0895 26.4072 24.1199 26.2764 24.1524 26.1467C24.4327 25.0208 24.8552 23.9921 25.435 23.0314C25.6351 22.699 25.8544 22.3737 26.0941 22.0565C26.2586 21.8386 26.4322 21.6227 26.617 21.4109H1.62276V1.62049H44.1018V16.7643C44.2764 16.815 44.4501 16.8697 44.6207 16.9275C44.8502 17.0045 45.0838 17.0896 45.3173 17.1808C45.4544 17.2345 45.5905 17.2893 45.7255 17.348V0.810751C45.7255 0.362811 45.362 0 44.9142 0H0.811377C0.36253 0 0 0.362811 0 0.810751V27.3517C0 27.7986 0.36253 28.1614 0.811377 28.1614H15.8772V31.8676H7.90661C7.45878 31.8676 7.09524 32.2304 7.09524 32.6773C7.09524 33.1252 7.45878 33.4881 7.90661 33.4881H16.6896H21.9935L23.0628 31.8676L23.2598 31.5696ZM36.4277 44.2437C36.4277 44.6166 36.9222 45.0331 37.6311 45.0331H39.4153C40.1251 45.0331 40.6186 44.6166 40.6186 44.2437V43.215H36.4277V44.2437ZM38.5237 22.7669C34.744 22.7669 31.6691 25.8346 31.6691 29.6066C31.6691 31.7054 32.6145 33.6583 34.2617 34.9646C35.1137 35.6376 35.6488 36.4584 35.8976 37.4719L36.0367 38.0404H37.7113V32.8901H35.1299C34.6811 32.8901 34.3175 32.5273 34.3175 32.0804C34.3175 31.6324 34.6811 31.2696 35.1299 31.2696H41.9174C42.3653 31.2696 42.7288 31.6324 42.7288 32.0804C42.7288 32.5273 42.3653 32.8901 41.9174 32.8901H39.3351V38.0404H40.9974L41.1528 37.4567C41.4229 36.4351 41.9571 35.6193 42.7867 34.9636C44.4328 33.6583 45.3772 31.7054 45.3772 29.6066C45.3772 25.8346 42.3023 22.7669 38.5237 22.7669ZM41.5356 39.7106C41.4391 39.6781 41.3366 39.6609 41.2289 39.6609H35.8174C35.7108 39.6609 35.6072 39.6781 35.5107 39.7106C35.1258 39.8393 34.8476 40.2031 34.8476 40.6297C34.8476 41.1618 35.2822 41.5945 35.8174 41.5945H41.2289C41.7641 41.5945 42.1987 41.1618 42.1987 40.6297C42.1987 40.2031 41.9205 39.8393 41.5356 39.7106ZM15.5695 36.6652V35.3578C15.5695 34.4822 14.8546 33.7688 13.9752 33.7688H6.6342C5.7558 33.7688 5.03988 34.4822 5.03988 35.3578V36.6652H6.66365V35.3893H13.9457V36.6652H15.5695ZM17.8808 50H18.9866V43.0468L17.8808 43.3285V50ZM1.62276 50H2.72863V43.3437L1.62276 43.062V50ZM10.291 45.2135C10.1539 45.2135 10.0168 45.1963 9.8787 45.1618L4.3524 43.7562V50H16.258V43.744L10.7165 45.1598C10.5713 45.1953 10.4311 45.2135 10.291 45.2135ZM1.62276 38.2857H18.9866V41.3736L16.8663 41.9158L10.3215 43.589C10.2961 43.5951 10.291 43.5951 10.2717 43.59L3.79184 41.9411C3.75732 41.93 3.72279 41.9209 3.68623 41.9148L1.62276 41.3898V38.2857ZM8.19806 40.9399C8.19806 42.0972 9.14348 43.0397 10.3052 43.0397C11.4669 43.0397 12.4123 42.0972 12.4123 40.9399C12.4123 39.7805 11.4669 38.837 10.3052 38.837C9.14348 38.837 8.19806 39.7805 8.19806 40.9399ZM10.3052 41.4192C10.5713 41.4192 10.7886 41.2044 10.7886 40.9399C10.7886 40.6733 10.5713 40.4575 10.3052 40.4575C10.0381 40.4575 9.82082 40.6733 9.82082 40.9399C9.82082 41.2044 10.0381 41.4192 10.3052 41.4192ZM13.6871 2.95894H4.49883C4.05049 2.95894 3.68705 3.32165 3.68705 3.76908C3.68705 4.21651 4.05049 4.57922 4.49883 4.57922H13.6871C14.1354 4.57922 14.4989 4.21651 14.4989 3.76908C14.4989 3.32165 14.1354 2.95894 13.6871 2.95894ZM13.6871 5.72542H4.49883C4.05049 5.72542 3.68705 6.08813 3.68705 6.53556C3.68705 6.98299 4.05049 7.3457 4.49883 7.3457H13.6871C14.1354 7.3457 14.4989 6.98299 14.4989 6.53556C14.4989 6.08813 14.1354 5.72542 13.6871 5.72542ZM14.4989 9.30498C14.4989 8.85755 14.1354 8.49484 13.6871 8.49484H4.49883C4.05049 8.49484 3.68705 8.85755 3.68705 9.30498C3.68705 9.75242 4.05049 10.1151 4.49883 10.1151H13.6871C14.1354 10.1151 14.4989 9.75242 14.4989 9.30498Z" fill="#EF5226"/>
</svg>
