<svg width="50" height="50" viewBox="0 0 50 50" fill="none" xmlns="http://www.w3.org/2000/svg">
<path d="M50 20.6897V22.4138H35.9052C34.7327 17.4741 30.2931 13.7931 25 13.7931C19.7069 13.7931 15.2673 17.4741 14.0948 22.4138H0V20.6897C0 20.2845 0.2845 19.9397 0.67244 19.8448L8.4138 18.1293L4.15518 11.4396C3.93966 11.1035 3.99139 10.6552 4.27588 10.3707L10.3707 4.27583C10.6552 3.99138 11.1034 3.93966 11.4397 4.15518L18.1293 8.4138L19.8448 0.672388C19.931 0.284448 20.2845 0 20.6897 0H29.3103C29.7155 0 30.069 0.284448 30.1552 0.672388L31.8707 8.4138L38.5603 4.15518C38.8965 3.93966 39.3448 3.99139 39.6293 4.27583L45.7241 10.3707C46.0086 10.6552 46.0603 11.1035 45.8448 11.4396L41.5862 18.1293L49.3276 19.8448C49.7155 19.9397 50 20.2845 50 20.6897Z" fill="#05A7CC"/>
<path d="M0 24.1379V33.6207C0 34.0948 0.38794 34.4828 0.862069 34.4828H24.1379V37.069H7.75862C7.28449 37.069 6.89655 37.4569 6.89655 37.931V41.3793H4.31034C3.83622 41.3793 3.44828 41.7673 3.44828 42.2414V49.1379C3.44828 49.6121 3.83622 50 4.31034 50H11.2069C11.681 50 12.069 49.6121 12.069 49.1379V42.2414C12.069 41.7673 11.681 41.3793 11.2069 41.3793H8.62069V38.7931H24.1379V41.4655C22.1724 41.8707 20.6897 43.6121 20.6897 45.6897C20.6897 48.069 22.6207 50 25 50C27.3793 50 29.3103 48.069 29.3103 45.6897C29.3103 43.6121 27.8276 41.8707 25.8621 41.4655V38.7931H41.3793V41.3793H37.069C36.5948 41.3793 36.2069 41.7673 36.2069 42.2414V49.1379C36.2069 49.6121 36.5948 50 37.069 50H47.4138C47.8879 50 48.2759 49.6121 48.2759 49.1379V42.2414C48.2759 41.7673 47.8879 41.3793 47.4138 41.3793H43.1034V37.931C43.1034 37.4569 42.7155 37.069 42.2414 37.069H25.8621V34.4828H49.1379C49.6121 34.4828 50 34.0948 50 33.6207V24.1379H0ZM29.3103 30.1724H5.17241C4.69828 30.1724 4.31034 29.7845 4.31034 29.3104C4.31034 28.8362 4.69828 28.4483 5.17241 28.4483H29.3103C29.7845 28.4483 30.1724 28.8362 30.1724 29.3104C30.1724 29.7845 29.7845 30.1724 29.3103 30.1724ZM37.069 30.1724H33.6207C33.1466 30.1724 32.7586 29.7845 32.7586 29.3104C32.7586 28.8362 33.1466 28.4483 33.6207 28.4483H37.069C37.5431 28.4483 37.931 28.8362 37.931 29.3104C37.931 29.7845 37.5431 30.1724 37.069 30.1724ZM44.8276 30.1724H41.3793C40.9052 30.1724 40.5172 29.7845 40.5172 29.3104C40.5172 28.8362 40.9052 28.4483 41.3793 28.4483H44.8276C45.3017 28.4483 45.6897 28.8362 45.6897 29.3104C45.6897 29.7845 45.3017 30.1724 44.8276 30.1724Z" fill="#EF5226"/>
</svg>
