<svg width="60" height="50" viewBox="0 0 60 50" fill="none" xmlns="http://www.w3.org/2000/svg">
<path d="M29.7143 17.8042H4.76344C4.56691 17.8042 4.41504 17.9561 4.41504 18.1526V43.1035C4.41504 43.3045 4.57137 43.4697 4.76344 43.4697H29.7143C29.9064 43.4697 30.0672 43.3045 30.0672 43.1035V18.1526C30.0672 17.9561 29.9108 17.8042 29.7143 17.8042ZM27.5748 32.111C27.5748 32.303 27.4542 32.4728 27.2755 32.5353L25.3504 33.1964L24.7831 34.5542L25.672 36.3945C25.7524 36.5643 25.7166 36.7697 25.5826 36.9037L23.5012 38.9852C23.3672 39.1237 23.1617 39.1549 22.992 39.0745L21.1606 38.1857L19.8027 38.744L19.1283 40.6647C19.0657 40.8433 18.9005 40.9639 18.7084 40.9639H15.7693C15.5773 40.9639 15.412 40.8433 15.3495 40.6647L14.675 38.744L13.3171 38.1857L11.4903 39.0745C11.3161 39.1549 11.1151 39.1237 10.9766 38.9897L8.88172 36.9037C8.74325 36.7697 8.71198 36.5643 8.79238 36.3945L9.69465 34.5498L9.12738 33.1964L7.20671 32.5353C7.02358 32.4728 6.90298 32.303 6.90298 32.111V29.1585C6.90298 28.9664 7.02358 28.8012 7.20225 28.7386L9.12738 28.0642L9.69465 26.7063L8.79685 24.8794C8.71198 24.7097 8.74325 24.4998 8.88172 24.3658L10.9766 22.2843C11.1151 22.1503 11.3161 22.1145 11.4903 22.1994L13.3171 23.0838L14.675 22.5165L15.3495 20.5914C15.412 20.4127 15.5773 20.2921 15.7693 20.2921H18.7084C18.9005 20.2921 19.0657 20.4127 19.1283 20.5914L19.8027 22.5165L21.1606 23.0838L22.992 22.1994C23.1617 22.1145 23.3672 22.1503 23.5012 22.2843L25.5826 24.3658C25.7166 24.4998 25.7524 24.7052 25.6675 24.8794L24.7831 26.7063L25.3504 28.0642L27.2755 28.7386C27.4542 28.8012 27.5748 28.9664 27.5748 29.1585V32.111Z" fill="#05A7CC"/>
<path d="M0.144531 10.7424V47.5345C0.144531 48.8923 1.24333 50.0001 2.59227 50.0001H56.8222C58.1801 50.0001 59.2834 48.8923 59.2834 47.5345V10.7424H0.144531ZM30.9601 43.1035C30.9601 43.7959 30.4018 44.3631 29.7139 44.3631H4.76308C4.07967 44.3631 3.52134 43.7959 3.52134 43.1035V18.1526C3.52134 17.4692 4.07967 16.9109 4.76308 16.9109H29.7139C30.4018 16.9109 30.9601 17.4692 30.9601 18.1526V43.1035ZM53.7938 43.1482C53.7938 43.8182 53.2489 44.3631 52.5833 44.3631H36.3782C35.7082 44.3631 35.1454 43.8048 35.1454 43.1482V36.5286C35.1454 35.8586 35.6993 35.3136 36.3782 35.3136H52.5833C53.2489 35.3136 53.7938 35.8586 53.7938 36.5286V43.1482ZM53.7938 30.0429C53.7938 31.0256 52.9987 31.8207 52.0205 31.8207H36.9232C35.945 31.8207 35.1454 31.0256 35.1454 30.0429V18.6842C35.1454 17.706 35.945 16.9109 36.9232 16.9109H52.0205C52.9987 16.9109 53.7938 17.706 53.7938 18.6842V30.0429Z" fill="#EF5226"/>
<path d="M52.9008 18.6841V30.0429C52.9008 30.5387 52.5166 30.9273 52.0208 30.9273H36.9235C36.4366 30.9273 36.0391 30.5298 36.0391 30.0429V18.6841C36.0391 18.1973 36.4366 17.8042 36.9235 17.8042H52.0208C52.5166 17.8042 52.9008 18.1883 52.9008 18.6841Z" fill="#EF5226"/>
<path d="M56.8222 0H2.59227C1.24333 0 0.144531 1.0988 0.144531 2.45221V9.84903H59.2834V2.45221C59.2834 1.0988 58.1801 0 56.8222 0ZM27.4538 5.82008H3.96801C3.71787 5.82008 3.52134 5.62355 3.52134 5.37341C3.52134 5.12775 3.71787 4.92675 3.96801 4.92675H27.4538C27.6995 4.92675 27.9005 5.12775 27.9005 5.37341C27.9005 5.62355 27.6995 5.82008 27.4538 5.82008ZM38.7098 5.82008H35.0918C34.8462 5.82008 34.6452 5.62355 34.6452 5.37341C34.6452 5.12775 34.8462 4.92675 35.0918 4.92675H38.7098C38.9555 4.92675 39.1565 5.12775 39.1565 5.37341C39.1565 5.62355 38.9555 5.82008 38.7098 5.82008ZM46.0218 5.82008H42.4172C42.1715 5.82008 41.9705 5.62355 41.9705 5.37341C41.9705 5.12775 42.1715 4.92675 42.4172 4.92675H46.0218C46.2675 4.92675 46.4685 5.12775 46.4685 5.37341C46.4685 5.62355 46.2675 5.82008 46.0218 5.82008ZM53.3471 5.82008H49.747C49.4969 5.82008 49.3003 5.62355 49.3003 5.37341C49.3003 5.12775 49.4969 4.92675 49.747 4.92675H53.3471C53.5973 4.92675 53.7938 5.12775 53.7938 5.37341C53.7938 5.62355 53.5973 5.82008 53.3471 5.82008Z" fill="#EF5226"/>
<path d="M24.8675 28.8413C24.7514 28.8011 24.6531 28.7073 24.604 28.5912L23.8804 26.8626C23.8313 26.7464 23.8357 26.6124 23.8893 26.4963L24.7246 24.7722L23.0943 23.1418L21.3701 23.9771C21.254 24.0307 21.12 24.0352 21.0039 23.986L19.2753 23.2624C19.1591 23.2133 19.0698 23.1195 19.0251 22.9989L18.3909 21.1854H16.0861L15.4518 22.9989C15.4116 23.1195 15.3178 23.2133 15.2017 23.2624L13.473 23.986C13.3569 24.0352 13.2229 24.0307 13.1068 23.9771L11.3826 23.1374L9.7389 24.7722L10.5876 26.4963C10.6412 26.608 10.6456 26.7464 10.5965 26.8626L9.8729 28.5912C9.82377 28.7073 9.72997 28.8011 9.60937 28.8413L7.7959 29.4756V31.7938L9.6049 32.4147C9.7255 32.4549 9.82377 32.5487 9.8729 32.6648L10.5965 34.3934C10.6456 34.5095 10.6412 34.6435 10.5876 34.7597L9.7389 36.4972L11.3826 38.132L13.1068 37.2967C13.2229 37.2387 13.3524 37.2342 13.473 37.2833L15.2017 37.9935C15.3178 38.0427 15.4116 38.1365 15.4518 38.2571L16.0861 40.0705H18.3909L19.0251 38.2571C19.0698 38.1365 19.1591 38.0427 19.2797 37.9935L21.0083 37.2833C21.1245 37.2342 21.254 37.2387 21.3701 37.2967L23.0943 38.132L24.7291 36.4972L23.8893 34.7597C23.8357 34.6435 23.8313 34.5095 23.8804 34.3934L24.604 32.6648C24.6531 32.5487 24.7514 32.4549 24.872 32.4147L26.681 31.7938V29.4756L24.8675 28.8413ZM17.2295 35.6753C14.4512 35.6753 12.1911 33.4152 12.1911 30.6369C12.1911 27.8542 14.4512 25.594 17.2295 25.594C20.0212 25.594 22.2858 27.8542 22.2858 30.6369C22.2858 33.4152 20.0212 35.6753 17.2295 35.6753Z" fill="#EF5226"/>
<path d="M52.9008 36.5285V43.1481C52.9008 43.3223 52.7534 43.4697 52.5836 43.4697H36.3785C36.1954 43.4697 36.0391 43.3179 36.0391 43.1481V36.5285C36.0391 36.3543 36.1909 36.2069 36.3785 36.2069H52.5836C52.7668 36.2069 52.9008 36.3454 52.9008 36.5285Z" fill="#EF5226"/>
<path d="M21.392 30.6368C21.392 32.9238 19.5249 34.7819 17.2291 34.7819C14.9421 34.7819 13.084 32.9238 13.084 30.6368C13.084 28.3499 14.9421 26.4873 17.2291 26.4873C19.5249 26.4873 21.392 28.3499 21.392 30.6368Z" fill="#05A7CC"/>
</svg>
