<svg width="48" height="50" viewBox="0 0 48 50" fill="none" xmlns="http://www.w3.org/2000/svg">
<path fill-rule="evenodd" clip-rule="evenodd" d="M22.6835 31.0499V14.1005H22.6809C22.6809 13.7421 22.3681 13.4566 22.0071 13.488C16.9914 13.9238 12.5172 16.3732 9.45631 20.0232C9.4152 20.0723 9.34027 20.0731 9.29811 20.0248L7.75745 18.2632C7.74042 18.2438 7.73208 18.2215 7.73208 18.1958V13.5148C7.73208 13.4627 7.7706 13.4195 7.82275 13.4129C11.165 12.9899 13.7486 10.1611 13.7486 6.73407C13.7486 3.01502 10.7063 0.000116324 6.95341 0.000116324C3.20053 0.000116324 0.158203 3.01502 0.158203 6.73407C0.158203 10.1612 2.7419 12.9899 6.08407 13.4129C6.1361 13.4195 6.17474 13.4628 6.17474 13.5148V18.5184C6.17474 18.7667 6.26799 18.9094 6.40869 19.0702L13.7277 27.4392C13.998 27.7487 14.4421 28.2014 14.8316 28.6467C15.5293 29.4451 14.373 30.3225 13.7277 29.584L7.7322 22.7285C7.68498 22.6746 7.59866 22.6833 7.56331 22.7454C4.9452 27.3506 4.46143 32.9162 6.30006 37.9403C7.03492 39.9484 8.11354 41.7919 9.46476 43.4007C9.73677 43.7231 10.1487 43.7273 10.4069 43.4714L22.4953 31.4919C22.6113 31.3797 22.6835 31.2232 22.6835 31.0499ZM33.5678 6.73396C33.5678 3.0149 36.6101 0 40.363 0C44.1159 0 47.1582 3.0149 47.1582 6.73396C47.1582 10.1611 44.5745 12.9898 41.2323 13.4127C41.1802 13.4194 41.1417 13.4626 41.1417 13.5147V18.5183C41.1417 18.7666 41.0484 18.9093 40.9077 19.0701L33.5887 27.4391C33.3185 27.7486 32.8587 28.2091 32.4692 28.6543C31.803 29.4166 32.9283 30.3396 33.5887 29.5839L39.5841 22.7285C39.6312 22.6746 39.7179 22.6833 39.7531 22.7454C43.8207 29.8988 42.5487 38.8569 36.7117 44.6413C29.9378 51.3542 19.1348 51.8027 11.8272 45.7463C11.5479 45.5148 11.5301 45.0928 11.7866 44.838L11.7859 44.8373L24.6028 32.1359C24.623 32.1159 24.6332 32.0914 24.6332 32.0632V14.1005C24.6332 13.7355 24.9175 13.4523 25.3742 13.4941C30.3721 13.952 34.8101 16.3842 37.8605 20.0232C37.9016 20.0723 37.9766 20.073 38.0187 20.0248L39.5593 18.2632C39.5763 18.2438 39.5847 18.2215 39.5847 18.1958V13.5148C39.5847 13.4628 39.5462 13.4195 39.494 13.4129C36.1514 12.9899 33.5678 10.1611 33.5678 6.73396ZM39.8927 9.90575C39.8944 9.90354 39.8959 9.90168 39.8978 9.89958L44.4594 4.71358C44.7416 4.39398 44.7089 3.90818 44.3864 3.6285C44.0638 3.34882 43.5736 3.38129 43.2914 3.70089L39.3036 8.23454C39.2639 8.2797 39.1946 8.28203 39.152 8.23966L37.6877 6.78854C37.3836 6.48721 36.8907 6.48721 36.5866 6.78854C36.2826 7.08987 36.2826 7.57835 36.5866 7.87967L38.7172 9.99106C39.0541 10.3247 39.6099 10.2825 39.8927 9.90575ZM10.1065 4.70031L8.12775 6.66121C8.08735 6.70125 8.08735 6.76666 8.12775 6.8067L10.1065 8.7676C10.4106 9.06892 10.4106 9.5574 10.1065 9.85873C9.80242 10.1601 9.3095 10.1601 9.00543 9.85873L7.0267 7.89783C6.98629 7.85779 6.92029 7.85779 6.87989 7.89783L4.90115 9.85873C4.59708 10.1601 4.10416 10.1601 3.80009 9.85873C3.49603 9.5574 3.49603 9.06892 3.80009 8.7676L5.77883 6.8067C5.81923 6.76666 5.81923 6.70125 5.77883 6.66121L3.80009 4.70031C3.49603 4.39899 3.49603 3.91051 3.80009 3.60918C4.10416 3.30785 4.59708 3.30785 4.90115 3.60918L6.87989 5.57008C6.92029 5.61012 6.98629 5.61012 7.0267 5.57008L9.00543 3.60918C9.3095 3.30785 9.80242 3.30785 10.1065 3.60918C10.4106 3.91051 10.4106 4.3991 10.1065 4.70031Z" fill="#EF5226"/>
</svg>
