<svg width="51" height="50" viewBox="0 0 51 50" fill="none" xmlns="http://www.w3.org/2000/svg">
<path d="M10.5205 41.3333C7.25384 41.3333 4.43717 39.4167 3.08717 36.6833C1.50384 38.45 0.520508 40.7833 0.520508 43.3333V45.8333C0.520508 48.1333 2.38717 50 4.68717 50H16.3538C18.6538 50 20.5205 48.1333 20.5205 45.8333V43.3333C20.5205 40.7833 19.5538 38.45 17.9538 36.6833C16.5872 39.4333 13.7872 41.3333 10.5205 41.3333Z" fill="#EF5226"/>
<path d="M10.5205 38C13.2705 38 15.5205 35.75 15.5205 33V31C15.5205 28.6166 13.5705 26.6666 11.1872 26.6666H9.85384C7.47051 26.6666 5.52051 28.6166 5.52051 31V33C5.52051 35.75 7.77051 38 10.5205 38Z" fill="#EF5226"/>
<path d="M48.0205 0H8.02051C6.63717 0 5.52051 1.11667 5.52051 2.5V5.83333H50.5205V2.5C50.5205 1.11667 49.4038 0 48.0205 0Z" fill="#EF5226"/>
<path d="M8.85352 23.4333C9.18685 23.3833 9.50352 23.3333 9.85352 23.3333H11.1868C15.4202 23.3333 18.8535 26.7666 18.8535 31V32.6833L20.4368 34.45C22.2535 36.4833 23.3868 39 23.7202 41.6666H26.3368V46.6666H24.6702C23.7535 46.6666 23.0035 47.4166 23.0035 48.3333C23.0035 49.2499 23.7535 49.9999 24.6702 49.9999H31.3368C32.2535 49.9999 33.0035 49.2499 33.0035 48.3333C33.0035 47.4166 32.2535 46.6666 31.3368 46.6666H29.6702V41.6666H45.5035C46.4202 41.6666 47.1702 40.9166 47.1702 39.9999V9.16663H8.85352V23.4333ZM25.5202 34.1666C25.5202 33.25 26.2702 32.5 27.1868 32.5H27.6868C28.6035 32.5 29.3535 33.25 29.3535 34.1666C29.3535 35.0833 28.6035 35.8333 27.6868 35.8333H27.1868C26.2702 35.8333 25.5202 35.0833 25.5202 34.1666ZM18.8535 20.8333C18.8535 18.0833 21.1035 15.8333 23.8535 15.8333H38.1702L36.8535 14.5166C36.2035 13.8666 36.2035 12.8166 36.8535 12.1666C37.5035 11.5166 38.5535 11.5166 39.2035 12.1666L43.3702 16.3333C44.0202 16.9833 44.0202 18.0333 43.3702 18.6833L39.2035 22.85C38.8702 23.1833 38.4535 23.3333 38.0202 23.3333C37.5868 23.3333 37.1702 23.1666 36.8368 22.85C36.1868 22.2 36.1868 21.15 36.8368 20.5L38.1535 19.1833H23.8535C22.9368 19.1833 22.1868 19.9333 22.1868 20.85V23.35C22.1868 24.2666 22.9368 25.0166 23.8535 25.0166H37.1868C39.9368 25.0166 42.1868 27.2666 42.1868 30.0166V30.85C42.1868 33.6 39.9368 35.85 37.1868 35.85H33.0535C32.1368 35.85 31.3868 35.1 31.3868 34.1833C31.3868 33.2666 32.1368 32.5166 33.0535 32.5166H37.1868C38.1035 32.5166 38.8535 31.7666 38.8535 30.85V30.0166C38.8535 29.1 38.1035 28.35 37.1868 28.35H23.8535C21.1035 28.35 18.8535 26.1 18.8535 23.35V20.85V20.8333Z" fill="#EF5226"/>
</svg>
