<svg width="60" height="50" viewBox="0 0 60 50" fill="none" xmlns="http://www.w3.org/2000/svg">
<path d="M0 10.7399V47.5365C0 48.8949 1.10513 50 2.46353 50H56.6812C58.0396 50 59.1448 48.8949 59.1448 47.5365V10.7399H0ZM0 9.84652H59.1443V2.44923C59.1443 1.09887 58.0392 0 56.6808 0H2.46353C1.10513 0 0 1.09887 0 2.44923V9.84652ZM52.4407 44.3636H36.2351C35.5565 44.3636 35.0049 43.8124 35.0049 43.1343V36.5303C35.0049 35.8603 35.5565 35.3153 36.2351 35.3153H52.4407C53.1108 35.3153 53.6562 35.8603 53.6562 36.5303V43.1343C53.6562 43.8119 53.1108 44.3636 52.4407 44.3636ZM36.2351 36.2087C36.0492 36.2087 35.8983 36.353 35.8983 36.5303V43.1343C35.8983 43.3165 36.0528 43.4702 36.2351 43.4702H52.4407C52.6181 43.4702 52.7628 43.3197 52.7628 43.1343V36.5303C52.7628 36.3499 52.6217 36.2087 52.4407 36.2087H36.2351ZM29.5722 44.3636H4.62062C3.9345 44.3636 3.37613 43.799 3.37613 43.1048V18.1524C3.37613 17.4663 3.9345 16.9083 4.62062 16.9083H29.5722C30.2583 16.9083 30.8162 17.4667 30.8162 18.1524V43.1044C30.8162 43.7985 30.2583 44.3636 29.5722 44.3636ZM4.62062 17.8017C4.42408 17.8017 4.26952 17.9558 4.26952 18.1524V43.1044C4.26952 43.3058 4.4272 43.4698 4.62062 43.4698H29.5722C29.7656 43.4698 29.9228 43.3058 29.9228 43.1044V18.1524C29.9228 17.9558 29.7687 17.8017 29.5722 17.8017H4.62062ZM27.0461 41.054H24.1948C23.9478 41.054 23.7481 40.8539 23.7481 40.6073V32.2166C23.7481 31.97 23.9478 31.7699 24.1948 31.7699H27.0461C27.2931 31.7699 27.4928 31.97 27.4928 32.2166V40.6073C27.4928 40.8544 27.2927 41.054 27.0461 41.054ZM24.6415 40.1606H26.5994V32.6633H24.6415V40.1606ZM21.3583 41.054H18.5213C18.2743 41.054 18.0747 40.8539 18.0747 40.6073V35.1264C18.0747 34.8798 18.2743 34.6797 18.5213 34.6797H21.3583C21.6053 34.6797 21.805 34.8798 21.805 35.1264V40.6073C21.805 40.8544 21.6053 41.054 21.3583 41.054ZM18.9685 40.1606H20.9121V35.5731H18.9685V40.1606ZM15.6705 41.054H12.834C12.587 41.054 12.3873 40.8539 12.3873 40.6073V30.5174C12.3873 30.2708 12.587 30.0707 12.834 30.0707H15.6705C15.9176 30.0707 16.1172 30.2708 16.1172 30.5174V40.6078C16.1172 40.8544 15.9176 41.054 15.6705 41.054ZM13.2807 40.1606H15.2238V30.9641H13.2807V40.1606ZM9.99795 41.054H7.14669C6.89966 41.054 6.69999 40.8539 6.69999 40.6073V35.1264C6.69999 34.8798 6.89966 34.6797 7.14669 34.6797H9.99795C10.245 34.6797 10.4446 34.8798 10.4446 35.1264V40.6073C10.4446 40.8544 10.2445 41.054 9.99795 41.054ZM7.59338 40.1606H9.55125V35.5731H7.59338V40.1606ZM51.8793 31.8213H36.7818C35.8187 31.8213 35.0049 31.0078 35.0049 30.0452V18.6844C35.0049 17.7048 35.8018 16.9079 36.7818 16.9079H51.8797C52.8593 16.9079 53.6567 17.7048 53.6567 18.6844V30.0452C53.6562 31.0244 52.8593 31.8213 51.8793 31.8213ZM36.7818 17.8017C36.2945 17.8017 35.8983 18.1979 35.8983 18.6848V30.0457C35.8983 30.5241 36.3025 30.9283 36.7818 30.9283H51.8797C52.367 30.9283 52.7633 30.5325 52.7633 30.0457V18.6844C52.7633 18.1895 52.3755 17.8013 51.8797 17.8013H36.7818V17.8017ZM21.4619 29.8415C19.3263 29.8415 17.5882 28.1034 17.5882 25.9673C17.5882 23.8312 19.3263 22.0931 21.4619 22.0931C21.709 22.0931 21.9086 22.2932 21.9086 22.5398V25.3875H24.889C25.136 25.3875 25.3357 25.5876 25.3357 25.8342V25.9673C25.3357 28.1034 23.5976 29.8415 21.4619 29.8415ZM21.0153 23.02C19.5831 23.2362 18.4816 24.4754 18.4816 25.9673C18.4816 27.6107 19.8186 28.9481 21.4619 28.9481C22.999 28.9481 24.2685 27.7778 24.4258 26.2809H21.4619C21.2149 26.2809 21.0153 26.0808 21.0153 25.8342V23.02ZM27.0461 24.361H23.6186C23.3716 24.361 23.1719 24.1609 23.1719 23.9143V20.6052C23.1719 20.3586 23.3716 20.1585 23.6186 20.1585C25.7073 20.1585 27.4084 21.8005 27.4923 23.8964C27.4973 24.0179 27.4521 24.1363 27.3682 24.2239C27.2842 24.3114 27.1676 24.361 27.0461 24.361ZM24.0653 23.4676H26.5458C26.3037 22.2262 25.3107 21.2712 24.0653 21.0849V23.4676ZM53.2095 5.82045H49.6047C49.3577 5.82045 49.158 5.62033 49.158 5.37375C49.158 5.12717 49.3577 4.92705 49.6047 4.92705H53.2095C53.4565 4.92705 53.6562 5.12717 53.6562 5.37375C53.6562 5.62033 53.4565 5.82045 53.2095 5.82045ZM45.8962 5.82045H42.2771C42.0301 5.82045 41.8304 5.62033 41.8304 5.37375C41.8304 5.12717 42.0301 4.92705 42.2771 4.92705H45.8962C46.1432 4.92705 46.3429 5.12717 46.3429 5.37375C46.3429 5.62033 46.1432 5.82045 45.8962 5.82045ZM38.5691 5.82045H34.949C34.702 5.82045 34.5023 5.62033 34.5023 5.37375C34.5023 5.12717 34.702 4.92705 34.949 4.92705H38.5691C38.8161 4.92705 39.0158 5.12717 39.0158 5.37375C39.0158 5.62033 38.8156 5.82045 38.5691 5.82045ZM27.3114 5.82045H3.82238C3.57535 5.82045 3.37568 5.62033 3.37568 5.37375C3.37568 5.12717 3.57535 4.92705 3.82238 4.92705H27.3114C27.5585 4.92705 27.7581 5.12717 27.7581 5.37375C27.7581 5.62033 27.5585 5.82045 27.3114 5.82045Z" fill="#EF5226"/>
</svg>
