<svg width="48" height="46" viewBox="0 0 48 46" fill="none" xmlns="http://www.w3.org/2000/svg">
<path fill-rule="evenodd" clip-rule="evenodd" d="M28.7354 11.9043L38.5371 17.5635L23.7207 26.1182L8.90527 17.5645L18.707 11.9053V19.4121H28.7354V11.9043ZM44.1748 31.6455L42.79 34.043L33.6357 28.7578L29.793 35.4131L38.9473 40.6982L37.5625 43.0957L47.1582 41.002L44.1748 31.6455ZM9.87793 43.0967L8.49316 40.6992L17.6475 35.4141L13.8047 28.7588L4.65039 34.0439L3.26563 31.6465L0.283203 41.002L9.87793 43.0967ZM17.1094 7.66992H19.8779V18.2402H27.5625V7.66992H30.3311L23.7207 0.407227L17.1094 7.66992ZM39.708 18.2402L41.8936 21.4648L25.9063 30.6953L23.7207 27.4707L7.7334 18.2402L5.54785 21.4648L21.5352 30.6953L23.7207 27.4707L39.708 18.2402ZM39.708 24.0791L33.791 27.4951L39.708 30.9111V24.0791ZM34.6934 39.5957L24.3066 45.5928V30.4238L25.5479 32.2549L32.623 28.1699L28.1934 35.8428L34.6934 39.5957ZM23.1348 45.5928L12.748 39.5957L19.249 35.8428L14.8193 28.1699L21.8945 32.2549L23.1348 30.4238V45.5928ZM7.7334 30.9111L13.6504 27.4951L7.7334 24.0791V30.9111Z" fill="#EF5226"/>
</svg>
