<svg width="55" height="50" viewBox="0 0 55 50" fill="none" xmlns="http://www.w3.org/2000/svg">
<path d="M50.8809 0H4.86451C2.66247 0 0.871094 1.78887 0.871094 3.98782V46.0122C0.871094 48.2111 2.66247 50 4.86451 50H50.8809C53.0808 50 54.8711 48.2111 54.8711 46.0122V3.98782C54.8711 1.78887 53.0808 0 50.8809 0ZM16.0471 2.88888C16.7229 2.88888 17.2726 3.43673 17.2726 4.10944C17.2726 4.7843 16.7229 5.33323 16.0471 5.33323C15.3713 5.33323 14.8216 4.7843 14.8216 4.10944C14.8216 3.43673 15.3713 2.88888 16.0471 2.88888ZM11.7638 2.88888C12.4374 2.88888 12.9861 3.43673 12.9861 4.10944C12.9861 4.7843 12.4374 5.33323 11.7638 5.33323C11.088 5.33323 10.5383 4.7843 10.5383 4.10944C10.5383 3.43673 11.088 2.88888 11.7638 2.88888ZM7.4772 2.88888C8.15193 2.88888 8.70163 3.43673 8.70163 4.10944C8.70163 4.7843 8.15193 5.33323 7.4772 5.33323C6.80355 5.33323 6.25493 4.7843 6.25493 4.10944C6.25493 3.43673 6.80355 2.88888 7.4772 2.88888ZM53.361 46.0122C53.361 47.3802 52.2487 48.4931 50.8809 48.4931H4.86451C3.49457 48.4931 2.38115 47.3802 2.38115 46.0122V8.22211H53.361V46.0122ZM5.84233 28.0358C5.84233 27.6196 6.18023 27.2823 6.59703 27.2823H7.25689V24.3106C7.25689 23.8944 7.59479 23.5571 8.0116 23.5571H11.5741C11.9909 23.5571 12.3288 23.8945 12.3288 24.3106V27.2823H14.4888V20.1856C14.4888 19.7693 14.8267 19.432 15.2435 19.432H18.8061C19.2229 19.432 19.5608 19.7695 19.5608 20.1856V27.2823H21.7208V16.5732C21.7208 16.157 22.0587 15.8196 22.4755 15.8196H26.0349C26.4517 15.8196 26.7896 16.1571 26.7896 16.5732V27.2823H28.9526V11.6273C28.9526 11.2111 29.2905 10.8738 29.7073 10.8738H33.2667C33.6835 10.8738 34.0214 11.2112 34.0214 11.6273V27.2822H36.1844V15.3496C36.1844 14.9334 36.5223 14.5961 36.9391 14.5961H40.4986C40.9154 14.5961 41.2533 14.9335 41.2533 15.3496V27.2822H43.4163V21.9825C43.4163 21.5663 43.7542 21.229 44.171 21.229H47.7304C48.1472 21.229 48.4851 21.5664 48.4851 21.9825V27.2822H49.1449C49.5617 27.2822 49.8996 27.6196 49.8996 28.0357C49.8996 28.4518 49.5617 28.7892 49.1449 28.7892H47.7304H44.171H40.4986H36.9391H33.2668H29.7074H26.035H22.4754H18.806H15.2434H11.5741H8.0116H6.59703C6.18023 28.7893 5.84233 28.4519 5.84233 28.0358ZM5.84233 11.7586C5.84233 11.3424 6.18023 11.0051 6.59703 11.0051H11.5558C11.9726 11.0051 12.3105 11.3425 12.3105 11.7586C12.3105 12.1747 11.9726 12.5122 11.5558 12.5122H6.59703C6.18023 12.5122 5.84233 12.1747 5.84233 11.7586ZM5.84233 15.1574C5.84233 14.7411 6.18023 14.4038 6.59703 14.4038H9.53308C9.94988 14.4038 10.2878 14.7413 10.2878 15.1574C10.2878 15.5735 9.94988 15.9109 9.53308 15.9109H6.59703C6.18023 15.911 5.84233 15.5736 5.84233 15.1574ZM47.8956 33.009C47.8956 33.4252 47.5577 33.7625 47.1409 33.7625H35.5063C35.0895 33.7625 34.7516 33.4251 34.7516 33.009C34.7516 32.5929 35.0895 32.2555 35.5063 32.2555H47.1409C47.5577 32.2553 47.8956 32.5928 47.8956 33.009ZM47.7582 36.1515C47.7582 36.5677 47.4203 36.905 47.0035 36.905H35.5063C35.0895 36.905 34.7516 36.5676 34.7516 36.1515C34.7516 35.7353 35.0895 35.3979 35.5063 35.3979H47.0035C47.4203 35.3979 47.7582 35.7353 47.7582 36.1515ZM47.6175 39.2972C47.6175 39.7134 47.2796 40.0507 46.8628 40.0507H35.5063C35.0895 40.0507 34.7516 39.7133 34.7516 39.2972C34.7516 38.881 35.0895 38.5436 35.5063 38.5436H46.8628C47.2796 38.5435 47.6175 38.8809 47.6175 39.2972ZM47.477 42.4396C47.477 42.8558 47.1391 43.1932 46.7223 43.1932H35.5062C35.0894 43.1932 34.7515 42.8557 34.7515 42.4396C34.7515 42.0235 35.0894 41.6861 35.5062 41.6861H46.7223C47.1392 41.6861 47.477 42.0235 47.477 42.4396ZM47.3365 45.5852C47.3365 46.0014 46.9986 46.3387 46.5818 46.3387H35.5063C35.0895 46.3387 34.7516 46.0013 34.7516 45.5852C34.7516 45.1691 35.0895 44.8317 35.5063 44.8317H46.5818C46.9986 44.8317 47.3365 45.1691 47.3365 45.5852ZM31.4672 33.009C31.4672 33.4252 31.1293 33.7625 30.7125 33.7625H22.1307L19.5663 35.8278C20.2222 37.0864 20.4477 38.508 20.2065 39.9104L18.745 39.4864L14.5069 38.255V33.8485V32.3288C16.149 32.5137 17.6401 33.307 18.7197 34.5733L21.3906 32.4224C21.5247 32.3143 21.6919 32.2555 21.8644 32.2555H30.7126C31.1293 32.2553 31.4672 32.5928 31.4672 33.009ZM30.2573 45.5852C30.2573 46.0014 29.9194 46.3387 29.5026 46.3387H20.6545C20.4819 46.3387 20.3148 46.2798 20.1806 46.1716L17.4892 44.0022C16.4234 44.7688 15.1234 45.2134 13.7524 45.2134C10.2235 45.2134 7.35217 42.345 7.35217 38.8211C7.35217 35.5512 9.82259 32.8474 12.9979 32.4729V38.8211C12.9979 39.1558 13.22 39.4507 13.5422 39.5444L19.645 41.3171C19.3861 41.9253 19.0352 42.4812 18.6132 42.9714L20.9209 44.8316H29.5025C29.9194 44.8317 30.2573 45.1691 30.2573 45.5852Z" fill="#EF5226"/>
</svg>
