<svg width="53" height="50" viewBox="0 0 53 50" fill="none" xmlns="http://www.w3.org/2000/svg">
<path d="M45.957 18.7395C47.3389 11.4688 41.738 4.7582 34.4306 4.7582C32.8602 4.7582 31.3318 5.07221 29.8818 5.68991C27.2227 2.11474 23.0456 0 18.5857 0C8.76586 0 1.94529 9.90364 5.37389 19.1373C2.20704 20.7391 0.202148 23.9792 0.202148 27.5911C0.202148 32.8151 4.42642 37.0655 9.62424 37.0655H12.6341V37.8141C12.6341 38.7772 13.4192 39.5572 14.3824 39.5572H15.9737C16.1673 40.1592 16.4082 40.7455 16.696 41.3003L15.5706 42.431C14.8901 43.1115 14.8849 44.216 15.5706 44.8965L17.7377 47.0635C18.3972 47.723 19.5436 47.723 20.2032 47.0635L21.3286 45.9381C21.8887 46.226 22.4698 46.472 23.077 46.6604V48.2516C23.077 49.2148 23.8569 50 24.8201 50H27.8823C28.8454 50 29.6307 49.2149 29.6307 48.2516V46.6604C30.2326 46.472 30.8137 46.2259 31.3737 45.9381L32.4992 47.0635C33.1797 47.744 34.2894 47.744 34.9646 47.0635L37.1317 44.8965C37.8174 44.216 37.8174 43.1115 37.1317 42.431L36.0062 41.3003C36.2941 40.7455 36.5401 40.1592 36.7285 39.5572H38.325C39.2829 39.5572 40.0682 38.7773 40.0682 37.8141V37.0655H42.6069C47.7995 37.0655 52.0237 32.8151 52.0237 27.5911C52.0237 23.6652 49.5636 20.1267 45.957 18.7395ZM30.0965 35.134L25.6472 39.5833C25.3384 39.8922 24.8463 39.8922 24.5375 39.5833L22.6059 37.657C22.3024 37.3481 22.3024 36.8508 22.6059 36.5473C22.9147 36.2384 23.4121 36.2384 23.7209 36.5473L25.0923 37.9187L28.9868 34.0242C29.2904 33.7206 29.7877 33.7206 30.0965 34.0242C30.4053 34.3331 30.4053 34.8304 30.0965 35.134ZM42.6069 35.4952H40.0682V34.7466C40.0682 33.7887 39.283 33.0035 38.325 33.0035H36.7285C36.54 32.4015 36.2994 31.8205 36.0062 31.2604L37.1369 30.1349C37.8174 29.4492 37.8174 28.3499 37.1317 27.6642L34.9646 25.4972C34.2894 24.8167 33.1797 24.8167 32.4992 25.4972L31.3737 26.6226C30.8136 26.3347 30.2326 26.0939 29.6307 25.9003V24.3091C29.6307 23.3459 28.8455 22.5659 27.8823 22.5659H24.8201C23.857 22.5659 23.077 23.3458 23.077 24.3091V25.9003C22.4698 26.0939 21.8887 26.3348 21.3286 26.6226L20.2032 25.4972C19.5436 24.8377 18.3972 24.8377 17.7377 25.4972L15.5706 27.6642C14.8901 28.3447 14.8901 29.4492 15.5706 30.1349L16.696 31.2604C16.4081 31.8205 16.1621 32.4015 15.9737 33.0035H14.3824C13.4193 33.0035 12.6341 33.7886 12.6341 34.7466V35.4952H9.62434C5.29543 35.4952 1.77264 31.9514 1.77264 27.5911C1.77264 24.3562 3.69897 21.4824 6.67741 20.2628C7.08573 20.1005 7.27936 19.6294 7.10138 19.2263C3.49471 10.9035 9.58772 1.57038 18.5857 1.57038C22.7472 1.57038 26.626 3.64329 28.9657 7.11894C29.1855 7.44349 29.6096 7.55344 29.9655 7.38068C31.3787 6.68453 32.8811 6.32858 34.4305 6.32858C40.9161 6.32858 45.9307 12.4686 44.2819 19.0641C44.1771 19.4724 44.418 19.8912 44.821 20.0063C48.1345 20.9904 50.4534 24.1102 50.4534 27.5912C50.4535 31.9514 46.9306 35.4952 42.6069 35.4952Z" fill="#EF5226"/>
</svg>
