<svg width="50" height="50" viewBox="0 0 50 50" fill="none" xmlns="http://www.w3.org/2000/svg">
<path fill-rule="evenodd" clip-rule="evenodd" d="M42.0028 33.9935C46.4197 33.9935 49.9997 37.5737 49.9997 42.0031C49.9997 46.4197 46.4197 50 42.0028 50C37.5739 50 33.9932 46.4197 33.9932 42.0031C33.9932 37.5736 37.5739 33.9935 42.0028 33.9935ZM0.418103 1.95641L1.73441 0H12.2783L13.5825 1.95641H0.418103ZM8.61195 22.9944C9.51046 22.9944 10.2608 23.5729 10.5311 24.3846H17.9996V23.917H19.4267C19.5742 23.1545 19.8695 22.4407 20.2879 21.8258L19.2915 20.8169L20.8169 19.2912L21.8257 20.288C22.4407 19.8697 23.1545 19.5742 23.9174 19.4268V17.9997H26.0825V19.4268C26.8578 19.5743 27.5593 19.8698 28.1867 20.288L29.1953 19.2912L30.7213 20.8169L29.7119 21.8259C30.1426 22.4408 30.438 23.1546 30.5855 23.9171H32.0003V24.3847H39.4803C39.739 23.573 40.5018 22.9945 41.3995 22.9945C42.1507 22.9945 42.8025 23.4006 43.1468 24.016C44.3895 23.6222 45.5093 22.9331 46.4071 22.0348C47.8592 20.5831 48.7568 18.5902 48.7568 16.4002C48.7568 14.198 47.8592 12.2048 46.4071 10.7532C44.9559 9.31366 42.9625 8.41545 40.7722 8.41545H29.6996L28.0017 10.1009C27.7559 10.3471 27.3621 10.3471 27.1158 10.1009C26.87 9.85486 26.87 9.46126 27.1158 9.21496L27.9279 8.41555H15.2558C14.9113 8.41555 14.6282 8.13255 14.6282 7.78785C14.6282 7.44384 14.9113 7.16064 15.2558 7.16064H27.9278L27.1157 6.34864C26.8699 6.11504 26.8699 5.70903 27.1157 5.47503C27.3619 5.22913 27.7558 5.22913 28.0016 5.47503L29.6995 7.16064H40.7722C43.3069 7.16064 45.62 8.20635 47.2928 9.87966C48.9662 11.553 49.9996 13.8537 49.9996 16.4003C49.9996 18.935 48.9662 21.248 47.2928 22.9208C46.2227 23.9914 44.8815 24.8032 43.393 25.2462C43.2701 26.2431 42.4211 27.0178 41.3995 27.0178C40.5017 27.0178 39.739 26.4397 39.4803 25.6277H32.0003V26.0828H30.5855C30.4379 26.8581 30.1425 27.5591 29.7119 28.1869L30.7211 29.1956L29.1951 30.7212L28.1865 29.7246C27.5592 30.1432 26.8577 30.4384 26.0823 30.5858V32.0129H23.9172V30.5858C23.1543 30.4383 22.4405 30.1431 21.8255 29.7246L20.8167 30.7212L19.2913 29.1956L20.2877 28.1869C19.8693 27.5591 19.574 26.8581 19.4265 26.0828H17.9994V25.6277H10.5309C10.2606 26.4397 9.51026 27.0178 8.61175 27.0178C7.86165 27.0178 7.20964 26.6119 6.85274 25.9968C5.61003 26.3906 4.50303 27.0792 3.60442 27.9775C2.15301 29.4292 1.25451 31.4225 1.25451 33.6127C1.25451 35.8146 2.15301 37.8078 3.60442 39.2597C5.04383 40.6992 7.04944 41.5972 9.23916 41.5972H21.5673L20.7552 40.7973C20.509 40.5516 20.509 40.1577 20.7552 39.9114C21.0011 39.6657 21.3948 39.6657 21.641 39.9114L23.3263 41.5972H32.7507C33.0953 41.5972 33.3658 41.8804 33.3658 42.2245C33.3658 42.5692 33.0953 42.8522 32.7507 42.8522H23.3263L21.641 44.5374C21.3948 44.7837 21.0011 44.7837 20.7552 44.5374C20.509 44.304 20.509 43.8978 20.7552 43.6639L21.5673 42.8523H9.23926C6.69274 42.8523 4.39193 41.8062 2.71872 40.1333C1.04571 38.4599 0 36.1592 0 33.6128C0 31.0781 1.04561 28.7652 2.71872 27.0917C3.78942 26.0216 5.13033 25.2094 6.61904 24.7664C6.72954 23.7696 7.57865 22.9944 8.61195 22.9944ZM24.9999 21.8997C26.7224 21.8997 28.1127 23.2898 28.1127 25.0003C28.1127 26.7227 26.7224 28.1129 24.9999 28.1129C23.2895 28.1129 21.8993 26.7227 21.8993 25.0003C21.8993 23.2898 23.2895 21.8997 24.9999 21.8997ZM14.0008 3.19882V12.9924H0V3.19882H14.0008ZM5.62243 5.72103H8.39065C8.82135 5.72103 9.16556 6.07794 9.16556 6.49634C9.16556 6.92724 8.82135 7.27124 8.39065 7.27124H5.62243C5.19193 7.27124 4.84723 6.92724 4.84723 6.49634C4.84723 6.07794 5.19193 5.72103 5.62243 5.72103ZM36.6389 41.3754C36.983 41.3754 37.2535 41.6585 37.2535 42.003C37.2535 42.1874 37.1798 42.3478 37.0568 42.4583C37.1305 43.3688 37.4629 44.1931 37.9548 44.8941C38.558 45.7308 39.4066 46.3705 40.4034 46.7027C40.7232 46.8134 40.908 47.1704 40.7969 47.5026C40.6863 47.8221 40.3296 47.9948 39.9975 47.884C38.7547 47.4656 37.6968 46.6658 36.946 45.6201C36.331 44.759 35.925 43.7378 35.8141 42.6303H35.3342C34.9901 42.6303 34.707 42.3478 34.707 42.003C34.707 41.6585 34.9901 41.3754 35.3342 41.3754H36.4048H36.6389ZM42.0028 38.472C42.9747 38.472 43.8482 38.8658 44.4879 39.5053H44.5006C45.1279 40.1453 45.5212 41.0313 45.5212 42.0031C45.5212 42.975 45.1279 43.8609 44.4879 44.5006C44.476 44.5128 44.4633 44.5128 44.4515 44.5251C43.8238 45.1529 42.9502 45.5338 42.0029 45.5338C41.0186 45.5338 40.145 45.1282 39.505 44.5006C38.8654 43.861 38.4717 42.975 38.4717 42.0031C38.4717 41.0313 38.8655 40.1454 39.505 39.5053C40.1449 38.8657 41.0185 38.472 42.0028 38.472ZM43.6147 40.3911C43.1959 39.9727 42.6305 39.7267 42.0028 39.7267C41.3751 39.7267 40.7969 39.9727 40.3908 40.3911C39.9728 40.7971 39.7144 41.3629 39.7144 42.003C39.7144 42.6303 39.9728 43.1964 40.3908 43.6145C40.797 44.0206 41.3751 44.2791 42.0028 44.2791C42.6177 44.2791 43.1715 44.0328 43.5774 43.6392C43.5901 43.6267 43.602 43.6145 43.6147 43.6145C44.0208 43.1963 44.279 42.6303 44.279 42.003C44.279 41.3629 44.0208 40.7971 43.6147 40.3911ZM43.5901 37.291C43.2702 37.1799 43.0976 36.8235 43.2087 36.5035C43.3193 36.1713 43.664 35.9991 43.9962 36.1097C45.2386 36.5282 46.3087 37.3403 47.0593 38.386C47.6743 39.2472 48.0682 40.2682 48.1788 41.3755H48.6713C49.0155 41.3755 49.2862 41.6587 49.2862 42.0031C49.2862 42.3479 49.0155 42.6304 48.6713 42.6304H47.5885H47.3667C47.0226 42.6304 46.7394 42.3479 46.7394 42.0031C46.7394 41.8184 46.8133 41.6462 46.9489 41.5356C46.8625 40.6376 46.5427 39.8007 46.0385 39.112C45.4356 38.2752 44.5862 37.6353 43.5901 37.291ZM46.7025 43.5901C46.8132 43.2703 47.17 43.0979 47.4901 43.2085C47.8218 43.3195 47.9943 43.6761 47.8839 43.996C47.4655 45.2388 46.6657 46.3089 45.62 47.0597C44.7588 47.6747 43.7378 48.0808 42.6178 48.1914V48.671C42.6178 49.0158 42.3475 49.2987 42.0029 49.2987C41.6584 49.2987 41.3752 49.0158 41.3752 48.671V47.5886V47.367C41.3752 47.0228 41.6584 46.7396 42.0029 46.7396C42.1873 46.7396 42.3475 46.8135 42.4582 46.9491C43.3686 46.8627 44.193 46.543 44.894 46.0387C45.7306 45.4355 46.3706 44.5865 46.7025 43.5901ZM37.2908 40.4033C37.1798 40.7357 36.8233 40.9077 36.5033 40.7971C36.171 40.6867 35.9989 40.3297 36.1095 39.9974C36.5278 38.755 37.3399 37.6967 38.3856 36.9465C39.2468 36.331 40.2678 35.9255 41.3751 35.8144V35.3345C41.3751 34.9906 41.6583 34.7072 42.0028 34.7072C42.3474 34.7072 42.6177 34.9906 42.6177 35.3345V36.4052V36.6387C42.6177 36.9834 42.3474 37.2664 42.0028 37.2664C41.8184 37.2664 41.646 37.1799 41.5353 37.0572C40.637 37.1431 39.8003 37.4631 39.1117 37.9551C38.2749 38.5578 37.6231 39.4069 37.2908 40.4033Z" fill="#EF5226"/>
</svg>
