<svg width="52" height="50" viewBox="0 0 52 50" fill="none" xmlns="http://www.w3.org/2000/svg">
<path d="M11.6047 16.071H23.212V10.7138H19.6405C19.4581 10.7138 19.2801 10.6579 19.1304 10.5537C18.9807 10.4494 18.8665 10.3019 18.8032 10.1308C18.7399 9.95975 18.7305 9.77341 18.7763 9.59684C18.822 9.42028 18.9208 9.26197 19.0592 9.14322L25.3093 3.78601C25.471 3.64767 25.6769 3.57166 25.8897 3.57166C26.1025 3.57166 26.3083 3.64767 26.47 3.78601L32.7201 9.14322C32.8585 9.26187 32.9572 9.42002 33.003 9.59641C33.0488 9.7728 33.0395 9.95899 32.9765 10.13C32.9134 10.301 32.7995 10.4485 32.6501 10.5529C32.5007 10.6573 32.3229 10.7134 32.1407 10.7138H28.5692V16.071H40.1765C41.1237 16.071 42.0321 15.6947 42.7019 15.0249C43.3717 14.3551 43.7479 13.4467 43.7479 12.4995C43.7479 11.5523 43.3717 10.6439 42.7019 9.9741C42.0321 9.30431 41.1237 8.92804 40.1765 8.92804H38.0782C37.9357 8.92804 37.7952 8.8939 37.6685 8.82847C37.5418 8.76304 37.4326 8.66823 37.3501 8.55196C37.2676 8.43569 37.2141 8.30135 37.1941 8.16018C37.1742 8.01901 37.1883 7.87511 37.2354 7.74052C37.4061 7.26179 37.4948 6.75769 37.4979 6.24943C37.4965 5.06585 37.0256 3.93115 36.1887 3.09423C35.3518 2.25731 34.2171 1.7865 33.0335 1.78509C31.8609 1.78187 30.735 2.24432 29.9031 3.07082C29.8146 3.1587 29.7085 3.22704 29.5919 3.27143C29.4753 3.31582 29.3507 3.33528 29.2261 3.32855C29.1015 3.32182 28.9797 3.28905 28.8686 3.23235C28.7574 3.17566 28.6594 3.0963 28.5808 2.99939C27.5383 1.70332 26.1194 0.762663 24.5197 0.30718C22.92 -0.148303 21.2183 -0.0961689 19.6495 0.456391C18.0807 1.00895 16.722 2.03471 15.7608 3.39216C14.7997 4.74962 14.2834 6.37188 14.2833 8.03517C14.2833 8.27197 14.1892 8.49907 14.0218 8.66652C13.8543 8.83397 13.6272 8.92804 13.3904 8.92804H11.6047C10.6575 8.92804 9.74905 9.30431 9.07926 9.9741C8.40948 10.6439 8.0332 11.5523 8.0332 12.4995C8.0332 13.4467 8.40948 14.3551 9.07926 15.0249C9.74905 15.6947 10.6575 16.071 11.6047 16.071Z" fill="#EF5226"/>
<path d="M25.8912 26.7855C26.8774 26.7855 27.6769 25.986 27.6769 24.9997C27.6769 24.0135 26.8774 23.214 25.8912 23.214C24.905 23.214 24.1055 24.0135 24.1055 24.9997C24.1055 25.986 24.905 26.7855 25.8912 26.7855Z" fill="#EF5226"/>
<path d="M30.8488 26.8747L32.1408 26.2337V23.7658L30.8488 23.1247C30.7225 23.0614 30.613 22.969 30.5294 22.8551C30.4457 22.7413 30.3903 22.6092 30.3676 22.4697C30.345 22.3303 30.3557 22.1874 30.399 22.0529C30.4423 21.9185 30.5169 21.7962 30.6167 21.6961L30.8783 21.4282L29.0925 19.6425H27.6764C27.4396 19.6425 27.2125 19.5484 27.0451 19.381C26.8776 19.2135 26.7836 18.9864 26.7836 18.7496V9.82095C26.7836 9.58415 26.8776 9.35704 27.0451 9.1896C27.2125 9.02215 27.4396 8.92808 27.6764 8.92808H29.73L25.8907 5.63965L22.0514 8.92808H24.105C24.3418 8.92808 24.5689 9.02215 24.7363 9.1896C24.9038 9.35704 24.9978 9.58415 24.9978 9.82095V18.7496C24.9978 18.9864 24.9038 19.2135 24.7363 19.381C24.5689 19.5484 24.3418 19.6425 24.105 19.6425H22.6889L20.9031 21.4282L21.1648 21.6899C21.2645 21.7899 21.3391 21.9122 21.3824 22.0467C21.4257 22.1812 21.4364 22.324 21.4138 22.4635C21.3911 22.6029 21.3357 22.735 21.252 22.8489C21.1684 22.9627 21.0589 23.0551 20.9326 23.1184L19.6406 23.7658V26.2337L20.9326 26.8792C21.0589 26.9425 21.1684 27.0349 21.252 27.1488C21.3357 27.2626 21.3911 27.3947 21.4138 27.5342C21.4364 27.6736 21.4257 27.8165 21.3824 27.951C21.3391 28.0854 21.2645 28.2077 21.1648 28.3078L20.9031 28.5712L22.6889 30.3569H24.105C24.3418 30.3569 24.5689 30.451 24.7363 30.6184C24.9038 30.7859 24.9978 31.013 24.9978 31.2498V40.1785C24.9978 40.4153 24.9038 40.6424 24.7363 40.8098C24.5689 40.9773 24.3418 41.0714 24.105 41.0714H22.0514L25.8907 44.3598L29.73 41.0714H27.6764C27.4396 41.0714 27.2125 40.9773 27.0451 40.8098C26.8776 40.6424 26.7836 40.4153 26.7836 40.1785V31.2498C26.7836 31.013 26.8776 30.7859 27.0451 30.6184C27.2125 30.451 27.4396 30.3569 27.6764 30.3569H29.0925L30.8783 28.5712L30.6167 28.3096C30.5169 28.2095 30.4423 28.0872 30.399 27.9527C30.3557 27.8183 30.345 27.6754 30.3676 27.536C30.3903 27.3965 30.4457 27.2644 30.5294 27.1506C30.613 27.0367 30.7225 26.9443 30.8488 26.881V26.8747ZM25.8907 28.5712C25.1843 28.5712 24.4938 28.3617 23.9065 27.9693C23.3192 27.5769 22.8614 27.0191 22.5911 26.3665C22.3208 25.7139 22.25 24.9958 22.3879 24.303C22.5257 23.6102 22.8658 22.9738 23.3653 22.4743C23.8648 21.9748 24.5011 21.6347 25.1939 21.4969C25.8867 21.3591 26.6048 21.4298 27.2575 21.7001C27.9101 21.9704 28.4678 22.4282 28.8603 23.0155C29.2527 23.6028 29.4622 24.2933 29.4622 24.9997C29.4622 25.9469 29.0859 26.8553 28.4161 27.5251C27.7463 28.1949 26.8379 28.5712 25.8907 28.5712Z" fill="#EF5226"/>
<path d="M45.5341 39.2855H42.3912C42.2484 39.2855 42.1078 39.2512 41.9811 39.1857C41.8543 39.1201 41.7451 39.0251 41.6627 38.9086C41.5802 38.7921 41.5269 38.6576 41.5071 38.5162C41.4874 38.3749 41.5018 38.2309 41.5492 38.0962C41.9328 37.0192 42.0518 35.8657 41.8963 34.733C41.7407 33.6003 41.3152 32.5217 40.6554 31.5879C39.9957 30.6541 39.1212 29.8926 38.1055 29.3676C37.0899 28.8426 35.9629 28.5694 34.8196 28.5711C34.2005 28.5722 33.5842 28.6547 32.9866 28.8167C32.9492 28.9614 32.8754 29.0942 32.7723 29.2024L30.0937 31.881C29.9263 32.0484 29.6992 32.1425 29.4624 32.1426H28.5696V39.2855H32.141C32.3234 39.2856 32.5014 39.3414 32.6511 39.4457C32.8008 39.5499 32.915 39.6974 32.9783 39.8685C33.0416 40.0396 33.051 40.2259 33.0052 40.4025C32.9595 40.579 32.8607 40.7373 32.7223 40.8561L26.4722 46.2133C26.3105 46.3516 26.1047 46.4277 25.8918 46.4277C25.679 46.4277 25.4732 46.3516 25.3115 46.2133L19.0614 40.8561C18.9231 40.7374 18.8244 40.5793 18.7785 40.4029C18.7327 40.2265 18.742 40.0403 18.8051 39.8693C18.8681 39.6984 18.982 39.5508 19.1314 39.4464C19.2809 39.3421 19.4586 39.2859 19.6409 39.2855H23.2123V32.1426H22.3195C22.0827 32.1425 21.8556 32.0484 21.6882 31.881L19.0096 29.2024C18.8422 29.0349 18.7482 28.8079 18.7482 28.5711C18.7482 28.3344 18.8422 28.1073 19.0096 27.9399L19.0266 27.9229L18.3489 27.5845C18.2171 27.5166 18.1045 27.4169 18.0212 27.2943C15.6532 28.0343 13.5821 29.5086 12.1076 31.5039C10.633 33.4991 9.83164 35.9117 9.81931 38.3927C9.81931 38.6295 9.72524 38.8566 9.5578 39.024C9.39035 39.1915 9.16325 39.2855 8.92644 39.2855H6.24784C4.82702 39.2855 3.46439 39.85 2.45972 40.8546C1.45504 41.8593 0.890625 43.2219 0.890625 44.6427C0.890625 46.0636 1.45504 47.4262 2.45972 48.4309C3.46439 49.4355 4.82702 50 6.24784 50H45.5341C46.9549 50 48.3175 49.4355 49.3222 48.4309C50.3268 47.4262 50.8913 46.0636 50.8913 44.6427C50.8913 43.2219 50.3268 41.8593 49.3222 40.8546C48.3175 39.85 46.9549 39.2855 45.5341 39.2855Z" fill="#EF5226"/>
<path d="M4.46239 30.3569H8.03386V24.9997H12.4982L6.24813 19.6425L-0.00195312 24.9997H4.46239V30.3569Z" fill="#EF5226"/>
<path d="M43.7485 19.6425V24.9997H39.2842L45.5343 30.3569L51.7843 24.9997H47.32V19.6425H43.7485Z" fill="#05A7CC"/>
</svg>
