<svg width="59" height="50" viewBox="0 0 59 50" fill="none" xmlns="http://www.w3.org/2000/svg">
<path d="M45.8423 45.2961H44.851C44.5042 45.2961 44.2236 45.577 44.2236 45.9235C44.2236 46.27 44.5042 46.5509 44.851 46.5509H45.8423C46.189 46.5509 46.4696 46.27 46.4696 45.9235C46.4696 45.577 46.189 45.2961 45.8423 45.2961Z" fill="#EF5226"/>
<path d="M42.1821 45.2961H41.1908C40.8441 45.2961 40.5635 45.577 40.5635 45.9235C40.5635 46.27 40.8441 46.5509 41.1908 46.5509H42.1821C42.5289 46.5509 42.8095 46.27 42.8095 45.9235C42.8095 45.577 42.5289 45.2961 42.1821 45.2961Z" fill="#EF5226"/>
<path d="M17.5732 32.202H18.5707V35.1443L21.513 32.202H28.3135C28.9973 32.202 29.5493 31.6437 29.5493 30.9598V29.862H24.1792C22.8053 29.862 21.6886 28.739 21.6886 27.3651V24.3663H17.5732C16.8831 24.3663 16.3311 24.9247 16.3311 25.6085V30.9598C16.3311 31.6437 16.8831 32.202 17.5732 32.202Z" fill="#EF5226"/>
<path d="M24.182 28.6063H30.9775L33.9231 31.5517V28.6063H34.9198C35.6066 28.6063 36.1594 28.0506 36.1594 27.3639V22.0117C36.1594 21.3277 35.6066 20.7721 34.9198 20.7721H24.182C23.498 20.7721 22.9424 21.3277 22.9424 22.0117V27.3639C22.9424 28.0506 23.498 28.6063 24.182 28.6063Z" fill="#05A7CC"/>
<path d="M57.9935 12.6663L55.3209 12.1518C55.0449 11.2108 54.6685 10.2948 54.1854 9.4291L55.7225 7.17064C55.8919 6.92596 55.8605 6.58721 55.6472 6.37389L52.1277 2.86073C51.9144 2.64741 51.5757 2.61605 51.331 2.78545L49.0788 4.31619C48.2005 3.83312 47.2846 3.45044 46.3435 3.18693L45.8354 0.508154C45.7789 0.213278 45.5217 0 45.2206 0H40.2457C39.9445 0 39.6873 0.213278 39.6308 0.508154L39.1164 3.18693C38.1817 3.45044 37.2658 3.83312 36.3874 4.31619L34.1352 2.78545C33.8906 2.61605 33.5518 2.64741 33.3385 2.86073L29.8191 6.37389C29.6058 6.58721 29.5744 6.92596 29.7438 7.17064L31.2808 9.42282C30.8667 10.1694 30.5342 10.9536 30.2707 11.7629H11.0236C9.98213 11.7629 9.12894 12.6098 9.12894 13.6574V18.3187H7.48528C6.09258 18.3187 4.95707 19.4605 4.95707 20.8532V41.8507H3.30713C1.91438 41.8507 0.785156 42.9799 0.785156 44.3664V45.0941C0.785156 47.798 2.98717 50 5.69106 50H46.8015C49.5054 50 51.7074 47.798 51.7074 45.0941V44.3664C51.7074 42.9799 50.5782 41.8507 49.1855 41.8507H47.5355V27.9423C48.0687 27.7353 48.5895 27.4969 49.0788 27.2271L51.331 28.7578C51.4376 28.8268 51.5568 28.8645 51.6823 28.8645C51.8454 28.8645 52.0023 28.8018 52.1277 28.6826L55.6472 25.1694C55.8605 24.9561 55.8919 24.6173 55.7225 24.3726L54.1854 22.1142C54.6685 21.2484 55.0449 20.3325 55.3209 19.3915L57.9935 18.877C58.2883 18.8206 58.5016 18.5634 58.5016 18.2622V13.2811C58.5016 12.9799 58.2883 12.7227 57.9935 12.6663ZM30.7601 14.473H31.8768C32.2218 14.473 32.5041 14.749 32.5041 15.1004C32.5041 15.4454 32.2218 15.7277 31.8768 15.7277H30.7601C30.4087 15.7277 30.1327 15.4454 30.1327 15.1004C30.1327 14.749 30.4087 14.473 30.7601 14.473ZM10.3836 18.4316H42.1026V36.5935C42.1026 36.9448 41.8203 37.2334 41.469 37.2334H11.0236C10.6722 37.2334 10.3836 36.9448 10.3836 36.5935V18.4316ZM33.8467 15.1004C33.8467 14.749 34.129 14.473 34.474 14.473H35.5907C35.942 14.473 36.218 14.749 36.218 15.1004C36.218 15.4454 35.942 15.7277 35.5907 15.7277H34.474C34.129 15.7277 33.8467 15.4454 33.8467 15.1004ZM41.469 11.7629H39.0662C40.0574 10.8532 41.3561 10.3325 42.73 10.3325C45.7287 10.3325 48.1691 12.7729 48.1691 15.7716C48.1691 17.0326 47.7174 18.2434 46.927 19.2158C46.4564 18.6638 45.7601 18.3187 45.001 18.3187H43.3573V13.6574C43.3573 12.6098 42.5104 11.7629 41.469 11.7629ZM39.3109 14.473C39.656 14.473 39.9382 14.749 39.9382 15.1004C39.9382 15.4454 39.656 15.7277 39.3109 15.7277H38.1942C37.8492 15.7277 37.5669 15.4454 37.5669 15.1004C37.5669 14.749 37.8492 14.473 38.1942 14.473H39.3109ZM6.21178 20.8532C6.21178 20.1506 6.78265 19.5734 7.48528 19.5734H9.12894V36.5935C9.12894 37.6349 9.98213 38.4881 11.0236 38.4881H41.469C42.5104 38.4881 43.3573 37.6349 43.3573 36.5935V19.5734H45.001C45.5593 19.5734 46.0424 19.931 46.218 20.4517C46.262 20.5834 46.2808 20.7152 46.2808 20.8532V41.8507H32.5982C32.3536 41.8507 32.1277 41.995 32.0273 42.2271L31.2306 44.0339H21.262L20.4652 42.2271C20.3649 41.995 20.139 41.8507 19.8943 41.8507H6.21178V20.8532ZM49.1855 43.1054C49.8818 43.1054 50.4527 43.67 50.4527 44.3664V45.0941C50.4527 47.1079 48.8153 48.7453 46.8015 48.7453H5.69106C3.67724 48.7453 2.03986 47.1079 2.03986 45.0941V44.3664C2.03986 43.67 2.61074 43.1054 3.30713 43.1054H19.4803L20.277 44.9185C20.3774 45.1443 20.6033 45.2886 20.8479 45.2886H31.6447C31.8893 45.2886 32.1152 45.1443 32.2155 44.9185L33.0123 43.1054H49.1855ZM57.2469 17.7415L54.6999 18.2309C54.4615 18.2748 54.2733 18.4567 54.2105 18.6888C53.9282 19.7867 53.4891 20.8406 52.9057 21.8256C52.7802 22.0326 52.7927 22.2961 52.9245 22.4969L54.3925 24.6487L51.607 27.4279L49.4552 25.9661C49.2545 25.8281 48.991 25.8218 48.7839 25.9473C48.3887 26.1857 47.9684 26.3927 47.5355 26.5809V20.8532C47.5355 20.7152 47.5292 20.5772 47.5041 20.4454C48.7212 19.197 49.4239 17.5157 49.4239 15.7716C49.4239 12.0828 46.4188 9.07778 42.73 9.07778C40.6158 9.07778 38.6585 10.0815 37.3975 11.7629H31.5945C31.8517 11.054 32.1716 10.3701 32.5606 9.71769C32.686 9.51065 32.6798 9.24718 32.5418 9.04642L31.0738 6.8946L33.8592 4.11543L36.011 5.57714C36.2118 5.71518 36.4753 5.72146 36.6823 5.59598C37.6798 5.00626 38.7337 4.56711 39.8128 4.29735C40.0512 4.24087 40.2331 4.0464 40.277 3.808L40.7663 1.25471H44.6999L45.1892 3.808C45.2331 4.0464 45.4151 4.23463 45.6535 4.29735C46.7388 4.56711 47.7927 5.00626 48.7839 5.59598C48.991 5.72146 49.2545 5.71518 49.4552 5.57714L51.607 4.11543L54.3925 6.8946L52.9245 9.04642C52.7927 9.24718 52.7802 9.51065 52.9057 9.71769C53.4891 10.7026 53.9282 11.7566 54.2105 12.8545C54.2733 13.0866 54.4615 13.2685 54.6999 13.3124L57.2469 13.8018V17.7415Z" fill="#EF5226"/>
</svg>
