<svg width="50" height="50" viewBox="0 0 50 50" fill="none" xmlns="http://www.w3.org/2000/svg">
<path d="M32.1429 30.6862V30.3571C32.1429 22.4801 25.7342 16.0714 17.8571 16.0714C9.98012 16.0714 3.57143 22.4801 3.57143 30.3571V30.6862C1.49732 31.4257 0 33.3894 0 35.7143V37.5C0 40.4541 2.40304 42.8571 5.35714 42.8571H7.14286C8.12988 42.8571 8.92857 42.0576 8.92857 41.0714V32.1428C8.92857 31.1567 8.12988 30.3571 7.14286 30.3571C7.14286 24.4489 11.9489 19.6428 17.8571 19.6428C23.7653 19.6428 28.5714 24.4489 28.5714 30.3571C27.5844 30.3571 26.7857 31.1567 26.7857 32.1428V41.0714C26.7857 41.9478 27.4287 42.6432 28.2619 42.7947C27.54 44.9008 25.5622 46.4286 23.2143 46.4286H21.4286C21.4286 45.4424 20.6299 44.6428 19.6429 44.6428H16.0714C15.0844 44.6428 14.2857 45.4424 14.2857 46.4286V48.2143C14.2857 49.2004 15.0844 50 16.0714 50H23.2143C27.6222 50 31.2706 46.7812 31.9908 42.5754C34.143 41.8799 35.7143 39.8808 35.7143 37.5V35.7143C35.7143 33.3894 34.217 31.4257 32.1429 30.6862Z" fill="#EF5226"/>
<path d="M20.7916 30.3572C19.6878 30.3572 18.6467 30.774 17.8567 31.5308C17.0668 30.774 16.0257 30.3572 14.9218 30.3572C12.6007 30.3572 10.7139 32.2144 10.7139 34.4971C10.7139 35.5914 11.1655 36.6612 11.9538 37.4303L17.2324 42.6017C17.4051 42.7717 17.6318 42.8572 17.8567 42.8572C18.0817 42.8572 18.3084 42.7717 18.481 42.6017L23.7597 37.4312C24.5479 36.6612 24.9996 35.5914 24.9996 34.4971C24.9996 32.2144 23.1127 30.3572 20.7916 30.3572Z" fill="#05A7CC"/>
<path d="M33.9284 21.4285C36.8871 21.4285 39.2856 19.03 39.2856 16.0714C39.2856 13.1127 36.8871 10.7142 33.9284 10.7142C30.9698 10.7142 28.5713 13.1127 28.5713 16.0714C28.5713 19.03 30.9698 21.4285 33.9284 21.4285Z" fill="#05A7CC"/>
<path d="M49.3892 14.0822L46.0204 12.9593C45.7238 11.8079 45.2701 10.7224 44.6783 9.72377L46.2674 6.54548C46.4392 6.20172 46.3719 5.78657 46.1 5.51485L44.4848 3.8996C44.2131 3.62778 43.7979 3.56042 43.4542 3.7323L40.2759 5.32139C39.2773 4.72957 38.1917 4.27584 37.0404 3.97927L35.9174 0.610461C35.7959 0.245885 35.4548 0 35.0705 0H32.786C32.4017 0 32.0605 0.245884 31.939 0.610461L30.8161 3.97927C29.6647 4.27584 28.5791 4.72957 27.5806 5.32139L24.4023 3.7323C24.0585 3.56042 23.6434 3.62778 23.3716 3.8996L21.7564 5.51485C21.4846 5.78657 21.4172 6.20172 21.5891 6.54548L23.1782 9.72377C22.5864 10.7224 22.1326 11.8079 21.8361 12.9593L18.4673 14.0822C18.3442 14.1232 18.2601 14.2173 18.1689 14.3015C21.3945 14.3639 24.3918 15.3707 26.8862 17.0714C26.8395 16.7417 26.7854 16.414 26.7854 16.0714C26.7854 12.1265 29.9833 8.92857 33.9282 8.92857C37.8732 8.92857 41.0711 12.1265 41.0711 16.0714C41.0711 20.0164 37.8732 23.2143 33.9282 23.2143C33.294 23.2143 32.6904 23.1052 32.105 22.9501C33.143 24.9386 33.7554 27.1735 33.8775 29.5373C34.693 30.004 35.4021 30.619 35.9758 31.357L37.0404 28.1636C38.1917 27.867 39.2773 27.4133 40.2759 26.8215L43.4542 28.4106C43.7979 28.5824 44.2131 28.5151 44.4848 28.2433L46.1 26.628C46.3719 26.3563 46.4392 25.9411 46.2674 25.5974L44.6783 22.4191C45.2701 21.4205 45.7238 20.335 46.0204 19.1836L49.3892 18.0606C49.7538 17.9391 49.9997 17.598 49.9997 17.2137V14.9292C49.9997 14.5449 49.7538 14.2038 49.3892 14.0822Z" fill="#EF5226"/>
</svg>
