<svg width="58" height="50" viewBox="0 0 58 50" fill="none" xmlns="http://www.w3.org/2000/svg">
<path d="M21.2946 15.5968L20.0963 13.5283L17.6876 17.6652H18.1789C18.6463 17.6652 19.0178 18.0338 19.0178 18.4974V23.0623H21.1868V18.4974C21.1868 18.0338 21.5583 17.6652 22.0256 17.6652H22.5169L21.2946 15.5968ZM30.2103 5.62292L29 3.55445L27.8256 5.58726C27.8136 5.59914 27.8136 5.62292 27.8017 5.63481L26.6033 7.70328H27.0946C27.562 7.70328 27.9335 8.0718 27.9335 8.53543V13.1003H30.1025V8.53543C30.1025 8.0718 30.474 7.70328 30.9413 7.70328H31.4207L30.2103 5.62292ZM29.731 1.48597L31.6483 4.79077L33.5777 8.10746C33.8054 8.49976 33.6736 9.01094 33.2661 9.24869C33.1343 9.32002 32.9905 9.35568 32.8467 9.35568H31.7562V13.9206C31.7562 14.3842 31.3847 14.7527 30.9174 14.7527H27.0826C26.6153 14.7527 26.2438 14.3842 26.2438 13.9206V9.35568H25.1413C24.674 9.35568 24.3025 8.98716 24.3025 8.52354C24.3025 8.35711 24.3624 8.19068 24.4463 8.05991L26.3517 4.79077C26.3636 4.77889 26.3636 4.75511 26.3756 4.74322L28.281 1.48597C28.5087 1.09368 29.024 0.951022 29.4194 1.17689C29.5512 1.24822 29.6591 1.36709 29.731 1.48597ZM39.114 15.5968L37.9037 13.5283L35.495 17.6652H35.9744C36.4417 17.6652 36.8132 18.0338 36.8132 18.4974V23.0623H38.9822V18.4974C38.9822 18.0338 39.3537 17.6652 39.8211 17.6652H40.3004L39.114 15.5968ZM38.6347 11.4598L42.4814 18.0813C42.7211 18.4736 42.5773 18.9848 42.1818 19.2225C42.05 19.2939 41.9062 19.3295 41.7624 19.3295H40.6599V23.8944C40.6599 24.3581 40.2884 24.7266 39.8211 24.7266H35.9744C35.507 24.7266 35.1355 24.3581 35.1355 23.8944V19.3295H34.0331C33.5657 19.3295 33.1942 18.961 33.1942 18.4974C33.1942 18.3191 33.2422 18.1645 33.338 18.0338L37.1727 11.4479C37.4004 11.0556 37.9157 10.913 38.3112 11.1507C38.4669 11.234 38.5748 11.3409 38.6347 11.4598ZM39.5574 29.7194C39.3537 32.4893 38.1434 34.9738 36.274 36.8283C34.2248 38.8612 31.3967 40.1213 28.269 40.1213C25.1413 40.1213 22.3132 38.8612 20.2641 36.8283C18.4066 34.9738 17.1843 32.4893 16.9806 29.7194H7.0343C7.04628 30.0404 7.07025 30.3852 7.09421 30.7537C7.14215 31.2767 7.20207 31.8117 7.26198 32.3823L11.0368 33.4165C11.3124 33.4879 11.5401 33.69 11.636 33.9753C11.8037 34.4864 11.9835 34.9976 12.1872 35.4969C12.3909 35.9843 12.6186 36.4598 12.8702 36.9472C12.9901 37.185 13.0021 37.4941 12.8583 37.7437L10.9169 41.1436C11.7318 42.1778 12.4508 43.01 13.2417 43.7946C14.0326 44.5792 14.8595 45.2806 15.9141 46.1008L19.3174 44.1988C19.557 44.0561 19.8686 44.0323 20.1442 44.175C20.6236 44.4246 21.1149 44.6624 21.6062 44.8645C22.1095 45.0666 22.6128 45.2449 23.1281 45.4113C23.3917 45.4945 23.6074 45.6966 23.6913 45.9819L24.7459 49.7504C26.088 49.9168 27.1785 50 28.269 50C29.3475 50 30.438 49.9168 31.7921 49.7504L32.8347 46.0057C32.9066 45.7323 33.1103 45.5064 33.3979 45.4113C33.9132 45.2568 34.4165 45.0666 34.9198 44.8645C35.4231 44.6624 35.9025 44.4246 36.3818 44.175C36.6215 44.0442 36.9211 44.0442 37.1847 44.1869L40.612 46.1127C41.6426 45.3162 42.4814 44.5911 43.2723 43.8184C44.0512 43.0456 44.7942 42.2016 45.6091 41.1674L43.6917 37.7913C43.5479 37.5535 43.524 37.2444 43.6678 36.971C43.9194 36.4955 44.1471 36.0081 44.3508 35.5207C44.5545 35.0214 44.7463 34.5221 44.9021 33.999C44.986 33.7375 45.1897 33.5235 45.4773 33.4403L49.276 32.3942C49.3479 31.8236 49.3959 31.2886 49.4438 30.7656C49.4798 30.4089 49.4917 30.0642 49.5037 29.7313H48.8566H39.5574V29.7194ZM18.6583 29.7194C18.862 32.0257 19.8806 34.106 21.4504 35.6515C23.2 37.3871 25.6087 38.457 28.269 38.457C30.9293 38.457 33.338 37.3871 35.0876 35.6515C36.6455 34.106 37.676 32.0257 37.8798 29.7194H18.6583ZM48.8566 28.0552C51.3851 28.0552 53.674 27.0447 55.3277 25.3923C56.9814 23.7518 58 21.4812 58 18.9729C58 16.6904 57.1492 14.5982 55.7471 13.0052C54.3211 11.3885 52.3318 10.271 50.0789 9.97385C49.7194 9.92629 49.4558 9.66476 49.3719 9.34379C49.0124 8.0718 48.2455 6.97813 47.2029 6.19353C46.1963 5.43272 44.926 4.96909 43.5479 4.96909C42.793 4.96909 42.062 5.09986 41.4029 5.36139C40.7079 5.62292 40.0727 6.00333 39.5335 6.49073C39.1859 6.79981 38.6587 6.76415 38.3471 6.4194C38.2752 6.33619 38.2273 6.25297 38.1913 6.16976C37.4364 4.32715 36.1421 2.76985 34.5004 1.67618C32.9066 0.618165 30.9893 0 28.9161 0C26.2438 0 23.8231 1.03424 22.0256 2.7223C20.2161 4.42225 19.0417 6.77603 18.8979 9.40323C18.874 9.86686 18.4785 10.2116 18.0231 10.1878C17.8674 10.1759 17.7236 10.1284 17.6037 10.0571C17.1124 9.73609 16.5851 9.48645 16.0099 9.32002C15.4587 9.15359 14.8715 9.07038 14.2723 9.07038C12.6785 9.07038 11.2285 9.67665 10.15 10.6752C9.0595 11.6857 8.35248 13.0766 8.24463 14.6457C8.20868 15.1094 7.81322 15.4541 7.34587 15.4184C7.30992 15.4184 7.28595 15.4066 7.25 15.4066C7.13017 15.3947 6.98636 15.3709 6.84256 15.3709C6.71074 15.359 6.55496 15.359 6.39917 15.359C4.6376 15.359 3.03182 16.0723 1.86942 17.2135C0.707025 18.3666 0 19.9477 0 21.7071C0 23.4546 0.719008 25.0476 1.86942 26.2007C3.03182 27.3538 4.62562 28.0552 6.39917 28.0552H17.7715H38.7426H48.8566ZM20.8153 11.4598L24.674 18.0813C24.9017 18.4736 24.7698 18.9848 24.3624 19.2225C24.2306 19.2939 24.0868 19.3295 23.943 19.3295H22.8405V23.8944C22.8405 24.3581 22.469 24.7266 22.0017 24.7266H18.155C17.6876 24.7266 17.3161 24.3581 17.3161 23.8944V19.3295H16.2136C15.7463 19.3295 15.3748 18.961 15.3748 18.4974C15.3748 18.3191 15.4347 18.1645 15.5186 18.0338L19.3413 11.4479C19.581 11.0556 20.0843 10.913 20.4917 11.1507C20.6475 11.234 20.7434 11.3409 20.8153 11.4598Z" fill="#EF5226"/>
</svg>
