<svg width="56" height="46" viewBox="0 0 56 46" fill="none" xmlns="http://www.w3.org/2000/svg">
<path d="M48.5361 37.6812H51.5411V40.6872H48.5361V37.6812Z" fill="#EF5226"/>
<path d="M49.5869 25.9191H51.5409V27.6221H49.5869V25.9191Z" fill="#EF5226"/>
<path d="M47.5868 23.3672C47.5868 23.1019 47.6922 22.8476 47.8797 22.6601C48.0673 22.4725 48.3216 22.3672 48.5868 22.3672C48.852 22.3672 49.1064 22.4725 49.2939 22.6601C49.4815 22.8476 49.5868 23.1019 49.5868 23.3672V23.9192H51.5408V20.6132H36.9238V23.9192H47.5868V23.3672Z" fill="#EF5226"/>
<path d="M36.9238 25.9191H47.5868V27.6221H36.9238V25.9191Z" fill="#EF5226"/>
<path d="M16.3443 7.47607C16.0145 7.37296 15.6709 7.32036 15.3253 7.32007C14.7398 7.32118 14.1644 7.4732 13.6547 7.76144C13.145 8.04969 12.7182 8.46444 12.4154 8.96567C12.1127 9.4669 11.9443 10.0377 11.9264 10.623C11.9085 11.2083 12.0418 11.7883 12.3133 12.3071C12.5733 12.803 12.9515 13.2272 13.4146 13.542C13.8776 13.8568 14.4111 14.0526 14.9679 14.112C15.5247 14.1714 16.0875 14.0926 16.6065 13.8825C17.1256 13.6724 17.5848 13.3376 17.9435 12.9077C18.3022 12.4777 18.5494 11.966 18.6631 11.4177C18.7768 10.8695 18.7536 10.3016 18.5955 9.7645C18.4373 9.22737 18.1492 8.73753 17.7565 8.33836C17.3638 7.93919 16.8788 7.64302 16.3443 7.47607Z" fill="#05A7CC"/>
<path d="M5.991 14.2441L5.834 14.2371C5.01963 14.2002 4.2473 13.865 3.66417 13.2953C3.08104 12.7257 2.72789 11.9614 2.672 11.1481H2.31C1.69734 11.1486 1.10994 11.3923 0.676815 11.8256C0.243692 12.2589 0.000264763 12.8464 0 13.4591V14.8591H7.028C6.91629 14.6817 6.764 14.5334 6.58369 14.4265C6.40338 14.3195 6.20023 14.257 5.991 14.2441Z" fill="#EF5226"/>
<path d="M24.4385 12.9952L24.5835 13.0012C24.7578 13.0084 24.9318 12.9812 25.0956 12.9211C25.2594 12.861 25.4097 12.7693 25.538 12.651C25.6662 12.5328 25.7699 12.3904 25.8431 12.2321C25.9163 12.0737 25.9576 11.9025 25.9645 11.7282L26.0115 10.5912C26.0251 10.2394 25.8987 9.89666 25.6602 9.63784C25.4216 9.37903 25.0902 9.22526 24.7385 9.21018L24.5895 9.20418C23.9984 9.17262 23.4259 8.98632 22.9294 8.66393C22.4329 8.34153 22.0298 7.89436 21.7605 7.36718L21.7465 7.34018C21.4689 6.81928 21.332 6.23491 21.3496 5.64489C21.3671 5.05488 21.5384 4.47967 21.8465 3.97618L21.9255 3.85018C22.0194 3.70301 22.0834 3.53874 22.1136 3.3668C22.1439 3.19485 22.1399 3.01863 22.1019 2.84823C22.0639 2.67783 21.9927 2.51661 21.8922 2.37382C21.7917 2.23104 21.6641 2.1095 21.5165 2.01618L20.5535 1.40618C20.256 1.21825 19.8961 1.15609 19.5528 1.23333C19.2095 1.31058 18.9109 1.52093 18.7225 1.81818L18.6445 1.94018C18.3314 2.43229 17.8948 2.83384 17.3783 3.10489C16.8619 3.37594 16.2834 3.50705 15.7005 3.48518L15.6005 2.48018L15.5715 3.48018C14.9844 3.46203 14.4126 3.28785 13.9151 2.97554C13.4175 2.66323 13.0121 2.22406 12.7405 1.70318L12.6735 1.57518C12.51 1.26312 12.2293 1.02875 11.8931 0.923552C11.5569 0.818357 11.1927 0.850953 10.8805 1.01418L9.87052 1.54218C9.55953 1.7062 9.32615 1.98669 9.2214 2.32231C9.11664 2.65793 9.14904 3.02138 9.31152 3.33318L9.38152 3.46618C9.65429 3.98616 9.78388 4.56933 9.75699 5.15589C9.73011 5.74246 9.54771 6.31133 9.22852 6.80418L9.16452 6.90418C8.85335 7.39845 8.41733 7.80191 7.90045 8.07387C7.38357 8.34583 6.80411 8.47667 6.22052 8.45318L6.06652 8.44618C5.71615 8.43556 5.37565 8.56307 5.11843 8.80121C4.86121 9.03934 4.70789 9.36903 4.69152 9.71918L4.67452 10.1342V10.1462V10.1652L4.64552 10.8572C4.63198 11.2088 4.75834 11.5515 4.99694 11.8101C5.23555 12.0688 5.56693 12.2224 5.91852 12.2372L6.07452 12.2442C6.66379 12.276 7.2344 12.4619 7.72927 12.7834C8.22415 13.1049 8.62595 13.5507 8.89452 14.0762L8.91152 14.1082C9.19053 14.6287 9.32814 15.2132 9.31059 15.8035C9.29304 16.3938 9.12096 16.9692 8.81152 17.4722L8.72652 17.6042C8.53977 17.9015 8.47849 18.2608 8.55608 18.6032C8.63368 18.9456 8.84384 19.2434 9.14052 19.4312L10.1035 20.0412C10.4008 20.2295 10.7608 20.2919 11.1041 20.2149C11.4475 20.1378 11.7462 19.9275 11.9345 19.6302L12.0155 19.5032C12.3133 19.0325 12.725 18.6446 13.2125 18.3752C13.7 18.1059 14.2476 17.9638 14.8045 17.9622H14.9575H15.0755C15.6638 17.9799 16.2369 18.1537 16.7359 18.4658C17.235 18.7778 17.6421 19.217 17.9155 19.7382L17.9845 19.8712C18.1489 20.1818 18.4295 20.4148 18.765 20.5193C19.1005 20.6239 19.4638 20.5915 19.7755 20.4292L20.7835 19.9002C20.9381 19.8194 21.0752 19.709 21.1871 19.5752C21.299 19.4414 21.3834 19.2869 21.4355 19.1205C21.4876 18.954 21.5063 18.779 21.4907 18.6053C21.4751 18.4316 21.4254 18.2627 21.3445 18.1082L21.2775 17.9952C21.0037 17.4749 20.8734 16.8912 20.8997 16.3039C20.9261 15.7165 21.1082 15.1468 21.4275 14.6532L21.9085 14.8762C21.9289 14.8708 21.9496 14.8664 21.9705 14.8632H22.0005L21.4945 14.5472C21.8057 14.0527 22.2416 13.6489 22.7584 13.3765C23.2753 13.104 23.8547 12.9725 24.4385 12.9952ZM20.4885 12.3352C20.1456 13.4342 19.4612 14.3952 18.5346 15.0786C17.6081 15.762 16.4878 16.1321 15.3365 16.1352C14.7877 16.1348 14.2422 16.0512 13.7185 15.8872C12.6997 15.5681 11.7983 14.9541 11.1283 14.1229C10.4583 13.2917 10.0498 12.2805 9.95425 11.2172C9.85873 10.1538 10.0806 9.08606 10.5917 8.14874C11.1028 7.21143 11.8803 6.44666 12.826 5.95108C13.7716 5.4555 14.8429 5.25135 15.9045 5.36442C16.9661 5.47749 17.9704 5.90271 18.7904 6.58635C19.6105 7.26999 20.2094 8.18137 20.5117 9.20531C20.8139 10.2293 20.8059 11.3198 20.4885 12.3392V12.3352Z" fill="#EF5226"/>
<path d="M38.876 37.6812H41.881V40.6872H38.876V37.6812Z" fill="#EF5226"/>
<path d="M24.1577 30.1731H10.7997C10.6356 30.1729 10.474 30.1323 10.3292 30.0548C10.1845 29.9774 10.061 29.8655 9.96972 29.7291L7.41372 25.9191H4.13672V40.6861H30.8157V25.9191H27.5437L24.9877 29.7291C24.8964 29.8655 24.773 29.9774 24.6282 30.0548C24.4835 30.1323 24.3219 30.1729 24.1577 30.1731ZM28.6927 35.7671C28.6919 36.6858 28.3266 37.5667 27.677 38.2163C27.0273 38.866 26.1464 39.2313 25.2277 39.2321H9.49972C9.0398 39.2399 8.58293 39.156 8.15575 38.9854C7.72858 38.8148 7.33964 38.5609 7.01163 38.2384C6.68362 37.9159 6.42311 37.5314 6.24527 37.1072C6.06744 36.6829 5.97586 36.2276 5.97586 35.7676C5.97586 35.3076 6.06744 34.8522 6.24527 34.428C6.42311 34.0038 6.68362 33.6192 7.01163 33.2967C7.33964 32.9742 7.72858 32.7203 8.15575 32.5497C8.58293 32.3791 9.0398 32.2953 9.49972 32.3031H25.2277C26.1463 32.3039 27.027 32.669 27.6766 33.3185C28.3262 33.9679 28.6917 34.8485 28.6927 35.7671Z" fill="#EF5226"/>
<path d="M23.048 17.0592L23.115 17.1882C23.3182 17.5751 23.4432 17.9984 23.4828 18.4337C23.5224 18.869 23.4759 19.3078 23.3459 19.7251C23.2159 20.1425 23.0049 20.5301 22.7251 20.8659C22.4453 21.2017 22.102 21.479 21.715 21.6822L20.707 22.2112C19.9256 22.6209 19.0135 22.7036 18.1712 22.4411C17.3288 22.1786 16.6252 21.5923 16.215 20.8112L16.146 20.6802C16.0382 20.475 15.8779 20.3021 15.6815 20.1792C15.4851 20.0562 15.2596 19.9875 15.028 19.9802L14.879 19.9742C14.6464 19.9616 14.4148 20.0118 14.2083 20.1195C14.0017 20.2272 13.8279 20.3883 13.705 20.5862L13.624 20.7132C13.1508 21.4569 12.402 21.9826 11.5418 22.1751C10.6815 22.3676 9.78008 22.2112 9.035 21.7402L8.072 21.1312C7.38332 20.6915 6.88081 20.0135 6.66054 19.2267C6.44028 18.4399 6.51769 17.5995 6.878 16.8662H0V42.8262C0.000264763 43.4388 0.243692 44.0263 0.676815 44.4596C1.10994 44.8929 1.69734 45.1366 2.31 45.1372H53.69C53.994 45.1369 54.295 45.0767 54.5758 44.9599C54.8565 44.8432 55.1114 44.6722 55.326 44.4568C55.5406 44.2414 55.7106 43.9858 55.8262 43.7046C55.9419 43.4234 56.0009 43.1222 56 42.8182V16.8582H22.974C22.9931 16.9271 23.0179 16.9943 23.048 17.0592ZM43.881 41.6862C43.881 41.9514 43.7756 42.2057 43.5881 42.3933C43.4006 42.5808 43.1462 42.6862 42.881 42.6862H37.876C37.6108 42.6862 37.3564 42.5808 37.1689 42.3933C36.9814 42.2057 36.876 41.9514 36.876 41.6862V36.6812C36.876 36.4159 36.9814 36.1616 37.1689 35.974C37.3564 35.7865 37.6108 35.6812 37.876 35.6812H42.881C43.1462 35.6812 43.4006 35.7865 43.5881 35.974C43.7756 36.1616 43.881 36.4159 43.881 36.6812V41.6862ZM53.541 41.6862C53.541 41.9514 53.4356 42.2057 53.2481 42.3933C53.0606 42.5808 52.8062 42.6862 52.541 42.6862H47.541C47.2758 42.6862 47.0214 42.5808 46.8339 42.3933C46.6464 42.2057 46.541 41.9514 46.541 41.6862V36.6812C46.541 36.4159 46.6464 36.1616 46.8339 35.974C47.0214 35.7865 47.2758 35.6812 47.541 35.6812H52.541C52.8062 35.6812 53.0606 35.7865 53.2481 35.974C53.4356 36.1616 53.541 36.4159 53.541 36.6812V41.6862ZM34.924 19.6132C34.924 19.3479 35.0294 19.0936 35.2169 18.906C35.4044 18.7185 35.6588 18.6132 35.924 18.6132H52.541C52.8062 18.6132 53.0606 18.7185 53.2481 18.906C53.4356 19.0936 53.541 19.3479 53.541 19.6132V28.6222C53.541 28.8874 53.4356 29.1417 53.2481 29.3293C53.0606 29.5168 52.8062 29.6222 52.541 29.6222H35.924C35.6588 29.6222 35.4044 29.5168 35.2169 29.3293C35.0294 29.1417 34.924 28.8874 34.924 28.6222V19.6132ZM31.816 23.9192C32.0812 23.9192 32.3356 24.0245 32.5231 24.212C32.7106 24.3996 32.816 24.6539 32.816 24.9192V41.6862C32.816 41.9514 32.7106 42.2057 32.5231 42.3933C32.3356 42.5808 32.0812 42.6862 31.816 42.6862H3.137C2.87178 42.6862 2.61743 42.5808 2.42989 42.3933C2.24236 42.2057 2.137 41.9514 2.137 41.6862V24.9192C2.137 24.6539 2.24236 24.3996 2.42989 24.212C2.61743 24.0245 2.87178 23.9192 3.137 23.9192H31.816Z" fill="#EF5226"/>
<path d="M53.6902 11.1481H27.9902L27.9632 11.8131C27.9387 12.508 27.6943 13.1773 27.2651 13.7245C26.836 14.2717 26.2443 14.6686 25.5752 14.8581H56.0002V13.4581C55.9997 12.8456 55.7561 12.2583 55.323 11.8252C54.8899 11.3921 54.3027 11.1486 53.6902 11.1481Z" fill="#EF5226"/>
<path d="M23.6254 28.1731L25.1374 25.9191H9.81641L11.3284 28.1731H23.6254Z" fill="#EF5226"/>
<path d="M8.03809 35.7671C8.03835 36.155 8.19237 36.5271 8.4664 36.8017C8.74044 37.0763 9.11215 37.231 9.50009 37.2321H11.7081V34.3031H9.50009C9.11232 34.3042 8.74076 34.4588 8.46676 34.7332C8.19275 35.0076 8.03861 35.3793 8.03809 35.7671Z" fill="#EF5226"/>
<path d="M13.7109 34.3031H21.0209V37.2331H13.7109V34.3031Z" fill="#EF5226"/>
<path d="M26.6935 35.7671C26.693 35.3788 26.5384 35.0066 26.2638 34.7321C25.9891 34.4577 25.6168 34.3034 25.2285 34.3031H23.0215V37.2321H25.2285C25.6169 37.2318 25.9894 37.0774 26.2641 36.8027C26.5388 36.528 26.6932 36.1556 26.6935 35.7671Z" fill="#EF5226"/>
</svg>
