<svg width="61" height="50" viewBox="0 0 61 50" fill="none" xmlns="http://www.w3.org/2000/svg">
<path d="M0 46.875C0 47.7038 0.32924 48.4987 0.915291 49.0847C1.50134 49.6708 2.2962 50 3.125 50H57.2917C58.1205 50 58.9153 49.6708 59.5014 49.0847C60.0874 48.4987 60.4167 47.7038 60.4167 46.875V12.5H0V46.875ZM55.2083 40.625L51.0417 42.7083L48.9583 46.875L46.875 38.5417L55.2083 40.625ZM20.8333 23.9583C21.2017 23.9607 21.5691 23.9955 21.9312 24.0625C22.1682 22.0335 23.1421 20.1623 24.6681 18.8042C26.194 17.4461 28.1656 16.6958 30.2083 16.6958C32.2511 16.6958 34.2227 17.4461 35.7486 18.8042C37.2745 20.1623 38.2485 22.0335 38.4854 24.0625C39.3414 23.9043 40.2209 23.9267 41.0677 24.1282C41.9145 24.3296 42.7099 24.7057 43.4029 25.2324C44.0959 25.7591 44.6712 26.4247 45.0921 27.1866C45.5129 27.9486 45.77 28.79 45.8468 29.657C45.9235 30.5241 45.8184 31.3976 45.538 32.2216C45.2576 33.0457 44.8082 33.802 44.2186 34.4423C43.6289 35.0826 42.9121 35.5927 42.1139 35.9398C41.3157 36.287 40.4537 36.4636 39.5833 36.4583H32.2917V41.6667H28.125V36.4583H20.8333C19.1757 36.4583 17.586 35.7999 16.4139 34.6278C15.2418 33.4556 14.5833 31.8659 14.5833 30.2083C14.5833 28.5507 15.2418 26.961 16.4139 25.7889C17.586 24.6168 19.1757 23.9583 20.8333 23.9583Z" fill="#EF5226"/>
<path d="M57.2917 0H3.125C2.2962 0 1.50134 0.32924 0.915291 0.915291C0.32924 1.50134 0 2.2962 0 3.125V10.4167H60.4167V3.125C60.4167 2.2962 60.0874 1.50134 59.5014 0.915291C58.9153 0.32924 58.1205 0 57.2917 0ZM5.20833 7.29167C4.79629 7.29167 4.3935 7.16948 4.0509 6.94056C3.70829 6.71164 3.44127 6.38627 3.28358 6.00559C3.1259 5.62491 3.08464 5.20602 3.16503 4.8019C3.24542 4.39777 3.44383 4.02655 3.73519 3.73519C4.02655 3.44384 4.39777 3.24542 4.8019 3.16503C5.20602 3.08464 5.62491 3.1259 6.00559 3.28358C6.38627 3.44127 6.71164 3.70829 6.94056 4.0509C7.16948 4.3935 7.29167 4.79629 7.29167 5.20833C7.29167 5.76087 7.07217 6.29077 6.68147 6.68147C6.29077 7.07217 5.76087 7.29167 5.20833 7.29167ZM12.5 7.29167C12.088 7.29167 11.6852 7.16948 11.3426 6.94056C11 6.71164 10.7329 6.38627 10.5753 6.00559C10.4176 5.62491 10.3763 5.20602 10.4567 4.8019C10.5371 4.39777 10.7355 4.02655 11.0269 3.73519C11.3182 3.44384 11.6894 3.24542 12.0936 3.16503C12.4977 3.08464 12.9166 3.1259 13.2973 3.28358C13.6779 3.44127 14.0033 3.70829 14.2322 4.0509C14.4611 4.3935 14.5833 4.79629 14.5833 5.20833C14.5833 5.76087 14.3638 6.29077 13.9731 6.68147C13.5824 7.07217 13.0525 7.29167 12.5 7.29167ZM19.7917 7.29167C19.3796 7.29167 18.9768 7.16948 18.6342 6.94056C18.2916 6.71164 18.0246 6.38627 17.8669 6.00559C17.7092 5.62491 17.668 5.20602 17.7484 4.8019C17.8287 4.39777 18.0272 4.02655 18.3185 3.73519C18.6099 3.44384 18.9811 3.24542 19.3852 3.16503C19.7894 3.08464 20.2082 3.1259 20.5889 3.28358C20.9696 3.44127 21.295 3.70829 21.5239 4.0509C21.7528 4.3935 21.875 4.79629 21.875 5.20833C21.875 5.76087 21.6555 6.29077 21.2648 6.68147C20.8741 7.07217 20.3442 7.29167 19.7917 7.29167ZM46.875 7.29167H28.125C27.5725 7.29167 27.0426 7.07217 26.6519 6.68147C26.2612 6.29077 26.0417 5.76087 26.0417 5.20833C26.0417 4.6558 26.2612 4.1259 26.6519 3.73519C27.0426 3.34449 27.5725 3.125 28.125 3.125H46.875C47.4275 3.125 47.9574 3.34449 48.3481 3.73519C48.7388 4.1259 48.9583 4.6558 48.9583 5.20833C48.9583 5.76087 48.7388 6.29077 48.3481 6.68147C47.9574 7.07217 47.4275 7.29167 46.875 7.29167ZM57.5969 9.06979L55.7417 7.21458C55.2909 7.33994 54.8113 7.31248 54.3777 7.13649C53.9442 6.96049 53.5812 6.64588 53.3453 6.24179C53.1095 5.83769 53.0141 5.36686 53.0741 4.90283C53.134 4.4388 53.346 4.0077 53.6768 3.67685C54.0077 3.346 54.4388 3.13404 54.9028 3.07406C55.3669 3.01408 55.8377 3.10947 56.2418 3.34532C56.6459 3.58117 56.9605 3.94421 57.1365 4.37774C57.3125 4.81127 57.3399 5.29088 57.2146 5.74167L59.0698 7.59688L57.5969 9.06979Z" fill="#EF5226"/>
<path d="M35.4167 33.3333L30.2083 29.1666L25 33.3333H28.125V36.4583H32.2917V33.3333H35.4167Z" fill="#EF5226"/>
</svg>
