<svg width="51" height="50" viewBox="0 0 51 50" fill="none" xmlns="http://www.w3.org/2000/svg">
<path d="M25.8823 19.1985C24.9528 19.1985 24.0791 19.5604 23.4218 20.2176C22.0651 21.5744 22.0651 23.7819 23.4218 25.1386C24.7787 26.4954 26.9861 26.4954 28.3428 25.1386C29.6996 23.7819 29.6996 21.5744 28.3428 20.2176C27.6855 19.5604 26.8118 19.1985 25.8823 19.1985Z" fill="#EF5226"/>
<path d="M37.2549 31.2176L35.6822 28.2155C36.1259 27.4276 36.4665 26.5975 36.7045 25.7447L39.731 24.734V20.7132L36.7045 19.7024C36.4665 18.8496 36.1259 18.0195 35.6822 17.2316L37.2549 14.2296L34.4117 11.3864L31.4096 12.9591C30.6218 12.5154 29.7917 12.1748 28.9389 11.9368L27.8567 8.83887H23.8359L22.8967 11.9369C22.0438 12.1749 21.2138 12.5155 20.4259 12.9592L17.4238 11.3865L14.5596 14.2508L16.1322 17.2528C15.6886 18.0407 15.369 18.8497 15.1311 19.7024L12.1045 20.7132V24.734L15.1311 25.7447C15.369 26.5975 15.7097 27.4276 16.1533 28.2155L14.5807 31.2176L17.4238 34.0607L20.4259 32.4881C21.2138 32.9317 22.0438 33.2723 22.8967 33.5103L23.9074 36.5369H27.9282L28.9389 33.5103C29.7918 33.2723 30.6008 32.9529 31.3887 32.5092L34.3907 34.0818L37.2549 31.2176ZM30.4148 27.2102C29.1654 28.4597 27.5241 29.0845 25.8828 29.0845C24.2415 29.0845 22.6003 28.4597 21.3508 27.2102C18.8517 24.7112 18.8517 20.645 21.3508 18.1461C22.5613 16.9355 24.1708 16.2688 25.8828 16.2688C27.5948 16.2688 29.2044 16.9355 30.4149 18.1461C32.9138 20.6451 32.9138 24.7112 30.4148 27.2102Z" fill="#EF5226"/>
<path d="M6.46582 22.3818C6.46582 11.6558 15.192 2.92968 25.9179 2.92968C36.6439 2.92968 45.3701 11.6558 45.3701 22.3818V24.3764H48.2998V22.3818C48.2998 16.4034 45.9716 10.7829 41.7443 6.55546C37.517 2.32802 31.8964 0 25.9179 0C19.9395 0 14.319 2.32812 10.0916 6.55546C5.86416 10.7828 3.53613 16.4035 3.53613 22.3818V24.3764H6.46582V22.3818Z" fill="#EF5226"/>
<path d="M6.8041 27.2084H0.917969V42.524H6.8041C9.04462 42.524 10.8608 40.7077 10.8608 38.4672V31.2651C10.8608 29.0247 9.04462 27.2084 6.8041 27.2084Z" fill="#EF5226"/>
<path d="M50.9182 27.2084H45.0321C42.7917 27.2084 40.9754 29.0246 40.9754 31.2651V38.4672C40.9754 40.1436 41.9923 41.5822 43.4427 42.2005V42.9231C43.4427 45.2099 41.5822 47.0703 39.2955 47.0703H31.4866V46.1413C31.4866 44.0135 29.7556 42.2826 27.6279 42.2826H23.7044C21.5767 42.2826 19.8457 44.0136 19.8457 46.1413C19.8457 48.269 21.5768 49.9999 23.7044 49.9999H39.2956C43.1977 49.9999 46.3724 46.8253 46.3724 42.9231V42.5241H50.9182V27.2084Z" fill="#EF5226"/>
</svg>
