<svg width="50" height="50" viewBox="0 0 50 50" fill="none" xmlns="http://www.w3.org/2000/svg">
<path fill-rule="evenodd" clip-rule="evenodd" d="M7.87539 25.7778H11.4725C11.6678 29.0946 13.0735 32.2243 15.4228 34.5736C17.7722 36.9229 20.902 38.3285 24.2188 38.5237V42.1235C24.2188 42.3307 24.3011 42.5294 24.4476 42.676C24.5941 42.8225 24.7928 42.9048 25 42.9048C25.2072 42.9048 25.4059 42.8225 25.5524 42.676C25.6989 42.5294 25.7812 42.3307 25.7812 42.1235V38.5237C29.0979 38.3283 32.2277 36.9228 34.577 34.5735C36.9264 32.2242 38.3321 29.0945 38.5275 25.7778H42.1253C42.3325 25.7778 42.5312 25.6955 42.6777 25.549C42.8242 25.4025 42.9065 25.2038 42.9065 24.9966C42.9065 24.7894 42.8242 24.5907 42.6777 24.4442C42.5312 24.2976 42.3325 24.2153 42.1253 24.2153H38.5275C38.3321 20.8986 36.9264 17.7689 34.577 15.4196C32.2277 13.0703 29.098 11.6647 25.7812 11.4692V7.87647C25.7812 7.66927 25.6989 7.47055 25.5524 7.32404C25.4059 7.17753 25.2072 7.09522 25 7.09522C24.7928 7.09522 24.5941 7.17753 24.4476 7.32404C24.3011 7.47055 24.2188 7.66927 24.2188 7.87647V11.4692C20.902 11.6645 17.7722 13.0701 15.4229 15.4194C13.0735 17.7687 11.6678 20.8984 11.4725 24.2151H7.87539C7.66819 24.2151 7.46948 24.2974 7.32297 24.444C7.17645 24.5905 7.09414 24.7892 7.09414 24.9964C7.09414 25.2036 7.17645 25.4023 7.32297 25.5488C7.46948 25.6953 7.66819 25.7776 7.87539 25.7776V25.7778ZM13.0379 25.7778H16.9183C17.1011 27.6524 17.9289 29.4053 19.2604 30.7374C20.5918 32.0695 22.3443 32.8983 24.2188 33.0821V36.961C21.3164 36.7684 18.5827 35.5282 16.5261 33.4712C14.4695 31.4142 13.2299 28.6803 13.0379 25.7778ZM25.781 25.7778H31.5101C31.3322 27.236 30.6716 28.5927 29.6334 29.6319C28.5952 30.6712 27.2392 31.3332 25.7812 31.5125V25.7778H25.781ZM25.781 24.2153V18.4875C27.2384 18.6653 28.5944 19.3258 29.6327 20.3639C30.671 21.402 31.3319 22.7578 31.5101 24.2151L25.781 24.2153ZM24.2185 24.2153H18.4907C18.6686 22.758 19.3292 21.4022 20.3674 20.364C21.4055 19.3259 22.7614 18.6653 24.2188 18.4875V24.2151L24.2185 24.2153ZM24.2185 25.7778V31.5125C22.7606 31.3332 21.4047 30.6712 20.3667 29.6319C19.3287 28.5926 18.6683 27.2359 18.4908 25.7778H24.2185ZM25.781 36.961V33.0821C27.6555 32.8983 29.4081 32.0696 30.7396 30.7373C32.0712 29.4051 32.899 27.6521 33.0818 25.7774H36.9621C36.7703 28.68 35.5308 31.4141 33.4742 33.4712C31.4175 35.5284 28.6838 36.7685 25.7812 36.961H25.781ZM36.9626 24.2151H33.0818C32.8975 22.3418 32.069 20.5905 30.7377 19.2598C29.4064 17.929 27.6546 17.1014 25.7812 16.9179V13.039C28.6828 13.2309 31.4159 14.4699 33.4726 16.5255C35.5292 18.5812 36.7695 21.3137 36.9629 24.2151H36.9626ZM24.2188 13.039V16.9179C22.3454 17.1014 20.5938 17.9291 19.2626 19.2599C17.9313 20.5906 17.1029 22.3419 16.9187 24.2151H13.0379C13.2313 21.3139 14.4715 18.5815 16.528 16.5259C18.5845 14.4703 21.3174 13.2312 24.2188 13.039ZM1.84854 30.3404C1.32962 30.2479 0.859906 29.9755 0.521858 29.571C0.18381 29.1666 -0.000955386 28.656 3.71523e-06 28.1289V21.8642C-0.000758651 21.3378 0.184268 20.8281 0.522484 20.4248C0.8607 20.0215 1.3304 19.7505 1.84883 19.6596L5.32539 19.0317C5.71519 17.7419 6.23204 16.494 6.86836 15.3063L4.85186 12.4041C4.55066 11.9724 4.41118 11.4483 4.45792 10.924C4.50465 10.3996 4.73461 9.90849 5.10742 9.53682L9.53721 5.10684C9.90951 4.73427 10.4009 4.50431 10.9254 4.45714C11.45 4.40996 11.9745 4.54856 12.4073 4.84873L15.3088 6.86524C16.4963 6.23084 17.7431 5.71444 19.0313 5.32344L19.6571 1.84922C19.7493 1.33019 20.0215 0.860257 20.4258 0.522043C20.8302 0.183829 21.3408 -0.00101627 21.868 4.20274e-06H28.132C28.6591 -0.000920813 29.1696 0.183897 29.5739 0.521993C29.9782 0.860089 30.2505 1.32984 30.3429 1.84873L30.9686 5.32295C32.2569 5.71409 33.5038 6.23066 34.6912 6.86524L37.5928 4.84873C38.0256 4.54855 38.55 4.40994 39.0746 4.45712C39.5992 4.50429 40.0905 4.73426 40.4628 5.10684L44.8926 9.53682C45.2656 9.90837 45.4957 10.3995 45.5425 10.9239C45.5893 11.4483 45.4498 11.9724 45.1485 12.4041L43.1324 15.3063C43.7689 16.4938 44.2856 17.7418 44.6749 19.0317L48.1519 19.6596C48.6703 19.7505 49.1399 20.0215 49.478 20.4249C49.8161 20.8282 50.0009 21.3379 50 21.8642V28.1289C50.0011 28.6561 49.8163 29.1668 49.4782 29.5712C49.1401 29.9757 48.6703 30.248 48.1513 30.3404L44.6742 30.9684C44.2836 32.2578 43.767 33.5056 43.1317 34.6937L45.1478 37.5889C45.4493 38.0218 45.5888 38.547 45.542 39.0725C45.4953 39.598 45.2651 40.0903 44.8919 40.4632L40.4625 44.8932C40.0902 45.2657 39.5989 45.4957 39.0743 45.5429C38.5498 45.5901 38.0253 45.4515 37.5925 45.1514L34.6909 43.1281C33.505 43.7677 32.2579 44.2866 30.9684 44.6769L30.3426 48.1512C30.2503 48.67 29.9781 49.1398 29.5738 49.4779C29.1695 49.816 28.659 50.0009 28.132 50H21.868C21.3409 50.0011 20.8303 49.8163 20.4259 49.4782C20.0216 49.14 19.7494 48.6702 19.6571 48.1513L19.0313 44.677C17.7417 44.287 16.4945 43.7681 15.3088 43.1282L12.4073 45.1514C11.9745 45.4515 11.45 45.5901 10.9254 45.5429C10.4008 45.4957 9.90951 45.2657 9.53721 44.8932L5.10742 40.4632C4.73443 40.0902 4.50447 39.5978 4.45778 39.0724C4.4111 38.5469 4.55066 38.0218 4.85205 37.5889L6.86817 34.6937C6.23428 33.5049 5.71753 32.2572 5.3252 30.9684L1.84854 30.3404Z" fill="#EF5226"/>
</svg>
