<svg width="33" height="50" viewBox="0 0 33 50" fill="none" xmlns="http://www.w3.org/2000/svg">
<path d="M31.7756 12.4977H30.5122C30.1853 11.2197 29.678 9.99522 29 8.85381L29.8976 7.96113C30.3415 7.51725 30.3415 6.79036 29.8976 6.34648L26.5708 3.01967C26.1269 2.57579 25.4049 2.57579 24.9611 3.01967L24.0634 3.91728C22.9219 3.23925 21.7024 2.73193 20.4195 2.40508V1.14151C20.4195 0.512244 19.9073 0 19.278 0H14.5755C13.9463 0 13.4341 0.512244 13.4341 1.14151V2.40498C12.1561 2.73183 10.9316 3.23914 9.79023 3.91717L8.89755 3.01957C8.44874 2.57569 7.72688 2.57569 7.2829 3.01957L3.95609 6.34638C3.51221 6.79026 3.51221 7.51715 3.95609 7.96102L4.8536 8.8537C4.17557 9.99522 3.66825 11.2196 3.3414 12.4976H2.07793C1.44866 12.4976 0.936523 13.0098 0.936523 13.639V18.3415C0.936523 18.9708 1.44866 19.4829 2.07793 19.4829H3.3414C3.66825 20.7659 4.17557 21.9854 4.8536 23.1268L3.95609 24.0243C3.51221 24.4682 3.51221 25.1902 3.95609 25.6341L7.2829 28.961C7.72678 29.4048 8.44874 29.4048 8.89755 28.961L9.79023 28.0633C10.9317 28.7414 12.1561 29.2487 13.4341 29.5755V30.839C13.4341 31.4683 13.9463 31.9805 14.5755 31.9805H16.317V35.4049H7.38032C6.26817 35.4049 5.36563 36.3073 5.36563 37.4195V39.0049C3.96071 39.2878 2.90224 40.5269 2.90224 42.0098C2.90224 43.7025 4.28274 45.083 5.9754 45.083C7.66806 45.083 9.04373 43.7025 9.04373 42.0098C9.04373 40.5269 7.98516 39.2878 6.58516 39.0049V37.4195C6.58516 36.9805 6.94127 36.6244 7.38032 36.6244H16.317V43.922C14.917 44.2097 13.8584 45.4488 13.8584 46.9268C13.8584 48.6244 15.2341 50 16.9316 50C18.6194 50 19.995 48.6244 19.995 46.9268C19.995 45.4439 18.9364 44.2049 17.5364 43.922V36.6244H26.473C26.9121 36.6244 27.2682 36.9805 27.2682 37.4195V39.0049C25.8682 39.2878 24.8096 40.5269 24.8096 42.0098C24.8096 43.7025 26.1901 45.083 27.8828 45.083C29.5755 45.083 30.9511 43.7025 30.9511 42.0098C30.9511 40.5269 29.8925 39.2878 28.4877 39.0049V37.4195C28.4877 36.3074 27.5853 35.4049 26.473 35.4049H17.5366V31.9805H19.2781C19.9074 31.9805 20.4196 31.4683 20.4196 30.839V29.5755C21.7025 29.2487 22.922 28.7414 24.0635 28.0633L24.9612 28.961C25.405 29.4048 26.127 29.4048 26.5709 28.961L29.8977 25.6341C30.3416 25.1903 30.3416 24.4683 29.8977 24.0243L29.0001 23.1268C29.6781 21.9853 30.1854 20.7658 30.5123 19.4829H31.7757C32.405 19.4829 32.9173 18.9708 32.9173 18.3415V13.639C32.9172 13.0099 32.4049 12.4977 31.7756 12.4977ZM31.6976 18.2636H30.0342C29.7465 18.2636 29.4976 18.4636 29.4342 18.7416C29.1123 20.2148 28.5366 21.6099 27.7171 22.888C27.561 23.132 27.5952 23.4441 27.8001 23.649L28.9756 24.8295L25.7659 28.0393L24.5853 26.8637C24.3804 26.6588 24.0633 26.6248 23.8244 26.7808C22.5463 27.6003 21.1512 28.176 19.678 28.5028C19.3999 28.5613 19.1999 28.8102 19.1999 29.0979V30.7613H14.6536V29.0979C14.6536 28.8102 14.4536 28.5613 14.1755 28.5028C12.7023 28.176 11.3072 27.6004 10.0291 26.7808C9.79012 26.6247 9.47303 26.6588 9.26813 26.8637L8.09253 28.0393L4.87792 24.8295L6.05352 23.649C6.25842 23.4441 6.2925 23.132 6.13646 22.888C5.3218 21.61 4.74139 20.2148 4.41937 18.7416C4.35593 18.4636 4.1072 18.2636 3.82428 18.2636H2.15595V13.7172H3.82428C4.1072 13.7172 4.35593 13.5173 4.41937 13.2392C4.74129 11.766 5.3218 10.3709 6.13646 9.09278C6.2926 8.85381 6.25842 8.53671 6.05352 8.33181L4.87792 7.15622L8.09253 3.94161L9.26813 5.1172C9.47303 5.3221 9.79012 5.35618 10.0291 5.20014C11.3071 4.38548 12.7023 3.80497 14.1755 3.48305C14.4536 3.41961 14.6536 3.17088 14.6536 2.88797V1.21953H19.1999V2.88786C19.1999 3.17078 19.3999 3.41951 19.678 3.48295C21.1512 3.80487 22.5462 4.38538 23.8244 5.20004C24.0683 5.35618 24.3804 5.32199 24.5853 5.1171L25.7659 3.9415L28.9805 7.15611L27.8 8.33171C27.5951 8.53661 27.561 8.8537 27.717 9.09268C28.5365 10.3707 29.1122 11.7659 29.4341 13.2391C29.4975 13.5172 29.7463 13.7171 30.0341 13.7171H31.6975V18.2636H31.6976Z" fill="#EF5226"/>
<path d="M16.927 7.28296C12.127 7.28296 8.21973 11.1903 8.21973 15.9903C8.21973 20.0049 10.9368 23.4781 14.8295 24.4391C20.1271 25.7757 25.6345 21.8293 25.6345 15.9903C25.6344 11.1903 21.727 7.28296 16.927 7.28296ZM15.1222 23.2538C11.7759 22.4294 9.43926 19.444 9.43926 15.9903C9.43926 11.8634 12.8003 8.50249 16.927 8.50249C21.0538 8.50249 24.4148 11.8635 24.4148 15.9903C24.4148 20.9562 19.732 24.4148 15.1222 23.2538Z" fill="#EF5226"/>
</svg>
