<svg width="50" height="50" viewBox="0 0 50 50" fill="none" xmlns="http://www.w3.org/2000/svg">
<path d="M8.3333 13.5417C5.46144 13.5417 3.125 11.2052 3.125 8.33333C3.125 5.46146 5.46144 3.125 8.3333 3.125C11.2052 3.125 13.5416 5.46146 13.5416 8.33333C13.5416 11.2052 11.2052 13.5417 8.3333 13.5417ZM8.3333 5.20833C6.61039 5.20833 5.20832 6.61041 5.20832 8.33333C5.20832 10.0562 6.61039 11.4583 8.3333 11.4583C10.0562 11.4583 11.4583 10.0562 11.4583 8.33333C11.4583 6.61041 10.0562 5.20833 8.3333 5.20833Z" fill="#EF5226"/>
<path d="M4.16664 9.37508H1.04166C0.466664 9.37508 0 8.90841 0 8.33341C0 7.75841 0.466664 7.29175 1.04166 7.29175H4.16664C4.74163 7.29175 5.2083 7.75841 5.2083 8.33341C5.2083 8.90841 4.74163 9.37508 4.16664 9.37508Z" fill="#EF5226"/>
<path d="M15.6256 9.37508H12.5006C11.9256 9.37508 11.459 8.90841 11.459 8.33341C11.459 7.75841 11.9256 7.29175 12.5006 7.29175H15.6256C16.2006 7.29175 16.6673 7.75841 16.6673 8.33341C16.6673 8.90841 16.2006 9.37508 15.6256 9.37508Z" fill="#EF5226"/>
<path d="M5.38702 6.42822C5.12036 6.42822 4.85369 6.32614 4.65057 6.12301L2.44121 3.91364C2.03392 3.50635 2.03392 2.84801 2.44121 2.44072C2.8485 2.03343 3.50683 2.03343 3.91412 2.44072L6.12348 4.6501C6.53077 5.05739 6.53077 5.71572 6.12348 6.12301C5.92035 6.32718 5.65369 6.42822 5.38702 6.42822Z" fill="#EF5226"/>
<path d="M13.4905 14.5312C13.2239 14.5312 12.9572 14.4292 12.7541 14.226L10.5447 12.0167C10.1374 11.6094 10.1374 10.951 10.5447 10.5437C10.952 10.1365 11.6103 10.1365 12.0176 10.5437L14.227 12.7531C14.6343 13.1604 14.6343 13.8187 14.227 14.226C14.0228 14.4292 13.7572 14.5312 13.4905 14.5312Z" fill="#EF5226"/>
<path d="M8.33268 5.20833C7.75768 5.20833 7.29102 4.74166 7.29102 4.16666V1.04167C7.29102 0.466666 7.75768 0 8.33268 0C8.90767 0 9.37434 0.466666 9.37434 1.04167V4.16666C9.37434 4.74166 8.90767 5.20833 8.33268 5.20833Z" fill="#EF5226"/>
<path d="M8.33268 16.6666C7.75768 16.6666 7.29102 16.1999 7.29102 15.6249V12.4999C7.29102 11.9249 7.75768 11.4583 8.33268 11.4583C8.90767 11.4583 9.37434 11.9249 9.37434 12.4999V15.6249C9.37434 16.1999 8.90767 16.6666 8.33268 16.6666Z" fill="#EF5226"/>
<path d="M11.2812 6.42822C11.0145 6.42822 10.7478 6.32614 10.5447 6.12301C10.1374 5.71572 10.1374 5.05739 10.5447 4.6501L12.7541 2.44072C13.1614 2.03343 13.8197 2.03343 14.227 2.44072C14.6343 2.84801 14.6343 3.50635 14.227 3.91364L12.0176 6.12301C11.8135 6.32718 11.5468 6.42822 11.2812 6.42822Z" fill="#EF5226"/>
<path d="M3.17766 14.5312C2.911 14.5312 2.64433 14.4292 2.44121 14.226C2.03392 13.8187 2.03392 13.1604 2.44121 12.7531L4.65057 10.5437C5.05786 10.1365 5.71619 10.1365 6.12348 10.5437C6.53077 10.951 6.53077 11.6094 6.12348 12.0167L3.91412 14.226C3.71099 14.4292 3.44433 14.5312 3.17766 14.5312Z" fill="#EF5226"/>
<path d="M48.9579 3.125H34.3747C33.7997 3.125 33.333 3.59167 33.333 4.16667V14.5833C33.333 15.1583 33.7997 15.625 34.3747 15.625H48.9579C49.5329 15.625 49.9996 15.1583 49.9996 14.5833V4.16667C49.9996 3.59167 49.5329 3.125 48.9579 3.125Z" fill="#EF5226"/>
<path d="M39.5827 8.33333C39.0077 8.33333 38.541 7.86666 38.541 7.29166V1.04167C38.541 0.466666 39.0077 0 39.5827 0C40.1577 0 40.6243 0.466666 40.6243 1.04167V7.29166C40.6243 7.86666 40.1577 8.33333 39.5827 8.33333Z" fill="#EF5226"/>
<path d="M43.7497 8.33333C43.1747 8.33333 42.708 7.86666 42.708 7.29166V1.04167C42.708 0.466666 43.1747 0 43.7497 0C44.3247 0 44.7913 0.466666 44.7913 1.04167V7.29166C44.7913 7.86666 44.3247 8.33333 43.7497 8.33333Z" fill="#EF5226"/>
<path d="M24.9993 23.9584C27.8758 23.9584 30.2076 21.6266 30.2076 18.7501C30.2076 15.8736 27.8758 13.5417 24.9993 13.5417C22.1228 13.5417 19.791 15.8736 19.791 18.7501C19.791 21.6266 22.1228 23.9584 24.9993 23.9584Z" fill="#EF5226"/>
<path d="M31.2506 26.0416H18.7506C18.1756 26.0416 17.709 26.5083 17.709 27.0833V35.4166C17.709 35.9916 18.1756 36.4583 18.7506 36.4583H31.2506C31.8256 36.4583 32.2922 35.9916 32.2922 35.4166V27.0833C32.2922 26.5083 31.8256 26.0416 31.2506 26.0416Z" fill="#EF5226"/>
<path d="M48.9579 36.4583H34.3747C33.7997 36.4583 33.333 36.9249 33.333 37.4999V45.8332C33.333 46.4082 33.7997 46.8749 34.3747 46.8749H48.9579C49.5329 46.8749 49.9996 46.4082 49.9996 45.8332V37.4999C49.9996 36.9249 49.5329 36.4583 48.9579 36.4583Z" fill="#EF5226"/>
<path d="M41.6667 50C41.0917 50 40.625 49.5333 40.625 48.9583V45.8333C40.625 45.2583 41.0917 44.7916 41.6667 44.7916C42.2417 44.7916 42.7083 45.2583 42.7083 45.8333V48.9583C42.7083 49.5333 42.2417 50 41.6667 50Z" fill="#EF5226"/>
<path d="M43.7493 50H39.5827C39.0077 50 38.541 49.5333 38.541 48.9583C38.541 48.3833 39.0077 47.9166 39.5827 47.9166H43.7493C44.3243 47.9166 44.791 48.3833 44.791 48.9583C44.791 49.5333 44.3243 50 43.7493 50Z" fill="#EF5226"/>
<path d="M8.33328 33.3333C3.73852 33.3333 0 37.0718 0 41.6666C0 46.2614 3.73852 49.9999 8.33328 49.9999C12.928 49.9999 16.6666 46.2614 16.6666 41.6666C16.6666 37.0718 12.928 33.3333 8.33328 33.3333ZM9.37494 41.6666C9.37494 42.2416 8.90827 42.7082 8.33328 42.7082H5.2083C4.6333 42.7082 4.16664 42.2416 4.16664 41.6666C4.16664 41.0916 4.6333 40.6249 5.2083 40.6249H7.29162V38.5416C7.29162 37.9666 7.75828 37.4999 8.33328 37.4999C8.90827 37.4999 9.37494 37.9666 9.37494 38.5416V41.6666Z" fill="#EF5226"/>
<path d="M8.33268 29.1667C7.75768 29.1667 7.29102 28.7 7.29102 28.125V19.7917C7.29102 19.2167 7.75768 18.75 8.33268 18.75C8.90767 18.75 9.37434 19.2167 9.37434 19.7917V28.125C9.37434 28.7 8.90767 29.1667 8.33268 29.1667Z" fill="#EF5226"/>
<path d="M41.6667 34.3749C41.0917 34.3749 40.625 33.9082 40.625 33.3332V18.7499C40.625 18.1749 41.0917 17.7083 41.6667 17.7083C42.2417 17.7083 42.7083 18.1749 42.7083 18.7499V33.3332C42.7083 33.9082 42.2417 34.3749 41.6667 34.3749Z" fill="#EF5226"/>
<path d="M30.2076 42.7083H20.8327C20.2577 42.7083 19.791 42.2417 19.791 41.6667C19.791 41.0917 20.2577 40.625 20.8327 40.625H30.2076C30.7826 40.625 31.2493 41.0917 31.2493 41.6667C31.2493 42.2417 30.7826 42.7083 30.2076 42.7083Z" fill="#EF5226"/>
<path d="M30.2083 9.37508H19.7917C19.2167 9.37508 18.75 8.90841 18.75 8.33341C18.75 7.75841 19.2167 7.29175 19.7917 7.29175H30.2083C30.7833 7.29175 31.2499 7.75841 31.2499 8.33341C31.2499 8.90841 30.7833 9.37508 30.2083 9.37508Z" fill="#EF5226"/>
</svg>
