<svg width="49" height="50" viewBox="0 0 49 50" fill="none" xmlns="http://www.w3.org/2000/svg">
<path fill-rule="evenodd" clip-rule="evenodd" d="M19.0884 40.2661H24.4009H29.7134C30.0143 40.2661 30.2574 40.5092 30.2574 40.8101C30.2574 40.9258 30.2226 41.03 30.1648 41.111C29.5976 42.0485 29.343 43.0323 29.2967 43.9582C29.2388 45.0346 29.4819 46.03 29.8754 46.736C30.0259 47.0022 29.9217 47.3263 29.6671 47.4768C29.5861 47.5231 29.4935 47.5462 29.4009 47.5462H19.4009C19.1 47.5462 18.8569 47.3031 18.8569 47.0022C18.8569 46.8865 18.8916 46.7823 18.9495 46.7013C19.3314 45.9953 19.5629 45.0231 19.5166 43.9582C19.4703 43.0323 19.2041 42.0369 18.637 41.0879C18.4865 40.8332 18.5675 40.4976 18.8222 40.3471C18.8916 40.2893 18.9958 40.2661 19.0884 40.2661Z" fill="#FAC5B7"/>
<path fill-rule="evenodd" clip-rule="evenodd" d="M41.1144 9.6991H42.7232H44.7139C45.7208 9.6991 46.6352 10.1158 47.2949 10.7755C47.9546 11.4352 48.3713 12.3496 48.3713 13.3565V37.7084C48.3713 38.7153 47.9662 39.6297 47.2949 40.2894C47.2834 40.3009 47.2718 40.3125 47.2602 40.3241C46.6005 40.9722 45.6977 41.3658 44.7139 41.3658H4.07733C3.07038 41.3658 2.15603 40.9607 1.49631 40.2894C0.836589 39.6297 0.419922 38.7153 0.419922 37.7084V13.3565C0.419922 12.3496 0.825015 11.4352 1.49631 10.7755C1.50789 10.7639 1.51946 10.7523 1.53103 10.7408C2.19076 10.0926 3.09353 9.6991 4.07733 9.6991H27.4107H33.1861H41.1144Z" fill="#EF5226"/>
<path d="M33.1861 10.787H27.4106H4.07726C3.38281 10.787 2.75781 11.0648 2.28328 11.5162C2.2717 11.5277 2.2717 11.5277 2.26013 11.5393C1.79716 12.0023 1.50781 12.6504 1.50781 13.3564V37.7083C1.50781 38.4143 1.79716 39.0509 2.26013 39.5254C2.72309 39.9884 3.37124 40.2777 4.07726 40.2777H44.7138C45.4083 40.2777 46.0448 40 46.5078 39.5486C46.5194 39.537 46.5194 39.537 46.531 39.5254C46.9939 39.0625 47.2833 38.4143 47.2833 37.7083V13.3564C47.2833 12.6504 46.9939 12.0138 46.531 11.5393C46.068 11.0763 45.4198 10.787 44.7138 10.787H42.7231H41.1143H33.1861Z" fill="white"/>
<path fill-rule="evenodd" clip-rule="evenodd" d="M1.50781 23.3912V37.6967C1.50781 38.4028 1.79716 39.0393 2.26013 39.5139C2.72309 39.9768 3.37124 40.2662 4.07726 40.2662H17.5726C17.6421 40.0926 17.7115 39.919 17.781 39.7338C17.8967 39.4213 18.0009 39.1088 18.0819 38.7847H22.5148C22.9198 38.7847 23.2902 38.6227 23.568 38.3449C23.8342 38.0787 24.0078 37.7083 24.0078 37.2916V33.4259C24.0078 33.0208 23.8458 32.6504 23.568 32.3727C23.3018 32.1065 22.9314 31.9328 22.5148 31.9328H18.0819C17.943 31.4352 17.781 30.9491 17.5842 30.4745C17.3874 30 17.156 29.537 16.9129 29.0856L20.0495 25.9491C20.3388 25.6597 20.4893 25.2778 20.4893 24.8958C20.4893 24.5139 20.3388 24.1319 20.0495 23.8426L17.3064 21.1458C17.0171 20.8565 16.6351 20.706 16.2532 20.706C15.8944 20.706 15.524 20.8333 15.2347 21.1111C15.2231 21.1227 15.2115 21.1342 15.1999 21.1458L12.0634 24.2824C11.6236 24.0393 11.1722 23.8194 10.7092 23.6227L10.6861 23.6111C10.2115 23.4143 9.7254 23.2523 9.22772 23.1134V18.669C9.22772 18.2639 9.06568 17.8935 8.7879 17.6157C8.5217 17.3495 8.15133 17.1759 7.73466 17.1759H3.89207C3.48698 17.1759 3.11661 17.3379 2.83883 17.6157C2.57263 17.8819 2.39902 18.2523 2.39902 18.669V23.1018C2.19068 23.1597 1.97078 23.2291 1.76244 23.2986C1.68142 23.3333 1.60041 23.3565 1.50781 23.3912Z" fill="#F27551"/>
<path fill-rule="evenodd" clip-rule="evenodd" d="M1.50781 27.0139V37.6968C1.50781 38.4028 1.79716 39.0394 2.26013 39.5139C2.72309 39.9769 3.37124 40.2662 4.07726 40.2662H13.8458C13.9615 40.0811 14.0657 39.8959 14.1583 39.7107C14.8527 38.3681 15.2231 36.8866 15.2231 35.3704C15.2231 32.8704 14.2393 30.4862 12.4685 28.7153C10.6976 26.9445 8.32494 25.9607 5.82494 25.9607C4.52865 25.9607 3.2555 26.2269 2.07494 26.7362C1.87818 26.8288 1.693 26.9213 1.50781 27.0139Z" fill="#D94B23"/>
<path d="M1.50781 29.6296V37.7083C1.50781 38.4144 1.79716 39.0509 2.26013 39.5255C2.72309 39.9884 3.37124 40.2778 4.07726 40.2778H11.068C11.5078 39.8033 11.8898 39.2708 12.1907 38.6921C12.7115 37.6968 13.0009 36.5741 13.0009 35.382C13.0009 33.4028 12.2023 31.6088 10.8944 30.3009C9.59809 29.0046 7.79253 28.1945 5.81337 28.1945C4.79485 28.1945 3.8342 28.4028 2.95457 28.7847C2.44531 29.0046 1.9592 29.294 1.50781 29.6296Z" fill="white"/>
<path fill-rule="evenodd" clip-rule="evenodd" d="M18.7181 46.4584H30.0838C30.57 46.4584 31.0098 46.6551 31.3338 46.9792L31.3686 47.0139C31.6695 47.338 31.8547 47.7662 31.8547 48.2292C31.8547 48.7153 31.6579 49.1551 31.3338 49.4792C31.0098 49.8033 30.57 50 30.0838 50H18.7181C18.232 50 17.7922 49.8033 17.4681 49.4792C17.144 49.1551 16.9473 48.7153 16.9473 48.2292C16.9473 47.7431 17.144 47.3033 17.4681 46.9792C17.7922 46.6667 18.232 46.4584 18.7181 46.4584Z" fill="#EF5226"/>
<path fill-rule="evenodd" clip-rule="evenodd" d="M30.211 37.6967C29.91 37.6967 29.667 37.4537 29.667 37.1527C29.667 36.8518 29.91 36.6088 30.211 36.6088H39.91C40.211 36.6088 40.454 36.8518 40.454 37.1527C40.454 37.4537 40.211 37.6967 39.91 37.6967H30.211Z" fill="#AA3A1B"/>
<path fill-rule="evenodd" clip-rule="evenodd" d="M10.4424 11.6666H13.9957C14.2966 11.6666 14.5396 11.9097 14.5396 12.2106V15.7638C14.5396 16.0648 14.2966 16.3078 13.9957 16.3078H10.4424C10.1415 16.3078 9.89844 16.0648 9.89844 15.7638V12.2106C9.89844 11.9097 10.1415 11.6666 10.4424 11.6666Z" fill="#EF5226"/>
<path fill-rule="evenodd" clip-rule="evenodd" d="M16.0909 13.044C15.7899 13.044 15.5469 12.801 15.5469 12.5C15.5469 12.1991 15.7899 11.9561 16.0909 11.9561H23.1163C23.4172 11.9561 23.6603 12.1991 23.6603 12.5C23.6603 12.801 23.4172 13.044 23.1163 13.044H16.0909Z" fill="#AA3A1B"/>
<path fill-rule="evenodd" clip-rule="evenodd" d="M16.0909 16.0185C15.7899 16.0185 15.5469 15.7754 15.5469 15.4745C15.5469 15.1736 15.7899 14.9305 16.0909 14.9305H23.1163C23.4172 14.9305 23.6603 15.1736 23.6603 15.4745C23.6603 15.7754 23.4172 16.0185 23.1163 16.0185H16.0909Z" fill="#AA3A1B"/>
<path fill-rule="evenodd" clip-rule="evenodd" d="M29.2278 29.8148H25.2579C24.9569 29.8148 24.7139 29.5718 24.7139 29.2708V17.6736C24.7139 17.3727 24.9569 17.1296 25.2579 17.1296H29.2278C29.5287 17.1296 29.7717 17.3727 29.7717 17.6736V29.2708C29.7602 29.5718 29.5171 29.8148 29.2278 29.8148Z" fill="#8CD7E8"/>
<path fill-rule="evenodd" clip-rule="evenodd" d="M33.1859 29.8148H29.2276C28.9267 29.8148 28.6836 29.5718 28.6836 29.2708V15.2315C28.6836 14.9306 28.9267 14.6875 29.2276 14.6875H33.1975C33.4984 14.6875 33.7415 14.9306 33.7415 15.2315V29.2708C33.7299 29.5718 33.4868 29.8148 33.1859 29.8148Z" fill="#58C4DD"/>
<path fill-rule="evenodd" clip-rule="evenodd" d="M26.1494 34.7685C25.8485 34.7685 25.6055 34.5254 25.6055 34.2245C25.6055 33.9236 25.8485 33.6805 26.1494 33.6805H43.9735C44.2744 33.6805 44.5175 33.9236 44.5175 34.2245C44.5175 34.5254 44.2744 34.7685 43.9735 34.7685H26.1494Z" fill="#AA3A1B"/>
<path fill-rule="evenodd" clip-rule="evenodd" d="M37.1555 29.8148H33.1856C32.8847 29.8148 32.6416 29.5717 32.6416 29.2708V5.0347C32.6416 4.73378 32.8847 4.49072 33.1856 4.49072H37.1555C37.4564 4.49072 37.6995 4.73378 37.6995 5.0347V29.2592C37.6879 29.5717 37.4448 29.8148 37.1555 29.8148Z" fill="#37B9D6"/>
<path fill-rule="evenodd" clip-rule="evenodd" d="M41.1145 29.8148H37.1446C36.8436 29.8148 36.6006 29.5718 36.6006 29.2708V0.543982C36.6006 0.243056 36.8436 0 37.1446 0H41.1145C41.4154 0 41.6585 0.243056 41.6585 0.543982V29.2593C41.6585 29.5718 41.4154 29.8148 41.1145 29.8148Z" fill="#05A7CC"/>
<path fill-rule="evenodd" clip-rule="evenodd" d="M23.9961 29.2708C23.9961 28.9699 24.2391 28.7268 24.5401 28.7268C24.841 28.7268 25.0841 28.9699 25.0841 29.2708V30.5787C25.0841 30.8796 24.841 31.1226 24.5401 31.1226C24.2391 31.1226 23.9961 30.8796 23.9961 30.5787V29.2708Z" fill="#FCE2DB"/>
<path fill-rule="evenodd" clip-rule="evenodd" d="M26.1602 29.2708C26.1602 28.9699 26.4032 28.7268 26.7041 28.7268C27.0051 28.7268 27.2481 28.9699 27.2481 29.2708V30.5787C27.2481 30.8796 27.0051 31.1226 26.7041 31.1226C26.4032 31.1226 26.1602 30.8796 26.1602 30.5787V29.2708Z" fill="#FCE2DB"/>
<path fill-rule="evenodd" clip-rule="evenodd" d="M28.3242 29.2708C28.3242 28.9699 28.5673 28.7268 28.8682 28.7268C29.1691 28.7268 29.4122 28.9699 29.4122 29.2708V30.5787C29.4122 30.8796 29.1691 31.1226 28.8682 31.1226C28.5673 31.1226 28.3242 30.8796 28.3242 30.5787V29.2708Z" fill="#FCE2DB"/>
<path fill-rule="evenodd" clip-rule="evenodd" d="M30.4775 29.2708C30.4775 28.9699 30.7206 28.7268 31.0215 28.7268C31.3224 28.7268 31.5655 28.9699 31.5655 29.2708V30.5787C31.5655 30.8796 31.3224 31.1226 31.0215 31.1226C30.7206 31.1226 30.4775 30.8796 30.4775 30.5787V29.2708Z" fill="#FCE2DB"/>
<path fill-rule="evenodd" clip-rule="evenodd" d="M32.6416 29.2708C32.6416 28.9699 32.8847 28.7268 33.1856 28.7268C33.4865 28.7268 33.7296 28.9699 33.7296 29.2708V30.5787C33.7296 30.8796 33.4865 31.1226 33.1856 31.1226C32.8847 31.1226 32.6416 30.8796 32.6416 30.5787V29.2708Z" fill="#FCE2DB"/>
<path fill-rule="evenodd" clip-rule="evenodd" d="M34.8066 29.2708C34.8066 28.9699 35.0497 28.7268 35.3506 28.7268C35.6515 28.7268 35.8946 28.9699 35.8946 29.2708V30.5787C35.8946 30.8796 35.6515 31.1226 35.3506 31.1226C35.0497 31.1226 34.8066 30.8796 34.8066 30.5787V29.2708Z" fill="#FCE2DB"/>
<path fill-rule="evenodd" clip-rule="evenodd" d="M36.9707 29.2708C36.9707 28.9699 37.2138 28.7268 37.5147 28.7268C37.8156 28.7268 38.0587 28.9699 38.0587 29.2708V30.5787C38.0587 30.8796 37.8156 31.1226 37.5147 31.1226C37.2138 31.1226 36.9707 30.8796 36.9707 30.5787V29.2708Z" fill="#FCE2DB"/>
<path fill-rule="evenodd" clip-rule="evenodd" d="M39.124 29.2708C39.124 28.9699 39.3671 28.7268 39.668 28.7268C39.9689 28.7268 40.212 28.9699 40.212 29.2708V30.5787C40.212 30.8796 39.9689 31.1226 39.668 31.1226C39.3671 31.1226 39.124 30.8796 39.124 30.5787V29.2708Z" fill="#FCE2DB"/>
<path fill-rule="evenodd" clip-rule="evenodd" d="M41.2881 29.2708C41.2881 28.9699 41.5311 28.7268 41.8321 28.7268C42.133 28.7268 42.376 28.9699 42.376 29.2708V30.5787C42.376 30.8796 42.133 31.1226 41.8321 31.1226C41.5311 31.1226 41.2881 30.8796 41.2881 30.5787V29.2708Z" fill="#FCE2DB"/>
<path fill-rule="evenodd" clip-rule="evenodd" d="M43.4401 12.0833C43.4401 11.7824 43.6832 11.5393 43.9841 11.5393C44.285 11.5393 44.5281 11.7824 44.5281 12.0833V29.2592C44.5281 29.5601 44.285 29.8032 43.9841 29.8032H22.3985C22.0975 29.8032 21.8545 29.5601 21.8545 29.2592C21.8545 28.9583 22.0975 28.7152 22.3985 28.7152H43.4401V12.0833Z" fill="#E13E11"/>
</svg>
