<svg width="51" height="50" viewBox="0 0 51 50" fill="none" xmlns="http://www.w3.org/2000/svg">
<path d="M17.669 18.1108H24.564V20.6964H15.0834C14.8548 20.6964 14.6356 20.7873 14.474 20.9489C14.3124 21.1105 14.2215 21.3297 14.2215 21.5583V24.2301C13.1752 24.4437 12.2454 25.0382 11.6125 25.8983C10.9796 26.7585 10.6886 27.823 10.7959 28.8855C10.9032 29.948 11.4013 30.9328 12.1934 31.649C12.9856 32.3652 14.0155 32.7617 15.0834 32.7617C16.1513 32.7617 17.1812 32.3652 17.9734 31.649C18.7656 30.9328 19.2636 29.948 19.3709 28.8855C19.4783 27.823 19.1873 26.7585 18.5543 25.8983C17.9214 25.0382 16.9916 24.4437 15.9453 24.2301V22.4202H24.564V24.2301C23.5176 24.4437 22.5879 25.0382 21.9549 25.8983C21.322 26.7585 21.031 27.823 21.1383 28.8855C21.2457 29.948 21.7437 30.9328 22.5359 31.649C23.328 32.3652 24.3579 32.7617 25.4258 32.7617C26.4938 32.7617 27.5237 32.3652 28.3158 31.649C29.108 30.9328 29.606 29.948 29.7134 28.8855C29.8207 27.823 29.5297 26.7585 28.8968 25.8983C28.2638 25.0382 27.3341 24.4437 26.2877 24.2301V22.4202H34.9064V24.2301C33.8601 24.4437 32.9303 25.0382 32.2974 25.8983C31.6644 26.7585 31.3734 27.823 31.4808 28.8855C31.5881 29.948 32.0861 30.9328 32.8783 31.649C33.6705 32.3652 34.7004 32.7617 35.7683 32.7617C36.8362 32.7617 37.8661 32.3652 38.6583 31.649C39.4504 30.9328 39.9485 29.948 40.0558 28.8855C40.1631 27.823 39.8721 26.7585 39.2392 25.8983C38.6063 25.0382 37.6765 24.4437 36.6301 24.2301V21.5583C36.6301 21.3297 36.5393 21.1105 36.3777 20.9489C36.2161 20.7873 35.9969 20.6964 35.7683 20.6964H26.2877V18.1108H33.1827C34.5551 18.1089 35.8958 17.6979 37.0336 16.9303C38.1713 16.1627 39.0544 15.0734 39.57 13.8015H46.9726V35.3482H3.87912V13.8015H11.2817C11.7973 15.0734 12.6804 16.1627 13.8181 16.9303C14.9559 17.6979 16.2966 18.1089 17.669 18.1108ZM23.7021 9.49215H22.6351L25.4258 7.1651L28.2166 9.49215H27.1496C26.921 9.49215 26.7018 9.58295 26.5402 9.74458C26.3785 9.90622 26.2877 10.1254 26.2877 10.354V16.3871H24.564V10.354C24.564 10.1254 24.4732 9.90622 24.3115 9.74458C24.1499 9.58295 23.9307 9.49215 23.7021 9.49215ZM15.0834 25.8677C15.5948 25.8677 16.0947 26.0193 16.5199 26.3034C16.9451 26.5875 17.2765 26.9913 17.4722 27.4638C17.6679 27.9363 17.7191 28.4561 17.6193 28.9577C17.5196 29.4593 17.2733 29.92 16.9117 30.2816C16.5501 30.6432 16.0894 30.8894 15.5878 30.9892C15.0863 31.089 14.5664 31.0378 14.0939 30.8421C13.6215 30.6464 13.2177 30.315 12.9336 29.8898C12.6495 29.4646 12.4978 28.9647 12.4978 28.4533C12.4978 27.7675 12.7702 27.1099 13.2551 26.625C13.74 26.1401 14.3977 25.8677 15.0834 25.8677ZM25.4258 25.8677C25.9372 25.8677 26.4371 26.0193 26.8623 26.3034C27.2875 26.5875 27.6189 26.9913 27.8146 27.4638C28.0103 27.9363 28.0615 28.4561 27.9618 28.9577C27.862 29.4593 27.6158 29.92 27.2541 30.2816C26.8925 30.6432 26.4318 30.8894 25.9303 30.9892C25.4287 31.089 24.9088 31.0378 24.4364 30.8421C23.9639 30.6464 23.5601 30.315 23.276 29.8898C22.9919 29.4646 22.8402 28.9647 22.8402 28.4533C22.8402 27.7675 23.1127 27.1099 23.5975 26.625C24.0824 26.1401 24.7401 25.8677 25.4258 25.8677ZM35.7683 25.8677C36.2797 25.8677 36.7796 26.0193 37.2048 26.3034C37.63 26.5875 37.9614 26.9913 38.1571 27.4638C38.3528 27.9363 38.404 28.4561 38.3042 28.9577C38.2044 29.4593 37.9582 29.92 37.5966 30.2816C37.235 30.6432 36.7743 30.8894 36.2727 30.9892C35.7711 31.089 35.2513 31.0378 34.7788 30.8421C34.3064 30.6464 33.9025 30.315 33.6184 29.8898C33.3343 29.4646 33.1827 28.9647 33.1827 28.4533C33.1827 27.7675 33.4551 27.1099 33.94 26.625C34.4249 26.1401 35.0825 25.8677 35.7683 25.8677ZM17.738 6.04467C17.9528 6.07606 18.1715 6.02525 18.3505 5.90237C18.5294 5.7795 18.6554 5.59363 18.7033 5.38189C19.0469 3.85433 19.9001 2.48919 21.1227 1.51105C22.3453 0.532903 23.8644 0 25.4302 0C26.9959 0 28.515 0.532903 29.7376 1.51105C30.9602 2.48919 31.8135 3.85433 32.157 5.38189C32.221 5.59646 32.3594 5.78114 32.5475 5.90265C32.7355 6.02417 32.9608 6.07453 33.1827 6.04467C34.5542 6.04467 35.8695 6.58949 36.8393 7.55929C37.8091 8.52908 38.3539 9.8444 38.3539 11.2159C38.3539 12.5874 37.8091 13.9027 36.8393 14.8725C35.8695 15.8423 34.5542 16.3871 33.1827 16.3871H28.0115V11.2159H30.5971C30.7742 11.216 30.9471 11.1615 31.0921 11.0598C31.2372 10.9582 31.3474 10.8143 31.4078 10.6478C31.4682 10.4813 31.4758 10.3002 31.4296 10.1292C31.3833 9.95816 31.2856 9.80555 31.1495 9.6921L25.9783 5.38276C25.8233 5.25331 25.6278 5.18241 25.4258 5.18241C25.2239 5.18241 25.0284 5.25331 24.8734 5.38276L19.7022 9.6921C19.5661 9.80555 19.4684 9.95816 19.4221 10.1292C19.3759 10.3002 19.3835 10.4813 19.4439 10.6478C19.5043 10.8143 19.6145 10.9582 19.7596 11.0598C19.9046 11.1615 20.0775 11.216 20.2546 11.2159H22.8402V16.3871H17.669C16.9899 16.3826 16.3184 16.2443 15.6927 15.9803C15.067 15.7162 14.4995 15.3315 14.0225 14.8481C13.5455 14.3647 13.1684 13.7921 12.9127 13.163C12.657 12.5338 12.5278 11.8605 12.5323 11.1814C12.5368 10.5023 12.6751 9.83077 12.9391 9.2051C13.2032 8.57943 13.5879 8.0119 14.0713 7.53491C14.5547 7.05792 15.1273 6.68081 15.7564 6.42511C16.3855 6.16942 17.0589 6.04014 17.738 6.04467ZM3.01725 10.354H10.8344C10.7545 10.9258 10.7545 11.506 10.8344 12.0778H3.01725C2.78867 12.0778 2.56945 12.1686 2.40781 12.3302C2.24618 12.4918 2.15538 12.711 2.15538 12.9396V36.2101C2.15538 36.4387 2.24618 36.6579 2.40781 36.8195C2.56945 36.9812 2.78867 37.072 3.01725 37.072H47.8344C48.063 37.072 48.2822 36.9812 48.4439 36.8195C48.6055 36.6579 48.6963 36.4387 48.6963 36.2101V12.9396C48.6963 12.711 48.6055 12.4918 48.4439 12.3302C48.2822 12.1686 48.063 12.0778 47.8344 12.0778H40.0182C40.098 11.506 40.098 10.9258 40.0182 10.354H47.8344C48.5202 10.354 49.1779 10.6264 49.6627 11.1113C50.1476 11.5962 50.4201 12.2539 50.4201 12.9396V38.7957H0.431641V12.9396C0.431641 12.2539 0.704052 11.5962 1.18895 11.1113C1.67384 10.6264 2.3315 10.354 3.01725 10.354ZM32.7371 50H18.1146L19.9607 45.6907H30.891L32.7371 50ZM47.8344 43.9669H3.01725C2.3315 43.9669 1.67384 43.6945 1.18895 43.2096C0.704052 42.7247 0.431641 42.0671 0.431641 41.3813V40.5194H50.4201V41.3813C50.4201 42.0671 50.1476 42.7247 49.6627 43.2096C49.1779 43.6945 48.5202 43.9669 47.8344 43.9669Z" fill="#EF5226"/>
</svg>
