<svg width="51" height="50" viewBox="0 0 51 50" fill="none" xmlns="http://www.w3.org/2000/svg">
<path d="M35.4075 27.5714H36.0861C36.3227 27.5707 36.5493 27.4764 36.7166 27.3091C36.8839 27.1418 36.9782 26.9151 36.9789 26.6785V23.3214C36.9782 23.0848 36.8839 22.8581 36.7166 22.6908C36.5493 22.5235 36.3227 22.4292 36.0861 22.4285C33.8678 22.7232 33.008 20.5806 34.7648 19.241C34.8475 19.1584 34.9132 19.0603 34.958 18.9523C35.0028 18.8443 35.0258 18.7285 35.0258 18.6115C35.0258 18.4946 35.0027 18.3788 34.9579 18.2708C34.9131 18.1628 34.8474 18.0647 34.7646 17.9821L32.3896 15.6071C32.3071 15.5243 32.2089 15.4586 32.1009 15.4138C31.9929 15.369 31.8771 15.3459 31.7602 15.3459C31.6432 15.3459 31.5274 15.369 31.4194 15.4138C31.3114 15.4586 31.2133 15.5243 31.1307 15.6071L30.6486 16.0893C30.4248 16.3062 30.1424 16.4528 29.8362 16.511C29.5301 16.5692 29.2136 16.5365 28.9258 16.4168C28.638 16.2972 28.3916 16.0958 28.217 15.8377C28.0424 15.5795 27.9473 15.2759 27.9433 14.9643L27.9432 14.2857C27.9425 14.0491 27.8482 13.8224 27.6809 13.6551C27.5136 13.4878 27.2869 13.3935 27.0504 13.3928H23.6932C23.4566 13.3935 23.2299 13.4878 23.0627 13.6551C22.8954 13.8224 22.8011 14.0491 22.8004 14.2857V14.9643C22.7964 15.2759 22.7012 15.5795 22.5266 15.8377C22.352 16.0958 22.1056 16.2971 21.8178 16.4168C21.53 16.5364 21.2135 16.5692 20.9073 16.5109C20.6012 16.4527 20.3188 16.3061 20.095 16.0892L19.6129 15.6071C19.5303 15.5243 19.4322 15.4586 19.3241 15.4138C19.2161 15.369 19.1003 15.3459 18.9834 15.3459C18.8665 15.3459 18.7507 15.369 18.6426 15.4138C18.5346 15.4586 18.4365 15.5243 18.3539 15.6071L15.9789 17.9821C15.8962 18.0647 15.8305 18.1628 15.7857 18.2708C15.7409 18.3788 15.7178 18.4946 15.7178 18.6116C15.7178 18.7285 15.7409 18.8443 15.7857 18.9523C15.8305 19.0603 15.8962 19.1584 15.9789 19.241L16.4611 19.7232C16.678 19.9469 16.8246 20.2294 16.8828 20.5355C16.9411 20.8417 16.9083 21.1582 16.7886 21.446C16.669 21.7338 16.4676 21.9802 16.2095 22.1548C15.9513 22.3294 15.6477 22.4246 15.336 22.4285H14.6575C14.4209 22.4292 14.1942 22.5235 14.0269 22.6908C13.8597 22.8581 13.7654 23.0848 13.7646 23.3214V26.6785C13.7654 26.9151 13.8597 27.1418 14.0269 27.3091C14.1942 27.4764 14.4209 27.5707 14.6575 27.5714H15.3361C15.6477 27.5753 15.9514 27.6705 16.2095 27.8451C16.4677 28.0197 16.669 28.2661 16.7887 28.5539C16.9084 28.8417 16.9411 29.1582 16.8829 29.4644C16.8247 29.7706 16.678 30.053 16.4611 30.2767L15.9789 30.7589C15.8962 30.8415 15.8305 30.9396 15.7857 31.0476C15.7409 31.1556 15.7178 31.2714 15.7178 31.3884C15.7178 31.5053 15.7409 31.6211 15.7857 31.7291C15.8305 31.8371 15.8962 31.9352 15.9789 32.0178L18.3539 34.3928C18.4365 34.4756 18.5346 34.5413 18.6426 34.5861C18.7507 34.6309 18.8665 34.654 18.9834 34.654C19.1003 34.654 19.2161 34.6309 19.3241 34.5861C19.4322 34.5413 19.5303 34.4756 19.6129 34.3928L20.095 33.9107C20.3188 33.6937 20.6012 33.5471 20.9073 33.4889C21.2135 33.4307 21.53 33.4634 21.8178 33.5831C22.1056 33.7028 22.352 33.9041 22.5266 34.1622C22.7012 34.4204 22.7963 34.724 22.8003 35.0357L22.8004 35.7142C22.8011 35.9508 22.8954 36.1775 23.0627 36.3448C23.2299 36.5121 23.4566 36.6064 23.6932 36.6071H27.0504C27.2869 36.6064 27.5136 36.5121 27.6809 36.3448C27.8482 36.1775 27.9425 35.9508 27.9432 35.7142C27.8795 34.8441 28.0122 33.9298 28.9164 33.5714C29.324 33.4371 29.765 33.4453 30.1673 33.5945C30.5696 33.7438 30.9093 34.0252 31.1306 34.3928C31.2132 34.4756 31.3114 34.5413 31.4194 34.5861C31.5274 34.6309 31.6432 34.654 31.7601 34.654C31.8771 34.654 31.9929 34.6309 32.1009 34.5861C32.2089 34.5413 32.307 34.4756 32.3896 34.3928L34.7646 32.0178C34.8474 31.9352 34.9131 31.8371 34.9579 31.7291C35.0027 31.6211 35.0258 31.5053 35.0258 31.3884C35.0258 31.2714 35.0027 31.1556 34.9579 31.0476C34.9131 30.9396 34.8474 30.8415 34.7646 30.7589L34.2825 30.2767C34.0653 30.0531 33.9185 29.7706 33.8601 29.4644C33.8018 29.1581 33.8345 28.8415 33.9542 28.5536C34.0739 28.2658 34.2754 28.0193 34.5337 27.8447C34.792 27.6702 35.0958 27.5751 35.4075 27.5714ZM25.3718 30.3571C18.2825 30.1008 18.2844 19.898 25.3719 19.6428C32.461 19.8991 32.4592 30.1019 25.3718 30.3571Z" fill="#EF5226"/>
<path d="M10.1935 25.8927H11.0864C11.3209 25.8892 11.5446 25.7936 11.7092 25.6266C11.8738 25.4595 11.9661 25.2344 11.9661 24.9998C11.966 24.7653 11.8738 24.5402 11.7092 24.3731C11.5446 24.2061 11.3208 24.1105 11.0863 24.107H10.1935C9.72034 24.1056 9.26695 23.917 8.93236 23.5825C8.59778 23.2479 8.40919 22.7945 8.4078 22.3213V12.4999C8.40579 12.135 8.32976 11.7743 8.1843 11.4396C8.03883 11.1049 7.82697 10.8032 7.56153 10.5528C7.29609 10.3024 6.9826 10.1085 6.64002 9.98272C6.29745 9.85698 5.93293 9.80207 5.56852 9.82131C5.35794 9.22659 4.94394 8.72544 4.39965 8.40641C3.85537 8.08737 3.21583 7.97099 2.59405 8.07782C1.97226 8.18465 1.40825 8.50781 1.00166 8.99022C0.595066 9.47262 0.37207 10.0832 0.37207 10.7141C0.37207 11.345 0.595066 11.9556 1.00166 12.438C1.40825 12.9204 1.97226 13.2436 2.59405 13.3504C3.21583 13.4572 3.85537 13.3408 4.39965 13.0218C4.94394 12.7028 5.35794 12.2016 5.56852 11.6069C5.69777 11.5881 5.82955 11.5969 5.95511 11.6329C6.08067 11.6689 6.19714 11.7312 6.29678 11.8157C6.39642 11.9001 6.47696 12.0048 6.53305 12.1228C6.58913 12.2407 6.61948 12.3693 6.62209 12.4999V22.3213C6.6218 22.8285 6.73 23.33 6.93944 23.792C7.14887 24.2539 7.45469 24.6658 7.83637 24.9999C7.45468 25.3339 7.14886 25.7458 6.93943 26.2078C6.72999 26.6698 6.62179 27.1712 6.62209 27.6784V37.4999C6.61949 37.6305 6.58915 37.759 6.53306 37.877C6.47698 37.9949 6.39644 38.0996 6.29679 38.184C6.19714 38.2685 6.08067 38.3308 5.9551 38.3667C5.82954 38.4027 5.69776 38.4115 5.56852 38.3927C5.35794 37.798 4.94393 37.2968 4.39964 36.9778C3.85536 36.6588 3.21582 36.5424 2.59404 36.6492C1.97226 36.756 1.40825 37.0792 1.00166 37.5616C0.595074 38.044 0.37208 38.6546 0.37208 39.2855C0.37208 39.9164 0.595074 40.527 1.00166 41.0094C1.40825 41.4918 1.97226 41.815 2.59404 41.9218C3.21582 42.0286 3.85536 41.9122 4.39964 41.5932C4.94393 41.2742 5.35794 40.773 5.56852 40.1783C5.93292 40.1976 6.29744 40.1427 6.64 40.0169C6.98257 39.8912 7.29606 39.6973 7.5615 39.4469C7.82694 39.1965 8.0388 38.8948 8.18427 38.5601C8.32974 38.2255 8.40578 37.8648 8.4078 37.4999V27.6784C8.40918 27.2053 8.59776 26.7519 8.93235 26.4173C9.26694 26.0827 9.72034 25.8941 10.1935 25.8927Z" fill="#EF5226"/>
<path d="M47.6937 36.6072C47.1411 36.6088 46.6025 36.7813 46.1518 37.101C45.701 37.4207 45.3601 37.8719 45.1759 38.3929H45.0151C44.7786 38.3922 44.5519 38.2979 44.3846 38.1306C44.2173 37.9633 44.123 37.7366 44.1223 37.5001V27.6786C44.1226 27.1714 44.0144 26.6699 43.8049 26.208C43.5955 25.746 43.2897 25.3341 42.908 25.0001C43.2897 24.666 43.5955 24.2541 43.8049 23.7921C44.0144 23.3302 44.1226 22.8287 44.1223 22.3215V12.5001C44.1249 12.3695 44.1552 12.2409 44.2113 12.123C44.2674 12.005 44.3479 11.9003 44.4476 11.8159C44.5472 11.7314 44.6637 11.6691 44.7893 11.6332C44.9148 11.5972 45.0466 11.5883 45.1759 11.6072C45.3865 12.2029 45.8009 12.705 46.3459 13.0247C46.8909 13.3444 47.5314 13.4612 48.1542 13.3543C48.777 13.2475 49.3419 12.9239 49.7492 12.4408C50.1564 11.9577 50.3798 11.3462 50.3798 10.7143C50.3798 10.0825 50.1564 9.47096 49.7492 8.98786C49.3419 8.50476 48.777 8.1812 48.1542 8.07435C47.5314 7.9675 46.8909 8.08425 46.3459 8.40396C45.8009 8.72367 45.3865 9.22576 45.1759 9.82149H45.0151C44.3054 9.82356 43.6253 10.1064 43.1234 10.6083C42.6215 11.1102 42.3386 11.7903 42.3366 12.5001V22.3215C42.3352 22.7947 42.1466 23.248 41.812 23.5826C41.4774 23.9172 41.024 24.1058 40.5509 24.1072H39.658C39.4235 24.1107 39.1998 24.2063 39.0352 24.3734C38.8706 24.5404 38.7783 24.7655 38.7783 25.0001C38.7783 25.2346 38.8706 25.4597 39.0352 25.6268C39.1998 25.7938 39.4236 25.8894 39.6581 25.8929H40.5509C41.024 25.8943 41.4774 26.0829 41.812 26.4175C42.1466 26.752 42.3352 27.2054 42.3366 27.6786V37.5001C42.3386 37.865 42.4146 38.2257 42.5601 38.5603C42.7056 38.895 42.9174 39.1967 43.1829 39.4471C43.4483 39.6975 43.7618 39.8914 44.1044 40.0172C44.4469 40.1429 44.8115 40.1978 45.1759 40.1786C45.3401 40.6407 45.6282 41.0488 46.0087 41.3583C46.3892 41.6677 46.8474 41.8667 47.3333 41.9333C47.8192 41.9999 48.3141 41.9317 48.7638 41.7362C49.2136 41.5406 49.6009 41.2251 49.8835 40.8243C50.1661 40.4234 50.3331 39.9526 50.3662 39.4633C50.3993 38.974 50.2973 38.4849 50.0713 38.0497C49.8452 37.6144 49.5039 37.2497 49.0846 36.9953C48.6653 36.7409 48.1842 36.6066 47.6937 36.6072Z" fill="#EF5226"/>
<path d="M40.5504 44.8035C40.5696 44.4391 40.5147 44.0746 40.3889 43.732C40.2632 43.3895 40.0692 43.076 39.8188 42.8105C39.5684 42.5451 39.2667 42.3332 38.9321 42.1878C38.5974 42.0423 38.2367 41.9663 37.8718 41.9642H28.0504C27.5772 41.9629 27.1238 41.7743 26.7892 41.4397C26.4546 41.1051 26.266 40.6517 26.2647 40.1785V39.2857C26.2647 39.0489 26.1706 38.8218 26.0031 38.6543C25.8357 38.4869 25.6086 38.3928 25.3718 38.3928C25.135 38.3928 24.9079 38.4869 24.7404 38.6543C24.573 38.8218 24.4789 39.0489 24.4789 39.2857V40.1785C24.4775 40.6517 24.289 41.1051 23.9544 41.4397C23.6198 41.7743 23.1664 41.9629 22.6932 41.9642H12.8718C12.5069 41.9663 12.1462 42.0423 11.8115 42.1878C11.4768 42.3332 11.1752 42.5451 10.9247 42.8105C10.6743 43.076 10.4804 43.3895 10.3546 43.732C10.2289 44.0746 10.174 44.4391 10.1932 44.8035C9.59852 45.0141 9.09738 45.4281 8.77835 45.9724C8.45932 46.5167 8.34294 47.1562 8.44977 47.778C8.5566 48.3998 8.87976 48.9638 9.36216 49.3703C9.84456 49.7769 10.4551 49.9999 11.086 49.9999C11.7169 49.9999 12.3275 49.7769 12.8099 49.3703C13.2923 48.9638 13.6155 48.3998 13.7223 47.778C13.8291 47.1562 13.7127 46.5167 13.3937 45.9724C13.0747 45.4281 12.5735 45.0141 11.9788 44.8035C11.96 44.6743 11.9689 44.5425 12.0049 44.4169C12.0409 44.2914 12.1031 44.1749 12.1876 44.0753C12.2721 43.9756 12.3767 43.8951 12.4947 43.839C12.6127 43.7829 12.7412 43.7526 12.8718 43.75H22.6932C23.2005 43.7503 23.7019 43.6421 24.1639 43.4326C24.6259 43.2232 25.0377 42.9174 25.3718 42.5357C25.7059 42.9174 26.1177 43.2232 26.5797 43.4326C27.0417 43.6421 27.5431 43.7503 28.0504 43.75H37.8718C38.0024 43.7526 38.1309 43.7829 38.2489 43.839C38.3668 43.8951 38.4715 43.9756 38.556 44.0753C38.6404 44.1749 38.7027 44.2914 38.7387 44.4169C38.7747 44.5425 38.7835 44.6743 38.7646 44.8035C38.1699 45.0141 37.6688 45.4281 37.3498 45.9724C37.0307 46.5167 36.9144 47.1562 37.0212 47.778C37.128 48.3998 37.4512 48.9638 37.9336 49.3704C38.416 49.777 39.0266 50 39.6575 50C40.2884 50 40.899 49.777 41.3814 49.3704C41.8638 48.9638 42.187 48.3998 42.2938 47.778C42.4006 47.1562 42.2843 46.5167 41.9652 45.9724C41.6462 45.4281 41.1451 45.0141 40.5504 44.8035Z" fill="#EF5226"/>
<path d="M10.1932 5.19644C10.174 5.56085 10.2289 5.92536 10.3547 6.26793C10.4804 6.61049 10.6744 6.92397 10.9248 7.18941C11.1752 7.45484 11.4768 7.66671 11.8115 7.81218C12.1462 7.95765 12.5069 8.0337 12.8718 8.03573H22.6932C23.1664 8.03711 23.6198 8.22569 23.9544 8.56028C24.289 8.89487 24.4775 9.34827 24.4789 9.82144V10.7143C24.4789 10.9511 24.573 11.1782 24.7404 11.3456C24.9079 11.5131 25.135 11.6072 25.3718 11.6072C25.6086 11.6072 25.8357 11.5131 26.0031 11.3456C26.1706 11.1782 26.2646 10.9511 26.2646 10.7143V9.82144C26.266 9.34827 26.4546 8.89487 26.7892 8.56028C27.1238 8.22569 27.5772 8.03711 28.0503 8.03573H37.8718C38.2367 8.03371 38.5974 7.95767 38.9321 7.81221C39.2667 7.66674 39.5684 7.45488 39.8188 7.18944C40.0692 6.924 40.2632 6.61051 40.3889 6.26794C40.5146 5.92537 40.5696 5.56085 40.5503 5.19644C41.1451 4.98587 41.6462 4.57187 41.9652 4.02758C42.2843 3.4833 42.4007 2.84376 42.2938 2.22198C42.187 1.60019 41.8638 1.03618 41.3814 0.629586C40.899 0.222995 40.2884 0 39.6575 0C39.0266 0 38.4161 0.222995 37.9336 0.629586C37.4512 1.03618 37.1281 1.60019 37.0212 2.22198C36.9144 2.84376 37.0308 3.4833 37.3498 4.02758C37.6689 4.57187 38.17 4.98587 38.7647 5.19644C38.7836 5.3257 38.7747 5.45747 38.7387 5.58303C38.7027 5.70859 38.6404 5.82505 38.5559 5.92469C38.4715 6.02433 38.3668 6.10487 38.2489 6.16096C38.1309 6.21705 38.0024 6.24741 37.8718 6.25002H28.0503C27.5431 6.24971 27.0417 6.35791 26.5797 6.56734C26.1177 6.77677 25.7058 7.0826 25.3718 7.4643C25.0377 7.0826 24.6259 6.77677 24.1639 6.56734C23.7019 6.35791 23.2004 6.24971 22.6932 6.25002H12.8718C12.7412 6.24741 12.6127 6.21706 12.4947 6.16097C12.3767 6.10488 12.2721 6.02434 12.1876 5.9247C12.1032 5.82505 12.0409 5.70858 12.0049 5.58303C11.9689 5.45747 11.9601 5.32569 11.9789 5.19644C12.5736 4.98586 13.0748 4.57185 13.3938 4.02756C13.7128 3.48327 13.8292 2.84374 13.7224 2.22196C13.6155 1.60018 13.2924 1.03617 12.81 0.62958C12.3275 0.222993 11.717 4.25747e-07 11.0861 4.25747e-07C10.4552 4.25747e-07 9.84458 0.222993 9.36218 0.62958C8.87977 1.03617 8.55661 1.60018 8.44977 2.22196C8.34294 2.84374 8.45931 3.48327 8.77833 4.02756C9.09736 4.57185 9.5985 4.98586 10.1932 5.19644Z" fill="#EF5226"/>
</svg>
