<svg width="55" height="50" viewBox="0 0 55 50" fill="none" xmlns="http://www.w3.org/2000/svg">
<path d="M30.9706 6.07698L24.9032 9.10582C24.2383 9.4413 23.5038 9.61586 22.759 9.61544H0.585938V47.1154C0.588177 47.8798 0.89281 48.6122 1.4333 49.1527C1.97378 49.6932 2.70619 49.9978 3.47055 50H51.5475C52.3118 49.9978 53.0442 49.6932 53.5847 49.1527C54.1252 48.6122 54.4299 47.8798 54.4321 47.1154V5.76929H32.259C31.8115 5.7706 31.3704 5.87594 30.9706 6.07698ZM49.6244 14.4231V44.2308C49.6236 44.4856 49.5221 44.7297 49.3419 44.9099C49.1618 45.09 48.9176 45.1916 48.6629 45.1923H6.35517C6.10039 45.1916 5.85626 45.09 5.6761 44.9099C5.49594 44.7297 5.39439 44.4856 5.39363 44.2308V14.4231C5.39439 14.1683 5.49594 13.9242 5.6761 13.7441C5.85626 13.5639 6.10039 13.4624 6.35517 13.4616H48.6629C48.9176 13.4624 49.1618 13.5639 49.3419 13.7441C49.5221 13.9242 49.6236 14.1683 49.6244 14.4231Z" fill="#EF5226"/>
<path d="M47.701 15.3845H7.31641V43.2691H47.701V15.3845ZM18.8549 40.3845C18.8541 40.6393 18.7526 40.8834 18.5724 41.0636C18.3922 41.2437 18.1481 41.3453 17.8933 41.346H10.201C9.94624 41.3453 9.70211 41.2437 9.52195 41.0636C9.34179 40.8834 9.24024 40.6393 9.23948 40.3845V32.6922C9.24024 32.4374 9.34179 32.1933 9.52195 32.0131C9.70211 31.833 9.94624 31.7314 10.201 31.7307H17.8933C18.1481 31.7314 18.3922 31.833 18.5724 32.0131C18.7526 32.1933 18.8541 32.4374 18.8549 32.6922V40.3845ZM18.8549 25.9614C18.8541 26.2162 18.7526 26.4604 18.5724 26.6405C18.3922 26.8207 18.1481 26.9222 17.8933 26.923H10.201C9.94624 26.9222 9.70211 26.8207 9.52195 26.6405C9.34179 26.4604 9.24024 26.2162 9.23948 25.9614V18.2691C9.24024 18.0144 9.34179 17.7702 9.52195 17.5901C9.70211 17.4099 9.94624 17.3084 10.201 17.3076H17.8933C18.1481 17.3084 18.3922 17.4099 18.5724 17.5901C18.7526 17.7702 18.8541 18.0144 18.8549 18.2691V25.9614ZM32.3164 40.3845C32.3156 40.6393 32.2141 40.8834 32.0339 41.0636C31.8538 41.2437 31.6097 41.3453 31.3549 41.346H23.6626C23.4078 41.3453 23.1637 41.2437 22.9835 41.0636C22.8033 40.8834 22.7018 40.6393 22.701 40.3845V32.6922C22.7018 32.4374 22.8033 32.1933 22.9835 32.0131C23.1637 31.833 23.4078 31.7314 23.6626 31.7307H31.3549C31.6097 31.7314 31.8538 31.833 32.0339 32.0131C32.2141 32.1933 32.3156 32.4374 32.3164 32.6922V40.3845ZM32.3164 25.9614C32.3156 26.2162 32.2141 26.4604 32.0339 26.6405C31.8538 26.8207 31.6097 26.9222 31.3549 26.923H23.6626C23.4078 26.9222 23.1637 26.8207 22.9835 26.6405C22.8033 26.4604 22.7018 26.2162 22.701 25.9614V18.2691C22.7018 18.0144 22.8033 17.7702 22.9835 17.5901C23.1637 17.4099 23.4078 17.3084 23.6626 17.3076H31.3549C31.6097 17.3084 31.8538 17.4099 32.0339 17.5901C32.2141 17.7702 32.3156 18.0144 32.3164 18.2691V25.9614ZM45.7779 40.3845C45.7772 40.6393 45.6756 40.8834 45.4955 41.0636C45.3153 41.2437 45.0712 41.3453 44.8164 41.346H37.1241C36.8693 41.3453 36.6252 41.2437 36.445 41.0636C36.2649 40.8834 36.1633 40.6393 36.1626 40.3845V32.6922C36.1633 32.4374 36.2649 32.1933 36.445 32.0131C36.6252 31.833 36.8693 31.7314 37.1241 31.7307H44.8164C45.0712 31.7314 45.3153 31.833 45.4955 32.0131C45.6756 32.1933 45.7772 32.4374 45.7779 32.6922V40.3845ZM45.7779 25.9614C45.7772 26.2162 45.6756 26.4604 45.4955 26.6405C45.3153 26.8207 45.0712 26.9222 44.8164 26.923H37.1241C36.8693 26.9222 36.6252 26.8207 36.445 26.6405C36.2649 26.4604 36.1633 26.2162 36.1626 25.9614V18.2691C36.1633 18.0144 36.2649 17.7702 36.445 17.5901C36.6252 17.4099 36.8693 17.3084 37.1241 17.3076H44.8164C45.0712 17.3084 45.3153 17.4099 45.4955 17.5901C45.6756 17.7702 45.7772 18.0144 45.7779 18.2691V25.9614Z" fill="#EF5226"/>
<path d="M51.5475 0H3.47055C2.70619 0.00222979 1.97377 0.30686 1.43328 0.847347C0.892797 1.38783 0.588167 2.12025 0.585938 2.88461V7.6923H22.759C23.2065 7.69099 23.6476 7.58566 24.0475 7.38461L30.1148 4.35577C30.7798 4.02032 31.5142 3.84576 32.259 3.84615H54.4321V2.88461C54.4299 2.12025 54.1252 1.38783 53.5847 0.847347C53.0443 0.30686 52.3118 0.00222979 51.5475 0ZM5.41286 4.80769C5.15785 4.80768 4.91328 4.70637 4.73296 4.52604C4.55264 4.34571 4.45134 4.10114 4.45135 3.84612C4.45136 3.59111 4.55267 3.34654 4.733 3.16622C4.91333 2.9859 5.1579 2.88461 5.41292 2.88461C5.66793 2.88462 5.9125 2.98593 6.09282 3.16626C6.27314 3.34659 6.37444 3.59116 6.37443 3.84618C6.37442 4.1012 6.27311 4.34576 6.09278 4.52608C5.91245 4.7064 5.66788 4.8077 5.41286 4.80769ZM9.25902 4.80769C9.004 4.80768 8.75943 4.70637 8.57911 4.52604C8.3988 4.34571 8.2975 4.10114 8.29751 3.84612C8.29751 3.59111 8.39882 3.34654 8.57915 3.16622C8.75948 2.9859 9.00406 2.88461 9.25907 2.88461C9.51409 2.88462 9.75866 2.98593 9.93897 3.16626C10.1193 3.34659 10.2206 3.59116 10.2206 3.84618C10.2206 4.1012 10.1193 4.34576 9.93893 4.52608C9.7586 4.7064 9.51403 4.8077 9.25902 4.80769ZM13.1052 4.80769C12.9789 4.80769 12.8539 4.78281 12.7372 4.73449C12.6205 4.68616 12.5146 4.61533 12.4253 4.52604C12.336 4.43675 12.2652 4.33075 12.2168 4.21409C12.1685 4.09743 12.1437 3.97239 12.1437 3.84612C12.1437 3.71985 12.1685 3.59482 12.2169 3.47816C12.2652 3.3615 12.336 3.25551 12.4253 3.16622C12.5146 3.07694 12.6206 3.00611 12.7373 2.9578C12.8539 2.90948 12.979 2.88461 13.1052 2.88461C13.3602 2.88462 13.6048 2.98593 13.7851 3.16626C13.9654 3.34659 14.0667 3.59116 14.0667 3.84618C14.0667 4.1012 13.9654 4.34576 13.7851 4.52608C13.6048 4.7064 13.3602 4.8077 13.1052 4.80769Z" fill="#EF5226"/>
<path d="M11.1621 19.2307H16.9313V24.9999H11.1621V19.2307Z" fill="#EF5226"/>
<path d="M24.625 19.2307H30.3942V24.9999H24.625V19.2307Z" fill="#EF5226"/>
<path d="M38.0859 19.2307H43.8552V24.9999H38.0859V19.2307Z" fill="#EF5226"/>
<path d="M11.1621 33.6538H16.9313V39.423H11.1621V33.6538Z" fill="#EF5226"/>
<path d="M24.625 33.6538H30.3942V39.423H24.625V33.6538Z" fill="#EF5226"/>
<path d="M38.0859 33.6538H43.8552V39.423H38.0859V33.6538Z" fill="#EF5226"/>
</svg>
