<svg width="51" height="51" viewBox="0 0 51 51" fill="none" xmlns="http://www.w3.org/2000/svg">
<path d="M24.254 7.41336H17.3574V10.8616H24.254V13.4478L29.4264 9.13749L24.254 4.82715V7.41336Z" fill="#EF5226"/>
<path d="M40.6341 21.2065V26.379H38.0479L42.3582 31.5514L46.6685 26.379H44.0823V21.2065H40.6341Z" fill="#EF5226"/>
<path d="M49.9166 8.27547C49.7211 8.27541 49.5315 8.20892 49.3787 8.0869C49.226 7.96487 49.1193 7.79457 49.0761 7.60391C48.9042 6.84815 48.6048 6.12719 48.1908 5.47202C48.0864 5.30656 48.0414 5.11052 48.0632 4.9161C48.0849 4.72168 48.1722 4.54046 48.3106 4.40219L49.0623 3.65047L47.8433 2.4315L47.0916 3.18322C46.9534 3.32142 46.7723 3.40854 46.5781 3.43031C46.3839 3.45209 46.188 3.40721 46.0226 3.30305C45.367 2.88943 44.6458 2.59034 43.8899 2.41857C43.6994 2.375 43.5294 2.26801 43.4077 2.11514C43.286 1.96227 43.2198 1.77259 43.2201 1.57719V0.516846H41.4959V1.57719C41.4961 1.77282 41.4297 1.96269 41.3076 2.11559C41.1856 2.26849 41.0152 2.37533 40.8244 2.41857C40.0684 2.59034 39.3472 2.88943 38.6916 3.30305C38.5262 3.40721 38.3304 3.45209 38.1362 3.43031C37.9419 3.40854 37.7609 3.32142 37.6226 3.18322L36.8709 2.4315L35.6528 3.65047L36.4045 4.40219C36.5428 4.54056 36.6299 4.72184 36.6515 4.91625C36.6731 5.11067 36.628 5.30665 36.5235 5.47202C36.1094 6.12719 35.81 6.84815 35.6382 7.60391C35.595 7.79457 35.4882 7.96487 35.3355 8.0869C35.1828 8.20892 34.9931 8.27541 34.7976 8.27547H33.7373V9.9996H34.7976C34.9931 9.99966 35.1828 10.0662 35.3355 10.1882C35.4882 10.3102 35.595 10.4805 35.6382 10.6712C35.81 11.4269 36.1094 12.1479 36.5235 12.8031C36.628 12.9684 36.6731 13.1644 36.6515 13.3588C36.6299 13.5532 36.5428 13.7345 36.4045 13.8729L35.6528 14.6237L36.8718 15.8427L37.6226 15.091C37.761 14.9529 37.9421 14.866 38.1363 14.8443C38.3305 14.8227 38.5263 14.8677 38.6916 14.972C39.3471 15.386 40.0683 15.6851 40.8244 15.8565C41.0152 15.8997 41.1856 16.0066 41.3076 16.1595C41.4297 16.3124 41.4961 16.5022 41.4959 16.6979V17.7582H43.2201V16.6979C43.2199 16.5024 43.2862 16.3126 43.408 16.1597C43.5299 16.0068 43.7001 15.8999 43.8908 15.8565C44.6467 15.6847 45.3679 15.3856 46.0235 14.972C46.1888 14.8677 46.3846 14.8227 46.5788 14.8443C46.773 14.866 46.9542 14.9529 47.0925 15.091L47.8442 15.8427L49.0632 14.6246L48.3114 13.8729C48.173 13.7346 48.0858 13.5534 48.064 13.359C48.0422 13.1646 48.0872 12.9685 48.1916 12.8031C48.6057 12.1479 48.9051 11.4269 49.077 10.6712C49.1201 10.4806 49.2267 10.3104 49.3793 10.1884C49.5318 10.0664 49.7213 9.99985 49.9166 9.9996H50.9787V8.27547H49.9166ZM42.358 14.3099C41.335 14.3099 40.335 14.0066 39.4844 13.4382C38.6338 12.8699 37.9708 12.0621 37.5793 11.1169C37.1878 10.1718 37.0854 9.1318 37.285 8.12845C37.4845 7.1251 37.9772 6.20346 38.7005 5.48009C39.4239 4.75671 40.3456 4.26409 41.3489 4.06451C42.3523 3.86493 43.3923 3.96736 44.3374 4.35885C45.2825 4.75034 46.0903 5.4133 46.6587 6.2639C47.2271 7.11449 47.5304 8.11453 47.5304 9.13754C47.5304 10.5093 46.9855 11.825 46.0154 12.795C45.0454 13.765 43.7298 14.3099 42.358 14.3099Z" fill="#EF5226"/>
<path d="M13.0475 13.0384V4.82719H9.59921C9.37057 4.82719 9.1513 4.73637 8.98963 4.5747C8.82796 4.41303 8.73714 4.19376 8.73714 3.96512V0.516846H0.978516V19.4824H7.92593C8.09066 18.0365 8.65806 16.6659 9.56351 15.5266C10.469 14.3874 11.6761 13.5253 13.0475 13.0384ZM4.42679 2.24098H7.013V3.96512H4.42679V2.24098ZM2.70265 5.68926H11.3233V7.4134H2.70265V5.68926ZM2.70265 9.13754H11.3233V10.8617H2.70265V9.13754ZM2.70265 12.5858H9.59921V14.3099H2.70265V12.5858Z" fill="#EF5226"/>
<path d="M10.4609 1.73669V3.10221H11.8265L10.4609 1.73669Z" fill="#EF5226"/>
<path d="M21.6686 20.3444C21.6686 19.1509 21.3147 17.9842 20.6516 16.9918C19.9885 15.9995 19.046 15.226 17.9434 14.7693C16.8407 14.3126 15.6274 14.193 14.4568 14.4259C13.2862 14.6587 12.211 15.2335 11.3671 16.0774C10.5231 16.9213 9.9484 17.9966 9.71556 19.1672C9.48272 20.3377 9.60222 21.5511 10.059 22.6537C10.5157 23.7564 11.2891 24.6988 12.2815 25.3619C13.2739 26.025 14.4406 26.3789 15.6341 26.3789C17.234 26.3773 18.768 25.741 19.8994 24.6097C21.0307 23.4783 21.667 21.9444 21.6686 20.3444ZM14.772 20.3444V16.8961H16.4962V19.4824H19.9444V21.2065H15.6341C15.4055 21.2065 15.1862 21.1157 15.0245 20.954C14.8628 20.7923 14.772 20.5731 14.772 20.3444Z" fill="#05A7CC"/>
<path d="M8.73714 34.9995V31.5513H0.978516V50.5168H13.0475V35.8616H9.59921C9.37057 35.8616 9.1513 35.7708 8.98963 35.6091C8.82796 35.4475 8.73714 35.2282 8.73714 34.9995ZM4.42679 33.2754H7.013V34.9995H4.42679V33.2754ZM11.3233 45.3444H2.70265V43.6202H11.3233V45.3444ZM11.3233 41.8961H2.70265V40.172H11.3233V41.8961ZM11.3233 38.4478H2.70265V36.7237H11.3233V38.4478Z" fill="#EF5226"/>
<path d="M23.3916 34.1368H24.758L23.3916 32.7704V34.1368Z" fill="#EF5226"/>
<path d="M21.6678 34.9995V31.5513H13.9092V33.7806L14.5178 34.3892C14.5981 34.4693 14.6618 34.5644 14.7053 34.6691C14.7488 34.7739 14.7712 34.8861 14.7712 34.9995V50.5168H25.9781V35.8616H22.5299C22.3012 35.8616 22.082 35.7708 21.9203 35.6091C21.7586 35.4475 21.6678 35.2282 21.6678 34.9995ZM17.3575 33.2754H19.9437V34.9995H17.3575V33.2754ZM24.254 45.3444H15.6333V43.6202H24.254V45.3444ZM24.254 41.8961H15.6333V40.172H24.254V41.8961ZM24.254 38.4478H15.6333V36.7237H24.254V38.4478Z" fill="#EF5226"/>
<path d="M10.4609 34.1368H11.8273L10.4609 32.7704V34.1368Z" fill="#EF5226"/>
<path d="M42.3582 34.9996C40.8237 34.9996 39.3237 35.4547 38.0478 36.3072C36.7719 37.1597 35.7774 38.3715 35.1902 39.7892C34.603 41.2069 34.4493 42.7669 34.7487 44.2719C35.0481 45.7769 35.787 47.1594 36.8721 48.2444C37.9571 49.3295 39.3396 50.0684 40.8446 50.3678C42.3496 50.6672 43.9096 50.5135 45.3273 49.9263C46.745 49.3391 47.9568 48.3446 48.8093 47.0687C49.6618 45.7928 50.1169 44.2928 50.1169 42.7583C50.1146 40.7012 49.2964 38.7291 47.8419 37.2746C46.3874 35.8201 44.4152 35.0019 42.3582 34.9996ZM48.1393 41.6436L41.2427 48.5402C41.1627 48.6203 41.0676 48.6839 40.9629 48.7273C40.8583 48.7707 40.7461 48.793 40.6328 48.793C40.5195 48.793 40.4073 48.7707 40.3027 48.7273C40.198 48.6839 40.103 48.6203 40.0229 48.5402L35.7125 44.2298C35.6324 44.1497 35.5688 44.0547 35.5254 43.95C35.482 43.8454 35.4597 43.7332 35.4597 43.6199C35.4597 43.5066 35.482 43.3944 35.5254 43.2898C35.5688 43.1851 35.6324 43.09 35.7125 43.01L38.2988 40.4238C38.3788 40.3436 38.4739 40.28 38.5785 40.2367C38.6832 40.1933 38.7954 40.1709 38.9087 40.1709C39.022 40.1709 39.1341 40.1933 39.2388 40.2367C39.3434 40.28 39.4385 40.3436 39.5186 40.4238L40.6341 41.5384L44.3341 37.8376C44.4142 37.7574 44.5092 37.6938 44.6139 37.6504C44.7185 37.6071 44.8307 37.5847 44.944 37.5847C45.0573 37.5847 45.1695 37.6071 45.2741 37.6504C45.3788 37.6938 45.4739 37.7574 45.5539 37.8376L48.1401 40.4238C48.2202 40.5039 48.2837 40.599 48.3271 40.7037C48.3704 40.8084 48.3926 40.9206 48.3925 41.0339C48.3925 41.1472 48.37 41.2593 48.3266 41.3639C48.2831 41.4686 48.2195 41.5636 48.1393 41.6436Z" fill="#EF5226"/>
<path d="M41.2419 43.3677C41.1618 43.4479 41.0667 43.5115 40.9621 43.5549C40.8574 43.5982 40.7453 43.6206 40.632 43.6206C40.5187 43.6206 40.4065 43.5982 40.3018 43.5549C40.1972 43.5115 40.1021 43.4479 40.0221 43.3677L38.9091 42.2531L37.541 43.6203L40.6333 46.7108L46.3091 41.0341L44.9436 39.6669L41.2419 43.3677Z" fill="#EF5226"/>
<path d="M4.42578 21.2057H6.14906V29.8264H4.42578V21.2057Z" fill="#EF5226"/>
</svg>
