<svg width="57" height="57" viewBox="0 0 57 57" fill="none" xmlns="http://www.w3.org/2000/svg">
<path d="M50.8553 34.3546C49.8141 38.1831 47.7969 41.6758 45.0011 44.4909C42.2052 47.306 38.7265 49.3471 34.9053 50.4146C35.0968 51.0332 35.1946 51.677 35.1953 52.3246C43.6553 50.4146 50.7453 43.0946 52.8653 34.5246C52.1905 34.5781 51.5115 34.5206 50.8553 34.3546Z" fill="#EF5226"/>
<path d="M24.835 52.2746C24.835 53.3832 25.2754 54.4464 26.0593 55.2303C26.8432 56.0142 27.9064 56.4546 29.015 56.4546C30.1236 56.4546 31.1868 56.0142 31.9707 55.2303C32.7546 54.4464 33.195 53.3832 33.195 52.2746C33.195 51.166 32.7546 50.1028 31.9707 49.3189C31.1868 48.535 30.1236 48.0946 29.015 48.0946C27.9064 48.0946 26.8432 48.535 26.0593 49.3189C25.2754 50.1028 24.835 51.166 24.835 52.2746Z" fill="#EF5226"/>
<path d="M6.65527 34.2946C6.00737 34.489 5.33078 34.5702 4.65527 34.5346C6.71527 43.1446 14.4353 51.1446 22.7953 52.3446C22.7999 51.7395 22.8839 51.1377 23.0453 50.5546C19.1129 49.5493 15.5204 47.5121 12.6389 44.6536C9.75752 41.795 7.69179 38.2188 6.65527 34.2946Z" fill="#EF5226"/>
<path d="M48.2051 28.4147C48.3551 33.9247 56.4051 33.9147 56.5651 28.4147C56.4151 22.9147 48.3551 22.9147 48.2051 28.4147Z" fill="#EF5226"/>
<path d="M32.9857 4.55471C32.9333 3.48278 32.4705 2.47209 31.6933 1.732C30.9161 0.991899 29.884 0.579102 28.8107 0.579102C27.7375 0.579102 26.7054 0.991899 25.9282 1.732C25.151 2.47209 24.6882 3.48278 24.6357 4.55471C24.6882 5.62665 25.151 6.63733 25.9282 7.37743C26.7054 8.11753 27.7375 8.53032 28.8107 8.53032C29.884 8.53032 30.9161 8.11753 31.6933 7.37743C32.4705 6.63733 32.9333 5.62665 32.9857 4.55471Z" fill="#EF5226"/>
<path d="M9.09512 28.4147C8.94512 22.9147 0.895117 22.9147 0.745117 28.4147C0.895117 33.9147 8.94512 33.9247 9.09512 28.4147Z" fill="#EF5226"/>
<path d="M9.22483 46.8646L7.82483 48.2346C7.17288 47.831 6.42163 47.6163 5.65483 47.6146C4.82726 47.6126 4.01772 47.8564 3.32879 48.3149C2.63987 48.7735 2.10256 49.4262 1.78494 50.1904C1.46733 50.9546 1.38371 51.7959 1.54468 52.6076C1.70564 53.4194 2.10395 54.1651 2.68914 54.7503C3.27432 55.3355 4.02005 55.7338 4.83182 55.8948C5.64359 56.0557 6.48487 55.9721 7.24907 55.6545C8.01328 55.3369 8.666 54.7996 9.12455 54.1107C9.58309 53.4217 9.82681 52.6122 9.82483 51.7846C9.82654 51.0385 9.62611 50.3059 9.24483 49.6646L10.6548 48.2846C10.1548 47.8246 9.65483 47.3546 9.22483 46.8646Z" fill="#EF5226"/>
<path d="M6.65527 22.5347C7.69142 18.6386 9.7408 15.0863 12.595 12.2391C15.4493 9.39187 19.0066 7.35125 22.9053 6.32471C22.7064 5.67749 22.6185 5.00127 22.6453 4.32471C18.3053 5.42036 14.3423 7.66881 11.1754 10.8321C8.00861 13.9954 5.75576 17.956 4.65527 22.2947C5.33057 22.2651 6.00615 22.3462 6.65527 22.5347Z" fill="#EF5226"/>
<path d="M7.8949 8.5647L9.2549 9.9847C9.7249 9.5047 10.2549 8.9847 10.7049 8.5847L9.2749 7.0947C9.77155 6.20607 9.92599 5.16646 9.7091 4.17183C9.49221 3.17719 8.91897 2.29626 8.09744 1.69508C7.27591 1.09389 6.26284 0.813992 5.2492 0.908137C4.23556 1.00228 3.29137 1.46397 2.59461 2.20617C1.89785 2.94837 1.49666 3.91981 1.46666 4.93737C1.43665 5.95493 1.77992 6.94832 2.43174 7.73028C3.08356 8.51225 3.99891 9.02876 5.00524 9.18246C6.01157 9.33617 7.03937 9.11644 7.8949 8.5647Z" fill="#EF5226"/>
<path d="M50.8548 22.4746C51.508 22.3104 52.1834 22.253 52.8548 22.3046C51.7583 17.9857 49.521 14.041 46.3773 10.8831C43.2335 7.72529 39.2988 5.47047 34.9848 4.35461C35.0058 5.03161 34.9145 5.7074 34.7148 6.35461C38.5824 7.39032 42.1096 9.42493 44.9425 12.2543C47.7754 15.0837 49.8143 18.6083 50.8548 22.4746Z" fill="#EF5226"/>
<path d="M48.5955 10.2547L50.2255 8.62471C50.8614 8.99771 51.584 9.19724 52.3211 9.20333C53.0582 9.20941 53.784 9.02185 54.4259 8.6594C55.0678 8.29695 55.6032 7.77231 55.9787 7.13796C56.3542 6.50362 56.5566 5.7818 56.5655 5.04471C56.5677 4.39881 56.4202 3.7612 56.1346 3.18189C55.849 2.60259 55.4329 2.09736 54.9192 1.70586C54.4055 1.31436 53.808 1.04723 53.1737 0.925444C52.5394 0.803655 51.8855 0.830519 51.2633 1.00393C50.6412 1.17734 50.0676 1.49257 49.5877 1.92489C49.1079 2.35722 48.7347 2.89487 48.4975 3.49565C48.2604 4.09643 48.1657 4.74399 48.2209 5.38753C48.276 6.03107 48.4796 6.65306 48.8155 7.20471L47.1855 8.83471C47.6555 9.29471 48.1355 9.76471 48.5955 10.2547Z" fill="#EF5226"/>
<path d="M52.3855 47.6146C51.6243 47.6137 50.8773 47.8212 50.2255 48.2146L48.5955 46.5746C48.1355 47.0746 47.6655 47.5746 47.1855 48.0046L48.8155 49.6246C48.3334 50.4134 48.1264 51.3398 48.2268 52.2588C48.3273 53.1778 48.7296 54.0376 49.3708 54.7036C50.0119 55.3696 50.8558 55.8043 51.7704 55.9396C52.6849 56.0749 53.6185 55.9032 54.425 55.4513C55.2316 54.9995 55.8656 54.293 56.2278 53.4424C56.5901 52.5918 56.6601 51.6452 56.427 50.7506C56.1939 49.8559 55.6707 49.0638 54.9395 48.4982C54.2082 47.9326 53.31 47.6254 52.3855 47.6246V47.6146Z" fill="#EF5226"/>
<path d="M25.6553 46.1646H31.6553C31.9206 46.1646 32.1749 46.0593 32.3624 45.8717C32.55 45.6842 32.6553 45.4298 32.6553 45.1646V40.9846C34.3183 40.4447 35.8531 39.5701 37.1653 38.4146L40.7553 40.5146C40.985 40.645 41.2568 40.6793 41.5116 40.6099C41.7664 40.5406 41.9834 40.3733 42.1153 40.1446L45.1153 34.9146C45.1819 34.8011 45.2253 34.6755 45.2433 34.5452C45.2612 34.4148 45.2532 34.2822 45.2197 34.1549C45.1863 34.0276 45.128 33.9082 45.0484 33.8035C44.9687 33.6987 44.8691 33.6108 44.7553 33.5446L41.3653 31.5446C41.6039 30.5387 41.7247 29.5084 41.7253 28.4746C41.7236 27.6626 41.6466 26.8524 41.4953 26.0546L44.7553 24.1846C44.8704 24.1185 44.9712 24.03 45.0518 23.9245C45.1323 23.819 45.1911 23.6985 45.2246 23.5701C45.2581 23.4416 45.2657 23.3078 45.2469 23.1764C45.2282 23.0449 45.1834 22.9186 45.1153 22.8046L42.1153 17.5846C41.9834 17.3559 41.7664 17.1886 41.5116 17.1193C41.2568 17.05 40.985 17.0842 40.7553 17.2146L37.6553 19.0546C36.2419 17.683 34.5308 16.6563 32.6553 16.0546V12.6046C32.6553 12.3394 32.55 12.085 32.3624 11.8975C32.1749 11.71 31.9206 11.6046 31.6553 11.6046H25.6553C25.3901 11.6046 25.1358 11.71 24.9482 11.8975C24.7607 12.085 24.6553 12.3394 24.6553 12.6046V16.0646C22.783 16.6731 21.0733 17.6989 19.6553 19.0646L16.5553 17.2746C16.3257 17.1442 16.0539 17.11 15.7991 17.1793C15.5443 17.2486 15.3273 17.4159 15.1953 17.6446L12.1953 22.8646C12.1272 22.9786 12.0825 23.1049 12.0637 23.2364C12.045 23.3678 12.0526 23.5016 12.0861 23.6301C12.1196 23.7585 12.1784 23.879 12.2589 23.9845C12.3395 24.09 12.4403 24.1785 12.5553 24.2446L15.8053 26.1146C15.6573 26.9127 15.5837 27.7229 15.5853 28.5346C15.586 29.5684 15.7068 30.5987 15.9453 31.6046L12.5553 33.6046C12.4416 33.6708 12.342 33.7587 12.2623 33.8635C12.1826 33.9682 12.1244 34.0876 12.091 34.2149C12.0575 34.3422 12.0495 34.4748 12.0674 34.6052C12.0853 34.7355 12.1288 34.8611 12.1953 34.9746L15.1953 40.2046C15.3273 40.4333 15.5443 40.6006 15.7991 40.6699C16.0539 40.7393 16.3257 40.705 16.5553 40.5746L20.1453 38.4146C21.4582 39.5692 22.9928 40.4437 24.6553 40.9846V45.1646C24.6553 45.4298 24.7607 45.6842 24.9482 45.8717C25.1358 46.0593 25.3901 46.1646 25.6553 46.1646ZM21.9553 28.5246C21.9553 27.1995 22.3483 25.9041 23.0845 24.8023C23.8207 23.7005 24.8671 22.8417 26.0914 22.3346C27.3156 21.8275 28.6628 21.6948 29.9624 21.9534C31.2621 22.2119 32.4559 22.85 33.393 23.787C34.33 24.724 34.9681 25.9178 35.2266 27.2175C35.4851 28.5172 35.3524 29.8643 34.8453 31.0886C34.3382 32.3129 33.4795 33.3593 32.3777 34.0955C31.2759 34.8317 29.9805 35.2246 28.6553 35.2246C26.8792 35.222 25.1766 34.5152 23.9206 33.2593C22.6647 32.0034 21.958 30.3008 21.9553 28.5246Z" fill="#EF5226"/>
<path d="M33.014 30.3349C34.0082 27.9365 32.8698 25.1862 30.4713 24.192C28.0729 23.1978 25.3226 24.3363 24.3284 26.7347C23.3343 29.1332 24.4727 31.8834 26.8711 32.8776C29.2696 33.8718 32.0199 32.7334 33.014 30.3349Z" fill="#05A7CC"/>
</svg>
