<svg width="50" height="51" viewBox="0 0 50 51" fill="none" xmlns="http://www.w3.org/2000/svg">
<path d="M26.3574 48.9039H49.7445V50.5168H26.3574V48.9039Z" fill="#EF5226"/>
<path d="M28.7764 44.0652H32.8086V47.291H28.7764V44.0652Z" fill="#EF5226"/>
<path d="M36.0342 38.42H40.0664V47.291H36.0342V38.42Z" fill="#EF5226"/>
<path d="M43.293 32.7749H47.3252V47.291H43.293V32.7749Z" fill="#EF5226"/>
<path d="M34.3165 21.404C34.7278 20.9927 34.7278 20.3395 34.3165 19.9282L32.752 18.3637C32.3407 17.9524 31.6874 17.9524 31.2761 18.3637C30.9455 18.6943 30.4455 18.783 30.0342 18.5653C29.5261 18.2992 28.9858 18.0733 28.4294 17.8959C27.9939 17.7588 27.6955 17.3395 27.6955 16.8798C27.6955 16.3072 27.2278 15.8395 26.6552 15.8395H24.4374C23.8649 15.8395 23.3971 16.3072 23.3971 16.8798V16.904C23.3971 17.3475 23.1149 17.7588 22.6874 17.8879C22.1229 18.0653 21.5745 18.2911 21.0584 18.5572C20.6471 18.775 20.1471 18.6863 19.8165 18.3556C19.4052 17.9443 18.752 17.9443 18.3407 18.3556L16.7761 19.9201C16.3649 20.3314 16.3649 20.9846 16.7761 21.3959C17.1068 21.7266 17.1874 22.2266 16.9778 22.6379C16.7116 23.1459 16.4858 23.6863 16.3084 24.2427C16.1713 24.6782 15.752 24.9766 15.2923 24.9766C14.7197 24.9766 14.252 25.4443 14.252 26.0169V28.2346C14.252 28.8072 14.7197 29.275 15.2923 29.275C15.752 29.275 16.1713 29.5653 16.3084 30.0088C16.4858 30.5653 16.7036 31.1056 16.9778 31.6137C17.1955 32.025 17.1068 32.525 16.7761 32.8556C16.3649 33.2669 16.3649 33.9282 16.7761 34.3314L18.3407 35.8959C18.752 36.3072 19.4052 36.3072 19.8165 35.8959C20.1471 35.5653 20.6471 35.4766 21.0584 35.6943C21.5665 35.9604 22.1068 36.1863 22.6632 36.3637C23.0987 36.5008 23.3971 36.9201 23.3971 37.3798C23.3971 37.9524 23.8649 38.4201 24.4374 38.4201H26.6552C27.2278 38.4201 27.6955 37.9524 27.6955 37.3798C27.6955 36.9201 27.9858 36.5008 28.4294 36.3637C28.9858 36.1863 29.5261 35.9685 30.0342 35.6943C30.4455 35.4766 30.9455 35.5653 31.2761 35.8959C31.6874 36.3072 32.3407 36.3072 32.752 35.8959L34.3165 34.3314C34.7278 33.9201 34.7278 33.2669 34.3165 32.8556C33.9858 32.525 33.9052 32.025 34.1149 31.6137C34.389 31.0975 34.6149 30.5572 34.7842 29.9846C34.9132 29.5572 35.3245 29.275 35.7681 29.275H35.7923C36.3649 29.275 36.8326 28.8072 36.8326 28.2346V26.0169C36.8326 25.4443 36.3649 24.9766 35.7923 24.9766C35.3326 24.9766 34.9132 24.6863 34.7761 24.2427C34.5987 23.6863 34.381 23.1459 34.1068 22.6379C33.8891 22.2266 33.9778 21.7266 34.3084 21.3959L34.3165 21.404ZM25.5503 33.5814C21.9858 33.5814 19.0987 30.6943 19.0987 27.1298C19.0987 23.5653 21.9858 20.6782 25.5503 20.6782C29.1149 20.6782 32.002 23.5653 32.002 27.1298C32.002 30.6943 29.1149 33.5814 25.5503 33.5814Z" fill="#EF5226"/>
<path d="M2.56691 24.3072C3.38949 24.3072 4.09917 23.8072 4.41368 23.0975H5.8653L8.05078 25.283C8.20401 25.4362 8.40562 25.5168 8.62336 25.5168H11.8492V23.9039H8.95401L6.76852 21.7185C6.6153 21.5652 6.41368 21.4846 6.19594 21.4846H4.41368C4.09917 20.7749 3.39756 20.2749 2.56691 20.2749C1.45401 20.2749 0.550781 21.1781 0.550781 22.291C0.550781 23.4039 1.45401 24.3072 2.56691 24.3072Z" fill="#EF5226"/>
<path d="M2.56691 14.6298C3.38949 14.6298 4.09917 14.1298 4.41368 13.4201H6.88143L9.49433 19.3879C9.62336 19.6782 9.91368 19.8717 10.2363 19.8717H14.2685V18.2588H10.7605L8.14756 12.2911C8.01852 12.0008 7.7282 11.8072 7.40562 11.8072H4.41368C4.09917 11.0975 3.39756 10.5975 2.56691 10.5975C1.45401 10.5975 0.550781 11.5008 0.550781 12.6137C0.550781 13.7266 1.45401 14.6298 2.56691 14.6298Z" fill="#EF5226"/>
<path d="M2.56691 33.9846C3.38949 33.9846 4.09917 33.4846 4.41368 32.7749H6.19594C6.41368 32.7749 6.6153 32.6862 6.76852 32.5411L8.95401 30.3556H11.8492V28.7427H8.62336C8.40562 28.7427 8.20401 28.8314 8.05078 28.9765L5.8653 31.162H4.41368C4.09917 30.4524 3.39756 29.9524 2.56691 29.9524C1.45401 29.9524 0.550781 30.8556 0.550781 31.9685C0.550781 33.0814 1.45401 33.9846 2.56691 33.9846Z" fill="#EF5226"/>
<path d="M2.56691 43.662C3.38949 43.662 4.09917 43.162 4.41368 42.4523H7.40562C7.7282 42.4523 8.01852 42.2588 8.14756 41.9685L10.7605 36.0007H14.2685V34.3878H10.2363C9.91368 34.3878 9.62336 34.5814 9.49433 34.8717L6.88143 40.8394H4.41368C4.09917 40.1298 3.39756 39.6298 2.56691 39.6298C1.45401 39.6298 0.550781 40.533 0.550781 41.6459C0.550781 42.7588 1.45401 43.662 2.56691 43.662Z" fill="#EF5226"/>
<path d="M37.6476 0.516846C30.9782 0.516846 25.5508 5.94427 25.5508 12.6136H27.1637C27.1637 6.83136 31.8653 2.12975 37.6476 2.12975V12.6136L45.0508 20.0168C43.4943 21.5814 41.454 22.662 39.1476 22.9927L39.3734 24.5894C45.2847 23.7427 49.7443 18.5975 49.7443 12.6136C49.7443 5.94427 44.3169 0.516846 37.6476 0.516846Z" fill="#05A7CC"/>
</svg>
