<svg width="51" height="51" viewBox="0 0 51 51" fill="none" xmlns="http://www.w3.org/2000/svg">
<path d="M10.0581 45.3444V34.1373H8.33398L13.5065 28.9648L18.6789 34.1373H16.9548V45.3444" fill="#EF5226"/>
<path d="M40.231 45.3444V18.6199C40.2309 18.4443 40.2844 18.2728 40.3844 18.1285C40.4844 17.9841 40.6261 17.8737 40.7905 17.8121L37.6448 14.6664L34.499 17.8121C34.6635 17.8737 34.8051 17.9841 34.9051 18.1285C35.0051 18.2728 35.0586 18.4443 35.0585 18.6199V45.3444H40.231Z" fill="#EF5226"/>
<path d="M28.1617 45.3443V25.5165C28.1615 25.3409 28.2151 25.1694 28.3151 25.0251C28.415 24.8807 28.5567 24.7704 28.7211 24.7087L25.5754 21.563L22.4297 24.7087C22.5941 24.7704 22.7358 24.8807 22.8358 25.0251C22.9358 25.1694 22.9893 25.3409 22.9892 25.5165V45.3443H28.1617Z" fill="#EF5226"/>
<path d="M7.47266 47.0685H43.68V50.5168H7.47266V47.0685Z" fill="#EF5226"/>
<path d="M44.2349 12.7207C44.0637 12.6888 43.9062 12.6058 43.7831 12.4827C43.66 12.3596 43.5771 12.2021 43.5452 12.031C43.3524 10.9711 42.9401 9.96317 42.3346 9.07205C41.7292 8.18094 40.9441 7.42631 40.0297 6.85664C39.1153 6.28697 38.0919 5.91485 37.0252 5.76418C35.9584 5.61351 34.872 5.68763 33.8356 5.98178C33.6297 6.03912 33.4099 6.01795 33.2187 5.92238C33.0276 5.8268 32.8787 5.66364 32.8011 5.46453C32.2361 4.00747 31.2438 2.75529 29.9544 1.87231C28.665 0.98934 27.1387 0.516846 25.576 0.516846C24.0132 0.516846 22.487 0.98934 21.1976 1.87231C19.9082 2.75529 18.9159 4.00747 18.3509 5.46453C18.2733 5.66364 18.1244 5.8268 17.9333 5.92238C17.7421 6.01795 17.5223 6.03912 17.3164 5.98178C16.2802 5.6879 15.1941 5.61394 14.1277 5.76463C13.0612 5.91533 12.0381 6.28735 11.1239 6.85682C10.2098 7.4263 9.4248 8.18063 8.8194 9.07139C8.21399 9.96216 7.80154 10.9697 7.60852 12.0293C7.57664 12.2004 7.4937 12.3579 7.37059 12.481C7.24749 12.6041 7.09 12.6871 6.91885 12.7189C5.02057 13.0758 3.32366 14.128 2.15996 15.6696C0.996247 17.2113 0.449422 19.1315 0.626405 21.055C0.803387 22.9784 1.69145 24.7666 3.11694 26.07C4.54244 27.3734 6.40285 28.0982 8.33439 28.1027H21.2656V26.3786H20.4035C20.233 26.3786 20.0664 26.328 19.9247 26.2332C19.7829 26.1385 19.6725 26.0039 19.6072 25.8464C19.542 25.6889 19.5249 25.5156 19.5582 25.3484C19.5914 25.1812 19.6735 25.0276 19.794 24.907L24.9665 19.7345C25.1282 19.5729 25.3474 19.4821 25.576 19.4821C25.8046 19.4821 26.0238 19.5729 26.1855 19.7345L31.358 24.907C31.4785 25.0276 31.5606 25.1812 31.5938 25.3484C31.6271 25.5156 31.61 25.6889 31.5448 25.8464C31.4795 26.0039 31.3691 26.1385 31.2273 26.2332C31.0856 26.328 30.9189 26.3786 30.7485 26.3786H29.8864V28.1027H33.3347V19.4819H32.4726C32.3022 19.4819 32.1355 19.4313 31.9938 19.3366C31.852 19.2419 31.7416 19.1072 31.6763 18.9497C31.6111 18.7922 31.594 18.6189 31.6273 18.4517C31.6605 18.2845 31.7426 18.1309 31.8631 18.0104L37.0356 12.8379C37.1973 12.6763 37.4165 12.5855 37.6451 12.5855C37.8737 12.5855 38.0929 12.6763 38.2546 12.8379L43.4271 18.0104C43.5476 18.1309 43.6297 18.2845 43.6629 18.4517C43.6962 18.6189 43.6791 18.7922 43.6139 18.9497C43.5486 19.1072 43.4382 19.2419 43.2964 19.3366C43.1547 19.4313 42.9881 19.4819 42.8176 19.4819H41.9555V28.1027H42.8176C44.7477 28.0964 46.6062 27.3709 48.0301 26.0679C49.454 24.7649 50.3411 22.9779 50.5182 21.0559C50.6953 19.1339 50.1496 17.215 48.9878 15.6737C47.8259 14.1324 46.1313 13.0795 44.2349 12.7207ZM33.3347 14.3095H31.6106V11.218L21.013 21.8156C20.8514 21.9773 20.6321 22.0681 20.4035 22.0682H10.0586V20.344H20.0466L30.3916 9.99907H27.3002V8.27491H32.4726C32.7013 8.27491 32.9205 8.36573 33.0822 8.52741C33.2439 8.68908 33.3347 8.90835 33.3347 9.13699V14.3095Z" fill="#05A7CC"/>
</svg>
