<svg width="69" height="51" viewBox="0 0 69 51" fill="none" xmlns="http://www.w3.org/2000/svg">
<path d="M17.3286 15.3903C15.5353 18.3438 14.5859 21.8249 14.5859 25.5168C14.5859 29.2088 15.6408 32.6898 17.3286 35.6434L22.7083 31.5295C21.7589 29.7363 21.2315 27.6265 21.2315 25.5168C21.2315 23.4071 21.7589 21.2974 22.7083 19.5042L17.3286 15.3903Z" fill="#EF5226"/>
<path d="M45.8102 17.9219L51.0845 13.808C47.6034 8.95564 42.0127 5.6856 35.5781 5.36914V12.1202C39.903 12.3312 43.595 14.5464 45.8102 17.9219Z" fill="#EF5226"/>
<path d="M46.3376 25.5168C46.3376 19.0822 41.1688 13.9135 34.7342 13.9135C28.2996 13.9135 23.1309 19.0822 23.1309 25.5168C23.1309 31.9514 28.2996 37.1202 34.7342 37.1202C41.1688 37.1202 46.3376 31.9514 46.3376 25.5168Z" fill="#05A7CC"/>
<path d="M33.7847 12.1202V5.36914C27.4555 5.6856 21.7593 8.95564 18.2783 13.808L23.5526 17.9219C25.8733 14.5464 29.5652 12.3312 33.7847 12.1202Z" fill="#EF5226"/>
<path d="M52.6659 34.7995C54.1427 32.0569 54.9866 28.8924 54.9866 25.5168C54.9866 21.8249 53.9318 18.3438 52.244 15.3903L46.8643 19.5042C47.8136 21.2974 48.3411 23.3017 48.3411 25.5168C48.3411 27.6265 47.8136 29.6308 46.9697 31.424L52.6659 34.7995Z" fill="#EF5226"/>
<path d="M23.6581 33.1118L18.3838 37.2257C21.8648 42.0781 27.4555 45.3481 33.8901 45.6646V38.9135C29.5652 38.7025 25.8732 36.4873 23.6581 33.1118Z" fill="#EF5226"/>
<path d="M51.7173 36.3819L45.9157 33.0063C43.7005 36.3819 39.903 38.5971 35.6836 38.9135V45.6646C42.4346 45.3481 48.2363 41.7616 51.7173 36.3819Z" fill="#EF5226"/>
<path d="M2.98274 29.5253H7.09666C8.15151 29.5253 9.10088 28.6814 9.10088 27.5211V26.5717H12.5819C12.5819 26.2553 12.5819 25.8333 12.5819 25.5169C12.5819 25.2004 12.5819 24.7785 12.5819 24.462H8.99539V23.5126C8.99539 22.4578 8.15151 21.5084 6.99117 21.5084H2.98274C1.92788 21.5084 0.978516 22.3523 0.978516 23.5126V27.5211C0.978516 28.6814 1.8224 29.5253 2.98274 29.5253Z" fill="#EF5226"/>
<path d="M18.0671 45.4535H8.99539V44.2932C8.99539 43.2383 8.15151 42.289 6.99117 42.289H2.98274C1.92788 42.289 0.978516 43.1329 0.978516 44.2932V48.3016C0.978516 49.3565 1.8224 50.3059 2.98274 50.3059H7.09666C8.15151 50.3059 9.10088 49.462 9.10088 48.3016V47.4577H18.7C19.0165 47.4577 19.4384 47.2468 19.5439 46.9303L21.7591 43.4493C21.2317 43.0274 20.5988 42.6054 20.0713 42.078L18.0671 45.4535Z" fill="#EF5226"/>
<path d="M2.98274 8.7447H7.09666C8.15151 8.7447 9.10088 7.90081 9.10088 6.74048V5.58014H18.1726L20.1768 8.7447C20.7043 8.21727 21.2317 7.79533 21.8646 7.37339L19.6494 3.89237C19.4384 3.57592 19.122 3.36495 18.8055 3.36495H8.9954V2.52106C8.9954 1.46621 8.15151 0.516846 6.99118 0.516846H2.98274C1.92788 0.516846 0.978516 1.36073 0.978516 2.52106V6.63499C0.978516 7.79533 1.8224 8.7447 2.98274 8.7447Z" fill="#EF5226"/>
<path d="M66.4844 0.727783H62.3705C61.3156 0.727783 60.3662 1.57166 60.3662 2.732V3.57588H50.7671C50.4506 3.57588 50.0287 3.78686 49.9232 4.10331L47.708 7.58432C48.3409 8.00627 48.8683 8.42821 49.3958 8.95563L51.4 5.79108H60.4717V6.95141C60.4717 8.00627 61.3156 8.95563 62.4759 8.95563H66.5899C67.6447 8.95563 68.5941 8.11175 68.5941 6.95141V2.83749C68.4886 1.57167 67.6447 0.727783 66.4844 0.727783Z" fill="#EF5226"/>
<path d="M66.4844 42.2889H62.3705C61.3156 42.2889 60.3663 43.1328 60.3663 44.2932V45.4535H51.2945L49.2903 42.2889C48.7629 42.8164 48.2355 43.2383 47.6025 43.6602L49.8177 47.1413C50.0287 47.4577 50.3452 47.6687 50.6616 47.6687H60.2608V48.5126C60.2608 49.5674 61.1046 50.5168 62.265 50.5168H66.3789C67.4338 50.5168 68.3831 49.6729 68.3831 48.5126V44.5041C68.4886 43.2383 67.6447 42.2889 66.4844 42.2889Z" fill="#EF5226"/>
<path d="M66.4849 21.5084H62.371C61.3161 21.5084 60.3668 22.3523 60.3668 23.5126V24.462H56.8857V25.5169V26.5717H60.3668V27.5211C60.3668 28.5759 61.2106 29.5253 62.371 29.5253H66.4849C67.5398 29.5253 68.4891 28.6814 68.4891 27.5211V23.5126C68.4891 22.3523 67.6452 21.5084 66.4849 21.5084Z" fill="#EF5226"/>
</svg>
