<svg width="60" height="51" viewBox="0 0 60 51" fill="none" xmlns="http://www.w3.org/2000/svg">
<path d="M51.0947 16.8558C51.4145 18.7051 51.2324 24.1828 51.2775 26.1337C51.2406 27.5528 49.1588 27.5429 49.1273 26.1337V19.608C48.0745 -5.84288 11.9397 -5.85088 10.8862 19.6081C10.8863 19.608 10.8863 26.1337 10.8863 26.1337C10.8863 26.7251 10.4025 27.2088 9.81119 27.2088C9.20914 27.2088 8.7361 26.7251 8.7361 26.1337C8.78533 24.1783 8.59631 18.7261 8.91888 16.8558C4.28528 17.0062 0.56543 20.8335 0.56543 25.5102V29.703C0.56543 34.4764 4.4465 38.3682 9.20914 38.3682H12.2729C14.686 43.2751 18.9564 46.9663 24.1637 48.5709V48.3559C24.1469 49.514 25.1221 50.5218 26.3246 50.5168H34.5813C35.7747 50.5168 36.7423 49.5492 36.7423 48.3559V45.5284C36.7423 44.3458 35.7747 43.3675 34.5813 43.3675H26.3246C25.5715 43.3751 24.8938 43.7354 24.5292 44.3565C18.5947 42.1096 14.6491 36.4116 14.6491 29.9826V19.2316C14.6491 10.7385 21.5405 3.82558 30.0014 3.82558C38.4731 3.82558 45.3644 10.7385 45.3644 19.2316V36.2181C45.3644 37.4007 46.3321 38.3682 47.5146 38.3682H50.7937C55.5563 38.3682 59.4374 34.4764 59.4374 29.703V25.5102C59.4374 20.8335 55.7176 17.0062 51.0947 16.8558Z" fill="#EF5226"/>
<path d="M40.5586 13.2543C33.9038 13.007 31.7321 10.5343 31.6783 10.4698C31.4741 10.2118 31.1731 10.072 30.8505 10.072C30.5172 10.0398 30.2055 10.2118 30.0012 10.4698C29.9797 10.4913 27.8295 13.007 21.1102 13.2543C20.5296 13.2758 20.0781 13.7489 20.0781 14.3294V23.6719C20.0781 27.51 21.8198 31.0578 24.8515 33.4122L30.1732 37.5514C30.5605 37.8497 31.1036 37.8549 31.4956 37.5514L36.828 33.4122C39.8598 31.0578 41.5907 27.51 41.5907 23.6719V14.3294C41.5907 13.7489 41.1391 13.2758 40.5586 13.2543ZM35.7744 22.7689L27.98 26.9617C27.4087 27.2958 26.6004 26.9471 26.4427 26.3058C26.4427 26.3059 25.3783 22.5323 25.3783 22.5323C25.217 21.9518 25.5503 21.3604 26.1201 21.1992C26.6899 21.0487 27.2812 21.3712 27.4425 21.941L28.1521 24.4353L34.7531 20.8767C35.9948 20.2306 37.007 22.082 35.7744 22.7689Z" fill="#05A7CC"/>
</svg>
