<svg width="49" height="46" viewBox="0 0 49 46" fill="none" xmlns="http://www.w3.org/2000/svg">
<path d="M29.7143 28.3648L24.2189 22.8695L18.7236 28.3648C20.215 29.6078 22.1307 30.3586 24.2189 30.3586C26.3072 30.3586 28.2229 29.6078 29.7143 28.3648Z" fill="#EF5226"/>
<path d="M15.625 21.7647C15.625 23.853 16.3758 25.7686 17.6188 27.26L23.4375 21.4413V13.2108C19.0641 13.6069 15.625 17.2897 15.625 21.7647Z" fill="#EF5226"/>
<path d="M24.2187 31.9211C18.6187 31.9211 14.0625 27.3648 14.0625 21.7648C14.0625 16.4281 18.2023 12.05 23.4375 11.6484V10.0726C17.3383 10.4758 12.5 15.5656 12.5 21.7648C12.5 28.2265 17.757 33.4836 24.2187 33.4836C30.418 33.4836 35.5078 28.6453 35.9117 22.5461H34.3359C33.9336 27.7812 29.5547 31.9211 24.2187 31.9211Z" fill="#EF5226"/>
<path d="M26.1102 34.8953C25.4906 34.9843 24.8625 35.046 24.2188 35.046C23.575 35.046 22.9469 34.9843 22.3273 34.8953L21.1266 42.7031C21.1047 42.846 21.0938 42.9914 21.0938 43.1359C21.0938 44.7062 22.3711 45.9835 23.9414 45.9835H24.4969C26.0664 45.9835 27.3438 44.7062 27.3438 43.1359C27.3438 42.9906 27.3328 42.846 27.3109 42.7023L26.1102 34.8953Z" fill="#05A7CC"/>
<path d="M32.7725 22.546H26.1045L30.8186 27.2601C31.9053 25.957 32.6107 24.3296 32.7725 22.546Z" fill="#EF5226"/>
<path d="M28.125 6.94678V17.8585H39.0367C38.6508 12.0179 33.9656 7.3335 28.125 6.94678ZM31.25 16.296H29.6875V14.7335H31.25V16.296ZM34.375 16.296H32.8125V14.7335H34.375V16.296ZM35.9375 14.7335H37.5V16.296H35.9375V14.7335Z" fill="#EF5226"/>
<path d="M6.25 22.546H10.9773C10.9617 22.2859 10.9375 22.0288 10.9375 21.7648C10.9375 14.4413 16.8953 8.48352 24.2188 8.48352H25V20.9835H37.5V21.7648C37.5 22.0288 37.4758 22.2859 37.4602 22.546H40.625C44.0711 22.546 46.875 19.7421 46.875 16.296C46.875 12.3702 43.1969 9.25305 39.1609 10.2241L38.4086 10.4046L38.2023 9.55774C37.5727 4.49133 33.2398 0.671021 28.125 0.671021C24.5039 0.671021 21.2141 2.56243 19.3883 5.64915C19.9422 6.08899 20.4508 6.59524 20.8937 7.17493L19.6516 8.12415C18.3094 6.36633 16.2719 5.35852 14.0625 5.35852C10.4289 5.35852 7.43047 8.12883 7.06797 11.6679C8.42578 11.8452 9.68359 12.4538 10.6695 13.439L9.56484 14.5445C8.67891 13.6585 7.50156 13.171 6.25 13.171C3.66484 13.171 1.5625 15.2734 1.5625 17.8585C1.5625 20.4437 3.66484 22.546 6.25 22.546ZM26.5625 5.35852H27.3438C34.6672 5.35852 40.625 11.3163 40.625 18.6398V19.421H26.5625V5.35852Z" fill="#EF5226"/>
<path d="M10.9375 24.1085V42.0773C10.9375 42.5085 10.5875 42.8585 10.1562 42.8585H4.54375C4.22031 41.9515 3.36094 41.296 2.34375 41.296C1.05156 41.296 0 42.3476 0 43.6398C0 44.932 1.05156 45.9835 2.34375 45.9835C3.36094 45.9835 4.22031 45.3281 4.54375 44.421H10.1562C11.4484 44.421 12.5 43.3695 12.5 42.0773V28.0116C11.8578 26.8101 11.4039 25.4952 11.1562 24.1085H10.9375Z" fill="#EF5226"/>
<path d="M2.34375 38.171C3.36094 38.171 4.22031 37.5156 4.54375 36.6085H7.03125C8.32344 36.6085 9.375 35.557 9.375 34.2648V24.1085H7.8125V34.2648C7.8125 34.696 7.4625 35.046 7.03125 35.046H4.54375C4.22031 34.139 3.36094 33.4835 2.34375 33.4835C1.05156 33.4835 0 34.5351 0 35.8273C0 37.1195 1.05156 38.171 2.34375 38.171Z" fill="#EF5226"/>
<path d="M46.0938 41.296C45.0766 41.296 44.2172 41.9515 43.8937 42.8585H38.2812C37.85 42.8585 37.5 42.5085 37.5 42.0773V24.1085H37.2813C37.0336 25.4952 36.5797 26.8093 35.9375 28.0116V42.0773C35.9375 43.3695 36.9891 44.421 38.2812 44.421H43.8937C44.2172 45.3281 45.0766 45.9835 46.0938 45.9835C47.3859 45.9835 48.4375 44.932 48.4375 43.6398C48.4375 42.3476 47.3859 41.296 46.0938 41.296Z" fill="#EF5226"/>
<path d="M43.8937 35.046H41.4062C40.975 35.046 40.625 34.696 40.625 34.2648V24.1085H39.0625V34.2648C39.0625 35.557 40.1141 36.6085 41.4062 36.6085H43.8937C44.2172 37.5156 45.0766 38.171 46.0938 38.171C47.3859 38.171 48.4375 37.1195 48.4375 35.8273C48.4375 34.5351 47.3859 33.4835 46.0938 33.4835C45.0766 33.4835 44.2172 34.139 43.8937 35.046Z" fill="#EF5226"/>
</svg>
