<svg width="50" height="51" viewBox="0 0 50 51" fill="none" xmlns="http://www.w3.org/2000/svg">
<path d="M24.9997 30.6844C27.9584 30.6844 30.3569 28.2859 30.3569 25.3272C30.3569 22.3686 27.9584 19.9701 24.9997 19.9701C22.0411 19.9701 19.6426 22.3686 19.6426 25.3272C19.6426 28.2859 22.0411 30.6844 24.9997 30.6844Z" fill="#05A7CC"/>
<path d="M48.2143 21.7559H40.6575C40.92 22.9064 41.0714 24.0985 41.0714 25.3273C41.0714 34.1892 33.8614 41.3987 25 41.3987C16.1386 41.3987 8.92857 34.1892 8.92857 25.3273C8.92857 24.0985 9.08002 22.9064 9.34246 21.7559H1.78571C0.801303 21.7559 0 22.5567 0 23.5416V27.113C0 28.0979 0.801303 28.8987 1.78571 28.8987H3.87399C4.41285 32.0861 5.66755 35.1139 7.53785 37.7388L6.05644 39.2132C5.719 39.5502 5.53328 39.9997 5.53328 40.4788C5.53328 40.9584 5.719 41.4079 6.05644 41.7444L8.58242 44.2704C9.25729 44.9444 10.437 44.9479 11.1154 44.2696L12.5889 42.7899C15.2134 44.6597 18.2417 45.9144 21.4286 46.4529V48.5416C21.4286 49.5264 22.2299 50.3273 23.2143 50.3273H26.7857C27.7701 50.3273 28.5714 49.5264 28.5714 48.5416V46.4529C31.7583 45.9144 34.7865 44.6597 37.4111 42.7899L38.8864 44.2713C39.5621 44.9462 40.7444 44.944 41.4167 44.2709L43.9436 41.7449C44.281 41.4079 44.4667 40.9584 44.4667 40.4788C44.4667 39.9997 44.281 39.5502 43.9427 39.2123L42.4622 37.7388C44.3325 35.1138 45.5872 32.0861 46.126 28.8987H48.2143C49.1987 28.8987 50 28.0979 50 27.113V23.5416C50 22.5567 49.1987 21.7559 48.2143 21.7559Z" fill="#EF5226"/>
<path d="M24.9996 39.613C32.8766 39.613 39.2853 33.2043 39.2853 25.3273C39.2853 24.0922 39.1112 22.8997 38.8152 21.7559H31.176C31.7868 22.8079 32.1424 24.0257 32.1424 25.3273C32.1424 29.2658 28.9381 32.4701 24.9996 32.4701C21.0611 32.4701 17.8567 29.2658 17.8567 25.3273C17.8567 24.0257 18.2124 22.8079 18.8232 21.7559H11.184C10.8879 22.8997 10.7139 24.0922 10.7139 25.3273C10.7139 33.2043 17.1226 39.613 24.9996 39.613Z" fill="#EF5226"/>
<path d="M14.5472 11.6723L17.2252 14.3502C17.3995 14.5246 17.628 14.6118 17.8564 14.6118C18.0849 14.6118 18.3133 14.5246 18.4877 14.3502C18.8365 14.0015 18.8365 13.4365 18.4877 13.0877L17.3333 11.9333H18.7493C21.7034 11.9333 24.1064 14.3363 24.1064 17.2904V18.2453C24.3996 18.2085 24.6963 18.1833 24.9993 18.1833C25.3023 18.1833 25.599 18.2085 25.8921 18.2453V17.2904C25.8921 14.3363 28.2952 11.9333 31.2493 11.9333H32.6653L31.5109 13.0877C31.1621 13.4365 31.1621 14.0015 31.5109 14.3502C31.6852 14.5246 31.9137 14.6118 32.1421 14.6118C32.3706 14.6118 32.599 14.5246 32.7734 14.3502L35.4514 11.6723C35.534 11.5898 35.5995 11.491 35.6448 11.3814C35.735 11.1633 35.735 10.9175 35.6448 10.6994C35.5995 10.5898 35.534 10.491 35.4514 10.4085L32.7734 7.73054C32.4247 7.38177 31.8596 7.38177 31.5109 7.73054C31.1621 8.07931 31.1621 8.64433 31.5109 8.99309L32.6653 10.1475H31.2493C29.1153 10.1475 27.2022 11.0932 25.8921 12.5817V3.37437L27.0466 4.52881C27.221 4.70319 27.4494 4.79039 27.6779 4.79039C27.9063 4.79039 28.1348 4.70319 28.3091 4.52881C28.6579 4.18004 28.6579 3.61502 28.3091 3.26625L25.6313 0.588442C25.5489 0.505773 25.45 0.440326 25.3404 0.394924C25.1222 0.304683 24.8763 0.304737 24.6581 0.394978C24.5485 0.440317 24.4497 0.505764 24.3672 0.588433L21.6894 3.26625C21.3407 3.61501 21.3407 4.18003 21.6894 4.5288C22.0382 4.87757 22.6032 4.87757 22.952 4.5288L24.1064 3.37436V12.5817C22.7964 11.0932 20.8833 10.1475 18.7493 10.1475H17.3333L18.4877 8.99307C18.8365 8.64431 18.8365 8.07929 18.4877 7.73052C18.1389 7.38175 17.5739 7.38175 17.2251 7.73052L14.5472 10.4085C14.4645 10.4909 14.3992 10.5898 14.3538 10.6993C14.2636 10.9175 14.2636 11.1633 14.3538 11.3815C14.3992 11.4909 14.4646 11.5898 14.5472 11.6723Z" fill="#EF5226"/>
</svg>
