<svg width="50" height="51" viewBox="0 0 50 51" fill="none" xmlns="http://www.w3.org/2000/svg">
<path d="M46.9676 22.5495C46.7512 22.5635 46.5367 22.5011 46.3615 22.3732C46.1864 22.2453 46.0617 22.0599 46.0093 21.8495C45.4822 18.6247 44.2106 15.5673 42.2954 12.9199C42.1663 12.7419 42.1047 12.5239 42.1217 12.3047C42.1386 12.0855 42.233 11.8795 42.388 11.7236L44.5667 9.54394L40.713 5.6819L38.5685 7.82727C38.4158 7.99956 38.2047 8.10919 37.9759 8.13501C37.7471 8.16083 37.5169 8.10101 37.3296 7.96709C34.6927 6.08105 31.654 4.83285 28.4528 4.32079C28.2283 4.28443 28.0251 4.16675 27.8818 3.99019C27.7386 3.81362 27.6653 3.59051 27.6759 3.36338V0.327271H22.2222V3.41986C22.2222 3.63877 22.1446 3.85058 22.0032 4.01771C21.8619 4.18485 21.6659 4.29649 21.45 4.33283C18.249 4.86434 15.2152 6.13224 12.588 8.03653C12.41 8.16562 12.192 8.22719 11.9728 8.21023C11.7536 8.19326 11.5476 8.09887 11.3917 7.94394L9.21296 5.75597L5.35556 9.61338L7.51019 11.768C7.67874 11.9201 7.78554 12.1288 7.81029 12.3545C7.83504 12.5802 7.77602 12.8071 7.64444 12.9921C5.7561 15.6299 4.50628 18.6703 3.99352 21.8736C3.95834 22.0906 3.84707 22.288 3.67963 22.4305C3.51219 22.5731 3.2995 22.6513 3.07963 22.6513H0V28.105H3.04074C3.2677 28.0937 3.49099 28.1656 3.66865 28.3073C3.84632 28.449 3.96612 28.6507 4.00556 28.8745C4.53596 32.0744 5.80225 35.1075 7.70463 37.7347C7.83372 37.9126 7.89529 38.1307 7.87833 38.3499C7.86136 38.569 7.76697 38.775 7.61204 38.931L5.43333 41.1097L9.29074 44.9671L11.4444 42.8143C11.5963 42.6455 11.8049 42.5383 12.0306 42.5132C12.2563 42.4881 12.4833 42.5468 12.6685 42.6782C15.3066 44.5666 18.3473 45.8164 21.5509 46.3291C21.768 46.3643 21.9654 46.4756 22.1079 46.643C22.2504 46.8105 22.3287 47.0231 22.3287 47.243V50.3273H27.7778V47.28C27.7664 47.0536 27.8386 46.8308 27.9806 46.654C28.1226 46.4772 28.3246 46.3586 28.5481 46.3208C31.7486 45.7906 34.7822 44.5246 37.4102 42.6226C37.5881 42.4936 37.8062 42.432 38.0254 42.4489C38.2445 42.4659 38.4505 42.5603 38.6065 42.7152L40.7852 44.8939L44.6426 41.0375L42.488 38.8828C42.3194 38.7307 42.2126 38.522 42.1879 38.2963C42.1631 38.0707 42.2221 37.8438 42.3537 37.6588C44.2422 35.021 45.492 31.9806 46.0046 28.7773C46.0398 28.5602 46.1511 28.3628 46.3185 28.2203C46.486 28.0778 46.6986 27.9995 46.9185 27.9995H50V22.5495H46.9676ZM5.57222 25.3273C5.57222 20.1747 7.61907 15.2332 11.2625 11.5898C14.9059 7.94634 19.8474 5.89949 25 5.89949C30.1526 5.89949 35.0941 7.94634 38.7375 11.5898C42.3809 15.2332 44.4278 20.1747 44.4278 25.3273C43.3639 51.093 6.63981 51.1004 5.57222 25.3273ZM7.42407 25.3273C7.42407 29.9887 9.27582 34.4592 12.5719 37.7553C15.8681 41.0515 20.3386 42.9032 25 42.9032C29.6614 42.9032 34.1319 41.0515 37.4281 37.7553C40.7242 34.4592 42.5759 29.9887 42.5759 25.3273C41.6139 2.01709 8.38889 2.00968 7.42407 25.3273ZM37.037 30.8828C37.0369 31.0629 36.9843 31.2391 36.8857 31.3897C36.787 31.5403 36.6465 31.6589 36.4815 31.731L25.3704 36.5921C25.1328 36.6883 24.8672 36.6883 24.6296 36.5921L13.5185 31.731C13.3535 31.6589 13.213 31.5403 13.1143 31.3897C13.0157 31.2391 12.9631 31.0629 12.963 30.8828V19.7717C12.9675 19.5927 13.0219 19.4184 13.1201 19.2686C13.2182 19.1188 13.3562 18.9993 13.5185 18.9236L24.6296 14.0625C24.7465 14.0118 24.8726 13.9857 25 13.9857C25.1274 13.9857 25.2535 14.0118 25.3704 14.0625L36.4815 18.9236C36.7065 19.0279 36.8819 19.2159 36.9704 19.4476C37.0149 19.5499 37.0376 19.6602 37.037 19.7717V30.8828ZM33.8009 19.7717L25 23.6217L16.2037 19.7717L25 15.9217L33.8009 19.7717ZM14.8148 21.1875L24.0741 25.2347V34.3245L14.8148 30.2773V21.1875ZM25.9259 25.2347L35.1852 21.1838V30.2736L25.9259 34.3282V25.2347Z" fill="#EF5226"/>
</svg>
