<svg width="51" height="51" viewBox="0 0 51 51" fill="none" xmlns="http://www.w3.org/2000/svg">
<path d="M47.362 29.924V20.4429C53.0085 18.2512 49.2023 10.1434 43.9019 13.0905L37.2279 6.60299C37.5468 6.09633 37.7508 5.5259 37.8254 4.93189C37.9 4.33787 37.8434 3.73473 37.6596 3.16495C37.4759 2.59517 37.1694 2.07263 36.7618 1.63413C36.3542 1.19563 35.8554 0.851844 35.3005 0.627002C34.7457 0.40216 34.1483 0.301728 33.5504 0.332783C32.9525 0.363838 32.3687 0.525625 31.8402 0.806743C31.3116 1.08786 30.8511 1.48147 30.4911 1.95984C30.1312 2.43821 29.8805 2.9897 29.7567 3.57545H20.4538C18.6573 -2.54286 9.82807 1.32444 13.076 6.81522L6.40182 13.3025C1.92473 10.8441 -2.19614 16.9728 1.9327 20.1342L1.93265 30.9004C1.08891 31.5666 0.541246 32.5381 0.40803 33.6048C0.274815 34.6716 0.566755 35.7479 1.22074 36.6012C1.87473 37.4544 2.83823 38.0161 3.90297 38.1646C4.96771 38.3132 6.04815 38.0368 6.91074 37.3952L13.4999 43.7979C12.9522 44.5036 12.6566 45.3724 12.6603 46.2657C12.6706 47.3149 13.0827 48.3204 13.8117 49.0751C14.5407 49.8298 15.5312 50.2765 16.5795 50.3232C17.6278 50.3699 18.6541 50.0131 19.4473 49.3261C20.2405 48.6392 20.7403 47.6744 20.8439 46.6302L29.9857 46.6303C30.06 47.2594 30.2793 47.8626 30.6264 48.3925C30.9735 48.9224 31.4389 49.3645 31.9859 49.6839C32.5329 50.0034 33.1466 50.1915 33.7787 50.2334C34.4107 50.2753 35.0439 50.1699 35.6283 49.9255C36.2127 49.6811 36.7324 49.3044 37.1464 48.825C37.5604 48.3456 37.8575 47.7766 38.0142 47.1628C38.171 46.549 38.183 45.9073 38.0495 45.2881C37.9161 44.6688 37.6406 44.0891 37.2449 43.5944L43.8342 37.1917C49.1445 40.5623 53.2921 32.0743 47.362 29.924ZM45.6659 29.7798C44.9946 29.8726 44.3565 30.1295 43.8082 30.5277C43.2598 30.9259 42.8181 31.4531 42.5221 32.0628C42.2261 32.6724 42.085 33.3456 42.1112 34.0228C42.1375 34.7 42.3302 35.3602 42.6725 35.9452L35.9135 42.5089C35.3818 42.2409 34.7982 42.0914 34.2031 42.0707C33.608 42.0501 33.0155 42.1588 32.4665 42.3894C31.9175 42.62 31.425 42.9669 31.0231 43.4063C30.6211 43.8456 30.3193 44.367 30.1384 44.9343L20.6318 44.9342C20.4329 44.3727 20.1148 43.8608 19.6993 43.4337C19.2839 43.0067 18.7809 42.6746 18.225 42.4603C17.6691 42.246 17.0734 42.1546 16.4788 42.1923C15.8842 42.2299 15.3048 42.3958 14.7804 42.6785L8.03006 36.1147C8.40305 35.4295 8.57324 34.6522 8.52071 33.8738C8.46818 33.0954 8.19511 32.3481 7.73344 31.7192C7.27176 31.0903 6.64056 30.6058 5.91366 30.3225C5.18677 30.0391 4.39422 29.9686 3.62871 30.1191V20.8717C3.86353 20.917 4.10197 20.941 4.34111 20.9433C5.09167 20.9359 5.8259 20.7232 6.4642 20.3283C7.1025 19.9333 7.62052 19.3712 7.96211 18.7028C8.3037 18.0345 8.45583 17.2854 8.40201 16.5367C8.34818 15.788 8.09046 15.0684 7.65677 14.4557L14.2971 8.00221C14.8648 8.3531 15.5093 8.56068 16.175 8.60709C16.8408 8.65349 17.5078 8.53732 18.1187 8.26858C18.7296 7.99983 19.266 7.58659 19.6816 7.06445C20.0973 6.5423 20.3797 5.92693 20.5046 5.27135L29.7567 5.2715C29.903 5.92266 30.2049 6.52869 30.6364 7.03776C31.068 7.54682 31.6165 7.94377 32.2349 8.19464C32.8534 8.44551 33.5234 8.54283 34.1877 8.47829C34.8519 8.41375 35.4907 8.18926 36.0492 7.82402L42.6724 14.2692C42.2855 14.8594 42.0562 15.5389 42.0065 16.2429C41.9568 16.9469 42.0884 17.6519 42.3886 18.2906C42.6888 18.9293 43.1477 19.4804 43.7215 19.8913C44.2952 20.3023 44.9647 20.5593 45.6661 20.638L45.6659 29.7798Z" fill="#EF5226"/>
<path d="M39.1242 21.3682H37.3752C37.1439 20.6116 36.841 19.8789 36.4706 19.1798L37.7112 17.9391C38.051 17.5966 38.2418 17.1337 38.2418 16.6512C38.2418 16.1687 38.051 15.7057 37.7112 15.3632L35.0059 12.6579C34.6575 12.3261 34.1948 12.141 33.7136 12.141C33.2325 12.141 32.7697 12.3261 32.4213 12.6579L31.1807 13.8985C30.4846 13.5282 29.7548 13.2253 29.0011 12.994V11.2365C29.0008 10.7521 28.8083 10.2877 28.4658 9.94516C28.1233 9.60267 27.6589 9.41015 27.1745 9.40991H23.3494C22.865 9.41017 22.4006 9.60269 22.0581 9.94518C21.7156 10.2877 21.5231 10.7521 21.5229 11.2365V12.994C20.7697 13.2269 20.04 13.5297 19.3432 13.8986L18.1026 12.658C17.7542 12.3261 17.2915 12.141 16.8103 12.141C16.3291 12.141 15.8664 12.3261 15.518 12.658L12.8127 15.3632C12.4729 15.7057 12.2821 16.1687 12.2821 16.6512C12.2821 17.1337 12.4729 17.5967 12.8127 17.9392L14.0533 19.1798C13.6829 19.8789 13.38 20.6116 13.1487 21.3682H11.3997C10.9154 21.3684 10.4509 21.5609 10.1085 21.9034C9.76599 22.2459 9.57348 22.7103 9.57324 23.1946V27.0199C9.57349 27.5042 9.766 27.9686 10.1085 28.3111C10.4509 28.6535 10.9154 28.846 11.3997 28.8463H13.1487C13.3816 29.5995 13.6845 30.3292 14.0533 31.026L12.8127 32.2666C12.4731 32.611 12.2828 33.0752 12.2828 33.5589C12.2828 34.0425 12.4731 34.5068 12.8127 34.8512L15.5179 37.5565C15.8663 37.8883 16.329 38.0734 16.8102 38.0734C17.2914 38.0734 17.7541 37.8883 18.1025 37.5565L19.3431 36.3158C20.0399 36.6847 20.7696 36.9875 21.5228 37.2204V38.9694C21.5231 39.4538 21.7156 39.9182 22.0581 40.2607C22.4006 40.6032 22.865 40.7957 23.3494 40.7959H27.1745C27.6589 40.7956 28.1233 40.6031 28.4658 40.2607C28.8083 39.9182 29.0008 39.4538 29.0011 38.9694V37.2205C29.7548 36.9891 30.4847 36.6862 31.1807 36.3159L32.4213 37.5565C32.7697 37.8883 33.2325 38.0734 33.7136 38.0734C34.1948 38.0734 34.6575 37.8883 35.006 37.5565L37.7112 34.8512C38.0507 34.5068 38.2411 34.0426 38.2411 33.5589C38.2411 33.0753 38.0507 32.611 37.7112 32.2666L36.4706 31.026C36.8394 30.3292 37.1423 29.5995 37.3752 28.8463H39.1242C39.6085 28.8461 40.073 28.6536 40.4154 28.3111C40.7579 27.9686 40.9504 27.5042 40.9506 27.0199V23.1946C40.9504 22.7103 40.7579 22.2459 40.4154 21.9034C40.0729 21.5609 39.6085 21.3684 39.1242 21.3682ZM18.4213 25.1072C18.4198 24.2079 18.5957 23.3172 18.9389 22.486C19.282 21.6548 19.7857 20.8994 20.421 20.2631C21.0564 19.6267 21.811 19.1218 22.6416 18.7774C23.4723 18.4329 24.3627 18.2556 25.262 18.2556C26.1612 18.2556 27.0516 18.4329 27.8823 18.7774C28.7129 19.1219 29.4675 19.6267 30.1029 20.2631C30.7382 20.8995 31.2419 21.6549 31.585 22.4861C31.9282 23.3173 32.104 24.208 32.1026 25.1072C31.7292 34.1827 18.7933 34.18 18.4213 25.1072Z" fill="#EF5226"/>
<path d="M20.1445 25.1073C20.3856 31.8809 30.14 31.878 30.3796 25.1071C30.1414 18.3221 20.3817 18.3239 20.1445 25.1073Z" fill="#05A7CC"/>
</svg>
