<svg width="46" height="51" viewBox="0 0 46 51" fill="none" xmlns="http://www.w3.org/2000/svg">
<path d="M41.406 39.1474V33.4075C41.406 32.8575 40.9594 32.4076 40.4137 32.4076H23.9922V28.9976C24.4487 28.9676 24.9249 28.9076 25.4211 28.8176C25.689 28.7776 25.937 28.6176 26.0858 28.3876C26.2347 28.1576 26.2843 27.8776 26.2248 27.6076C25.9965 26.6076 26.7407 25.4077 27.9711 24.8077C29.1915 24.2177 30.5906 24.3777 31.2256 25.1777C31.3943 25.3977 31.6424 25.5377 31.9103 25.5577C32.1881 25.5777 32.456 25.4877 32.6644 25.3077C33.8947 24.1977 34.9167 22.9077 35.7006 21.4877C35.8296 21.2477 35.8594 20.9577 35.7701 20.6977C35.6907 20.4377 35.5022 20.2177 35.2541 20.0977C34.3313 19.6577 33.855 18.3178 34.1626 16.9778C34.4603 15.6478 35.4525 14.6478 36.4745 14.6478H36.4845C36.7524 14.6478 37.0104 14.5378 37.1989 14.3378C37.3874 14.1378 37.4866 13.8678 37.4767 13.5878C37.3775 11.9179 37.0203 10.3079 36.4051 8.81791C36.3059 8.55792 36.0975 8.35792 35.8395 8.26792C35.5815 8.16792 35.2938 8.17792 35.0557 8.29792C34.1329 8.75791 32.8033 8.29792 31.95 7.21794C31.1066 6.14795 30.9478 4.73798 31.5828 3.93799C31.7614 3.71799 31.8309 3.448 31.8011 3.168C31.7614 2.898 31.6126 2.64801 31.3943 2.48801C30.0548 1.53803 28.5863 0.818036 27.0185 0.368043C26.7506 0.288045 26.4728 0.328044 26.2347 0.468042C25.9965 0.60804 25.8279 0.838036 25.7683 1.10803C25.55 2.11802 24.3594 2.868 23 2.868C21.6406 2.868 20.44 2.11802 20.2217 1.10803C20.1622 0.838036 20.0035 0.60804 19.7653 0.468042C19.5272 0.328044 19.2394 0.288045 18.9814 0.368043C17.4137 0.818036 15.9452 1.53803 14.6057 2.48801C14.3874 2.64801 14.2386 2.898 14.1989 3.168C14.1592 3.448 14.2386 3.71799 14.4072 3.93799C15.0522 4.73798 14.8934 6.14795 14.05 7.21794C13.1967 8.28792 11.8671 8.75791 10.9443 8.29792C10.6963 8.17792 10.4085 8.16792 10.1605 8.26792C9.9025 8.35792 9.69413 8.55792 9.58499 8.81791C8.97972 10.3079 8.6126 11.9179 8.5233 13.5878C8.51337 13.8678 8.60268 14.1378 8.7912 14.3378C8.97972 14.5378 9.24763 14.6478 9.51553 14.6478H9.52545C10.5375 14.6478 11.5298 15.6478 11.8374 16.9778C12.135 18.3178 11.6687 19.6577 10.7459 20.0977C10.4978 20.2177 10.3093 20.4377 10.22 20.6977C10.1406 20.9577 10.1704 21.2477 10.2994 21.4877C11.0833 22.9077 12.1053 24.1977 13.3356 25.3077C13.5341 25.4877 13.802 25.5877 14.0798 25.5577C14.3576 25.5377 14.6057 25.3977 14.7744 25.1777C15.4094 24.3777 16.8085 24.2177 18.0289 24.8077C19.2593 25.4077 20.0035 26.6076 19.7752 27.6076C19.7058 27.8776 19.7653 28.1576 19.9141 28.3876C20.063 28.6176 20.3011 28.7776 20.569 28.8176C21.0751 28.9076 21.5513 28.9676 22.0078 28.9976V32.4076H5.58628C5.04055 32.4076 4.59405 32.8575 4.59405 33.4075V39.1474C1.98447 39.6274 0 41.9274 0 44.6874C0 47.7973 2.50043 50.3273 5.58628 50.3273C8.67213 50.3273 11.1825 47.7973 11.1825 44.6874C11.1825 41.9274 9.18809 39.6274 6.57852 39.1474V34.4075H22.0078V39.1474C19.3982 39.6274 17.4038 41.9274 17.4038 44.6874C17.4038 47.7973 19.9142 50.3273 23 50.3273C26.0858 50.3273 28.5863 47.7973 28.5863 44.6874C28.5863 41.9274 26.6018 39.6274 23.9922 39.1474V34.4075H39.4215V39.1474C36.8119 39.6274 34.8175 41.9274 34.8175 44.6874C34.8175 47.7973 37.3279 50.3273 40.4137 50.3273C43.4896 50.3273 46 47.7973 46 44.6874C46 41.9274 44.0155 39.6274 41.406 39.1474ZM17.5229 14.4178C17.5229 11.3679 19.9836 8.89791 23 8.89791C26.0164 8.89791 28.4771 11.3679 28.4771 14.4178C28.4771 17.4578 26.0164 19.9277 23 19.9277C19.9836 19.9277 17.5229 17.4578 17.5229 14.4178Z" fill="#EF5226"/>
</svg>
