<svg width="51" height="50" viewBox="0 0 51 50" fill="none" xmlns="http://www.w3.org/2000/svg">
<path fill-rule="evenodd" clip-rule="evenodd" d="M26.0625 0H49.7771C50.3323 0 50.7852 0.452823 50.7852 1.00806V6.10313C50.7852 6.65837 50.3323 7.11119 49.7771 7.11119H26.0625C25.5072 7.11119 25.0544 6.65837 25.0544 6.10313V1.00806C25.0545 0.452823 25.5073 0 26.0625 0ZM10.5725 1.40817C11.5148 1.59325 12.3905 1.96411 13.1601 2.48085L14.54 1.86794L15.728 3.05585L15.1153 4.43538C15.6321 5.20504 16.003 6.08095 16.1881 7.02359L17.5958 7.56542V9.24536L16.1877 9.7874C16.0026 10.7297 15.6317 11.6053 15.115 12.375L15.7279 13.7549L14.54 14.9429L13.1605 14.3302C12.3908 14.8471 11.5149 15.2179 10.5723 15.403L10.0304 16.8108H8.35058L7.80854 15.4026C6.8662 15.2175 5.9906 14.8467 5.22094 14.3299L3.841 14.9428L2.6531 13.7548L3.2658 12.3753C2.74897 11.6056 2.3782 10.7296 2.19302 9.7871L0.785156 9.24526V7.56532L2.19322 7.02339C2.3783 6.08095 2.74917 5.20514 3.2659 4.43558L2.6531 3.05585L3.841 1.86784L5.22094 2.48075C5.9906 1.96411 6.8661 1.59315 7.80854 1.40806L8.35058 0H10.0305L10.5725 1.40817ZM9.1905 4.69446C7.1411 4.69446 5.47961 6.35585 5.47961 8.40534C5.47961 10.4547 7.141 12.1162 9.1905 12.1162C11.2399 12.1162 12.9014 10.4548 12.9014 8.40534C12.9014 6.35585 11.2399 4.69446 9.1905 4.69446ZM46.0369 29.4903H50.2811C50.5587 29.4903 50.7852 29.7167 50.7852 29.9944V49.4958C50.7852 49.7734 50.5587 49.9998 50.2811 49.9998H46.0369C45.7592 49.9998 45.5328 49.7734 45.5328 49.4958V29.9944C45.5328 29.7167 45.7592 29.4903 46.0369 29.4903ZM34.8499 24.1727H39.0941C39.3717 24.1727 39.5982 24.3991 39.5982 24.6767V49.496C39.5982 49.7736 39.3717 50 39.0941 50H34.8499C34.5723 50 34.3458 49.7736 34.3458 49.496V24.6767C34.3459 24.3991 34.5724 24.1727 34.8499 24.1727ZM23.663 34.6444H27.9073C28.185 34.6444 28.4114 34.8708 28.4114 35.1484V49.496C28.4114 49.7736 28.185 50 27.9073 50C26.4925 50 25.0778 50 23.663 50C23.3854 50 23.1589 49.7736 23.1589 49.496C23.1589 44.3943 23.1589 40.2501 23.1589 35.1484C23.1589 34.8708 23.3854 34.6444 23.663 34.6444ZM12.4761 31.0624H16.7203C16.998 31.0624 17.2244 31.2888 17.2244 31.5664V49.496C17.2244 49.7736 16.998 50 16.7203 50H12.4761C12.1985 50 11.9721 49.7736 11.9721 49.496V31.5663C11.9721 31.2888 12.1985 31.0624 12.4761 31.0624ZM1.28919 39.9237H5.53344C5.81106 39.9237 6.03748 40.1501 6.03748 40.4277V49.4959C6.03748 49.7735 5.81106 49.9999 5.53344 49.9999H1.28919C1.01157 49.9999 0.785156 49.7735 0.785156 49.4959V40.4277C0.785156 40.1501 1.01157 39.9237 1.28919 39.9237ZM48.1589 17.4943C47.4257 17.4943 46.7656 17.8076 46.3051 18.3074L39.4808 15.2634C39.4883 15.1848 39.4922 15.105 39.4922 15.0245C39.4922 13.6327 38.3639 12.5043 36.972 12.5043C35.5802 12.5043 34.4519 13.6327 34.4519 15.0245C34.4519 15.3845 34.5275 15.7267 34.6635 16.0364L27.0103 22.999C26.6476 22.7969 26.2299 22.6816 25.7853 22.6816C25.0405 22.6816 24.3713 23.0046 23.9101 23.5182L17.1102 20.5943C17.1155 20.5272 17.1183 20.4596 17.1183 20.3911C17.1183 18.9993 15.99 17.871 14.5982 17.871C13.2063 17.871 12.078 18.9993 12.078 20.3911C12.078 20.673 12.1243 20.9439 12.2097 21.1969L4.8286 26.8013C4.42477 26.5261 3.93687 26.3651 3.41126 26.3651C2.01943 26.3651 0.891104 27.4934 0.891104 28.8853C0.891104 30.2771 2.01943 31.4054 3.41126 31.4054C4.8031 31.4054 5.93143 30.2771 5.93143 28.8853C5.93143 28.6034 5.88516 28.3325 5.79977 28.0795L13.1808 22.4751C13.5847 22.7503 14.0726 22.9113 14.5982 22.9113C15.3428 22.9113 16.0121 22.5882 16.4734 22.0746L23.2733 24.9986C23.2679 25.0655 23.2651 25.1333 23.2651 25.2016C23.2651 26.5934 24.3934 27.7218 25.7853 27.7218C27.1771 27.7218 28.3054 26.5934 28.3054 25.2016C28.3054 24.8417 28.2298 24.4994 28.0938 24.1897L35.7472 17.2271C36.1098 17.4292 36.5275 17.5446 36.972 17.5446C37.7053 17.5446 38.3654 17.2314 38.8259 16.7314L45.6502 19.7753C45.6427 19.8539 45.6388 19.9337 45.6388 20.0142C45.6388 21.406 46.7671 22.5344 48.1589 22.5344C49.5508 22.5344 50.6791 21.406 50.6791 20.0142C50.6791 18.6226 49.5508 17.4943 48.1589 17.4943ZM28.4188 4.38942H35.3745C35.8198 4.38942 36.1809 4.02833 36.1809 3.58296C36.1809 3.1376 35.8198 2.77651 35.3745 2.77651H28.4188C27.9735 2.77651 27.6124 3.1376 27.6124 3.58296C27.6124 4.02833 27.9735 4.38942 28.4188 4.38942ZM42.9098 4.38942H47.4208C47.8662 4.38942 48.2273 4.02833 48.2273 3.58296C48.2273 3.1376 47.8662 2.77651 47.4208 2.77651H42.9098C42.4644 2.77651 42.1033 3.1376 42.1033 3.58296C42.1033 4.02833 42.4644 4.38942 42.9098 4.38942ZM38.8019 4.38942H39.8352C40.2805 4.38942 40.6416 4.02833 40.6416 3.58296C40.6416 3.1376 40.2805 2.77651 39.8352 2.77651H38.8019C38.3565 2.77651 37.9954 3.1376 37.9954 3.58296C37.9954 4.02833 38.3565 4.38942 38.8019 4.38942Z" fill="#EF5226"/>
</svg>
