<svg width="50" height="50" viewBox="0 0 50 50" fill="none" xmlns="http://www.w3.org/2000/svg">
<path d="M49.6946 30.5134L47.6112 28.4301C47.2007 28.0202 46.5404 28.0283 46.138 28.4301L44.0547 30.5134C43.6479 30.9202 43.6479 31.5798 44.0547 31.9867C44.4616 32.3933 45.1209 32.3933 45.5279 31.9867L45.833 31.6816V43.75H37.4997C36.9244 43.75 36.458 44.2165 36.458 44.7917C36.458 45.3669 36.9244 45.8333 37.4997 45.8333H46.8747C47.4499 45.8333 47.9163 45.3669 47.9163 44.7917V31.6816L48.2214 31.9867C48.6284 32.3936 49.2877 32.3933 49.6947 31.9867C50.1013 31.5798 50.1013 30.9202 49.6946 30.5134Z" fill="#05A7CC"/>
<path d="M21.8753 17.7083V18.5989C22.3946 18.7826 22.905 18.9942 23.4025 19.2321L24.0327 18.6019C25.2538 17.3807 27.2306 17.3804 28.4522 18.6019L31.3984 21.5481C32.3301 22.4798 32.5484 23.8579 32.0553 24.9999H43.7503C44.3255 24.9999 44.792 24.5335 44.792 23.9582V1.04167C44.792 0.466354 44.3255 0 43.7503 0H20.8337C20.2583 0 19.792 0.466354 19.792 1.04167V14.7625C21.0044 15.1925 21.8753 16.3504 21.8753 17.7083ZM30.2087 4.16667H39.5837C40.1589 4.16667 40.6253 4.63302 40.6253 5.20833C40.6253 5.78365 40.1589 6.25 39.5837 6.25H30.2087C29.6333 6.25 29.167 5.78365 29.167 5.20833C29.167 4.63302 29.6333 4.16667 30.2087 4.16667ZM30.2087 8.33333H39.5837C40.1589 8.33333 40.6253 8.79969 40.6253 9.375C40.6253 9.95031 40.1589 10.4167 39.5837 10.4167H30.2087C29.6333 10.4167 29.167 9.95031 29.167 9.375C29.167 8.79969 29.6333 8.33333 30.2087 8.33333ZM30.2087 12.5H39.5837C40.1589 12.5 40.6253 12.9664 40.6253 13.5417C40.6253 14.117 40.1589 14.5833 39.5837 14.5833H30.2087C29.6333 14.5833 29.167 14.117 29.167 13.5417C29.167 12.9664 29.6333 12.5 30.2087 12.5ZM25.0003 4.16667H26.042C26.6173 4.16667 27.0837 4.63302 27.0837 5.20833C27.0837 5.78365 26.6173 6.25 26.042 6.25H25.0003C24.425 6.25 23.9587 5.78365 23.9587 5.20833C23.9587 4.63302 24.425 4.16667 25.0003 4.16667ZM25.0003 8.33333H26.042C26.6173 8.33333 27.0837 8.79969 27.0837 9.375C27.0837 9.95031 26.6173 10.4167 26.042 10.4167H25.0003C24.425 10.4167 23.9587 9.95031 23.9587 9.375C23.9587 8.79969 24.425 8.33333 25.0003 8.33333ZM25.0003 12.5H26.042C26.6173 12.5 27.0837 12.9664 27.0837 13.5417C27.0837 14.117 26.6173 14.5833 26.042 14.5833H25.0003C24.425 14.5833 23.9587 14.117 23.9587 13.5417C23.9587 12.9664 24.425 12.5 25.0003 12.5Z" fill="#EF5226"/>
<path d="M16.6667 26.0416C12.646 26.0416 9.375 29.3127 9.375 33.3333C9.375 37.3539 12.646 40.625 16.6667 40.625C20.6873 40.625 23.9583 37.3539 23.9583 33.3333C23.9583 29.3127 20.6873 26.0416 16.6667 26.0416ZM20.5282 30.9449L17.4032 34.0699C17.2079 34.2652 16.9429 34.375 16.6667 34.375H13.5417C12.9664 34.375 12.5 33.9085 12.5 33.3333C12.5 32.7581 12.9664 32.2916 13.5417 32.2916H16.2352L19.0551 29.4717C19.4619 29.0651 20.1215 29.0651 20.5283 29.4717C20.935 29.8785 20.935 30.5381 20.5282 30.9449Z" fill="#EF5226"/>
<path d="M32.2917 30.2083H30.6442C30.1836 30.2083 29.7782 29.9057 29.6469 29.4644C29.379 28.5645 29.0201 27.7038 28.5808 26.893C28.3611 26.4875 28.4331 25.9863 28.7592 25.6603L29.9249 24.4945C30.3317 24.0878 30.3317 23.4282 29.9249 23.0214L26.9786 20.0752C26.5719 19.6684 25.9123 19.6684 25.5055 20.0752L24.3398 21.2409C24.0137 21.567 23.5126 21.6389 23.1071 21.4192C22.2962 20.98 21.4355 20.621 20.5356 20.3532C20.0943 20.2218 19.7918 19.8164 19.7918 19.3559V17.7083C19.7918 17.133 19.3254 16.6666 18.7501 16.6666H14.5834C14.0081 16.6666 13.5418 17.133 13.5418 17.7083V19.3558C13.5418 19.8162 13.2393 20.2217 12.7979 20.3531C11.8979 20.621 11.0373 20.9799 10.2265 21.4191C9.82094 21.6388 9.31979 21.5668 8.99375 21.2408L7.82802 20.0751C7.42125 19.6683 6.76167 19.6683 6.3549 20.0751L3.40865 23.0213C3.00187 23.4281 3.00187 24.0877 3.40865 24.4944L4.57438 25.6602C4.90052 25.9862 4.9724 26.4874 4.75271 26.8929C4.31344 27.7037 3.95448 28.5644 3.68667 29.4643C3.55531 29.9057 3.1499 30.2082 2.68938 30.2082H1.04167C0.466354 30.2082 0 30.6745 0 31.2499V35.4165C0 35.9918 0.466354 36.4582 1.04167 36.4582H2.68917C3.14958 36.4582 3.5551 36.7608 3.68646 37.202C3.95427 38.102 4.31323 38.9627 4.7525 39.7735C4.97219 40.179 4.90021 40.6802 4.57417 41.0062L3.40844 42.1719C3.00167 42.5787 3.00167 43.2383 3.40844 43.6451L6.35469 46.5913C6.76146 46.9981 7.42104 46.9981 7.82781 46.5913L8.99354 45.4256C9.31969 45.0995 9.82073 45.0276 10.2262 45.2472C11.0371 45.6865 11.8978 46.0455 12.7977 46.3133C13.2391 46.4446 13.5416 46.8501 13.5416 47.3106V48.9583C13.5416 49.5336 14.0079 50 14.5832 50H18.7499C19.3252 50 19.7916 49.5336 19.7916 48.9583V47.3108C19.7916 46.8504 20.0941 46.4449 20.5354 46.3135C21.4354 46.0456 22.296 45.6867 23.1069 45.2475C23.5124 45.0278 24.0135 45.0998 24.3396 45.4258L25.5053 46.5915C25.9121 46.9983 26.5717 46.9983 26.9784 46.5915L29.9247 43.6453C30.3315 43.2385 30.3315 42.5789 29.9247 42.1721L28.759 41.0064C28.4329 40.6804 28.3609 40.1792 28.5806 39.7737C29.0199 38.9629 29.3789 38.1021 29.6467 37.2023C29.778 36.7609 30.1834 36.4584 30.644 36.4584H32.2917C32.867 36.4584 33.3333 35.992 33.3333 35.4167V31.2501C33.3333 30.6746 32.867 30.2083 32.2917 30.2083ZM16.6667 42.7083C11.4973 42.7083 7.29167 38.5027 7.29167 33.3333C7.29167 28.1639 11.4973 23.9583 16.6667 23.9583C21.836 23.9583 26.0417 28.1639 26.0417 33.3333C26.0417 38.5027 21.836 42.7083 16.6667 42.7083Z" fill="#EF5226"/>
<path d="M3.12467 8.33333H4.27113C4.68645 10.3711 6.2952 11.9799 8.33301 12.3952V13.5417C8.33301 14.117 8.79936 14.5833 9.37467 14.5833C9.94999 14.5833 10.4163 14.117 10.4163 13.5417V12.3952C12.4542 11.9799 14.0629 10.3711 14.4782 8.33333H15.6247C16.2 8.33333 16.6663 7.86698 16.6663 7.29167C16.6663 6.71635 16.2 6.25 15.6247 6.25H14.4782C14.0629 4.21219 12.454 2.60344 10.4163 2.18813V1.04167C10.4163 0.466354 9.94999 0 9.37467 0C8.79936 0 8.33301 0.466354 8.33301 1.04167V2.18813C6.2952 2.60344 4.68645 4.21219 4.27113 6.25H3.12467C2.54936 6.25 2.08301 6.71635 2.08301 7.29167C2.08301 7.86698 2.54936 8.33333 3.12467 8.33333ZM9.37467 4.16667C11.0978 4.16667 12.4997 5.56854 12.4997 7.29167C12.4997 9.01479 11.0978 10.4167 9.37467 10.4167C7.65155 10.4167 6.24967 9.01479 6.24967 7.29167C6.24967 5.56854 7.65155 4.16667 9.37467 4.16667Z" fill="#AA3A1B"/>
</svg>
