<svg width="50" height="50" viewBox="0 0 50 50" fill="none" xmlns="http://www.w3.org/2000/svg">
<path d="M46.1527 0H3.84606C2.82602 0 1.84776 0.405209 1.12649 1.12649C0.405209 1.84776 0 2.82602 0 3.84606V38.4606C0 39.4806 0.405209 40.4589 1.12649 41.1802C1.84776 41.9015 2.82602 42.3067 3.84606 42.3067H14.1343C14.9262 44.5559 16.3967 46.5039 18.3429 47.8819C20.289 49.2599 22.6148 50 24.9994 50C27.384 50 29.7098 49.2599 31.6559 47.8819C33.6021 46.5039 35.0726 44.5559 35.8645 42.3067H46.1527C47.1728 42.3067 48.151 41.9015 48.8723 41.1802C49.5936 40.4589 49.9988 39.4806 49.9988 38.4606V3.84606C49.9988 2.82602 49.5936 1.84776 48.8723 1.12649C48.151 0.405209 47.1728 0 46.1527 0ZM7.69212 9.61515C7.69212 9.10513 7.89473 8.616 8.25537 8.25536C8.616 7.89473 9.10513 7.69212 9.61515 7.69212H13.4612C13.9712 7.69212 14.4604 7.89473 14.821 8.25536C15.1816 8.616 15.3842 9.10513 15.3842 9.61515C15.3842 10.1252 15.1816 10.6143 14.821 10.9749C14.4604 11.3356 13.9712 11.5382 13.4612 11.5382H9.61515C9.10513 11.5382 8.616 11.3356 8.25537 10.9749C7.89473 10.6143 7.69212 10.1252 7.69212 9.61515ZM46.1527 9.61515H24.3783L22.0706 3.84606H46.1527V9.61515ZM24.9994 46.1527C23.7462 46.1596 22.5104 45.8602 21.3994 45.2805C20.2883 44.7008 19.3357 43.8585 18.6244 42.8268C17.9131 41.795 17.4647 40.6051 17.3181 39.3606C17.1715 38.116 17.3311 36.8545 17.7832 35.6857C18.2353 34.5169 18.9661 33.4763 19.9121 32.6544C20.858 31.8324 21.9905 31.254 23.2109 30.9695C24.4314 30.685 25.7028 30.7029 26.9147 31.0218C28.1267 31.3407 29.2423 31.9509 30.1647 32.7992L25.0321 37.6914L23.4744 36.1337C23.1117 35.7834 22.626 35.5896 22.1218 35.594C21.6176 35.5984 21.1352 35.8006 20.7787 36.1572C20.4221 36.5137 20.2199 36.996 20.2155 37.5002C20.2111 38.0045 20.405 38.4902 20.7553 38.8529L22.9744 41.0721C23.5093 41.6033 24.2298 41.9055 24.9835 41.9149C25.7372 41.9242 26.465 41.6399 27.0128 41.1221L32.2858 36.0895C32.547 36.8531 32.684 37.6536 32.6915 38.4606C32.6915 40.5007 31.8811 42.4572 30.4385 43.8998C28.996 45.3423 27.0395 46.1527 24.9994 46.1527Z" fill="#EF5226"/>
</svg>
