<svg width="52" height="50" viewBox="0 0 52 50" fill="none" xmlns="http://www.w3.org/2000/svg">
<path fill-rule="evenodd" clip-rule="evenodd" d="M23.6461 42.3314H18.8787C18.4682 42.3314 18.1349 41.9947 18.1349 41.5801C18.1349 41.1654 18.4682 40.8288 18.8787 40.8288H23.6461C23.904 39.9039 24.6259 39.1747 25.5414 38.9142V30.9124H27.0289V38.9142C27.9445 39.1747 28.6663 39.9039 28.9242 40.8288H33.6916C34.1021 40.8288 34.4354 41.1654 34.4354 41.5801C34.4354 41.9947 34.1021 42.3314 33.6916 42.3314H28.9242C28.5997 43.4952 27.5404 44.3492 26.2852 44.3492C25.0299 44.3492 23.9706 43.4952 23.6461 42.3314ZM6.65345 46.9869H1.9232C1.29431 46.9869 0.785156 46.4726 0.785156 45.8382V44.5432H16.6328V45.8382C16.6328 46.4726 16.1236 46.9869 15.4957 46.9869H10.7279C10.7088 47.7758 10.8699 48.6401 11.0968 49.2829C11.1548 49.447 11.1303 49.6294 11.0311 49.7718C10.9317 49.9142 10.7699 49.999 10.5975 49.999C9.56863 50 7.83962 50 6.8141 50C6.6424 49.9999 6.48122 49.9161 6.38156 49.7748C6.28189 49.6336 6.25597 49.4524 6.31186 49.2884C6.53137 48.6454 6.67778 47.7781 6.65345 46.9869ZM0.785156 43.0405V36.6486C0.785156 36.0134 1.29431 35.499 1.9232 35.499H15.797C16.2583 35.499 16.6328 35.8773 16.6328 36.3433V43.0405H0.785156ZM41.8058 46.9869H37.0756C36.4467 46.9869 35.9375 46.4726 35.9375 45.8382V44.5432H51.7852V45.8382C51.7852 46.4726 51.276 46.9869 50.6481 46.9869H45.8803C45.8613 47.7758 46.0223 48.6401 46.2492 49.2829C46.3073 49.447 46.2828 49.6294 46.1834 49.7718C46.0841 49.9142 45.9224 49.999 45.7498 49.999C44.721 50 42.992 50 41.9665 50C41.7948 49.9999 41.6337 49.9161 41.5339 49.7748C41.4343 49.6336 41.4084 49.4524 41.4644 49.2884C41.6838 48.6454 41.8303 47.7781 41.8058 46.9869ZM35.9375 43.0405V36.6486C35.9375 36.0134 36.4467 35.499 37.0756 35.499H50.9494C51.4108 35.499 51.7852 35.8773 51.7852 36.3433V43.0405H35.9375ZM39.8859 17.1408C37.0198 17.1408 35.5808 20.6492 37.6078 22.6969C37.9809 23.0738 37.9809 23.6869 37.6078 24.0639L35.5498 26.1428C35.1767 26.5197 34.5698 26.5197 34.1966 26.1428C32.1696 24.0951 28.6965 25.5488 28.6965 28.444C28.6965 28.9791 28.2684 29.4098 27.7406 29.4098H24.8297C24.3019 29.4098 23.8738 28.9791 23.8738 28.444C23.8738 25.5454 20.4024 24.0934 18.3737 26.1428C18.0005 26.5197 17.3953 26.5197 17.0223 26.1428L14.9625 24.0639C14.5894 23.6869 14.5894 23.0738 14.9625 22.6969C16.9896 20.6492 15.5522 17.1408 12.6844 17.1408C12.1566 17.1408 11.7284 16.7083 11.7284 16.1751V13.2347C11.7284 12.7015 12.1566 12.269 12.6844 12.269C15.5522 12.269 16.9896 8.76058 14.9625 6.71292C14.5894 6.33597 14.5894 5.72461 14.9625 5.34777L17.0223 3.26705C17.3953 2.89011 18.0005 2.89011 18.3737 3.26705C20.4007 5.31472 23.8738 3.86274 23.8738 0.965766C23.8738 0.432544 24.3019 0 24.8297 0H27.7406C28.2684 0 28.6965 0.432544 28.6965 0.965766C28.6965 3.86274 32.1696 5.31472 34.1966 3.26705C34.5698 2.89011 35.1767 2.89011 35.5498 3.26705L37.6078 5.34777C37.9809 5.72461 37.9809 6.33597 37.6078 6.71292C35.5808 8.76058 37.0198 12.269 39.8859 12.269C40.4156 12.269 40.8419 12.7015 40.8419 13.2347V16.1751C40.8419 16.7083 40.4156 17.1408 39.8859 17.1408ZM26.286 22.5225C30.5468 22.5225 34.024 19.01 34.024 14.7058C34.024 10.3996 30.5468 6.88905 26.286 6.88905C22.0233 6.88905 18.548 10.3996 18.548 14.7058C18.548 19.01 22.0233 22.5225 26.286 22.5225ZM26.286 21.0198C22.8427 21.0198 20.0355 18.1825 20.0355 14.7058C20.0355 11.2275 22.8427 8.39169 26.286 8.39169C29.7278 8.39169 32.5365 11.2275 32.5365 14.7058C32.5365 18.1825 29.7278 21.0198 26.286 21.0198ZM22.7426 15.0348L25.3946 17.2431C25.7018 17.4991 26.1543 17.4649 26.4206 17.1658L29.9078 13.2488C30.1822 12.9405 30.1573 12.4651 29.8521 12.1878C29.5468 11.9105 29.0762 11.9358 28.8017 12.244L25.791 15.6259L23.6886 13.8753C23.3719 13.6116 22.9028 13.6572 22.6416 13.9773C22.3806 14.2973 22.4257 14.7711 22.7426 15.0348Z" fill="#EF5226"/>
</svg>
