<svg width="45" height="50" viewBox="0 0 45 50" fill="none" xmlns="http://www.w3.org/2000/svg">
<path d="M6.70771 35.9159C6.70771 36.5817 6.54397 37.1385 6.28199 37.586C4.81927 40.0421 0.158203 39.4854 0.158203 35.9159C0.158203 33.5362 2.23221 32.4992 4.04424 32.8049C5.45239 33.0341 6.70771 34.0602 6.70771 35.9159Z" fill="#EF5226"/>
<path d="M4.52497 19.433V30.5671C4.47039 30.5562 4.41581 30.5453 4.36123 30.5453C3.69536 30.4252 3.00766 30.4362 2.3418 30.5671V19.433C3.00766 19.564 3.69536 19.5749 4.36123 19.4548C4.41581 19.4548 4.47039 19.4439 4.52497 19.433Z" fill="#EF5226"/>
<path d="M6.28199 12.414C6.54397 12.8616 6.70771 13.4183 6.70771 14.0841C6.70771 15.9398 5.45239 16.9659 4.04424 17.1952C2.23221 17.5008 0.158203 16.4638 0.158203 14.0841C0.158203 10.5147 4.81927 9.95796 6.28199 12.414Z" fill="#EF5226"/>
<path d="M18.2568 6.7923L8.60721 12.3594C8.37798 11.6608 8.00684 11.0167 7.51562 10.46L17.1652 4.89294C17.3945 5.59156 17.7656 6.23559 18.2568 6.7923Z" fill="#EF5226"/>
<path d="M25.614 3.16832C25.614 3.83419 25.4502 4.3909 25.1882 4.83845C23.8893 7.02162 20.0578 6.81422 19.2282 4.24899C19.119 3.92152 19.0645 3.56129 19.0645 3.16832C19.0645 -1.05611 25.614 -1.05611 25.614 3.16832Z" fill="#EF5226"/>
<path d="M27.5135 4.89294L37.1631 10.46C36.6719 11.0167 36.3007 11.6608 36.0715 12.3594L26.4219 6.7923C26.9131 6.23559 27.2842 5.59156 27.5135 4.89294Z" fill="#EF5226"/>
<path d="M44.5202 14.0842C44.5202 15.9398 43.2649 16.9659 41.8567 17.1952C40.0447 17.5008 37.9707 16.4638 37.9707 14.0842C37.9707 13.6912 38.0253 13.331 38.1344 13.0035C39.1387 9.89247 44.5202 10.2527 44.5202 14.0842Z" fill="#EF5226"/>
<path d="M42.3365 19.433V30.5671C42.2819 30.5562 42.2273 30.5453 42.1727 30.5453C41.5069 30.4252 40.8192 30.4362 40.1533 30.5671V19.433C40.8192 19.564 41.5069 19.5749 42.1727 19.4548C42.2273 19.4548 42.2819 19.4439 42.3365 19.433Z" fill="#EF5226"/>
<path d="M41.8567 32.8049C43.2649 33.0341 44.5202 34.0602 44.5202 35.9159C44.5202 39.7473 39.1387 40.1076 38.1344 36.9966C38.0253 36.6691 37.9707 36.3089 37.9707 35.9159C37.9707 33.5362 40.0447 32.4992 41.8567 32.8049Z" fill="#EF5226"/>
<path d="M37.1631 39.5399L27.5135 45.1069C27.2842 44.4083 26.9131 43.7643 26.4219 43.2076L36.0715 37.6405C36.3007 38.3391 36.6719 38.9831 37.1631 39.5399Z" fill="#EF5226"/>
<path d="M25.1882 45.1615C25.4502 45.6091 25.614 46.1658 25.614 46.8317C25.614 51.0561 19.0645 51.0561 19.0645 46.8317C19.0645 46.4387 19.119 46.0785 19.2282 45.751C20.0578 43.1858 23.8893 42.9784 25.1882 45.1615Z" fill="#EF5226"/>
<path d="M35.2638 22.8495C35.493 24.2686 35.493 25.7313 35.2638 27.1504L35.1874 27.587H32.7641C32.5021 28.624 32.0982 29.6174 31.5415 30.5343L33.2553 32.2481L32.9933 32.6192C32.1637 33.7872 31.1267 34.8242 29.9587 35.6538L29.5876 35.9158L27.8738 34.202C26.9568 34.7587 25.9635 35.1626 24.9265 35.4246V37.8479L24.4899 37.9243C23.0708 38.1536 21.6081 38.1536 20.189 37.9243L19.7524 37.8479V35.4246C18.7154 35.1626 17.722 34.7587 16.8051 34.202L15.0913 35.9158L14.7202 35.6538C13.5522 34.8242 12.5152 33.7872 11.6856 32.6192L11.4236 32.2481L13.1374 30.5343C12.5807 29.6174 12.1768 28.624 11.9148 27.587H9.4915L9.41509 27.1504C9.18586 25.7313 9.18586 24.2686 9.41509 22.8495L9.4915 22.4129H11.9148C12.1768 21.3759 12.5807 20.3826 13.1374 19.4656L11.4236 17.7519L11.6856 17.3807C12.5152 16.2127 13.5522 15.1757 14.7202 14.3461L15.0913 14.0841L16.8051 15.7979C17.722 15.2412 18.7154 14.8373 19.7524 14.5753V12.152L20.189 12.0756C21.6081 11.8464 23.0708 11.8464 24.4899 12.0756L24.9265 12.152V14.5753C25.9635 14.8373 26.9568 15.2412 27.8738 15.7979L29.5876 14.0841L29.9587 14.3461C31.1267 15.1757 32.1637 16.2127 32.9933 17.3807L33.2553 17.7519L31.5415 19.4656C32.0982 20.3826 32.5021 21.3759 32.7641 22.4129H35.1874L35.2638 22.8495ZM28.7143 25C28.7143 21.5287 25.8107 18.6251 22.3394 18.6251C18.8682 18.6251 15.9646 21.5287 15.9646 25C15.9646 28.4712 18.8682 31.3748 22.3394 31.3748C25.8107 31.3748 28.7143 28.4712 28.7143 25Z" fill="#EF5226"/>
<path d="M8.60721 37.6405L18.2568 43.2076C17.7656 43.7643 17.3945 44.4083 17.1652 45.1069L7.51562 39.5399C8.00684 38.9831 8.37798 38.3391 8.60721 37.6405Z" fill="#EF5226"/>
</svg>
