<svg width="53" height="51" viewBox="0 0 53 51" fill="none" xmlns="http://www.w3.org/2000/svg">
<path d="M41.7595 12.7997C41.6711 9.78654 40.5045 6.90511 38.4717 4.67916C36.4389 2.4532 33.6749 1.03051 30.6821 0.669658C27.6893 0.308808 24.6664 1.03376 22.1628 2.71275C19.6592 4.39173 17.8411 6.91329 17.039 9.8191C16.9772 9.81115 16.9149 9.80805 16.8527 9.80983C15.0246 9.80711 13.2511 10.4332 11.8299 11.5831C10.4087 12.7329 9.42617 14.3366 9.0472 16.125C6.62832 16.1965 4.33467 17.2168 2.66176 18.9653C0.988847 20.7139 0.0709846 23.0504 0.10646 25.4701C0.141936 27.8897 1.1279 30.1983 2.85135 31.8971C4.57481 33.5959 6.89738 34.5484 9.31732 34.549H11.5435C11.5452 33.3731 11.5422 29.973 11.5435 28.7461C11.5446 27.2642 12.1338 25.8434 13.1816 24.7956C14.2295 23.7478 15.6503 23.1586 17.1321 23.1574H35.2394C36.7213 23.1586 38.1421 23.7478 39.1899 24.7956C40.2377 25.8434 40.8269 27.2642 40.8281 28.7461V34.549H41.3869C55.585 33.9999 55.9215 13.8209 41.7595 12.7997Z" fill="#05A7CC"/>
<path d="M35.2403 25.0203H17.133C16.6437 25.0201 16.1591 25.1164 15.7071 25.3036C15.255 25.4908 14.8442 25.7652 14.4982 26.1112C14.1522 26.4572 13.8778 26.868 13.6906 27.3201C13.5034 27.7722 13.4071 28.2567 13.4072 28.746V46.8533C13.4071 47.3426 13.5034 47.8272 13.6906 48.2793C13.8777 48.7314 14.1522 49.1422 14.4982 49.4881C14.8442 49.8341 15.255 50.1086 15.707 50.2958C16.1591 50.483 16.6437 50.5792 17.133 50.5791H35.2403C35.7296 50.5792 36.2141 50.483 36.6662 50.2958C37.1183 50.1086 37.5291 49.8341 37.8751 49.4881C38.2211 49.1422 38.4955 48.7314 38.6827 48.2793C38.8699 47.8272 38.9662 47.3426 38.9661 46.8533V28.746C38.9662 28.2567 38.8699 27.7722 38.6827 27.3201C38.4955 26.868 38.2211 26.4572 37.8751 26.1112C37.5291 25.7652 37.1183 25.4908 36.6662 25.3036C36.2141 25.1164 35.7296 25.0201 35.2403 25.0203ZM35.203 39.6905L32.2131 41.8701C32.1146 41.9423 32.0029 41.9943 31.8843 42.0233C31.7657 42.0523 31.6426 42.0577 31.5219 42.0391C31.4013 42.0205 31.2855 41.9783 31.1811 41.9149C31.0767 41.8516 30.9859 41.7683 30.9137 41.6698C30.8416 41.5714 30.7895 41.4596 30.7605 41.3411C30.7315 41.2225 30.7261 41.0993 30.7447 40.9787C30.7633 40.858 30.8055 40.7422 30.8689 40.6378C30.9322 40.5335 31.0155 40.4426 31.114 40.3705L32.5577 39.3179H30.5924C29.67 39.32 28.7861 39.688 28.1347 40.3412C27.4834 40.9943 27.1177 41.8791 27.1181 42.8015V45.3444C27.1136 45.5884 27.0135 45.821 26.8393 45.992C26.6651 46.163 26.4307 46.2588 26.1866 46.2588C25.9425 46.2588 25.7082 46.163 25.534 45.9919C25.3598 45.8209 25.2597 45.5884 25.2552 45.3443V42.8015C25.2556 41.8791 24.8899 40.9943 24.2386 40.3412C23.5872 39.688 22.7033 39.32 21.7809 39.3179H19.8156L21.2593 40.3705C21.4527 40.5182 21.5804 40.7359 21.6151 40.9768C21.6498 41.2178 21.5886 41.4627 21.4447 41.659C21.3008 41.8553 21.0857 41.9873 20.8456 42.0268C20.6054 42.0663 20.3593 42.01 20.1602 41.8701L17.1703 39.6905C16.9671 39.5392 16.802 39.3425 16.6883 39.1161C16.5746 38.8897 16.5154 38.6398 16.5154 38.3865C16.5154 38.1331 16.5746 37.8833 16.6883 37.6569C16.802 37.4305 16.9671 37.2338 17.1703 37.0825L20.1602 34.9029C20.3606 34.7634 20.6076 34.708 20.8484 34.7485C21.0891 34.789 21.3044 34.9222 21.4482 35.1195C21.5919 35.3168 21.6526 35.5626 21.6173 35.8042C21.582 36.0458 21.4535 36.2639 21.2593 36.4118L19.8249 37.455C21.6852 37.3873 23.8734 37.3968 25.2552 38.7499V32.6302L24.212 34.0646C24.0644 34.2597 23.8461 34.3891 23.604 34.4249C23.362 34.4607 23.1156 34.4001 22.9178 34.256C22.72 34.112 22.5867 33.896 22.5466 33.6547C22.5064 33.4133 22.5626 33.1658 22.7031 32.9655L24.8826 29.9755C25.04 29.7814 25.2387 29.6248 25.4643 29.5173C25.6899 29.4098 25.9367 29.3539 26.1866 29.3539C26.4366 29.3539 26.6833 29.4098 26.9089 29.5173C27.1345 29.6248 27.3333 29.7814 27.4907 29.9755L29.6702 32.9655C29.8107 33.1658 29.8669 33.4133 29.8268 33.6547C29.7866 33.896 29.6533 34.112 29.4555 34.2561C29.2577 34.4001 29.0113 34.4608 28.7693 34.425C28.5272 34.3892 28.3089 34.2597 28.1613 34.0646L27.1181 32.6302V38.7498C28.5125 37.3912 30.6799 37.39 32.5485 37.4552L31.114 36.4118C30.9199 36.2638 30.7915 36.0457 30.7563 35.8042C30.721 35.5627 30.7818 35.317 30.9255 35.1198C31.0692 34.9225 31.2844 34.7893 31.5251 34.7488C31.7657 34.7083 32.0127 34.7636 32.2131 34.9029L35.203 37.0825C35.4062 37.2338 35.5713 37.4305 35.685 37.6569C35.7987 37.8833 35.8579 38.1331 35.8579 38.3865C35.8579 38.6398 35.7987 38.8897 35.685 39.1161C35.5713 39.3425 35.4062 39.5392 35.203 39.6905Z" fill="#EF5226"/>
</svg>
