<svg width="51" height="51" viewBox="0 0 51 51" fill="none" xmlns="http://www.w3.org/2000/svg">
<path d="M49.3255 42.2249C48.3568 41.9541 47.6693 41.3708 47.6901 40.8291C47.7109 40.2978 48.4193 39.777 49.4297 39.5687C49.8359 39.4749 50.1068 39.0791 50.0339 38.6624C49.8255 37.5583 49.4297 36.4853 48.8568 35.4853C48.638 35.1103 48.1589 34.9749 47.7943 35.1937C46.9193 35.6937 46.0234 35.7666 45.6589 35.3708C45.2839 34.9645 45.4193 34.0895 45.9818 33.2353C46.2109 32.8812 46.1172 32.402 45.763 32.1624C44.8359 31.527 43.8047 31.0583 42.6901 30.7666C42.2734 30.652 41.8464 30.8916 41.7422 31.3083C41.4714 32.277 40.9193 32.9437 40.3568 32.9541C39.8047 32.9229 39.2734 32.2145 39.0755 31.2145C39.0339 31.0062 38.8776 30.8395 38.7005 30.7249C38.5234 30.6104 38.2734 30.5687 38.0651 30.6208C37.9193 30.652 37.7839 30.6937 37.6276 30.7249V30.7354H37.5964C37.5964 30.7354 37.5964 30.7458 37.5859 30.7458C36.7109 30.9541 35.8672 31.2874 35.0026 31.777C34.6276 31.9854 34.4922 32.4541 34.7005 32.8291C35.0755 33.5062 35.2214 34.1833 35.0755 34.6312V34.652V34.6624C35.0339 34.7979 34.9818 34.902 34.888 34.9749C34.4818 35.3499 33.6068 35.2249 32.7526 34.6624C32.4089 34.4333 31.9505 34.527 31.7005 34.8604C30.6901 34.2041 29.5964 33.6729 28.4505 33.2666C28.0026 33.1104 27.5755 32.9749 27.1589 32.8499C26.5547 32.6624 25.9818 32.4749 25.4922 32.2666C25.4609 32.2562 25.4401 32.2458 25.4089 32.2458C24.4193 31.8291 23.7734 31.3083 23.4818 30.1312C24.7214 29.5895 25.8151 28.7978 26.7318 27.8187C26.9297 27.8395 27.138 27.8708 27.3464 27.8708C28.2839 27.8708 29.2005 27.5999 29.9714 27.0999C30.7422 26.5791 31.4089 25.7874 31.8672 24.7979C32.2005 24.0999 32.4089 23.3603 32.5755 22.6728C33.1693 22.4124 33.5859 21.8187 33.5859 21.1208V16.8291C33.5859 16.3604 33.388 15.9229 33.0755 15.6208C33.4089 14.6104 33.5859 13.5479 33.5859 12.4541C33.5859 5.90202 27.4609 0.579102 19.9297 0.579102C12.3984 0.579102 6.28385 5.90202 6.28385 12.4541C6.28385 13.402 6.40885 14.3291 6.65885 15.2249C5.99219 15.4541 5.5026 16.0895 5.5026 16.8291V21.1208C5.5026 22.0687 6.27344 22.8291 7.21094 22.8291H9.84635C10.388 26.2458 12.6589 28.9958 15.6901 30.2249C15.3984 31.3603 14.7318 31.8499 13.7214 32.2666C13.2422 32.4645 12.6797 32.6416 12.0859 32.8291C11.6589 32.9645 11.2109 33.1104 10.7526 33.2666C7.71094 34.3291 5.08594 36.277 3.17969 38.902C1.24219 41.5791 0.210938 44.7562 0.210938 48.0791C0.210938 49.4645 1.33594 50.5791 2.71094 50.5791H36.4818C36.8359 50.5791 37.1589 50.4854 37.4609 50.3604C37.5234 50.3708 37.5964 50.3812 37.6589 50.3812C37.9922 50.3812 38.3047 50.1624 38.4089 49.8187C38.4401 49.7041 38.4818 49.5999 38.5234 49.4958C38.6693 49.2978 38.7734 49.0687 38.8568 48.8291C39.0234 48.5687 39.2214 48.3812 39.4297 48.277L39.6068 48.2041C39.6589 48.1833 39.7109 48.1728 39.7943 48.1728C40.3464 48.1937 40.8672 48.9124 41.0859 49.9124C41.1589 50.277 41.6068 50.5062 41.9922 50.5062C42.0547 50.5062 42.1172 50.4958 42.1693 50.4853C43.2005 50.2666 44.2005 49.8812 45.1484 49.3604C45.3255 49.2562 45.4609 49.0895 45.513 48.8812C45.5755 48.6833 45.5443 48.4749 45.4401 48.2874C44.9505 47.4124 44.8776 46.5062 45.2734 46.1416C45.6589 45.777 46.5547 45.9124 47.3984 46.4645C47.7526 46.6937 48.2318 46.5999 48.4714 46.2562C48.5964 46.0583 48.7214 45.8604 48.888 45.5791C49.3359 44.7979 49.6589 43.9958 49.8776 43.1728C49.9818 42.7562 49.7318 42.3395 49.3255 42.2249ZM30.9193 22.8291C30.7943 23.2666 30.6589 23.7145 30.4609 24.1312C30.1172 24.8604 29.6484 25.4333 29.1068 25.7978C28.763 26.027 28.3568 26.1624 27.9297 26.2353C28.5547 25.2145 29.0026 24.0583 29.2318 22.8291H30.9193ZM11.3568 22.402L11.2734 21.8083C11.0547 20.1937 10.9297 19.3291 10.9089 18.4124V18.402C10.9089 18.3916 10.9089 18.3916 10.9089 18.3812C10.888 17.4541 10.9505 16.4541 11.1068 14.5687C11.2109 13.652 11.7526 10.8812 12.9609 10.1312C13.1068 10.0479 13.3047 9.9541 13.5859 9.9541C13.7734 9.9541 13.9818 9.99577 14.2422 10.0895C17.7318 11.4541 24.7109 10.1624 25.7109 9.96452C26.1901 10.0166 28.138 10.402 28.0859 13.277L28.0755 13.4645C28.0651 14.3812 28.0443 15.3187 28.1172 16.2666C28.263 18.3291 28.1901 18.8395 27.8776 21.3291L27.7943 21.9958C27.5964 23.5374 27.013 24.9333 26.138 26.0895C25.5651 25.8812 25.013 25.527 24.5234 25.0166C24.3464 24.8499 24.1068 24.5895 24.0026 24.402V24.3708C24.013 24.3499 24.013 24.3291 24.0234 24.2979C24.0547 24.1624 24.1068 23.9437 24.1068 23.6729C24.1068 22.3708 22.8984 21.3083 21.4193 21.3083C19.9297 21.3083 18.7214 22.3708 18.7214 23.6729C18.7214 24.9854 19.9297 26.0479 21.4193 26.0479C21.9609 26.0479 22.5026 25.8812 22.9505 25.6208C23.1068 25.8083 23.2839 25.9854 23.4401 26.1416C23.9089 26.6312 24.4401 27.0166 25.013 27.3083C23.6901 28.4958 21.9922 29.2458 20.1276 29.3499C19.9193 29.3604 19.7109 29.3603 19.513 29.3708C15.4193 29.4749 11.9089 26.4854 11.3568 22.402ZM23.9818 24.4437V24.4645H23.9714C23.9714 24.4541 23.9818 24.4437 23.9818 24.4437ZM8.21094 49.0166V42.4541C8.21094 42.027 7.86719 41.6729 7.42969 41.6729C7.0026 41.6729 6.64844 42.027 6.64844 42.4541V49.0166H2.71094C2.20052 49.0166 1.77344 48.5999 1.77344 48.0791C1.77344 45.0895 2.70052 42.2353 4.4401 39.8187C6.05469 37.6103 8.22136 35.9333 10.7318 34.9541L18.2005 49.0166H8.21094ZM15.6901 32.9541C16.3359 32.4749 16.8776 31.7666 17.1693 30.6937C17.8568 30.8499 18.5547 30.9333 19.2839 30.9333H19.5547C19.7734 30.9228 19.9922 30.9229 20.2109 30.902C20.8255 30.8708 21.4297 30.777 22.0026 30.6312C22.3047 31.7354 22.8464 32.4541 23.4922 32.9437C20.8568 34.0479 18.2839 34.0583 15.6901 32.9541ZM34.3776 48.9437C34.4193 48.9749 34.4609 48.9958 34.5026 49.0166H20.8255L28.5443 34.9853C29.3776 35.3187 30.1693 35.7249 30.9193 36.2145C30.7526 36.5687 30.5964 36.9229 30.4818 37.277C30.3984 37.5062 30.3255 37.7249 30.2734 37.9749C30.1797 38.3812 30.4193 38.777 30.8255 38.8916C31.7943 39.1624 32.4818 39.7458 32.4609 40.2874C32.4401 40.8187 31.7109 41.3603 30.7214 41.5687C30.3151 41.652 30.0443 42.0583 30.1172 42.4749C30.3151 43.5374 30.7109 44.5999 31.2839 45.6312C31.5026 46.0062 31.9714 46.1416 32.3464 45.9333C33.2422 45.4333 34.1276 45.3603 34.5026 45.7562C34.8672 46.152 34.7318 47.027 34.1797 47.8708C33.9401 48.2249 34.0339 48.7041 34.3776 48.9437ZM42.9193 43.8083C42.8984 43.8291 42.8776 43.8395 42.8568 43.8499C42.0859 44.5062 41.1068 44.8708 40.0859 44.8708H40.0339C38.8047 44.8604 37.6276 44.3187 36.8255 43.3812C36.7109 43.2562 36.6172 43.1104 36.5234 42.9749C36.4818 42.9229 36.4505 42.8812 36.4193 42.8187C36.2318 42.5166 36.0859 42.2041 35.9818 41.8708C35.9714 41.8603 35.9714 41.8499 35.9714 41.8395C35.9089 41.7249 35.8776 41.5999 35.8776 41.4749C35.5859 40.0999 35.9505 38.6208 36.9714 37.5583L37.2422 37.3083C37.9505 36.6937 38.8464 36.3187 39.7734 36.2562C41.138 36.152 42.4401 36.6937 43.3359 37.7353C44.888 39.5166 44.7005 42.2458 42.9193 43.8083Z" fill="#EF5226"/>
<path d="M41.9184 42.6L41.8767 42.6417C41.3767 43.0792 40.7621 43.3083 40.0434 43.3083C39.2621 43.3083 38.5225 42.9646 38.0017 42.3604C37.9184 42.2563 37.8454 42.1521 37.7725 42.0375C37.6684 41.7875 37.5642 41.5375 37.4392 41.2875C37.1892 40.3813 37.3975 39.3708 38.0642 38.6729L38.2725 38.4854C38.7204 38.1 39.2934 37.8604 39.8871 37.8188C39.96 37.8188 40.0225 37.8083 40.0954 37.8083C40.8871 37.8083 41.6267 38.1521 42.1475 38.7563C43.1267 39.8813 43.0225 41.6 41.9184 42.6Z" fill="#05A7CC"/>
<path d="M15.2324 14.0062C14.8053 14.0062 14.4512 14.3604 14.4512 14.7875V15.7041C14.4512 16.1312 14.8053 16.4854 15.2324 16.4854C15.6595 16.4854 16.0137 16.1312 16.0137 15.7041V14.7875C16.0137 14.3604 15.6699 14.0062 15.2324 14.0062Z" fill="#05A7CC"/>
<path d="M23.8564 16.4854C24.2835 16.4854 24.6377 16.1312 24.6377 15.7041V14.7875C24.6377 14.3604 24.2835 14.0062 23.8564 14.0062C23.4294 14.0062 23.0752 14.3604 23.0752 14.7875V15.7041C23.0752 16.1416 23.4294 16.4854 23.8564 16.4854Z" fill="#05A7CC"/>
</svg>
