<svg width="51" height="51" viewBox="0 0 51 51" fill="none" xmlns="http://www.w3.org/2000/svg">
<path d="M14.4955 4.15051C8.5881 4.15051 3.78125 8.95725 3.78125 14.8648C3.78125 16.0904 3.99836 17.2638 4.37907 18.3616L9.39997 13.3407C9.74874 12.9919 10.3138 12.9919 10.6625 13.3407L13.6027 16.2808L18.5901 11.2934H17.1741C16.6806 11.2934 16.2812 10.894 16.2812 10.4005C16.2812 9.907 16.6806 9.50766 17.1741 9.50766H20.7455C21.239 9.50766 21.6384 9.907 21.6384 10.4005V13.9719C21.6384 14.4655 21.239 14.8648 20.7455 14.8648C20.252 14.8648 19.8527 14.4655 19.8527 13.9719V12.5559L14.234 18.1746C13.8852 18.5234 13.3202 18.5234 12.9714 18.1746L10.0312 15.2345L5.16032 20.1054C6.99922 23.3675 10.4918 25.5791 14.4955 25.5791C20.4031 25.5791 25.2098 20.7723 25.2098 14.8648C25.2098 8.95725 20.4031 4.15051 14.4955 4.15051Z" fill="#EF5226"/>
<path d="M42.1738 8.61482H50.2095C49.7856 4.4072 46.3814 1.00308 42.1738 0.579102V8.61482Z" fill="#05A7CC"/>
<path d="M42.174 10.4005C41.1878 10.4005 40.3883 9.60097 40.3883 8.61482V0.579102C35.8827 1.03316 32.3525 4.88241 32.3525 9.50767C32.3525 14.4388 36.35 18.4362 41.2811 18.4362C45.9064 18.4362 49.7556 14.9061 50.2097 10.4005H42.174Z" fill="#EF5226"/>
<path d="M50.2098 50.5791H41.2812V23.7934C41.2812 22.8072 42.0807 22.0077 43.067 22.0077H48.4241C49.4103 22.0077 50.2098 22.8072 50.2098 23.7934V50.5791Z" fill="#EF5226"/>
<path d="M28.7814 32.722C28.7814 30.7523 30.3831 29.1505 32.3528 29.1505H34.1385L29.3044 24.3164C28.607 23.619 27.4764 23.619 26.779 24.3164L26.2561 24.8394L25.4475 24.0309C27.5264 21.5497 28.7814 18.355 28.7814 14.8648C28.7814 6.97504 22.3854 0.579102 14.4957 0.579102C6.6059 0.579102 0.209961 6.97504 0.209961 14.8648C0.209961 22.7546 6.6059 29.1505 14.4957 29.1505C17.9859 29.1505 21.1805 27.8955 23.6617 25.8166L24.4703 26.6251L23.9473 27.1481C23.2499 27.8456 23.2499 28.9761 23.9473 29.6736L28.7814 34.5077V32.722ZM14.4957 27.3648C7.60284 27.3648 1.99568 21.7578 1.99568 14.8648C1.99568 7.97188 7.60284 2.36482 14.4957 2.36482C21.3886 2.36482 26.9957 7.97188 26.9957 14.8648C26.9957 21.7578 21.3886 27.3648 14.4957 27.3648Z" fill="#EF5226"/>
<path d="M39.496 50.5791H30.5674V32.722C30.5674 31.7358 31.3669 30.9363 32.3531 30.9363H37.7102C38.6965 30.9363 39.496 31.7358 39.496 32.722V50.5791Z" fill="#EF5226"/>
<path d="M28.7811 50.5792H19.8525V41.6506C19.8525 40.6644 20.652 39.8649 21.6383 39.8649H26.9954C27.9816 39.8649 28.7811 40.6644 28.7811 41.6506V50.5792Z" fill="#EF5226"/>
</svg>
