<svg width="51" height="51" viewBox="0 0 51 51" fill="none" xmlns="http://www.w3.org/2000/svg">
<path d="M5.5671 16.6506C7.892 16.6506 9.8557 15.1532 10.5952 13.0791H18.0671V9.50771H10.5952C9.8557 7.4336 7.892 5.93628 5.5671 5.93628C2.613 5.93628 0.209961 8.33932 0.209961 11.2934C0.209961 14.2475 2.613 16.6506 5.5671 16.6506Z" fill="#EF5226"/>
<path d="M3.78139 32.722V40.1939C1.70728 40.9334 0.209961 42.8971 0.209961 45.222C0.209961 48.1761 2.613 50.5791 5.5671 50.5791C8.5212 50.5791 10.9242 48.1761 10.9242 45.222C10.9242 42.8971 9.42692 40.9334 7.35282 40.1939V34.5077H10.9242V30.9363H5.5671C4.58008 30.9363 3.78139 31.735 3.78139 32.722Z" fill="#05A7CC"/>
<path d="M46.639 18.4362V10.9643C48.7131 10.2248 50.2104 8.26114 50.2104 5.93624C50.2104 2.98214 47.8073 0.579102 44.8532 0.579102C41.8991 0.579102 39.4961 2.98214 39.4961 5.93624C39.4961 8.26114 40.9934 10.2247 43.0675 10.9642V16.6505H39.4961V20.222H44.8532C45.8403 20.222 46.639 19.4233 46.639 18.4362Z" fill="#05A7CC"/>
<path d="M23.424 15.0261V9.50767C23.424 6.55357 25.827 4.15053 28.7811 4.15053C31.7352 4.15053 34.1383 6.55357 34.1383 9.50767V25.5791C34.1383 28.5332 31.7352 30.9362 28.7811 30.9362C25.827 30.9362 23.424 28.5332 23.424 25.5791V22.5046C22.8964 22.1969 22.2915 22.0077 21.6383 22.0077C20.985 22.0077 20.3801 22.1969 19.8525 22.5046V25.5791C19.8525 30.502 23.8582 34.5077 28.7811 34.5077C33.704 34.5077 37.7097 30.502 37.7097 25.5791V9.50767C37.7097 4.58475 33.704 0.579102 28.7811 0.579102C23.8582 0.579102 19.8525 4.58475 19.8525 9.50767V15.0261C20.4347 14.9278 21.0287 14.8648 21.6383 14.8648C22.2478 14.8648 22.8418 14.9278 23.424 15.0261Z" fill="#EF5226"/>
<path d="M26.9957 36.1321V41.6505C26.9957 44.6046 24.5926 47.0077 21.6385 47.0077C18.6844 47.0077 16.2814 44.6046 16.2814 41.6505V25.5791C16.2814 22.625 18.6844 20.2219 21.6385 20.2219C24.5926 20.2219 26.9957 22.625 26.9957 25.5791V28.6536C27.5232 28.9613 28.1281 29.1505 28.7814 29.1505C29.4347 29.1505 30.0396 28.9613 30.5671 28.6536V25.5791C30.5671 20.6562 26.5615 16.6505 21.6385 16.6505C16.7156 16.6505 12.71 20.6562 12.71 25.5791V41.6505C12.71 46.5734 16.7156 50.5791 21.6385 50.5791C26.5615 50.5791 30.5671 46.5734 30.5671 41.6505V36.1321C29.985 36.2304 29.391 36.2934 28.7814 36.2934C28.1718 36.2934 27.5778 36.2304 26.9957 36.1321Z" fill="#EF5226"/>
<path d="M44.8525 34.5077C42.5276 34.5077 40.5639 36.005 39.8244 38.0791H32.3525V41.6505H39.8246C40.5641 43.7247 42.5276 45.222 44.8525 45.222C47.8066 45.222 50.2097 42.8189 50.2097 39.8648C50.2097 36.9107 47.8066 34.5077 44.8525 34.5077Z" fill="#EF5226"/>
</svg>
