<svg width="51" height="51" viewBox="0 0 51 51" fill="none" xmlns="http://www.w3.org/2000/svg">
<path d="M41.5004 27.9984H39.0811V29.6113H41.5004C41.9448 29.6113 42.3069 29.9726 42.3069 30.4178V39.2887H43.9198V30.4178C43.9198 29.0839 42.8343 27.9984 41.5004 27.9984Z" fill="#EF5226"/>
<path d="M13.2744 23.1598V37.6759H37.4688L37.468 23.1598H13.2744ZM23.7583 35.2566H15.6938V25.5791H23.7583V35.2566ZM35.8551 36.063H26.1776V34.4501H35.8551V36.063ZM35.8551 32.8372H26.1776V31.2243H35.8551V32.8372ZM35.8551 29.6114H26.1776V27.9985H35.8551V29.6114ZM35.8551 26.3856H26.1776V24.7727H35.8551V26.3856Z" fill="#EF5226"/>
<path d="M13.2744 21.5468H37.468V16.7081H13.2744V21.5468ZM21.3389 18.321H22.9518V19.9339H21.3389V18.321ZM18.1131 18.321H19.726V19.9339H18.1131V18.321ZM14.8873 18.321H16.5002V19.9339H14.8873V18.321Z" fill="#EF5226"/>
<path d="M11.6614 44.1274C11.634 44.1274 11.6082 44.1347 11.5808 44.1355C11.2622 42.5549 10.0138 41.3129 8.43561 40.9895V30.4178C8.43561 29.9726 8.79771 29.6113 9.24206 29.6113H11.6614V27.9984H9.24206C7.90819 27.9984 6.82271 29.0839 6.82271 30.4178V40.9903C5.24448 41.3137 3.99609 42.5557 3.67755 44.1363C3.65013 44.1347 3.62432 44.1274 3.5969 44.1274C1.81787 44.1274 0.371094 45.5742 0.371094 47.3533C0.371094 49.1323 1.81787 50.5791 3.5969 50.5791H11.6614C13.4404 50.5791 14.8872 49.1323 14.8872 47.3533C14.8872 45.5742 13.4404 44.1274 11.6614 44.1274Z" fill="#05A7CC"/>
<path d="M43.0875 7.03076C41.7536 7.03076 40.6682 8.11625 40.6682 9.45012C40.6682 10.5001 41.3448 11.3872 42.2819 11.7211L42.3036 23.9646C42.3036 24.1808 42.2198 24.384 42.0682 24.5356C41.9157 24.6888 41.7133 24.7727 41.498 24.7727H39.0811V26.3856H41.498C42.1448 26.3856 42.7528 26.1332 43.2101 25.6751C43.6673 25.2179 43.9182 24.609 43.9173 23.9614L43.8956 11.7203C44.8319 11.3856 45.5077 10.4993 45.5077 9.45012C45.5069 8.11625 44.4214 7.03076 43.0875 7.03076Z" fill="#EF5226"/>
<path d="M49.0233 4.4025L50.1056 3.20734C46.25 -0.282981 39.9758 -0.282981 36.1201 3.20734L37.2024 4.4025C40.4621 1.4525 45.7637 1.4525 49.0233 4.4025Z" fill="#F7A892"/>
<path d="M46.5415 6.80178L47.6673 5.64694C45.156 3.19614 41.0689 3.19614 38.5576 5.64694L39.6834 6.80178C41.5754 4.95743 44.6512 4.95743 46.5415 6.80178Z" fill="#F48C6E"/>
<path d="M2.159 10.1041C2.24609 10.3122 2.23803 10.5477 2.13803 10.7493L1.52109 11.9912L3.47513 13.9452L4.71787 13.3291C4.91867 13.2275 5.15335 13.2202 5.36222 13.3081C5.57109 13.3952 5.73158 13.5678 5.80174 13.7823L6.034 14.4807C6.14045 14.9065 6.34126 15.0339 6.82271 15.0735V23.9662C6.82271 25.3001 7.90819 26.3856 9.24206 26.3856H11.6614V24.7726H9.24206C8.79771 24.7726 8.43561 24.4114 8.43561 23.9662V15.0751C8.91545 15.0396 9.11303 14.9235 9.20819 14.5372L9.45658 13.7815C9.52674 13.567 9.68803 13.3952 9.8969 13.3073C10.1042 13.2202 10.3396 13.2275 10.5421 13.3283L11.784 13.9444L13.738 11.9904L13.1219 10.7493C13.0211 10.5468 13.0138 10.3114 13.1001 10.1033C13.1872 9.89442 13.3606 9.73394 13.5751 9.66378L14.8872 9.23152V6.44281L13.5743 6.01136C13.3598 5.94039 13.1864 5.77991 13.0993 5.57104C13.0122 5.36217 13.0203 5.12749 13.1203 4.92588L13.7372 3.68394L11.7832 1.72991L10.5404 2.34523C10.3388 2.44523 10.1042 2.4533 9.89609 2.3662C9.68722 2.2791 9.52674 2.10652 9.45658 1.892L9.02432 0.579102H6.234L5.80174 1.89281C5.73158 2.10733 5.57109 2.2791 5.36142 2.367C5.15416 2.4533 4.91948 2.44523 4.71706 2.34523L3.47513 1.7291L1.52109 3.68394L2.13722 4.92507C2.23803 5.12749 2.24609 5.36217 2.15819 5.57023C2.0719 5.7791 1.89851 5.93959 1.684 6.00975L0.371094 6.44281V9.23233L1.684 9.66459C1.89932 9.73475 2.0719 9.89523 2.159 10.1041ZM7.62916 6.22426C8.51626 6.22426 9.24206 6.95007 9.24206 7.83717C9.24206 8.72426 8.51626 9.45007 7.62916 9.45007C6.74206 9.45007 6.01625 8.72426 6.01625 7.83717C6.01625 6.95007 6.74206 6.22426 7.62916 6.22426Z" fill="#EF5226"/>
<path d="M46.3389 38.4823H49.5647V49.7726H46.3389V38.4823Z" fill="#EF5226"/>
<path d="M39.8877 41.7081H43.1135V49.7726H39.8877V41.7081Z" fill="#F27551"/>
<path d="M33.4355 44.934H36.6614V49.7727H33.4355V44.934Z" fill="#F48C6E"/>
</svg>
