<svg width="42" height="51" viewBox="0 0 42 51" fill="none" xmlns="http://www.w3.org/2000/svg">
<path fill-rule="evenodd" clip-rule="evenodd" d="M2.10762 45.1433V41.7254C2.10762 40.1059 3.44504 38.7839 5.08344 38.7839H19.7993V36.7409H21.4115V38.7839H36.1274C37.7658 38.7839 39.1032 40.106 39.1032 41.7254V45.1433C40.2613 45.4857 41.1055 46.5468 41.1055 47.803C41.1055 49.3362 39.848 50.579 38.2971 50.579C36.7462 50.579 35.4888 49.3361 35.4888 47.803C35.4888 46.5468 36.333 45.4857 37.4911 45.1433V41.7254C37.4911 40.9857 36.8758 40.3775 36.1275 40.3775H21.4116V45.1434C22.5697 45.4859 23.4139 46.5469 23.4139 47.8031C23.4139 49.3363 22.1565 50.5791 20.6055 50.5791C19.0546 50.5791 17.7972 49.3362 17.7972 47.8031C17.7972 46.5469 18.6414 45.4859 19.7994 45.1434V40.3775H5.08354C4.33518 40.3775 3.71982 40.9857 3.71982 41.7254V45.1433C4.87799 45.4857 5.72218 46.5468 5.72218 47.803C5.72218 49.3362 4.46476 50.579 2.91382 50.579C1.36288 50.579 0.105469 49.3361 0.105469 47.803C0.105469 46.5468 0.949557 45.4858 2.10762 45.1433ZM17.6133 24.5378C17.3698 24.17 17.4741 23.6767 17.8463 23.436C18.2185 23.1954 18.7175 23.2985 18.961 23.6663L19.7081 24.7917L22.3615 22.2642C22.6815 21.9599 23.1905 21.9697 23.4982 22.286C23.806 22.6024 23.7962 23.1055 23.4761 23.4096C23.0843 23.7825 20.1587 26.5982 20.0077 26.6958C19.6356 26.9364 19.1364 26.8333 18.8931 26.4655L17.6133 24.5378ZM35.4691 20.4158H28.728C28.7487 24.8671 25.1042 28.4841 20.6031 28.4841C16.102 28.4841 12.4574 24.8671 12.4782 20.4158H5.73699V22.4242C5.73699 22.6888 5.95534 22.9047 6.22307 22.9047H8.22633C8.55391 24.5285 9.1999 26.0386 10.098 27.3686L8.68067 28.7696C8.49134 28.9567 8.49134 29.2619 8.68067 29.4491L11.5016 32.2375C11.691 32.4247 11.9998 32.4247 12.189 32.2375L13.6063 30.8364C14.9518 31.7241 16.4795 32.3628 18.1222 32.6865V34.6667C18.1222 34.9313 18.3406 35.1472 18.6083 35.1472H22.5977C22.8654 35.1472 23.0838 34.9313 23.0838 34.6667V32.6865C24.7264 32.3627 26.2542 31.7241 27.5997 30.8363L29.017 32.2373C29.2063 32.4245 29.515 32.4245 29.7044 32.2373L32.5253 29.449C32.7147 29.2618 32.7147 28.9565 32.5253 28.7695L31.1079 27.3684C32.0058 26.0383 32.6521 24.5284 32.9796 22.9046H34.9829C35.2507 22.9046 35.469 22.6887 35.469 22.4241L35.4691 20.4158ZM20.603 6.28556C24.149 6.28556 27.0237 9.12709 27.0237 12.6322C27.0237 14.9521 25.7647 16.9813 23.885 18.0882C23.5925 18.2605 23.3911 18.5173 23.3017 18.8222H21.4091V13.2954C21.8582 13.0258 22.1583 12.5377 22.1583 11.9805C22.1583 11.1315 21.462 10.4431 20.603 10.4431C19.744 10.4431 19.0477 11.1314 19.0477 11.9805C19.0477 12.5378 19.3478 13.0259 19.7969 13.2955V18.8223H17.9043C17.8148 18.5173 17.6134 18.2606 17.3209 18.0883C15.4413 16.9814 14.1822 14.9522 14.1822 12.6323C14.1822 9.12719 17.057 6.28556 20.603 6.28556ZM21.4091 3.554C21.4091 3.99404 21.0482 4.35081 20.603 4.35081C20.1578 4.35081 19.7969 3.99404 19.7969 3.554V1.37591C19.7969 0.935874 20.1578 0.579102 20.603 0.579102C21.0482 0.579102 21.4091 0.935874 21.4091 1.37591V3.554ZM29.1277 12.7773C28.6825 12.7773 28.3216 12.4205 28.3216 11.9805C28.3216 11.5404 28.6825 11.1837 29.1277 11.1837H31.3312C31.7764 11.1837 32.1373 11.5404 32.1373 11.9805C32.1373 12.4205 31.7764 12.7773 31.3312 12.7773H29.1277ZM27.2008 6.58536L28.7589 5.04523C29.0737 4.73407 29.0737 4.22959 28.7589 3.91844C28.4441 3.60728 27.9338 3.60728 27.6191 3.91844L26.061 5.45857C25.7462 5.76973 25.7462 6.27421 26.061 6.58527C26.3758 6.89642 26.8862 6.89652 27.2008 6.58536ZM12.0783 11.1837C12.5235 11.1837 12.8844 11.5404 12.8844 11.9805C12.8844 12.4205 12.5235 12.7773 12.0783 12.7773H9.87481C9.42964 12.7773 9.06871 12.4205 9.06871 11.9805C9.06871 11.5404 9.42964 11.1837 9.87481 11.1837H12.0783ZM15.145 5.45867L13.5869 3.91854C13.2721 3.60738 12.7618 3.60738 12.4471 3.91854C12.1324 4.22969 12.1323 4.73417 12.4471 5.04533L14.0052 6.58546C14.3199 6.89662 14.8303 6.89662 15.145 6.58546C15.4598 6.27431 15.4598 5.76973 15.145 5.45867Z" fill="#EF5226"/>
</svg>
