<?xml version="1.0" encoding="UTF-8"?>
<svg id="Layer_2" data-name="Layer 2" xmlns="http://www.w3.org/2000/svg" viewBox="0 0 6599.13 1644.19">
  <defs>
    <style>
      .cls-1 {
        fill: #231f20;
      }

      .cls-2 {
        fill: #00a7cc;
      }

      .cls-3 {
        fill: #ef5325;
      }
    </style>
  </defs>
  <path class="cls-1" d="M6472.95,0c71.02,0,126.18,55.16,126.18,123.91s-55.16,124.67-126.94,124.67-127.69-54.4-127.69-124.67S6401.17,0,6472.2,0h.75ZM6471.44,24.93c-54.4,0-95.2,44.58-95.2,98.98s40.8,98.98,96.71,98.98c54.4.76,94.45-43.82,94.45-98.98s-40.04-98.98-95.2-98.98h-.76ZM6452.55,188.14h-28.71v-123.16c11.33-2.27,27.2-4.53,47.6-4.53,23.42,0,34,3.78,43.07,9.82,6.8,5.29,12.09,15.11,12.09,26.45,0,14.36-10.58,24.93-25.69,29.47v1.51c12.09,3.78,18.89,13.6,22.67,30.22,3.78,18.89,6.04,26.44,9.07,30.22h-30.98c-3.78-4.53-6.04-15.11-9.82-29.47-2.27-13.6-9.82-19.64-25.69-19.64h-13.6v49.11ZM6453.31,118.62h13.6c15.87,0,28.71-5.29,28.71-18.13,0-11.33-8.31-18.89-26.44-18.89-7.56,0-12.84.75-15.87,1.51v35.51Z"/>
  <g>
    <g>
      <path class="cls-3" d="M307,1301.5c-42.64,0-78.88-8.01-108.73-24.05-29.85-16.02-54.25-36.75-73.2-62.2-18.97-25.42-32.93-53.62-41.93-84.59-9.02-30.94-13.5-61.91-13.5-92.88v-384.81H0v-208.99h69.64v-255.43h233.09v255.43h120.81v208.99h-120.81v364.9c0,36.49,15.63,54.73,46.9,54.73h73.91v228.89h-116.55Z"/>
      <path class="cls-3" d="M706.37,963.8c0,34.4,11.59,64.88,34.82,91.46,23.21,26.58,56.61,39.87,100.2,39.87,40.73,0,72-5.99,93.81-17.98,21.79-11.97,43.1-29.44,63.96-52.37l139.29,153.21c-19.9,21.89-39.8,40.92-59.69,57.07-19.9,16.17-41.46,29.97-64.67,41.43-23.23,11.48-48.81,20.08-76.75,25.8-27.96,5.72-59.94,8.6-95.94,8.6-42.64,0-85.52-5.47-128.63-16.41-43.13-10.94-81.97-31.78-116.55-62.54-34.6-30.73-63.03-74.26-85.28-130.54-22.27-56.28-33.4-129.76-33.4-220.44,0-68.79,8.53-129.76,25.58-182.92,17.06-53.16,40.73-98.23,71.06-135.24,30.31-36.98,66.31-64.88,108.02-83.64,41.68-18.76,87.63-28.14,137.86-28.14,55.9,0,105.18,10.43,147.81,31.27,42.64,20.86,78.39,49.25,107.31,85.21,28.89,35.96,50.92,78.17,66.09,126.64,15.15,48.47,22.74,100.33,22.74,155.56v114.13h-457.65ZM930.93,761.34c-1.91-10.94-5.22-22.13-9.95-33.61-7.6-17.71-19.43-33.08-35.53-46.12-16.12-13.02-37.91-19.54-65.38-19.54s-49.28,6.52-65.38,19.54c-16.12,13.04-27.96,28.41-35.53,46.12-4.75,11.48-8.06,22.67-9.95,33.61-1.91,10.94-2.84,21.64-2.84,32.05h227.41c0-10.41-.95-21.11-2.84-32.05Z"/>
      <path class="cls-3" d="M1701.97,1282.74c-41.22,18.76-88.83,28.14-142.84,28.14-33.18,0-69.64-5.23-109.44-15.63-39.79-10.41-77.24-31-112.28-61.75-35.07-30.73-64.2-74.26-87.41-130.54-23.23-56.28-34.82-130.28-34.82-222.01s11.59-165.72,34.82-222.01c23.21-56.28,52.34-99.79,87.41-130.54,35.04-30.73,72.49-51.32,112.28-61.76,39.8-10.41,76.26-15.63,109.44-15.63,54.01,0,101.62,9.38,142.84,28.14,41.22,18.76,77.46,45.34,108.73,79.73l-157.76,173.54c-15.17-16.66-29.85-29.17-44.06-37.52-14.21-8.33-30.8-12.51-49.74-12.51-16.12,0-29.63,2.61-40.51,7.82-10.9,5.23-21.56,13.56-31.98,25.01-25.58,29.19-38.38,84.42-38.38,165.72s12.79,136.56,38.38,165.72c10.42,11.48,21.08,19.81,31.98,25.01,10.88,5.23,24.38,7.82,40.51,7.82,18.94,0,35.53-4.15,49.74-12.51,14.21-8.33,28.89-20.84,44.06-37.52l157.76,173.54c-31.27,34.4-67.51,60.97-108.73,79.73Z"/>
      <path class="cls-3" d="M2279.71,1301.5v-509.67c0-22.91-3.33-41.43-9.95-55.5-6.64-14.07-14.46-25.01-23.45-32.83-9.02-7.82-18.72-13.29-29.14-16.42-10.44-3.13-19.43-4.69-27.01-4.69s-16.59,1.56-27,4.69c-10.44,3.13-20.14,8.6-29.14,16.42-9.02,7.82-16.83,18.76-23.45,32.83-6.64,14.07-9.95,32.59-9.95,55.5v509.67h-233.09V188.35h233.09v340.82c24.63-27.09,51.39-46.9,80.3-59.41,28.89-12.51,58.03-18.76,87.41-18.76,41.68,0,77.68,7.82,108.02,23.45,30.31,15.63,55.65,37.28,76.04,64.88,20.36,27.63,35.53,59.95,45.48,96.93,9.95,37.01,14.92,76.88,14.92,119.6v545.63h-233.09Z"/>
      <path class="cls-2" d="M3077.76,1282.74c-41.22,18.76-88.83,28.14-142.84,28.14-33.18,0-69.64-5.23-109.44-15.63-39.79-10.41-77.24-31-112.28-61.75-35.07-30.73-64.2-74.26-87.41-130.54-23.23-56.28-34.82-130.28-34.82-222.01s11.59-165.72,34.82-222.01c23.21-56.28,52.34-99.79,87.41-130.54,35.04-30.73,72.49-51.32,112.28-61.76,39.8-10.41,76.26-15.63,109.44-15.63,54.01,0,101.62,9.38,142.84,28.14,41.22,18.76,77.46,45.34,108.73,79.73l-157.76,173.54c-15.17-16.66-29.85-29.17-44.06-37.52-14.21-8.33-30.8-12.51-49.74-12.51-16.12,0-29.63,2.61-40.51,7.82-10.9,5.23-21.56,13.56-31.98,25.01-25.58,29.19-38.38,84.42-38.38,165.72s12.79,136.56,38.38,165.72c10.42,11.48,21.08,19.81,31.98,25.01,10.88,5.23,24.38,7.82,40.51,7.82,18.94,0,35.53-4.15,49.74-12.51,14.21-8.33,28.89-20.84,44.06-37.52l157.76,173.54c-31.27,34.4-67.51,60.97-108.73,79.73Z"/>
      <path class="cls-2" d="M3473.57,1301.5c-42.64,0-78.88-7.55-108.73-22.67-29.84-15.1-54.25-34.64-73.2-58.63-18.96-23.96-32.93-50.54-41.93-79.73-9.01-29.17-13.5-58.36-13.5-87.55V188.35h233.09v845.81c0,34.4,15.63,51.59,46.9,51.59h81.01v215.75h-123.65Z"/>
      <path class="cls-2" d="M4275.18,880.94c0,41.7-1.42,78.17-4.26,109.44s-7.35,59.41-13.5,84.42c-6.18,25.01-14.7,47.95-25.58,68.79-10.9,20.86-24.41,40.65-40.51,59.41-11.37,13.56-24.87,26.58-40.51,39.09-15.63,12.51-33.4,23.99-53.3,34.4-19.9,10.43-42.42,18.76-67.51,25.01-25.12,6.25-53.3,9.38-84.57,9.38s-59.47-3.13-84.57-9.38c-25.12-6.25-47.61-14.58-67.51-25.01-19.9-10.41-37.66-21.89-53.3-34.4s-29.14-25.53-40.51-39.09c-16.12-18.76-29.62-38.55-40.51-59.41-10.9-20.84-19.43-43.77-25.58-68.79-6.17-25.01-10.66-53.16-13.5-84.42-2.84-31.27-4.26-67.74-4.26-109.44s1.42-76.85,4.26-108.66c2.84-31.78,7.33-60.19,13.5-85.21,6.15-25.01,14.68-47.93,25.58-68.79,10.88-20.84,24.38-40.65,40.51-59.41,22.74-27.09,54.01-51.84,93.81-74.26,39.79-22.4,90.47-33.61,152.08-33.61s112.28,11.21,152.08,33.61c39.8,22.43,71.07,47.17,93.81,74.26,16.1,18.76,29.6,38.57,40.51,59.41,10.88,20.86,19.41,43.78,25.58,68.79,6.15,25.01,10.66,53.43,13.5,85.21,2.84,31.8,4.26,68.01,4.26,108.66ZM4042.08,880.94c0-41.67-1.91-77.12-5.68-106.31-3.8-29.17-13.28-52.11-28.43-68.79-14.21-15.63-35.07-23.45-62.54-23.45s-48.32,7.82-62.54,23.45c-15.17,16.68-24.65,39.62-28.43,68.79-3.8,29.19-5.68,64.64-5.68,106.31s1.89,77.15,5.68,106.31c3.78,29.19,13.26,52.13,28.43,68.79,14.21,15.63,35.04,23.45,62.54,23.45s48.32-7.82,62.54-23.45c15.15-16.66,24.63-39.6,28.43-68.79,3.77-29.17,5.68-64.61,5.68-106.31Z"/>
      <path class="cls-2" d="M4786.82,1301.5v-68.79c-23.69,26.07-51.65,45.61-83.86,58.63-32.22,13.02-63.49,19.54-93.81,19.54-36.02,0-68.46-6.25-97.36-18.76-28.91-12.51-53.79-30.22-74.62-53.16-33.18-36.47-54.25-74.51-63.25-114.13-9.01-39.6-13.5-81.81-13.5-126.64V460.38h233.09v503.42c0,23.99,3.31,43.53,9.95,58.63,6.62,15.12,14.92,26.85,24.87,35.18,9.95,8.35,20.36,14.07,31.27,17.2,10.88,3.13,20.12,4.69,27.71,4.69s16.81-1.56,27.71-4.69c10.88-3.13,21.32-8.84,31.27-17.2,9.95-8.33,18.23-20.06,24.87-35.18,6.62-15.1,9.95-34.64,9.95-58.63v-503.42h233.09v841.12h-227.41Z"/>
      <path class="cls-2" d="M5540.09,1301.5v-68.79c-23.69,26.07-49.03,45.61-76.04,58.63-27,13.02-60.4,19.54-100.2,19.54-36.96,0-71.78-6.79-104.46-20.32-32.69-13.53-59.94-32.29-81.73-56.28-18.96-20.84-33.18-45.07-42.64-72.7-9.48-27.6-16.35-57.07-20.61-88.33-4.27-31.27-6.64-63.32-7.11-96.15-.49-32.83-.71-64.88-.71-96.15s.22-63.32.71-96.15c.47-32.83,2.84-64.88,7.11-96.15,4.26-31.27,11.13-60.7,20.61-88.33,9.46-27.6,23.67-51.84,42.64-72.7,21.78-23.96,48.79-42.73,81.01-56.28,32.2-13.53,66.8-20.32,103.75-20.32s70.35,5.74,97.36,17.2c27.01,11.48,51.39,29.19,73.2,53.16V188.35h233.09v1113.15h-225.98ZM5532.99,880.94c0-30.22-.95-57.58-2.84-82.08-1.91-24.48-6.18-45.34-12.79-62.54-6.64-17.2-16.34-30.49-29.14-39.87-12.79-9.38-30.09-14.07-51.88-14.07s-39.09,4.69-51.88,14.07c-12.79,9.38-22.52,22.67-29.14,39.87-6.64,17.2-10.9,38.06-12.79,62.54-1.91,24.5-2.84,51.86-2.84,82.08s.93,57.6,2.84,82.08c1.89,24.5,6.15,45.34,12.79,62.54,6.62,17.2,16.35,30.49,29.14,39.87,12.79,9.38,30.07,14.07,51.88,14.07s39.09-4.69,51.88-14.07c12.79-9.38,22.5-22.67,29.14-39.87,6.62-17.2,10.88-38.04,12.79-62.54,1.89-24.48,2.84-51.84,2.84-82.08Z"/>
    </g>
    <g>
      <path class="cls-1" d="M2536.61,1611.61c-3.47,7.16-8.25,13.19-14.32,18.08-6.07,4.89-13.34,8.53-21.8,10.92-8.46,2.38-17.57,3.58-27.33,3.58-13.45,0-25.92-1.73-37.42-5.19-11.5-3.46-22.13-10.44-31.89-20.94l21.8-23.98c6.72,7.64,14.26,12.71,22.61,15.21,8.35,2.51,16.65,3.76,24.89,3.76,10.19,0,18.76-2.02,25.71-6.09,6.94-4.05,10.41-10.38,10.41-18.97,0-6.2-1.68-11.15-5.04-14.85-3.37-3.7-9.06-5.91-17.08-6.62l-26.36-2.5c-15.62-1.43-27.66-6.14-36.12-14.14-8.46-7.99-12.69-19.98-12.69-35.97,0-8.83,1.63-16.7,4.88-23.62,3.25-6.92,7.7-12.71,13.34-17.36,5.64-4.65,12.2-8.23,19.69-10.74,7.48-2.51,15.56-3.76,24.24-3.76,12.37,0,23.75,1.55,34.17,4.65,10.41,3.1,19.41,8.35,27.01,15.75l-20.82,23.27c-5.21-4.77-11.34-8.17-18.38-10.2-7.05-2.02-14.48-3.04-22.29-3.04-9.98,0-17.46,2.15-22.45,6.44-4.99,4.3-7.48,9.9-7.48,16.82,0,5.49,1.57,10.08,4.72,13.78,3.14,3.7,9.16,6.03,18.06,6.98l26.03,2.51c15.62,1.43,27.71,6.26,36.28,14.5,8.57,8.23,12.85,20.46,12.85,36.69,0,9.55-1.74,17.9-5.21,25.05Z"/>
      <path class="cls-1" d="M2740.63,1591.75c-2.6,11.57-7.81,21.89-15.62,30.96-5.43,6.21-12.2,11.34-20.34,15.39s-17.85,6.08-29.12,6.08-20.94-2.03-28.96-6.08c-8.03-4.05-14.75-9.18-20.17-15.39-7.81-9.07-13.02-19.38-15.62-30.96-2.6-11.57-3.9-25.11-3.9-40.62s1.3-28.69,3.9-40.27c2.6-11.57,7.81-21.89,15.62-30.96,5.42-6.2,12.15-11.33,20.17-15.39,8.02-4.05,17.68-6.08,28.96-6.08s20.99,2.03,29.12,6.08c8.13,4.06,14.91,9.19,20.34,15.39,7.81,9.07,13.02,19.39,15.62,30.96,2.6,11.58,3.9,25,3.9,40.27s-1.3,29.05-3.9,40.62ZM2709.39,1522.85c-1.3-8.83-4.45-15.99-9.44-21.48-6.29-6.92-14.43-10.38-24.4-10.38s-17.79,3.46-24.08,10.38c-4.99,5.49-8.13,12.65-9.44,21.48-1.3,8.83-1.95,18.25-1.95,28.28s.65,19.45,1.95,28.27c1.3,8.83,4.44,15.99,9.44,21.48,6.51,7.16,14.53,10.74,24.08,10.74s17.9-3.58,24.4-10.74c4.99-5.49,8.13-12.64,9.44-21.48,1.3-8.82,1.95-18.25,1.95-28.27s-.65-19.45-1.95-28.28Z"/>
      <path class="cls-1" d="M2866.22,1642.04c-7.81,0-14.59-1.37-20.34-4.12-5.75-2.74-10.47-6.38-14.15-10.92-3.69-4.53-6.4-9.84-8.13-15.93-1.74-6.08-2.6-12.47-2.6-19.15v-204.73h33.19v202.59c0,6.92,1.3,12.17,3.9,15.75,2.6,3.58,7.26,5.37,13.99,5.37h14.64v31.14h-20.5Z"/>
      <path class="cls-1" d="M3055.27,1642.04v-18.25c-5.64,6.92-12.31,12.05-20.01,15.39-7.7,3.34-15.67,5.01-23.92,5.01s-16.11-1.43-22.94-4.3c-6.83-2.86-12.75-6.92-17.73-12.17-6.29-6.92-10.63-14.61-13.02-23.09-2.39-8.47-3.58-17.84-3.58-28.1v-115.97h33.19v110.6c0,14.08,3.2,24.34,9.6,30.78,6.39,6.44,14.26,9.66,23.59,9.66,4.56,0,8.95-.77,13.18-2.33,4.23-1.55,7.86-3.99,10.9-7.34,3.03-3.34,5.48-7.57,7.32-12.71,1.84-5.13,2.77-11.15,2.77-18.08v-110.6h33.19v181.47h-32.54Z"/>
      <path class="cls-1" d="M3222.19,1642.04c-7.81,0-14.54-1.43-20.17-4.3-5.64-2.86-10.3-6.62-13.99-11.28-3.69-4.65-6.46-10.02-8.3-16.11-1.85-6.08-2.77-12.35-2.77-18.79v-99.86h-18.87v-27.92h18.87v-55.12h33.19v55.12h31.89v27.92h-31.89v98.07c0,6.68,1.46,11.87,4.39,15.57,2.93,3.7,7.53,5.55,13.83,5.55h13.67v31.14h-19.85Z"/>
      <path class="cls-1" d="M3315.9,1424.78v-38.66h35.14v38.66h-35.14ZM3316.88,1642.04v-181.47h33.19v181.47h-33.19Z"/>
      <path class="cls-1" d="M3561.24,1591.75c-2.6,11.57-7.81,21.89-15.62,30.96-5.42,6.21-12.2,11.34-20.33,15.39-8.14,4.05-17.85,6.08-29.12,6.08s-20.94-2.03-28.96-6.08c-8.03-4.05-14.76-9.18-20.17-15.39-7.81-9.07-13.02-19.38-15.62-30.96-2.6-11.57-3.9-25.11-3.9-40.62s1.3-28.69,3.9-40.27c2.6-11.57,7.81-21.89,15.62-30.96,5.42-6.2,12.15-11.33,20.17-15.39,8.02-4.05,17.68-6.08,28.96-6.08s20.99,2.03,29.12,6.08c8.13,4.06,14.91,9.19,20.33,15.39,7.81,9.07,13.02,19.39,15.62,30.96,2.6,11.58,3.9,25,3.9,40.27s-1.3,29.05-3.9,40.62ZM3530,1522.85c-1.3-8.83-4.45-15.99-9.44-21.48-6.29-6.92-14.43-10.38-24.4-10.38s-17.79,3.46-24.08,10.38c-4.99,5.49-8.14,12.65-9.44,21.48-1.3,8.83-1.95,18.25-1.95,28.28s.65,19.45,1.95,28.27c1.3,8.83,4.44,15.99,9.44,21.48,6.51,7.16,14.53,10.74,24.08,10.74s17.9-3.58,24.4-10.74c4.99-5.49,8.14-12.64,9.44-21.48,1.3-8.82,1.95-18.25,1.95-28.27s-.65-19.45-1.95-28.28Z"/>
      <path class="cls-1" d="M3743.12,1642.04v-110.6c0-14.08-3.2-24.34-9.6-30.78-6.4-6.44-14.26-9.66-23.59-9.66s-17.36,3.28-24.08,9.84c-6.73,6.57-10.09,16.77-10.09,30.6v110.6h-33.19v-181.47h32.54v18.25c5.64-6.92,12.31-12.05,20.01-15.39,7.7-3.34,15.67-5.01,23.92-5.01s16.11,1.43,22.94,4.3c6.83,2.86,12.74,6.92,17.74,12.17,6.29,6.92,10.62,14.62,13.02,23.09,2.38,8.47,3.58,17.84,3.58,28.1v115.97h-33.19Z"/>
      <path class="cls-1" d="M3976.75,1611.61c-3.47,7.16-8.25,13.19-14.32,18.08-6.08,4.89-13.34,8.53-21.8,10.92-8.46,2.38-17.57,3.58-27.33,3.58-13.45,0-25.93-1.73-37.42-5.19-11.5-3.46-22.13-10.44-31.89-20.94l21.8-23.98c6.72,7.64,14.26,12.71,22.61,15.21,8.35,2.51,16.65,3.76,24.89,3.76,10.19,0,18.76-2.02,25.7-6.09,6.94-4.05,10.41-10.38,10.41-18.97,0-6.2-1.68-11.15-5.04-14.85-3.37-3.7-9.06-5.91-17.08-6.62l-26.36-2.5c-15.62-1.43-27.66-6.14-36.12-14.14-8.46-7.99-12.69-19.98-12.69-35.97,0-8.83,1.63-16.7,4.88-23.62,3.25-6.92,7.7-12.71,13.34-17.36,5.64-4.65,12.2-8.23,19.69-10.74,7.48-2.51,15.56-3.76,24.24-3.76,12.36,0,23.75,1.55,34.16,4.65,10.41,3.1,19.41,8.35,27.01,15.75l-20.83,23.27c-5.21-4.77-11.34-8.17-18.39-10.2-7.05-2.02-14.48-3.04-22.29-3.04-9.98,0-17.47,2.15-22.45,6.44-4.99,4.3-7.48,9.9-7.48,16.82,0,5.49,1.57,10.08,4.72,13.78,3.14,3.7,9.16,6.03,18.06,6.98l26.03,2.51c15.62,1.43,27.71,6.26,36.28,14.5,8.57,8.23,12.85,20.46,12.85,36.69,0,9.55-1.74,17.9-5.21,25.05Z"/>
      <path class="cls-1" d="M4265.04,1642.04v-18.25c-5.65,6.92-12.32,12.05-20.01,15.39-7.7,3.34-15.67,5.01-23.92,5.01s-16.11-1.43-22.94-4.3c-6.83-2.86-12.75-6.92-17.73-12.17-6.29-6.92-10.63-14.61-13.02-23.09-2.39-8.47-3.58-17.84-3.58-28.1v-115.97h33.19v110.6c0,14.08,3.2,24.34,9.6,30.78,6.4,6.44,14.26,9.66,23.59,9.66,4.56,0,8.95-.77,13.18-2.33,4.23-1.55,7.86-3.99,10.9-7.34,3.03-3.34,5.48-7.57,7.32-12.71,1.84-5.13,2.77-11.15,2.77-18.08v-110.6h33.19v181.47h-32.54Z"/>
      <path class="cls-1" d="M4483.37,1642.04v-110.6c0-14.08-3.2-24.34-9.6-30.78-6.4-6.44-14.26-9.66-23.59-9.66s-17.36,3.28-24.08,9.84c-6.73,6.57-10.09,16.77-10.09,30.6v110.6h-33.19v-181.47h32.54v18.25c5.64-6.92,12.31-12.05,20.01-15.39,7.7-3.34,15.67-5.01,23.92-5.01s16.11,1.43,22.94,4.3c6.83,2.86,12.74,6.92,17.74,12.17,6.29,6.92,10.62,14.62,13.02,23.09,2.38,8.47,3.58,17.84,3.58,28.1v115.97h-33.19Z"/>
      <path class="cls-1" d="M4644.43,1642.04c-7.81,0-14.59-1.37-20.34-4.12-5.75-2.74-10.47-6.38-14.15-10.92-3.69-4.53-6.4-9.84-8.14-15.93-1.74-6.08-2.6-12.47-2.6-19.15v-204.73h33.19v202.59c0,6.92,1.3,12.17,3.9,15.75,2.6,3.58,7.27,5.37,13.99,5.37h14.64v31.14h-20.5Z"/>
      <path class="cls-1" d="M4732.93,1424.78v-38.66h35.14v38.66h-35.14ZM4733.91,1642.04v-181.47h33.19v181.47h-33.19Z"/>
      <path class="cls-1" d="M5053.44,1642.04v-110.6c0-14.08-3.2-24.34-9.6-30.78-6.4-6.44-14.27-9.66-23.59-9.66-4.56,0-8.9.78-13.02,2.33-4.12,1.55-7.76,3.94-10.9,7.16-3.15,3.22-5.64,7.28-7.48,12.17-1.85,4.89-2.77,10.56-2.77,17v112.39h-33.19v-110.6c0-14.08-3.2-24.34-9.6-30.78-6.4-6.44-14.26-9.66-23.59-9.66s-17.36,3.28-24.08,9.84c-6.73,6.57-10.09,16.77-10.09,30.6v110.6h-33.19v-181.47h32.54v18.25c5.64-6.68,12.31-11.75,20.01-15.21,7.7-3.46,15.67-5.19,23.92-5.19,20.82,0,36.44,8.83,46.85,26.49,13.23-17.66,30.48-26.49,51.74-26.49,8.46,0,16.27,1.43,23.43,4.3,7.16,2.86,13.23,6.92,18.22,12.17,6.29,6.92,10.79,14.62,13.5,23.09,2.71,8.47,4.07,17.84,4.07,28.1v115.97h-33.19Z"/>
      <path class="cls-1" d="M5169.28,1424.78v-38.66h35.14v38.66h-35.14ZM5170.25,1642.04v-181.47h33.19v181.47h-33.19Z"/>
      <path class="cls-1" d="M5337.82,1642.04c-7.81,0-14.53-1.43-20.17-4.3-5.65-2.86-10.31-6.62-13.99-11.28-3.69-4.65-6.46-10.02-8.3-16.11-1.85-6.08-2.77-12.35-2.77-18.79v-99.86h-18.87v-27.92h18.87v-55.12h33.19v55.12h31.89v27.92h-31.89v98.07c0,6.68,1.47,11.87,4.39,15.57,2.93,3.7,7.53,5.55,13.83,5.55h13.67v31.14h-19.85Z"/>
      <path class="cls-1" d="M5455.61,1561.86c0,15.75,3.58,28.16,10.74,37.22,7.16,9.07,17.57,13.6,31.24,13.6,9.33,0,16.87-1.49,22.61-4.47,5.75-2.98,11.55-7.7,17.41-14.14l21.15,21.83c-4.34,4.78-8.62,8.89-12.85,12.35-4.23,3.46-8.79,6.39-13.67,8.77-4.88,2.39-10.2,4.18-15.94,5.37-5.75,1.19-12.2,1.79-19.36,1.79-10.41,0-20.12-1.61-29.13-4.83-9.01-3.22-16.85-8.47-23.53-15.75-6.68-7.28-11.99-16.88-15.94-28.81-3.95-11.93-5.91-26.48-5.91-43.67,0-29.58,6.4-52.44,19.2-68.54,12.79-16.11,29.82-24.16,51.08-24.16,11.06,0,20.93,2.15,29.61,6.44,8.67,4.3,16,10.26,21.96,17.9,5.96,7.64,10.52,16.82,13.67,27.56,3.14,10.74,4.72,22.55,4.72,35.43v16.11h-107.05ZM5528.66,1523.03c-.54-3.46-1.68-7.22-3.42-11.28-2.6-6.92-6.72-12.47-12.37-16.64-5.64-4.17-12.36-6.26-20.17-6.26s-14.59,2.09-20.34,6.26c-5.75,4.18-9.93,9.72-12.53,16.64-1.74,4.06-2.82,7.82-3.25,11.28-.44,3.46-.76,7.93-.98,13.42h74.19c-.22-5.49-.6-9.96-1.14-13.42Z"/>
      <path class="cls-1" d="M5733.49,1642.04v-19.33c-6.3,8.35-12.85,14.02-19.69,17-6.83,2.98-14.8,4.47-23.92,4.47-8.25,0-15.89-1.43-22.94-4.3-7.05-2.86-12.85-6.8-17.41-11.81-4.12-4.53-7.43-9.78-9.93-15.75-2.5-5.96-4.39-12.35-5.69-19.15-1.3-6.8-2.12-13.78-2.44-20.94-.33-7.16-.49-14.19-.49-21.12s.16-13.96.49-21.12c.32-7.16,1.14-14.08,2.44-20.76,1.3-6.68,3.2-13,5.69-18.97,2.49-5.96,5.8-11.21,9.93-15.75,4.56-5.01,10.3-8.95,17.24-11.81,6.94-2.86,14.53-4.3,22.78-4.3,8.89,0,16.81,1.43,23.75,4.3,6.94,2.86,13.45,8.23,19.52,16.11v-91.63h33.19v254.84h-32.54ZM5731.7,1528.04c-.76-7.27-2.33-13.66-4.72-19.15-2.39-5.49-5.86-9.84-10.41-13.06-4.56-3.22-10.52-4.83-17.9-4.83s-13.61,1.61-18.06,4.83c-4.45,3.22-7.92,7.58-10.41,13.06-2.5,5.49-4.12,11.87-4.88,19.15-.76,7.28-1.14,14.98-1.14,23.09s.38,15.81,1.14,23.09c.76,7.28,2.39,13.72,4.88,19.33,2.49,5.61,5.96,10.02,10.41,13.24,4.44,3.22,10.47,4.83,18.06,4.83s13.34-1.61,17.9-4.83c4.56-3.22,8.02-7.64,10.41-13.24,2.39-5.6,3.96-12.05,4.72-19.33.76-7.28,1.14-14.97,1.14-23.09s-.38-15.81-1.14-23.09Z"/>
    </g>
    <g>
      <path class="cls-1" d="M6342.85,1301.55h-491.34v-303.63h107.65v193.85h82.12v-165.62h107.65v165.62h86.26v-193.85h107.65v303.63Z"/>
      <path class="cls-1" d="M6342.85,694.3l-182.87,79.04v37.01h182.87v109.79h-491.34v-176.91c0-24.67,4.49-46.52,13.46-65.56,8.97-19.03,20.82-35.02,35.54-47.99,14.73-12.96,31.52-22.68,50.38-29.17,18.87-6.48,38.42-9.72,58.66-9.72,16.56,0,31.74,2.1,45.55,6.27,13.8,4.19,26,9.72,36.57,16.62,10.59,6.9,19.67,14.74,27.26,23.53,7.59,8.78,13.92,17.57,18.98,26.35l204.95-96.61v127.35ZM6009.54,700.57c-12.87,0-24.38,4.18-34.5,12.55-10.11,8.37-15.18,20.07-15.18,35.13v62.11h99.37v-62.11c0-15.06-5.06-26.76-15.18-35.13-10.11-8.36-21.62-12.55-34.5-12.55Z"/>
      <path class="cls-1" d="M6009.54,181.76c20.25,0,39.8,3.24,58.66,9.72,18.87,6.49,35.66,16.21,50.38,29.17,14.73,12.97,26.57,28.97,35.54,47.99,8.97,19.04,13.46,40.88,13.46,65.56v67.12h175.28v109.78h-491.34v-176.91c0-24.67,4.49-46.52,13.46-65.56,8.97-19.03,20.82-35.02,35.54-47.99,14.73-12.96,31.52-22.68,50.38-29.17,18.87-6.48,38.42-9.72,58.66-9.72ZM6009.54,291.55c-12.87,0-24.38,4.18-34.5,12.55-10.11,8.37-15.18,20.07-15.18,35.13v62.11h99.37v-62.11c0-15.06-5.06-26.76-15.18-35.13-10.11-8.36-21.62-12.55-34.5-12.55Z"/>
    </g>
  </g>
</svg>