<svg width="51" height="51" viewBox="0 0 51 51" fill="none" xmlns="http://www.w3.org/2000/svg">
<path d="M47.3776 38.6209H46.5441V36.1205C46.5441 33.8201 44.6771 31.9532 42.3767 31.9532H27.3742V30.2862C27.3742 29.3694 26.6241 28.6193 25.7073 28.6193C24.7905 28.6193 24.0404 29.3694 24.0404 30.2862V31.9532H9.03785C6.73746 31.9532 4.87049 33.8201 4.87049 36.1205V38.6209H4.03701C2.20338 38.6209 0.703125 40.1212 0.703125 41.9548V46.9557C0.703125 48.7893 2.20338 50.2895 4.03701 50.2895H9.03785C10.8715 50.2895 12.3717 48.7893 12.3717 46.9557V41.9548C12.3717 40.1212 10.8715 38.6209 9.03785 38.6209H8.20438V36.1205C8.20438 35.6538 8.5711 35.287 9.03785 35.287H24.0404V38.6209H23.2069C21.3732 38.6209 19.873 40.1212 19.873 41.9548V46.9557C19.873 48.7893 21.3732 50.2895 23.2069 50.2895H28.2077C30.0414 50.2895 31.5416 48.7893 31.5416 46.9557V41.9548C31.5416 40.1212 30.0414 38.6209 28.2077 38.6209H27.3742V35.287H42.3767C42.8435 35.287 43.2102 35.6538 43.2102 36.1205V38.6209H42.3767C40.5431 38.6209 39.0429 40.1212 39.0429 41.9548V46.9557C39.0429 48.7893 40.5431 50.2895 42.3767 50.2895H47.3776C49.2112 50.2895 50.7115 48.7893 50.7115 46.9557V41.9548C50.7115 40.1212 49.2112 38.6209 47.3776 38.6209Z" fill="#EF5226"/>
<path d="M41.543 13.6168C41.543 14.5336 42.2931 15.2837 43.2099 15.2837H44.8769C45.7937 15.2837 46.5438 14.5336 46.5438 13.6168C46.5438 12.7 45.7937 11.9498 44.8769 11.9498H43.2099C42.2931 11.9498 41.543 12.7 41.543 13.6168Z" fill="#05A7CC"/>
<path d="M41.7608 8.43246C41.9942 8.43246 42.2275 8.38246 42.4442 8.28244L43.8945 7.63233C44.728 7.24893 45.1114 6.26544 44.728 5.43196C44.3446 4.59849 43.3611 4.21509 42.5276 4.59849L41.0773 5.2486C40.2439 5.632 39.8605 6.6155 40.2439 7.44897C40.5273 8.06574 41.1274 8.43246 41.7608 8.43246Z" fill="#05A7CC"/>
<path d="M41.0773 21.985L42.5276 22.6351C42.7443 22.7351 42.9777 22.7851 43.211 22.7851C43.8445 22.7851 44.4612 22.4184 44.728 21.8016C45.1114 20.9682 44.728 19.968 43.8945 19.6013L42.4442 18.9512C41.6108 18.5678 40.6106 18.9512 40.2439 19.7846C39.8605 20.6181 40.2439 21.6183 41.0773 21.985Z" fill="#05A7CC"/>
<path d="M6.53706 15.2837H8.20401C9.12083 15.2837 9.87095 14.5336 9.87095 13.6168C9.87095 12.7 9.12083 11.9498 8.20401 11.9498H6.53706C5.62024 11.9498 4.87012 12.7 4.87012 13.6168C4.87012 14.5336 5.62024 15.2837 6.53706 15.2837Z" fill="#05A7CC"/>
<path d="M7.52169 7.63233L8.97193 8.28244C9.18863 8.38246 9.422 8.43246 9.65538 8.43246C10.2888 8.43246 10.9056 8.06574 11.1723 7.44897C11.5557 6.6155 11.1723 5.61533 10.3388 5.2486L8.88858 4.59849C8.05511 4.21509 7.07161 4.59849 6.68821 5.43196C6.30482 6.26544 6.68821 7.2656 7.52169 7.63233Z" fill="#05A7CC"/>
<path d="M8.97193 18.9512L7.52169 19.6013C6.68821 19.9847 6.30482 20.9682 6.68821 21.8016C6.97159 22.4184 7.57169 22.7851 8.20513 22.7851C8.43851 22.7851 8.67188 22.7351 8.88858 22.6351L10.3388 21.985C11.1723 21.6016 11.5557 20.6181 11.1723 19.7846C10.7889 18.9512 9.8054 18.5678 8.97193 18.9512Z" fill="#05A7CC"/>
<path d="M35.7095 6.61561L26.6246 0.564597C26.0578 0.197869 25.3411 0.197869 24.7743 0.564597L15.6895 6.61561L25.6911 13.2834L35.6928 6.61561H35.7095Z" fill="#EF5226"/>
<path d="M14.7892 20.0012L24.7909 26.669C25.0742 26.8523 25.391 26.9524 25.7077 26.9524C26.0244 26.9524 26.3578 26.8523 26.6245 26.669L36.6262 20.0012C37.0929 19.6845 37.3763 19.1677 37.3763 18.6176V9.51611L27.3746 16.1839V18.6176C27.3746 19.5345 26.6245 20.2846 25.7077 20.2846C24.7909 20.2846 24.0407 19.5345 24.0407 18.6176V16.1839L14.0391 9.51611V18.6176C14.0391 19.1677 14.3224 19.7011 14.7892 20.0012Z" fill="#EF5226"/>
</svg>
