<svg width="54" height="51" viewBox="0 0 54 51" fill="none" xmlns="http://www.w3.org/2000/svg">
<path fill-rule="evenodd" clip-rule="evenodd" d="M53.711 34.3801C53.7046 34.5113 53.6283 34.6201 53.5075 34.6713L45.5785 38.0464C45.4768 38.0913 45.3719 38.0848 45.2796 38.0304C45.1841 37.976 45.1269 37.8865 45.1143 37.7777L44.0524 29.1782C44.0364 29.0471 44.0938 28.9287 44.2019 28.8551C44.31 28.7815 44.4435 28.7783 44.5547 28.8455L47.1076 30.3268C49.2727 21.6121 45.5626 12.1072 37.4745 7.4043C29.3833 2.70463 19.3464 4.22747 12.9275 10.4692L9.04565 8.21375C16.7617 -0.0787578 29.4724 -2.28949 39.6428 3.62276C49.8163 9.53174 54.2705 21.7112 50.9927 32.5821L53.5457 34.0666C53.6569 34.1338 53.7205 34.249 53.711 34.3801ZM16.9525 43.1748C8.86127 38.4719 5.15426 28.967 7.3162 20.2524L9.86911 21.7335C9.98037 21.8007 10.1139 21.7975 10.222 21.724C10.33 21.6504 10.3873 21.532 10.3713 21.4008L9.3127 12.8013C9.29677 12.6925 9.23957 12.6062 9.14738 12.5486C9.05205 12.4942 8.94707 12.4878 8.84534 12.5326L0.916305 15.9079C0.795512 15.9591 0.719245 16.0678 0.712852 16.199C0.703319 16.3302 0.766912 16.4486 0.881312 16.5126L3.43108 17.997C0.153302 28.868 4.60738 41.0474 14.781 46.9564C24.9515 52.8686 37.6621 50.6578 45.3782 42.3655L41.4963 40.1101C35.0775 46.3518 25.0436 47.8744 16.9525 43.1748ZM13.3791 26.9931C13.325 27.2427 13.112 27.4155 12.8608 27.4155H11.8117C11.5382 27.4155 11.3126 27.6202 11.2807 27.8922C11.1758 28.8455 11.1758 29.8053 11.2807 30.7586C11.3126 31.0306 11.5382 31.2354 11.8117 31.2354H12.8608C13.1119 31.2354 13.325 31.4082 13.3791 31.6577C13.6492 32.8991 14.1358 34.1051 14.8415 35.212C14.9782 35.4264 14.9496 35.6984 14.7715 35.8775L14.0275 36.6261C13.8368 36.8181 13.8177 37.1252 13.9894 37.3395C14.2819 37.7074 14.5998 38.0657 14.9401 38.4079C15.2802 38.7502 15.6363 39.0702 16.0051 39.3646C16.2149 39.5373 16.5201 39.5182 16.7109 39.3262L17.4548 38.5807C17.6328 38.3983 17.9063 38.3696 18.1194 38.5071C19.2161 39.2174 20.4148 39.7069 21.6483 39.9789C21.8962 40.0333 22.068 40.2476 22.068 40.5003V41.556C22.068 41.8311 22.2714 42.0583 22.5417 42.0903C23.4891 42.1959 24.446 42.1959 25.3903 42.0903C25.6606 42.0583 25.864 41.8311 25.864 41.556V40.5003C25.864 40.2476 26.0357 40.0333 26.2837 39.9789C27.5205 39.7069 28.7158 39.2174 29.8159 38.5071C30.0288 38.3696 30.2991 38.3983 30.4803 38.5807L31.221 39.3262C31.4117 39.5182 31.7169 39.5373 31.9299 39.3646C32.2955 39.0702 32.6516 38.7504 32.9918 38.4079C33.332 38.0656 33.6499 37.7073 33.9424 37.3395C34.1142 37.1252 34.0982 36.8179 33.9043 36.6261L33.1636 35.8775C33.0428 35.7559 32.9888 35.5959 33.011 35.436L30.4581 35.3976C29.9335 35.3976 29.4121 35.3688 28.8907 35.3112C28.4996 35.2664 28.1531 35.1032 27.8766 34.857C26.7734 35.6471 25.4254 36.1143 23.9661 36.1143C20.24 36.1143 17.2198 33.075 17.2198 29.3255C17.2198 25.576 20.24 22.5368 23.9661 22.5368C26.7829 22.5368 29.1928 24.2708 30.2038 26.7374C30.2897 26.7405 30.3723 26.7438 30.4582 26.7438C31.8412 26.7438 33.1065 26.2255 34.0666 25.3681C33.8091 24.7027 33.4847 24.0565 33.0906 23.439C32.9539 23.2247 32.9825 22.9527 33.1637 22.7736L33.9044 22.025C34.0983 21.833 34.1143 21.5259 33.9426 21.3116C33.6501 20.9436 33.3322 20.5853 32.9919 20.243C32.6517 19.9007 32.2956 19.5807 31.93 19.2864C31.717 19.1136 31.4117 19.1296 31.2211 19.3247L30.4804 20.0701C30.2991 20.2525 30.029 20.2812 29.816 20.1437C28.7159 19.4334 27.5206 18.9439 26.2838 18.672C26.0358 18.6176 25.8641 18.4032 25.8641 18.1473V17.0916C25.8641 16.8196 25.6607 16.5925 25.3904 16.5604C24.4461 16.4548 23.4892 16.4548 22.5418 16.5604C22.2716 16.5924 22.0681 16.8196 22.0681 17.0916V18.1504C22.0681 18.4032 21.8964 18.6176 21.6484 18.672C20.4148 18.9439 19.2163 19.4334 18.1195 20.1437C17.9065 20.2812 17.633 20.2525 17.4549 20.0701L16.711 19.3247C16.5202 19.1296 16.2151 19.1136 16.0052 19.2864C15.6364 19.5807 15.2803 19.9007 14.9402 20.243C14.6 20.5853 14.282 20.9436 13.9895 21.3116C13.8178 21.5259 13.8369 21.8331 14.0277 22.025L14.7716 22.7736C14.9496 22.9527 14.9783 23.2247 14.8416 23.439C14.1359 24.5459 13.6492 25.7519 13.3791 26.9931ZM31.8822 8.48879C30.9348 8.38315 29.9811 8.38315 29.0337 8.48879C28.7635 8.52073 28.5599 8.74792 28.5599 9.02308V10.0788C28.5599 10.3315 28.3883 10.5459 28.1402 10.6003C26.9067 10.8723 25.7081 11.3618 24.6081 12.072C24.3951 12.2096 24.1248 12.1807 23.9468 12.0016L23.2029 11.253C23.0121 11.061 22.7069 11.0418 22.4939 11.2146C22.1283 11.509 21.7722 11.8289 21.432 12.1712C21.0919 12.5135 20.7739 12.8719 20.4814 13.243C20.3097 13.4541 20.3289 13.7612 20.5195 13.9532L21.2635 14.7018C21.4097 14.849 21.4542 15.0633 21.3874 15.2553C22.7704 15.2105 24.1564 15.1146 25.533 15.268C25.9241 15.3129 26.2738 15.4761 26.5473 15.7223C27.6504 14.9321 28.9985 14.465 30.4577 14.465C34.1838 14.465 37.2041 17.5043 37.2041 21.2538C37.2041 25.0033 34.1838 28.0425 30.4577 28.0425C27.6442 28.0425 25.231 26.3085 24.22 23.8419C24.1374 23.8388 24.0516 23.8355 23.9656 23.8355C22.5826 23.8355 21.3205 24.3537 20.3572 25.2112C20.6147 25.8766 20.9391 26.5228 21.3333 27.1403C21.47 27.3546 21.4414 27.6266 21.2602 27.8089L20.5194 28.5542C20.3286 28.7462 20.3096 29.0533 20.4813 29.2676C20.7738 29.6355 21.0917 29.9939 21.4319 30.3362C21.7721 30.6785 22.1282 30.9985 22.4938 31.2928C22.7068 31.4656 23.0121 31.4496 23.2028 31.2544L23.9467 30.509C24.1247 30.3266 24.3981 30.2978 24.6111 30.4354C25.7079 31.1456 26.9065 31.6351 28.14 31.9071C28.388 31.9615 28.5597 32.1758 28.5597 32.4317V33.4874C28.5597 33.7594 28.7632 33.9865 29.0335 34.0185C29.9808 34.1242 30.9346 34.1242 31.882 34.0185C32.1523 33.9897 32.3558 33.7594 32.3558 33.4874V32.4317C32.3558 32.1757 32.5275 31.9614 32.7755 31.9071C34.0122 31.6351 35.2076 31.1456 36.3076 30.4354C36.5206 30.2978 36.7909 30.3266 36.972 30.509L37.7128 31.2544C37.9036 31.4496 38.2088 31.4656 38.4218 31.2928C38.7874 30.9985 39.1435 30.6786 39.4836 30.3362C39.8237 29.9939 40.1417 29.6355 40.4342 29.2676C40.6059 29.0533 40.59 28.7462 40.3961 28.5542L39.6553 27.8056C39.474 27.6265 39.4454 27.3545 39.5821 27.1402C40.2879 26.0332 40.7744 24.8304 41.0447 23.5858C41.0987 23.3363 41.3117 23.1635 41.5628 23.1635H42.6152C42.8855 23.1635 43.1111 22.9588 43.143 22.6868C43.248 21.7366 43.248 20.7737 43.143 19.8203C43.1113 19.5484 42.8855 19.3436 42.6152 19.3436H41.5628C41.3117 19.3436 41.0987 19.1708 41.0447 18.9213C40.7744 17.6799 40.2879 16.4739 39.5821 15.3702C39.4454 15.1559 39.474 14.8807 39.6553 14.7016L40.3961 13.953C40.59 13.761 40.6059 13.4539 40.4342 13.2427C40.1418 12.8717 39.8238 12.5133 39.4836 12.171C39.1433 11.8287 38.7873 11.5087 38.4218 11.2144C38.2088 11.0416 37.9035 11.0609 37.7128 11.2528L36.9689 12.0014C36.7909 12.1805 36.5206 12.2094 36.3076 12.0718C35.2076 11.3616 34.009 10.8721 32.7755 10.6001C32.5275 10.5457 32.3558 10.3314 32.3558 10.0786V9.02285C32.3558 8.74769 32.1525 8.52073 31.8822 8.48879Z" fill="#EF5226"/>
</svg>
