<svg width="51" height="51" viewBox="0 0 51 51" fill="none" xmlns="http://www.w3.org/2000/svg">
<path d="M23.0316 5.84084V3.125C12.85 4.33997 4.76736 12.425 3.55273 22.6095H6.26779C7.45564 13.8723 14.2969 7.02904 23.0316 5.84084Z" fill="#EF5226"/>
<path d="M6.26779 27.9696H3.55273C4.76736 38.1541 12.85 46.2391 23.0316 47.4541V44.7382C14.2969 43.5501 7.45564 36.7068 6.26779 27.9696Z" fill="#EF5226"/>
<path d="M25.7103 20.5994C23.1203 20.5994 21.0215 22.6988 21.0215 25.2896C21.2353 31.4984 30.1864 31.4968 30.3992 25.2895C30.3992 22.6988 28.3004 20.5994 25.7103 20.5994Z" fill="#05A7CC"/>
<path d="M33.6769 22.0109C33.2482 20.9836 33.3464 19.8668 33.9091 18.9556L32.0425 17.0885C30.2125 18.311 27.4595 17.1556 27.0321 15.0157C27.0321 15.0158 24.3885 15.0158 24.3885 15.0158C23.9592 17.1815 21.1917 18.2906 19.378 17.0884C19.3781 17.0885 17.5115 18.9556 17.5115 18.9556C18.0742 19.8668 18.1724 20.9836 17.7526 21.9841C17.3329 23.0026 16.4754 23.7262 15.4395 23.9674V26.6118C16.4754 26.853 17.3329 27.5767 17.7437 28.5683C18.1724 29.5957 18.0742 30.7124 17.5115 31.6236L19.3781 33.4908C20.2891 32.928 21.4055 32.8297 22.4057 33.2496C23.4239 33.6695 24.1473 34.5271 24.3885 35.5634H27.0321C27.4622 33.3991 30.2298 32.282 32.0425 33.4909C32.0425 33.4908 33.9091 31.6236 33.9091 31.6236C32.6869 29.7931 33.8419 27.0393 35.9812 26.6118C35.9811 26.6118 35.9811 23.9674 35.9811 23.9674C34.9451 23.7262 34.0877 23.0026 33.6769 22.0109ZM25.7103 31.7666C22.1378 31.7666 19.2352 28.8631 19.2352 25.2896C19.5719 16.7027 31.8499 16.7051 32.1854 25.2897C32.1854 28.8631 29.2827 31.7666 25.7103 31.7666Z" fill="#EF5226"/>
<path d="M28.3896 44.7382V47.4541C38.5712 46.2391 46.6539 38.1541 47.8685 27.9696H45.1535C43.9656 36.7068 37.1243 43.5501 28.3896 44.7382Z" fill="#EF5226"/>
<path d="M45.1535 22.6094H47.8685C46.6539 12.4249 38.5712 4.33986 28.3896 3.12488V5.84072C37.1244 7.02892 43.9656 13.8722 45.1535 22.6094Z" fill="#EF5226"/>
<path d="M49.8245 24.3962H43.5281C43.0726 15.2569 35.7401 7.92234 26.6035 7.4667V1.16842C26.5863 0.0136485 24.8412 -0.020352 24.8173 1.16847C24.8173 1.16842 24.8173 7.4667 24.8173 7.4667C15.6807 7.92234 8.3482 15.2569 7.8927 24.3962H1.59624C1.10504 24.3962 0.703125 24.7982 0.703125 25.2896C0.703125 25.7809 1.10504 26.1829 1.59624 26.1829H7.8927C8.3482 35.3221 15.6807 42.6568 24.8173 43.1124V49.4107C24.8344 50.5655 26.5795 50.5995 26.6035 49.4106V43.1124C35.7401 42.6568 43.0726 35.3221 43.5281 26.1829H49.8245C50.9789 26.1657 51.0129 24.4202 49.8245 24.3962ZM37.7674 27.3532C37.7532 28.0937 37.1181 28.2623 36.4992 28.327C35.3934 28.4715 34.8215 29.9116 35.4811 30.7749C35.8702 31.2342 36.2144 31.8298 35.6954 32.3561C35.6954 32.3561 32.7749 35.2775 32.7749 35.2775C32.2493 35.7896 31.6602 35.461 31.1941 35.063C30.3109 34.3968 28.8902 34.9967 28.747 36.0815C28.6823 36.687 28.518 37.3414 27.7734 37.3501C27.7735 37.3501 23.6473 37.3501 23.6473 37.3501C22.907 37.3359 22.7385 36.7005 22.6738 36.0815C22.529 34.9708 21.0921 34.4122 20.2266 35.0631C19.7677 35.4522 19.172 35.7967 18.6458 35.2774C18.6459 35.2775 15.7254 32.3561 15.7254 32.3561C15.2133 31.8302 15.5419 31.2413 15.9397 30.7749C16.6142 29.894 16.0018 28.4697 14.9215 28.327C14.3161 28.2624 13.662 28.098 13.6533 27.3532C13.6533 27.3532 13.6533 23.2259 13.6533 23.2259C13.6675 22.4853 14.3027 22.3168 14.9216 22.2521C15.4485 22.1627 15.8861 21.8143 16.0915 21.323C16.3058 20.7959 16.2523 20.242 15.9397 19.8042C15.5507 19.3451 15.2062 18.7492 15.7254 18.2229C15.7254 18.2229 18.6459 15.3016 18.6459 15.3016C19.1717 14.7894 19.7604 15.1181 20.2266 15.5161C21.1071 16.1908 22.5312 15.5782 22.6737 14.4975C22.7384 13.892 22.9028 13.2377 23.6473 13.229C23.6473 13.229 27.7735 13.229 27.7735 13.229C28.5138 13.2432 28.6823 13.8786 28.747 14.4976C28.8363 15.0247 29.1846 15.4624 29.6758 15.6679C30.2028 15.8823 30.7565 15.8197 31.1941 15.516C31.653 15.1269 32.2488 14.7824 32.7749 15.3017C32.7749 15.3016 35.6954 18.2229 35.6954 18.2229C36.2075 18.7489 35.8789 19.3378 35.481 19.8042C34.8065 20.685 35.419 22.1094 36.4993 22.252C37.1046 22.3168 37.7587 22.4811 37.7674 23.2259C37.7674 23.2259 37.7674 27.3532 37.7674 27.3532Z" fill="#AA3A1B"/>
</svg>
