<svg width="61" height="51" viewBox="0 0 61 51" fill="none" xmlns="http://www.w3.org/2000/svg">
<path d="M12.8719 24.32C15.2769 24.32 17.6279 23.6068 19.6276 22.2707C21.6273 20.9345 23.1859 19.0354 24.1063 16.8134C25.0267 14.5915 25.2675 12.1465 24.7983 9.78771C24.3291 7.4289 23.1709 5.26219 21.4703 3.56159C19.7697 1.86098 17.603 0.702853 15.2442 0.233657C12.8854 -0.23554 10.4404 0.00526857 8.21848 0.92563C5.99653 1.84599 4.0974 3.40457 2.76124 5.40427C1.42509 7.40397 0.711914 9.75499 0.711914 12.16C0.717203 15.3834 2.00004 18.4733 4.27934 20.7526C6.55863 23.0319 9.64851 24.3147 12.8719 24.32ZM11.8719 5.71001C11.8719 5.44479 11.9773 5.19043 12.1648 5.0029C12.3523 4.81536 12.6067 4.71001 12.8719 4.71001C13.1371 4.71001 13.3915 4.81536 13.579 5.0029C13.7666 5.19043 13.8719 5.44479 13.8719 5.71001V11.75L16.5019 14.37C16.6893 14.5588 16.7944 14.814 16.7944 15.08C16.7944 15.346 16.6893 15.6012 16.5019 15.79C16.3107 15.9734 16.0568 16.0771 15.7919 16.08C15.5266 16.079 15.2721 15.975 15.0819 15.79L12.1619 12.87C11.9754 12.6809 11.8711 12.4257 11.8719 12.16V5.71001Z" fill="#D94B23"/>
<path d="M18.1123 26.922C18.0645 26.7997 17.993 26.6879 17.9021 26.5932C17.8111 26.4985 17.7023 26.4226 17.582 26.3699C17.4617 26.3172 17.3322 26.2887 17.2009 26.2861C17.0696 26.2834 16.9391 26.3067 16.8168 26.3545C16.6944 26.4023 16.5827 26.4737 16.488 26.5647C16.3933 26.6557 16.3174 26.7644 16.2647 26.8847C16.212 27.005 16.1835 27.1345 16.1809 27.2658C16.1782 27.3971 16.2015 27.5277 16.2493 27.65C17.2768 30.3203 19.0916 32.6154 21.453 34.2311C23.8144 35.8467 26.611 36.7067 29.4723 36.697C31.7204 36.6901 33.9352 36.153 35.9367 35.1292C37.9383 34.1055 39.67 32.6239 40.9913 30.805C41.1472 30.5904 41.2115 30.3227 41.1701 30.0607C41.1286 29.7987 40.9848 29.5639 40.7703 29.408C40.5557 29.252 40.288 29.1877 40.026 29.2292C39.764 29.2706 39.5292 29.4144 39.3733 29.629C38.2473 31.2025 36.7611 32.4837 35.0388 33.3654C33.3165 34.2471 31.4081 34.7036 29.4733 34.697C27.0196 34.6839 24.6261 33.9363 22.6013 32.5505C20.5764 31.1648 19.0129 29.2044 18.1123 26.922Z" fill="#EF5226"/>
<path d="M28.1427 8.339C28.0119 8.35121 27.8848 8.38907 27.7686 8.45041C27.6524 8.51174 27.5495 8.59536 27.4656 8.69648C27.3818 8.79761 27.3187 8.91425 27.2799 9.03977C27.2411 9.16528 27.2275 9.2972 27.2397 9.428C27.2519 9.5588 27.2898 9.68591 27.3511 9.80207C27.4124 9.91824 27.496 10.0212 27.5972 10.105C27.6983 10.1889 27.8149 10.252 27.9405 10.2908C28.066 10.3295 28.1979 10.3432 28.3287 10.331C28.7054 10.295 29.0864 10.277 29.4717 10.277C31.8719 10.2718 34.2195 10.9798 36.2167 12.311C36.3259 12.3839 36.4485 12.4345 36.5773 12.4601C36.7062 12.4856 36.8388 12.4855 36.9676 12.4598C37.0963 12.434 37.2188 12.3832 37.328 12.3101C37.4371 12.2371 37.5308 12.1433 37.6037 12.034C37.6766 11.9247 37.7272 11.8022 37.7527 11.6734C37.7783 11.5445 37.7782 11.4119 37.7524 11.2831C37.7267 11.1543 37.6759 11.0319 37.6028 10.9227C37.5298 10.8136 37.4359 10.7199 37.3267 10.647C35.0007 9.09676 32.2669 8.27192 29.4717 8.277C29.0237 8.277 28.5807 8.29767 28.1427 8.339Z" fill="#EF5226"/>
<path d="M39.6681 8.25799C39.8824 8.25804 40.0911 8.18923 40.2634 8.0617C40.4356 7.93417 40.5624 7.75466 40.6249 7.54965C40.6874 7.34464 40.6824 7.12497 40.6106 6.92302C40.5388 6.72107 40.404 6.54754 40.2261 6.42799C37.0464 4.29334 33.3019 3.15647 29.4721 3.16299C28.3736 3.16293 27.2771 3.25526 26.1941 3.43899C25.9326 3.48368 25.6996 3.63042 25.5462 3.84693C25.3929 4.06344 25.3319 4.33199 25.3766 4.59349C25.4213 4.855 25.568 5.08804 25.7845 5.24135C26.0011 5.39466 26.2696 5.45568 26.5311 5.41099C27.5027 5.24555 28.4865 5.16259 29.4721 5.16299C32.9052 5.15731 36.2618 6.17648 39.1121 8.08999C39.2766 8.20015 39.4702 8.25866 39.6681 8.25799Z" fill="#EF5226"/>
<path d="M57.871 25.9431C57.871 25.6779 57.7657 25.4235 57.5781 25.236C57.3906 25.0484 57.1362 24.9431 56.871 24.9431H53.952V4.47009C53.952 4.20488 53.8467 3.95052 53.6591 3.76299C53.4716 3.57545 53.2172 3.47009 52.952 3.47009H48.892C48.6268 3.47009 48.3725 3.57545 48.1849 3.76299C47.9974 3.95052 47.892 4.20488 47.892 4.47009V24.9431H45.722V10.9501C45.722 10.6849 45.6167 10.4305 45.4291 10.243C45.2416 10.0554 44.9872 9.95009 44.722 9.95009H40.652C40.3868 9.95009 40.1325 10.0554 39.9449 10.243C39.7574 10.4305 39.652 10.6849 39.652 10.9501V24.9431H37.482V15.2101C37.482 14.9449 37.3767 14.6905 37.1891 14.503C37.0016 14.3154 36.7472 14.2101 36.482 14.2101H32.412C32.1468 14.2101 31.8925 14.3154 31.7049 14.503C31.5174 14.6905 31.412 14.9449 31.412 15.2101V24.9431H28.499C28.2338 24.9431 27.9795 25.0484 27.7919 25.236C27.6044 25.4235 27.499 25.6779 27.499 25.9431C27.499 26.2083 27.6044 26.4627 27.7919 26.6502C27.9795 26.8377 28.2338 26.9431 28.499 26.9431H56.871C57.1362 26.9431 57.3906 26.8377 57.5781 26.6502C57.7657 26.4627 57.871 26.2083 57.871 25.9431ZM49.892 5.47009H51.952V24.9401H49.892V5.47009ZM41.652 11.9501H43.722V24.9401H41.652V11.9501ZM33.412 16.2101H35.482V24.9401H33.412V16.2101Z" fill="#F27551"/>
<path d="M49.6517 34.5801C49.4536 34.4022 49.1932 34.3098 48.9273 34.3229C48.6614 34.336 48.4114 34.4536 48.2317 34.6501L46.8517 36.1801L44.7677 34.2941C45.6496 33.1643 46.4023 31.9393 47.0117 30.6421C47.0704 30.5229 47.1048 30.3931 47.1128 30.2605C47.1209 30.1278 47.1024 29.9949 47.0584 29.8695C47.0145 29.7441 46.946 29.6287 46.8569 29.53C46.7679 29.4314 46.66 29.3515 46.5397 29.295C46.4194 29.2385 46.2891 29.2066 46.1563 29.201C46.0235 29.1955 45.891 29.2165 45.7664 29.2627C45.6418 29.309 45.5277 29.3797 45.4308 29.4706C45.3338 29.5615 45.2559 29.6708 45.2017 29.7921C43.7951 32.7783 41.5707 35.3046 38.7866 37.0779C36.0024 38.8512 32.7726 39.7989 29.4717 39.8111C25.773 39.8239 22.1681 38.6474 19.1891 36.4552C16.21 34.263 14.0146 31.1712 12.9267 27.6361C12.8873 27.5107 12.8236 27.3944 12.7393 27.2936C12.6549 27.1929 12.5515 27.1098 12.435 27.049C12.1998 26.9263 11.9254 26.902 11.6722 26.9816C11.4191 27.0611 11.2079 27.238 11.0852 27.4733C10.9624 27.7085 10.9382 27.9829 11.0177 28.2361C12.0169 31.4505 13.8392 34.3479 16.3037 36.6408C18.7682 38.9337 21.7894 40.5424 25.0675 41.3074C28.3456 42.0724 31.7667 41.9671 34.9916 41.0019C38.2164 40.0367 41.1329 38.2452 43.4517 35.8051L45.5117 37.6691L44.1217 39.1991C44.0321 39.295 43.9635 39.4086 43.9205 39.5326C43.8774 39.6566 43.8608 39.7883 43.8717 39.9191C43.885 40.1818 43.9997 40.4292 44.1917 40.6091L54.9317 50.3191C55.1155 50.4851 55.354 50.5777 55.6017 50.5791C55.7413 50.5788 55.8792 50.5492 56.0066 50.4924C56.1341 50.4356 56.2482 50.3527 56.3417 50.2491L60.4517 45.7091C60.6304 45.509 60.7237 45.247 60.7117 44.9791C60.7055 44.8479 60.6731 44.7192 60.6164 44.6007C60.5598 44.4822 60.4799 44.3763 60.3817 44.2891L49.6517 34.5801Z" fill="#EF5226"/>
</svg>
