<svg width="50" height="51" viewBox="0 0 50 51" fill="none" xmlns="http://www.w3.org/2000/svg">
<path fill-rule="evenodd" clip-rule="evenodd" d="M25.9756 28.4248V35.1181C25.9756 35.1698 26.0146 35.2128 26.0665 35.2185C29.9059 35.6402 32.8609 38.859 32.8609 42.7307C32.8609 46.9052 29.4363 50.2896 25.212 50.2896C20.9878 50.2896 17.5631 46.9052 17.5631 42.7307C17.5631 38.859 20.5181 35.6402 24.3575 35.2185C24.4095 35.2128 24.4483 35.1698 24.4483 35.1181V28.4247C24.4483 28.3712 24.4063 28.3271 24.3522 28.3239C22.1945 28.1966 20.1667 27.5929 18.3747 26.6181C18.3327 26.5953 18.2819 26.6037 18.2498 26.6388L14.1003 31.1606C14.0652 31.1989 14.0648 31.2565 14.0994 31.2953C16.7666 34.2833 16.6277 38.8129 13.7694 41.6375C10.7822 44.5895 5.93946 44.5894 2.95229 41.6375C-0.0348783 38.6855 -0.0348783 33.8997 2.95229 30.9477C5.60633 28.3249 9.79613 27.9919 12.8344 30.161C12.8768 30.1912 12.9349 30.1852 12.9699 30.1469L16.9175 25.845C16.9585 25.8004 16.9517 25.7315 16.9013 25.6956C9.83518 20.6482 8.97359 10.5255 15.1732 4.39885C20.7175 -1.08022 29.7064 -1.08022 35.2507 4.39885C41.4508 10.526 40.588 20.6488 33.5226 25.6956C33.4724 25.7315 33.4654 25.8003 33.5064 25.845L37.4539 30.1468C37.4891 30.1851 37.5471 30.1911 37.5894 30.1608C40.6276 27.9918 44.8174 28.3248 47.4716 30.9476C50.4587 33.8996 50.4586 38.6854 47.4716 41.6374C44.4844 44.5894 39.6417 44.5893 36.6545 41.6374C33.796 38.8126 33.6573 34.283 36.3243 31.2952C36.359 31.2565 36.3585 31.1988 36.3234 31.1605L32.174 26.6387C32.1418 26.6036 32.0911 26.5952 32.0491 26.618C30.2572 27.5929 28.2292 28.1966 26.0717 28.3238C26.0178 28.3272 25.9756 28.3712 25.9756 28.4248ZM31.0321 11.7777H31.8118C32.2947 11.7777 32.6894 11.3876 32.6894 10.9105V8.64933C32.6894 8.1722 32.2947 7.78213 31.8118 7.78213H30.8707C30.803 7.78213 30.7544 7.84517 30.7722 7.90973C31.1049 9.11375 31.1605 10.4157 30.9316 11.6586C30.9201 11.721 30.968 11.7777 31.0321 11.7777ZM19.7924 7.78213H18.8513C18.3685 7.78213 17.9738 8.1722 17.9738 8.64933V10.9105C17.9738 11.3877 18.3685 11.7777 18.8513 11.7777H19.6311C19.6952 11.7777 19.7431 11.721 19.7316 11.6587C19.5028 10.4158 19.5584 9.11386 19.891 7.90983C19.9088 7.84527 19.8602 7.78213 19.7924 7.78213ZM25.3316 10.4667C26.2063 10.4667 26.9738 10.9902 27.3009 11.7607C27.3172 11.799 27.353 11.8226 27.395 11.8226L29.2502 11.8235C29.2982 11.8235 29.3387 11.7919 29.3497 11.7457C29.8121 9.80923 29.4128 7.66007 28.2483 6.20434C26.6168 4.16507 24.0463 4.16496 22.4148 6.20434C20.6963 8.35262 20.6963 11.9101 22.4148 14.0584C24.0379 16.0873 26.5942 16.1004 28.2296 14.0816C28.2423 14.0658 28.2574 14.0554 28.2769 14.0489L29.8439 13.5291C29.9531 13.4929 29.9265 13.3324 29.8113 13.3324L27.3942 13.3318C27.352 13.3318 27.3162 13.3554 27.2999 13.3938C26.7202 14.7602 24.9029 15.1359 23.8221 14.0679C22.4802 12.7417 23.4365 10.4667 25.3316 10.4667ZM25.7569 12.1559C25.3793 11.7827 24.73 12.0477 24.73 12.5763C24.73 13.1048 25.3793 13.3697 25.7569 12.9967C25.9917 12.7645 25.9917 12.3879 25.7569 12.1559ZM34.2967 22.9485C31.8471 17.3311 24.7705 15.3068 19.692 18.8958C18.1948 19.954 17.0095 21.4208 16.3057 23.1283C16.2898 23.1671 16.2984 23.2093 16.3286 23.2387C21.328 28.1028 29.38 28.0206 34.2759 23.0594C34.3056 23.0293 34.3136 22.9869 34.2967 22.9485ZM42.0632 35.5232C43.2984 35.5232 43.9193 34.0408 43.0462 33.178C42.1732 32.3152 40.673 32.9287 40.673 34.1494C40.673 34.9083 41.2952 35.5232 42.0632 35.5232ZM45.0708 41.4969V40.0107C45.0708 38.3775 43.7159 37.0385 42.0632 37.0385C40.4105 37.0385 39.0556 38.3775 39.0556 40.0107V41.4969C39.0556 41.5346 39.0748 41.567 39.1082 41.5852C40.9423 42.5872 43.184 42.5871 45.018 41.5852C45.0515 41.567 45.0708 41.5346 45.0708 41.4969ZM25.212 41.9612C26.4473 41.9612 27.0681 40.4787 26.195 39.616C25.3219 38.7531 23.8219 39.3669 23.8219 40.5874C23.8219 41.3463 24.4442 41.9612 25.212 41.9612ZM28.2197 47.9349V46.4487C28.2197 44.8155 26.8647 43.4765 25.212 43.4765C23.5594 43.4765 22.2044 44.8155 22.2044 46.4487V47.9349C22.2044 47.9726 22.2237 48.005 22.2571 48.0232C24.0911 49.0251 26.3327 49.0251 28.1669 48.0232C28.2004 48.005 28.2197 47.9726 28.2197 47.9349ZM7.37789 35.1209C8.24981 35.9826 9.75093 35.3715 9.75093 34.1495C9.75093 32.9289 8.25091 32.3152 7.37789 33.1781C6.83514 33.7143 6.83514 34.5845 7.37789 35.1209ZM11.3686 41.4968V40.0106C11.3686 38.3774 10.0137 37.0384 8.361 37.0384C6.70833 37.0384 5.35338 38.3774 5.35338 40.0106V41.4968C5.35338 41.5345 5.37262 41.5669 5.40606 41.5851C7.24009 42.5871 9.48181 42.5871 11.3158 41.5851C11.3493 41.567 11.3686 41.5346 11.3686 41.4968Z" fill="#EF5226"/>
</svg>
