<svg width="45" height="51" viewBox="0 0 45 51" fill="none" xmlns="http://www.w3.org/2000/svg">
<path d="M12.5903 12.8685H10.0495V10.9817H11.8152C12.1076 10.9817 12.3613 10.7811 12.4271 10.4979C12.6901 9.3667 13.1351 8.2972 13.7497 7.31885C13.9046 7.07239 13.8679 6.75238 13.6615 6.54675L12.415 5.30537L15.0965 2.63928L16.3422 3.87993C16.5491 4.08598 16.8713 4.12264 17.1196 3.96847C18.1074 3.35503 19.1841 2.91158 20.32 2.65064C20.6049 2.58522 20.8067 2.33292 20.8067 2.04219V0.289551H24.5994V2.04208C24.5994 2.33282 24.8012 2.58511 25.0861 2.65053C26.2189 2.91085 27.2946 3.3543 28.2834 3.96837C28.5316 4.12244 28.8536 4.08587 29.0605 3.88024L30.3092 2.63876L32.9907 5.30485L31.742 6.54634C31.5349 6.75228 31.4984 7.07322 31.6541 7.31989C32.2698 8.29543 32.7155 9.36462 32.979 10.4978C33.0448 10.781 33.2986 10.9816 33.591 10.9816H35.3537V12.8684H32.8159C32.469 12.8684 32.1877 13.148 32.1877 13.4929V14.8935C31.5025 15.0888 30.8475 15.358 30.2312 15.6974L29.3068 14.7784C30.0007 12.4131 29.3654 9.82286 27.5667 8.03449C24.8849 5.36819 20.5215 5.36829 17.84 8.03418C16.04 9.82119 15.4046 12.4118 16.0995 14.7786L15.1752 15.6975C14.5588 15.3581 13.9037 15.0889 13.2186 14.8936V13.493C13.2186 13.1481 12.9372 12.8685 12.5903 12.8685ZM26.6782 8.91784C24.4862 6.73853 20.9197 6.73863 18.7278 8.91784C17.038 10.5954 16.604 13.1393 17.6314 15.2773L19.3462 16.9823C20.4085 16.6037 21.5389 16.4058 22.6994 16.4058C22.7251 16.4058 22.7503 16.4058 22.7761 16.4061C23.9264 16.4146 25.03 16.6192 26.0557 16.9864L27.7748 15.2773C28.8013 13.1409 28.367 10.5969 26.6782 8.91784ZM12.4484 31.9126C13.0428 31.7757 13.6175 31.5739 14.1644 31.3118C13.715 30.5616 13.3629 29.7477 13.1252 28.8876C12.3336 29.288 11.4667 29.486 10.6016 29.486C9.16039 29.486 7.72446 28.9385 6.64874 27.869C5.59492 26.8214 5.01469 25.4289 5.01469 23.9479C5.01469 22.4669 5.59513 21.0749 6.64916 20.0287C7.70256 18.9814 9.10318 18.4044 10.5926 18.4044C12.0821 18.4044 13.4824 18.9815 14.5348 20.0294C14.6248 20.1189 14.7106 20.2119 14.794 20.3067C15.0795 19.9346 15.3931 19.5798 15.7344 19.2454C16.4477 18.5469 17.2485 17.9692 18.1112 17.5206L16.6148 16.0328L15.7195 16.9229C15.5123 17.1289 15.1894 17.1651 14.9413 17.0102C14.1802 16.5352 13.3416 16.1904 12.449 15.9854C12.1642 15.9199 11.9623 15.6677 11.9623 15.3769V14.1175H9.22095V15.3769C9.22095 15.6675 9.01936 15.9196 8.73459 15.9853C7.84422 16.1905 7.00529 16.5355 6.24096 17.0107C5.99286 17.165 5.67057 17.1285 5.46375 16.9228L4.56845 16.0327L2.6294 17.9605L3.52469 18.8506C3.73162 19.0564 3.76819 19.3768 3.61312 19.6234C3.13399 20.385 2.78698 21.2189 2.58183 22.102C2.51603 22.3853 2.26227 22.586 1.96984 22.586H0.703125V25.3115H1.96984C2.26216 25.3115 2.51572 25.5119 2.58173 25.795C2.78803 26.68 3.13504 27.5141 3.61312 28.2742C3.76819 28.5208 3.73162 28.8412 3.52469 29.047L2.6294 29.9371L4.56845 31.8649L5.46375 30.9748C5.67068 30.7691 5.99296 30.7326 6.24096 30.8869C7.00529 31.3622 7.84432 31.7072 8.73459 31.9124C9.01936 31.9781 9.22095 32.2303 9.22095 32.5208V33.7802H11.9623V32.5208C11.9623 32.2302 12.1637 31.9783 12.4484 31.9126ZM31.3769 26.342C31.3411 31.0746 27.4578 34.9001 22.7057 34.8998C22.6839 34.8998 22.6614 34.8998 22.6395 34.8996C17.8559 34.8638 13.9933 30.9669 14.0292 26.2126C14.0466 23.9102 14.9653 21.7519 16.6159 20.1352C18.2506 18.5342 20.4088 17.6549 22.6996 17.6549C22.7219 17.6549 22.7442 17.6549 22.7667 17.6551C27.5475 17.6908 31.4101 21.5879 31.3769 26.342ZM28.199 22.4148C27.9537 22.171 27.556 22.171 27.3106 22.415L20.8704 28.8208L18.0892 26.1295C17.8406 25.8889 17.443 25.8943 17.201 26.1415C16.959 26.3887 16.9644 26.784 17.213 27.0246L20.4384 30.1457C20.5604 30.2638 20.7184 30.3227 20.8764 30.3227C21.0374 30.3227 21.1982 30.2617 21.3208 30.1397L28.1992 23.298C28.4445 23.054 28.4444 22.6586 28.199 22.4148ZM37.8694 26.9855C39.5518 25.3101 39.552 22.5854 37.8691 20.9122C37.0527 20.1005 35.9675 19.6535 34.8135 19.6535C33.6595 19.6535 32.5754 20.1003 31.7605 20.9119C31.6049 21.0666 31.4637 21.2323 31.3349 21.4053C32.1719 22.8645 32.6457 24.5542 32.6331 26.3511C32.6299 26.7734 32.5999 27.1914 32.5446 27.6034C34.2204 28.6344 36.4489 28.3955 37.8694 26.9855ZM13.646 20.9122C12.8306 20.1003 11.7464 19.6535 10.5925 19.6535C9.43867 19.6535 8.35342 20.1005 7.53702 20.9122C6.72041 21.7229 6.27093 22.8008 6.27093 23.9479C6.27093 25.095 6.72062 26.1741 7.53702 26.9859C8.95639 28.3971 11.1855 28.6356 12.8625 27.6028C12.8003 27.1452 12.7693 26.6781 12.7729 26.2033C12.7859 24.4902 13.2349 22.8472 14.0661 21.3985C13.9387 21.2281 13.7993 21.0647 13.646 20.9122ZM43.4365 22.5863C43.1441 22.5863 42.8903 22.3857 42.8245 22.1024C42.6199 21.2218 42.2728 20.3877 41.7929 19.6231C41.6383 19.3768 41.6748 19.0569 41.8811 18.8514L42.7747 17.9609L40.8376 16.0331L39.9425 16.923C39.7356 17.1287 39.4133 17.1652 39.1653 17.0109C38.4011 16.5357 37.562 16.1906 36.6717 15.9855C36.3869 15.9198 36.1853 15.6677 36.1853 15.3771V14.1177H33.444V15.3771C33.444 15.6679 33.2422 15.9202 32.9572 15.9856C32.0645 16.1906 31.226 16.5354 30.4649 17.0104C30.2167 17.1653 29.894 17.129 29.6868 16.9231L28.7915 16.033L27.2905 17.5253C28.5922 18.2027 29.7242 19.159 30.6072 20.3126C30.6923 20.2158 30.7797 20.1205 30.8717 20.0292C31.9237 18.9817 33.3237 18.4046 34.8134 18.4046C36.3031 18.4046 37.7036 18.9816 38.7573 20.0292C40.9296 22.189 40.9298 25.7059 38.7576 27.8688C37.6806 28.9378 36.2437 29.4852 34.8026 29.4852C33.9385 29.4852 33.0732 29.2879 32.283 28.8888C32.0492 29.7414 31.701 30.5565 31.246 31.3159C31.7911 31.5776 32.3636 31.7781 32.9555 31.9124C33.2413 31.9773 33.4438 32.2299 33.4438 32.5213V33.7807H36.1851V32.5213C36.1851 32.2307 36.3867 31.9786 36.6715 31.913C37.5548 31.7094 38.3943 31.3641 39.1663 30.8866C39.4143 30.7332 39.7359 30.77 39.9423 30.9753L40.8374 31.8652L42.7744 29.9374L41.8809 29.0471C41.6749 28.8418 41.6382 28.5225 41.7922 28.2762C42.2725 27.5084 42.6198 26.6738 42.8245 25.7957C42.8905 25.5125 43.1442 25.3121 43.4364 25.3121H44.7031V22.5866L43.4365 22.5863ZM17.9081 44.536C17.9081 46.1585 16.5805 47.4785 14.9485 47.4785C13.3166 47.4785 11.989 46.1585 11.989 44.536C11.989 43.1279 12.9893 41.9481 14.3204 41.6608V34.7947C14.3204 34.4498 14.6016 34.1702 14.9485 34.1702C15.2954 34.1702 15.5767 34.4498 15.5767 34.7947V41.6608C16.9078 41.948 17.9081 43.1278 17.9081 44.536ZM16.6518 44.536C16.6518 43.6022 15.8877 42.8425 14.9485 42.8425C14.0093 42.8425 13.2452 43.6022 13.2452 44.536C13.2452 45.4698 14.0093 46.2295 14.9485 46.2295C15.8877 46.2295 16.6518 45.4698 16.6518 44.536ZM33.4143 44.536C33.4143 46.1585 32.0867 47.4785 30.4548 47.4785C28.8228 47.4785 27.4952 46.1585 27.4952 44.536C27.4952 43.1279 28.4955 41.9481 29.8267 41.6608V34.7947C29.8267 34.4498 30.1079 34.1702 30.4548 34.1702C30.8017 34.1702 31.0829 34.4498 31.0829 34.7947V41.6608C32.4141 41.948 33.4143 43.1278 33.4143 44.536ZM32.1581 44.536C32.1581 43.6022 31.394 42.8425 30.4548 42.8425C29.5156 42.8425 28.7515 43.6022 28.7515 44.536C28.7515 45.4698 29.5156 46.2295 30.4548 46.2295C31.394 46.2295 32.1581 45.4698 32.1581 44.536ZM25.6627 47.3471C25.6627 48.9696 24.3351 50.2896 22.7032 50.2896C21.0712 50.2896 19.7436 48.9696 19.7436 47.3471C19.7436 45.9389 20.7439 44.7592 22.0751 44.4719V38.0251C22.0751 37.6801 22.3563 37.4006 22.7032 37.4006C23.0501 37.4006 23.3313 37.6801 23.3313 38.0251V44.4719C24.6625 44.7591 25.6627 45.9388 25.6627 47.3471ZM24.4065 47.3471C24.4065 46.4133 23.6424 45.6536 22.7032 45.6536C21.764 45.6536 20.9999 46.4133 20.9999 47.3471C20.9999 48.2809 21.764 49.0406 22.7032 49.0406C23.6424 49.0406 24.4065 48.2809 24.4065 47.3471Z" fill="#EF5226"/>
</svg>
