<svg width="56" height="51" viewBox="0 0 56 51" fill="none" xmlns="http://www.w3.org/2000/svg">
<path d="M53.105 35.2868C54.0506 34.3491 54.7221 33.1709 55.0469 31.8794C55.3717 30.588 55.3375 29.2323 54.948 27.9588L51.148 31.7588C50.8267 32.0813 50.4447 32.337 50.024 32.5108C49.6033 32.6847 49.1522 32.7734 48.697 32.7718C48.012 32.7711 47.3426 32.5674 46.7733 32.1865C46.204 31.8056 45.7603 31.2646 45.4983 30.6317C45.2362 29.9988 45.1676 29.3025 45.3011 28.6306C45.4345 27.9588 45.764 27.3415 46.248 26.8568L50.048 23.0568C48.7509 22.6643 47.3706 22.6383 46.0596 22.9815C44.7486 23.3248 43.5582 24.024 42.6199 25.0018C41.6817 25.9796 41.0321 27.1979 40.7433 28.5219C40.4544 29.8459 40.5373 31.224 40.983 32.5038C41.0488 32.6945 41.0553 32.9007 41.0018 33.0953C40.9483 33.2898 40.8371 33.4636 40.683 33.5938L28.728 43.7678C28.3164 44.1173 27.9817 44.5483 27.7451 45.0336C27.5084 45.5189 27.3748 46.048 27.3529 46.5875C27.3309 47.127 27.4209 47.6652 27.6173 48.1682C27.8137 48.6711 28.1122 49.1279 28.494 49.5098C28.8758 49.8916 29.3325 50.1902 29.8354 50.3867C30.3383 50.5832 30.8765 50.6733 31.416 50.6514C31.9555 50.6295 32.4847 50.4961 32.97 50.2595C33.4554 50.0229 33.8864 49.6883 34.236 49.2768L44.411 37.3198C44.5412 37.1657 44.715 37.0545 44.9095 37.001C45.1041 36.9474 45.3103 36.954 45.501 37.0198C46.8026 37.4794 48.2079 37.5606 49.5538 37.2539C50.8997 36.9471 52.1311 36.2651 53.105 35.2868Z" fill="#05A7CC"/>
<path d="M25.5449 34.1059V33.1539C25.545 32.6057 25.7076 32.0698 26.0122 31.614C26.3168 31.1581 26.7497 30.8029 27.2562 30.5931C27.7626 30.3833 28.32 30.3284 28.8577 30.4353C29.3954 30.5423 29.8893 30.8063 30.2769 31.1939L30.9499 31.8669C31.095 32.0116 31.2915 32.0928 31.4964 32.0928C31.7013 32.0928 31.8978 32.0116 32.0429 31.8669L33.9019 30.0079C34.0466 29.8628 34.1278 29.6663 34.1278 29.4614C34.1278 29.2565 34.0466 29.06 33.9019 28.9149L33.2289 28.2429C32.841 27.8553 32.5767 27.3613 32.4695 26.8234C32.3624 26.2856 32.4172 25.728 32.627 25.2213C32.8369 24.7146 33.1923 24.2815 33.6483 23.9769C34.1044 23.6723 34.6405 23.5097 35.1889 23.5099H36.1409C36.3457 23.5099 36.542 23.4286 36.6868 23.2838C36.8316 23.139 36.9129 22.9426 36.9129 22.7379V20.1079C36.9127 19.9032 36.8312 19.707 36.6865 19.5623C36.5418 19.4176 36.3456 19.3362 36.1409 19.3359H35.1889C34.6407 19.3359 34.1048 19.1733 33.649 18.8687C33.1932 18.5641 32.8379 18.1312 32.6281 17.6247C32.4183 17.1182 32.3634 16.5609 32.4704 16.0232C32.5773 15.4855 32.8413 14.9916 33.2289 14.6039L33.9019 13.9309C34.0465 13.786 34.1277 13.5896 34.1277 13.3849C34.1277 13.1802 34.0465 12.9838 33.9019 12.8389L32.0429 10.9789C31.8959 10.8383 31.7003 10.7598 31.4969 10.7598C31.2935 10.7598 31.0979 10.8383 30.9509 10.9789L30.2769 11.6529C29.8892 12.0406 29.3952 12.3046 28.8574 12.4115C28.3196 12.5184 27.7622 12.4634 27.2557 12.2535C26.7492 12.0436 26.3163 11.6882 26.0117 11.2322C25.7072 10.7762 25.5448 10.2402 25.5449 9.6919V8.7399C25.5447 8.53523 25.4632 8.33902 25.3185 8.1943C25.1738 8.04958 24.9776 7.96816 24.7729 7.9679H22.1429C21.9382 7.9679 21.7418 8.04923 21.597 8.19401C21.4523 8.33879 21.3709 8.53515 21.3709 8.7399V9.6919C21.3709 10.2401 21.2083 10.776 20.9037 11.2318C20.5991 11.6876 20.1662 12.0429 19.6597 12.2527C19.1532 12.4625 18.5959 12.5174 18.0582 12.4104C17.5205 12.3035 17.0266 12.0395 16.6389 11.6519L15.9659 10.9799C15.819 10.8391 15.6234 10.7605 15.4199 10.7605C15.2164 10.7605 15.0208 10.8391 14.8739 10.9799L13.0139 12.8399C12.8693 12.9848 12.7881 13.1812 12.7881 13.3859C12.7881 13.5906 12.8693 13.787 13.0139 13.9319L13.6869 14.6039C14.0749 14.9915 14.3392 15.4855 14.4463 16.0234C14.5535 16.5612 14.4986 17.1188 14.2888 17.6255C14.079 18.1322 13.7236 18.5652 13.2675 18.8699C12.8115 19.1745 12.2754 19.3371 11.7269 19.3369H10.7749C10.5703 19.3372 10.3741 19.4186 10.2293 19.5633C10.0846 19.708 10.0032 19.9042 10.0029 20.1089V22.7389C10.0029 22.9436 10.0843 23.14 10.229 23.2848C10.3738 23.4296 10.5702 23.5109 10.7749 23.5109H11.7269C12.2754 23.5107 12.8115 23.6733 13.2675 23.9779C13.7236 24.2825 14.079 24.7156 14.2888 25.2223C14.4986 25.729 14.5535 26.2866 14.4463 26.8244C14.3392 27.3623 14.0749 27.8563 13.6869 28.2439L13.0139 28.9169C12.8693 29.0618 12.7881 29.2582 12.7881 29.4629C12.7881 29.6676 12.8693 29.864 13.0139 30.0089L14.8739 31.8679C15.0188 32.0125 15.2152 32.0937 15.4199 32.0937C15.6247 32.0937 15.821 32.0125 15.9659 31.8679L16.6389 31.1949C16.8923 30.9367 17.1945 30.7313 17.5278 30.5907C17.8612 30.4502 18.2191 30.3771 18.5809 30.3759C18.9511 30.3766 19.3175 30.4507 19.6589 30.5939C20.169 30.7987 20.6054 31.1528 20.9108 31.6097C21.2163 32.0667 21.3767 32.6053 21.3709 33.1549V34.1069C21.3709 34.3116 21.4523 34.508 21.597 34.6528C21.7418 34.7976 21.9382 34.8789 22.1429 34.8789H24.7729C24.9778 34.8786 25.1741 34.7971 25.3189 34.6521C25.4636 34.5072 25.5449 34.3107 25.5449 34.1059ZM15.9329 21.4229C15.9329 19.9346 16.3743 18.4797 17.2011 17.2422C18.028 16.0047 19.2032 15.0403 20.5782 14.4707C21.9533 13.9012 23.4663 13.7521 24.926 14.0425C26.3857 14.3328 27.7265 15.0495 28.7789 16.1019C29.8313 17.1543 30.548 18.4951 30.8383 19.9548C31.1287 21.4145 30.9797 22.9276 30.4101 24.3026C29.8406 25.6776 28.8761 26.8528 27.6386 27.6797C26.4011 28.5066 24.9462 28.9479 23.4579 28.9479C21.4629 28.9455 19.5503 28.1519 18.1396 26.7412C16.7289 25.3305 15.9353 23.4179 15.9329 21.4229Z" fill="#EF5226"/>
<path d="M23.4576 15.8978C22.3649 15.8978 21.2967 16.2219 20.3881 16.829C19.4795 17.4361 18.7714 18.2989 18.3532 19.3085C17.935 20.3181 17.8256 21.429 18.0388 22.5007C18.252 23.5724 18.7782 24.5569 19.5509 25.3296C20.3235 26.1023 21.308 26.6285 22.3797 26.8417C23.4515 27.0549 24.5624 26.9454 25.5719 26.5273C26.5815 26.1091 27.4444 25.4009 28.0515 24.4924C28.6586 23.5838 28.9826 22.5156 28.9826 21.4228C28.9808 19.9581 28.3981 18.5538 27.3623 17.5181C26.3266 16.4824 24.9224 15.8997 23.4576 15.8978Z" fill="#EF5226"/>
<path d="M24.4086 44.3619C24.9366 44.3319 25.4396 44.2769 25.9276 44.2119C26.283 43.4576 26.7942 42.7872 27.4276 42.2449L38.8876 32.4959C38.4577 30.9145 38.4547 29.2474 38.879 27.6645C39.3032 26.0815 40.1395 24.6394 41.3026 23.4849C42.4062 22.379 43.7689 21.5667 45.2666 21.1219C44.9731 15.2713 42.3893 9.77102 38.0736 5.80991C35.8346 3.75107 33.1934 2.17852 30.3163 1.19145C27.4393 0.204386 24.3889 -0.17579 21.3576 0.0749049C17.6146 0.369202 14.0077 1.60899 10.8748 3.67808C7.74184 5.74717 5.18555 8.57781 3.44544 11.9047C1.70533 15.2316 0.838393 18.9459 0.925871 22.6994C1.01335 26.4528 2.05238 30.1227 3.94559 33.3649C4.39657 34.1409 4.64487 35.018 4.66759 35.9153C4.69031 36.8125 4.48672 37.7011 4.07559 38.4989L0.475586 45.5939L8.21159 41.8939C8.97664 41.5302 9.81597 41.3498 10.6629 41.3672C11.5098 41.3845 12.3411 41.5991 13.0906 41.9939C16.5855 43.7759 20.4925 44.5933 24.4086 44.3619ZM19.3706 34.1059V33.1539C19.3706 33.0012 19.3254 32.8519 19.2406 32.7249C19.1557 32.5979 19.0351 32.4989 18.894 32.4405C18.753 32.382 18.5977 32.3667 18.4479 32.3965C18.2981 32.4263 18.1606 32.4999 18.0526 32.6079L17.3796 33.2809C16.8594 33.8 16.1545 34.0915 15.4196 34.0915C14.6847 34.0915 13.9798 33.8 13.4596 33.2809L11.5996 31.4219C11.0805 30.9015 10.7889 30.1965 10.7889 29.4614C10.7889 28.7264 11.0805 28.0213 11.5996 27.5009L12.2726 26.8279C12.3806 26.7199 12.4542 26.5824 12.484 26.4326C12.5138 26.2828 12.4985 26.1275 12.44 25.9864C12.3816 25.8454 12.2826 25.7248 12.1556 25.6399C12.0286 25.5551 11.8793 25.5099 11.7266 25.5099H10.7746C10.0396 25.5091 9.33504 25.2168 8.81536 24.6971C8.29568 24.1775 8.00338 23.4728 8.00259 22.7379V20.1079C8.00364 19.373 8.29603 18.6686 8.81565 18.149C9.33528 17.6294 10.0397 17.337 10.7746 17.3359H11.7266C11.8793 17.336 12.0286 17.2907 12.1556 17.2059C12.2826 17.121 12.3816 17.0005 12.44 16.8594C12.4985 16.7183 12.5138 16.563 12.484 16.4132C12.4542 16.2634 12.3806 16.1259 12.2726 16.0179L11.5996 15.3459C11.0805 14.8255 10.7889 14.1205 10.7889 13.3854C10.7889 12.6504 11.0805 11.9453 11.5996 11.4249L13.4596 9.56491C13.9874 9.06048 14.6895 8.77899 15.4196 8.77899C16.1497 8.77899 16.8517 9.06048 17.3796 9.56491L18.0526 10.2379C18.1606 10.3459 18.2981 10.4195 18.4479 10.4493C18.5977 10.4791 18.753 10.4638 18.894 10.4054C19.0351 10.3469 19.1557 10.2479 19.2406 10.1209C19.3254 9.99393 19.3706 9.84463 19.3706 9.69191V8.73991C19.3714 8.00497 19.6637 7.30036 20.1834 6.78068C20.703 6.261 21.4076 5.9687 22.1426 5.96791H24.7726C25.5074 5.96896 26.2119 6.26135 26.7315 6.78097C27.2511 7.3006 27.5435 8.00505 27.5446 8.73991V9.69191C27.5443 9.84471 27.5895 9.99415 27.6742 10.1213C27.7589 10.2485 27.8795 10.3476 28.0207 10.4062C28.1618 10.4647 28.3171 10.4801 28.467 10.4503C28.6169 10.4206 28.7546 10.347 28.8626 10.2389L29.5356 9.56491C30.0636 9.06042 30.7658 8.7789 31.4961 8.7789C32.2264 8.7789 32.9286 9.06042 33.4566 9.56491L35.3156 11.4249C35.8346 11.9451 36.1261 12.65 36.1261 13.3849C36.1261 14.1198 35.8346 14.8247 35.3156 15.3449L34.6416 16.0179C34.5336 16.1259 34.46 16.2634 34.4302 16.4132C34.4004 16.563 34.4157 16.7183 34.4741 16.8594C34.5326 17.0005 34.6316 17.121 34.7586 17.2059C34.8856 17.2907 35.0349 17.336 35.1876 17.3359H36.1396C36.8744 17.337 37.5789 17.6294 38.0985 18.149C38.6181 18.6686 38.9105 19.373 38.9116 20.1079V22.7379C38.9108 23.4728 38.6185 24.1775 38.0988 24.6971C37.5791 25.2168 36.8745 25.5091 36.1396 25.5099H35.1876C35.0349 25.5101 34.8857 25.5556 34.7588 25.6406C34.6319 25.7255 34.533 25.8461 34.4745 25.9872C34.4161 26.1284 34.4008 26.2836 34.4306 26.4334C34.4603 26.5832 34.5337 26.7208 34.6416 26.8289L35.3146 27.5009C35.8335 28.0214 36.1248 28.7264 36.1248 29.4614C36.1248 30.1964 35.8335 30.9014 35.3146 31.4219L33.4576 33.2809C32.9372 33.8 32.2321 34.0915 31.4971 34.0915C30.762 34.0915 30.057 33.8 29.5366 33.2809L28.8636 32.6079C28.7556 32.4999 28.618 32.4263 28.4683 32.3965C28.3185 32.3667 28.1632 32.382 28.0221 32.4405C27.881 32.4989 27.7604 32.5979 27.6756 32.7249C27.5908 32.8519 27.5455 33.0012 27.5456 33.1539V34.1059C27.5445 34.8408 27.2521 35.5452 26.7325 36.0648C26.2129 36.5845 25.5084 36.8768 24.7736 36.8779H22.1436C21.4085 36.8774 20.7036 36.5852 20.1837 36.0655C19.6638 35.5458 19.3714 34.841 19.3706 34.1059Z" fill="#EF5226"/>
</svg>
