<svg width="25" height="11" viewBox="0 0 25 11" fill="none" xmlns="http://www.w3.org/2000/svg">
<path d="M18.4228 3.61094C19.1163 3.61094 19.7875 3.46606 20.4362 3.17629C21.085 2.86424 21.7562 2.26241 22.4497 1.37082C23.1432 0.45694 23.6801 0 24.0604 0C24.2841 0 24.4966 0.100304 24.698 0.300912C24.8993 0.50152 25 0.735562 25 1.00304C25 1.49341 24.7315 2.07295 24.1946 2.74164C23.6801 3.41033 23.2103 4.33536 22.7852 5.51672C22.3602 6.69808 22.0022 7.36677 21.7114 7.5228C21.443 7.65654 20.66 7.7234 19.3624 7.7234H7.08054C6.27517 7.7234 5.48098 7.85714 4.69799 8.12462C3.91499 8.3921 3.10962 9.00507 2.28188 9.96353C1.67785 10.6545 1.16331 11 0.738255 11C0.246085 11 0 10.7771 0 10.3313C0 9.97467 0.380313 9.32827 1.14094 8.3921C1.90157 7.43364 2.43848 6.51976 2.75168 5.65046C3.08725 4.75887 3.41163 4.20162 3.72483 3.97872C4.0604 3.73354 4.7651 3.61094 5.83893 3.61094H18.4228Z" fill="#05A7CC"/>
</svg>
