<svg width="54" height="50" viewBox="0 0 54 50" fill="none" xmlns="http://www.w3.org/2000/svg">
<path d="M41.8184 28.1819V26.8182C41.8184 18.5476 35.089 11.8182 26.8184 11.8182C18.5478 11.8182 11.8184 18.5476 11.8184 26.8182V28.1819H14.5456V26.8182C14.5456 20.0507 20.0517 14.5455 26.8184 14.5455C33.5851 14.5455 39.0911 20.0507 39.0911 26.8182V28.1819H41.8184Z" fill="#05A7CC"/>
<path d="M50.6818 19.8766C48.2504 19.6885 47.0482 16.6942 48.608 14.8411C49.6733 13.5742 49.5987 11.6708 48.4375 10.5087L43.1286 5.19976C41.9586 4.03065 40.0554 3.95864 38.7771 5.04496C36.9536 6.59436 33.9422 5.32716 33.7607 2.94924C33.6328 1.29527 32.2372 0 30.5824 0H23.054C21.3994 0 20.0039 1.29584 19.8757 2.95487C19.6897 5.36465 16.6791 6.57958 14.842 5.03018C13.5955 3.97905 11.6513 4.05806 10.5078 5.19975L5.19887 10.5087C4.03244 11.6751 3.95953 13.581 5.04418 14.8603C6.59858 16.6938 5.3458 19.6919 2.94924 19.8775C1.29616 20.0044 0 21.4 0 23.0549V26.8182C0 27.571 0.6108 28.1818 1.36364 28.1818H9.09091V26.8182C9.09091 17.0437 17.0437 9.09091 26.8182 9.09091C36.5927 9.09091 44.5455 17.0437 44.5455 26.8182V28.1818H52.2727C53.0256 28.1818 53.6364 27.571 53.6364 26.8182V23.0549C53.6364 21.4001 52.3404 20.0047 50.6818 19.8766Z" fill="#EF5226"/>
<path d="M50.4545 40H48.1818V37.7272C48.1818 34.9698 45.9393 32.7273 43.1818 32.7273H28.1818V28.1818H36.3636V26.8182C36.3636 21.5545 32.081 17.2727 26.8182 17.2727C21.5554 17.2727 17.2727 21.5545 17.2727 26.8182V28.1818H25.4545V32.7273H10.4545C7.69709 32.7273 5.45455 34.9698 5.45455 37.7272V40H3.18182C1.42756 40 0 41.4275 0 43.1818V46.8182C0 48.5724 1.42756 50 3.18182 50H10.4545C12.2088 50 13.6364 48.5724 13.6364 46.8182V43.1818C13.6364 41.4275 12.2088 40 10.4545 40H8.18182V37.7272C8.18182 36.4737 9.201 35.4545 10.4545 35.4545H25.4545V40H23.1818C21.4276 40 20 41.4275 20 43.1818V46.8182C20 48.5724 21.4276 50 23.1818 50H30.4545C32.2088 50 33.6364 48.5724 33.6364 46.8182V43.1818C33.6364 41.4275 32.2088 40 30.4545 40H28.1818V35.4545H43.1818C44.4354 35.4545 45.4545 36.4737 45.4545 37.7272V40H43.1818C41.4276 40 40 41.4275 40 43.1818V46.8182C40 48.5724 41.4276 50 43.1818 50H50.4545C52.2088 50 53.6364 48.5724 53.6364 46.8182V43.1818C53.6364 41.4275 52.2088 40 50.4545 40Z" fill="#EF5226"/>
</svg>
