<svg width="44" height="50" viewBox="0 0 44 50" fill="none" xmlns="http://www.w3.org/2000/svg">
<path d="M31.1963 38.0105V41.1967H37.4463V37.7818V35.9201V27.9042H31.1963V36.1967V38.0105Z" fill="#EF5226"/>
<path d="M29.3825 26.9947C29.3825 26.7549 29.4777 26.5249 29.6473 26.3553C29.8169 26.1857 30.0469 26.0904 30.2867 26.0904H38.3505C38.4697 26.0897 38.5879 26.1126 38.6982 26.1577C38.8085 26.2029 38.9088 26.2694 38.9934 26.3534C39.0779 26.4374 39.145 26.5373 39.1908 26.6474C39.2365 26.7575 39.2601 26.8755 39.2601 26.9947V35.2181C40.0718 34.8102 40.8104 34.271 41.4463 33.6223C42.2017 32.8517 42.793 31.9358 43.1843 30.9301C43.5756 29.9244 43.7588 28.8498 43.7229 27.7713C43.7229 27.5638 43.7229 27.3511 43.6856 27.1436C43.5112 25.2864 42.8331 23.5121 41.7243 22.012C40.6156 20.512 39.1183 19.3431 37.394 18.6315C35.6698 17.9199 33.7839 17.6925 31.9399 17.974C30.0959 18.2555 28.3638 19.0351 26.9303 20.2287C26.815 20.3219 26.6789 20.3861 26.5335 20.4157C26.3882 20.4453 26.2379 20.4396 26.0952 20.3989C25.958 20.3559 25.8329 20.2809 25.7303 20.1801C25.6276 20.0793 25.5504 19.9556 25.5048 19.8192C24.9728 18.0853 23.8658 16.5844 22.3665 15.5638V23.0106C22.3694 23.1334 22.3473 23.2556 22.3015 23.3695C22.2557 23.4835 22.1872 23.5869 22.1001 23.6736C22.013 23.7602 21.9091 23.8281 21.7949 23.8733C21.6807 23.9184 21.5584 23.9398 21.4356 23.9362H13.3718C13.2531 23.9362 13.1355 23.9128 13.0258 23.8673C12.9161 23.8219 12.8164 23.7553 12.7324 23.6713C12.6485 23.5874 12.5818 23.4877 12.5364 23.378C12.491 23.2683 12.4676 23.1507 12.4676 23.0319V16.2607C11.2634 17.3395 10.4187 18.7615 10.0474 20.3351C9.9963 20.5445 9.87256 20.7289 9.69818 20.8556C9.52381 20.9822 9.31013 21.0428 9.09524 21.0266H8.91439C6.79021 21.0294 4.75376 21.8741 3.25124 23.3756C1.74872 24.8772 0.902659 26.9131 0.898438 29.0372C0.898438 30.3032 1.73354 31.867 3.30269 33.5691C4.08582 34.404 5.03282 35.0683 6.08445 35.5205C7.13607 35.9726 8.2697 36.2029 9.41439 36.1968H29.3825V26.9947Z" fill="#05A7CC"/>
<path d="M14.2812 15.0319V22.0958H20.5312V14.6649V12.766V8.80322H14.2812V13.0532V15.0319Z" fill="#EF5226"/>
<path d="M17.7758 0L11.5205 6.98935H23.4194L17.7758 0Z" fill="#EF5226"/>
<path d="M28.4355 43.0106L34.6909 50L40.3345 43.0106H28.4355Z" fill="#EF5226"/>
</svg>
