<svg width="41" height="50" viewBox="0 0 41 50" fill="none" xmlns="http://www.w3.org/2000/svg">
<path d="M36.4408 0H4.29799C2.32478 0 0.726562 1.59821 0.726562 3.57143V46.4286C0.726562 48.4018 2.32478 50 4.29799 50H36.4408C38.4141 50 40.0123 48.4018 40.0123 46.4286V3.57143C40.0123 1.59821 38.4141 0 36.4408 0ZM38.2266 46.4286C38.2266 47.4107 37.423 48.2143 36.4408 48.2143H4.29799C3.31585 48.2143 2.51228 47.4107 2.51228 46.4286V3.57143C2.51228 2.58929 3.31585 1.78571 4.29799 1.78571H36.4408C37.423 1.78571 38.2266 2.58929 38.2266 3.57143V46.4286Z" fill="#EF5226"/>
<path d="M15.1369 14.6964C9.71721 14.6964 5.31543 19.0982 5.31543 24.5178C5.31543 29.9375 9.71721 34.3303 15.1369 34.3303C20.5565 34.3303 24.9494 29.9286 24.9494 24.5178C24.9494 19.1071 20.5476 14.6964 15.1369 14.6964ZM20.2708 25.4107H15.1369C14.6369 25.4107 14.244 25.0089 14.244 24.5178V19.375C14.244 18.8839 14.6369 18.4821 15.1369 18.4821C15.6279 18.4821 16.0297 18.8839 16.0297 19.375V23.625H20.2708C20.7708 23.625 21.1636 24.0178 21.1636 24.5178C21.1636 25.0089 20.7708 25.4107 20.2708 25.4107Z" fill="#05A7CC"/>
<path d="M20.2742 37.5963H16.7688C16.2757 37.5963 15.876 37.9961 15.876 38.4892V45.1285C15.876 45.6216 16.2757 46.0213 16.7688 46.0213H20.2742C20.7673 46.0213 21.167 45.6216 21.167 45.1285V38.4892C21.167 37.9961 20.7673 37.5963 20.2742 37.5963Z" fill="#EF5226"/>
<path d="M27.5623 34.191H24.0569C23.5638 34.191 23.1641 34.5908 23.1641 35.0839V45.1285C23.1641 45.6217 23.5638 46.0214 24.0569 46.0214H27.5623C28.0554 46.0214 28.4551 45.6217 28.4551 45.1285V35.0839C28.4551 34.5908 28.0554 34.191 27.5623 34.191Z" fill="#EF5226"/>
<path d="M34.8494 30.1732H31.344C30.8509 30.1732 30.4512 30.573 30.4512 31.0661V45.1286C30.4512 45.6217 30.8509 46.0214 31.344 46.0214H34.8494C35.3425 46.0214 35.7422 45.6217 35.7422 45.1286V31.0661C35.7422 30.573 35.3425 30.1732 34.8494 30.1732Z" fill="#EF5226"/>
<path d="M9.86842 38.2473H5.88895C5.3952 38.2473 4.99609 37.8482 4.99609 37.3544C4.99609 36.8607 5.3952 36.4615 5.88895 36.4615H9.86842C10.3622 36.4615 10.7613 36.8607 10.7613 37.3544C10.7613 37.8482 10.3622 38.2473 9.86842 38.2473Z" fill="#EF5226"/>
<path d="M13.0997 42.1339H5.88895C5.3952 42.1339 4.99609 41.7348 4.99609 41.241C4.99609 40.7473 5.3952 40.3481 5.88895 40.3481H13.0997C13.5934 40.3481 13.9925 40.7473 13.9925 41.241C13.9925 41.7348 13.5934 42.1339 13.0997 42.1339Z" fill="#EF5226"/>
<path d="M13.0997 46.0214H5.88895C5.3952 46.0214 4.99609 45.6223 4.99609 45.1286C4.99609 44.6348 5.3952 44.2357 5.88895 44.2357H13.0997C13.5934 44.2357 13.9925 44.6348 13.9925 45.1286C13.9925 45.6223 13.5934 46.0214 13.0997 46.0214Z" fill="#EF5226"/>
<path d="M34.8497 7.14375H5.88895C5.3952 7.14375 4.99609 6.74464 4.99609 6.25089C4.99609 5.75714 5.3952 5.35803 5.88895 5.35803H34.8497C35.3434 5.35803 35.7425 5.75714 35.7425 6.25089C35.7425 6.74464 35.3434 7.14375 34.8497 7.14375Z" fill="#EF5226"/>
<path d="M22.7666 12.0572H5.88895C5.3952 12.0572 4.99609 11.6581 4.99609 11.1643C4.99609 10.6706 5.3952 10.2715 5.88895 10.2715H22.7657C23.2595 10.2715 23.6586 10.6706 23.6586 11.1643C23.6586 11.6581 23.2595 12.0572 22.7657 12.0572H22.7666Z" fill="#EF5226"/>
<path d="M34.8493 12.0572H27.5618C27.0681 12.0572 26.6689 11.6581 26.6689 11.1643C26.6689 10.6706 27.0681 10.2715 27.5618 10.2715H34.8493C35.3431 10.2715 35.7422 10.6706 35.7422 11.1643C35.7422 11.6581 35.3431 12.0572 34.8493 12.0572Z" fill="#EF5226"/>
<path d="M34.8505 20.9455H28.7942C28.3005 20.9455 27.9014 20.5464 27.9014 20.0526C27.9014 19.5589 28.3005 19.1598 28.7942 19.1598H34.8505C35.3442 19.1598 35.7433 19.5589 35.7433 20.0526C35.7433 20.5464 35.3442 20.9455 34.8505 20.9455Z" fill="#EF5226"/>
<path d="M34.8505 25.8929H28.7942C28.3005 25.8929 27.9014 25.4938 27.9014 25C27.9014 24.5063 28.3005 24.1072 28.7942 24.1072H34.8505C35.3442 24.1072 35.7433 24.5063 35.7433 25C35.7433 25.4938 35.3442 25.8929 34.8505 25.8929Z" fill="#EF5226"/>
</svg>
