<svg width="56" height="50" viewBox="0 0 56 50" fill="none" xmlns="http://www.w3.org/2000/svg">
<path d="M36.2599 15.5113H34.9601C34.8735 15.078 34.7001 14.7314 34.5268 14.3848L35.3934 13.5182C35.5667 13.3449 35.6533 13.1716 35.6533 12.9116C35.6533 12.6516 35.5667 12.4783 35.3934 12.305L33.487 10.312C33.1403 9.96534 32.6204 9.96534 32.2738 10.312L31.4072 11.1785C31.0606 11.0052 30.6274 10.8319 30.1941 10.6586V9.44541C30.1941 8.92548 29.7608 8.57886 29.3275 8.57886H26.5546C26.0346 8.57886 25.688 8.92548 25.688 9.44541V10.6586C25.2547 10.7452 24.9081 10.9185 24.4748 11.1785L23.6083 10.312C23.2617 9.96534 22.7417 9.96534 22.3951 10.312L20.402 12.305C20.2287 12.4783 20.1421 12.6516 20.1421 12.9116C20.1421 13.1716 20.2287 13.3449 20.402 13.5182L21.2686 14.3848C21.0953 14.7314 20.922 15.1646 20.7487 15.5113H19.5355C19.0156 15.5113 18.6689 15.8579 18.6689 16.3778V19.1508C18.6689 19.6707 19.0156 20.0173 19.5355 20.0173H20.7487C20.8353 20.4506 21.0086 20.7972 21.2686 21.1438L20.402 22.0104C20.2287 22.1837 20.1421 22.357 20.1421 22.617C20.1421 22.877 20.2287 23.0503 20.402 23.2236L22.3951 25.2166C22.7417 25.5633 23.2617 25.5633 23.6083 25.2166L24.4748 24.3501C24.8215 24.5234 25.2547 24.6967 25.688 24.87V26.0832C25.688 26.5165 26.0346 26.9497 26.5546 26.9497H29.3275C29.7608 26.9497 30.1941 26.5165 30.1941 26.0832V24.87C30.6274 24.7834 30.974 24.6101 31.3206 24.4367L32.1871 25.3033C32.5338 25.6499 33.0537 25.6499 33.4003 25.3033L35.3934 23.3102C35.5667 23.1369 35.6533 22.9636 35.6533 22.7036C35.6533 22.4437 35.5667 22.2704 35.3934 22.0971L34.5268 21.2305C34.7001 20.8839 34.8734 20.4506 35.0468 20.104H36.2599C36.7799 20.104 37.1265 19.7574 37.1265 19.2374V16.3778C37.1265 15.8579 36.7799 15.5113 36.2599 15.5113ZM35.3934 18.2842H34.3535C33.9202 18.2842 33.5736 18.6309 33.487 19.0641C33.3137 19.7574 33.0537 20.364 32.7071 20.8839C32.4471 21.2305 32.5338 21.6638 32.7937 22.0104L33.487 22.7036L32.7071 23.4835L31.9272 22.7036C31.6672 22.4437 31.2339 22.357 30.8873 22.617C30.3674 22.9636 29.6741 23.2236 28.9809 23.3969C28.5476 23.4835 28.2877 23.8302 28.2877 24.2634V25.3033H27.2478V24.1768C27.2478 23.7435 26.9878 23.3969 26.5546 23.3102C25.8613 23.1369 25.2547 22.877 24.6481 22.5303C24.3015 22.357 23.8683 22.357 23.6083 22.617L22.8284 23.3969L22.0485 22.617L22.8284 21.9237C23.0884 21.6638 23.175 21.1438 22.915 20.7972C22.5684 20.2773 22.3085 19.6707 22.1351 18.9775C22.0485 18.5442 21.7019 18.1976 21.2686 18.1976H20.2287V17.2444H21.2686C21.7019 17.2444 22.0485 16.9844 22.1351 16.5511C22.3085 15.8579 22.5684 15.2513 22.915 14.7314C23.175 14.3847 23.0884 13.9515 22.8284 13.6049L22.0485 12.9116L22.8284 12.1317L23.6083 12.9116C23.8683 13.1716 24.3882 13.2582 24.6481 12.9983C25.2547 12.6516 25.8613 12.3917 26.5546 12.2184C26.9878 12.1317 27.2478 11.7851 27.2478 11.3518V10.312H28.2877V11.3518C28.2877 11.7851 28.5476 12.1317 28.9809 12.2184C29.6741 12.3917 30.2807 12.6516 30.8873 12.9983C31.2339 13.1716 31.6672 13.1716 31.9272 12.9116L32.7071 12.1317L33.487 12.9116L32.7937 13.6049C32.5338 13.8648 32.4471 14.3847 32.7071 14.7314C33.0537 15.338 33.3137 15.9445 33.487 16.5511C33.5736 16.9844 33.9202 17.2444 34.3535 17.2444H35.3934V18.2842Z" fill="#EF5226"/>
<path d="M54.7177 41.2478H51.0782C51.5981 40.5546 51.9448 39.688 51.9448 38.7348V10.4853C51.9448 8.14558 50.0383 6.23917 47.6987 6.23917H41.2862C38.0799 2.42634 33.2272 0 27.9413 0C22.6553 0 17.8026 2.42634 14.5964 6.23917H8.01062C5.67093 6.23917 3.76451 8.14558 3.76451 10.4853V38.6482C3.76451 39.6014 4.11113 40.4679 4.63107 41.1612H0.991551C0.558276 41.1612 0.125 41.5945 0.125 42.0277C0.125 46.4471 3.67786 50 8.09727 50H47.612C49.7784 50 51.7714 49.1334 53.2446 47.6603C54.8044 46.1005 55.5843 44.1075 55.5843 42.0277C55.5843 41.5945 55.2377 41.2478 54.7177 41.2478ZM40.8529 46.5338H37.82C37.3867 46.5338 36.9534 46.1005 36.9534 45.6672C36.9534 45.234 37.3867 44.8007 37.82 44.8007H40.8529C41.3728 44.8007 41.7195 45.234 41.7195 45.6672C41.7195 46.1005 41.2862 46.5338 40.8529 46.5338ZM46.8321 46.5338H43.7992C43.2792 46.5338 42.9326 46.1005 42.9326 45.6672C42.9326 45.234 43.2792 44.8007 43.7992 44.8007H46.8321C47.2654 44.8007 47.6987 45.234 47.6987 45.6672C47.6987 46.1005 47.2654 46.5338 46.8321 46.5338ZM50.2117 38.7348C50.2117 40.1213 49.0851 41.2478 47.6987 41.2478H34.0071C33.5739 41.2478 33.1406 41.6811 33.1406 42.1144V43.2409H22.5687V42.0277C22.5687 41.5945 22.1354 41.1612 21.7021 41.1612H8.01062C6.62413 41.1612 5.49762 40.0347 5.49762 38.6482V10.4853C5.49762 9.09879 6.62413 7.97227 8.01062 7.97227H13.3832C12.43 9.53206 11.6501 11.1785 11.2169 12.9983C10.0037 13.0849 8.96382 13.6049 8.09727 14.4714C7.05741 15.5113 6.53748 16.8111 6.53748 18.1976C6.53748 21.0572 8.87717 23.3969 11.7368 23.3969H15.6363H15.8096H15.9829C15.9829 23.3969 16.0695 23.3969 16.0695 23.3102C16.1562 23.3102 16.1562 23.2236 16.2429 23.2236L16.3295 23.1369C16.3295 23.0503 16.4162 23.0503 16.4162 22.9636C16.4162 22.8769 16.4162 22.7903 16.4162 22.7903V22.7036C16.4162 22.617 16.4162 22.617 16.4162 22.5303C16.4162 22.4437 16.4162 22.4437 16.4162 22.357C15.7229 20.7106 15.2896 19.0641 15.2896 17.331C15.2896 16.2912 15.3763 15.2513 15.6363 14.2981C17.0227 8.75217 22.0487 4.85269 27.8546 4.85269C33.6605 4.85269 38.6865 8.75217 40.073 14.2981C40.333 15.2513 40.4196 16.2912 40.4196 17.331C40.4196 19.0641 40.073 20.7972 39.2931 22.357V22.5303V22.7036V22.7903V22.9636C39.2931 23.0503 39.3798 23.0503 39.3798 23.1369L39.4664 23.2236C39.5531 23.3102 39.5531 23.3102 39.6397 23.3102L39.7264 23.3969C39.813 23.3969 39.8997 23.4835 40.073 23.4835H41.7195C40.073 28.3362 35.6536 31.7158 30.5409 31.9757C30.1077 30.6759 28.8945 29.636 27.4214 29.636C25.6883 29.636 24.2151 31.1092 24.2151 32.8423C24.2151 34.5754 25.6883 36.0485 27.4214 36.0485C28.8945 36.0485 30.1943 35.0087 30.5409 33.7088C36.6068 33.3622 41.8061 29.2894 43.5392 23.4835H43.9725C45.359 23.4835 46.6588 22.9636 47.612 21.9237C48.5652 20.9705 49.1718 19.5841 49.1718 18.2842C49.1718 15.6846 47.1787 13.4315 44.5791 13.1716C44.1458 11.3518 43.3659 9.61872 42.4127 8.14558H47.612C48.9985 8.14558 50.125 9.2721 50.125 10.6586C50.2117 10.4853 50.2117 38.7348 50.2117 38.7348ZM29.0678 32.8423C29.0678 33.6222 28.3746 34.3154 27.5947 34.3154C26.7281 34.3154 26.1215 33.6222 26.1215 32.8423C26.1215 32.0624 26.8148 31.3692 27.5947 31.3692C28.3746 31.3692 29.0678 31.9757 29.0678 32.8423Z" fill="#EF5226"/>
<path d="M32.3605 17.7643C32.3605 18.1975 32.2738 18.6308 32.1005 19.0641C32.1005 19.2374 32.0139 19.4107 31.9272 19.4974C31.234 21.1438 29.5875 22.1837 27.7678 22.1837C25.948 22.1837 24.3882 21.1438 23.6083 19.4974C23.3484 18.9774 23.2617 18.3708 23.2617 17.7643C23.2617 15.3379 25.2548 13.3448 27.7678 13.3448C30.3674 13.3448 32.3605 15.3379 32.3605 17.7643Z" fill="#05A7CC"/>
</svg>
