<svg width="50" height="50" viewBox="0 0 50 50" fill="none" xmlns="http://www.w3.org/2000/svg">
<path d="M41.0711 17.8571C42.8371 17.8571 44.5633 17.3335 46.0316 16.3524C47.4999 15.3713 48.6443 13.9769 49.3201 12.3454C49.9959 10.7139 50.1727 8.91867 49.8282 7.1867C49.4837 5.45472 48.6333 3.8638 47.3846 2.61512C46.1359 1.36644 44.545 0.516075 42.813 0.171564C41.0811 -0.172947 39.2858 0.00386861 37.6543 0.679651C36.0228 1.35543 34.6284 2.49983 33.6473 3.96813C32.6662 5.43642 32.1426 7.16267 32.1426 8.92857C32.1452 11.2958 33.0867 13.5653 34.7606 15.2392C36.4344 16.913 38.7039 17.8545 41.0711 17.8571ZM34.8658 8.97322C35.0332 8.80583 35.2603 8.7118 35.497 8.7118C35.7338 8.7118 35.9609 8.80583 36.1283 8.97322L39.2854 12.1304L45.797 5.61875C45.9654 5.45611 46.191 5.36612 46.4251 5.36815C46.6592 5.37019 46.8831 5.46409 47.0487 5.62963C47.2142 5.79517 47.3081 6.01911 47.3101 6.25322C47.3122 6.48732 47.2222 6.71286 47.0595 6.88125L39.9167 14.0241C39.7493 14.1915 39.5222 14.2855 39.2854 14.2855C39.0487 14.2855 38.8216 14.1915 38.6542 14.0241L34.8658 10.2357C34.6984 10.0683 34.6044 9.84122 34.6044 9.60447C34.6044 9.36771 34.6984 9.14065 34.8658 8.97322Z" fill="#EF5226"/>
<path d="M8.92871 19.6428H16.0716V25H8.92871V19.6428Z" fill="#05A7CC"/>
<path d="M1.78613 42.8572H48.2147V16.892C47.6658 17.3859 47.0674 17.8219 46.429 18.1929V40.1786C46.429 40.4154 46.3349 40.6425 46.1675 40.8099C46 40.9774 45.7729 41.0714 45.5361 41.0714H4.4647C4.2279 41.0714 4.0008 40.9774 3.83336 40.8099C3.66592 40.6425 3.57185 40.4154 3.57185 40.1786V11.6072C3.57185 11.3704 3.66592 11.1433 3.83336 10.9758C4.0008 10.8084 4.2279 10.7143 4.4647 10.7143H30.5192C30.4154 10.1246 30.3614 9.5273 30.3576 8.92859H4.4647C3.7543 8.92859 3.073 9.21079 2.57067 9.71312C2.06834 10.2155 1.78613 10.8968 1.78613 11.6072V42.8572Z" fill="#EF5226"/>
<path d="M21.429 46.4285H28.5718C28.8086 46.4285 29.0358 46.3345 29.2032 46.167C29.3706 45.9996 29.4647 45.7725 29.4647 45.5357V44.6428H20.5361V45.5357C20.5361 45.7725 20.6302 45.9996 20.7976 46.167C20.9651 46.3345 21.1922 46.4285 21.429 46.4285Z" fill="#05A7CC"/>
<path d="M21.4287 19.6428H28.5716V25H21.4287V19.6428Z" fill="#05A7CC"/>
<path d="M33.9287 19.6428H41.0716V25H33.9287V19.6428Z" fill="#05A7CC"/>
<path d="M50 44.6428H31.25V45.5357C31.25 46.2461 30.9678 46.9274 30.4655 47.4297C29.9631 47.932 29.2818 48.2143 28.5714 48.2143H21.4286C20.7182 48.2143 20.0369 47.932 19.5345 47.4297C19.0322 46.9274 18.75 46.2461 18.75 45.5357V44.6428H0V47.3214C0 48.0318 0.282206 48.7131 0.784535 49.2154C1.28687 49.7178 1.96817 50 2.67857 50H47.3214C48.0318 50 48.7131 49.7178 49.2155 49.2154C49.7178 48.7131 50 48.0318 50 47.3214V44.6428Z" fill="#EF5226"/>
<path d="M5.35742 12.5V39.2857H44.6431V19.0179C44.0626 19.2242 43.465 19.3792 42.8574 19.4813V25.8929C42.8574 26.1297 42.7634 26.3568 42.5959 26.5242C42.4285 26.6916 42.2014 26.7857 41.9646 26.7857H33.036C32.7992 26.7857 32.5721 26.6916 32.4046 26.5242C32.2372 26.3568 32.1431 26.1297 32.1431 25.8929V18.75C32.1431 18.5132 32.2372 18.2861 32.4046 18.1187C32.5721 17.9512 32.7992 17.8571 33.036 17.8571H35.1619C33.2267 16.5697 31.7604 14.6902 30.9824 12.5H5.35742ZM14.286 14.2857H16.0717V16.0714H14.286V14.2857ZM10.7146 14.2857H12.5003V16.0714H10.7146V14.2857ZM7.14314 14.2857H8.92885V16.0714H7.14314V14.2857ZM16.0717 37.5H8.92885V35.7143H16.0717V37.5ZM16.0717 33.9286H8.92885V32.1429H16.0717V33.9286ZM16.0717 30.3571H8.92885V28.5714H16.0717V30.3571ZM17.8574 25.8929C17.8574 26.1297 17.7634 26.3568 17.5959 26.5242C17.4285 26.6916 17.2014 26.7857 16.9646 26.7857H8.03599C7.79919 26.7857 7.57209 26.6916 7.40465 26.5242C7.2372 26.3568 7.14314 26.1297 7.14314 25.8929V18.75C7.14314 18.5132 7.2372 18.2861 7.40465 18.1187C7.57209 17.9512 7.79919 17.8571 8.03599 17.8571H16.9646C17.2014 17.8571 17.4285 17.9512 17.5959 18.1187C17.7634 18.2861 17.8574 18.5132 17.8574 18.75V25.8929ZM23.2146 37.5H21.4289V35.7143H23.2146V37.5ZM23.2146 33.9286H21.4289V32.1429H23.2146V33.9286ZM23.2146 30.3571H21.4289V28.5714H23.2146V30.3571ZM28.5717 37.5H25.0003V35.7143H28.5717V37.5ZM28.5717 33.9286H25.0003V32.1429H28.5717V33.9286ZM28.5717 30.3571H25.0003V28.5714H28.5717V30.3571ZM30.3574 25.8929C30.3574 26.1297 30.2634 26.3568 30.0959 26.5242C29.9285 26.6916 29.7014 26.7857 29.4646 26.7857H20.536C20.2992 26.7857 20.0721 26.6916 19.9046 26.5242C19.7372 26.3568 19.6431 26.1297 19.6431 25.8929V18.75C19.6431 18.5132 19.7372 18.2861 19.9046 18.1187C20.0721 17.9512 20.2992 17.8571 20.536 17.8571H29.4646C29.7014 17.8571 29.9285 17.9512 30.0959 18.1187C30.2634 18.2861 30.3574 18.5132 30.3574 18.75V25.8929ZM30.3574 16.0714H17.8574V14.2857H30.3574V16.0714ZM33.9289 28.5714H41.0717V30.3571H33.9289V28.5714ZM33.9289 32.1429H41.0717V33.9286H33.9289V32.1429ZM33.9289 35.7143H41.0717V37.5H33.9289V35.7143Z" fill="#EF5226"/>
</svg>
