<svg width="52" height="50" viewBox="0 0 52 50" fill="none" xmlns="http://www.w3.org/2000/svg">
<path fill-rule="evenodd" clip-rule="evenodd" d="M7.3945 35.2112C3.31053 35.2112 0 38.5216 0 42.6056C0 46.6895 3.31053 50.0001 7.3945 50.0001C11.4785 50.0001 14.7889 46.6895 14.7889 42.6056C14.7889 38.5216 11.4785 35.2112 7.3945 35.2112ZM6.73748 36.5048C6.73748 35.6405 8.05163 35.6405 8.05163 36.5048V36.7399C9.5829 37.05 10.6887 38.4017 10.6887 39.9684C10.6887 40.8327 9.37452 40.8327 9.37452 39.9684C9.37452 38.8748 8.48816 37.9884 7.3945 37.9884C6.30085 37.9884 5.41449 38.8748 5.41449 39.9684C5.41449 41.0621 6.30106 41.9484 7.3945 41.9484C9.21359 41.9484 10.6887 43.4235 10.6887 45.2426C10.6887 46.8093 9.5828 48.161 8.05163 48.4711V48.7062C8.05163 49.5705 6.73748 49.5705 6.73748 48.7062V48.471C5.23305 48.1665 4.10033 46.8367 4.10033 45.2425C4.10033 44.3782 5.41449 44.3782 5.41449 45.2425C5.41449 46.336 6.30106 47.2225 7.3945 47.2225C8.48794 47.2225 9.37452 46.3362 9.37452 45.2425C9.37452 44.1488 8.48816 43.2625 7.3945 43.2625C5.5752 43.2625 4.10033 41.7876 4.10033 39.9683C4.10033 38.4016 5.20621 37.0498 6.73748 36.7398V36.5047V36.5048Z" fill="#EF5226"/>
<path fill-rule="evenodd" clip-rule="evenodd" d="M25.6259 35.2112C21.542 35.2112 18.2314 38.5216 18.2314 42.6056C18.2314 46.6895 21.542 50.0001 25.6259 50.0001C29.7099 50.0001 33.0204 46.6897 33.0204 42.6056C33.0204 38.5215 29.71 35.2112 25.6259 35.2112ZM24.4481 36.013C24.5679 35.8528 24.7591 35.7493 24.9745 35.7493H26.2775C26.4929 35.7493 26.684 35.8529 26.8039 36.013L27.3598 36.6829C27.467 36.7997 27.5324 36.9556 27.5324 37.1267V37.9396L27.5773 37.9582L28.152 37.3834C28.2788 37.2567 28.4446 37.1925 28.6108 37.1911L29.4325 37.1146C29.6369 37.0781 29.8552 37.1387 30.0132 37.2967L30.9346 38.2182C31.0926 38.3762 31.1532 38.5945 31.1167 38.7989L31.0403 39.6206C31.0389 39.7869 30.9748 39.9526 30.848 40.0794L30.2723 40.655L30.2906 40.6991H31.1047C31.2759 40.6991 31.4317 40.7646 31.5485 40.8717L32.2184 41.4276C32.3786 41.5474 32.4821 41.7386 32.4821 41.954V43.2571C32.4821 43.4725 32.3785 43.6637 32.2184 43.7836L31.5485 44.3394C31.4317 44.4466 31.2758 44.5121 31.1047 44.5121H30.2907L30.2723 44.5561L30.8479 45.1317C30.9746 45.2584 31.0388 45.4243 31.0402 45.5905L31.1166 46.4122C31.1531 46.6167 31.0925 46.835 30.9345 46.993L30.013 47.9143C29.855 48.0723 29.6367 48.133 29.4322 48.0964L28.6106 48.02C28.4443 48.0185 28.2786 47.9544 28.1518 47.8276L27.5763 47.2521L27.5321 47.2704V48.0844C27.5321 48.2555 27.4666 48.4114 27.3595 48.5283L26.8036 49.1982C26.6838 49.3583 26.4926 49.4619 26.2772 49.4619H24.9742C24.7588 49.4619 24.5676 49.3582 24.4477 49.1982L23.8919 48.5283C23.7847 48.4113 23.7193 48.2555 23.7193 48.0844V47.2704C23.7034 47.2639 23.69 47.2594 23.6743 47.2528L23.0994 47.8276C22.9727 47.9544 22.8068 48.0185 22.6407 48.02L21.819 48.0964C21.6145 48.133 21.3962 48.0723 21.2382 47.9143L20.3167 46.993C20.1588 46.835 20.0981 46.6167 20.1347 46.4122L20.211 45.5905C20.2124 45.4243 20.2766 45.2585 20.4034 45.1317L20.9789 44.5561L20.9606 44.5121H20.1465C19.9755 44.5121 19.8196 44.4466 19.7027 44.3394L19.0328 43.7836C18.8726 43.6638 18.7691 43.4725 18.7691 43.2571V41.954C18.7691 41.7386 18.8728 41.5475 19.0328 41.4276L19.7027 40.8717C19.8197 40.7646 19.9755 40.6991 20.1465 40.6991H20.9595L20.9781 40.6541L20.4034 40.0794C20.2766 39.9526 20.2124 39.7868 20.211 39.6206L20.1347 38.7989C20.0981 38.5945 20.1588 38.3762 20.3167 38.2182L21.2381 37.2967C21.3961 37.1387 21.6144 37.0781 21.8189 37.1146L22.6405 37.1911C22.8068 37.1925 22.9725 37.2567 23.0993 37.3834L23.675 37.9591L23.719 37.9407V37.1267C23.719 36.9555 23.7845 36.7997 23.8916 36.6829L24.4475 36.013H24.4481Z" fill="#EF5226"/>
<path fill-rule="evenodd" clip-rule="evenodd" d="M43.8553 35.2112C39.7714 35.2112 36.4609 38.5216 36.4609 42.6056C36.4609 46.6895 39.7714 50.0001 43.8553 50.0001C47.9393 50.0001 51.2498 46.6895 51.2498 42.6056C51.2498 38.5216 47.9394 35.2112 43.8553 35.2112ZM43.7385 42.1266L44.518 42.5986C44.8252 42.2172 45.2714 41.98 45.7597 41.9402C45.9411 41.9254 46.1184 41.9386 46.2874 41.9763L46.9632 40.9786C46.5096 40.3208 46.5504 39.4381 47.0721 38.8236C47.7079 38.0748 48.8261 37.9817 49.5753 38.6177C50.324 39.2535 50.4174 40.3716 49.7812 41.1209C49.4861 41.4684 49.0587 41.7034 48.5692 41.7433H48.5686C48.39 41.7578 48.2154 41.7452 48.0487 41.7089L47.3699 42.7111C47.5386 42.9578 47.6472 43.2502 47.6733 43.5689C47.753 44.5459 47.0206 45.4028 46.0446 45.4824C45.0842 45.5609 44.2357 44.853 44.135 43.8959L42.8989 43.1476C42.4916 43.3708 42.0167 43.4244 41.5724 43.3023L40.8027 44.3193C41.2136 44.9977 41.127 45.8736 40.576 46.4572C39.9052 47.1679 38.7769 47.2023 38.0656 46.5312C37.3521 45.8576 37.3189 44.7338 37.9916 44.021C38.4487 43.5366 39.128 43.3545 39.7566 43.5273L40.5264 42.5103C40.1153 41.8315 40.2064 40.9516 40.7531 40.3724C41.4236 39.6617 42.5524 39.6273 43.2633 40.2984C43.7637 40.7706 43.944 41.4753 43.7384 42.1266H43.7385Z" fill="#EF5226"/>
<path fill-rule="evenodd" clip-rule="evenodd" d="M38.9474 44.9193C38.7716 45.1055 38.7789 45.401 38.9649 45.5765C39.152 45.7531 39.4452 45.7464 39.6222 45.559C39.798 45.3726 39.7906 45.0773 39.6046 44.9017C39.4209 44.7282 39.1249 44.7312 38.9474 44.9193Z" fill="#EF5226"/>
<path fill-rule="evenodd" clip-rule="evenodd" d="M48.7281 39.6188C48.5342 39.4543 48.2379 39.4764 48.0729 39.6707C47.9084 39.8644 47.9306 40.161 48.1248 40.3258C48.3186 40.4903 48.6151 40.4683 48.78 40.274C48.9449 40.0798 48.9229 39.7841 48.7282 39.6188H48.7281Z" fill="#EF5226"/>
<path fill-rule="evenodd" clip-rule="evenodd" d="M45.8624 43.2493C45.6049 43.2703 45.4191 43.495 45.4401 43.7513C45.4611 44.0088 45.6857 44.1946 45.9421 44.1736C46.1996 44.1527 46.3854 43.928 46.3644 43.6717C46.3434 43.4143 46.1188 43.2285 45.8624 43.2494V43.2493Z" fill="#EF5226"/>
<path d="M26.354 12.8543C28.0662 12.4496 29.1261 10.7335 28.7214 9.02127C28.3167 7.30906 26.6005 6.24914 24.8883 6.65388C23.1761 7.05861 22.1162 8.77474 22.5209 10.487C22.9257 12.1992 24.6418 13.2591 26.354 12.8543Z" fill="#05A7CC"/>
<path fill-rule="evenodd" clip-rule="evenodd" d="M31.9245 24.0533H19.326C19.005 24.0533 18.7402 24.3182 18.7402 24.6391C18.7402 24.96 19.005 25.225 19.326 25.225H31.9245C32.2455 25.225 32.5103 24.9601 32.5103 24.6392C32.5103 24.3184 32.2454 24.0533 31.9245 24.0533Z" fill="#EF5226"/>
<path fill-rule="evenodd" clip-rule="evenodd" d="M28.5539 22.7392H31.2478C32.2203 22.2222 33.1131 21.5751 33.9031 20.8215C33.197 17.6963 30.7383 15.2245 27.6348 14.4891L28.5539 22.7393V22.7392Z" fill="#EF5226"/>
<path fill-rule="evenodd" clip-rule="evenodd" d="M24.0166 22.7392H27.2337L26.292 14.2848C25.8701 14.2555 25.3804 14.2555 24.9585 14.2848L24.0166 22.7392Z" fill="#EF5226"/>
<path fill-rule="evenodd" clip-rule="evenodd" d="M20.003 22.7392H22.6969L23.616 14.489C20.5141 15.2239 18.0543 17.6934 17.3477 20.8214C18.1378 21.5751 19.0306 22.2222 20.003 22.7392Z" fill="#EF5226"/>
<path fill-rule="evenodd" clip-rule="evenodd" d="M25.9692 37.0636H25.2811L25.0328 37.3628V38.4032C25.0328 38.7166 24.8133 38.9788 24.5196 39.0444C24.2975 39.113 24.0883 39.2002 23.883 39.3092C23.6296 39.4665 23.2923 39.4351 23.0723 39.2151L22.3349 38.4777L21.9509 38.4419L21.4614 38.9313L21.4971 39.3154L22.2346 40.0528C22.4579 40.276 22.4868 40.6202 22.3215 40.8747C22.2161 41.0765 22.1282 41.2921 22.0615 41.5098C21.9923 41.7986 21.7325 42.0133 21.4226 42.0133H20.3822L20.083 42.2616V42.9496L20.3822 43.198H21.4226C21.736 43.198 21.9982 43.4176 22.0639 43.7113C22.1306 43.9271 22.2163 44.136 22.3212 44.336C22.4869 44.5907 22.458 44.935 22.2346 45.1583L21.4972 45.8958L21.4615 46.2798L21.951 46.7692L22.335 46.7336L23.0646 46.004C23.2703 45.7907 23.5997 45.7405 23.8615 45.8892C24.0675 46.0002 24.2957 46.0977 24.5196 46.1669C24.8133 46.2325 25.0329 46.4946 25.0329 46.8082V47.8486L25.2813 48.1478H25.9693L26.2176 47.8486V46.8082C26.2176 46.4948 26.4369 46.2329 26.7304 46.1671C26.9464 46.1003 27.1554 46.0147 27.3556 45.9096C27.6103 45.7439 27.9546 45.7728 28.178 45.9961L28.9155 46.7336L29.2995 46.7692L29.789 46.2798L29.7533 45.8958L29.0158 45.1583C28.7955 44.9379 28.7644 44.6 28.9225 44.3465C29.031 44.1415 29.118 43.9329 29.1865 43.7112C29.2521 43.4175 29.5143 43.198 29.8277 43.198H30.8681L31.1673 42.9496V42.2616L30.8681 42.0133H29.8277C29.5144 42.0133 29.2524 41.794 29.1866 41.5005C29.1179 41.2782 29.0308 41.0691 28.9217 40.8635C28.7644 40.6101 28.7957 40.2728 29.0157 40.0528L29.7532 39.3154L29.7889 38.9313L29.2994 38.4419L28.9154 38.4777L28.1852 39.2079C27.9747 39.4246 27.646 39.4688 27.3879 39.3215C27.1671 39.2026 26.9468 39.1113 26.7067 39.0386C26.4251 38.9644 26.2175 38.708 26.2175 38.4032V37.3628L25.9692 37.0636ZM25.6251 39.9803C26.3501 39.9803 27.0065 40.2742 27.4817 40.7493C27.9568 41.2245 28.2507 41.8809 28.2507 42.6058C28.2507 43.3308 27.9568 43.9872 27.4817 44.4624C27.0065 44.9375 26.3501 45.2314 25.6251 45.2314C24.9002 45.2314 24.2438 44.9375 23.7686 44.4624C23.2935 43.9872 22.9996 43.3308 22.9996 42.6058C22.9996 41.8809 23.2935 41.2245 23.7686 40.7493C24.2438 40.2742 24.9003 39.9803 25.6251 39.9803Z" fill="#EF5226"/>
<path fill-rule="evenodd" clip-rule="evenodd" d="M26.5524 41.6782C26.3151 41.4409 25.9872 41.2942 25.6249 41.2942C25.2626 41.2942 24.9347 41.4409 24.6975 41.6782C24.4602 41.9155 24.3135 42.2434 24.3135 42.6056C24.3135 42.9678 24.4602 43.2958 24.6975 43.533C24.9348 43.7703 25.2627 43.917 25.6249 43.917C25.9871 43.917 26.3151 43.7703 26.5524 43.533C26.7897 43.2957 26.9364 42.9678 26.9364 42.6056C26.9364 42.2434 26.7897 41.9154 26.5524 41.6782Z" fill="#EF5226"/>
<path fill-rule="evenodd" clip-rule="evenodd" d="M16.3015 19.6878C17.297 16.6176 19.7815 14.2163 22.874 13.326C21.77 12.4722 21.1245 11.1641 21.1245 9.76426C21.1245 7.27899 23.1396 5.26396 25.6248 5.26396C28.1101 5.26396 30.1252 7.27899 30.1252 9.76426C30.1252 11.1641 29.4797 12.4722 28.3757 13.326C31.4687 14.2165 33.9527 16.6178 34.9482 19.6878C35.2836 19.274 35.592 18.8375 35.8708 18.3809C37.0214 16.4957 37.6178 14.3452 37.6178 12.1412C37.6178 5.51751 32.2485 0.148193 25.6248 0.148193C19.0012 0.148193 13.6318 5.51751 13.6318 12.1412C13.6318 14.8912 14.5607 17.5402 16.3014 19.6879L16.3015 19.6878Z" fill="#EF5226"/>
<path d="M43.0556 2.61665C43.7373 2.61665 44.2899 2.06404 44.2899 1.38236C44.2899 0.700682 43.7373 0.148071 43.0556 0.148071C42.3739 0.148071 41.8213 0.700682 41.8213 1.38236C41.8213 2.06404 42.3739 2.61665 43.0556 2.61665Z" fill="#EF5226"/>
<path d="M8.19425 2.4687C8.87593 2.4687 9.42854 1.91609 9.42854 1.23441C9.42854 0.552733 8.87593 0.00012207 8.19425 0.00012207C7.51257 0.00012207 6.95996 0.552733 6.95996 1.23441C6.95996 1.91609 7.51257 2.4687 8.19425 2.4687Z" fill="#EF5226"/>
<path fill-rule="evenodd" clip-rule="evenodd" d="M22.792 26.5391L23.3435 27.4943C23.4277 27.6401 23.5559 27.7107 23.7246 27.7107H27.526C27.6981 27.7107 27.8219 27.6419 27.9082 27.4924L28.4586 26.5391H22.792Z" fill="#EF5226"/>
<path d="M47.706 6.39937C48.3876 6.39937 48.9403 5.84676 48.9403 5.16508C48.9403 4.4834 48.3876 3.93079 47.706 3.93079C47.0243 3.93079 46.4717 4.4834 46.4717 5.16508C46.4717 5.84676 47.0243 6.39937 47.706 6.39937Z" fill="#EF5226"/>
<path d="M3.54484 6.39937C4.22652 6.39937 4.77913 5.84676 4.77913 5.16508C4.77913 4.4834 4.22652 3.93079 3.54484 3.93079C2.86316 3.93079 2.31055 4.4834 2.31055 5.16508C2.31055 5.84676 2.86316 6.39937 3.54484 6.39937Z" fill="#EF5226"/>
<path fill-rule="evenodd" clip-rule="evenodd" d="M42.3837 41.9105C42.5596 41.7241 42.5521 41.4288 42.3662 41.2532C42.1791 41.0767 41.8859 41.0833 41.7089 41.2708C41.5324 41.4578 41.539 41.7511 41.7265 41.928C41.9101 42.1017 42.2063 42.0985 42.3837 41.9105Z" fill="#EF5226"/>
<path fill-rule="evenodd" clip-rule="evenodd" d="M6.74079 33.9214V19.6668C6.74079 16.764 9.11346 14.3913 12.0163 14.3913H12.5082C12.5844 14.8372 12.6826 15.2757 12.8019 15.7055H12.0163C9.83878 15.7055 8.05483 17.4893 8.05483 19.6668V33.9218C7.83695 33.9055 7.61689 33.8972 7.39486 33.8972C7.1748 33.8972 6.9567 33.9053 6.74079 33.9214ZM26.2854 29.0248V33.9218C26.0675 33.9055 25.8475 33.8972 25.6254 33.8972C25.4054 33.8972 25.1873 33.9054 24.9714 33.9215V29.0249H26.2855L26.2854 29.0248ZM48.366 7.62709V8.30528C48.366 10.3419 46.7743 12.1288 44.6952 12.1288H38.9325C38.932 11.6853 38.9099 11.247 38.8671 10.8147H44.6952C46.0527 10.8147 47.0519 9.62118 47.0519 8.30528V7.62873C47.2606 7.68404 47.4799 7.7135 47.7059 7.7135C47.9342 7.7135 48.1555 7.6835 48.3659 7.62709H48.366ZM12.3183 12.1287H6.56142C4.48234 12.1287 2.89062 10.3419 2.89062 8.30517V7.62862C3.09934 7.68393 3.31864 7.71339 3.5447 7.71339C3.77295 7.71339 3.99421 7.68339 4.20467 7.62698V8.30517C4.20467 9.62107 5.20384 10.8146 6.56131 10.8146H12.3835C12.3408 11.2469 12.3186 11.6852 12.3183 12.1287ZM43.7157 3.84436C43.5052 3.90065 43.284 3.93077 43.0557 3.93077C42.8297 3.93077 42.6104 3.90131 42.4017 3.84599V4.21825C42.4017 5.40868 41.5416 6.57849 40.2854 6.57849H37.7175C37.914 7.00487 38.0887 7.44336 38.2399 7.89265H40.2854C42.2683 7.89265 43.7158 6.13357 43.7158 4.21825L43.7157 3.84436ZM13.011 7.89254C13.1622 7.44325 13.3369 7.00476 13.5334 6.57839H10.9714C9.71517 6.57839 8.85511 5.40858 8.85511 4.21815V3.69641C8.64464 3.75271 8.42338 3.78282 8.19514 3.78282C7.96907 3.78282 7.74978 3.75336 7.54106 3.69805V4.21825C7.54106 6.13346 8.98854 7.89265 10.9715 7.89265H13.0111L13.011 7.89254ZM38.7425 14.3913H39.2404C42.1432 14.3913 44.5159 16.764 44.5159 19.6668V33.9218C44.298 33.9055 44.0779 33.8972 43.8559 33.8972C43.6358 33.8972 43.4177 33.9054 43.2018 33.9215V19.6669C43.2018 17.4894 41.418 15.7056 39.2404 15.7056H38.4488C38.5682 15.2758 38.6665 14.8372 38.7425 14.3913Z" fill="#EF5226"/>
</svg>
