<svg width="50" height="50" viewBox="0 0 50 50" fill="none" xmlns="http://www.w3.org/2000/svg">
<path d="M25.2036 12.854C18.5062 12.854 13.0576 18.3026 13.0576 25C13.0576 31.6974 18.5062 37.146 25.2036 37.146C31.901 37.146 37.3496 31.6974 37.3496 25C37.3496 18.3026 31.901 12.854 25.2036 12.854ZM20.8132 32.6484L16.0183 27.815L18.1022 25.7476L19.3537 27.0091V20.7593H22.2893V27.0492L23.6096 25.7394L25.677 27.8232L20.8132 32.6484ZM32.4854 24.6731L31.234 23.4117V29.6613H28.2984V23.3716L26.9781 24.6814L24.9106 22.5976L29.7745 17.7724L34.5694 22.6058L32.4854 24.6731Z" fill="#05A7CC"/>
<path d="M50 30.6276V19.3724L45.2716 18.4545C44.9228 17.3767 44.4872 16.3268 43.97 15.317L46.671 11.3237L38.7203 3.35684L34.7218 6.04941C33.7005 5.52373 32.6375 5.08164 31.5456 4.72822L30.6276 0H19.3724L18.4545 4.72832C17.3767 5.07725 16.3267 5.51289 15.317 6.02998L11.3236 3.329L3.35693 11.2796L6.04951 15.2782C5.52383 16.2995 5.08174 17.3624 4.72832 18.4544L0 19.3724V30.6276L4.72842 31.5455C5.07725 32.6234 5.51279 33.6733 6.02988 34.6829L3.329 38.6764L11.2796 46.6431L15.2781 43.9504C16.2995 44.4762 17.3624 44.9183 18.4544 45.2716L19.3724 50H30.6276L31.5455 45.2716C32.6233 44.9227 33.6733 44.4872 34.6829 43.97L38.6763 46.671L46.6431 38.7203L43.9505 34.7218C44.4762 33.7005 44.9183 32.6374 45.2716 31.5456L50 30.6276ZM25.2033 40.0815C16.8874 40.0815 10.1219 33.316 10.1219 25C10.1219 16.684 16.8874 9.91846 25.2033 9.91846C33.5193 9.91846 40.2849 16.684 40.2849 25C40.2849 33.316 33.5193 40.0815 25.2033 40.0815Z" fill="#EF5226"/>
</svg>
