<svg width="61" height="50" viewBox="0 0 61 50" fill="none" xmlns="http://www.w3.org/2000/svg">
<path d="M56.1163 0H18.0376C15.823 0 14.0293 1.79369 14.0293 4.00829V8.85829C14.6807 8.66789 15.352 8.50758 16.0334 8.38734V6.01243H58.1205V38.0787C58.1205 39.181 57.2187 40.0829 56.1163 40.0829H39.6724C39.3216 40.7743 38.9308 41.4457 38.5099 42.087H56.1163C58.3309 42.087 60.1246 40.2933 60.1246 38.0787V4.00829C60.1246 1.79369 58.3309 0 56.1163 0ZM18.0376 4.00829C16.7212 3.98297 16.7214 2.02922 18.0376 2.00414C19.354 2.02941 19.3538 3.98322 18.0376 4.00829ZM22.0459 4.00829C20.7295 3.98297 20.7297 2.02922 22.0459 2.00414C23.3623 2.02941 23.3621 3.98322 22.0459 4.00829ZM26.0542 4.00829C24.7378 3.98297 24.738 2.02922 26.0542 2.00414C27.3705 2.02941 27.3704 3.98322 26.0542 4.00829Z" fill="#EF5226"/>
<path d="M37.0772 10.0208H29.2109C34.7223 12.5459 39.0112 17.2757 40.9452 23.0777C41.2074 22.7575 41.0441 14.6243 41.0855 14.029C41.0855 11.8144 39.2918 10.0208 37.0772 10.0208Z" fill="#EF5226"/>
<path d="M55.1139 13.027C56.4276 13.0056 56.4336 11.0454 55.1139 11.0228H44.0911C42.7773 11.0442 42.7713 13.0044 44.0911 13.027H55.1139Z" fill="#EF5226"/>
<path d="M44.0911 17.0353H55.1139C56.4276 17.0139 56.4336 15.0537 55.1139 15.0311H44.0911C42.7773 15.0525 42.7713 17.0127 44.0911 17.0353Z" fill="#EF5226"/>
<path d="M46.0947 19.0394C42.1321 19.1427 42.1302 24.9483 46.0947 25.0519H51.1051C52.7628 25.0519 54.1113 23.7034 54.1113 22.0456C54.1113 20.3879 52.7628 19.0394 51.1051 19.0394H46.0947Z" fill="#EF5226"/>
<path d="M42.0869 29.0601C42.0869 29.6139 42.5356 30.0621 43.089 30.0621H55.1139C55.6672 30.0621 56.1159 29.6139 56.1159 29.0601C56.1159 28.5062 55.6672 28.058 55.1139 28.058H43.089C42.5356 28.058 42.0869 28.5062 42.0869 29.0601Z" fill="#EF5226"/>
<path d="M54.1118 32.0665H44.0911C42.9842 32.0665 42.0869 32.9638 42.0869 34.0707V36.0748C42.0869 37.1817 42.9842 38.079 44.0911 38.079H54.1118C55.2186 38.079 56.1159 37.1817 56.1159 36.0748V34.0707C56.1159 32.9638 55.2186 32.0665 54.1118 32.0665Z" fill="#EF5226"/>
<path d="M20.0414 10.0208C8.99076 10.0208 0 19.0115 0 30.0622C1.10079 56.6499 38.9861 56.6421 40.083 30.062C40.0829 19.0115 31.0921 10.0208 20.0414 10.0208ZM20.0414 48.0995C10.0956 48.0995 2.00414 40.0076 2.00414 30.0622C2.99484 6.13325 37.0917 6.14016 38.0788 30.0623C38.0787 40.0076 29.9873 48.0995 20.0414 48.0995Z" fill="#EF5226"/>
<path d="M34.2143 35.1566C33.7074 34.9325 33.1169 35.1664 32.8952 35.6733C28.0737 46.827 12.0058 46.8235 7.18678 35.673C6.64855 34.4773 4.83896 35.2584 5.35101 36.4757C10.8579 49.2217 29.2267 49.2183 34.731 36.4755C34.9532 35.9688 34.7217 35.3777 34.2143 35.1566Z" fill="#EF5226"/>
<path d="M14.0293 39.0808C14.0293 39.6347 14.478 40.0829 15.0314 40.0829H25.0521C25.6055 40.0829 26.0542 39.6347 26.0542 39.0808C26.0542 38.5269 25.6055 38.0787 25.0521 38.0787H15.0314C14.478 38.0787 14.0293 38.5269 14.0293 39.0808Z" fill="#EF5226"/>
<path d="M20.0418 14.9792C11.7537 14.9792 5.01074 21.7222 5.01074 30.0103C5.01074 31.1171 5.90811 32.0145 7.01489 32.0145C8.12167 32.0145 9.01903 31.1171 9.01903 30.0103C9.01903 23.9323 13.9638 18.9875 20.0418 18.9875C26.1198 18.9875 31.0646 23.9323 31.0646 30.0103C31.0646 31.1171 31.962 32.0145 33.0688 32.0145C34.1755 32.0145 35.0729 31.1171 35.0729 30.0103C35.0729 21.7222 28.33 14.9792 20.0418 14.9792Z" fill="#EF5226"/>
<path d="M26.4037 26.2437L21.5313 30.42C19.6271 29.2364 16.9716 30.761 17.0353 33.0165C17.335 37.7454 24.2771 36.4454 22.8397 31.9374L27.7082 27.7644C28.6999 26.9078 27.4 25.3921 26.4037 26.2437Z" fill="#05A7CC"/>
</svg>
