<svg width="50" height="50" viewBox="0 0 50 50" fill="none" xmlns="http://www.w3.org/2000/svg">
<path d="M40.7797 21.5834H40.1666C39.5423 21.5838 38.9319 21.3991 38.4126 21.0524C37.8934 20.7058 37.4886 20.2129 37.2496 19.6362C37.0106 19.0594 36.9481 18.4247 37.07 17.8124C37.192 17.2001 37.4928 16.6377 37.9345 16.1965L38.375 15.75C38.4843 15.6374 38.545 15.4862 38.5439 15.3292C38.5427 15.1722 38.4799 15.0219 38.369 14.9108L34.7976 11.3334C34.685 11.2246 34.5345 11.1637 34.3779 11.1637C34.2214 11.1637 34.0709 11.2245 33.9583 11.3333C33.5697 11.889 33.0149 12.3073 32.3736 12.5279C31.7324 12.7484 31.0377 12.76 30.3894 12.5609C29.7412 12.3618 29.1728 11.9623 28.7659 11.4198C28.359 10.8773 28.1346 10.2198 28.125 9.54171V8.92866C28.1245 8.77092 28.0617 8.61977 27.9501 8.50823C27.8386 8.39669 27.6875 8.33383 27.5297 8.33337H22.4702C22.3125 8.33383 22.1613 8.39669 22.0498 8.50822C21.9383 8.61975 21.8754 8.77089 21.875 8.92862V9.54171C21.8754 10.166 21.6906 10.7764 21.344 11.2957C20.9974 11.8149 20.5045 12.2197 19.9277 12.4587C19.351 12.6976 18.7163 12.7602 18.104 12.6383C17.4917 12.5164 16.9293 12.2156 16.4881 11.7739C16.138 11.4235 15.7178 10.8747 15.2024 11.3334L11.6309 14.9108C11.52 15.0219 11.4572 15.1722 11.4561 15.3292C11.455 15.4862 11.5157 15.6373 11.625 15.75C12.2258 16.1721 12.6651 16.7861 12.8706 17.491C13.0761 18.1959 13.0356 18.9497 12.7558 19.6285C12.4759 20.3074 11.9734 20.8707 11.3308 21.226C10.6883 21.5813 9.94394 21.7073 9.22024 21.5834C9.06251 21.5838 8.91138 21.6467 8.79985 21.7582C8.68832 21.8698 8.62546 22.0209 8.625 22.1786V24.7084C8.62546 24.8661 8.68832 25.0172 8.79985 25.1288C8.91138 25.2403 9.06251 25.3032 9.22024 25.3036H15.6488C15.8065 25.3032 15.9577 25.2403 16.0692 25.1288C16.1807 25.0172 16.2436 24.8661 16.2441 24.7084C16.2441 22.3861 17.1666 20.159 18.8086 18.517C20.4507 16.8749 22.6778 15.9524 25 15.9524C27.3222 15.9524 29.5493 16.8749 31.1914 18.517C32.8335 20.159 33.756 22.3861 33.756 24.7084C33.7564 24.8661 33.8193 25.0172 33.9308 25.1288C34.0423 25.2403 34.1935 25.3032 34.3512 25.3036H40.7798C40.9375 25.3031 41.0886 25.2403 41.2001 25.1287C41.3117 25.0172 41.3745 24.8661 41.375 24.7084V22.1786C41.3745 22.0209 41.3116 21.8698 41.2001 21.7582C41.0886 21.6467 40.9375 21.5838 40.7797 21.5834Z" fill="#EF5226"/>
<path d="M25.0006 24.1127C24.9224 24.1126 24.845 24.128 24.7728 24.1579C24.7005 24.1878 24.6349 24.2317 24.5796 24.287C24.5243 24.3422 24.4805 24.4079 24.4506 24.4801C24.4207 24.5523 24.4053 24.6297 24.4053 24.7079V26.6428L13.8997 30.8452C13.5656 30.9627 13.2743 31.1777 13.0635 31.4624C12.8528 31.7472 12.7322 32.0886 12.7174 32.4425L12.7168 34.0582C12.7173 34.2157 12.7802 34.3666 12.8917 34.4778C13.0032 34.589 13.1543 34.6515 13.3117 34.6516C13.4692 34.6516 13.6203 34.5893 13.732 34.4782C13.8436 34.3671 13.9066 34.2163 13.9073 34.0588L13.9079 32.4437C13.9246 32.3283 13.9745 32.2203 14.0515 32.1327C14.1284 32.0451 14.2292 31.9818 14.3415 31.9505L24.4053 27.9249V34.0585C24.4053 34.2164 24.468 34.3678 24.5797 34.4794C24.6913 34.5911 24.8427 34.6538 25.0006 34.6538C25.1584 34.6538 25.3098 34.5911 25.4215 34.4794C25.5331 34.3678 25.5958 34.2164 25.5958 34.0585V27.9248L35.6596 31.9508C35.7719 31.982 35.8726 32.0451 35.9496 32.1325C36.0266 32.2199 36.0765 32.3278 36.0933 32.4431L36.0939 34.0588C36.0945 34.2163 36.1576 34.3671 36.2692 34.4782C36.3808 34.5893 36.5319 34.6516 36.6894 34.6515C36.8469 34.6515 36.9979 34.589 37.1094 34.4778C37.221 34.3665 37.2839 34.2157 37.2844 34.0582L37.2838 32.4419C37.2689 32.0881 37.1483 31.7469 36.9375 31.4623C36.7268 31.1777 36.4355 30.9628 36.1014 30.8454L25.5958 26.6428V24.7079C25.5958 24.6297 25.5805 24.5523 25.5506 24.4801C25.5207 24.4079 25.4768 24.3422 25.4215 24.287C25.3663 24.2317 25.3006 24.1878 25.2284 24.1579C25.1562 24.128 25.0788 24.1126 25.0006 24.1127Z" fill="#05A7CC"/>
<path d="M15.7851 35.8033H10.8334C10.1757 35.8033 9.64258 36.3365 9.64258 36.9942V40.4758C9.64258 41.1335 10.1757 41.6667 10.8334 41.6667H15.7851C16.4428 41.6667 16.9759 41.1335 16.9759 40.4758V36.9942C16.9759 36.3365 16.4428 35.8033 15.7851 35.8033Z" fill="#EF5226"/>
<path d="M22.5245 35.8035H27.4768C27.6332 35.8035 27.788 35.8343 27.9324 35.8941C28.0769 35.9539 28.2081 36.0416 28.3186 36.1521C28.4292 36.2627 28.5169 36.3939 28.5767 36.5383C28.6365 36.6828 28.6673 36.8376 28.6673 36.9939V40.4761C28.6673 40.6325 28.6365 40.7873 28.5767 40.9317C28.5169 41.0761 28.4292 41.2074 28.3186 41.3179C28.2081 41.4285 28.0768 41.5162 27.9324 41.576C27.7879 41.6358 27.6331 41.6666 27.4768 41.6666H22.5245C22.3681 41.6666 22.2133 41.6358 22.0689 41.576C21.9244 41.5162 21.7932 41.4285 21.6827 41.3179C21.5721 41.2074 21.4844 41.0762 21.4246 40.9317C21.3648 40.7873 21.334 40.6325 21.334 40.4762V36.994C21.334 36.8376 21.3648 36.6828 21.4246 36.5384C21.4844 36.3939 21.5721 36.2627 21.6827 36.1521C21.7932 36.0416 21.9245 35.9539 22.0689 35.8941C22.2134 35.8343 22.3682 35.8035 22.5245 35.8035Z" fill="#EF5226"/>
<path d="M39.1669 35.8033H34.2152C33.5576 35.8033 33.0244 36.3365 33.0244 36.9942V40.4758C33.0244 41.1335 33.5576 41.6667 34.2152 41.6667H39.1669C39.8246 41.6667 40.3577 41.1335 40.3577 40.4758V36.9942C40.3577 36.3365 39.8246 35.8033 39.1669 35.8033Z" fill="#EF5226"/>
<path d="M25 0C20.0555 0 15.222 1.46622 11.1108 4.21326C6.99953 6.96029 3.79521 10.8648 1.90302 15.4329C0.0108323 20.0011 -0.484251 25.0277 0.480379 29.8773C1.44501 34.7268 3.82603 39.1814 7.32234 42.6777C10.8187 46.174 15.2732 48.555 20.1228 49.5196C24.9723 50.4843 29.9989 49.9892 34.5671 48.097C39.1352 46.2048 43.0397 43.0005 45.7867 38.8892C48.5338 34.778 50 29.9445 50 25C49.9925 18.3719 47.3562 12.0174 42.6694 7.33061C37.9826 2.64383 31.6281 0.00749912 25 0ZM25 48.658C20.3209 48.658 15.7469 47.2705 11.8563 44.6709C7.96576 42.0714 4.93345 38.3765 3.14283 34.0535C1.35221 29.7306 0.883701 24.9738 1.79655 20.3845C2.7094 15.7953 4.96261 11.5799 8.27125 8.27124C11.5799 4.9626 15.7953 2.70939 20.3846 1.79654C24.9738 0.88369 29.7306 1.3522 34.0536 3.14282C38.3765 4.93344 42.0714 7.96575 44.6709 11.8563C47.2705 15.7468 48.658 20.3209 48.658 25C48.6509 31.2723 46.156 37.2856 41.7208 41.7208C37.2856 46.156 31.2723 48.6508 25 48.658Z" fill="#EF5226"/>
</svg>
