<svg width="51" height="50" viewBox="0 0 51 50" fill="none" xmlns="http://www.w3.org/2000/svg">
<path d="M49.7235 35.6733L45.9138 31.8635C45.3799 31.3296 44.5134 31.3296 43.9795 31.8635C43.4456 32.3975 43.4456 33.264 43.9795 33.798L45.4543 35.2729H37.9882C35.1228 35.2729 32.7913 32.9413 32.7913 30.0757V23.7855C33.5254 24.1499 34.358 24.2352 35.1567 24.0207C36.0265 23.7877 36.753 23.2308 37.2027 22.4507L38.0867 20.92C39.0156 19.3105 38.462 17.2458 36.8537 16.3169L35.8132 15.7162C35.8624 15.2983 35.8865 14.877 35.8865 14.4558C35.8865 14.0345 35.8613 13.6133 35.8132 13.1964L36.8537 12.5957C37.6327 12.146 38.1906 11.4195 38.4237 10.5497C38.6567 9.68095 38.5375 8.77281 38.0867 7.99269L37.2027 6.46199C36.2738 4.8536 34.2092 4.29997 32.6009 5.22889L31.5604 5.82958C30.8832 5.32299 30.1534 4.90065 29.3777 4.56803V3.36886C29.3777 1.51101 27.8668 0 26.009 0H24.241C22.3832 0 20.8723 1.51101 20.8723 3.36886V4.56803C20.0966 4.90065 19.3668 5.32299 18.6896 5.82958L17.6491 5.22889C16.0408 4.29997 13.9762 4.8536 13.0462 6.46199L12.1622 7.99269C11.7125 8.77172 11.5922 9.67985 11.8252 10.5497C12.0583 11.4195 12.6152 12.146 13.3952 12.5957L14.4357 13.1964C14.3865 13.6144 14.3624 14.0356 14.3624 14.4558C14.3624 14.8759 14.3876 15.2983 14.4357 15.7162L13.3952 16.3169C11.7858 17.2458 11.2333 19.3105 12.1622 20.92L13.0462 22.4507C13.4959 23.2297 14.2224 23.7877 15.0922 24.0207C15.892 24.2352 16.7224 24.1499 17.4576 23.7855V30.0757C17.4576 32.9413 15.1261 35.2729 12.2607 35.2729H4.79458L6.26942 33.798C6.80334 33.264 6.80334 32.3975 6.26942 31.8635C5.7355 31.3296 4.86898 31.3296 4.33507 31.8635L0.525438 35.6733C0.26942 35.9294 0.125 36.2773 0.125 36.6406C0.125 37.0038 0.26942 37.3507 0.525438 37.6078L4.33507 41.4176C4.60202 41.6845 4.95213 41.818 5.30224 41.818C5.65235 41.818 6.00246 41.6845 6.26942 41.4176C6.80334 40.8836 6.80334 40.0171 6.26942 39.4831L4.79458 38.0082H12.2607C16.6348 38.0082 20.1928 34.4501 20.1928 30.0757V24.024C20.4149 24.1389 20.6414 24.2461 20.8723 24.3457V25.5449C20.8723 27.2386 22.1283 28.6435 23.7574 28.8787V45.3302L22.2825 43.8553C21.7486 43.3214 20.8821 43.3214 20.3482 43.8553C19.8143 44.3892 19.8143 45.2558 20.3482 45.7898L24.1578 49.5995C24.4138 49.8556 24.7618 50 25.125 50C25.4882 50 25.8362 49.8556 26.0922 49.5995L29.9018 45.7898C30.4357 45.2558 30.4357 44.3892 29.9018 43.8553C29.3679 43.3214 28.5014 43.3214 27.9675 43.8553L26.4926 45.3302V28.8787C28.1217 28.6435 29.3777 27.2386 29.3777 25.5449V24.3457C29.6086 24.2472 29.834 24.1389 30.0572 24.024V30.0757C30.0572 34.4501 33.6152 38.0082 37.9893 38.0082H45.4554L43.9806 39.4831C43.4467 40.0171 43.4467 40.8836 43.9806 41.4176C44.2475 41.6845 44.5976 41.818 44.9478 41.818C45.2979 41.818 45.648 41.6845 45.9149 41.4176L49.7246 37.6078C49.9806 37.3517 50.125 37.0038 50.125 36.6406C50.125 36.2773 49.9806 35.9294 49.7246 35.6733H49.7235ZM27.52 14.4569C27.52 15.7786 26.4456 16.853 25.1239 16.853C23.8022 16.853 22.7278 15.7786 22.7278 14.4569C22.7278 13.1351 23.8022 12.0607 25.1239 12.0607C26.4456 12.0607 27.52 13.1351 27.52 14.4569Z" fill="#EF5226"/>
</svg>
