<svg width="43" height="50" viewBox="0 0 43 50" fill="none" xmlns="http://www.w3.org/2000/svg">
<path fill-rule="evenodd" clip-rule="evenodd" d="M1.73611e-05 8.72302C8.30674 8.77829 8.08634 8.46621 8.18805 9.28452C8.0811 10.0257 7.22117 9.6949 6.51338 9.76473C4.37038 9.76468 0.00222181 9.76468 1.73611e-05 9.76468V47.1035C1.73611e-05 48.7022 1.29794 50 2.89691 50H39.974C41.573 50 42.8709 48.7022 42.8709 47.1035V10.552H23.7261C23.6042 10.552 23.4854 10.5086 23.3906 10.4294L19.7323 7.34564H1.73611e-05V8.72302ZM13.4146 39.1131C13.4146 38.1653 12.6448 37.3958 11.6969 37.3958H5.03127C4.08334 37.3958 3.31356 38.1653 3.31356 39.1131V45.2098C3.31356 46.1576 4.08334 46.9271 5.03127 46.9271H11.6969C12.6448 46.9271 13.4146 46.1576 13.4146 45.2098V39.1131ZM39.4031 34.9985C39.1535 32.7188 37.2672 33.3794 34.8009 33.2812C31.715 33.4049 29.7564 32.6827 29.3197 34.7449C29.279 46.2331 29.1823 45.6327 29.6967 46.3057C30.4216 47.1085 31.1037 46.892 31.5313 46.9271C33.0842 46.9271 37.6283 46.9271 37.6849 46.9271C39.7731 46.7467 39.3649 44.8257 39.4031 44.0984C39.4031 41.451 39.4031 35.0015 39.4031 34.9985ZM26.4084 30.6235C26.4084 29.6757 25.6396 28.9062 24.6917 28.9062H18.025C17.0771 28.9062 16.3073 29.6757 16.3073 30.6235V45.2098C16.3073 46.1576 17.0771 46.9271 18.025 46.9271H24.6917C25.6396 46.9271 26.4084 46.1576 26.4084 45.2098V30.6235ZM12.3729 39.1131V45.2098C12.3729 45.5827 12.0698 45.8854 11.6969 45.8854H5.03127C4.65835 45.8854 4.35523 45.5827 4.35523 45.2098V39.1131C4.35523 38.7402 4.65835 38.4375 5.03127 38.4375H11.6969C12.0698 38.4375 12.3729 38.7402 12.3729 39.1131ZM38.3615 34.9985C38.3601 34.9995 38.3625 42.2873 38.3615 44.5499C38.4192 46.1938 38.0613 45.8448 36.0306 45.8854C33.6287 45.8419 30.6602 46.011 30.6006 45.7405C30.1909 45.3539 30.3895 45.0453 30.3427 45.001C30.3427 43.61 30.3427 35.7353 30.3427 35.0462C30.3952 33.9697 31.432 34.41 33.4618 34.3229C37.7686 34.3735 38.2524 34.0531 38.3615 34.9985ZM25.3667 30.6235C25.365 30.6258 25.3679 45.0612 25.3667 45.2087C25.2747 46.2136 24.2217 45.804 23.0369 45.8855C18.9396 45.8504 17.7167 46.0128 17.5472 45.6875C17.2133 45.2756 17.3943 45.0679 17.3489 45.0329C17.349 43.4 17.349 31.0335 17.349 30.6333C17.4162 29.5788 18.6278 30.0455 20.5165 29.9479C24.7676 29.9985 25.2589 29.6782 25.3667 30.6235ZM13.4146 15.5714C13.4146 14.6236 12.6448 13.8542 11.6969 13.8542H5.03127C4.08334 13.8542 3.31356 14.6236 3.31356 15.5714V34.4285C3.31356 35.3763 4.08334 36.1458 5.03127 36.1458H11.6969C12.6448 36.1458 13.4146 35.3764 13.4146 34.4285V15.5714ZM12.3729 15.5714C12.3728 15.5695 12.373 34.4256 12.3729 34.4285C12.2876 35.4527 11.1202 35.0138 9.86419 35.1042C5.11294 35.0729 4.7395 35.2479 4.47648 34.8144C4.35353 34.6678 4.34951 34.3585 4.35523 34.423C4.35531 34.1044 4.35516 20.4388 4.35523 16.5768C4.33379 14.4935 4.29024 14.951 7.42565 14.8958C11.7878 14.9466 12.2629 14.6256 12.3729 15.5714ZM39.4031 15.5714C39.4031 14.6236 38.6334 13.8542 37.6854 13.8542H31.0188C30.0708 13.8542 29.3011 14.6236 29.3011 15.5714V30.1577C29.3011 31.1055 30.0708 31.875 31.0188 31.875H37.6854C38.6334 31.875 39.4031 31.1055 39.4031 30.1577V15.5714ZM38.3615 15.5714C38.3598 15.5737 38.3627 29.8644 38.3615 30.1534C38.2615 31.1388 37.3211 30.7611 36.2032 30.8334C31.9078 30.7983 30.7124 30.9607 30.5409 30.6354C30.1996 30.1845 30.393 30.0847 30.3427 30.052C30.3427 28.9764 30.3427 20.023 30.3427 16.7552C30.329 14.5129 30.2032 14.9401 33.1751 14.8958C37.814 14.9473 38.247 14.6237 38.3615 15.5714ZM26.4084 16.855C26.5958 13.4205 25.3039 13.8717 22.2486 13.8542C18.4752 13.8834 17.5388 13.7002 16.9916 14.2001C15.8913 14.942 16.4242 16.8446 16.3072 19.751C16.3408 25.6697 16.1282 26.0372 16.7289 26.7008C17.3175 27.3833 18.1197 27.2867 18.2493 27.2917C19.759 27.258 25.0882 27.3787 25.2265 27.2067C26.647 26.6392 26.3806 25.501 26.4084 24.7807C26.4084 23.9349 26.4084 22.5539 26.4084 21.3074C26.3164 19.5234 26.8037 17.6498 25.5925 18.1692C25.2344 18.48 25.4078 18.7061 25.3666 18.7577C25.3667 19.7412 25.3667 24.9519 25.3667 25.5238C25.3134 26.4417 24.5961 26.2239 23.6873 26.25C22.4039 26.25 20.2048 26.25 18.9565 26.25C16.6559 26.2956 17.5027 26.4418 17.3489 19.2371C17.4465 14.1481 16.6476 14.9689 20.1344 14.8958C22.4252 14.9293 24.9423 14.8039 25.0439 14.995C25.5725 15.2495 25.3073 16.3675 25.3667 16.8541C25.3987 17.5581 26.3834 17.5303 26.4084 16.855ZM1.73611e-05 6.30396H19.9219C20.0448 6.30396 20.1646 6.3474 20.2583 6.42656L23.9167 9.51031H42.8708V2.89646C42.8708 1.29781 41.5729 0 39.974 0H2.89689C1.29792 0 0 1.29781 0 2.89646L1.73611e-05 6.30396ZM38.3677 2.92532C35.6052 3.0624 35.6944 6.92384 38.3677 7.01906C41.1274 6.88208 41.0383 3.02044 38.3677 2.92532ZM32.5063 2.92532C29.7452 3.06276 29.8343 6.92348 32.5063 7.01906C35.2674 6.88244 35.1783 3.02007 32.5063 2.92532ZM26.6458 2.92532C23.8848 3.06276 23.974 6.9235 26.6458 7.01906C29.407 6.88245 29.3178 3.02005 26.6458 2.92532ZM38.3677 3.96699C39.7425 4.04428 39.6557 5.93982 38.3677 5.9774C36.99 5.89995 37.0771 4.00468 38.3677 3.96699ZM32.5063 3.96699C33.8825 4.04395 33.7956 5.94016 32.5063 5.9774C31.1301 5.89961 31.217 4.00501 32.5063 3.96699ZM26.6458 3.96699C28.0221 4.04395 27.9352 5.94016 26.6458 5.9774C25.2697 5.89963 25.3567 4.005 26.6458 3.96699Z" fill="#EF5226"/>
</svg>
