<svg width="51" height="50" viewBox="0 0 51 50" fill="none" xmlns="http://www.w3.org/2000/svg">
<path d="M44.6208 50.0001H7.12105C3.6742 50.0001 0.871094 47.1969 0.871094 43.7501V42.1876C0.871094 41.3236 1.56953 40.6251 2.43358 40.6251H49.3082C50.1723 40.6251 50.8707 41.3236 50.8707 42.1876V43.7501C50.8707 47.1969 48.0676 50.0001 44.6208 50.0001Z" fill="#EF5226"/>
<path d="M46.1836 43.75C45.3195 43.75 44.6211 43.0516 44.6211 42.1875V20.3127C44.6211 19.4502 43.9211 18.7502 43.0586 18.7502C42.1945 18.7502 41.4961 18.0518 41.4961 17.1877C41.4961 16.3237 42.1945 15.6252 43.0586 15.6252C45.6429 15.6252 47.746 17.7284 47.746 20.3127V42.1875C47.746 43.0516 47.0476 43.75 46.1836 43.75Z" fill="#EF5226"/>
<path d="M5.55858 43.75C4.69453 43.75 3.99609 43.0516 3.99609 42.1875V20.3127C3.99609 17.7284 6.0992 15.6252 8.68356 15.6252C9.54761 15.6252 10.246 16.3237 10.246 17.1877C10.246 18.0518 9.54761 18.7502 8.68356 18.7502C7.82106 18.7502 7.12107 19.4502 7.12107 20.3127V42.1875C7.12107 43.0516 6.42264 43.75 5.55858 43.75Z" fill="#EF5226"/>
<path d="M25.8711 34.3751C25.007 34.3751 24.3086 33.6767 24.3086 32.8126V3.12535C24.3086 2.2613 25.007 1.56287 25.8711 1.56287C26.7351 1.56287 27.4336 2.2613 27.4336 3.12535V32.8126C27.4336 33.6767 26.7351 34.3751 25.8711 34.3751Z" fill="#EF5226"/>
<path d="M36.8086 28.1252C35.9445 28.1252 35.2461 27.4268 35.2461 26.5627V9.37533C35.2461 6.79098 37.3492 4.68787 39.9336 4.68787H49.3085C50.1725 4.68787 50.871 5.3863 50.871 6.25035C50.871 7.11441 50.1725 7.81284 49.3085 7.81284H39.9336C39.0711 7.81284 38.3711 8.51284 38.3711 9.37533V26.5627C38.3711 27.4268 37.6726 28.1252 36.8086 28.1252Z" fill="#EF5226"/>
<path d="M14.9335 28.1252C14.0694 28.1252 13.371 27.4268 13.371 26.5627V9.37533C13.371 8.51284 12.671 7.81284 11.8085 7.81284H2.43358C1.56953 7.81284 0.871094 7.11441 0.871094 6.25035C0.871094 5.3863 1.56953 4.68787 2.43358 4.68787H11.8085C14.3929 4.68787 16.496 6.79098 16.496 9.37533V26.5627C16.496 27.4268 15.7975 28.1252 14.9335 28.1252Z" fill="#EF5226"/>
<path d="M44.6215 12.5003C44.2215 12.5003 43.8215 12.3472 43.5168 12.0425C42.9059 11.4316 42.9059 10.4441 43.5168 9.83313L47.0996 6.25034L43.5168 2.66756C42.9059 2.05662 42.9059 1.06913 43.5168 0.4582C44.1277 -0.152733 45.1152 -0.152733 45.7262 0.4582L50.4136 5.14566C51.0246 5.7566 51.0246 6.74409 50.4136 7.35502L45.7262 12.0425C45.4215 12.3472 45.0215 12.5003 44.6215 12.5003Z" fill="#EF5226"/>
<path d="M7.12144 12.5003C6.72144 12.5003 6.32144 12.3472 6.01676 12.0425L1.32929 7.35502C0.718361 6.74409 0.718361 5.7566 1.32929 5.14566L6.01676 0.4582C6.62769 -0.152733 7.61518 -0.152733 8.22612 0.4582C8.83705 1.06913 8.83705 2.05662 8.22612 2.66756L4.64333 6.25034L8.22612 9.83313C8.83705 10.4441 8.83705 11.4316 8.22612 12.0425C7.92143 12.3472 7.52143 12.5003 7.12144 12.5003Z" fill="#EF5226"/>
<path d="M30.5589 7.81283C30.1589 7.81283 29.7589 7.65971 29.4542 7.35502L25.8714 3.77224L22.2887 7.35502C21.6777 7.96595 20.6902 7.96595 20.0793 7.35502C19.4684 6.74409 19.4684 5.7566 20.0793 5.14566L24.7668 0.4582C25.3777 -0.152733 26.3652 -0.152733 26.9761 0.4582L31.6636 5.14566C32.2745 5.7566 32.2745 6.74409 31.6636 7.35502C31.3589 7.65971 30.9589 7.81283 30.5589 7.81283Z" fill="#EF5226"/>
</svg>
