<svg width="45" height="50" viewBox="0 0 45 50" fill="none" xmlns="http://www.w3.org/2000/svg">
<path d="M42.0272 41.4294V34.685L36.4277 29.0856L37.6567 27.8566L35.1333 25.3333C35.9885 23.9764 36.624 22.4675 36.9898 20.8557H40.5566V14.4385H36.9897C36.624 12.8269 35.9884 11.3178 35.1332 9.96088L37.6566 7.43765L33.119 2.9L30.5957 5.42333C29.2387 4.56824 27.7298 3.93275 26.1181 3.56696V0H19.7009V3.56696C18.0894 3.93265 16.5802 4.56824 15.2233 5.42333L12.7001 2.9L8.16241 7.43765L10.6857 9.96088C9.83064 11.3178 9.19515 12.8269 8.82937 14.4385H5.2625V20.8557H8.82946C9.19515 22.4675 9.83074 23.9764 10.6858 25.3333L8.1625 27.8566L9.39182 29.0859L3.79192 34.6849V41.4294C-0.813771 43.1338 0.290053 49.9061 5.2626 50C10.2358 49.9058 11.3381 43.1329 6.73309 41.4294V35.9033L11.4715 31.1657L12.7001 32.3942L15.2233 29.8709C16.5802 30.726 18.0893 31.3615 19.7009 31.7273V35.2941H21.439V41.4294C16.8333 43.1338 17.9371 49.9061 22.9097 50C27.8829 49.9058 28.9851 43.1329 24.3801 41.4294V35.2941H26.1182V31.7272C27.7298 31.3615 29.2388 30.7259 30.5958 29.8708L33.1191 32.3941L34.348 31.1652L39.086 35.9032V41.4294C34.4804 43.1338 35.5842 49.9062 40.5567 50C45.53 49.9058 46.6321 43.1329 42.0272 41.4294ZM22.9096 25C18.8486 25 15.5566 21.7079 15.5566 17.6471C15.917 7.90402 29.9036 7.90667 30.2625 17.6472C30.2625 21.7079 26.9705 25 22.9096 25Z" fill="#EF5226"/>
</svg>
