<svg width="51" height="50" viewBox="0 0 51 50" fill="none" xmlns="http://www.w3.org/2000/svg">
<path fill-rule="evenodd" clip-rule="evenodd" d="M41.1638 38.5948L43.3255 40.9592C43.5313 41.1825 43.5228 41.5255 43.3083 41.7391L39.5543 45.4785C39.3441 45.6933 38.9978 45.7008 38.7737 45.4967L36.4007 43.3417C35.8003 42.7979 34.9575 42.7007 34.2476 43.0928C33.1121 43.7221 31.9058 44.221 30.6598 44.5757C29.8835 44.798 29.3527 45.4614 29.3173 46.267L29.1683 49.4605C29.1554 49.7628 28.9056 50 28.6021 50H23.2912C22.9888 50 22.7389 49.7628 22.725 49.4605L22.576 46.267C22.5406 45.4614 22.0098 44.798 21.2335 44.5757C19.9875 44.221 18.778 43.7221 17.6456 43.0928C16.9347 42.7007 16.093 42.799 15.4925 43.3417L13.1196 45.4967C12.8955 45.7008 12.5491 45.6933 12.3347 45.4785L8.58496 41.7391C8.3705 41.5255 8.36085 41.1825 8.5678 40.9592L10.7295 38.5938C11.2731 37.9976 11.3739 37.1568 10.9793 36.4516C10.3478 35.3191 9.84809 34.1161 9.48781 32.8757C9.26799 32.1 8.60211 31.5755 7.7904 31.5381L4.58431 31.3896C4.28193 31.3757 4.04496 31.1278 4.04496 30.8244V28.8211H13.1453C13.4831 35.5649 19.0921 40.9485 25.9472 40.9485C32.7925 40.9485 38.407 35.5649 38.7447 28.8211H47.8451V30.8244C47.8451 31.1267 47.6081 31.3757 47.3057 31.3896L44.0996 31.5381C43.2879 31.5755 42.6221 32.1011 42.4022 32.8757C42.043 34.1172 41.5423 35.3213 40.9107 36.4527C40.5236 37.1578 40.6201 37.9987 41.1638 38.5948ZM25.9504 36.254C30.1998 36.254 33.6954 32.9751 34.0246 28.8222H17.8719C18.2011 32.974 21.6967 36.254 25.9504 36.254ZM2.84295 27.5401H49.0535C50.1022 27.5401 50.9482 26.6939 50.9482 25.6533C50.9482 24.6127 50.1022 23.7665 49.0535 23.7665H2.84295C1.79534 23.7665 0.948242 24.6127 0.948242 25.6533C0.948242 26.6929 1.79426 27.5401 2.84295 27.5401ZM19.4814 22.4834H32.414C33.318 22.4834 34.0803 22.1426 34.6819 21.4727C35.2867 20.8017 35.5419 20.0079 35.4411 19.1137C34.9714 14.9779 31.4672 11.8592 27.2886 11.8592H24.6079C20.4282 11.8592 16.924 14.9779 16.4554 19.1137C16.3546 20.0079 16.6088 20.8017 17.2146 21.4727C17.8151 22.1436 18.5785 22.4834 19.4814 22.4834ZM15.1794 18.9705C15.3939 17.0623 16.1702 15.3433 17.3283 13.9629C16.3986 13.5355 15.3853 13.3123 14.3548 13.3123H12.0044C8.37372 13.3123 5.32954 16.0206 4.92637 19.6126C4.83844 20.3744 5.05397 21.0507 5.5708 21.6223C6.07906 22.1939 6.73314 22.4845 7.50089 22.4845H16.3997C16.3514 22.4342 16.3032 22.3808 16.2549 22.3274C15.4078 21.3851 15.0347 20.2248 15.1794 18.9705ZM34.5682 13.9629C35.7263 15.3433 36.5026 17.0623 36.7171 18.9716C36.8575 20.2259 36.4887 21.3861 35.6426 22.3274C35.5944 22.3808 35.5461 22.4332 35.4979 22.4845H44.3967C45.1644 22.4845 45.8174 22.1939 46.3268 21.6223C46.8447 21.0507 47.0591 20.3744 46.9712 19.6126C46.568 16.0206 43.5238 13.3123 39.8931 13.3123H37.5427C36.5112 13.3123 35.4979 13.5355 34.5682 13.9629ZM34.3795 7.22451C34.3795 9.60918 36.3225 11.5483 38.7168 11.5483C41.1112 11.5483 43.0585 9.60811 43.0585 7.22451C43.0585 4.83985 41.1112 2.9007 38.7168 2.9007C36.3225 2.89964 34.3795 4.83985 34.3795 7.22451ZM25.9504 10.0291C28.7222 10.0291 30.9804 7.77901 30.9804 5.014C30.9804 2.24898 28.7222 0 25.9504 0C23.1743 0 20.9161 2.25005 20.9161 5.014C20.9161 7.77901 23.1743 10.0291 25.9504 10.0291ZM13.1796 11.5483C15.574 11.5483 17.517 9.60811 17.517 7.22451C17.517 4.83985 15.574 2.9007 13.1796 2.9007C10.7853 2.9007 8.83801 4.84092 8.83801 7.22451C8.83801 9.60811 10.7853 11.5483 13.1796 11.5483Z" fill="#EF5226"/>
</svg>
