<svg width="50" height="50" viewBox="0 0 50 50" fill="none" xmlns="http://www.w3.org/2000/svg">
<path d="M15.6028 36.3861H13.1317V34.3995H15.6028V36.3861ZM15.6028 18.4221H13.1317V20.4119H15.6028V18.4221ZM15.6028 26.4108H13.1317V28.4005H15.6028V26.4108ZM30.4423 28.4005V26.4108H27.9713V28.4005H30.4423ZM23.0226 26.4108H20.5515V28.4005H23.0226V26.4108ZM23.0226 34.3995H20.5515V36.3861H23.0226V34.3995ZM30.4423 18.4221H27.9713V20.4119H30.4423V18.4221ZM23.0226 18.4221H20.5515V20.4119H23.0226V18.4221ZM8.18311 18.4221H5.71193V20.4119H8.18311V18.4221ZM43.5711 5.4804C43.5711 4.61003 42.8622 3.90119 41.9908 3.90119H36.0852V1.90224C36.0852 0.836411 34.9741 0 33.5553 0C32.1365 0 31.0233 0.836411 31.0233 1.90224V3.90119H32.6695V1.93414C32.7374 1.83949 33.0532 1.64607 33.5553 1.64607C34.0574 1.64607 34.3712 1.83846 34.4391 1.93311V3.90119H32.6695V6.21599C32.7394 6.31166 33.0553 6.50302 33.5553 6.50302C34.01 6.50302 34.3784 6.87133 34.3784 7.32606C34.3784 7.78078 34.01 8.14909 33.5553 8.14909C32.1355 8.14909 31.0233 7.31474 31.0233 6.24994V3.90119H24.3173V1.90224C24.3173 0.836411 23.2072 0 21.7884 0C20.3696 0 19.2564 0.836411 19.2564 1.90224V3.90119H20.9026V1.93414C20.9705 1.83949 21.2863 1.64607 21.7884 1.64607C22.2905 1.64607 22.6043 1.83846 22.6712 1.93311V3.90119H20.9026V6.21599C20.9725 6.31166 21.2884 6.50302 21.7884 6.50302C22.2432 6.50302 22.6115 6.87133 22.6115 7.32606C22.6115 7.78078 22.2432 8.14909 21.7884 8.14909C20.3686 8.14909 19.2564 7.31474 19.2564 6.24994V3.90119H12.5474V1.90224C12.5474 0.836411 11.4362 0 10.0185 0C8.60072 0 7.48648 0.836411 7.48648 1.90224V3.90119H9.13263V1.93414C9.20053 1.83949 9.51536 1.64607 10.0185 1.64607C10.5216 1.64607 10.8343 1.83846 10.9012 1.93311V3.90119H9.13263V6.21599C9.20156 6.31166 9.51844 6.50302 10.0185 6.50302C10.4732 6.50302 10.8415 6.87133 10.8415 7.32606C10.8415 7.78078 10.4732 8.14909 10.0185 8.14909C8.59866 8.14909 7.48648 7.31474 7.48648 6.24994V3.90119H1.58287C0.710416 3.90119 0.000514335 4.61003 0.000514335 5.4804V10.753H43.571L43.5711 5.4804ZM37.8621 18.4221H35.3879V20.4119H37.8621V18.4221ZM8.183 34.3995H5.71183V36.3861H8.183V34.3995ZM8.183 26.4108H5.71183V28.4005H8.183V26.4108ZM49.6261 36.2197C49.2703 34.8913 48.6773 33.657 47.864 32.5508C47.5947 32.1846 47.0798 32.1058 46.7133 32.3753C46.347 32.6445 46.2685 33.1596 46.5378 33.5259C47.2292 34.4664 47.7334 35.5161 48.036 36.6458C49.3625 41.5963 46.4118 46.7052 41.4586 48.0344C39.1308 48.6574 36.6966 48.3575 34.6124 47.2211C34.9059 47.0328 35.0579 46.6704 34.963 46.3157C34.8454 45.8766 34.3944 45.6157 33.955 45.7335L32.3102 46.1738C32.0994 46.2303 31.9195 46.3681 31.8104 46.5572C31.7012 46.7462 31.6716 46.9709 31.7281 47.1817L32.1684 48.8265C32.2669 49.1942 32.5994 49.4368 32.963 49.4368C33.0335 49.4368 33.1051 49.4278 33.1764 49.4086C33.5337 49.313 33.7728 48.9961 33.7861 48.6448C35.4074 49.5377 37.2105 50.0001 39.0403 50C39.9887 50 40.9442 49.8761 41.8848 49.6243C47.7149 48.0599 51.1875 42.0465 49.6261 36.2197ZM31.5691 44.5718C30.8774 43.6378 30.373 42.5899 30.0695 41.457C29.4268 39.0585 29.7569 36.5528 30.9991 34.4015C32.2416 32.25 34.2474 30.7111 36.6467 30.0685C38.9615 29.4494 41.4084 29.7493 43.4946 30.8827C43.202 31.0713 43.0507 31.4333 43.1457 31.7875C43.2442 32.1551 43.5767 32.3975 43.9401 32.3975C44.0107 32.3975 44.0824 32.3884 44.1538 32.3692L45.7956 31.9289C46.2347 31.8111 46.4951 31.3601 46.3775 30.9211L45.9371 29.2763C45.8195 28.8373 45.3688 28.5765 44.9292 28.6941C44.5718 28.7898 44.3327 29.1066 44.3195 29.4578C41.8559 28.1063 38.9599 27.7458 36.2211 28.4783C33.3968 29.2347 31.036 31.0459 29.5737 33.5783C28.1115 36.1103 27.7229 39.0597 28.4795 41.8828C28.8367 43.2161 29.4312 44.4504 30.2462 45.5511C30.4077 45.7691 30.6564 45.8844 30.9084 45.8844C31.0786 45.8844 31.2503 45.8318 31.3976 45.7228C31.763 45.4523 31.8396 44.9371 31.5691 44.5718ZM0.000102828 40.8324V12.3992H43.5709V27.3012C42.1314 26.7484 40.5951 26.4602 39.0502 26.4602C37.9526 26.4602 36.8576 26.6043 35.7953 26.8884C34.4576 27.2466 33.2105 27.811 32.0885 28.5539V25.5877C32.0885 25.1332 31.7199 24.7647 31.2654 24.7647H27.1482C26.6936 24.7647 26.3251 25.1332 26.3251 25.5877V29.2235C26.3251 29.678 26.6936 30.0465 27.1482 30.0465H30.2438C29.4354 30.8397 28.7299 31.7477 28.1481 32.7552C26.4661 35.6682 26.0189 39.061 26.8893 42.3089C26.8986 42.3435 26.9087 42.3778 26.9182 42.4121H1.58308C0.71021 42.4121 0.000102828 41.7036 0.000102828 40.8324ZM33.7417 21.235C33.7417 21.6895 34.1103 22.058 34.5648 22.058H38.6852C39.1398 22.058 39.5083 21.6895 39.5083 21.235V17.5991C39.5083 17.1446 39.1398 16.7761 38.6852 16.7761H34.5648C34.1103 16.7761 33.7417 17.1445 33.7417 17.5991V21.235ZM26.3251 21.235C26.3251 21.6895 26.6936 22.058 27.1482 22.058H31.2654C31.7199 22.058 32.0885 21.6895 32.0885 21.235V17.5991C32.0885 17.1446 31.7199 16.7761 31.2654 16.7761H27.1482C26.6936 16.7761 26.3251 17.1445 26.3251 17.5991V21.235ZM18.9053 21.235C18.9053 21.6895 19.2738 22.058 19.7284 22.058H23.8456C24.3001 22.058 24.6687 21.6895 24.6687 21.235V17.5991C24.6687 17.1446 24.3001 16.7761 23.8456 16.7761H19.7284C19.2738 16.7761 18.9053 17.1445 18.9053 17.5991V21.235ZM18.9053 29.2237C18.9053 29.6782 19.2738 30.0467 19.7284 30.0467H23.8456C24.3001 30.0467 24.6687 29.6782 24.6687 29.2237V25.5879C24.6687 25.1334 24.3001 24.7649 23.8456 24.7649H19.7284C19.2738 24.7649 18.9053 25.1334 18.9053 25.5879V29.2237ZM18.9053 37.2092C18.9053 37.6637 19.2738 38.0322 19.7284 38.0322H23.8456C24.3001 38.0322 24.6687 37.6638 24.6687 37.2092V33.5765C24.6687 33.122 24.3001 32.7535 23.8456 32.7535H19.7284C19.2738 32.7535 18.9053 33.122 18.9053 33.5765V37.2092ZM11.4855 21.235C11.4855 21.6895 11.854 22.058 12.3086 22.058H16.4258C16.8803 22.058 17.2489 21.6895 17.2489 21.235V17.5991C17.2489 17.1446 16.8803 16.7761 16.4258 16.7761H12.3086C11.854 16.7761 11.4855 17.1445 11.4855 17.5991V21.235ZM11.4855 29.2237C11.4855 29.6782 11.854 30.0467 12.3086 30.0467H16.4258C16.8803 30.0467 17.2489 29.6782 17.2489 29.2237V25.5879C17.2489 25.1334 16.8803 24.7649 16.4258 24.7649H12.3086C11.854 24.7649 11.4855 25.1334 11.4855 25.5879V29.2237ZM11.4855 37.2092C11.4855 37.6637 11.854 38.0322 12.3086 38.0322H16.4258C16.8803 38.0322 17.2489 37.6638 17.2489 37.2092V33.5765C17.2489 33.122 16.8803 32.7535 16.4258 32.7535H12.3086C11.854 32.7535 11.4855 33.122 11.4855 33.5765V37.2092ZM4.06578 21.235C4.06578 21.6895 4.43431 22.058 4.88886 22.058H9.00608C9.46062 22.058 9.82915 21.6895 9.82915 21.235V17.5991C9.82915 17.1446 9.46062 16.7761 9.00608 16.7761H4.88886C4.43431 16.7761 4.06578 17.1445 4.06578 17.5991V21.235ZM4.06578 29.2237C4.06578 29.6782 4.43431 30.0467 4.88886 30.0467H9.00608C9.46062 30.0467 9.82915 29.6782 9.82915 29.2237V25.5879C9.82915 25.1334 9.46062 24.7649 9.00608 24.7649H4.88886C4.43431 24.7649 4.06578 25.1334 4.06578 25.5879V29.2237ZM4.06578 37.2092C4.06578 37.6637 4.43431 38.0322 4.88886 38.0322H9.00608C9.46062 38.0322 9.82915 37.6638 9.82915 37.2092V33.5765C9.82915 33.122 9.46062 32.7535 9.00608 32.7535H4.88886C4.43431 32.7535 4.06578 33.122 4.06578 33.5765V37.2092ZM1.58308 44.0584C1.00827 44.0584 0.468021 43.9076 0 43.6435V44.2449C0 45.1161 0.710107 45.8247 1.58308 45.8247H28.4369C28.0765 45.2614 27.7634 44.6715 27.4981 44.0583L1.58308 44.0584ZM39.0527 36.7396C37.7795 36.7396 36.7437 37.7768 36.7437 39.0515C36.7437 40.3261 37.7795 41.3633 39.0527 41.3633C40.3259 41.3633 41.3646 40.3261 41.3646 39.0515C41.3646 37.7768 40.3275 36.7396 39.0527 36.7396ZM45.1786 41.1807L44.8909 41.8771L45.4835 43.4892L43.4953 45.4819L41.8793 44.8893L41.1845 45.1769L40.4628 46.739H37.6416L36.9232 45.1766L36.2292 44.8893L34.614 45.4817L32.6218 43.4898L33.2145 41.8771L32.9268 41.1807L31.3646 40.4625V37.6415L32.9269 36.92L33.2144 36.2256L32.6218 34.6132L34.614 32.6213L36.2292 33.2138L36.9232 32.9264L37.6416 31.364H40.4628L41.1845 32.9261L41.8793 33.2138L43.4953 32.6211L45.4835 34.6139L44.891 36.2256L45.1785 36.92L46.7407 37.6415V40.4625L45.1786 41.1807ZM43.0109 39.0515C43.0109 36.8691 41.2352 35.0936 39.0528 35.0936C36.8704 35.0936 35.0976 36.8691 35.0976 39.0515C35.0976 41.2338 36.872 43.0093 39.0528 43.0093C41.2337 43.0093 43.0109 41.2338 43.0109 39.0515Z" fill="#EF5226"/>
</svg>
