<svg width="50" height="50" viewBox="0 0 50 50" fill="none" xmlns="http://www.w3.org/2000/svg">
<path d="M14.3311 24.1072H17.0168C17.2215 22.2973 18.0343 20.6105 19.3223 19.3225C20.6102 18.0346 22.2971 17.2218 24.107 17.017V14.3313C21.5858 14.545 19.2216 15.6436 17.4325 17.4327C15.6434 19.2218 14.5448 21.5861 14.3311 24.1072Z" fill="#EF5226"/>
<path d="M17.0168 25.8928H14.3311C14.5448 28.4139 15.6434 30.7782 17.4325 32.5673C19.2216 34.3564 21.5858 35.455 24.107 35.6687V32.983C22.2971 32.7783 20.6102 31.9655 19.3223 30.6775C18.0343 29.3896 17.2215 27.7027 17.0168 25.8928Z" fill="#05A7CC"/>
<path d="M25.8926 35.6687C28.4137 35.455 30.778 34.3564 32.5671 32.5673C34.3562 30.7782 35.4548 28.4139 35.6685 25.8928H32.9828C32.778 27.7027 31.9652 29.3896 30.6773 30.6775C29.3893 31.9655 27.7025 32.7783 25.8926 32.983V35.6687Z" fill="#EF5226"/>
<path d="M49.1064 37.5H38.5796C38.3485 37.4987 38.1196 37.4545 37.9046 37.3697L33.8457 35.6331L35.5698 39.6572C35.6622 39.8822 35.711 40.1228 35.7136 40.3661V49.1072C35.7136 49.344 35.8076 49.5711 35.9751 49.7385C36.1425 49.906 36.3696 50 36.6064 50H49.1064C49.3432 50 49.5703 49.906 49.7378 49.7385C49.9052 49.5711 49.9993 49.344 49.9993 49.1072V38.3929C49.9993 38.1561 49.9052 37.929 49.7378 37.7615C49.5703 37.5941 49.3432 37.5 49.1064 37.5ZM38.3921 39.2857H39.285C39.5218 39.2857 39.7489 39.3798 39.9163 39.5473C40.0838 39.7147 40.1779 39.9418 40.1779 40.1786C40.1779 40.4154 40.0838 40.6425 39.9163 40.8099C39.7489 40.9774 39.5218 41.0715 39.285 41.0715H38.3921C38.1553 41.0715 37.9282 40.9774 37.7608 40.8099C37.5933 40.6425 37.4993 40.4154 37.4993 40.1786C37.4993 39.9418 37.5933 39.7147 37.7608 39.5473C37.9282 39.3798 38.1553 39.2857 38.3921 39.2857ZM42.8564 48.2143H38.3921C38.1553 48.2143 37.9282 48.1203 37.7608 47.9528C37.5933 47.7854 37.4993 47.5583 37.4993 47.3215C37.4993 47.0847 37.5933 46.8576 37.7608 46.6901C37.9282 46.5227 38.1553 46.4286 38.3921 46.4286H42.8564C43.0932 46.4286 43.3203 46.5227 43.4878 46.6901C43.6552 46.8576 43.7493 47.0847 43.7493 47.3215C43.7493 47.5583 43.6552 47.7854 43.4878 47.9528C43.3203 48.1203 43.0932 48.2143 42.8564 48.2143ZM47.3207 44.6429H38.3921C38.1553 44.6429 37.9282 44.5488 37.7608 44.3814C37.5933 44.2139 37.4993 43.9868 37.4993 43.75C37.4993 43.5132 37.5933 43.2861 37.7608 43.1187C37.9282 42.9512 38.1553 42.8572 38.3921 42.8572H47.3207C47.5575 42.8572 47.7846 42.9512 47.9521 43.1187C48.1195 43.2861 48.2136 43.5132 48.2136 43.75C48.2136 43.9868 48.1195 44.2139 47.9521 44.3814C47.7846 44.5488 47.5575 44.6429 47.3207 44.6429ZM47.3207 41.0715H42.8564C42.6196 41.0715 42.3925 40.9774 42.2251 40.8099C42.0576 40.6425 41.9636 40.4154 41.9636 40.1786C41.9636 39.9418 42.0576 39.7147 42.2251 39.5473C42.3925 39.3798 42.6196 39.2857 42.8564 39.2857H47.3207C47.5575 39.2857 47.7846 39.3798 47.9521 39.5473C48.1195 39.7147 48.2136 39.9418 48.2136 40.1786C48.2136 40.4154 48.1195 40.6425 47.9521 40.8099C47.7846 40.9774 47.5575 41.0715 47.3207 41.0715Z" fill="#EF5226"/>
<path d="M32.9828 24.1072H35.6685C35.4548 21.5861 34.3562 19.2218 32.5671 17.4327C30.778 15.6436 28.4137 14.545 25.8926 14.3313V17.017C27.7025 17.2218 29.3893 18.0346 30.6773 19.3225C31.9652 20.6105 32.778 22.2973 32.9828 24.1072Z" fill="#05A7CC"/>
<path d="M13.3929 0H0.892858C0.656057 0 0.428955 0.0940687 0.261512 0.261512C0.0940687 0.428955 0 0.656057 0 0.892858V11.6072C0 11.844 0.0940687 12.0711 0.261512 12.2385C0.428955 12.4059 0.656057 12.5 0.892858 12.5H11.4197C11.6508 12.5013 11.8797 12.5455 12.0947 12.6304L16.1536 14.367L14.4295 10.3429C14.3371 10.1178 14.2883 9.87722 14.2857 9.63394V0.892858C14.2857 0.656057 14.1917 0.428955 14.0242 0.261512C13.8568 0.0940687 13.6297 0 13.3929 0ZM2.67857 1.78572H3.57143C3.80823 1.78572 4.03534 1.87979 4.20278 2.04723C4.37022 2.21467 4.46429 2.44177 4.46429 2.67857C4.46429 2.91538 4.37022 3.14248 4.20278 3.30992C4.03534 3.47736 3.80823 3.57143 3.57143 3.57143H2.67857C2.44177 3.57143 2.21467 3.47736 2.04723 3.30992C1.87979 3.14248 1.78572 2.91538 1.78572 2.67857C1.78572 2.44177 1.87979 2.21467 2.04723 2.04723C2.21467 1.87979 2.44177 1.78572 2.67857 1.78572ZM7.14287 10.7143H2.67857C2.44177 10.7143 2.21467 10.6202 2.04723 10.4528C1.87979 10.2853 1.78572 10.0582 1.78572 9.82144C1.78572 9.58464 1.87979 9.35754 2.04723 9.19009C2.21467 9.02265 2.44177 8.92858 2.67857 8.92858H7.14287C7.37967 8.92858 7.60677 9.02265 7.77421 9.19009C7.94165 9.35754 8.03572 9.58464 8.03572 9.82144C8.03572 10.0582 7.94165 10.2853 7.77421 10.4528C7.60677 10.6202 7.37967 10.7143 7.14287 10.7143ZM11.6072 7.14287H2.67857C2.44177 7.14287 2.21467 7.0488 2.04723 6.88135C1.87979 6.71391 1.78572 6.48681 1.78572 6.25001C1.78572 6.01321 1.87979 5.78611 2.04723 5.61866C2.21467 5.45122 2.44177 5.35715 2.67857 5.35715H11.6072C11.844 5.35715 12.0711 5.45122 12.2385 5.61866C12.4059 5.78611 12.5 6.01321 12.5 6.25001C12.5 6.48681 12.4059 6.71391 12.2385 6.88135C12.0711 7.0488 11.844 7.14287 11.6072 7.14287ZM11.6072 3.57143H7.14287C6.90606 3.57143 6.67896 3.47736 6.51152 3.30992C6.34408 3.14248 6.25001 2.91538 6.25001 2.67857C6.25001 2.44177 6.34408 2.21467 6.51152 2.04723C6.67896 1.87979 6.90606 1.78572 7.14287 1.78572H11.6072C11.844 1.78572 12.0711 1.87979 12.2385 2.04723C12.4059 2.21467 12.5 2.44177 12.5 2.67857C12.5 2.91538 12.4059 3.14248 12.2385 3.30992C12.0711 3.47736 11.844 3.57143 11.6072 3.57143Z" fill="#EF5226"/>
<path d="M0 49.1072C0 49.344 0.0940687 49.5711 0.261512 49.7385C0.428955 49.906 0.656057 50 0.892858 50H13.3929C13.6297 50 13.8568 49.906 14.0242 49.7385C14.1917 49.5711 14.2857 49.344 14.2857 49.1072V40.3661C14.287 40.135 14.3312 39.9061 14.4161 39.6911L16.1536 35.6331L12.1286 37.3563C11.9035 37.4486 11.6629 37.4974 11.4197 37.5H0.892858C0.656057 37.5 0.428955 37.5941 0.261512 37.7615C0.0940687 37.929 0 38.1561 0 38.3929V49.1072ZM7.14287 39.2857H11.6072C11.844 39.2857 12.0711 39.3798 12.2385 39.5473C12.4059 39.7147 12.5 39.9418 12.5 40.1786C12.5 40.4154 12.4059 40.6425 12.2385 40.8099C12.0711 40.9774 11.844 41.0715 11.6072 41.0715H7.14287C6.90606 41.0715 6.67896 40.9774 6.51152 40.8099C6.34408 40.6425 6.25001 40.4154 6.25001 40.1786C6.25001 39.9418 6.34408 39.7147 6.51152 39.5473C6.67896 39.3798 6.90606 39.2857 7.14287 39.2857ZM2.67857 39.2857H3.57143C3.80823 39.2857 4.03534 39.3798 4.20278 39.5473C4.37022 39.7147 4.46429 39.9418 4.46429 40.1786C4.46429 40.4154 4.37022 40.6425 4.20278 40.8099C4.03534 40.9774 3.80823 41.0715 3.57143 41.0715H2.67857C2.44177 41.0715 2.21467 40.9774 2.04723 40.8099C1.87979 40.6425 1.78572 40.4154 1.78572 40.1786C1.78572 39.9418 1.87979 39.7147 2.04723 39.5473C2.21467 39.3798 2.44177 39.2857 2.67857 39.2857ZM2.67857 42.8572H11.6072C11.844 42.8572 12.0711 42.9512 12.2385 43.1187C12.4059 43.2861 12.5 43.5132 12.5 43.75C12.5 43.9868 12.4059 44.2139 12.2385 44.3814C12.0711 44.5488 11.844 44.6429 11.6072 44.6429H2.67857C2.44177 44.6429 2.21467 44.5488 2.04723 44.3814C1.87979 44.2139 1.78572 43.9868 1.78572 43.75C1.78572 43.5132 1.87979 43.2861 2.04723 43.1187C2.21467 42.9512 2.44177 42.8572 2.67857 42.8572ZM2.67857 46.4286H7.14287C7.37967 46.4286 7.60677 46.5227 7.77421 46.6901C7.94165 46.8576 8.03572 47.0847 8.03572 47.3215C8.03572 47.5583 7.94165 47.7854 7.77421 47.9528C7.60677 48.1203 7.37967 48.2143 7.14287 48.2143H2.67857C2.44177 48.2143 2.21467 48.1203 2.04723 47.9528C1.87979 47.7854 1.78572 47.5583 1.78572 47.3215C1.78572 47.0847 1.87979 46.8576 2.04723 46.6901C2.21467 46.5227 2.44177 46.4286 2.67857 46.4286Z" fill="#EF5226"/>
<path d="M49.1064 0H36.6064C36.3696 0 36.1425 0.0940687 35.9751 0.261512C35.8076 0.428955 35.7136 0.656057 35.7136 0.892858V9.63394C35.7123 9.86507 35.6681 10.0939 35.5832 10.3089L33.8457 14.367L37.8707 12.6438C38.0958 12.5514 38.3364 12.5026 38.5796 12.5H49.1064C49.3432 12.5 49.5703 12.4059 49.7378 12.2385C49.9052 12.0711 49.9993 11.844 49.9993 11.6072V0.892858C49.9993 0.656057 49.9052 0.428955 49.7378 0.261512C49.5703 0.0940687 49.3432 0 49.1064 0ZM38.3921 1.78572H39.285C39.5218 1.78572 39.7489 1.87979 39.9163 2.04723C40.0838 2.21467 40.1779 2.44177 40.1779 2.67857C40.1779 2.91538 40.0838 3.14248 39.9163 3.30992C39.7489 3.47736 39.5218 3.57143 39.285 3.57143H38.3921C38.1553 3.57143 37.9282 3.47736 37.7608 3.30992C37.5933 3.14248 37.4993 2.91538 37.4993 2.67857C37.4993 2.44177 37.5933 2.21467 37.7608 2.04723C37.9282 1.87979 38.1553 1.78572 38.3921 1.78572ZM42.8564 10.7143H38.3921C38.1553 10.7143 37.9282 10.6202 37.7608 10.4528C37.5933 10.2853 37.4993 10.0582 37.4993 9.82144C37.4993 9.58464 37.5933 9.35754 37.7608 9.19009C37.9282 9.02265 38.1553 8.92858 38.3921 8.92858H42.8564C43.0932 8.92858 43.3203 9.02265 43.4878 9.19009C43.6552 9.35754 43.7493 9.58464 43.7493 9.82144C43.7493 10.0582 43.6552 10.2853 43.4878 10.4528C43.3203 10.6202 43.0932 10.7143 42.8564 10.7143ZM47.3207 7.14287H38.3921C38.1553 7.14287 37.9282 7.0488 37.7608 6.88135C37.5933 6.71391 37.4993 6.48681 37.4993 6.25001C37.4993 6.01321 37.5933 5.78611 37.7608 5.61866C37.9282 5.45122 38.1553 5.35715 38.3921 5.35715H47.3207C47.5575 5.35715 47.7846 5.45122 47.9521 5.61866C48.1195 5.78611 48.2136 6.01321 48.2136 6.25001C48.2136 6.48681 48.1195 6.71391 47.9521 6.88135C47.7846 7.0488 47.5575 7.14287 47.3207 7.14287ZM47.3207 3.57143H42.8564C42.6196 3.57143 42.3925 3.47736 42.2251 3.30992C42.0576 3.14248 41.9636 2.91538 41.9636 2.67857C41.9636 2.44177 42.0576 2.21467 42.2251 2.04723C42.3925 1.87979 42.6196 1.78572 42.8564 1.78572H47.3207C47.5575 1.78572 47.7846 1.87979 47.9521 2.04723C48.1195 2.21467 48.2136 2.44177 48.2136 2.67857C48.2136 2.91538 48.1195 3.14248 47.9521 3.30992C47.7846 3.47736 47.5575 3.57143 47.3207 3.57143Z" fill="#EF5226"/>
</svg>
