<svg width="50" height="50" viewBox="0 0 50 50" fill="none" xmlns="http://www.w3.org/2000/svg">
<path d="M47.4127 37.9312V38.7932H32.7576C32.0723 38.7953 31.4157 39.0684 30.9311 39.553C30.4466 40.0375 30.1734 40.6941 30.1714 41.3794V50.0001H29.3093C29.0807 50.0001 28.8614 49.9092 28.6998 49.7476C28.5381 49.5859 28.4473 49.3666 28.4473 49.138V35.345C28.4473 35.1163 28.5381 34.8971 28.6998 34.7354C28.8614 34.5737 29.0807 34.4829 29.3093 34.4829H34.4817C34.7103 34.4829 34.9296 34.5737 35.0913 34.7354C35.2529 34.8971 35.3438 35.1163 35.3438 35.345C35.3327 35.5707 35.3675 35.7963 35.446 36.0081C35.5245 36.22 35.6452 36.4138 35.8007 36.5777C36.069 36.7833 36.376 36.9327 36.7033 37.0171C37.0306 37.1015 37.3715 37.1192 37.7058 37.0691H46.5506C46.7792 37.0691 46.9985 37.1599 47.1602 37.3216C47.3218 37.4833 47.4127 37.7025 47.4127 37.9312Z" fill="#EF5226"/>
<path d="M19.8267 38.7932V37.9312C19.8267 37.7025 19.7359 37.4833 19.5742 37.3216C19.4126 37.1599 19.1933 37.0691 18.9647 37.0691H10.1199C9.78561 37.1192 9.44466 37.1015 9.11735 37.0171C8.79004 36.9327 8.48307 36.7833 8.21473 36.5777C8.05924 36.4138 7.93859 36.22 7.86007 36.0081C7.78154 35.7963 7.74676 35.5707 7.75784 35.345C7.75784 35.1163 7.66701 34.8971 7.50534 34.7354C7.34367 34.5737 7.12441 34.4829 6.89577 34.4829H1.72339C1.49476 34.4829 1.27549 34.5737 1.11382 34.7354C0.952153 34.8971 0.861328 35.1163 0.861328 35.345V49.138C0.861328 49.3666 0.952153 49.5859 1.11382 49.7476C1.27549 49.9092 1.49476 50.0001 1.72339 50.0001H2.58545V41.3794C2.5875 40.6941 2.86063 40.0375 3.34519 39.553C3.82976 39.0684 4.48637 38.7953 5.17165 38.7932H19.8267Z" fill="#EF5226"/>
<path d="M21.5508 41.3794V49.138C21.5508 49.3666 21.46 49.5859 21.2983 49.7475C21.1367 49.9092 20.9174 50 20.6888 50H4.30957V41.3794C4.30957 41.1508 4.40039 40.9315 4.56206 40.7698C4.72373 40.6082 4.943 40.5173 5.17163 40.5173H20.6888C20.9174 40.5173 21.1367 40.6082 21.2983 40.7698C21.46 40.9315 21.5508 41.1508 21.5508 41.3794Z" fill="#EF5226"/>
<path d="M48.2747 40.5173H32.7576C32.5289 40.5173 32.3097 40.6082 32.148 40.7698C31.9863 40.9315 31.8955 41.1508 31.8955 41.3794V50H48.2747C48.5033 50 48.7226 49.9092 48.8843 49.7475C49.046 49.5859 49.1368 49.3666 49.1368 49.138V41.3794C49.1368 41.1508 49.046 40.9315 48.8843 40.7698C48.7226 40.6082 48.5033 40.5173 48.2747 40.5173Z" fill="#EF5226"/>
<path d="M34.1964 5.19856C33.7654 3.97514 32.8917 2.95756 31.7476 2.3464C30.6035 1.73524 29.2719 1.57486 28.0154 1.89686C27.1459 1.06963 26.0754 0.484037 24.9098 0.198168C23.7442 -0.0877009 22.5242 -0.0639196 21.3707 0.267154C20.2171 0.598228 19.1702 1.22509 18.3337 2.08558C17.4971 2.94607 16.9 4.01029 16.6017 5.1727C15.0012 5.14298 13.4545 5.75024 12.3018 6.8609C11.1491 7.97156 10.4849 9.49464 10.4551 11.0951C10.4254 12.6955 11.0327 14.2422 12.1433 15.3949C13.254 16.5476 14.7771 17.2119 16.3775 17.2416H33.6188C35.1726 17.2467 36.6685 16.6522 37.795 15.582C38.9215 14.5118 39.5917 13.0483 39.6662 11.4963C39.7406 9.94422 39.2135 8.42329 38.1946 7.25017C37.1757 6.07705 35.7435 5.34217 34.1964 5.19856ZM16.3775 9.48302C15.9203 9.48302 15.4817 9.66467 15.1584 9.988C14.835 10.3113 14.6534 10.7499 14.6534 11.2071C14.6534 11.6644 14.835 12.103 15.1584 12.4263C15.4817 12.7496 15.9203 12.9313 16.3775 12.9313V14.6554C15.463 14.6554 14.5859 14.2921 13.9392 13.6454C13.2926 12.9988 12.9293 12.1217 12.9293 11.2071C12.9293 10.2926 13.2926 9.41553 13.9392 8.76886C14.5859 8.12219 15.463 7.75889 16.3775 7.75889V9.48302ZM19.8258 14.6554H18.1016V12.9313H19.8258V14.6554Z" fill="#05A7CC"/>
<path d="M5.1714 31.0346H8.61966V19.8278L13.792 24.1381V19.8278L6.89553 13.7933L-0.000976562 19.8278V24.1381L5.1714 19.8278V31.0346Z" fill="#EF5226"/>
<path d="M44.8267 25.0002V13.7933H41.3784V25.0002L36.2061 20.6898V25.0002L43.1026 31.0346L49.9991 25.0002V20.6898L44.8267 25.0002Z" fill="#EF5226"/>
</svg>
