<svg width="50" height="50" viewBox="0 0 50 50" fill="none" xmlns="http://www.w3.org/2000/svg">
<path d="M6.24902 14.0625C7.97491 14.0625 9.37402 12.6634 9.37402 10.9375C9.37402 9.21161 7.97491 7.8125 6.24902 7.8125C4.52313 7.8125 3.12402 9.21161 3.12402 10.9375C3.12402 12.6634 4.52313 14.0625 6.24902 14.0625Z" fill="#05A7CC"/>
<path d="M14.7154 7.07132C14.449 6.62236 14.2554 6.12569 14.151 5.59705L9.89258 7.99246C10.2195 8.39611 10.4808 8.85455 10.6602 9.35215L14.7154 7.07132Z" fill="#EF5226"/>
<path d="M43.1761 14.0625C42.1996 14.0625 41.4053 14.8569 41.4053 15.8333V34.1667C41.4053 35.1431 42.1996 35.9375 43.1761 35.9375H44.3219C45.2984 35.9375 46.0928 35.1431 46.0928 34.1667V15.8333C46.0928 14.8569 45.2984 14.0625 44.3219 14.0625H43.1761Z" fill="#EF5226"/>
<path d="M35.3821 11.8552L40.2636 6.95082C39.8282 6.64228 39.4477 6.26155 39.1395 5.82593L34.3691 10.5687C34.7774 10.9338 35.1213 11.3688 35.3821 11.8552Z" fill="#EF5226"/>
<path d="M27.8541 10.8354L23.0232 6.60852C22.8045 7.093 22.5062 7.53362 22.1445 7.91404L26.9751 12.1413C27.1938 11.6568 27.4922 11.2159 27.8541 10.8354Z" fill="#EF5226"/>
<path d="M42.9678 6.25C44.6937 6.25 46.0928 4.85089 46.0928 3.125C46.0928 1.39911 44.6937 0 42.9678 0C41.2419 0 39.8428 1.39911 39.8428 3.125C39.8428 4.85089 41.2419 6.25 42.9678 6.25Z" fill="#05A7CC"/>
<path d="M31.8219 24.2188H30.6761C29.6996 24.2188 28.9053 25.0131 28.9053 25.9896V34.1667C28.9053 35.1431 29.6996 35.9375 30.6761 35.9375H31.8219C32.7984 35.9375 33.5928 35.1431 33.5928 34.1667V25.9896C33.5928 25.0131 32.7984 24.2188 31.8219 24.2188Z" fill="#EF5226"/>
<path d="M31.249 17.1875C32.9749 17.1875 34.374 15.7884 34.374 14.0625C34.374 12.3366 32.9749 10.9375 31.249 10.9375C29.5231 10.9375 28.124 12.3366 28.124 14.0625C28.124 15.7884 29.5231 17.1875 31.249 17.1875Z" fill="#05A7CC"/>
<path d="M18.749 7.8125C20.4749 7.8125 21.874 6.41339 21.874 4.6875C21.874 2.96161 20.4749 1.5625 18.749 1.5625C17.0231 1.5625 15.624 2.96161 15.624 4.6875C15.624 6.41339 17.0231 7.8125 18.749 7.8125Z" fill="#05A7CC"/>
<path d="M6.82194 19.5312H5.67611C4.69965 19.5312 3.90527 20.3256 3.90527 21.3021V34.1667C3.90527 35.1431 4.69965 35.9375 5.67611 35.9375H6.82194C7.7984 35.9375 8.59277 35.1431 8.59277 34.1667V21.3021C8.59277 20.3256 7.7984 19.5312 6.82194 19.5312Z" fill="#EF5226"/>
<path d="M18.1761 16.4062C17.1996 16.4062 16.4053 17.2006 16.4053 18.1771V34.1667C16.4053 35.1431 17.1996 35.9375 18.1761 35.9375H19.3219C20.2984 35.9375 21.0928 35.1431 21.0928 34.1667V18.1771C21.0928 17.2006 20.2984 16.4062 19.3219 16.4062H18.1761Z" fill="#EF5226"/>
<path d="M47.2212 40.625H2.77684C1.24517 40.625 -0.000976562 41.8711 -0.000976562 43.4028C-0.000976562 47.0405 2.9585 50 6.59621 50H43.4018C47.0395 50 49.999 47.0405 49.999 43.4028C49.999 41.8711 48.7529 40.625 47.2212 40.625Z" fill="#EF5226"/>
</svg>
