<svg width="50" height="50" viewBox="0 0 50 50" fill="none" xmlns="http://www.w3.org/2000/svg">
<path d="M6.25 7.14294V35.7143C6.25293 36.6993 7.05068 37.4971 8.03574 37.5001H41.9644C42.9493 37.4971 43.7472 36.6994 43.7501 35.7143V7.14294H6.25ZM39.2857 34.8215H35.7144C34.7294 34.8185 33.9315 34.0208 33.9286 33.0357V29.4643C33.9315 28.4794 34.7293 27.6815 35.7144 27.6786H36.6161L36.6072 23.9465C35.8496 23.6754 35.2533 23.0791 34.9822 22.3215H28.0447L25.893 24.4822V27.6786H27.6787C29.1562 27.683 30.3528 28.8797 30.3573 30.3572V32.1429C30.3573 33.6222 29.1581 34.8216 27.6787 34.8216H22.3216C20.8423 34.8216 19.643 33.6223 19.643 32.1429V30.3572C19.6474 28.8797 20.844 27.6831 22.3216 27.6786H24.1073V24.4822L21.9556 22.3215H15.0181C14.7442 23.0773 14.1489 23.6726 13.3931 23.9465L13.402 27.6786H14.2858C15.2708 27.6815 16.0687 28.4793 16.0716 29.4643V33.0357C16.0687 34.0207 15.2709 34.8185 14.2858 34.8215H10.7145C9.72949 34.8185 8.93164 34.0208 8.92871 33.0357V29.4643C8.93164 28.4794 9.72939 27.6815 10.7145 27.6786H11.6162L11.6073 23.9465C10.4264 23.535 9.6873 22.3611 9.82676 21.1183C9.96621 19.8756 10.9471 18.8946 12.1899 18.7552C13.4327 18.6157 14.6066 19.3548 15.0181 20.5357H21.9556L24.1073 18.384V15.0178C22.8773 14.583 22.1396 13.3253 22.3602 12.0395C22.5808 10.7538 23.6956 9.81394 25.0002 9.81394C26.3048 9.81394 27.4196 10.7538 27.6402 12.0395C27.8608 13.3253 27.123 14.583 25.8931 15.0178V18.384L28.0448 20.5357H34.9823C35.3937 19.3548 36.5677 18.6157 37.8104 18.7552C39.0532 18.8946 40.0342 19.8755 40.1736 21.1183C40.3131 22.3611 39.574 23.535 38.3931 23.9465L38.402 27.6786H39.2858C40.2708 27.6815 41.0687 28.4793 41.0716 29.4643V33.0357C41.0685 34.0208 40.2707 34.8185 39.2857 34.8215Z" fill="#EF5226"/>
<path fill-rule="evenodd" clip-rule="evenodd" d="M10.7139 29.4652H14.2862V33.0366H10.7139V29.4652Z" fill="#EF5226"/>
<path fill-rule="evenodd" clip-rule="evenodd" d="M33.929 41.0715H48.2147V8.92869C48.2147 7.94246 47.4152 7.14294 46.429 7.14294H45.5361V35.7143C45.5361 37.6868 43.9371 39.2857 41.9647 39.2857H8.03613C6.06367 39.2857 4.46475 37.6867 4.46475 35.7143V7.14294H3.57187C2.58564 7.14294 1.78613 7.94246 1.78613 8.92869V41.0716L33.929 41.0715Z" fill="#EF5226"/>
<path d="M12.5003 22.3224C12.9934 22.3224 13.3932 21.9226 13.3932 21.4295C13.3932 20.9364 12.9934 20.5366 12.5003 20.5366C12.0072 20.5366 11.6074 20.9364 11.6074 21.4295C11.6074 21.9226 12.0072 22.3224 12.5003 22.3224Z" fill="#EF5226"/>
<path fill-rule="evenodd" clip-rule="evenodd" d="M23.5791 21.4301L24.995 20.0142L26.4108 21.4301L24.995 22.8459L23.5791 21.4301Z" fill="#EF5226"/>
<path fill-rule="evenodd" clip-rule="evenodd" d="M22.3216 29.4652H27.6787C28.1718 29.4652 28.5716 29.8649 28.5716 30.3581V32.1438C28.5716 32.6369 28.1719 33.0367 27.6787 33.0367H22.3216C21.8285 33.0367 21.4287 32.637 21.4287 32.1438V30.3581C21.4288 29.865 21.8285 29.4652 22.3216 29.4652Z" fill="#EF5226"/>
<path d="M34.8214 42.8571V43.7499C34.8214 45.7224 33.2224 47.3213 31.25 47.3213H18.75C16.7775 47.3213 15.1786 45.7223 15.1786 43.7499V42.8571H0V45.5357C0 48.0012 1.99873 49.9999 4.46426 49.9999H45.5356C48.0013 49.9999 50 48.0012 50 45.5357V42.8571H34.8214ZM2.67861 46.4285C2.18555 46.4285 1.78574 46.0288 1.78574 45.5357C1.78574 45.0425 2.18545 44.6428 2.67861 44.6428C3.17178 44.6428 3.57148 45.0425 3.57148 45.5357C3.57148 46.0288 3.17168 46.4285 2.67861 46.4285ZM6.25 46.4285C5.75693 46.4285 5.35713 46.0288 5.35713 45.5357C5.35713 45.0425 5.75684 44.6428 6.25 44.6428C6.74316 44.6428 7.14287 45.0425 7.14287 45.5357C7.14287 46.0288 6.74307 46.4285 6.25 46.4285ZM12.5 46.4285H9.82139C9.32832 46.4285 8.92852 46.0288 8.92852 45.5357C8.92852 45.0425 9.32822 44.6428 9.82139 44.6428H12.5C12.9931 44.6428 13.3929 45.0425 13.3929 45.5357C13.3929 46.0288 12.9931 46.4285 12.5 46.4285Z" fill="#EF5226"/>
<path fill-rule="evenodd" clip-rule="evenodd" d="M18.7496 45.5357H31.2496C32.2358 45.5357 33.0354 44.7362 33.0354 43.7499V42.8571H16.9639V43.7499C16.9639 44.7362 17.7634 45.5357 18.7496 45.5357Z" fill="#EF5226"/>
<path d="M25.0003 13.3938C25.4934 13.3938 25.8932 12.994 25.8932 12.5009C25.8932 12.0078 25.4934 11.608 25.0003 11.608C24.5072 11.608 24.1074 12.0078 24.1074 12.5009C24.1074 12.994 24.5072 13.3938 25.0003 13.3938Z" fill="#EF5226"/>
<path fill-rule="evenodd" clip-rule="evenodd" d="M35.7139 29.4652H39.2862V33.0366H35.7139V29.4652Z" fill="#EF5226"/>
<path d="M37.5003 22.3224C37.9934 22.3224 38.3932 21.9226 38.3932 21.4295C38.3932 20.9364 37.9934 20.5366 37.5003 20.5366C37.0072 20.5366 36.6074 20.9364 36.6074 21.4295C36.6074 21.9226 37.0072 22.3224 37.5003 22.3224Z" fill="#EF5226"/>
<path d="M41.9643 0H8.03574C7.05068 0.00292969 6.25293 0.800684 6.25 1.78574V5.35713H43.75V1.78574C43.7471 0.800684 42.9493 0.00292969 41.9643 0ZM8.92861 3.57139C8.43555 3.57139 8.03574 3.17168 8.03574 2.67852C8.03574 2.18535 8.43545 1.78564 8.92861 1.78564C9.42178 1.78564 9.82148 2.18535 9.82148 2.67852C9.82148 2.91533 9.72744 3.14238 9.55996 3.30986C9.39248 3.47734 9.16533 3.57139 8.92861 3.57139ZM12.5 3.57139C12.0069 3.57139 11.6071 3.17168 11.6071 2.67852C11.6071 2.18535 12.0068 1.78564 12.5 1.78564C12.9931 1.78564 13.3929 2.18535 13.3929 2.67852C13.3929 2.91533 13.2988 3.14238 13.1313 3.30986C12.9639 3.47734 12.7368 3.57139 12.5 3.57139ZM16.0714 3.57139C15.5783 3.57139 15.1785 3.17168 15.1785 2.67852C15.1785 2.18535 15.5782 1.78564 16.0714 1.78564C16.5645 1.78564 16.9643 2.18535 16.9643 2.67852C16.9643 2.91533 16.8702 3.14238 16.7027 3.30986C16.5354 3.47734 16.3082 3.57139 16.0714 3.57139ZM41.0714 3.57139H33.9285C33.4354 3.57139 33.0356 3.17168 33.0356 2.67852C33.0356 2.18535 33.4354 1.78564 33.9285 1.78564H41.0714C41.5645 1.78564 41.9643 2.18535 41.9643 2.67852C41.9643 3.17168 41.5646 3.57139 41.0714 3.57139Z" fill="#05A7CC"/>
</svg>
