<svg width="47" height="50" viewBox="0 0 47 50" fill="none" xmlns="http://www.w3.org/2000/svg">
<path fill-rule="evenodd" clip-rule="evenodd" d="M41.8942 41.2051V44.0694C41.8942 45.3054 40.884 46.3038 39.6598 46.3038H31.792C31.8752 46.6247 31.9227 46.9574 31.9227 47.3021C31.9227 47.6468 31.8752 47.9795 31.792 48.3004H39.6598C42.0012 48.3004 43.8909 46.3988 43.8909 44.0694V41.0625C43.7126 41.0863 43.5343 41.11 43.356 41.1219L41.8942 41.2051Z" fill="#EF5226"/>
<path fill-rule="evenodd" clip-rule="evenodd" d="M6.93983 30.8771C6.93983 30.7583 6.95172 30.6513 6.9636 30.5325L3.50508 30.7464C3.101 30.7702 2.72068 30.8534 2.37601 30.9722C2.34036 30.9841 2.3047 31.0079 2.26905 31.0079C0.914164 31.5308 -0.000976562 32.7668 -0.000976562 34.2168V36.5106C-0.000976562 38.3647 1.50841 39.8622 3.50508 39.981L6.9636 40.1949C6.95172 40.088 6.93983 39.9691 6.93983 39.8503V30.8771Z" fill="#EF5226"/>
<path fill-rule="evenodd" clip-rule="evenodd" d="M9.49536 29.4628C8.97243 29.4628 8.5208 29.748 8.27121 30.164C8.25933 30.1759 8.25933 30.1996 8.24744 30.2115C8.14048 30.4136 8.08105 30.6275 8.08105 30.8652V39.8502C8.08105 40.0879 8.14048 40.3137 8.24744 40.5039C8.25933 40.5158 8.27121 40.5395 8.27121 40.5514C8.5208 40.9674 8.97243 41.2526 9.49536 41.2526C10.2798 41.2526 10.9097 40.6227 10.9097 39.8383V30.8652C10.9097 30.0927 10.2798 29.4628 9.49536 29.4628Z" fill="#EF5226"/>
<path fill-rule="evenodd" clip-rule="evenodd" d="M5.98956 29.4509V24.2928H2.68555V29.7005C2.92325 29.653 3.17283 29.6173 3.4343 29.6054L5.98956 29.4509Z" fill="#EF5226"/>
<path fill-rule="evenodd" clip-rule="evenodd" d="M35.6892 8.42643C38.9933 11.7304 40.7998 16.0922 40.7998 20.7155V23.1519H44.1038V20.7155C44.1038 15.2008 41.9407 10.0071 38.0187 6.08509C34.0967 2.16306 28.9029 0 23.3883 0C17.8737 0 12.68 2.16306 8.75795 6.08509C4.83591 10.0071 2.67285 15.2008 2.67285 20.7155V23.1519H5.97687V20.7155C5.97687 16.0922 7.79526 11.7186 11.0874 8.42643C14.3914 5.12241 18.7532 3.3159 23.3764 3.3159C28.0234 3.3159 32.3852 5.1343 35.6892 8.42643Z" fill="#EF5226"/>
<path fill-rule="evenodd" clip-rule="evenodd" d="M27.9053 19.6459C27.9053 18.184 27.2041 16.841 26.0512 15.9972V18.2553C26.0512 19.7172 24.8627 20.9057 23.4009 20.9057C21.939 20.9057 20.7505 19.7172 20.7505 18.2553V15.9972C19.5977 16.8291 18.8965 18.184 18.8965 19.6459C18.8965 22.1298 20.9169 24.1503 23.4009 24.1503C25.8848 24.1503 27.9053 22.1298 27.9053 19.6459Z" fill="#05A7CC"/>
<path fill-rule="evenodd" clip-rule="evenodd" d="M20.6193 29.9263C20.7738 29.9739 20.9402 30.0214 21.0947 30.0689C21.3443 30.1284 21.5226 30.3661 21.5226 30.6156V32.0775C21.5226 32.3508 21.7365 32.5648 22.0098 32.5648H24.779C25.0524 32.5648 25.2663 32.3508 25.2663 32.0775V30.6156C25.2663 30.3542 25.4446 30.1284 25.6942 30.0689C25.8606 30.0333 26.0151 29.9857 26.1696 29.9263V24.5543C25.3495 25.0178 24.3987 25.2912 23.3885 25.2912C22.3783 25.2912 21.4275 25.0297 20.6074 24.5543L20.6193 29.9263Z" fill="#05A7CC"/>
<path fill-rule="evenodd" clip-rule="evenodd" d="M21.0831 14.4877C21.2614 14.4045 21.4634 14.4283 21.6298 14.5234C21.7962 14.6304 21.8913 14.8086 21.8913 14.9988V18.2434C21.8913 19.0753 22.5687 19.7528 23.4007 19.7528C24.2326 19.7528 24.9101 19.0753 24.9101 18.2434V14.9988C24.9101 14.8086 25.0052 14.6304 25.1715 14.5234C25.3379 14.4164 25.54 14.4045 25.7182 14.4877C27.7506 15.4029 29.0579 17.4233 29.0579 19.6458C29.0579 21.2384 28.3924 22.6765 27.3346 23.6986V29.4747C28.3092 29.0111 29.2005 28.3812 29.9612 27.6087C30.1394 27.4186 30.4247 27.3829 30.6505 27.5136L31.9222 28.2505C32.1599 28.3812 32.457 28.3099 32.5877 28.0722L33.9783 25.6715C34.0377 25.5645 34.0615 25.4219 34.0258 25.303C33.9902 25.1723 33.907 25.0653 33.8 25.0059L32.5283 24.269C32.3025 24.1383 32.1955 23.8768 32.2669 23.6273C32.4927 22.831 32.5996 21.999 32.5996 21.1671C32.5996 20.3351 32.4927 19.5032 32.2669 18.7069C32.1955 18.4573 32.3025 18.1958 32.5283 18.0651L33.8 17.3282C33.9189 17.2688 33.9902 17.1618 34.0258 17.0311C34.0615 16.9004 34.0377 16.7696 33.9783 16.6627L32.5759 14.2619C32.5164 14.155 32.4095 14.0718 32.2787 14.0361C32.148 14.0005 32.0173 14.0242 31.9103 14.0836L30.6386 14.8205C30.4128 14.9512 30.1276 14.9156 29.9493 14.7254C28.7727 13.5369 27.3108 12.6812 25.6945 12.2652C25.4449 12.2058 25.2666 11.9681 25.2666 11.7185V10.2567C25.2666 9.98334 25.0408 9.76941 24.7793 9.76941H22.0101C21.7368 9.76941 21.5229 9.98334 21.5229 10.2567V11.7185C21.5229 11.98 21.3446 12.2058 21.095 12.2652C19.4905 12.6812 18.0168 13.5251 16.8402 14.7254C16.6619 14.9156 16.3767 14.9512 16.1509 14.8205L14.8792 14.0836C14.7722 14.0242 14.6296 14.0005 14.5107 14.0361C14.38 14.0718 14.273 14.155 14.2136 14.2619L12.8231 16.6627C12.7637 16.7696 12.7399 16.9123 12.7755 17.0311C12.8112 17.1618 12.8944 17.2688 13.0014 17.3282L14.273 18.0651C14.4989 18.1958 14.6058 18.4573 14.5345 18.7069C14.3087 19.5032 14.2017 20.3351 14.2017 21.1671C14.2017 21.999 14.3087 22.831 14.5345 23.6273C14.6058 23.8768 14.4989 24.1383 14.273 24.269L13.0014 25.0059C12.8944 25.0653 12.8112 25.1723 12.7755 25.303C12.7399 25.4338 12.7637 25.5645 12.8231 25.6715L14.2136 28.0722C14.3444 28.3099 14.6415 28.3812 14.8792 28.2505L16.1509 27.5136C16.2459 27.4661 16.341 27.4423 16.4361 27.4423C16.5906 27.4423 16.7332 27.5018 16.8402 27.6087C17.6008 28.3812 18.4922 29.023 19.4668 29.4747V23.6986C18.409 22.6765 17.7434 21.2265 17.7434 19.6458C17.7553 17.4233 19.0627 15.4029 21.0831 14.4877Z" fill="#EF5226"/>
<path fill-rule="evenodd" clip-rule="evenodd" d="M40.7998 29.4509L43.3551 29.6054C43.6047 29.6173 43.8542 29.653 44.1038 29.7005V24.2928H40.7998V29.4509Z" fill="#EF5226"/>
<path fill-rule="evenodd" clip-rule="evenodd" d="M44.5324 31.0079C44.4968 30.996 44.4611 30.9841 44.4255 30.9722C44.0689 30.8415 43.6886 30.7702 43.2964 30.7464L39.8379 30.5325C39.8498 30.6394 39.8617 30.7583 39.8617 30.8771V39.8622C39.8617 39.981 39.8498 40.088 39.8379 40.2068L43.2964 39.9929C45.2931 39.874 46.8025 38.3765 46.8025 36.5225V34.2287C46.7906 32.7668 45.8754 31.5427 44.5324 31.0079Z" fill="#EF5226"/>
<path fill-rule="evenodd" clip-rule="evenodd" d="M38.554 30.2234C38.5421 30.1996 38.5302 30.1878 38.5183 30.164C38.2688 29.748 37.8171 29.4628 37.2942 29.4628C36.5098 29.4628 35.8799 30.0927 35.8799 30.8771V39.8502C35.8799 40.6346 36.5098 41.2645 37.2942 41.2645C37.8171 41.2645 38.2688 40.9793 38.5183 40.5633C38.5302 40.5395 38.5421 40.5158 38.554 40.5039C38.661 40.3137 38.7085 40.0879 38.7085 39.8502V30.8652C38.7085 30.6394 38.6491 30.4136 38.554 30.2234Z" fill="#EF5226"/>
<path fill-rule="evenodd" clip-rule="evenodd" d="M28.095 44.6281H22.937C21.4632 44.6281 20.251 45.8284 20.251 47.3141C20.251 48.7878 21.4514 50.0001 22.937 50.0001H28.095C29.5688 50.0001 30.781 48.7997 30.781 47.3141C30.7692 45.8284 29.5688 44.6281 28.095 44.6281Z" fill="#EF5226"/>
</svg>
