<svg width="46" height="50" viewBox="0 0 46 50" fill="none" xmlns="http://www.w3.org/2000/svg">
<path fill-rule="evenodd" clip-rule="evenodd" d="M17.5064 4.94569C17.0552 5.63157 16.7379 6.40171 16.5747 7.20624C16.5285 7.5148 16.2623 7.75148 15.9409 7.75148H14.7107L14.4229 8.0393V8.96894L14.7107 9.25677H15.9409C16.2623 9.25677 16.5285 9.49345 16.5747 9.80201C16.7379 10.6065 17.0552 11.3767 17.5063 12.0624C17.7041 12.3139 17.6871 12.6794 17.4552 12.9112L16.5851 13.7813V14.1888L17.2421 14.8458H17.6496L18.5197 13.9757C18.7516 13.7438 19.1171 13.7268 19.3685 13.9246C20.0544 14.3758 20.8245 14.693 21.629 14.8561C21.9375 14.9024 22.1742 15.1686 22.1742 15.49V16.7201L22.4621 17.0079H23.3917L23.6795 16.7201V15.49C23.6795 15.1686 23.9162 14.9024 24.2248 14.8561C25.0293 14.693 25.7994 14.3757 26.4853 13.9246C26.7368 13.7268 27.1022 13.7438 27.3341 13.9757L28.2041 14.8458H28.6117L29.2687 14.1888V13.7813L28.3985 12.9112C28.1666 12.6794 28.1497 12.3139 28.3475 12.0624C28.7987 11.3766 29.1159 10.6065 29.279 9.8019C29.3252 9.49334 29.5914 9.25666 29.9129 9.25666H31.143L31.4308 8.96884V8.0392L31.1635 7.77189L29.949 7.7497C29.6342 7.76794 29.3465 7.55115 29.2844 7.23301C29.1228 6.4188 28.8037 5.63917 28.3475 4.94569C28.1497 4.69422 28.1666 4.32878 28.3985 4.0969L29.2687 3.22685V2.81932L28.6117 2.16231H28.1921L27.2937 3.01454C27.0666 3.23049 26.7223 3.24685 26.4776 3.06892C25.7912 2.6139 25.0309 2.31492 24.2251 2.15189C23.9163 2.10574 23.6795 1.83948 23.6795 1.518V0.287828L23.3917 0H22.4621L22.1742 0.287828V1.518C22.1742 1.83948 21.9375 2.10564 21.629 2.15189C20.8245 2.31503 20.0543 2.63233 19.3684 3.08351C19.117 3.28123 18.7515 3.26414 18.5197 3.03236L17.6496 2.1622H17.2421L16.5851 2.81922V3.22674L17.4552 4.09679C17.6871 4.32868 17.7041 4.69401 17.5064 4.94549V4.94569ZM22.9269 13.2452C20.3086 13.2452 18.1858 11.1224 18.1858 8.50412C18.1858 5.88585 20.3086 3.76302 22.9269 3.76302C25.5451 3.76302 27.668 5.88585 27.668 8.50412C27.668 11.1224 25.5451 13.2452 22.9269 13.2452Z" fill="#EF5226"/>
<path fill-rule="evenodd" clip-rule="evenodd" d="M35.9565 18.9379L37.0174 20.8587L38.0783 18.9379C38.1811 18.721 38.402 18.5711 38.6578 18.5711H39.8396C42.0975 18.5711 44.3101 16.9362 44.3101 14.555C44.3101 12.1738 42.0975 10.539 39.8396 10.539C36.6994 10.539 33.5592 10.5386 30.419 10.539C30.2458 11.1771 29.9916 11.7897 29.662 12.3628L30.3622 13.063C30.4873 13.1881 30.5499 13.3521 30.5499 13.5162V14.4545C30.55 14.6344 30.4758 14.797 30.3564 14.9135L29.3295 15.9404C29.2044 16.0655 29.0403 16.1281 28.8762 16.1281H27.938C27.758 16.1282 27.5955 16.0541 27.4791 15.9348L26.7846 15.2403C26.2114 15.5699 25.5989 15.824 24.9608 15.9973V16.9859C24.9608 17.1658 24.8866 17.3284 24.7673 17.4448L24.1095 18.1025C23.9844 18.2276 23.8203 18.2902 23.6563 18.2902H22.1959C22.016 18.2903 21.8534 18.2162 21.737 18.0969L21.0791 17.439C20.954 17.3139 20.8914 17.1498 20.8914 16.9858V15.9972C20.2534 15.824 19.6406 15.5698 19.0676 15.2402L18.3674 15.9403C18.2423 16.0654 18.0782 16.128 17.9142 16.128H16.9759C16.796 16.1281 16.6335 16.054 16.517 15.9347L15.49 14.9076C15.3649 14.7825 15.3022 14.6185 15.3022 14.4544V13.5161C15.3021 13.3363 15.3762 13.1738 15.4955 13.0573L16.1901 12.3627C15.8605 11.7895 15.6063 11.177 15.4331 10.539H6.01256C3.75462 10.539 1.54199 12.1738 1.54199 14.555C1.54199 16.9362 3.75462 18.5711 6.01256 18.5711H7.19429C7.45024 18.5711 7.67109 18.7211 7.7738 18.9379L8.83459 20.8587L9.89548 18.9379C9.9983 18.721 10.2191 18.5711 10.475 18.5711H21.2855C21.5413 18.5711 21.7623 18.7211 21.865 18.9379L22.9259 20.8587L23.9868 18.9379C24.0896 18.721 24.3105 18.5711 24.5663 18.5711H35.3768C35.6328 18.5711 35.8536 18.7211 35.9563 18.9379H35.9565ZM40.7559 15.196C40.4019 15.196 40.1148 14.909 40.1148 14.5549C40.1148 14.2008 40.4018 13.9138 40.7559 13.9138C41.128 13.9138 41.4304 14.1722 41.4304 14.5549C41.4304 14.9376 41.128 15.196 40.7559 15.196ZM37.7703 15.196C37.4163 15.196 37.1292 14.909 37.1292 14.5549C37.1292 14.2008 37.4162 13.9138 37.7703 13.9138C38.1424 13.9138 38.4448 14.1722 38.4448 14.5549C38.4448 14.9376 38.1424 15.196 37.7703 15.196ZM34.7846 15.196C34.4306 15.196 34.1435 14.909 34.1435 14.5549C34.1435 14.2008 34.4305 13.9138 34.7846 13.9138C35.1567 13.9138 35.4591 14.1722 35.4591 14.5549C35.4591 14.9376 35.1567 15.196 34.7846 15.196ZM11.0666 15.196C10.7126 15.196 10.4255 14.909 10.4255 14.5549C10.4255 14.2008 10.7125 13.9138 11.0666 13.9138C11.4387 13.9138 11.7411 14.1721 11.7411 14.5549C11.7411 14.9377 11.4387 15.196 11.0666 15.196ZM8.08101 15.196C7.72703 15.196 7.43993 14.909 7.43993 14.5549C7.43993 14.2008 7.72692 13.9138 8.08101 13.9138C8.45311 13.9138 8.75552 14.1721 8.75552 14.5549C8.75552 14.9377 8.45311 15.196 8.08101 15.196ZM5.09532 15.196C4.74134 15.196 4.45424 14.909 4.45424 14.5549C4.45424 14.2008 4.74123 13.9138 5.09532 13.9138C5.46742 13.9138 5.76983 14.1721 5.76983 14.5549C5.76983 14.9377 5.46742 15.196 5.09532 15.196Z" fill="#EF5226"/>
<path d="M25.3679 10.9514C26.7185 9.60077 26.7185 7.41095 25.3679 6.06031C24.0173 4.70967 21.8274 4.70967 20.4768 6.06031C19.1262 7.41095 19.1262 9.60077 20.4768 10.9514C21.8274 12.302 24.0173 12.302 25.3679 10.9514Z" fill="#EF5226"/>
<path fill-rule="evenodd" clip-rule="evenodd" d="M23.0001 40.049C24.649 40.0405 25.488 38.8279 26.1552 37.467C26.4305 36.9052 26.5883 36.3694 26.6285 35.8596C26.6519 35.5625 26.8744 35.3287 27.1548 35.2789C27.4283 35.2124 27.5753 35.1246 27.6528 34.9911C27.8639 34.6278 28.0876 32.9522 27.9976 32.5421C27.955 32.3478 27.8157 32.1953 27.501 32.0651C27.2061 31.9439 27.0505 31.6274 27.1221 31.3268C27.1215 31.3266 27.2943 29.1369 27.2467 28.9293C27.177 28.6992 27.2405 28.4391 27.4311 28.2677C28.2432 27.5377 27.8019 26.9835 26.9092 26.6239C25.9732 26.2468 24.5946 26.197 23.2169 26.7526C23.1298 26.7968 23.0312 26.8218 22.927 26.8218C19.6362 26.8218 17.8959 27.8006 18.7318 31.3267C18.8042 31.6309 18.6419 31.9462 18.353 32.065C18.0382 32.1953 17.899 32.3477 17.8564 32.542C17.7665 32.9521 17.99 34.6277 18.2011 34.991C18.2787 35.1245 18.4258 35.2123 18.6991 35.2788C18.9796 35.3285 19.2022 35.5623 19.2254 35.8595C19.2656 36.3693 19.4234 36.9052 19.6988 37.4669C20.4099 38.9179 21.2431 40.0578 23 40.0489L23.0001 40.049Z" fill="#EF5226"/>
<path fill-rule="evenodd" clip-rule="evenodd" d="M26.0193 41.8546L23.4626 45.6204C23.2174 45.9997 22.6569 46.0133 22.3983 45.6317L19.8341 41.8546C13.5386 43.3896 13.5379 43.8119 13.5476 49.8131L13.5479 50H32.3053L32.3056 49.8132C32.3154 43.8119 32.3146 43.3897 26.0191 41.8547L26.0193 41.8546Z" fill="#EF5226"/>
<path fill-rule="evenodd" clip-rule="evenodd" d="M20.8028 41.0095L22.9263 44.1374L25.0498 41.0095L25.0073 40.84C24.4171 41.1597 23.7134 41.3224 23.0044 41.326C22.2609 41.3297 21.501 41.1589 20.8525 40.8112L20.8027 41.0095H20.8028Z" fill="#EF5226"/>
<path fill-rule="evenodd" clip-rule="evenodd" d="M0.390745 49.9999H12.2689C12.2694 49.1554 12.2711 50.2338 12.2704 49.813C12.2627 45.1025 12.2605 43.3651 14.5158 42.1849C13.5509 41.863 12.5421 41.6193 11.5545 41.3788L9.33958 44.1083C9.08863 44.43 8.59996 44.4392 8.33942 44.1188L6.11607 41.3788C0.37241 42.7793 0.371682 43.1645 0.380536 48.6373C0.381057 48.9411 0.381161 49.3723 0.390745 49.9999Z" fill="#EF5226"/>
<path fill-rule="evenodd" clip-rule="evenodd" d="M10.5989 40.4508C10.0641 40.7355 9.47424 40.8804 8.87472 40.8804C8.26698 40.8804 7.65132 40.7316 7.07577 40.4292L7.05566 40.5093L8.83451 42.7016L10.6135 40.5093L10.5988 40.4507L10.5989 40.4508Z" fill="#EF5226"/>
<path fill-rule="evenodd" clip-rule="evenodd" d="M8.87512 39.5983C10.4473 39.5983 11.6388 37.9388 11.8756 36.5396C11.8958 36.2685 12.0884 36.0301 12.367 35.964C12.5848 35.9124 12.6979 35.8477 12.7526 35.7503C12.9244 35.4445 13.1116 33.9926 13.0389 33.6494C13.008 33.5038 12.9042 33.3883 12.6687 33.2874C12.3791 33.1642 12.2274 32.8526 12.2956 32.5562C12.974 29.597 11.6676 28.6995 8.83512 28.6995C6.00267 28.6995 4.69635 29.5969 5.37472 32.5562C5.44285 32.8526 5.29117 33.1642 5.00157 33.2874C4.76593 33.3883 4.66218 33.5038 4.63134 33.6494C4.55863 33.9924 4.74583 35.4446 4.91761 35.7503C4.9723 35.8477 5.08543 35.9123 5.30326 35.964C5.58181 36.0301 5.77432 36.2685 5.79464 36.5396C6.04257 38.0052 7.27774 39.5983 8.87512 39.5983Z" fill="#EF5226"/>
<path fill-rule="evenodd" clip-rule="evenodd" d="M33.5847 49.9999H45.4697C45.4697 49.3621 45.4725 48.9436 45.4731 48.6373C45.4819 43.1646 45.4813 42.7794 39.7376 41.3789L37.5228 44.1084C37.2719 44.4301 36.7832 44.4393 36.5227 44.1189L34.2992 41.3788C33.3116 41.6193 32.3027 41.863 31.3379 42.1849C33.593 43.3653 33.5909 45.1026 33.5833 49.8131C33.5827 50.2339 33.5843 49.1552 33.5848 49.9999H33.5847Z" fill="#EF5226"/>
<path fill-rule="evenodd" clip-rule="evenodd" d="M38.7825 40.4508C38.2477 40.7355 37.6578 40.8804 37.0583 40.8804C36.4506 40.8804 35.8349 40.7316 35.2594 40.4292L35.2393 40.5093L37.0181 42.7016L38.7971 40.5093L38.7824 40.4507L38.7825 40.4508Z" fill="#EF5226"/>
<path fill-rule="evenodd" clip-rule="evenodd" d="M37.0586 39.5983C38.6308 39.5983 39.8223 37.9389 40.0591 36.5396C40.0793 36.2686 40.2719 36.0301 40.5505 35.9641C40.7683 35.9124 40.8814 35.8477 40.9361 35.7503C41.1079 35.4447 41.2951 33.9925 41.2224 33.6494C41.1916 33.5038 41.0877 33.3883 40.8522 33.2874C40.5626 33.1642 40.4109 32.8526 40.4791 32.5563C40.7958 31.1745 40.6876 30.202 40.155 29.6066C39.605 28.9918 38.5586 28.6996 37.0187 28.6996C35.4788 28.6996 34.4324 28.9918 33.8824 29.6066C33.3498 30.202 33.2416 31.1746 33.5583 32.5563C33.6264 32.8526 33.4748 33.1642 33.1852 33.2874C32.9495 33.3883 32.8458 33.5038 32.8149 33.6494C32.7422 33.9924 32.9294 35.4447 33.1012 35.7503C33.1559 35.8477 33.269 35.9123 33.4869 35.9641C33.7654 36.0301 33.9579 36.2686 33.9782 36.5396C34.2262 38.0052 35.4614 39.5983 37.0588 39.5983H37.0586Z" fill="#EF5226"/>
</svg>
