<svg width="51" height="50" viewBox="0 0 51 50" fill="none" xmlns="http://www.w3.org/2000/svg">
<path d="M36.0885 28.2533C32.2106 28.2533 28.9658 31.4189 28.9658 35.376C28.9658 39.333 32.1315 42.4987 36.0885 42.4987C40.0455 42.4987 43.2112 39.333 43.2112 35.376C43.2112 31.4189 39.9664 28.2533 36.0885 28.2533ZM38.4627 38.6999C37.9879 39.0956 37.3548 39.333 36.5633 39.4122V40.2827H35.7719V39.4122C34.664 39.333 33.7143 38.8582 32.8437 38.1459L33.7143 37.1171C34.3474 37.6711 35.0597 38.0668 35.7719 38.1459V35.8508C34.9014 35.6134 34.2683 35.376 33.7934 34.9803C33.3977 34.6637 33.1603 34.1097 33.1603 33.4766C33.1603 32.8435 33.3977 32.2103 33.8726 31.8146C34.3474 31.4189 34.9805 31.1815 35.6928 31.1024V30.5484H36.4842V31.1815C37.3548 31.2607 38.1462 31.5772 38.9376 32.0521L38.1462 33.16C37.5922 32.7643 37.0382 32.5269 36.4842 32.4478V34.6637C37.3548 34.9011 38.067 35.1386 38.4627 35.5343C38.8584 35.93 39.0959 36.4048 39.0959 37.1171C39.2541 37.6711 39.0167 38.225 38.4627 38.6999Z" fill="#EF5226"/>
<path d="M50.255 37.8294L48.2764 36.5631C48.3556 35.6134 48.3556 34.6637 48.1973 33.7932L50.1758 32.5269C50.4924 32.2895 50.6507 31.8938 50.4924 31.5773L48.7513 27.6202C48.593 27.3036 48.1973 27.0662 47.8807 27.1454L45.5857 27.6993C45.0317 26.9871 44.3194 26.354 43.6071 25.7208L44.082 23.4257C44.1611 23.03 43.9237 22.7135 43.6071 22.5552L39.5709 20.9724C39.1752 20.8141 38.7795 20.9724 38.6213 21.2889L37.355 23.2675C36.4845 23.1883 35.5348 23.1883 34.5851 23.3466L33.3188 21.3681C33.0814 21.0515 32.6857 20.8932 32.3691 21.0515L28.4121 22.7926C28.0164 22.9509 27.8581 23.3466 27.9372 23.7423L28.4912 26.0374C27.779 26.6705 27.0667 27.3036 26.5127 28.0159L24.2176 27.5411C23.8219 27.4619 23.4262 27.6994 23.3471 28.0159L21.7642 32.0521C21.606 32.3687 21.7642 32.8435 22.0808 33.0018L24.0593 34.268C23.9802 35.2177 23.9802 36.1674 24.0593 37.038L22.0808 38.3834C21.7642 38.6208 21.606 39.0165 21.7642 39.3331L23.5053 43.2901C23.6636 43.6067 24.0593 43.8441 24.455 43.765L26.7501 43.211C27.3041 43.9232 28.0164 44.5564 28.7286 45.1895L28.0955 47.4054C28.0164 47.8011 28.2538 48.1177 28.5704 48.276L32.6065 49.9379C32.9231 50.0962 33.398 49.9379 33.5562 49.6214L34.8225 47.6429C35.7722 47.722 36.7219 47.722 37.5924 47.5637L38.8587 49.5422C39.0961 49.8588 39.4918 50.0171 39.8084 49.8588L43.7654 48.1177C44.082 47.9594 44.3194 47.5637 44.2403 47.168L43.6863 44.8729C44.3985 44.2398 45.1108 43.6067 45.6648 42.8944L47.9599 43.3692C48.3556 43.4484 48.7513 43.211 48.8304 42.8944L50.4132 38.8582C50.7298 38.3834 50.5715 37.9877 50.255 37.8294ZM36.0887 44.0024C31.3403 44.0024 27.3832 40.1245 27.3832 35.2969C27.3832 30.5484 31.2611 26.5914 36.0887 26.5914C40.9163 26.5914 44.7942 30.4693 44.7942 35.2969C44.7151 40.1245 40.8372 44.0024 36.0887 44.0024Z" fill="#EF5226"/>
<path d="M36.5635 36.0092V38.146C36.9592 38.146 37.2757 37.9877 37.434 37.8294C37.6714 37.6711 37.7506 37.4337 37.7506 37.1171C37.7506 36.8797 37.6714 36.6423 37.5132 36.484C37.3549 36.3257 37.0383 36.1674 36.5635 36.0092Z" fill="#EF5226"/>
<path d="M34.6641 33.3183C34.6641 33.5558 34.7432 33.7932 34.9015 33.9515C35.0598 34.1098 35.3763 34.268 35.772 34.4263V32.3687C35.4555 32.3687 35.1389 32.5269 34.9806 32.6852C34.8223 32.8435 34.6641 33.0018 34.6641 33.3183Z" fill="#EF5226"/>
<path d="M14.7994 21.7638C18.6773 21.7638 21.9221 18.5982 21.9221 14.6411C21.9221 10.6841 18.7565 7.51843 14.7994 7.51843C10.8424 7.51843 7.67676 10.6841 7.67676 14.6411C7.67676 18.5982 10.8424 21.7638 14.7994 21.7638ZM13.6915 10.8424C13.6915 10.3675 14.008 10.0509 14.4829 10.0509C14.9577 10.0509 15.2743 10.3675 15.2743 10.8424V14.2454H18.6773C19.1522 14.2454 19.4688 14.562 19.4688 15.0368C19.4688 15.5117 19.1522 15.8282 18.6773 15.8282H14.4829C14.008 15.8282 13.6915 15.5117 13.6915 15.0368V10.8424Z" fill="#EF5226"/>
<path d="M4.03619 20.6558L2.69079 22.5552C2.45337 22.8717 2.53251 23.2674 2.76993 23.584C5.38158 25.9582 5.93557 27.4619 6.88526 26.7496L8.78464 25.4042C9.65519 25.8791 10.4466 26.1956 11.3963 26.4331L11.792 28.7281C11.8711 29.1239 12.1877 29.3613 12.5834 29.3613H16.9362C17.3319 29.3613 17.6484 29.1239 17.7276 28.7281L18.1233 26.4331C19.073 26.1956 19.9435 25.7999 20.7349 25.4042L22.6343 26.7496C22.9509 26.987 23.3466 26.9079 23.6631 26.6705L26.7496 23.584C26.987 23.2674 27.0662 22.8717 26.8288 22.5552L25.4834 20.6558C25.9582 19.8644 26.2748 18.9938 26.5122 18.0441L28.8073 17.6484C29.203 17.5693 29.4404 17.2527 29.4404 16.857V12.5043C29.4404 12.1086 29.203 11.792 28.8073 11.7129L26.5122 11.3171C26.2748 10.4466 25.8791 9.57605 25.4042 8.7055L26.7496 6.80612C26.987 6.48955 26.9079 6.09385 26.6705 5.77729L23.584 2.69079C23.3466 2.45337 22.9509 2.37423 22.6343 2.61165L20.7349 3.95705C19.9435 3.4822 19.073 3.16564 18.1233 2.92821L17.7276 0.633127C17.6484 0.237423 17.3319 0 16.9362 0H12.5834C12.1877 0 11.8711 0.316564 11.792 0.633127L11.3963 2.92821C10.4466 3.16564 9.65519 3.4822 8.78464 3.95705L6.88526 2.61165C6.56869 2.37423 6.09385 2.45337 5.85643 2.69079L2.76993 5.77729C2.53251 6.01471 2.45337 6.48955 2.69079 6.80612L4.03619 8.7055C3.56134 9.49691 3.24478 10.3675 2.92821 11.3171L0.633127 11.7129C0.237423 11.792 0 12.1086 0 12.5043V16.857C0 17.2527 0.316564 17.5693 0.633127 17.6484L2.92821 18.0441C3.24478 18.9147 3.56134 19.7852 4.03619 20.6558ZM14.7993 6.01471C19.5478 6.01471 23.5048 9.89261 23.5048 14.7202C23.5048 19.5478 19.6269 23.4257 14.7993 23.4257C9.97175 23.4257 6.09385 19.5478 6.09385 14.7202C6.09385 9.89261 9.97175 6.01471 14.7993 6.01471Z" fill="#EF5226"/>
<path d="M21.1305 45.1103C14.0079 43.6066 8.23057 38.4624 5.85634 31.6563L7.28088 32.3686C7.67658 32.606 8.15143 32.3686 8.30971 32.052C8.46799 31.7355 8.30971 31.1815 7.914 31.0232C5.7772 30.0735 4.51095 29.0447 4.11524 29.4404C3.95696 29.5195 3.79868 29.5987 3.71954 29.7569L2.13672 32.8434C1.8993 33.2391 2.13672 33.714 2.53242 33.8723C2.92813 34.1097 3.40297 33.8723 3.56126 33.4766L4.19438 32.1312C6.72689 39.4121 12.979 44.952 20.5765 46.5348C21.0514 46.614 21.4471 46.2974 21.5262 45.9017C21.8428 45.5851 21.5262 45.1894 21.1305 45.1103Z" fill="#EF5226"/>
<path d="M28.807 4.66933C36.642 6.01472 42.9733 11.792 45.1101 19.3895L43.7647 18.5981C43.369 18.3607 42.8941 18.519 42.6567 18.9147C42.4193 19.3104 42.5775 19.7852 42.9733 20.0227C45.0309 21.1306 46.0597 22.0012 46.4555 21.8429C47.0094 22.0012 47.7217 20.0227 48.7505 18.4398C48.988 18.0441 48.8297 17.5693 48.434 17.3319C48.0383 17.0944 47.5634 17.2527 47.326 17.6484L46.5346 18.9938C44.2395 10.8423 37.3542 4.59019 28.9653 3.16565C28.5696 3.08651 28.0948 3.40307 28.0156 3.79878C28.0948 4.19448 28.4113 4.59019 28.807 4.66933Z" fill="#EF5226"/>
</svg>
