<svg width="26" height="26" viewBox="0 0 26 26" fill="none" xmlns="http://www.w3.org/2000/svg">
<path d="M14.8787 10.5639H21.644C23.124 10.5639 23.996 10.4582 24.2603 10.2468C24.5246 10.0354 24.8241 9.92968 25.1588 9.92968C25.5464 9.92968 25.7402 10.1059 25.7402 10.4582C25.7402 10.6873 25.6257 10.9956 25.3967 11.3832C25.1853 11.7531 24.9915 12.1672 24.8153 12.6252C24.6391 13.0657 24.4277 13.374 24.181 13.5502C23.9344 13.7264 23.4058 13.8145 22.5954 13.8145H14.8787V21.8747C14.8787 22.6851 14.7818 23.2137 14.588 23.4603C14.4118 23.707 14.0947 23.9272 13.6366 24.121C13.1962 24.2972 12.7822 24.491 12.3946 24.7024C12.0246 24.9138 11.7339 25.0195 11.5225 25.0195C11.1525 25.0195 10.9675 24.8257 10.9675 24.4381C10.9675 24.1034 11.038 23.8567 11.1789 23.6982C11.4784 23.3282 11.6282 22.4033 11.6282 20.9233V13.8145H4.86286C3.36532 13.8145 2.48442 13.929 2.22015 14.158C1.95588 14.3694 1.66518 14.4751 1.34806 14.4751C0.942842 14.4751 0.740234 14.2901 0.740234 13.9202C0.740234 13.7087 0.845943 13.4181 1.05736 13.0481C1.28639 12.6605 1.489 12.2376 1.66518 11.7796C1.84136 11.3215 2.05278 11.0044 2.29943 10.8282C2.5637 10.652 3.09224 10.5639 3.88505 10.5639H11.6282V3.16435C11.6282 2.37154 11.7163 1.85181 11.8925 1.60515C12.0686 1.34088 12.377 1.12066 12.8174 0.944478C13.2755 0.768298 13.6895 0.5745 14.0595 0.363083C14.4471 0.134049 14.7554 0.0195312 14.9844 0.0195312C15.3368 0.0195312 15.513 0.222139 15.513 0.627354C15.513 0.944478 15.4425 1.19113 15.3015 1.36731C15.0197 1.71967 14.8787 2.64462 14.8787 4.14215V10.5639Z" fill="#EF5226"/>
</svg>
