<svg width="50" height="50" viewBox="0 0 50 50" fill="none" xmlns="http://www.w3.org/2000/svg">
<path d="M43.2417 28.9903C44.0112 28.9903 44.6369 28.3619 44.6369 27.5951V22.4075C44.6369 21.638 44.0113 21.0095 43.2417 21.0095H41.2874C40.8749 19.3098 40.2022 17.7098 39.3164 16.2538L40.6977 14.8697C41.243 14.3271 41.243 13.4385 40.6977 12.896L37.0298 9.22809C36.4873 8.68278 35.5987 8.68278 35.0561 9.22809L33.672 10.6094C32.2187 9.7236 30.6187 9.05094 28.9163 8.63571V6.68415C28.9163 5.91462 28.2879 5.28893 27.5183 5.28893H22.3307C21.5639 5.28893 20.9355 5.91452 20.9355 6.68415V8.63844C19.2331 9.05094 17.6331 9.7236 16.1797 10.6094L14.7957 9.22809C14.2531 8.68278 13.3645 8.68278 12.8219 9.22809L9.15406 12.896C8.60875 13.4385 8.60875 14.3271 9.15406 14.8697L10.5354 16.2538C9.64684 17.7071 8.97691 19.3071 8.56168 21.0095H6.61012C5.84059 21.0095 5.21217 21.638 5.21217 22.4075V27.5951C5.21217 28.3619 5.84059 28.9903 6.61012 28.9903H8.56168C8.97691 30.6927 9.64957 32.2927 10.5354 33.7489L9.15406 35.1302C8.60875 35.6728 8.60875 36.5614 9.15406 37.104L12.8219 40.7718C13.3645 41.3172 14.2531 41.3172 14.7957 40.7718L16.1797 39.3905C17.6331 40.2763 19.2331 40.949 20.9355 41.3615V43.3159C20.9355 44.0854 21.5639 44.7138 22.3307 44.7138H27.5183C28.2879 44.7138 28.9163 44.0854 28.9163 43.3159V41.3643C30.6187 40.9491 32.2187 40.2792 33.672 39.3906L35.0561 40.7719C35.5987 41.3173 36.4873 41.3173 37.0298 40.7719L40.6977 37.1041C41.243 36.5615 41.243 35.6729 40.6977 35.1303L39.3164 33.7463C40.2022 32.2929 40.8749 30.6929 41.2874 28.9905H43.2417V28.9903ZM24.9245 38.3302C17.5638 38.3302 11.5956 32.362 11.5956 25.0013C11.5956 17.6407 17.5638 11.6696 24.9245 11.6696C32.2851 11.6696 38.2562 17.6379 38.2562 25.0012C38.2562 32.3646 32.2879 38.3301 24.9245 38.3301V38.3302ZM19.1555 20.957C18.9672 20.8352 18.7569 20.7494 18.5298 20.7079C19.4628 18.0255 22.004 16.1625 24.9244 16.1625C27.8448 16.1625 30.3888 18.0255 31.3217 20.7079C31.0948 20.7494 30.8816 20.8352 30.6962 20.957C29.8767 18.5597 27.6013 16.8351 24.9244 16.8351C22.2474 16.8351 19.9748 18.5597 19.1554 20.957H19.1555ZM37.0824 25.0013C37.0824 27.4291 36.371 29.6907 35.1447 31.5897C34.3835 29.1122 32.1439 27.5481 29.6913 26.7398C29.9543 26.4104 30.1868 26.0506 30.3778 25.6685C30.6823 26.0062 31.1252 26.2167 31.6125 26.2167H32.7779C33.6997 26.2167 34.4471 25.4692 34.4471 24.5502V22.3522C34.4471 21.4304 33.6998 20.683 32.7779 20.683H32.5454C31.5627 17.3528 28.4899 14.9916 24.9245 14.9916C21.359 14.9916 18.2891 17.3529 17.3064 20.683H17.0711C16.152 20.683 15.4018 21.4304 15.4018 22.3522V24.5502C15.4018 25.4692 16.152 26.2167 17.0711 26.2167H18.2365C18.7264 26.2167 19.1666 26.0062 19.4739 25.6685C19.6649 26.0506 19.8974 26.4104 20.1604 26.7398C17.7078 27.5454 15.4683 29.1122 14.7071 31.5897C13.4807 29.6907 12.7666 27.4291 12.7666 25.0013C12.7666 18.2857 18.2116 12.8433 24.9246 12.8433C31.6376 12.8433 37.0826 18.2856 37.0826 25.0013H37.0824ZM34.2118 32.8465C29.3536 38.5932 20.4981 38.5932 15.6371 32.8465C15.9387 30.1889 18.2254 28.4672 21.096 27.6809C23.3298 29.4831 26.5216 29.4831 28.7528 27.6809C31.6262 28.4672 33.9128 30.1889 34.2117 32.8465H34.2118ZM19.9998 22.9335C19.9998 20.2123 22.2033 18.006 24.9244 18.006C27.568 18.006 29.7245 20.0877 29.8463 22.7008H27.748C26.7763 22.7008 25.9902 23.4898 25.9902 24.4587C25.9902 25.4275 26.7763 26.2165 27.748 26.2165H28.5978C27.6954 27.2268 26.386 27.8608 24.9244 27.8608C22.2033 27.8608 19.9998 25.6546 19.9998 22.9334V22.9335ZM18.2364 21.8539C18.5104 21.8539 18.7346 22.0781 18.7346 22.3521V24.5501C18.7346 24.8214 18.5104 25.0456 18.2364 25.0456H17.071C16.7997 25.0456 16.5754 24.8214 16.5754 24.5501V22.3521C16.5754 22.0781 16.7997 21.8539 17.071 21.8539H18.2364ZM31.1169 22.3521C31.1169 22.0781 31.3411 21.8539 31.6124 21.8539H32.7778C33.0518 21.8539 33.2761 22.0781 33.2761 22.3521V24.5501C33.2761 24.8214 33.0519 25.0456 32.7778 25.0456H31.6124C31.3411 25.0456 31.1169 24.8214 31.1169 24.5501V22.3521ZM29.9459 23.8747C29.9459 24.2594 29.9127 24.6996 30.0207 25.0456H27.748C27.4242 25.0456 27.1611 24.7826 27.1611 24.4587C27.1611 24.1347 27.4241 23.8746 27.748 23.8746H29.946L29.9459 23.8747ZM1.79606 28.7937C1.84586 29.1121 1.62994 29.411 1.31158 29.4636C0.993223 29.5163 0.694297 29.3004 0.641661 28.982C-1.01371 18.867 3.77262 8.80446 12.6225 3.6944C23.568 -2.62542 37.4838 0.380826 44.8528 10.5706L44.6286 8.66608C44.5899 8.34499 44.8223 8.05436 45.1434 8.01833C45.4645 7.98239 45.7524 8.21208 45.7912 8.53317L46.306 12.9263C46.3614 13.3997 45.8437 13.7429 45.4285 13.4938L41.6221 11.2405C41.3454 11.0744 41.254 10.7174 41.4172 10.4378C41.5805 10.1609 41.9404 10.0696 42.2172 10.2329L43.8782 11.2156C36.8527 1.54352 23.6151 -1.30218 13.2094 4.70758C4.7774 9.57409 0.220957 19.1632 1.79606 28.7937ZM37.2263 46.3054C26.2808 52.6253 12.3678 49.619 4.99889 39.432L5.22311 41.3338C5.25914 41.6548 5.02936 41.9456 4.70826 41.9815C4.38717 42.0203 4.09645 41.7878 4.06051 41.4667L3.54566 37.0762C3.49029 36.6001 4.00514 36.2596 4.4232 36.506L8.22672 38.7593C8.50631 38.9255 8.59762 39.2825 8.43434 39.5621C8.27106 39.8389 7.91119 39.933 7.63434 39.767L5.97623 38.7842C13.0019 48.4591 26.2368 51.3021 36.6424 45.2951C45.0052 40.4645 49.6503 30.8921 48.0558 21.2061C48.0032 20.8878 48.2191 20.5888 48.5375 20.5362C48.8586 20.4836 49.1576 20.7023 49.2101 21.0206C50.8655 31.1329 46.0793 41.1953 37.2265 46.3054H37.2263Z" fill="#EF5226"/>
</svg>
