<svg width="43" height="50" viewBox="0 0 43 50" fill="none" xmlns="http://www.w3.org/2000/svg">
<path d="M6.47715 12.5976H8.23369C9.9456 12.5976 11.3392 13.9912 11.3392 15.7031V21.6113C12.2532 20.8935 13.2327 20.2783 14.2688 19.7705V15.7031C14.2688 12.375 11.5618 9.66794 8.23369 9.66794H6.47715L7.78506 8.35994L5.71357 6.28845L0.869141 11.1328L5.71357 15.9771L7.78516 13.9055L6.47715 12.5976Z" fill="#EF5226"/>
<path d="M37.4723 6.28845L35.4007 8.36003L36.7087 9.66794H34.9521C31.624 9.66794 28.917 12.375 28.917 15.7031V19.7705C29.9531 20.2783 30.9326 20.8935 31.8467 21.6113V15.7031C31.8467 13.9912 33.2402 12.5976 34.9521 12.5976H36.7087L35.4008 13.9056L37.4724 15.9772L42.3167 11.1328L37.4723 6.28845Z" fill="#EF5226"/>
<path d="M20.1285 5.60811V16.5039H23.0582V5.60811L24.415 6.96484L26.4865 4.89326L21.5934 0L16.7002 4.89326L18.7717 6.96484L20.1285 5.60811Z" fill="#EF5226"/>
<path d="M33.2021 24.2578C32.9725 24.3905 31.7368 25.1046 31.5371 25.2197C30.732 24.4836 29.8381 23.6888 28.917 23.124C27.6901 22.3209 26.2524 21.7817 24.8457 21.3525V19.4336C22.9721 19.4336 20.2135 19.4336 18.3398 19.4336V21.3525C16.9318 21.7823 15.4965 22.3204 14.2686 23.124C13.3487 23.6877 12.4516 24.485 11.6484 25.2197C11.4555 25.1085 10.2056 24.3861 9.9834 24.2578L6.73047 29.8926L8.3916 30.8516C8.11133 32.1038 7.86318 33.4294 7.88184 34.7168C7.86299 36.0029 8.11143 37.3315 8.3916 38.582L6.73047 39.541L9.9834 45.1758L11.6484 44.2139C13.7899 46.2415 15.5216 47.2433 18.3398 48.0811V50H24.8457V48.0811C27.6655 47.2429 29.3967 46.2403 31.5371 44.2139L33.2021 45.1758L36.4551 39.541L34.7939 38.582C35.0742 37.3298 35.3224 36.0042 35.3037 34.7168C35.3226 33.4307 35.0741 32.1021 34.7939 30.8516L36.4551 29.8926L33.2021 24.2578ZM21.5928 39.3262C19.0469 39.3262 16.9834 37.2627 16.9834 34.7168C17.2259 28.6025 25.9605 28.6042 26.2021 34.7168C26.2021 37.2627 24.1387 39.3262 21.5928 39.3262Z" fill="#EF5226"/>
</svg>
