<svg width="61" height="50" viewBox="0 0 61 50" fill="none" xmlns="http://www.w3.org/2000/svg">
<path d="M34.3478 6.86955L27.4891 10.2935C26.7374 10.6727 25.9072 10.87 25.0652 10.8696H0V46.7391C0.00253205 47.6032 0.3469 48.4311 0.957883 49.0421C1.56887 49.6531 2.39681 49.9975 3.26087 50H57.6087C58.4728 49.9975 59.3007 49.6531 59.9117 49.0421C60.5227 48.4311 60.867 47.6032 60.8696 46.7391V6.52173H35.8043C35.2984 6.52321 34.7998 6.64229 34.3478 6.86955ZM29.6522 40.1739C29.6512 40.5601 29.5544 40.9401 29.3704 41.2797C29.1864 41.6193 28.9209 41.9079 28.5978 42.1196L22.3587 46.2065C21.977 46.4548 21.5314 46.5869 21.0761 46.5869C20.6207 46.5869 20.1752 46.4548 19.7935 46.2065L13.5543 42.1196C13.2296 41.9096 12.9629 41.6214 12.7786 41.2814C12.5944 40.9414 12.4986 40.5606 12.5 40.1739V33.3478C12.5023 32.9618 12.5997 32.5824 12.7836 32.243C12.9675 31.9036 13.2322 31.6148 13.5543 31.4022L19.7935 27.3152C20.1745 27.0652 20.6203 26.932 21.0761 26.932C21.5318 26.932 21.9776 27.0652 22.3587 27.3152L28.5978 31.4022C28.9196 31.6152 29.1841 31.904 29.368 32.2433C29.5518 32.5826 29.6494 32.9619 29.6522 33.3478V40.1739ZM41.0761 27.3152L47.3152 31.4022C47.6374 31.6148 47.9021 31.9036 48.086 32.243C48.2699 32.5823 48.3673 32.9618 48.3696 33.3478V40.1739C48.371 40.5606 48.2752 40.9414 48.0909 41.2814C47.9067 41.6214 47.6399 41.9096 47.3152 42.1196L41.0761 46.2065C40.6944 46.4548 40.2488 46.5869 39.7935 46.5869C39.3381 46.5869 38.8926 46.4548 38.5109 46.2065L32.2717 42.1196C31.9487 41.9079 31.6832 41.6193 31.4992 41.2797C31.3152 40.9401 31.2183 40.5601 31.2174 40.1739V33.3478C31.2201 32.9619 31.3178 32.5826 31.5016 32.2433C31.6855 31.904 31.9499 31.6152 32.2717 31.4022L38.5109 27.3152C38.8919 27.0652 39.3377 26.932 39.7935 26.932C40.2492 26.932 40.695 27.0652 41.0761 27.3152ZM39.0109 17.4348V24.2609C39.0123 24.6475 38.9165 25.0284 38.7323 25.3684C38.548 25.7084 38.2813 25.9966 37.9565 26.2065L31.7174 30.2935C31.3363 30.5432 30.8905 30.6763 30.4348 30.6763C29.9791 30.6763 29.5333 30.5432 29.1522 30.2935L22.913 26.2065C22.5883 25.9966 22.3216 25.7084 22.1373 25.3684C21.9531 25.0284 21.8573 24.6475 21.8587 24.2609V17.4348C21.8609 17.0488 21.9583 16.6693 22.1422 16.3299C22.3261 15.9905 22.5909 15.7018 22.913 15.4891L29.1522 11.4022C29.5332 11.1522 29.979 11.019 30.4348 11.019C30.8905 11.019 31.3363 11.1522 31.7174 11.4022L37.9565 15.4891C38.2787 15.7018 38.5434 15.9905 38.7273 16.3299C38.9112 16.6693 39.0086 17.0488 39.0109 17.4348Z" fill="#EF5226"/>
<path d="M57.6087 0H3.26087C2.39681 0.00252064 1.56886 0.346885 0.957871 0.957872C0.346885 1.56886 0.00252064 2.39681 0 3.26087V8.69565H25.0652C25.5711 8.69417 26.0698 8.57509 26.5217 8.34783L33.3804 4.92391C34.1321 4.54471 34.9624 4.34738 35.8043 4.34783H60.8696V3.26087C60.867 2.39681 60.5227 1.56886 59.9117 0.957872C59.3007 0.346885 58.4728 0.00252064 57.6087 0ZM5.45652 6.52174C5.1728 6.51623 4.90247 6.40001 4.70327 6.19791C4.50406 5.99581 4.39177 5.72383 4.39035 5.44006C4.38894 5.15629 4.49853 4.88321 4.69571 4.67913C4.8929 4.47506 5.16205 4.35616 5.44571 4.34783C5.72943 4.35334 5.99975 4.46955 6.19896 4.67165C6.39816 4.87376 6.51046 5.14573 6.51187 5.42951C6.51328 5.71328 6.4037 5.98636 6.20651 6.19043C6.00933 6.39451 5.74018 6.51341 5.45652 6.52174ZM9.80435 6.52174C9.52063 6.51623 9.2503 6.40001 9.0511 6.19791C8.85189 5.99581 8.73959 5.72383 8.73818 5.44006C8.73677 5.15629 8.84636 4.88321 9.04354 4.67913C9.24072 4.47506 9.50988 4.35616 9.79353 4.34783C10.0773 4.35334 10.3476 4.46955 10.5468 4.67165C10.746 4.87376 10.8583 5.14573 10.8597 5.42951C10.8611 5.71328 10.7515 5.98636 10.5543 6.19043C10.3572 6.39451 10.088 6.51341 9.80435 6.52174ZM14.1522 6.52174C13.8685 6.51623 13.5981 6.40001 13.3989 6.19791C13.1997 5.99581 13.0874 5.72383 13.086 5.44006C13.0846 5.15629 13.1942 4.88321 13.3914 4.67913C13.5886 4.47506 13.8577 4.35616 14.1414 4.34783C14.4251 4.35334 14.6954 4.46955 14.8946 4.67165C15.0938 4.87376 15.2061 5.14573 15.2075 5.42951C15.2089 5.71328 15.0994 5.98636 14.9022 6.19043C14.705 6.39451 14.4358 6.51341 14.1522 6.52174Z" fill="#EF5226"/>
<path d="M14.6739 34.6847V40.1738C14.673 40.2005 14.6797 40.2269 14.6932 40.25C14.7066 40.2731 14.7263 40.2919 14.75 40.3043L19.9891 43.739V38.1412C19.9217 38.1092 19.8563 38.0729 19.7935 38.0325L14.6739 34.6847Z" fill="#EF5226"/>
<path d="M22.1631 38.1412V43.739L27.4022 40.3043C27.4243 40.2901 27.4428 40.2709 27.456 40.2482C27.4692 40.2255 27.4769 40.2 27.4783 40.1738V34.6738L22.3587 38.0325C22.2959 38.0729 22.2305 38.1092 22.1631 38.1412Z" fill="#EF5226"/>
<path d="M21.1631 29.1303C21.1365 29.1156 21.1066 29.1079 21.0762 29.1079C21.0458 29.1079 21.0158 29.1156 20.9892 29.1303L15.5762 32.6738L20.9892 36.2173C21.0144 36.2358 21.0449 36.2458 21.0762 36.2458C21.1075 36.2458 21.1379 36.2358 21.1631 36.2173L26.5762 32.6738L21.1631 29.1303Z" fill="#EF5226"/>
<path d="M40.8809 38.1412V43.739L46.12 40.3043C46.1437 40.2919 46.1634 40.2731 46.1768 40.25C46.1903 40.2269 46.197 40.2005 46.1961 40.1738V34.6847L41.0765 38.0325C41.0137 38.0729 40.9483 38.1092 40.8809 38.1412Z" fill="#EF5226"/>
<path d="M33.3906 34.6738V40.1738C33.3921 40.2 33.3997 40.2255 33.4129 40.2482C33.4262 40.2709 33.4446 40.2901 33.4667 40.3043L38.7058 43.739V38.1412C38.6384 38.1092 38.573 38.0729 38.5102 38.0325L33.3906 34.6738Z" fill="#EF5226"/>
<path d="M39.706 36.2173C39.7312 36.2358 39.7617 36.2458 39.793 36.2458C39.8243 36.2458 39.8547 36.2358 39.8799 36.2173L45.293 32.6738L39.8799 29.1303C39.8533 29.1156 39.8234 29.1079 39.793 29.1079C39.7626 29.1079 39.7326 29.1156 39.706 29.1303L34.293 32.6738L39.706 36.2173Z" fill="#EF5226"/>
<path d="M30.4355 13.1956C30.4053 13.1963 30.3756 13.2037 30.3486 13.2173L24.9355 16.7608L30.3486 20.3043C30.3727 20.3253 30.4036 20.3368 30.4355 20.3368C30.4675 20.3368 30.4984 20.3253 30.5225 20.3043L35.9355 16.7608L30.5225 13.2173C30.4955 13.2037 30.4658 13.1963 30.4355 13.1956Z" fill="#EF5226"/>
<path d="M24.0332 18.7609V24.2609C24.0347 24.2871 24.0423 24.3126 24.0555 24.3352C24.0688 24.3579 24.0872 24.3771 24.1093 24.3913L29.3484 27.8261V22.2283C29.281 22.1962 29.2156 22.1599 29.1528 22.1196L24.0332 18.7609Z" fill="#EF5226"/>
<path d="M31.5215 22.2391V27.8261L36.7606 24.3913C36.7827 24.3771 36.8011 24.3579 36.8144 24.3352C36.8276 24.3126 36.8352 24.2871 36.8367 24.2609V18.7717L31.7171 22.1304C31.6543 22.1708 31.5889 22.2071 31.5215 22.2391Z" fill="#EF5226"/>
</svg>
