<svg width="50" height="50" viewBox="0 0 50 50" fill="none" xmlns="http://www.w3.org/2000/svg">
<path d="M47.7273 39.3939H42.4242V37.8788C42.4215 36.0713 41.7023 34.3387 40.4242 33.0606C39.1462 31.7825 37.4135 31.0633 35.6061 31.0606H29.4697C29.295 30.2051 28.8301 29.4361 28.1537 28.8839C27.4772 28.3317 26.6308 28.0302 25.7576 28.0303H13.6364C12.7632 28.0302 11.9167 28.3317 11.2403 28.8839C10.5638 29.4361 10.0989 30.2051 9.92424 31.0606H8.33333C6.52504 31.0606 4.79081 30.3423 3.51215 29.0636C2.23349 27.7849 1.51515 26.0507 1.51515 24.2424C1.51515 22.4341 2.23349 20.6999 3.51215 19.4212C4.79081 18.1426 6.52504 17.4242 8.33333 17.4242H21.2879C21.4626 18.2798 21.9275 19.0487 22.6039 19.6009C23.2804 20.1531 24.1268 20.4547 25 20.4545H37.1212C37.9944 20.4547 38.8408 20.1531 39.5173 19.6009C40.1937 19.0487 40.6586 18.2798 40.8333 17.4242H42.803C44.7118 17.4242 46.5424 16.666 47.8921 15.3163C49.2417 13.9666 50 12.136 50 10.2273C50 8.31852 49.2417 6.48794 47.8921 5.13825C46.5424 3.78855 44.7118 3.0303 42.803 3.0303H19.6212C19.4465 2.17475 18.9816 1.40583 18.3052 0.853633C17.6287 0.301439 16.7823 -0.000114015 15.9091 3.23375e-08H3.78788C2.78327 3.23375e-08 1.81981 0.399079 1.10944 1.10944C0.399079 1.81981 0 2.78327 0 3.78788C0 4.79249 0.399079 5.75595 1.10944 6.46631C1.81981 7.17668 2.78327 7.57576 3.78788 7.57576H15.9091C16.7823 7.57586 17.6287 7.27431 18.3052 6.72211C18.9816 6.16992 19.4465 5.401 19.6212 4.54545H42.803C44.3099 4.54545 45.7551 5.14407 46.8207 6.20962C47.8862 7.27517 48.4848 8.72036 48.4848 10.2273C48.4848 11.7342 47.8862 13.1794 46.8207 14.2449C45.7551 15.3105 44.3099 15.9091 42.803 15.9091H40.8333C40.6586 15.0535 40.1937 14.2846 39.5173 13.7324C38.8408 13.1802 37.9944 12.8787 37.1212 12.8788H25C24.1268 12.8787 23.2804 13.1802 22.6039 13.7324C21.9275 14.2846 21.4626 15.0535 21.2879 15.9091H8.33333C6.1232 15.9091 4.00358 16.7871 2.44078 18.3499C0.877974 19.9127 0 22.0323 0 24.2424C0 26.4526 0.877974 28.5722 2.44078 30.135C4.00358 31.6978 6.1232 32.5758 8.33333 32.5758H9.92424C10.099 33.4313 10.5639 34.2002 11.2403 34.7524C11.9167 35.3046 12.7632 35.6062 13.6364 35.6061H25.7576C26.6308 35.6062 27.4772 35.3046 28.1536 34.7524C28.8301 34.2002 29.295 33.4313 29.4697 32.5758H35.6061C37.012 32.5773 38.36 33.1365 39.3542 34.1307C40.3483 35.1249 40.9075 36.4728 40.9091 37.8788V39.3939H35.6061C35.0038 39.3957 34.4268 39.6357 34.0009 40.0615C33.5751 40.4874 33.3351 41.0644 33.3333 41.6667V47.7273C33.3351 48.3295 33.5751 48.9065 34.0009 49.3324C34.4268 49.7582 35.0038 49.9982 35.6061 50H47.7273C48.3295 49.9982 48.9065 49.7582 49.3324 49.3324C49.7582 48.9065 49.9982 48.3295 50 47.7273V41.6667C49.9982 41.0644 49.7582 40.4874 49.3324 40.0615C48.9066 39.6357 48.3295 39.3957 47.7273 39.3939Z" fill="#EF5226"/>
</svg>
