<svg width="49" height="50" viewBox="0 0 49 50" fill="none" xmlns="http://www.w3.org/2000/svg">
<path fill-rule="evenodd" clip-rule="evenodd" d="M10.7448 39.3321V41.1388H6.65357C5.64188 41.1388 4.81425 41.7988 4.81425 42.6053V44.3893C4.81425 44.5558 4.95032 44.6917 5.1173 44.6917H23.5735C23.7404 44.6917 23.8765 44.5558 23.8765 44.3893V42.6053C23.8765 41.7987 23.0489 41.1388 22.0372 41.1388H17.946V39.3321H10.7448ZM2.4743 18.6074H10.1384L11.1793 19.0072C11.3363 19.4801 11.5278 19.9412 11.7523 20.3863L10.902 22.2968L14.4013 25.7887L16.3163 24.94C16.7621 25.1638 17.2239 25.3549 17.6976 25.5115L18.4501 27.4623H23.3987L24.151 25.512C24.6251 25.3553 25.087 25.1642 25.533 24.9402L27.4475 25.7888L28.3737 24.8645V32.9313H0.317383V20.7598C0.317383 19.5759 1.28795 18.6074 2.4743 18.6074ZM45.4283 36.5172C45.6479 36.131 46.1399 35.9957 46.5269 36.2148C46.9138 36.434 47.0495 36.9249 46.8299 37.3111C42.3726 45.1565 34.0642 50 25.0253 50C21.3389 50 17.6797 49.1891 14.3454 47.6183C13.9426 47.4287 13.7702 46.9492 13.9602 46.5473C14.1502 46.1454 14.6308 45.9733 15.0335 46.1629C18.173 47.642 21.5547 48.3871 25.0253 48.3871C33.4869 48.3871 41.2553 43.8623 45.4283 36.5172ZM3.25374 16.321C3.08807 16.7333 2.61885 16.9336 2.20569 16.7682C1.79253 16.6029 1.59181 16.1347 1.75748 15.7224C5.56279 6.22419 14.7838 0 25.0253 0C31.4599 0 37.6126 2.45242 42.2776 6.8755C42.6001 7.18165 42.6129 7.69093 42.306 8.0127C41.9992 8.33458 41.4888 8.34728 41.1664 8.04103C36.7904 3.89214 31.0603 1.6129 25.0253 1.6129C15.4423 1.6129 6.81439 7.43165 3.25374 16.321ZM44.9594 20.9108V23.3981H43.3431V20.9108H44.9594ZM48.0143 25.011H29.9897V28.5216H38.6417V30.8658H29.9897V34.3765H48.0143C48.1812 34.3765 48.3174 34.2406 48.3174 34.0741V25.3135C48.3174 25.1468 48.1812 25.011 48.0143 25.011ZM43.3195 31.3538C42.4007 31.3538 41.6558 30.6105 41.6558 29.6936C41.6558 28.7767 42.4007 28.0335 43.3195 28.0335C44.2383 28.0335 44.9831 28.7767 44.9831 29.6936C44.9831 30.6106 44.2382 31.3538 43.3195 31.3538ZM48.0143 9.93246H30.6551L30.0962 11.1882C30.3205 11.6334 30.5121 12.0944 30.6691 12.5674L32.6235 13.3181V13.4431H38.6417V15.7874H32.6235V18.2566L30.6686 19.0075C30.6363 19.1048 30.6024 19.2017 30.5673 19.2981H48.0143C48.1812 19.2981 48.3174 19.1622 48.3174 18.9957V10.2349C48.3174 10.0683 48.1812 9.93246 48.0143 9.93246ZM43.3195 16.2754C42.4007 16.2754 41.6558 15.5321 41.6558 14.6152C41.6558 13.6983 42.4007 12.955 43.3195 12.955C44.2383 12.955 44.9831 13.6984 44.9831 14.6152C44.9831 15.5321 44.2382 16.2754 43.3195 16.2754ZM29.3367 13.7839C29.1249 12.8953 28.7719 12.0464 28.2919 11.2686L29.0189 9.63518L27.0891 7.70937L25.4517 8.43508C24.6725 7.95625 23.8222 7.60403 22.9319 7.39264L22.2888 5.7252H19.5597L18.9165 7.39264C18.0263 7.60403 17.176 7.95625 16.3967 8.43508L14.7594 7.70937L12.8295 9.63518L13.5567 11.2691C13.0767 12.0467 12.7238 12.8953 12.5119 13.7838L10.8412 14.4255V17.149L12.5117 17.7906C12.7237 18.6792 13.0766 19.5281 13.5566 20.3058L12.8295 21.9393L14.7594 23.8651L15.9095 23.3553V23.398H16.8475C17.4999 23.7467 18.195 24.0105 18.9165 24.1818L19.5597 25.8492H22.2889L22.9318 24.1822C23.8223 23.9708 24.673 23.6185 25.4523 23.1395L27.0892 23.865L29.019 21.9392L28.2918 20.3052C28.7716 19.5276 29.1246 18.6791 29.3364 17.7907L31.0073 17.1489V14.4254L29.3367 13.7839ZM20.9241 20.537C18.2953 20.537 16.1646 18.4107 16.1646 15.7873C16.1646 13.1639 18.2954 11.0376 20.9241 11.0376C23.553 11.0376 25.6837 13.1639 25.6837 15.7873C25.6837 18.4107 23.5531 20.537 20.9241 20.537ZM28.3734 34.5441H0.317383V35.5668C0.317383 36.7506 1.28795 37.7192 2.47419 37.7192H26.2166C27.4028 37.7192 28.3734 36.7506 28.3734 35.5668V34.5441Z" fill="#EF5226"/>
</svg>
