<svg width="49" height="50" viewBox="0 0 49 50" fill="none" xmlns="http://www.w3.org/2000/svg">
<path d="M48.7636 36.5873L46.37 34.2303C45.6213 33.4922 44.4533 34.6356 45.2041 35.3746L46.2843 36.4383H30.7351V22.9154H33.48C37.9772 22.9154 41.6364 19.4161 41.6364 15.1155C41.6364 13.2994 40.9824 11.5466 39.795 10.18C38.8734 9.09764 37.642 8.26149 36.2817 7.78571C35.8171 3.37537 31.9537 0 27.2345 0C25.167 0 23.1441 0.681877 21.5309 1.92497C20.3613 2.84453 19.4384 4.02 18.875 5.29224C18.3405 5.16186 17.8038 5.09424 17.2915 5.09424C13.9684 5.09424 11.2066 7.55977 10.9027 10.6873C8.73726 11.8255 7.3642 14.0125 7.3642 16.3894C7.3642 19.9878 10.4237 22.9154 14.1846 22.9154H16.0099V36.4383H2.71581L3.79605 35.3746C4.5456 34.6369 3.3801 33.4905 2.63015 34.2303L0.236557 36.5873C-0.0809682 36.8999 -0.0784972 37.4271 0.241911 37.7369L2.86407 40.2717C3.62391 41.0058 4.77334 39.8461 4.01927 39.1168L2.92379 38.058H16.8331C17.2878 38.058 17.6568 37.6952 17.6568 37.2482V22.9154H22.5482V47.3585L21.435 46.2774C20.6801 45.5449 19.5216 46.6956 20.2773 47.4297L22.6878 49.7702C23.0045 50.0775 23.5329 50.0767 23.8479 49.7673L26.452 47.2147C26.774 46.8993 26.7749 46.3871 26.4544 46.0704C26.5343 46.1494 26.6138 46.2276 26.4536 46.0696C26.2938 45.9121 26.3729 45.9903 26.4528 46.0688C26.1316 45.7534 25.611 45.7518 25.2885 46.068L24.1947 47.1398V22.9154H29.0865V37.2482C29.0865 37.6952 29.4555 38.058 29.9102 38.058H46.0751L44.9796 39.1168C44.2268 39.8449 45.3734 41.007 46.1348 40.2717L48.757 37.7369C49.0786 37.4275 49.0811 36.8999 48.7636 36.5873Z" fill="#EF5226"/>
</svg>
