<svg width="50" height="50" viewBox="0 0 50 50" fill="none" xmlns="http://www.w3.org/2000/svg">
<path d="M34.213 29.718C34.4625 29.2248 34.6732 28.7129 34.8431 28.187C34.8981 28.0121 35.0074 27.8593 35.1552 27.7508C35.3029 27.6423 35.4814 27.5837 35.6647 27.5835H39.6561V22.4137H35.6647C35.4814 22.4135 35.3029 22.3549 35.1552 22.2464C35.0074 22.1379 34.8981 21.9851 34.8431 21.8102C34.6732 21.2843 34.4625 20.7724 34.213 20.2792C34.1321 20.1174 34.1041 19.9343 34.133 19.7558C34.162 19.5773 34.2463 19.4123 34.3742 19.2844L37.1957 16.4654L33.5354 12.8051L30.7138 15.6266C30.5859 15.7545 30.421 15.8388 30.2424 15.8677C30.0639 15.8967 29.8808 15.8687 29.719 15.7878C29.2258 15.5383 28.7139 15.3276 28.188 15.1577C28.0131 15.1027 27.8603 14.9934 27.7518 14.8456C27.6433 14.6979 27.5847 14.5194 27.5845 14.3361V10.3447H22.4147V14.3361C22.4145 14.5194 22.3559 14.6979 22.2474 14.8456C22.1389 14.9934 21.9861 15.1027 21.8112 15.1577C21.2853 15.3276 20.7734 15.5383 20.2802 15.7878C20.1184 15.8687 19.9353 15.8967 19.7568 15.8677C19.5782 15.8388 19.4133 15.7545 19.2854 15.6266L16.4664 12.8051L12.806 16.4654L15.6276 19.287C15.7554 19.4149 15.8398 19.5798 15.8687 19.7584C15.8977 19.9369 15.8697 20.12 15.7888 20.2818C15.5392 20.775 15.3285 21.2869 15.1586 21.8128C15.1036 21.9877 14.9943 22.1405 14.8466 22.249C14.6989 22.3575 14.5204 22.4161 14.3371 22.4163H10.3457V27.5887H14.3371C14.5204 27.5889 14.6989 27.6475 14.8466 27.756C14.9943 27.8645 15.1036 28.0173 15.1586 28.1921C15.3285 28.7181 15.5392 29.23 15.7888 29.7232C15.8697 29.885 15.8977 30.0681 15.8687 30.2466C15.8398 30.4251 15.7554 30.5901 15.6276 30.718L12.806 33.5344L16.4664 37.1947L19.2879 34.3732C19.4159 34.2454 19.5808 34.161 19.7594 34.1321C19.9379 34.1031 20.121 34.1311 20.2828 34.212C20.776 34.4615 21.2878 34.6722 21.8138 34.8422C21.9887 34.8971 22.1415 35.0064 22.25 35.1542C22.3585 35.3019 22.4171 35.4804 22.4173 35.6637V39.6551H27.5897V35.6637C27.5898 35.4804 27.6484 35.3019 27.757 35.1542C27.8655 35.0064 28.0183 34.8971 28.1931 34.8422C28.7191 34.6722 29.231 34.4615 29.7242 34.212C29.8859 34.1311 30.069 34.1031 30.2476 34.1321C30.4261 34.161 30.591 34.2454 30.719 34.3732L33.5354 37.1947L37.1957 33.5344L34.3742 30.7128C34.2463 30.5849 34.162 30.42 34.133 30.2414C34.1041 30.0629 34.1321 29.8798 34.213 29.718ZM36.2078 24.1378H37.9319V25.862H36.2078V24.1378ZM13.794 25.862H12.0698V24.1378H13.794V25.862ZM33.5354 15.2473L34.7535 16.4654L33.5354 17.6852L32.3155 16.4654L33.5354 15.2473ZM24.1388 12.0689H25.863V13.793H24.1388V12.0689ZM16.4664 34.7525L15.2483 33.5344L16.4664 32.3146L17.6862 33.5344L16.4664 34.7525ZM16.4664 17.6835L15.2483 16.4654L16.4664 15.2473L17.6862 16.4654L16.4664 17.6835ZM25.863 37.9309H24.1388V36.2068H25.863V37.9309ZM25.0009 31.8965C23.6369 31.8965 22.3035 31.492 21.1694 30.7342C20.0352 29.9764 19.1513 28.8993 18.6293 27.6391C18.1073 26.3789 17.9707 24.9923 18.2368 23.6545C18.5029 22.3167 19.1598 21.0878 20.1243 20.1233C21.0888 19.1588 22.3176 18.502 23.6554 18.2359C24.9932 17.9698 26.3799 18.1063 27.6401 18.6283C28.9003 19.1503 29.9774 20.0343 30.7352 21.1684C31.493 22.3025 31.8974 23.6359 31.8974 24.9999C31.8954 26.8284 31.1681 28.5813 29.8752 29.8742C28.5823 31.1671 26.8293 31.8944 25.0009 31.8965ZM33.5354 34.7525L32.3155 33.5344L33.5354 32.3146L34.7535 33.5344L33.5354 34.7525Z" fill="#EF5226"/>
<path d="M46.5517 43.1035C45.938 43.1065 45.3364 43.2751 44.8104 43.5914L40.8276 39.6086C44.5075 35.6339 46.5517 30.4167 46.5517 25C46.5517 19.5833 44.5075 14.3662 40.8276 10.3914L44.8104 6.40863C45.3364 6.72497 45.938 6.89354 46.5517 6.89656C47.2338 6.89656 47.9004 6.69432 48.4675 6.31542C49.0346 5.93652 49.4765 5.39797 49.7375 4.76788C49.9985 4.13779 50.0668 3.44445 49.9338 2.77555C49.8007 2.10665 49.4723 1.49223 48.99 1.00998C48.5078 0.527728 47.8934 0.199312 47.2245 0.0662592C46.5556 -0.0667933 45.8622 0.00149407 45.2321 0.262486C44.6021 0.523478 44.0635 0.965452 43.6846 1.53252C43.3057 2.09958 43.1035 2.76627 43.1035 3.44828C43.1065 4.06207 43.2751 4.66367 43.5914 5.18966L39.6086 9.17242C35.6339 5.49253 30.4167 3.44827 25 3.44827C19.5833 3.44827 14.3662 5.49253 10.3914 9.17242L6.40863 5.18966C6.72497 4.66367 6.89354 4.06207 6.89656 3.44828C6.89656 2.76627 6.69432 2.09958 6.31542 1.53252C5.93652 0.965452 5.39797 0.523478 4.76788 0.262486C4.13779 0.00149407 3.44445 -0.0667933 2.77555 0.0662592C2.10665 0.199312 1.49223 0.527728 1.00998 1.00998C0.527728 1.49223 0.199312 2.10665 0.0662592 2.77555C-0.0667933 3.44445 0.00149407 4.13779 0.262486 4.76788C0.523478 5.39797 0.965452 5.93652 1.53252 6.31542C2.09958 6.69432 2.76627 6.89656 3.44828 6.89656C4.06207 6.89354 4.66367 6.72497 5.18966 6.40863L9.17242 10.3914C5.49253 14.3662 3.44827 19.5833 3.44827 25C3.44827 30.4167 5.49253 35.6339 9.17242 39.6086L5.18966 43.5914C4.66367 43.2751 4.06207 43.1065 3.44828 43.1035C2.76627 43.1035 2.09958 43.3057 1.53252 43.6846C0.965452 44.0635 0.523478 44.6021 0.262486 45.2321C0.00149407 45.8622 -0.0667933 46.5556 0.0662592 47.2245C0.199312 47.8934 0.527728 48.5078 1.00998 48.99C1.49223 49.4723 2.10665 49.8007 2.77555 49.9338C3.44445 50.0668 4.13779 49.9985 4.76788 49.7375C5.39797 49.4765 5.93652 49.0346 6.31542 48.4675C6.69432 47.9004 6.89656 47.2338 6.89656 46.5517C6.89354 45.938 6.72497 45.3364 6.40863 44.8104L10.3914 40.8276C14.3662 44.5075 19.5833 46.5517 25 46.5517C30.4167 46.5517 35.6339 44.5075 39.6086 40.8276L43.5914 44.8104C43.2751 45.3364 43.1065 45.938 43.1035 46.5517C43.1035 47.2338 43.3057 47.9004 43.6846 48.4675C44.0635 49.0346 44.6021 49.4765 45.2321 49.7375C45.8622 49.9985 46.5556 50.0668 47.2245 49.9338C47.8934 49.8007 48.5078 49.4723 48.99 48.99C49.4723 48.5078 49.8007 47.8934 49.9338 47.2245C50.0668 46.5556 49.9985 45.8622 49.7375 45.2321C49.4765 44.6021 49.0346 44.0635 48.4675 43.6846C47.9004 43.3057 47.2338 43.1035 46.5517 43.1035ZM25 44.8276C21.0785 44.8276 17.245 43.6647 13.9844 41.4861C10.7238 39.3074 8.18241 36.2107 6.6817 32.5877C5.181 28.9647 4.78835 24.978 5.5534 21.1318C6.31845 17.2857 8.20685 13.7527 10.9798 10.9798C13.7527 8.20685 17.2857 6.31845 21.1318 5.5534C24.978 4.78835 28.9647 5.181 32.5877 6.6817C36.2107 8.18241 39.3074 10.7238 41.4861 13.9844C43.6647 17.245 44.8276 21.0785 44.8276 25C44.8217 30.2568 42.7308 35.2966 39.0137 39.0137C35.2966 42.7308 30.2568 44.8217 25 44.8276Z" fill="#EF5226"/>
<path d="M25.0005 30.1725C27.8572 30.1725 30.173 27.8567 30.173 25.0001C30.173 22.1434 27.8572 19.8276 25.0005 19.8276C22.1439 19.8276 19.8281 22.1434 19.8281 25.0001C19.8281 27.8567 22.1439 30.1725 25.0005 30.1725Z" fill="#EF5226"/>
</svg>
