<svg width="50" height="50" viewBox="0 0 50 50" fill="none" xmlns="http://www.w3.org/2000/svg">
<path d="M22.4702 26.6366V19.4044C21.1138 19.5707 19.8314 20.1148 18.7693 20.9746C17.7071 21.8344 16.908 22.9754 16.4629 24.2675C16.0179 25.5595 15.9449 26.9506 16.2522 28.2822C16.5596 29.6137 17.2349 30.8321 18.2012 31.7984C19.1675 32.7647 20.3859 33.44 21.7174 33.7474C23.049 34.0547 24.4401 33.9817 25.7321 33.5367C27.0242 33.0916 28.1652 32.2925 29.025 31.2303C29.8848 30.1682 30.4289 28.8858 30.5952 27.5294H23.363C23.1262 27.5294 22.8991 27.4354 22.7317 27.2679C22.5643 27.1005 22.4702 26.8734 22.4702 26.6366Z" fill="#EF5226"/>
<path d="M27.5293 16.1259V22.4705H33.8739C33.6726 20.858 32.9394 19.3586 31.7903 18.2095C30.6412 17.0604 29.1418 16.3272 27.5293 16.1259Z" fill="#EF5226"/>
<path d="M25.0003 11.6072C22.3514 11.6072 19.7621 12.3927 17.5596 13.8643C15.3572 15.3359 13.6406 17.4276 12.6269 19.8748C11.6132 22.322 11.348 25.0149 11.8648 27.6129C12.3815 30.2108 13.6571 32.5972 15.5301 34.4702C17.4031 36.3432 19.7895 37.6188 22.3875 38.1356C24.9854 38.6523 27.6783 38.3871 30.1255 37.3734C32.5727 36.3597 34.6644 34.6432 36.136 32.4407C37.6077 30.2383 38.3931 27.6489 38.3931 25C38.3891 21.4493 36.9768 18.0451 34.466 15.5343C31.9552 13.0235 28.5511 11.6112 25.0003 11.6072ZM23.3637 35.7143C22.1641 35.7262 20.974 35.5002 19.8622 35.0494C18.7505 34.5985 17.7392 33.9318 16.8867 33.0877C16.0342 32.2436 15.3574 31.239 14.8956 30.1317C14.4338 29.0245 14.196 27.8368 14.196 26.6371C14.196 25.4374 14.4338 24.2496 14.8956 23.1424C15.3574 22.0352 16.0342 21.0305 16.8867 20.1864C17.7392 19.3424 18.7505 18.6756 19.8622 18.2248C20.974 17.774 22.1641 17.548 23.3637 17.5599C23.6005 17.5599 23.8276 17.6539 23.995 17.8214C24.1625 17.9888 24.2565 18.2159 24.2565 18.4527V25.7438H31.5476C31.7844 25.7438 32.0115 25.8379 32.179 26.0053C32.3464 26.1727 32.4405 26.3998 32.4405 26.6366C32.4379 29.0432 31.4808 31.3505 29.7791 33.0523C28.0775 34.7541 25.7703 35.7115 23.3637 35.7143ZM34.8217 24.2563H26.6369C26.4001 24.2563 26.173 24.1622 26.0055 23.9948C25.8381 23.8273 25.744 23.6002 25.744 23.3634V15.1786C25.744 14.9418 25.8381 14.7147 26.0055 14.5473C26.173 14.3798 26.4001 14.2857 26.6369 14.2857C29.0436 14.2886 31.3509 15.2459 33.0526 16.9477C34.7544 18.6495 35.7117 20.9567 35.7146 23.3634C35.7146 23.6002 35.6205 23.8273 35.4531 23.9948C35.2856 24.1622 35.0585 24.2563 34.8217 24.2563Z" fill="#EF5226"/>
<path d="M47.3214 18.75H44.2455C44.0664 18.7512 43.8913 18.6974 43.7436 18.5961C43.596 18.4947 43.4829 18.3506 43.4196 18.183C43.2458 17.7068 43.0542 17.2417 42.8446 16.7875C42.772 16.6243 42.7508 16.4429 42.784 16.2674C42.8172 16.0919 42.9031 15.9307 43.0304 15.8054L45.2027 13.633C45.4515 13.3843 45.6488 13.089 45.7834 12.764C45.9181 12.439 45.9874 12.0906 45.9874 11.7388C45.9874 11.387 45.9181 11.0387 45.7834 10.7137C45.6488 10.3887 45.4515 10.0934 45.2027 9.84464L40.1527 4.79643C39.6498 4.29509 38.9686 4.01358 38.2585 4.01358C37.5484 4.01358 36.8672 4.29509 36.3643 4.79643L34.1964 6.96875C34.0714 7.09651 33.9102 7.18282 33.7346 7.21603C33.5589 7.24925 33.3773 7.22775 33.2143 7.15446C32.7577 6.94613 32.2923 6.75506 31.8179 6.58125C31.6503 6.51763 31.5061 6.40438 31.4047 6.25664C31.3032 6.10889 31.2492 5.9337 31.25 5.75446V2.67857C31.25 1.96817 30.9678 1.28687 30.4655 0.784535C29.9631 0.282206 29.2818 0 28.5714 0H21.4286C20.7182 0 20.0369 0.282206 19.5345 0.784535C19.0322 1.28687 18.75 1.96817 18.75 2.67857V5.75446C18.7511 5.93342 18.6975 6.10844 18.5963 6.25605C18.4951 6.40367 18.3512 6.51682 18.1839 6.58036C17.7077 6.75476 17.2423 6.94613 16.7875 7.15446C16.6244 7.22737 16.4429 7.24865 16.2673 7.21546C16.0918 7.18226 15.9306 7.09618 15.8054 6.96875L13.6357 4.79643C13.1328 4.29509 12.4516 4.01358 11.7415 4.01358C11.0314 4.01358 10.3502 4.29509 9.84732 4.79643L4.79732 9.84732C4.54855 10.0961 4.3512 10.3914 4.21656 10.7164C4.08192 11.0414 4.01263 11.3897 4.01263 11.7415C4.01263 12.0933 4.08192 12.4417 4.21656 12.7667C4.3512 13.0917 4.54855 13.387 4.79732 13.6357L6.96964 15.808C7.09696 15.9333 7.18297 16.0945 7.21616 16.2701C7.24935 16.4456 7.22814 16.627 7.15536 16.7902C6.94583 17.2467 6.75387 17.7128 6.57946 18.1884C6.51606 18.3555 6.40302 18.4993 6.25555 18.6003C6.10808 18.7013 5.93322 18.7548 5.75446 18.7536H2.67857C1.96817 18.7536 1.28687 19.0358 0.784535 19.5381C0.282206 20.0404 0 20.7217 0 21.4321V28.575C0 29.2854 0.282206 29.9667 0.784535 30.469C1.28687 30.9714 1.96817 31.2536 2.67857 31.2536H5.75446C5.93355 31.2524 6.1087 31.3061 6.25636 31.4075C6.40401 31.5088 6.51708 31.653 6.58036 31.8205C6.75476 32.2967 6.94643 32.7619 7.15536 33.2161C7.22801 33.3792 7.24915 33.5607 7.21597 33.7362C7.18279 33.9117 7.09685 34.0728 6.96964 34.1982L4.79732 36.3643C4.54855 36.613 4.3512 36.9083 4.21656 37.2333C4.08192 37.5583 4.01263 37.9067 4.01263 38.2585C4.01263 38.6103 4.08192 38.9586 4.21656 39.2836C4.3512 39.6086 4.54855 39.9039 4.79732 40.1527L9.84732 45.2036C10.3502 45.7049 11.0314 45.9864 11.7415 45.9864C12.4516 45.9864 13.1328 45.7049 13.6357 45.2036L15.808 43.0357C15.9333 42.9084 16.0945 42.8224 16.2701 42.7892C16.4456 42.756 16.627 42.7772 16.7902 42.85C17.2467 43.0577 17.7122 43.2491 18.1866 43.4241C18.3539 43.4876 18.4978 43.6008 18.599 43.7484C18.7001 43.896 18.7538 44.071 18.7527 44.25V47.3214C18.7527 48.0318 19.0349 48.7131 19.5372 49.2155C20.0395 49.7178 20.7208 50 21.4313 50H28.5741C29.2845 50 29.9658 49.7178 30.4681 49.2155C30.9705 48.7131 31.2527 48.0318 31.2527 47.3214V44.2455C31.2516 44.0666 31.3052 43.8916 31.4064 43.744C31.5076 43.5963 31.6514 43.4832 31.8188 43.4196C32.2949 43.2458 32.7604 43.0545 33.2152 42.8455C33.3782 42.7722 33.5598 42.7508 33.7354 42.784C33.9111 42.8172 34.0723 42.9035 34.1973 43.0312L36.3696 45.2036C36.8726 45.7049 37.5537 45.9864 38.2638 45.9864C38.974 45.9864 39.6551 45.7049 40.158 45.2036L45.208 40.1536C45.4568 39.9048 45.6542 39.6095 45.7888 39.2845C45.9234 38.9595 45.9927 38.6112 45.9927 38.2594C45.9927 37.9076 45.9234 37.5592 45.7888 37.2342C45.6542 36.9092 45.4568 36.6139 45.208 36.3652L43.0304 34.1964C42.903 34.0711 42.817 33.9099 42.7838 33.7344C42.7506 33.5589 42.7719 33.3774 42.8446 33.2143C43.0542 32.7583 43.2461 32.2923 43.4205 31.8161C43.4838 31.6488 43.5968 31.5048 43.7443 31.4036C43.8917 31.3024 44.0667 31.2488 44.2455 31.25H47.3214C48.0318 31.25 48.7131 30.9678 49.2155 30.4655C49.7178 29.9631 50 29.2818 50 28.5714V21.4286C50 20.7182 49.7178 20.0369 49.2155 19.5345C48.7131 19.0322 48.0318 18.75 47.3214 18.75ZM36.858 34.4589C34.6214 37.2565 31.4669 39.1723 27.9531 39.867C24.4394 40.5616 20.7932 39.9903 17.6602 38.2543C14.5273 36.5182 12.1099 33.7294 10.8362 30.3818C9.56237 27.0342 9.51444 23.3438 10.7008 19.9642C11.8872 16.5846 14.2314 13.734 17.3181 11.9171C20.4049 10.1003 24.035 9.43445 27.5656 10.0376C31.0963 10.6407 34.2995 12.4739 36.608 15.2125C38.9166 17.951 40.1814 21.4182 40.1786 25C40.1775 28.4385 39.0065 31.7743 36.858 34.4589Z" fill="#EF5226"/>
</svg>
