<svg width="51" height="50" viewBox="0 0 51 50" fill="none" xmlns="http://www.w3.org/2000/svg">
<path d="M20.6761 42.1598C20.9373 42.6169 21.4379 42.8999 21.9712 42.8999H27.0103C27.5436 42.8999 28.0334 42.6169 28.3054 42.1598C28.9585 41.0388 30.1774 40.3313 31.4835 40.3313H47.5258V16.5073C47.5258 13.8734 45.3817 11.7185 42.737 11.7185H39.0367V32.9414C39.0367 35.5208 36.947 37.6105 34.3676 37.6105H15.1799C12.6005 37.6105 10.5109 35.5208 10.5109 32.9414V11.7185H7.3111C4.6773 11.7185 2.5332 13.8625 2.5332 16.4964V40.3313H17.4981C18.7932 40.3313 20.0122 41.0388 20.6761 42.1598Z" fill="#EF5226"/>
<path d="M48.976 41.4238H31.4828C30.561 41.4238 29.7088 41.9125 29.2441 42.7081C28.7782 43.5037 27.9272 43.9923 27.0053 43.9923H21.9695C21.0477 43.9923 20.1966 43.5037 19.7308 42.7081C19.266 41.9125 18.4139 41.4238 17.4931 41.4238H1.08836C0.486452 41.4238 0 41.9114 0 42.5122V44.7542C0 47.6514 2.34756 50 5.24475 50H12.8186H17.6019H44.8185C47.7156 50 50.0643 47.6514 50.0643 44.7542V42.5122C50.0643 41.9114 49.5768 41.4238 48.976 41.4238ZM39.5432 46.2561H38.9087C38.6083 46.2561 38.3645 46.0123 38.3645 45.7119C38.3645 45.4116 38.6083 45.1677 38.9087 45.1677H39.5432C39.8435 45.1677 40.0874 45.4116 40.0874 45.7119C40.0874 46.0123 39.8435 46.2561 39.5432 46.2561ZM45.5292 46.2561H44.8946C44.5943 46.2561 44.3505 46.0123 44.3505 45.7119C44.3505 45.4116 44.5943 45.1677 44.8946 45.1677H45.5292C45.8295 45.1677 46.0733 45.4116 46.0733 45.7119C46.0733 46.0123 45.8295 46.2561 45.5292 46.2561Z" fill="#EF5226"/>
<path d="M15.1782 36.5263H34.3692C36.3424 36.5263 37.9488 34.9199 37.9488 32.9467V3.5796C37.9488 1.60533 36.3424 0 34.3692 0H15.1782C13.204 0 11.5986 1.60533 11.5986 3.5796V32.9467C11.5986 34.9199 13.204 36.5263 15.1782 36.5263ZM31.4209 5.94025C31.4209 5.63986 31.6636 5.39607 31.965 5.39607C32.2654 5.39607 32.5092 5.63986 32.5092 5.94025V18.194C32.5092 18.4944 32.2654 18.7382 31.965 18.7382C31.6636 18.7382 31.4209 18.4944 31.4209 18.194V5.94025ZM29.9527 22.6411H33.0512C33.3516 22.6411 33.5954 22.8838 33.5954 23.1852C33.5954 23.4856 33.3516 23.7294 33.0512 23.7294H29.9527C29.6523 23.7294 29.4085 23.4856 29.4085 23.1852C29.4085 22.8838 29.6523 22.6411 29.9527 22.6411ZM29.9527 26.9945H33.0512C33.3516 26.9945 33.5954 27.2372 33.5954 27.5387C33.5954 27.839 33.3516 28.0828 33.0512 28.0828H29.9527C29.6523 28.0828 29.4085 27.839 29.4085 27.5387C29.4085 27.2372 29.6523 26.9945 29.9527 26.9945ZM29.9527 31.3479H33.0512C33.3516 31.3479 33.5954 31.5906 33.5954 31.8921C33.5954 32.1925 33.3516 32.4363 33.0512 32.4363H29.9527C29.6523 32.4363 29.4085 32.1925 29.4085 31.8921C29.4085 31.5906 29.6523 31.3479 29.9527 31.3479ZM26.6256 8.27695C26.6256 7.97657 26.8694 7.73277 27.1697 7.73277C27.4713 7.73277 27.7139 7.97657 27.7139 8.27695V18.194C27.7139 18.4944 27.4713 18.7382 27.1697 18.7382C26.8694 18.7382 26.6256 18.4944 26.6256 18.194V8.27695ZM21.8314 10.5179C21.8314 10.2164 22.0752 9.97369 22.3756 9.97369C22.676 9.97369 22.9197 10.2164 22.9197 10.5179V18.194C22.9197 18.4944 22.676 18.7382 22.3756 18.7382C22.0752 18.7382 21.8314 18.4944 21.8314 18.194V10.5179ZM21.4679 21.9663C24.0451 22.2144 26.0912 24.2616 26.3393 26.8475H21.4679V21.9663ZM17.0383 13.8472C17.0383 13.5457 17.2809 13.303 17.5825 13.303C17.8828 13.303 18.1266 13.5457 18.1266 13.8472V18.194C18.1266 18.4944 17.8828 18.7382 17.5825 18.7382C17.2809 18.7382 17.0383 18.4944 17.0383 18.194V13.8472ZM20.3795 21.9684V27.3917C20.3795 27.6921 20.6233 27.9359 20.9237 27.9359H26.3383C26.064 30.6982 23.7577 32.8651 20.9258 32.8651C17.9003 32.8651 15.4515 30.4054 15.4515 27.3907C15.4515 24.5489 17.6173 22.2427 20.3795 21.9684Z" fill="#EF5226"/>
</svg>
