<svg width="50" height="50" viewBox="0 0 50 50" fill="none" xmlns="http://www.w3.org/2000/svg">
<path d="M28.3625 24.9999C28.3625 26.8545 26.8536 28.3633 24.9991 28.3633C23.1445 28.3633 21.6357 26.8545 21.6357 24.9999C21.6357 23.1454 23.1445 21.6366 24.9991 21.6366C26.8536 21.6366 28.3625 23.1454 28.3625 24.9999ZM36.8868 28.6624L35.9949 30.8157L37.1385 33.9208L33.9198 37.1395L30.8148 35.9958L28.6614 36.8876L27.2735 39.8929H22.7246L21.3366 36.8876L19.1833 35.9958L16.0783 37.1395L12.8595 33.9208L14.0032 30.8157L13.1113 28.6624L10.106 27.2744V22.7256L13.1113 21.3376L14.0032 19.1843L12.8595 16.0792L16.0783 12.8605L19.1833 14.0042L21.3366 13.1124L22.7246 10.1071H27.2735L28.6614 13.1124L30.8148 14.0042L33.9198 12.8605L37.1385 16.0792L35.9949 19.1843L36.8868 21.3376L39.892 22.7256V27.2744L36.8868 28.6624ZM17.6661 28.4883C17.158 27.4258 16.8934 26.2844 16.8794 25.0956C16.8267 20.6184 20.4263 16.933 24.9034 16.8802C26.5386 16.8595 28.0947 17.3191 29.4252 18.1908C29.0568 18.2144 28.7652 18.5198 28.7652 18.8941C28.7652 19.2839 29.0811 19.5998 29.4708 19.5998H31.3691C31.7588 19.5998 32.0747 19.2839 32.0747 18.8941V16.9926C32.0747 16.6029 31.7588 16.287 31.3691 16.287C30.9794 16.287 30.6635 16.6029 30.6635 16.9926V17.333C29.0346 16.1211 27.0736 15.4683 25.0031 15.4683C24.9644 15.4683 24.9256 15.4685 24.887 15.469C19.6317 15.5309 15.4065 19.8567 15.4682 25.1121C15.4846 26.5075 15.7958 27.8482 16.3929 29.097C16.514 29.3504 16.7667 29.4984 17.03 29.4984C17.1321 29.4984 17.2357 29.4762 17.3339 29.4293C17.6855 29.2611 17.8342 28.8399 17.6661 28.4883ZM24.9991 20.2253C22.3663 20.2253 20.2244 22.3672 20.2244 24.9999C20.2244 27.6327 22.3663 29.7746 24.9991 29.7746C27.6318 29.7746 29.7737 27.6327 29.7737 24.9999C29.7737 22.3672 27.6318 20.2253 24.9991 20.2253ZM34.53 24.8877C34.5136 23.4923 34.2024 22.1516 33.6054 20.9028C33.4372 20.5512 33.0156 20.4025 32.6643 20.5705C32.3127 20.7387 32.164 21.16 32.3321 21.5116C32.8402 22.5741 33.1048 23.7155 33.1189 24.9043C33.1715 29.3815 29.5719 33.0669 25.0947 33.1197C23.4597 33.1385 21.9038 32.6798 20.5724 31.8091C20.941 31.7858 21.233 31.4803 21.233 31.1058C21.233 30.716 20.917 30.4001 20.5273 30.4001H18.6258C18.2361 30.4001 17.9202 30.716 17.9202 31.1058V33.0073C17.9202 33.397 18.2361 33.7129 18.6258 33.7129C19.0155 33.7129 19.3315 33.397 19.3315 33.0073V32.6656C20.9626 33.8784 22.9251 34.5315 24.9952 34.5315C25.0338 34.5315 25.0727 34.5313 25.1113 34.5308C30.3667 34.4689 34.5919 30.1431 34.53 24.8877ZM8.09817 32.3008C8.21339 32.5673 8.47327 32.7266 8.74625 32.7266C8.83969 32.7266 8.93465 32.7079 9.02588 32.6684C9.38354 32.5137 9.54816 32.0984 9.39342 31.7407C8.47054 29.6063 8.0026 27.3383 8.0026 24.9999C8.0026 20.462 9.77114 16.1944 12.9823 12.9832C13.2578 12.7077 13.2578 12.2608 12.9823 11.9853L9.84856 8.85166V7.50439C10.2567 7.38877 10.6417 7.17133 10.962 6.85107C11.4498 6.36337 11.718 5.71549 11.7173 5.02688C11.7166 4.33969 11.448 3.69403 10.963 3.21097C10.4779 2.72387 9.83223 2.45533 9.14514 2.45472H9.14252C8.45502 2.45472 7.80815 2.72287 7.32106 3.21006C6.83537 3.69574 6.56783 4.34221 6.56783 5.03061C6.56783 5.71902 6.83527 6.36549 7.32186 6.85218C7.64323 7.17223 8.02881 7.38947 8.43728 7.50489V9.144C8.43728 9.33109 8.51157 9.51063 8.64393 9.64299L11.4956 12.4947C8.48808 15.7361 6.77146 19.8786 6.60584 24.2945H5.04879C4.74113 23.2171 3.74829 22.4257 2.5734 22.4257C1.15385 22.4257 -0.000976562 23.5806 -0.000976562 25.0002C-0.000976562 26.4197 1.15385 27.5746 2.5734 27.5746C3.74829 27.5746 4.74113 26.7833 5.04879 25.7058H6.60584C6.69142 27.9886 7.19152 30.2039 8.09817 32.3008ZM47.4245 22.4256C46.2496 22.4256 45.2568 23.2169 44.9492 24.2944H43.3893C43.304 22.0079 42.805 19.7924 41.9 17.6992C41.7453 17.3415 41.3301 17.1767 40.9723 17.3315C40.6146 17.4863 40.45 17.9016 40.6047 18.2593C41.5257 20.3894 41.9927 22.6573 41.9927 25C41.9927 29.5398 40.2253 33.8075 37.0158 37.0168C36.7403 37.2923 36.7403 37.7392 37.0158 38.0147C37.0161 38.015 37.0165 38.0153 37.0168 38.0156L40.1497 41.1483V42.4953C39.7417 42.6107 39.3571 42.828 39.0372 43.1479C38.5494 43.6337 38.2808 44.2806 38.2808 44.9695C38.2808 45.6584 38.5494 46.3052 39.0352 46.789C39.5203 47.2761 40.1659 47.5447 40.853 47.5453H40.8556C41.5431 47.5453 42.19 47.2771 42.6771 46.7899C43.1628 46.3043 43.4303 45.6578 43.4303 44.9694C43.4303 44.281 43.1629 43.6345 42.6763 43.1478C42.3549 42.8278 41.9693 42.6105 41.561 42.4951V40.856C41.561 40.6689 41.4867 40.4894 41.3542 40.357L38.5024 37.5053C41.5082 34.2654 43.224 30.1229 43.3894 25.7055H44.9493C45.2569 26.7829 46.2498 27.5743 47.4246 27.5743C48.8442 27.5743 49.999 26.4194 49.999 24.9998C49.999 23.5803 48.8441 22.4256 47.4245 22.4256ZM18.2584 9.3944C20.3927 8.47152 22.6607 8.00358 24.9991 8.00358C29.5371 8.00358 33.8048 9.77202 37.0157 12.9832C37.1535 13.121 37.3341 13.1898 37.5147 13.1898C37.6954 13.1898 37.8759 13.1209 38.0136 12.9832L41.3541 9.64278C41.4865 9.51053 41.5609 9.33099 41.5609 9.1438V7.50439C41.9695 7.38887 42.3554 7.17143 42.6771 6.85097C43.1628 6.36528 43.4303 5.71882 43.4303 5.03041C43.4303 4.34201 43.1629 3.69554 42.6771 3.20986C42.19 2.72277 41.5431 2.45452 40.8556 2.45452H40.853C40.1659 2.45513 39.5203 2.72377 39.0371 3.20885C38.55 3.69393 38.2815 4.33959 38.2807 5.02678C38.28 5.71539 38.5483 6.36327 39.036 6.85097C39.3563 7.17133 39.7413 7.38877 40.1496 7.50429V8.85146L37.5045 11.4965C34.2632 8.48896 30.1206 6.77234 25.7047 6.60681V5.04977C26.7821 4.74211 27.5735 3.74927 27.5735 2.57448C27.5735 1.15493 26.4186 0 24.9991 0C23.5795 0 22.4247 1.15493 22.4247 2.57448C22.4247 3.74937 23.216 4.74221 24.2934 5.04977V6.60691C22.0105 6.6925 19.795 7.1923 17.6982 8.09894C17.3406 8.25368 17.1759 8.669 17.3307 9.02666C17.4852 9.38432 17.9004 9.54903 18.2584 9.3944ZM31.7398 40.6055C29.6097 41.5265 27.3419 41.9935 24.9991 41.9935C20.4593 41.9935 16.1917 40.2261 12.9824 37.0167C12.7069 36.7412 12.2601 36.7412 11.9844 37.0167L8.64403 40.3571C8.51177 40.4894 8.43738 40.6689 8.43738 40.8561V42.4954C8.02861 42.6109 7.64273 42.8284 7.32106 43.1489C6.83537 43.6346 6.56783 44.2811 6.56783 44.9695C6.56783 45.6579 6.83527 46.3044 7.32106 46.79C7.80815 47.2771 8.45502 47.5454 9.14252 47.5454H9.14514C9.83223 47.5448 10.4779 47.2761 10.9611 46.791C11.4489 46.3053 11.7174 45.6584 11.7174 44.9696C11.7174 44.2808 11.4489 43.6338 10.9622 43.149C10.6418 42.8287 10.2568 42.6112 9.84866 42.4957V41.1485L12.4937 38.5035C15.7335 41.5093 19.876 43.2249 24.2934 43.3904V44.9502C23.216 45.2579 22.4247 46.2507 22.4247 47.4255C22.4247 48.8451 23.5795 50 24.9991 50C26.4186 50 27.5735 48.8451 27.5735 47.4255C27.5735 46.2506 26.7821 45.2578 25.7047 44.9502V43.3904C27.9912 43.3051 30.2067 42.8062 32.2999 41.9012C32.6576 41.7464 32.8222 41.3311 32.6675 40.9734C32.5127 40.6158 32.0976 40.4507 31.7398 40.6055Z" fill="#EF5226"/>
</svg>
