<svg width="50" height="50" viewBox="0 0 50 50" fill="none" xmlns="http://www.w3.org/2000/svg">
<path d="M13.4307 17.5781C15.8577 17.5781 17.8252 15.6106 17.8252 13.1836C17.8252 10.7566 15.8577 8.78906 13.4307 8.78906C11.0036 8.78906 9.03613 10.7566 9.03613 13.1836C9.03613 15.6106 11.0036 17.5781 13.4307 17.5781Z" fill="#EF5226"/>
<path d="M19.5244 17.2266L23.6845 21.3573C25.208 19.4531 26.2333 17.1679 26.5262 14.6484H20.579C20.4326 15.5859 20.0518 16.4355 19.5244 17.2266Z" fill="#EF5226"/>
<path d="M14.8955 0V6.00586C17.7665 6.5918 20.0225 8.84756 20.6084 11.7188H26.5263C25.8525 5.6249 20.9893 0.67373 14.8955 0Z" fill="#EF5226"/>
<path d="M0.149414 13.1836C0.149414 20.4534 6.16084 26.3672 13.4307 26.3672C16.5374 26.3672 19.3583 25.2425 21.6139 23.4382L17.4633 19.2876C16.3053 20.0553 14.9209 20.5078 13.4307 20.5078C9.39229 20.5078 6.10645 17.222 6.10645 13.1836C6.10645 9.6469 8.62686 6.68821 11.9658 6.00764V0.00158691C5.39209 0.741235 0.149414 6.41536 0.149414 13.1836Z" fill="#EF5226"/>
<path d="M48.7401 39.5895C49.7286 37.611 49.0878 35.1949 47.2481 33.9676L38.3332 28.0252V17.5781H36.8683V11.7188H26.5264C26.5851 12.1874 26.6144 12.6854 26.6144 13.1836C26.6144 13.6815 26.5851 14.1796 26.5264 14.6484H33.9386V17.5781H32.4738V41.0156H29.5441V30.3183L25.0136 37.1146C24.028 38.5937 24.028 40.5078 25.0136 41.9884L30.2251 50H43.6333L48.7401 39.5895Z" fill="#EF5226"/>
</svg>
