<svg width="58" height="50" viewBox="0 0 58 50" fill="none" xmlns="http://www.w3.org/2000/svg">
<path d="M19.8027 43.2153H7.67769V38.8639C7.67769 38.5875 7.5138 38.3389 7.26241 38.2278C7.00963 38.1167 6.71519 38.1653 6.51241 38.3528L1.10685 43.3264C0.965188 43.457 0.883243 43.6403 0.881854 43.832C0.880465 44.025 0.959632 44.2098 1.09991 44.3417L6.50546 49.4584C6.63741 49.5834 6.80824 49.6487 6.98324 49.6487C7.07491 49.6487 7.16935 49.6306 7.25685 49.5931C7.51241 49.4834 7.67769 49.232 7.67769 48.9542V44.6042H20.4971C20.8805 44.6042 21.1916 44.2931 21.1916 43.9098V38.5306H19.8027V43.2153ZM6.2888 47.3417L2.59435 43.8445L6.2888 40.4459V47.3417Z" fill="#EF5226"/>
<path d="M56.9253 43.3264L51.5197 38.3528C51.3169 38.1653 51.0225 38.1167 50.7697 38.2278C50.5169 38.3389 50.3544 38.5875 50.3544 38.8639V43.2153H38.4836V38.5306H37.0947V43.9098C37.0947 44.2931 37.4058 44.6042 37.7892 44.6042H50.3544V48.9542C50.3544 49.232 50.5197 49.4834 50.7739 49.5931C50.8628 49.6306 50.9558 49.6487 51.0489 49.6487C51.2225 49.6487 51.3947 49.5834 51.5267 49.4584L56.9322 44.3417C57.0725 44.2098 57.1503 44.025 57.1489 43.832C57.1475 43.6403 57.0669 43.457 56.9253 43.3264ZM51.7433 47.3417V40.4459L55.4364 43.8445L51.7433 47.3417Z" fill="#EF5226"/>
<path d="M28.4321 43.2055H24.0808C23.8058 43.2055 23.5558 43.368 23.4446 43.6208C23.3349 43.8722 23.3835 44.1666 23.5696 44.3694L28.5433 49.7764C28.6738 49.918 28.8571 49.9986 29.0502 50H29.0544C29.2446 50 29.428 49.9222 29.5585 49.7833L34.6766 44.3764C34.8669 44.175 34.9196 43.8805 34.8099 43.625C34.7002 43.3708 34.4502 43.2055 34.1724 43.2055H29.821V38.5305H28.4321V43.2055ZM32.5585 44.5944L29.0613 48.2875L25.6641 44.5944H32.5585Z" fill="#EF5226"/>
<path d="M33.6278 25.9528C33.6278 23.6569 35.4945 21.7903 37.7889 21.7903C40.0834 21.7903 41.95 23.6569 41.95 25.9528C41.95 28.0097 40.4487 29.7236 38.4834 30.0542V38.5306H40.7917C46.8306 38.5306 51.7431 33.6181 51.7431 27.5806V25.8583C51.7431 19.8694 46.9098 14.9875 40.9375 14.9083V10.9514C40.9375 4.9125 36.025 0 29.9875 0H28.2653C22.2278 0 17.3153 4.9125 17.3153 10.9514V14.9083C11.3431 14.9875 6.50977 19.8694 6.50977 25.8583V27.5806C6.50977 33.6181 11.4223 38.5306 17.4612 38.5306H19.8028V30.0542C17.8375 29.7236 16.3348 28.0097 16.3348 25.9528C16.3348 23.6569 18.2014 21.7903 20.4973 21.7903C22.7917 21.7903 24.6584 23.6569 24.6584 25.9528C24.6584 28.0097 23.157 29.7236 21.1917 30.0542V38.5306H28.432V23.2236C26.4667 22.8917 24.9653 21.1792 24.9653 19.1208C24.9653 16.8264 26.832 14.9597 29.1264 14.9597C31.4209 14.9597 33.2875 16.8264 33.2875 19.1208C33.2875 21.1792 31.7862 22.8917 29.8209 23.2236V38.5306H37.0945V30.0542C35.1292 29.7236 33.6278 28.0097 33.6278 25.9528Z" fill="#EF5226"/>
<path d="M31.8989 19.1209C31.8989 17.5931 30.6559 16.3486 29.1267 16.3486C27.5975 16.3486 26.3545 17.5931 26.3545 19.1209C26.3545 20.65 27.5975 21.8945 29.1267 21.8945C30.6559 21.8945 31.8989 20.65 31.8989 19.1209Z" fill="#EF5226"/>
<path d="M40.561 25.9528C40.561 24.4236 39.318 23.1792 37.7888 23.1792C36.2597 23.1792 35.0166 24.4236 35.0166 25.9528C35.0166 27.4806 36.2597 28.725 37.7888 28.725C39.318 28.725 40.561 27.4806 40.561 25.9528Z" fill="#EF5226"/>
<path d="M23.2695 25.9528C23.2695 24.4236 22.025 23.1792 20.4972 23.1792C18.9681 23.1792 17.7236 24.4236 17.7236 25.9528C17.7236 27.4806 18.9681 28.725 20.4972 28.725C22.025 28.725 23.2695 27.4806 23.2695 25.9528Z" fill="#EF5226"/>
</svg>
