<svg width="54" height="50" viewBox="0 0 54 50" fill="none" xmlns="http://www.w3.org/2000/svg">
<path fill-rule="evenodd" clip-rule="evenodd" d="M50.2401 41.2245V14.7659C50.2401 13.5247 49.2262 12.5091 47.9868 12.5091H44.8536V20.0476L41.8131 21.2198C41.5081 22.2303 41.1029 23.2084 40.6047 24.1388L41.9278 27.1221L37.0426 32.015L34.0645 30.6904C33.1354 31.1895 32.1583 31.5954 31.149 31.9009L29.979 34.9453H23.07L21.8997 31.9002C20.8908 31.5947 19.9142 31.189 18.9853 30.69L16.0065 32.0149L11.1211 27.1223L12.4436 24.1396C11.9453 23.2089 11.5401 22.2305 11.235 21.2196L8.19525 20.0477C8.19525 17.5349 8.19525 15.0219 8.19525 12.5091H5.06195C3.82264 12.5091 2.80857 13.5246 2.80857 14.7659V41.2247C30.6956 41.2245 44.5132 41.2245 50.2401 41.2245ZM28.8444 24.1141C28.111 24.3406 27.332 24.4627 26.5244 24.4627C25.7168 24.4627 24.9378 24.3406 24.2044 24.1141V21.9299C22.0462 21.0217 20.5306 18.8848 20.5306 16.3932C20.5306 14.0534 21.8673 12.0265 23.8174 11.0361V15.5064V17.0716L25.1709 17.8543L26.5244 18.6371L27.8779 17.8545L29.2314 17.0719V15.5066V11.0363C31.1816 12.0267 32.5182 14.0536 32.5182 16.3934C32.5182 18.885 31.0025 21.0219 28.8443 21.9301L28.8444 24.1141ZM29.8223 2.74895C31.2847 3.09752 32.6814 3.67821 33.9613 4.46757L36.6508 3.27125L39.8208 6.44585L38.6266 9.13873C39.415 10.421 39.9948 11.8202 40.3428 13.2852L43.0869 14.343V18.8327L40.3423 19.8908C39.9943 21.3554 39.4145 22.7542 38.6263 24.0361L39.8208 26.7298L36.6509 29.9046L33.9622 28.7086C32.682 29.4982 31.2848 30.0789 29.8221 30.4275L28.766 33.1757H24.2831L23.2266 30.4269C21.7642 30.0783 20.3676 29.4976 19.0875 28.7083L16.398 29.9046L13.228 26.7299L14.4222 24.037C13.6338 22.7549 13.054 21.3554 12.706 19.8905L9.96191 18.8328V14.343L12.7063 13.2851C13.0544 11.8203 13.6342 10.4213 14.4223 9.13929L13.228 6.44596L16.3979 3.27103L19.0875 4.46746C20.3676 3.6781 21.7642 3.09741 23.2266 2.74884L24.2831 0H28.7659L29.8223 2.74895ZM26.5244 6.94382C31.8424 6.94382 36.1537 11.2618 36.1537 16.5879C36.1537 21.9141 31.8424 26.232 26.5244 26.232C21.2064 26.232 16.8951 21.9141 16.8951 16.5879C16.8951 11.2618 21.2063 6.94382 26.5244 6.94382ZM19.5025 45.4592H33.5463V42.994H19.5025V45.4592ZM18.6191 47.2286H34.4296C34.9174 47.2286 35.3129 46.8325 35.3129 46.3439V42.994H53.0244V47.9492L41.2614 50H11.7874L0.0244141 47.9492V42.994H17.7358V46.3439C17.7358 46.8325 18.1313 47.2286 18.6191 47.2286Z" fill="#EF5226"/>
</svg>
