<svg width="56" height="50" viewBox="0 0 56 50" fill="none" xmlns="http://www.w3.org/2000/svg">
<path d="M8.82324 42.6471H23.5291V22.0588H8.82324V42.6471ZM13.235 25H19.1174C19.9295 25 20.5879 25.6578 20.5879 26.4706C20.5879 27.2834 19.9295 27.9412 19.1174 27.9412H13.235C12.4229 27.9412 11.7644 27.2834 11.7644 26.4706C11.7644 25.6578 12.4229 25 13.235 25ZM13.235 30.8824H19.1174C19.9295 30.8824 20.5879 31.5401 20.5879 32.353C20.5879 33.1658 19.9295 33.8235 19.1174 33.8235H13.235C12.4229 33.8235 11.7644 33.1658 11.7644 32.353C11.7644 31.5401 12.4229 30.8824 13.235 30.8824ZM13.235 36.7647H19.1174C19.9295 36.7647 20.5879 37.4225 20.5879 38.2353C20.5879 39.0481 19.9295 39.7059 19.1174 39.7059H13.235C12.4229 39.7059 11.7644 39.0481 11.7644 38.2353C11.7644 37.4225 12.4229 36.7647 13.235 36.7647Z" fill="#EF5226"/>
<path d="M32.3525 35.8556L38.2349 38.7968V33.262L32.3525 30.3208V35.8556Z" fill="#EF5226"/>
<path d="M47.835 0H29.4121V11.7647H43.1228L47.835 0ZM39.7062 7.35294H33.8239C33.011 7.35294 32.3533 6.69519 32.3533 5.88235C32.3533 5.06951 33.011 4.41176 33.8239 4.41176H39.7062C40.5191 4.41176 41.1768 5.06951 41.1768 5.88235C41.1768 6.69519 40.5191 7.35294 39.7062 7.35294Z" fill="#EF5226"/>
<path d="M26.4706 0H4.41176C1.97897 0 0 1.97897 0 4.41176V11.7647H26.4706V0ZM7.35294 7.35294C6.54072 7.35294 5.88235 6.69449 5.88235 5.88235C5.88235 5.07013 6.54072 4.41176 7.35294 4.41176C8.16516 4.41176 8.82353 5.07013 8.82353 5.88235C8.82353 6.69449 8.16516 7.35294 7.35294 7.35294ZM13.2353 7.35294C12.4231 7.35294 11.7647 6.69449 11.7647 5.88235C11.7647 5.07013 12.4231 4.41176 13.2353 4.41176C14.0475 4.41176 14.7059 5.07013 14.7059 5.88235C14.7059 6.69449 14.0475 7.35294 13.2353 7.35294ZM19.1176 7.35294C18.3054 7.35294 17.6471 6.69449 17.6471 5.88235C17.6471 5.07013 18.3054 4.41176 19.1176 4.41176C19.9299 4.41176 20.5882 5.07013 20.5882 5.88235C20.5882 6.69449 19.9299 7.35294 19.1176 7.35294Z" fill="#EF5226"/>
<path d="M41.1768 38.7968L47.0591 35.8556V30.3208L41.1768 33.262V38.7968Z" fill="#EF5226"/>
<path d="M51.4706 0H51.0045L45.4834 13.7825C45.2594 14.3397 44.7194 14.7059 44.1176 14.7059H0V45.5882C0 48.021 1.97897 50 4.41176 50H51.4706C53.9034 50 55.8824 48.021 55.8824 45.5882V4.41176C55.8824 1.97897 53.9034 0 51.4706 0ZM30.8824 19.1176C31.6946 19.1176 32.3529 19.776 32.3529 20.5882C32.3529 21.4004 31.6946 22.0588 30.8824 22.0588C30.0701 22.0588 29.4118 21.4004 29.4118 20.5882C29.4118 19.776 30.0701 19.1176 30.8824 19.1176ZM26.4706 44.1176C26.4706 44.9305 25.8121 45.5882 25 45.5882H7.35294C6.54081 45.5882 5.88235 44.9305 5.88235 44.1176V20.5882C5.88235 19.7754 6.54081 19.1176 7.35294 19.1176H25C25.8121 19.1176 26.4706 19.7754 26.4706 20.5882V44.1176ZM30.8824 45.5882C30.0701 45.5882 29.4118 44.9298 29.4118 44.1176C29.4118 43.3054 30.0701 42.6471 30.8824 42.6471C31.6946 42.6471 32.3529 43.3054 32.3529 44.1176C32.3529 44.9298 31.6946 45.5882 30.8824 45.5882ZM48.5294 45.5882C47.7172 45.5882 47.0588 44.9298 47.0588 44.1176C47.0588 43.3054 47.7172 42.6471 48.5294 42.6471C49.3416 42.6471 50 43.3054 50 44.1176C50 44.9298 49.3416 45.5882 48.5294 45.5882ZM50 36.7647C50 37.3219 49.6855 37.8303 49.1872 38.0802L40.3679 42.4891C40.0064 42.6698 39.4037 42.669 39.0435 42.4889C38.9752 42.4547 30.2246 38.0802 30.2246 38.0802C29.7263 37.8303 29.4118 37.3219 29.4118 36.7647V27.9412C29.4118 27.384 29.7263 26.8756 30.2246 26.6257L39.0481 22.2139C39.4617 22.0071 39.95 22.0071 40.3636 22.2139L49.1872 26.6257C49.6855 26.8756 50 27.384 50 27.9412V36.7647ZM48.5294 22.0588C47.7172 22.0588 47.0588 21.4004 47.0588 20.5882C47.0588 19.776 47.7172 19.1176 48.5294 19.1176C49.3416 19.1176 50 19.776 50 20.5882C50 21.4004 49.3416 22.0588 48.5294 22.0588Z" fill="#EF5226"/>
<path d="M39.7057 25.1738L34.1709 27.9412L39.7057 30.7087L45.2405 27.9412L39.7057 25.1738Z" fill="#EF5226"/>
</svg>
