<svg width="56" height="56" viewBox="0 0 56 56" fill="none" xmlns="http://www.w3.org/2000/svg">
<path d="M23.4817 52.8735C23.4998 52.5576 23.5629 52.2598 23.6441 51.9621C13.682 50.1664 5.76817 42.2526 3.9815 32.2994L3.99047 32.2904C3.6837 32.3807 3.36789 32.4438 3.03396 32.4709L2.97085 32.4799L2.7723 32.489C2.5738 32.489 2.37525 32.4799 2.17676 32.4529C4.04467 43.2723 12.6623 51.8899 23.4997 53.7759C23.4727 53.5954 23.4636 53.4149 23.4636 53.2344C23.4636 53.1352 23.4636 53.0359 23.4817 52.8735ZM32.4783 52.9728C32.4873 53.0088 32.4873 53.1171 32.4873 53.2254C32.4873 53.4149 32.4783 53.5954 32.4512 53.7759C43.2706 51.8899 51.8883 43.2723 53.7742 32.4529C53.6027 32.4799 53.4223 32.489 53.2419 32.489H53.2148C53.1065 32.489 53.0072 32.489 52.8538 32.4709C52.547 32.4529 52.2492 32.3987 51.9605 32.3175C50.1557 42.2616 42.2419 50.1664 32.2979 51.9621M52.9169 23.4743L52.9801 23.4653L53.1786 23.4562C53.3771 23.4562 53.5756 23.4743 53.7742 23.5013C51.8973 12.6729 43.2797 4.05529 32.4512 2.17834C32.4783 2.3498 32.4873 2.53028 32.4873 2.71077C32.4873 2.81001 32.4873 2.91829 32.4693 3.08071C32.4512 3.38754 32.3971 3.69437 32.3068 3.98308C42.26 5.78782 50.1648 13.6926 51.9605 23.6457M23.4727 2.97243C23.4636 2.94539 23.4636 2.83711 23.4636 2.72883C23.4636 2.53931 23.4727 2.35883 23.4997 2.17834C12.6623 4.05529 4.04467 12.6729 2.17676 23.4923C2.34821 23.4653 2.52864 23.4562 2.70913 23.4562C2.83547 23.4562 2.93472 23.4653 3.07913 23.4743C3.3859 23.4923 3.69273 23.5465 3.9815 23.6367C5.7772 13.6836 13.682 5.77885 23.6441 3.98308C23.6531 4.02825 23.6712 4.06432 23.6892 4.1004C23.5719 3.73948 23.4998 3.36045 23.4727 2.97243Z" fill="#EF5226"/>
<path d="M28.878 7.13245V11.7345H27.0732V7.13245C27.1906 7.15046 27.3079 7.17755 27.4252 7.18659C27.4793 7.19556 27.5335 7.2046 27.5966 7.2046C27.723 7.21363 27.8493 7.22266 27.9756 7.22266C28.102 7.22266 28.2283 7.21363 28.3546 7.2046C28.4178 7.2046 28.4719 7.19556 28.526 7.18659C28.6434 7.17755 28.7607 7.15949 28.878 7.13245Z" fill="#EF5226"/>
<path d="M28.878 44.2197V48.8128C28.8329 48.8038 28.7787 48.7947 28.7336 48.7857H28.7065C28.5892 48.7586 28.4719 48.7496 28.3546 48.7406C28.2283 48.7316 28.102 48.7225 27.9756 48.7225C27.8493 48.7225 27.723 48.7316 27.5966 48.7406C27.4793 48.7496 27.362 48.7586 27.2447 48.7857H27.2177C27.1725 48.7947 27.1183 48.8038 27.0732 48.8128V44.2197H28.878Z" fill="#EF5226"/>
<path d="M48.7837 28.717L48.8108 28.8794H44.2178V27.0747H48.8198C48.8108 27.0837 48.8108 27.1017 48.8018 27.1198C48.7837 27.2191 48.7657 27.3273 48.7567 27.4357C48.7477 27.4898 48.7387 27.544 48.7387 27.5981C48.7296 27.7244 48.7206 27.8507 48.7206 27.9771C48.7206 28.1034 48.7296 28.2297 48.7387 28.3561C48.7477 28.4734 48.7657 28.5997 48.7837 28.717Z" fill="#EF5226"/>
<path d="M11.7332 27.0747V28.8794H7.1311C7.14911 28.7621 7.17621 28.6448 7.18524 28.5185C7.19427 28.4643 7.19427 28.4102 7.20331 28.3561C7.21229 28.2297 7.22132 28.1034 7.22132 27.9771C7.22132 27.8507 7.21229 27.7244 7.20331 27.5981C7.19427 27.4718 7.17621 27.3544 7.15814 27.2371C7.14911 27.183 7.14013 27.1288 7.12207 27.0747H11.7332Z" fill="#EF5226"/>
<path d="M7.12134 28.8795H7.13037C7.12134 28.8976 7.12134 28.9066 7.1123 28.9246C7.12134 28.9066 7.12134 28.8976 7.12134 28.8795Z" fill="#EF5226"/>
<path d="M7.13037 27.0748C7.1394 27.1289 7.14838 27.1831 7.15741 27.2372C7.14838 27.1831 7.1394 27.1289 7.12134 27.0748C7.12134 27.0567 7.12134 27.0387 7.1123 27.0206C7.12134 27.0387 7.13037 27.0567 7.13037 27.0748Z" fill="#EF5226"/>
<path d="M2.89128 25.2726C2.83136 25.2664 2.78906 25.2655 2.75205 25.2655C2.73619 25.2655 2.72209 25.2655 2.70799 25.2655C1.2152 25.2655 4.78447e-07 26.4807 4.78447e-07 27.9735C-0.000881222 29.4874 1.21697 30.6824 2.76791 30.6824C2.79347 30.6824 2.81902 30.6824 2.84458 30.6788C4.3074 30.5793 5.41598 29.3931 5.41598 27.9735C5.41598 26.5547 4.3074 25.3677 2.89128 25.2726Z" fill="#05A7CC"/>
<path d="M28.0101 22.4729C24.9461 22.4729 22.4531 24.9659 22.4531 28.0299C22.4531 31.0939 24.9461 33.586 28.0101 33.586C31.0741 33.586 33.5671 31.0939 33.5671 28.0299C33.5671 24.9659 31.0741 22.4729 28.0101 22.4729Z" fill="#EF5226"/>
<path d="M27.9738 50.5309C26.5541 50.5309 25.368 51.6403 25.2728 53.0565C25.264 53.1419 25.2658 53.1904 25.2658 53.2389C25.2658 54.7317 26.481 55.9469 27.9738 55.9469C29.4665 55.9469 30.6817 54.7317 30.6817 53.2389C30.6817 53.1904 30.6835 53.1419 30.6782 53.0935C30.5795 51.6403 29.3925 50.5309 27.9738 50.5309Z" fill="#05A7CC"/>
<path d="M27.9739 5.41686C29.3927 5.41686 30.5797 4.3074 30.6748 2.89128C30.6836 2.8058 30.6819 2.75734 30.6819 2.70887C30.6819 1.2152 29.4667 0 27.9739 0C26.4811 0 25.2659 1.2152 25.2659 2.70887C25.2659 2.75734 25.2641 2.8058 25.2694 2.85427C25.3681 4.3074 26.5543 5.41686 27.9739 5.41686Z" fill="#05A7CC"/>
<path d="M48.8108 27.0748C48.8198 27.0567 48.8198 27.0387 48.8287 27.0297C48.8198 27.0477 48.8198 27.0567 48.8198 27.0748C48.8108 27.0838 48.8108 27.1018 48.8018 27.1199C48.8108 27.1018 48.8108 27.0838 48.8108 27.0748Z" fill="#EF5226"/>
<path d="M48.8206 28.8795C48.8206 28.8976 48.8206 28.9156 48.8295 28.9337C48.8206 28.9156 48.8115 28.8976 48.8115 28.8795H48.8206Z" fill="#EF5226"/>
<path d="M53.1801 25.2655C53.151 25.2655 53.1219 25.2655 53.0929 25.269C51.6397 25.3677 50.5303 26.5547 50.5303 27.9735C50.5303 29.3931 51.6397 30.5793 53.0559 30.6744C53.1501 30.685 53.1942 30.6815 53.2391 30.6824C54.7319 30.6824 55.9471 29.4672 55.9471 27.9735C55.9471 26.4613 54.7099 25.277 53.1801 25.2655Z" fill="#05A7CC"/>
<path d="M42.2444 26.4947L39.4104 26.0577C39.05 26.0021 38.7592 25.736 38.672 25.3818C38.3988 24.275 37.9591 23.2228 37.3651 22.2534C37.173 21.9406 37.1897 21.5423 37.4083 21.2462L39.1099 18.94C39.1663 18.8651 39.1619 18.7568 39.1038 18.6995L37.2567 16.8621C37.1862 16.789 37.084 16.7863 37.0144 16.8366L34.71 18.5382C34.4157 18.7559 34.02 18.7726 33.7063 18.584C32.7096 17.9786 31.6548 17.5424 30.5727 17.286C30.2149 17.2014 29.9444 16.9088 29.8888 16.5458L29.4518 13.71C29.4368 13.6043 29.3539 13.5355 29.2561 13.5355H26.6803C26.5825 13.5355 26.4909 13.6192 26.4723 13.7267L26.0582 16.5396C26.0044 16.9053 25.733 17.2005 25.3743 17.286C24.8571 17.4094 24.3909 17.5609 23.9485 17.7495C23.9195 17.7619 23.8895 17.7724 23.8587 17.7821C23.7899 17.8033 23.7291 17.8306 23.6665 17.857C23.1607 18.0659 22.7157 18.2941 22.2407 18.5832C21.9279 18.7735 21.5313 18.7559 21.2361 18.5382L18.93 16.8366C18.8683 16.7925 18.7626 16.7784 18.6885 16.8533L16.8503 18.6915C16.7789 18.7603 16.778 18.8625 16.8327 18.9356L18.537 21.2462C18.7555 21.5423 18.7722 21.9415 18.5793 22.2552C17.9871 23.2166 17.5482 24.2688 17.2742 25.3809C17.1878 25.7351 16.8961 26.0021 16.5357 26.0577L13.7088 26.4947C13.6021 26.5115 13.5352 26.6049 13.5352 26.6816V29.275C13.5352 29.3675 13.6083 29.446 13.7096 29.4618L16.5357 29.8989C16.8961 29.9544 17.1869 30.2205 17.2742 30.5739C17.5518 31.6939 17.9906 32.747 18.5793 33.7022C18.7722 34.016 18.7555 34.4152 18.537 34.7112L16.8362 37.0165C16.8089 37.0544 16.7904 37.1002 16.7886 37.1408C16.7877 37.1848 16.808 37.2315 16.8521 37.2756L18.6797 39.0953C18.7511 39.1693 18.8498 39.1711 18.9265 39.1138L21.2591 37.4157C21.4168 37.3011 21.6036 37.243 21.7904 37.243C21.9543 37.243 22.1191 37.2879 22.2645 37.3778C23.2074 37.9603 24.2561 38.3956 25.3814 38.6732C25.7374 38.7604 26.0044 39.0548 26.0582 39.4178L26.4759 42.2527C26.49 42.3303 26.5816 42.4113 26.6803 42.4113H29.2561C29.3531 42.4113 29.4377 42.3444 29.45 42.2589L29.8888 39.4117C29.9444 39.0512 30.2114 38.7604 30.5647 38.6732C31.6654 38.4018 32.7211 37.9665 33.701 37.3796C34.0121 37.1936 34.4069 37.2121 34.6985 37.4272L37.0135 39.1288C37.0761 39.1737 37.1853 39.1693 37.24 39.1129L39.0994 37.2712C39.1452 37.2236 39.1593 37.1478 39.1425 37.1073C39.1302 37.0773 39.1187 37.0474 39.1099 37.0156L37.4083 34.7112C37.1906 34.4169 37.173 34.0204 37.3633 33.7067C37.9591 32.7267 38.3997 31.6719 38.672 30.573C38.7601 30.2205 39.0509 29.9544 39.4104 29.8989L42.2462 29.4618C42.3387 29.4468 42.411 29.3666 42.411 29.275V26.6816C42.411 26.5961 42.3334 26.5097 42.2444 26.4947ZM28.0101 35.3907C23.9512 35.3907 20.6484 32.0887 20.6484 28.0298C20.6484 23.9709 23.9512 20.6681 28.0101 20.6681C32.069 20.6681 35.3718 23.9709 35.3718 28.0298C35.3718 32.0887 32.069 35.3907 28.0101 35.3907Z" fill="#EF5226"/>
</svg>
