<svg width="51" height="51" viewBox="0 0 51 51" fill="none" xmlns="http://www.w3.org/2000/svg">
<path d="M20.0986 21.5788C19.6885 21.5788 19.2782 21.5201 18.8976 21.3738L11.9834 31.071C13.9582 32.2413 16.226 32.9731 18.6339 33.1968V36.2273H15.7042V50.9734H24.4933V36.2273H21.5636V33.1967C23.9715 32.973 26.2392 32.2413 28.2141 31.0709L21.2999 21.3737C20.919 21.5201 20.5088 21.5788 20.0986 21.5788Z" fill="#EF5226"/>
<path d="M15.7041 17.1843C15.7041 14.7526 17.6669 12.7898 20.0986 12.7898C22.5304 12.7898 24.4932 14.7526 24.4932 17.1843C24.4932 18.1218 24.2003 18.9714 23.7021 19.6745L30.6162 29.3717C34.044 26.4128 36.2119 22.0475 36.2119 17.1843C36.2119 8.30728 28.9757 0.973389 20.0986 0.973389C11.2216 0.973389 3.98535 8.30728 3.98535 17.1843C3.98535 22.0475 6.15332 26.4128 9.58096 29.3717L16.4951 19.6745C15.997 18.9714 15.7041 18.1218 15.7041 17.1843Z" fill="#EF5226"/>
<path d="M20.0986 18.6492C20.9076 18.6492 21.5635 17.9933 21.5635 17.1843C21.5635 16.3753 20.9076 15.7195 20.0986 15.7195C19.2896 15.7195 18.6338 16.3753 18.6338 17.1843C18.6338 17.9933 19.2896 18.6492 20.0986 18.6492Z" fill="#EF5226"/>
<path d="M46.5634 21.5789C44.1401 21.5789 42.1689 23.5501 42.1689 25.9734C42.1689 26.6499 42.3352 27.2832 42.6093 27.8561L36.6297 33.738C36.0567 33.4639 35.4234 33.2976 34.747 33.2976C34.3284 33.2976 33.9313 33.3753 33.5475 33.485L30.6162 29.3717C29.8838 30.0164 29.0634 30.6021 28.2139 31.0711L31.1462 35.1857C30.6489 35.8977 30.3524 36.7596 30.3524 37.6921C30.3524 40.1154 32.3237 42.0867 34.747 42.0867C37.1702 42.0867 39.1415 40.1154 39.1415 37.6921C39.1415 37.0157 38.9752 36.3824 38.7011 35.8094L44.6807 29.9275C45.2536 30.2016 45.8869 30.3679 46.5634 30.3679C48.9866 30.3679 50.9579 28.3966 50.9579 25.9734C50.9579 23.5501 48.9866 21.5789 46.5634 21.5789Z" fill="#05A7CC"/>
<path d="M6.64971 33.485C6.26592 33.3752 5.86875 33.2976 5.4502 33.2976C3.02695 33.2976 0.958008 35.2689 0.958008 37.6921C0.958008 40.1154 3.02695 42.0867 5.4502 42.0867C7.87344 42.0867 9.84473 40.1154 9.84473 37.6921C9.84473 36.7596 9.54825 35.8977 9.05098 35.1857L11.9833 31.071C11.1338 30.6022 10.3134 30.0163 9.58096 29.3717L6.64971 33.485Z" fill="#05A7CC"/>
</svg>
