<svg width="57" height="51" viewBox="0 0 57 51" fill="none" xmlns="http://www.w3.org/2000/svg">
<path d="M20.5045 4.20201C20.7663 4.37653 25.9146 8.82679 33.768 4.55105C33.5935 4.20201 33.3317 3.94023 32.9827 3.59119C31.412 1.93325 29.056 0.973389 26.4382 0.973389H24.4312C21.8134 0.973389 19.5446 1.93325 17.8867 3.59119C17.3631 4.20201 16.9268 4.81283 16.665 5.51091L19.5446 4.11475C19.8937 3.94023 20.2427 3.94023 20.5045 4.20201Z" fill="#EF5226"/>
<path d="M16.3155 20.1707C16.6646 20.2579 16.9264 20.5197 17.0136 20.8688C17.799 23.9229 19.1951 26.3661 20.8531 27.9368C22.162 29.1585 23.7327 29.8565 25.3906 29.8565C26.9613 29.8565 28.532 29.1585 29.8409 27.9368C29.8409 27.9368 29.8409 27.9368 29.9281 27.8496C31.237 26.6279 32.3714 24.97 33.1567 22.8757C31.7606 23.6611 29.8409 24.5337 28.0084 25.0572V25.4063C28.0957 25.8426 27.7466 26.2789 27.3103 26.3661L24.518 27.1515C24.4307 27.1515 24.3435 27.1515 24.3435 27.1515C24.169 27.1515 23.9944 27.0642 23.8199 26.977C23.6454 26.8024 23.4709 26.6279 23.4709 26.3661L23.2091 23.312C23.2091 23.0503 23.2964 22.7885 23.4709 22.614C23.6454 22.4394 23.9072 22.3522 24.169 22.3522L27.1358 22.5267C27.5721 22.5267 27.9211 22.8757 28.0084 23.312V23.3993C30.7135 22.614 33.8548 20.6942 34.2911 20.4325L34.3784 20.3452C34.4656 20.2579 34.5529 20.2579 34.6402 20.2579H34.7274C35.3382 20.1707 36.5599 18.4255 36.9089 16.244C37.0834 15.4586 37.258 13.7134 35.9491 13.4516C35.8618 13.4516 35.8618 13.4516 35.7745 13.4516C35.3382 13.3644 35.0765 12.9281 35.0765 12.579L35.1637 9.78673C35.251 8.56509 35.0765 7.34345 34.6402 6.29633C31.8478 7.77975 29.4046 8.30331 27.2231 8.30331C23.5581 8.30331 20.8531 6.73263 19.8932 6.03455L15.9665 7.95427C15.792 8.39057 15.792 9.00139 15.792 9.61221L15.8792 12.4045C15.8792 12.8408 15.6175 13.1899 15.1812 13.2771C15.1812 13.2771 15.0939 13.2771 15.0066 13.2771C13.6977 13.5389 13.9595 15.2841 14.0468 16.0695C14.4831 18.251 15.7047 19.9962 16.3155 20.1707Z" fill="#EF5226"/>
<path d="M26.5255 23.7483L24.5186 23.661L24.6931 25.668L26.7001 25.2317L26.6128 24.6209V24.3591L26.5255 23.7483Z" fill="#EF5226"/>
<path d="M27.4847 34.1322H23.4707L23.7325 35.8774H27.1356L27.4847 34.1322Z" fill="#EF5226"/>
<path d="M28.2708 37.3608L28.1835 37.4481L29.1434 42.3347L36.3859 32.5615L36.2114 32.4743C34.0299 31.4272 32.1102 30.2928 30.8886 29.5947L30.6268 29.5074L30.5395 29.5947C28.9688 30.8163 27.2236 31.5144 25.4784 31.5144C23.7332 31.5144 21.9008 30.8163 20.4174 29.5947L20.2428 29.5074H20.1556C18.3231 30.6418 16.5779 31.6017 14.8327 32.387L14.6582 32.4743L21.9008 42.0729L22.7734 37.3608H22.5989C22.4243 37.2736 22.3371 37.0991 22.2498 36.9245L21.639 33.3469C21.639 33.1724 21.639 32.9106 21.8135 32.7361C21.988 32.5615 22.1626 32.4743 22.3371 32.4743H28.4453C28.6198 32.4743 28.8816 32.5615 28.9688 32.7361C29.1434 32.9106 29.1434 33.0851 29.1434 33.3469L28.5325 36.9245C28.6198 37.0991 28.4453 37.2736 28.2708 37.3608Z" fill="#EF5226"/>
<path d="M25.565 46.7849L27.7465 43.9053L26.6121 37.7098H24.3434L23.209 43.6435L25.565 46.7849Z" fill="#EF5226"/>
<path d="M54.9721 37.0991C55.0593 36.052 55.8447 35.2666 56.8045 35.0921C56.63 34.2195 56.3682 33.3469 55.9319 32.5615C55.0593 33.0851 53.925 32.9106 53.2269 32.1252C52.5288 31.3399 52.5288 30.2055 53.1396 29.4202C52.4415 28.8966 51.5689 28.4603 50.6963 28.1985C50.4346 29.1584 49.562 29.8565 48.5148 29.7692C47.9913 29.7692 47.4677 29.5074 47.0314 29.0711C46.7696 28.7221 46.5951 28.3731 46.5079 27.9368C45.6353 28.1113 44.7627 28.3731 43.9773 28.8094C44.1518 29.1584 44.3264 29.5947 44.2391 30.031C44.2391 30.5546 43.9773 31.0781 43.541 31.5144C42.7557 32.2125 41.6213 32.2125 40.836 31.6017C40.4869 32.1252 40.1379 32.7361 39.8761 33.3469C39.7888 33.5214 39.7016 33.7832 39.6143 33.9577C40.0506 34.045 40.3997 34.3067 40.6614 34.5685C41.0105 35.0048 41.185 35.5284 41.185 36.1392C41.0977 37.1863 40.3124 37.9717 39.3525 38.1462C39.5271 39.0188 39.7888 39.8914 40.2251 40.6767C40.5742 40.5022 41.0105 40.3277 41.4468 40.415C41.9703 40.415 42.4939 40.6767 42.9302 41.113C43.2792 41.5493 43.4538 42.0729 43.4538 42.6837C43.4538 43.12 43.2792 43.4691 43.0175 43.8181C43.8028 44.3417 44.5881 44.778 45.4607 45.0397C45.548 44.6034 45.8098 44.2544 46.0716 43.9926C46.5079 43.6436 46.9442 43.4691 47.4677 43.4691H47.6422C48.6894 43.5563 49.4747 44.3417 49.6492 45.3015C50.5218 45.127 51.3944 44.8652 52.1798 44.4289C52.0052 44.0799 51.8307 43.6436 51.918 43.2073C51.918 42.6837 52.1798 42.1602 52.6161 41.7239C53.0524 41.3748 53.5759 41.2003 54.1867 41.2003C54.623 41.2003 54.9721 41.3748 55.3211 41.6366C55.8447 40.8513 56.281 40.0659 56.5428 39.1933C56.1065 39.106 55.7574 38.8443 55.4956 38.4952C55.1466 38.1462 54.9721 37.6226 54.9721 37.0991ZM48.0785 42.1602C45.0244 42.1602 42.4939 39.7169 42.4939 36.5755C42.4939 33.5214 44.9372 30.9909 48.0785 30.9909C51.1326 30.9909 53.6632 33.4341 53.6632 36.5755C53.6632 39.7169 51.1326 42.1602 48.0785 42.1602Z" fill="#EF5226"/>
<path d="M49.7364 46.9594C49.3873 47.0467 49.1255 47.0467 48.7765 47.0467C48.602 47.0467 48.4275 46.9594 48.2529 46.8722C48.0784 46.6977 47.9912 46.5231 48.0784 46.3486V45.7378C48.0784 45.5633 48.0784 45.476 47.9912 45.3888C47.9039 45.3015 47.7294 45.2142 47.5549 45.2142C47.3803 45.127 47.2058 45.2142 47.2058 45.2142C47.1186 45.3015 47.0313 45.3888 47.0313 45.5633V46.2614C47.0313 46.4359 46.944 46.6977 46.7695 46.7849C46.595 46.8722 46.4205 46.9594 46.3332 46.9594C46.246 46.9594 46.246 46.9594 46.1587 46.9594C44.3262 46.6104 42.581 45.7378 41.1849 44.5162C41.0104 44.3416 40.9231 44.1671 40.9231 43.9926C40.9231 43.8181 41.0104 43.5563 41.1849 43.469L41.7084 43.0327C41.883 42.8582 41.883 42.6837 41.883 42.6837C41.883 42.5964 41.883 42.4219 41.7957 42.3347C41.6212 42.1601 41.4467 42.1601 41.3594 42.1601C41.2721 42.1601 41.1849 42.1601 41.0104 42.2474L40.4868 42.6837C40.3995 42.771 40.225 42.8582 39.9632 42.8582C39.7887 42.8582 39.6142 42.6837 39.4397 42.5092C38.3926 40.9385 37.7817 39.1933 37.6945 37.2736C37.6945 37.0991 37.7817 36.8373 37.869 36.75C38.0435 36.5755 38.218 36.5755 38.3926 36.5755H39.0906C39.3524 36.5755 39.6142 36.401 39.6142 36.1392C39.6142 35.9647 39.5269 35.8774 39.5269 35.7902C39.4397 35.6156 39.2652 35.6156 39.1779 35.6156H38.5671C38.3926 35.6156 38.1308 35.5284 38.0435 35.3539C37.9563 35.1793 37.869 35.0048 37.869 34.743C37.9563 34.394 38.0435 34.045 38.1308 33.6087L38.218 33.4341L38.0435 33.3469C37.9563 33.3469 37.6945 33.1724 37.6945 33.1724L29.4048 44.4289L29.3175 44.5162L26.1762 48.7046C26.0889 48.8792 25.8271 48.9664 25.5653 48.9664C25.3036 48.9664 25.129 48.8792 24.9545 48.7046L21.7259 44.3416L21.6386 44.2544L13.3489 33.2596H13.1744C11.4292 34.045 9.85853 34.6558 8.46237 35.0921C2.17965 36.9245 1.13253 45.0397 0.958008 47.483V47.6575H1.13253C9.16045 49.839 17.3629 50.9734 25.4781 50.9734C33.5933 50.9734 41.7957 49.839 49.8236 47.6575L49.9981 47.5703L49.9109 46.9594H49.7364Z" fill="#EF5226"/>
<path d="M48.0784 40.4149C50.1506 40.4149 51.8305 38.735 51.8305 36.6627C51.8305 34.5904 50.1506 32.9105 48.0784 32.9105C46.0061 32.9105 44.3262 34.5904 44.3262 36.6627C44.3262 38.735 46.0061 40.4149 48.0784 40.4149Z" fill="#05A7CC"/>
</svg>
