<svg width="51" height="51" viewBox="0 0 51 51" fill="none" xmlns="http://www.w3.org/2000/svg">
<path fill-rule="evenodd" clip-rule="evenodd" d="M23.0181 21.3456C22.8075 20.9815 22.4033 20.8019 21.9911 20.8893L20.3434 21.2389C20.3101 21.2459 20.2782 21.2373 20.253 21.2143C19.5174 20.5444 18.6377 20.0294 17.6656 19.7215C17.633 19.7112 17.6096 19.688 17.599 19.6556L17.0792 18.0592C16.949 17.6592 16.5911 17.3998 16.1698 17.3998H14.9397C14.5184 17.3998 14.1606 17.6592 14.0302 18.0592L13.5105 19.6557C13.4999 19.688 13.4764 19.7113 13.4439 19.7215C12.4717 20.0294 11.5921 20.5444 10.8566 21.2143C10.8314 21.2373 10.7995 21.2459 10.7662 21.2389L9.11846 20.8892C8.70629 20.8019 8.30211 20.9814 8.09146 21.3455L7.4764 22.4086C7.26575 22.7727 7.31194 23.2118 7.59389 23.5242L8.71969 24.772C8.74256 24.7973 8.75089 24.8291 8.74368 24.8624C8.5292 25.8421 8.5292 26.8665 8.74368 27.8462C8.75101 27.8795 8.74256 27.9113 8.71969 27.9366L7.59389 29.1844C7.31194 29.497 7.26575 29.936 7.4764 30.3001L8.09146 31.3631C8.30211 31.7273 8.70629 31.9069 9.11846 31.8194L10.7662 31.4699C10.7996 31.4628 10.8314 31.4715 10.8566 31.4944C11.5922 32.1643 12.4719 32.6794 13.4439 32.9872C13.4764 32.9975 13.4999 33.0207 13.5105 33.0532L14.0302 34.6495C14.1604 35.0495 14.5183 35.309 14.9397 35.309H16.1698C16.5911 35.309 16.9491 35.0495 17.0792 34.6495L17.599 33.0531C17.6096 33.0207 17.633 32.9974 17.6656 32.9872C18.6376 32.6792 19.5173 32.1643 20.2527 31.4944C20.278 31.4715 20.3099 31.4628 20.3432 31.4699L21.9911 31.8195C22.4033 31.9069 22.8075 31.7273 23.0181 31.3632L23.6332 30.3002C23.8438 29.936 23.7976 29.497 23.5157 29.1846L22.3898 27.9366C22.3669 27.9113 22.3586 27.8795 22.3658 27.8462C22.5804 26.866 22.5805 25.8427 22.3659 24.8625C22.3586 24.8293 22.367 24.7974 22.3899 24.7722L23.5157 23.5243C23.7976 23.2118 23.8438 22.7728 23.6332 22.4086L23.0181 21.3456ZM47.6301 42.0127H41.4086C41.3788 42.0127 41.3533 42.0239 41.3331 42.0457C41.313 42.0675 41.3038 42.094 41.3063 42.1235C41.3427 42.5605 41.3427 43.0009 41.3063 43.438C41.3038 43.4676 41.313 43.494 41.3331 43.5158C41.3533 43.5376 41.3788 43.5489 41.4086 43.5489H47.7489C47.7936 43.5489 47.8315 43.576 47.846 43.618C47.8605 43.6602 47.8472 43.7048 47.8119 43.7321L47.1067 44.279C46.7714 44.5392 46.7108 45.0214 46.9715 45.3561C47.2321 45.6908 47.7154 45.7512 48.0507 45.4911L50.6925 43.4421C51.0907 43.1392 51.11 42.5353 50.7044 42.2208L48.0507 40.1625C47.7154 39.9024 47.2321 39.9627 46.9715 40.2975C46.7108 40.6322 46.7713 41.1144 47.1067 41.3746L47.6931 41.8293C47.7283 41.8566 47.7416 41.9013 47.7272 41.9434C47.7127 41.9856 47.6747 42.0127 47.6301 42.0127ZM7.06896 27.0124C7.07121 27.0419 7.06209 27.0682 7.04192 27.0899C7.02176 27.1116 6.9963 27.1227 6.96667 27.1227H4.47266C2.85786 27.1227 1.53921 28.4388 1.53921 30.0502V39.0853C1.53921 40.6967 2.85786 42.0128 4.47266 42.0128H25.4794C25.5091 42.0128 25.5347 42.024 25.5548 42.0458C25.575 42.0676 25.584 42.0941 25.5815 42.1236C25.5453 42.5606 25.5453 43.001 25.5815 43.4381C25.584 43.4677 25.5749 43.4941 25.5548 43.5159C25.5347 43.5377 25.5091 43.549 25.4794 43.549H4.47266C2.00828 43.549 0 41.5448 0 39.0853V30.0502C0 27.5908 2.00828 25.5865 4.47266 25.5865H6.96667C6.9963 25.5865 7.02187 25.5976 7.04192 25.6193C7.06209 25.641 7.07121 25.6672 7.06896 25.6968C7.03528 26.1344 7.03528 26.5747 7.06896 27.0124ZM24.1429 27.1226H46.3232C48.7875 27.1226 50.7958 25.1184 50.7958 22.6589V13.6238C50.7958 11.1644 48.7875 9.16011 46.3232 9.16011H42.0422C42.0126 9.16011 41.987 9.17124 41.967 9.19294C41.9468 9.21463 41.9377 9.24083 41.9399 9.27028C41.9736 9.70804 41.9737 10.1483 41.9399 10.586C41.9377 10.6155 41.9468 10.6418 41.967 10.6635C41.9871 10.6852 42.0126 10.6963 42.0422 10.6963H46.3232C47.9378 10.6963 49.2566 12.0124 49.2566 13.6238V22.6589C49.2566 24.2703 47.938 25.5864 46.3232 25.5864H24.1429C24.1133 25.5864 24.0877 25.5975 24.0677 25.6192C24.0475 25.6409 24.0384 25.6671 24.0406 25.6967C24.0744 26.1342 24.0744 26.5748 24.0406 27.0123C24.0384 27.0418 24.0475 27.0681 24.0677 27.0898C24.0877 27.1116 24.1132 27.1226 24.1429 27.1226ZM31.5086 36.7135C30.6223 36.9949 29.82 37.4645 29.1488 38.0749C29.1236 38.0978 29.0917 38.1065 29.0584 38.0994L27.5552 37.7805C27.1782 37.7005 26.8084 37.8648 26.6156 38.198L26.053 39.1706C25.8602 39.5038 25.9025 39.9055 26.1604 40.1914L27.1874 41.3297C27.2103 41.355 27.2186 41.3867 27.2114 41.42C27.0164 42.3135 27.0164 43.2478 27.2114 44.1413C27.2186 44.1746 27.2102 44.2063 27.1874 44.2316L26.1604 45.3699C25.9025 45.6558 25.8602 46.0575 26.053 46.3907L26.6156 47.3633C26.8084 47.6965 27.1782 47.8608 27.5552 47.7808L29.0584 47.462C29.0917 47.4549 29.1236 47.4636 29.1488 47.4865C29.82 48.0971 30.6222 48.5665 31.5086 48.8479C31.5411 48.8583 31.5646 48.8814 31.575 48.9138L32.0493 50.37C32.1684 50.736 32.4958 50.9734 32.8813 50.9734H34.0066C34.3921 50.9734 34.7196 50.736 34.8388 50.37L35.3129 48.9137C35.3235 48.8813 35.3468 48.8581 35.3794 48.8478C36.2656 48.5663 37.0677 48.0968 37.739 47.4864C37.7642 47.4635 37.7961 47.4548 37.8294 47.4619L39.3327 47.7808C39.7098 47.8608 40.0795 47.6965 40.2723 47.3633L40.835 46.3907C41.0277 46.0575 40.9855 45.6558 40.7275 45.3699L39.7004 44.2315C39.6775 44.2062 39.6692 44.1745 39.6764 44.1412C39.8715 43.2472 39.8715 42.314 39.6765 41.42C39.6693 41.3867 39.6778 41.355 39.7005 41.3297L40.7275 40.1914C40.9855 39.9055 41.0277 39.5038 40.835 39.1706L40.2723 38.198C40.0796 37.8648 39.7098 37.7005 39.3327 37.7805L37.8296 38.0993C37.7962 38.1064 37.7643 38.0977 37.7391 38.0748C37.0679 37.4644 36.2657 36.9948 35.3794 36.7134C35.3468 36.7031 35.3234 36.6799 35.3129 36.6475L34.8388 35.1913C34.7197 34.8253 34.3922 34.5879 34.0066 34.5879H32.8813C32.4958 34.5879 32.1684 34.8253 32.0493 35.1912L31.575 36.6474C31.5646 36.68 31.5411 36.7033 31.5086 36.7135ZM33.444 40.1517C34.8989 40.1517 36.0783 41.3287 36.0783 42.7807C36.0783 44.2326 34.8989 45.4097 33.444 45.4097C31.9891 45.4097 30.8096 44.2326 30.8096 42.7807C30.8097 41.3288 31.9891 40.1517 33.444 40.1517ZM9.39985 10.6965C9.3584 10.6965 9.32292 10.7196 9.30613 10.7573C8.98757 11.4725 8.26955 11.9715 7.43461 11.9715C6.30397 11.9715 5.38747 11.0567 5.38747 9.92838C5.38747 8.80004 6.30408 7.88529 7.43461 7.88529C8.26955 7.88529 8.98757 8.3842 9.30613 9.09941C9.32292 9.13729 9.3584 9.16022 9.39985 9.16022H24.8458C24.8755 9.16022 24.901 9.17135 24.9211 9.19305C24.9412 9.21475 24.9504 9.24094 24.9481 9.27039C24.9144 9.70792 24.9144 10.1485 24.9481 10.5861C24.9504 10.6156 24.9412 10.6419 24.9211 10.6636C24.9009 10.6853 24.8755 10.6964 24.8458 10.6964L9.39985 10.6965ZM31.3998 16.6274C31.3892 16.595 31.3657 16.5717 31.3332 16.5614C30.361 16.2536 29.4814 15.7386 28.7459 15.0686C28.7207 15.0456 28.6888 15.037 28.6554 15.0441L27.0078 15.3936C26.5956 15.481 26.1914 15.3014 25.9808 14.9373L25.3657 13.8742C25.155 13.5101 25.2012 13.071 25.4832 12.7585L26.609 11.5107C26.6317 11.4854 26.6402 11.4535 26.633 11.4203C26.4185 10.4406 26.4185 9.41609 26.633 8.43648C26.6403 8.4032 26.6319 8.37139 26.609 8.34609L25.4832 7.09825C25.2012 6.78573 25.155 6.34674 25.3657 5.98251L25.9808 4.91937C26.1914 4.55525 26.5956 4.3756 27.0078 4.46307L28.6554 4.81257C28.6888 4.81966 28.7207 4.811 28.7459 4.78807C29.4814 4.11817 30.3612 3.60318 31.3332 3.29527C31.3657 3.28493 31.3892 3.26177 31.3998 3.22928L31.9195 1.63283C32.0497 1.23285 32.4076 0.973389 32.8289 0.973389H34.0589C34.4803 0.973389 34.8382 1.23285 34.9684 1.63283L35.4882 3.22917C35.4988 3.26166 35.5222 3.28481 35.5548 3.29516C36.5269 3.60296 37.4066 4.11794 38.1422 4.78795C38.1674 4.81089 38.1993 4.81954 38.2326 4.81246L39.8803 4.46295C40.2925 4.37549 40.6965 4.55514 40.9073 4.91926L41.5224 5.98239C41.733 6.34652 41.6868 6.78562 41.4049 7.09814L40.2791 8.34598C40.2563 8.37127 40.2479 8.40309 40.2551 8.43636C40.4697 9.41654 40.4696 10.4399 40.255 11.42C40.2476 11.4533 40.2561 11.4851 40.279 11.5104L41.4049 12.7584C41.6868 13.0709 41.733 13.5099 41.5224 13.8741L40.9073 14.9372C40.6967 15.3014 40.2925 15.4809 39.8803 15.3935L38.2325 15.0438C38.199 15.0368 38.1673 15.0454 38.142 15.0683C37.4065 15.7382 36.5268 16.2531 35.5549 16.561C35.5223 16.5714 35.4989 16.5945 35.4883 16.6269L34.9685 18.2235C34.8383 18.6233 34.4804 18.8828 34.059 18.8828H32.829C32.4077 18.8828 32.0499 18.6233 31.9196 18.2235L31.3998 16.6274ZM36.0783 9.92838C36.0783 11.3804 34.8989 12.5574 33.444 12.5574C31.9891 12.5574 30.8096 11.3804 30.8096 9.92838C30.8096 8.4765 31.989 7.29937 33.444 7.29937C34.8989 7.29937 36.0783 8.4765 36.0783 9.92838ZM15.5548 23.7255C17.0097 23.7255 18.1892 24.9026 18.1892 26.3545C18.1892 27.8065 17.0097 28.9835 15.5548 28.9835C14.1 28.9835 12.9204 27.8065 12.9204 26.3545C12.9204 24.9026 14.1 23.7255 15.5548 23.7255Z" fill="#EF5226"/>
</svg>
