<svg width="39" height="51" viewBox="0 0 39 51" fill="none" xmlns="http://www.w3.org/2000/svg">
<path d="M36.0348 25.8273V40.7394H3.87109V25.8273C3.87109 25.0085 4.5141 24.3652 5.33319 24.3652H18.4908V34.0146L18.0523 33.5757C17.4969 32.991 16.5615 32.991 16.0055 33.5757C15.4208 34.1312 15.4208 35.0671 16.0055 35.6226L18.9297 38.5464C19.1341 38.8095 19.5727 38.985 19.9529 38.985C20.3329 38.985 20.7717 38.8095 20.9762 38.5464L23.9001 35.6226C24.4848 35.0671 24.4848 34.1312 23.9001 33.5757C23.3447 32.991 22.4093 32.991 21.8536 33.5757L21.4147 34.0146V24.3652H34.573C35.3915 24.3652 36.0348 25.0085 36.0348 25.8273Z" fill="#EF5226"/>
<path d="M18.4912 21.4413H21.4151V24.3652H18.4912V21.4413Z" fill="#05A7CC"/>
<path d="M28.7249 6.82129H27.1166C26.444 3.48816 23.4908 0.973511 19.9529 0.973511C16.415 0.973511 13.4618 3.48816 12.7889 6.82129H11.1813C7.14593 6.82129 3.87109 10.0964 3.87109 14.1315C3.87109 18.1665 7.14593 21.4413 11.1813 21.4413H18.4908V14.7162L18.0523 15.1547C17.4969 15.7394 16.5615 15.7394 16.0055 15.1547C15.4208 14.5993 15.4208 13.6633 16.0055 13.1079L18.7246 10.3885C19.0612 9.94079 19.4933 9.74548 19.9529 9.74548C20.4128 9.74548 20.845 9.94079 21.181 10.3885L23.9001 13.1079C24.4848 13.6633 24.4848 14.5993 23.9001 15.1547C23.6373 15.4474 23.2571 15.5933 22.8771 15.5933C22.4966 15.5933 22.1166 15.4474 21.8536 15.1547L21.4147 14.7162V21.4413H28.7249C32.7602 21.4413 36.0348 18.1665 36.0348 14.1315C36.0348 10.0964 32.7602 6.82129 28.7249 6.82129Z" fill="#05A7CC"/>
<path d="M33.1106 50.9735H6.79504C3.56567 50.9735 0.947266 48.3551 0.947266 45.1257C0.947266 44.3179 1.60187 43.6633 2.40936 43.6633H37.4969C38.3041 43.6633 38.9587 44.3179 38.9587 45.1257C38.9587 48.3551 36.3406 50.9735 33.1106 50.9735Z" fill="#EF5226"/>
</svg>
