<svg width="51" height="50" viewBox="0 0 51 50" fill="none" xmlns="http://www.w3.org/2000/svg">
<path d="M12.6668 24.1409H29.9063C31.334 24.1379 32.7145 23.6288 33.8023 22.704C34.8901 21.7791 35.6146 20.4985 35.8472 19.0898C36.0797 17.6811 35.8052 16.2355 35.0724 15.0101C34.3396 13.7848 33.1959 12.859 31.8448 12.3973C31.7198 12.3548 31.6061 12.2841 31.5127 12.1907C31.4193 12.0973 31.3486 11.9837 31.3061 11.8586C30.7985 10.3562 29.7188 9.11459 28.3014 8.40324C26.8841 7.6919 25.2434 7.56821 23.7354 8.05901C23.5605 8.11571 23.3721 8.11501 23.1976 8.05702C23.0231 7.99902 22.8718 7.88676 22.7657 7.73663C22.0267 6.69126 20.9744 5.90803 19.7609 5.50018C18.5474 5.09234 17.2356 5.08102 16.0153 5.46787C14.795 5.85472 13.7293 6.61969 12.9724 7.65215C12.2155 8.68461 11.8066 9.93106 11.8048 11.2112L11.816 11.4052C11.8221 11.6012 11.7612 11.7934 11.6434 11.9501C11.5255 12.1068 11.3578 12.2186 11.1678 12.2672C9.74871 12.6359 8.51244 13.5087 7.69 14.7225C6.86757 15.9364 6.51525 17.4081 6.6989 18.8628C6.88254 20.3175 7.58957 21.6555 8.68787 22.6268C9.78616 23.5982 11.2006 24.1364 12.6668 24.1409Z" fill="#05A7CC"/>
<path d="M23.7983 6.25216C25.6067 5.81878 27.5108 6.05058 29.1624 6.90521C30.8141 7.75983 32.1031 9.18022 32.7939 10.9068C34.3723 11.5332 35.7001 12.6626 36.5716 14.1202C37.443 15.5777 37.8094 17.282 37.614 18.9689H38.5268C39.9913 18.962 41.4033 18.4228 42.4996 17.4517C43.5958 16.4806 44.3015 15.144 44.4849 13.691C44.6684 12.238 44.3172 10.7679 43.4967 9.55484C42.6763 8.34173 41.4426 7.46842 40.0258 7.09775C39.8358 7.04922 39.6681 6.93738 39.5502 6.78067C39.4324 6.62396 39.3715 6.43176 39.3776 6.23578L39.3888 6.10993C39.4064 4.8217 39.0107 3.56173 38.2599 2.5148C37.509 1.46786 36.4425 0.689043 35.2167 0.29255C33.9908 -0.103944 32.6702 -0.0972498 31.4485 0.31165C30.2267 0.72055 29.1682 1.51014 28.428 2.56463C28.3218 2.71476 28.1705 2.82702 27.996 2.88502C27.8216 2.94302 27.6331 2.94372 27.4582 2.88701C26.4113 2.54523 25.2905 2.49884 24.2189 2.75297C23.1474 3.00709 22.1667 3.55187 21.3848 4.32737C22.3098 4.80128 23.1305 5.45576 23.7983 6.25216Z" fill="#58C4DD"/>
<path d="M16.1148 38.7943C16.1148 38.5657 16.024 38.3465 15.8624 38.1848C15.7007 38.0232 15.4815 37.9324 15.2529 37.9324H3.18522C2.95661 37.9324 2.73736 38.0232 2.57571 38.1848C2.41406 38.3465 2.32324 38.5657 2.32324 38.7943V46.5521H16.1148V38.7943Z" fill="#EF5226"/>
<path d="M2.32356 49.9999H16.1151C16.5724 49.9999 17.0109 49.8183 17.3342 49.495C17.6575 49.1717 17.8391 48.7332 17.8391 48.276H0.599609C0.599609 48.7332 0.781239 49.1717 1.10454 49.495C1.42784 49.8183 1.86634 49.9999 2.32356 49.9999Z" fill="#EF5226"/>
<path d="M33.3545 48.276C33.3545 48.7332 33.5361 49.1717 33.8594 49.495C34.1827 49.8183 34.6212 49.9999 35.0784 49.9999H48.87C49.3272 49.9999 49.7657 49.8183 50.089 49.495C50.4123 49.1717 50.594 48.7332 50.594 48.276H33.3545Z" fill="#EF5226"/>
<path d="M35.0781 38.7943V46.5521H48.8697V38.7943C48.8697 38.5657 48.7789 38.3465 48.6172 38.1848C48.4556 38.0232 48.2363 37.9324 48.0077 37.9324H35.9401C35.7115 37.9324 35.4922 38.0232 35.3306 38.1848C35.1689 38.3465 35.0781 38.5657 35.0781 38.7943Z" fill="#EF5226"/>
<path d="M20.4248 42.2423H23.0107V49.1381H28.1826V42.2423H30.7685L25.5966 37.0704L20.4248 42.2423Z" fill="#EF5226"/>
<path d="M24.7349 25.8647V29.5514C24.4767 29.7016 24.2619 29.9164 24.1117 30.1746H10.9433C10.2575 30.1746 9.59977 30.4471 9.11482 30.932C8.62987 31.417 8.35742 32.0747 8.35742 32.7605V36.2084H10.0814V32.7605C10.0814 32.5319 10.1722 32.3127 10.3338 32.151C10.4955 31.9894 10.7147 31.8986 10.9433 31.8986H24.1117C24.2613 32.1605 24.4774 32.3782 24.7382 32.5297C24.9991 32.6811 25.2953 32.7609 25.5969 32.7609C25.8985 32.7609 26.1947 32.6811 26.4556 32.5297C26.7164 32.3782 26.9326 32.1605 27.0821 31.8986H40.2505C40.4791 31.8986 40.6983 31.9894 40.86 32.151C41.0216 32.3127 41.1124 32.5319 41.1124 32.7605V36.2084H42.8364V32.7605C42.8364 32.0747 42.5639 31.417 42.079 30.932C41.594 30.4471 40.9363 30.1746 40.2505 30.1746H27.0821C26.9319 29.9164 26.7171 29.7016 26.4589 29.5514V25.8647H24.7349Z" fill="#EF5226"/>
</svg>
