<svg width="37" height="50" viewBox="0 0 37 50" fill="none" xmlns="http://www.w3.org/2000/svg">
<path d="M36.2682 43.1248H34.2555V37.1414C34.2555 36.742 33.92 36.465 33.5336 36.465H19.2115V30.1125H20.6144C20.9801 30.1229 21.285 29.8564 21.3259 29.4878L21.58 26.8955C22.6676 26.6085 23.7043 26.1679 24.67 25.5943L26.6624 27.2645C26.9471 27.4998 27.3637 27.4794 27.6178 27.2233L30.5656 24.252C30.83 23.9858 30.8503 23.576 30.6065 23.289L28.9495 21.2807C29.5185 20.3073 29.966 19.2623 30.2507 18.1761L32.8018 17.9199C33.1679 17.8791 33.4423 17.5717 33.432 17.2027V12.9919C33.432 12.6229 33.1576 12.3155 32.7919 12.2747L30.1999 12.0185C29.9152 10.9223 29.478 9.87689 28.8987 8.90353L30.5453 6.89557C30.7792 6.60861 30.759 6.19877 30.5048 5.93222L27.5872 2.96091C27.3232 2.69475 26.9166 2.67434 26.6319 2.90968L24.6497 4.60025C23.6841 4.02672 22.6473 3.57566 21.5598 3.28909L21.3057 0.665984C21.2751 0.296971 20.9701 0.0104059 20.5941 0H16.4162C16.0501 0.0104059 15.7452 0.296971 15.7047 0.665984L15.4506 3.28909C14.363 3.57566 13.3263 4.01631 12.3606 4.60025L10.3681 2.94049C10.0834 2.70476 9.66692 2.72557 9.4128 2.98172L6.46499 5.95303C6.20055 6.21918 6.1803 6.62902 6.4241 6.91598L8.08104 8.92434C7.51165 9.8977 7.06456 10.9427 6.77987 12.0285L4.18783 12.2847C3.82214 12.3259 3.54737 12.6333 3.54737 13.0019V17.2027C3.54737 17.5717 3.82214 17.8791 4.18783 17.9199L6.77987 18.1761C7.06456 19.2727 7.50173 20.3177 8.08104 21.2911L6.43442 23.299C6.20055 23.586 6.2208 24.0062 6.47492 24.2624L9.42272 27.2337C9.68717 27.4898 10.0938 27.5102 10.3785 27.2745L12.3705 25.6043C13.3362 26.1783 14.3729 26.6289 15.4609 26.9159L15.715 29.4978C15.7555 29.8564 16.0604 30.1334 16.4265 30.1229H17.7885V36.4754H3.46637C3.0697 36.4754 2.74451 36.7624 2.74451 37.1518V43.1248H0.731789C0.335519 43.1148 0.0103236 43.4322 0 43.832V49.242C0.0103236 49.6518 0.335519 49.9796 0.731789 50H6.0989C6.49517 49.9796 6.81044 49.6518 6.81044 49.242V43.832C6.81044 43.4426 6.49517 43.1248 6.10922 43.1248H6.0989H4.16758V37.8994H17.7885V43.1248H15.8166C15.4506 43.1248 15.1456 43.4222 15.1456 43.7908V43.8216V49.2316C15.1456 49.631 15.4303 49.9896 15.8166 49.9896H21.1834C21.58 49.9896 21.8544 49.631 21.8544 49.2316V43.8216C21.8746 43.453 21.59 43.1352 21.2139 43.1148C21.204 43.1148 21.1937 43.1148 21.1834 43.1148H19.2115V37.8894H32.8324V43.1148H30.9011C30.5148 43.1044 30.1999 43.4222 30.1896 43.8116V43.8216V49.2316C30.1896 49.631 30.5048 49.9692 30.9011 49.9896H36.2682C36.6748 49.9692 37 49.6414 37 49.2316V43.8216C36.9897 43.4322 36.6645 43.1148 36.2682 43.1248ZM15.2167 22.2644V22.3052C12.4114 21.0145 10.6119 18.1865 10.6223 15.0719C10.6326 10.6866 14.1597 7.14131 18.5103 7.15172C21.59 7.14131 24.3956 8.95476 25.6765 11.7724C26.1848 12.8894 26.4182 14.0573 26.398 15.2048C26.3575 18.1661 24.66 20.9837 21.8139 22.3052L21.8036 22.0391C21.8036 22.0287 21.8036 22.0287 21.8036 22.0183C21.7424 21.209 22.0474 20.4202 22.6168 19.8566C23.7655 18.7704 24.4262 17.2747 24.4973 15.707C24.5076 15.4917 24.5076 15.2868 24.4973 15.0719C24.294 11.7316 21.4375 9.19049 18.124 9.39541C15.0845 9.60033 12.6147 12.1414 12.5027 15.1948C12.4317 16.9466 13.123 18.6475 14.3936 19.8462C15.0336 20.4714 15.3386 21.3731 15.2167 22.2644ZM17.7885 23.002C17.3922 22.9612 16.9955 22.8996 16.6092 22.7971L16.6298 22.4385C16.8125 21.0962 16.3451 19.7438 15.3692 18.8012C14.4035 17.8791 13.875 16.588 13.9258 15.246C14.0072 12.9202 15.8976 10.9735 18.2153 10.8198C18.307 10.8094 18.3984 10.8094 18.5 10.8094C21.0309 10.8094 23.0845 12.879 23.0845 15.4305C23.0845 15.7787 23.0436 16.1169 22.9725 16.4551C22.7692 17.3464 22.3118 18.1661 21.6408 18.8012C20.7668 19.6517 20.2991 20.8504 20.3805 22.0799L20.4007 22.7971C20.0144 22.8892 19.6078 22.9612 19.2115 23.002V18.3298H19.5673C19.9636 18.3298 20.2788 18.0124 20.2788 17.6125C20.2788 17.2131 19.9636 16.8953 19.5673 16.8953H17.4327C17.0364 16.8953 16.7212 17.2131 16.7212 17.6125C16.7212 18.0124 17.0364 18.3298 17.4327 18.3298H17.7885V23.002Z" fill="#EF5226"/>
</svg>
