<svg width="58" height="50" viewBox="0 0 58 50" fill="none" xmlns="http://www.w3.org/2000/svg">
<path d="M20.4211 35.1882C19.5229 35.4902 18.65 35.8429 17.8059 36.244C14.8711 33.4789 12.9755 29.6239 12.7716 25.3324H18.3139C18.4054 28.9339 19.1393 32.3492 20.4211 35.1882ZM21.1187 36.5779C20.4321 36.8027 19.7598 37.0584 19.1052 37.3449C20.3979 38.328 21.8439 39.1204 23.4011 39.678C22.6252 38.901 21.9078 37.9488 21.263 36.8336C21.2145 36.7487 21.1661 36.6639 21.1187 36.5779ZM38.5072 37.3438C37.8526 37.0584 37.1804 36.8027 36.4937 36.5779C36.4463 36.6639 36.3978 36.7487 36.3494 36.8336C35.7047 37.9489 34.9861 38.9011 34.2102 39.678C35.7674 39.1204 37.2145 38.328 38.5072 37.3438ZM44.8397 25.3323H39.2995C39.2081 28.9339 38.4741 32.3492 37.1913 35.1881C38.0884 35.4901 38.9623 35.8428 39.8055 36.2428C42.7403 33.4789 44.6359 29.6238 44.8397 25.3323ZM39.8044 12.88C38.9612 13.2811 38.0884 13.6327 37.1914 13.9357C38.4742 16.7746 39.2082 20.1901 39.2996 23.7916H44.8398C44.6359 19.5002 42.7392 15.644 39.8044 12.88ZM36.3494 12.2903C36.3978 12.3742 36.4463 12.459 36.4937 12.545C37.1804 12.3202 37.8526 12.0655 38.5061 11.7801C37.2134 10.796 35.7664 10.0036 34.2091 9.44486C34.985 10.2217 35.7034 11.1739 36.3494 12.2903ZM12.7716 23.7917H18.3139C18.4055 20.1901 19.1394 16.7747 20.4211 13.9359C19.5241 13.6328 18.6522 13.2801 17.8091 12.8779C14.8732 15.6429 12.9754 19.4991 12.7716 23.7917ZM21.1187 12.545C21.1661 12.459 21.2145 12.3742 21.2631 12.2903C21.9078 11.1739 22.6275 10.2217 23.4022 9.44486C21.845 10.0036 20.399 10.7949 19.1064 11.779C19.7598 12.0644 20.432 12.3202 21.1187 12.545ZM28.8056 40.6148C28.842 40.6148 28.8773 40.6148 28.9136 40.6137C31.1619 40.5641 33.3065 38.9804 34.9728 36.137C32.9924 35.6322 30.9139 35.3722 28.8056 35.3722C26.6974 35.3722 24.6199 35.6323 22.6406 36.137C24.3059 38.9804 26.4494 40.5641 28.6976 40.6137C28.734 40.6148 28.7693 40.6148 28.8056 40.6148ZM21.9088 34.7375C24.1173 34.1402 26.445 33.8327 28.8056 33.8327C31.1663 33.8327 33.4938 34.1402 35.7047 34.7386C36.9511 32.0616 37.6675 28.7962 37.76 25.3324H36.7109C36.6877 25.5705 36.6547 25.8085 36.6106 26.0444C36.5599 26.3143 36.3692 26.537 36.1103 26.6284L34.8672 27.0692C34.8661 27.0714 34.8661 27.0725 34.865 27.0747L35.4325 28.2628C35.5515 28.5108 35.5283 28.8039 35.373 29.0299C34.8021 29.8641 34.0946 30.5706 33.2713 31.1293C33.0443 31.2825 32.7545 31.3045 32.5076 31.1866L31.3196 30.6213L31.3151 30.6235L30.8755 31.8644C30.7828 32.1233 30.5602 32.3129 30.2902 32.3637C29.8009 32.4551 29.3016 32.5015 28.8057 32.5015C28.312 32.5015 27.8139 32.4552 27.3234 32.3637C27.0546 32.313 26.8319 32.1234 26.7393 31.8644L26.2996 30.6235C26.2996 30.6235 26.2962 30.6224 26.294 30.6213L25.1027 31.1866C24.8558 31.3045 24.5648 31.2824 24.3389 31.1282C23.5103 30.5638 22.8037 29.8574 22.2395 29.0287C22.0853 28.8028 22.0632 28.5119 22.1811 28.2639L22.7475 27.0747C22.7464 27.0725 22.7453 27.0703 22.7442 27.0681L21.5033 26.6283C21.2453 26.5368 21.0546 26.3142 21.004 26.0442C20.9599 25.8084 20.9268 25.5703 20.9037 25.3323H19.8545C19.9472 28.7961 20.6636 32.0616 21.9088 34.7375ZM36.6105 23.0775C36.6546 23.3134 36.6888 23.5525 36.712 23.7917H37.76C37.6675 20.3279 36.9511 17.0635 35.7047 14.3866C33.4949 14.9839 31.1674 15.2914 28.8056 15.2914C26.4439 15.2914 24.1163 14.9839 21.9088 14.3877C20.6634 17.0646 19.9472 20.329 19.8545 23.7917H20.9026C20.9258 23.5525 20.9599 23.3134 21.004 23.0775C21.0546 22.8063 21.2453 22.5837 21.5054 22.4923L22.7441 22.0559C22.7452 22.0536 22.7463 22.0514 22.7463 22.0481L22.181 20.8601C22.0631 20.6132 22.0851 20.3233 22.2394 20.0974C22.7982 19.2731 23.5035 18.5655 24.3377 17.9947C24.5636 17.8393 24.8557 17.8162 25.1037 17.9352L26.2939 18.5027C26.2961 18.5016 26.2972 18.5016 26.2994 18.5005L26.7403 17.2596C26.8308 17.0027 27.0511 16.8133 27.3189 16.7614C28.2932 16.5718 29.3258 16.5729 30.2957 16.7614C30.5635 16.8131 30.7839 17.0027 30.8742 17.2596L31.315 18.5016C31.3172 18.5016 31.3194 18.5027 31.3194 18.5027L32.5064 17.9352C32.7544 17.8162 33.0464 17.8393 33.2723 17.9936C34.101 18.559 34.8085 19.2653 35.374 20.0952C35.5293 20.3222 35.5514 20.6132 35.4324 20.8612L34.866 22.047C34.8671 22.0503 34.8671 22.0525 34.8682 22.0547L36.1091 22.4923C36.3691 22.5837 36.5598 22.8063 36.6105 23.0775ZM28.9136 8.51031C28.8773 8.5092 28.842 8.5092 28.8056 8.5092C28.7693 8.5092 28.734 8.5092 28.6976 8.51031C26.4494 8.55988 24.3048 10.1447 22.6406 12.9881C24.6199 13.4917 26.6974 13.7518 28.8056 13.7518C30.915 13.7518 32.9924 13.4917 34.9728 12.987C33.3065 10.1436 31.1619 8.55988 28.9136 8.51031ZM54.1974 18.1942H52.53C51.1821 13.1632 48.2076 8.62161 44.1101 5.35058C39.7217 1.85044 34.4306 0 28.8056 0C23.1807 0 17.8896 1.85044 13.5011 5.35058C9.40359 8.6215 6.42903 13.1632 5.0812 18.1942H3.41383C1.85886 18.1942 0.594727 19.4582 0.594727 21.0133V28.4137C0.594727 29.9688 1.85886 31.2339 3.41383 31.2339H8.66857C9.09399 31.2339 9.43893 30.889 9.43893 30.4636V18.9646C9.43893 18.5391 9.09399 18.1942 8.66857 18.1942H6.67702C9.49723 8.33939 18.4594 1.53962 28.8056 1.53962C39.1519 1.53962 48.114 8.33939 50.9342 18.1942H48.9461C48.5207 18.1942 48.1758 18.5391 48.1758 18.9646V30.4636C48.1758 30.889 48.5208 31.2339 48.9461 31.2339H50.8461C48.5339 38.8514 42.2742 44.8666 34.5586 46.8569C34.4517 46.8847 34.3437 46.9091 34.2364 46.9351C33.8827 46.3997 33.2769 46.0447 32.5892 46.0447H27.0191C25.9291 46.0447 25.043 46.933 25.043 48.024C25.043 49.1129 25.9291 50 27.0191 50H32.589C33.5309 50 34.3194 49.3368 34.5164 48.454C34.6419 48.4237 34.7671 48.3927 34.8922 48.3601C39.0405 47.3043 42.847 45.1696 45.9361 42.1631C49.0406 39.1413 51.2845 35.3733 52.4505 31.2338H54.1972C55.7522 31.2338 57.0163 29.9687 57.0163 28.4136V21.0132C57.0165 19.4582 55.7524 18.1942 54.1974 18.1942ZM33.3208 26.7551C33.2217 26.9644 33.2217 27.2091 33.3219 27.4186L33.8443 28.5118C33.5236 28.9195 33.1599 29.2833 32.7566 29.5996L31.6612 29.0772C31.4517 28.9781 31.2081 28.9781 30.9988 29.0783C30.8037 29.1709 30.6275 29.2436 30.461 29.2998C30.2373 29.3759 30.0609 29.55 29.9827 29.7715L29.5771 30.9154C29.0658 30.9771 28.551 30.9771 28.0375 30.9154L27.6319 29.7715C27.5536 29.5489 27.3763 29.3759 27.1536 29.2998C26.9795 29.2414 26.7998 29.1664 26.6202 29.0805C26.4096 28.9781 26.1651 28.977 25.9535 29.0772L24.8569 29.5996C24.4535 29.2823 24.0854 28.9141 23.7691 28.5118L24.2905 27.4175C24.3896 27.2081 24.3896 26.9645 24.2905 26.7551C24.2 26.5677 24.1263 26.3859 24.0677 26.2151C23.9929 25.9914 23.8186 25.815 23.5961 25.7356L22.4522 25.3301C22.4212 25.0744 22.4059 24.8176 22.4059 24.5619C22.4059 24.3062 22.4212 24.0484 22.4522 23.7916L23.595 23.3893C23.8187 23.3099 23.9939 23.1315 24.0689 22.9066C24.1239 22.7413 24.1967 22.565 24.2903 22.3688C24.3895 22.1593 24.3895 21.9158 24.2903 21.7064L23.768 20.6121C24.0843 20.2076 24.4479 19.8439 24.8558 19.5233L25.9523 20.0467C26.164 20.147 26.4096 20.1459 26.6202 20.0445C26.7954 19.9596 26.9784 19.8837 27.1624 19.8186C27.3818 19.7403 27.5538 19.5684 27.6319 19.3503L28.0386 18.2064C28.5466 18.1435 29.0691 18.1446 29.576 18.2064L29.9827 19.3503C30.0597 19.5684 30.2328 19.7403 30.4521 19.8186C30.6285 19.8804 30.807 19.9553 30.9988 20.0467C31.2081 20.1459 31.4517 20.1459 31.6623 20.0456L32.7555 19.5233C33.1623 19.8417 33.5259 20.2054 33.8455 20.6121L33.322 21.7054C33.2196 21.9181 33.2218 22.166 33.3253 22.3776C33.408 22.544 33.4808 22.7203 33.549 22.9154C33.6251 23.1369 33.7992 23.311 34.0196 23.3893L35.1625 23.7916C35.1933 24.0483 35.2088 24.3062 35.2088 24.5619C35.2088 24.8175 35.1933 25.0744 35.1625 25.3301L34.0185 25.7356C33.7992 25.8139 33.6273 25.9858 33.5501 26.2051C33.485 26.3871 33.409 26.5721 33.3208 26.7551ZM31.3216 24.562C31.3216 23.1746 30.1931 22.046 28.8056 22.046C27.4182 22.046 26.2896 23.1746 26.2896 24.562C26.2896 25.9495 27.4182 27.0792 28.8056 27.0792C30.1931 27.0792 31.3216 25.9495 31.3216 24.562Z" fill="#EF5226"/>
</svg>
