<svg width="51" height="50" viewBox="0 0 51 50" fill="none" xmlns="http://www.w3.org/2000/svg">
<path d="M0 0V50H50.6V0H0ZM13.24 39.62L12.93 39.98C13.0712 40.1559 13.1487 40.3744 13.15 40.6V47.1C13.15 47.3652 13.0446 47.6196 12.8571 47.8071C12.6696 47.9946 12.4152 48.1 12.15 48.1H4.3C4.03478 48.1 3.78043 47.9946 3.59289 47.8071C3.40536 47.6196 3.3 47.3652 3.3 47.1V40.6C3.3 40.3348 3.40536 40.0804 3.59289 39.8929C3.78043 39.7054 4.03478 39.6 4.3 39.6H10.68L11.75 38.33C11.9324 38.1806 12.1616 38.1005 12.3973 38.1037C12.633 38.107 12.86 38.1933 13.0382 38.3476C13.2164 38.5019 13.3344 38.7142 13.3713 38.947C13.4082 39.1798 13.3617 39.4181 13.24 39.62ZM13.24 29.22L12.93 29.58C13.0712 29.7559 13.1487 29.9744 13.15 30.2V36.7C13.15 36.9652 13.0446 37.2196 12.8571 37.4071C12.6696 37.5946 12.4152 37.7 12.15 37.7H4.3C4.03478 37.7 3.78043 37.5946 3.59289 37.4071C3.40536 37.2196 3.3 36.9652 3.3 36.7V30.2C3.3 29.9348 3.40536 29.6804 3.59289 29.4929C3.78043 29.3054 4.03478 29.2 4.3 29.2H10.68L11.75 27.93C11.9324 27.7806 12.1616 27.7005 12.3973 27.7037C12.633 27.7069 12.86 27.7933 13.0382 27.9476C13.2164 28.1019 13.3344 28.3142 13.3713 28.547C13.4082 28.7798 13.3617 29.0181 13.24 29.22ZM35.82 48.1H20.04C19.7748 48.1 19.5204 47.9946 19.3329 47.8071C19.1454 47.6196 19.04 47.3652 19.04 47.1C19.04 46.8348 19.1454 46.5804 19.3329 46.3929C19.5204 46.2054 19.7748 46.1 20.04 46.1H35.82C36.0852 46.1 36.3396 46.2054 36.5271 46.3929C36.7146 46.5804 36.82 46.8348 36.82 47.1C36.82 47.3652 36.7146 47.6196 36.5271 47.8071C36.3396 47.9946 36.0852 48.1 35.82 48.1ZM20.04 40.9H25.3C25.5652 40.9 25.8196 41.0054 26.0071 41.1929C26.1946 41.3804 26.3 41.6348 26.3 41.9C26.3 42.1652 26.1946 42.4196 26.0071 42.6071C25.8196 42.7946 25.5652 42.9 25.3 42.9H20.04C19.7748 42.9 19.5204 42.7946 19.3329 42.6071C19.1454 42.4196 19.04 42.1652 19.04 41.9C19.04 41.6348 19.1454 41.3804 19.3329 41.1929C19.5204 41.0054 19.7748 40.9 20.04 40.9ZM19.04 35.4C19.04 35.1348 19.1454 34.8804 19.3329 34.6929C19.5204 34.5054 19.7748 34.4 20.04 34.4H25.3C25.5652 34.4 25.8196 34.5054 26.0071 34.6929C26.1946 34.8804 26.3 35.1348 26.3 35.4C26.3 35.6652 26.1946 35.9196 26.0071 36.1071C25.8196 36.2946 25.5652 36.4 25.3 36.4H20.04C19.7748 36.4 19.5204 36.2946 19.3329 36.1071C19.1454 35.9196 19.04 35.6652 19.04 35.4ZM28.24 35.4C28.24 35.1348 28.3454 34.8804 28.5329 34.6929C28.7204 34.5054 28.9748 34.4 29.24 34.4H34.51C34.7752 34.4 35.0296 34.5054 35.2171 34.6929C35.4046 34.8804 35.51 35.1348 35.51 35.4C35.51 35.6652 35.4046 35.9196 35.2171 36.1071C35.0296 36.2946 34.7752 36.4 34.51 36.4H29.24C28.9748 36.4 28.7204 36.2946 28.5329 36.1071C28.3454 35.9196 28.24 35.6652 28.24 35.4ZM35.82 42.9H30.56C30.2948 42.9 30.0404 42.7946 29.8529 42.6071C29.6654 42.4196 29.56 42.1652 29.56 41.9C29.56 41.6348 29.6654 41.3804 29.8529 41.1929C30.0404 41.0054 30.2948 40.9 30.56 40.9H35.82C36.0852 40.9 36.3396 41.0054 36.5271 41.1929C36.7146 41.3804 36.82 41.6348 36.82 41.9C36.82 42.1652 36.7146 42.4196 36.5271 42.6071C36.3396 42.7946 36.0852 42.9 35.82 42.9ZM35.82 31.2H20.04C19.7748 31.2 19.5204 31.0946 19.3329 30.9071C19.1454 30.7196 19.04 30.4652 19.04 30.2C19.04 29.9348 19.1454 29.6804 19.3329 29.4929C19.5204 29.3054 19.7748 29.2 20.04 29.2H35.82C36.0852 29.2 36.3396 29.3054 36.5271 29.4929C36.7146 29.6804 36.82 29.9348 36.82 30.2C36.82 30.4652 36.7146 30.7196 36.5271 30.9071C36.3396 31.0946 36.0852 31.2 35.82 31.2ZM37.48 15.2C37.48 15.4652 37.3746 15.7196 37.1871 15.9071C36.9996 16.0946 36.7452 16.2 36.48 16.2H33.68C33.2748 17.3238 32.6446 18.353 31.8278 19.2248C31.0111 20.0966 30.025 20.7925 28.93 21.27V23.7C28.93 23.9652 28.8246 24.2196 28.6371 24.4071C28.4496 24.5946 28.1952 24.7 27.93 24.7H23.99C23.7248 24.7 23.4704 24.5946 23.2829 24.4071C23.0954 24.2196 22.99 23.9652 22.99 23.7V21.79C21.6042 21.4319 20.3272 20.7397 19.2707 19.774C18.2143 18.8082 17.4106 17.5982 16.93 16.25H14.12C13.8548 16.25 13.6004 16.1446 13.4129 15.9571C13.2254 15.7696 13.12 15.5152 13.12 15.25V11.35C13.12 11.0848 13.2254 10.8304 13.4129 10.6429C13.6004 10.4554 13.8548 10.35 14.12 10.35H16.93C17.4106 9.00175 18.2143 7.79182 19.2707 6.82604C20.3272 5.86026 21.6042 5.16806 22.99 4.81V2.9C22.99 2.63478 23.0954 2.38043 23.2829 2.19289C23.4704 2.00536 23.7248 1.9 23.99 1.9H27.93C28.1952 1.9 28.4496 2.00536 28.6371 2.19289C28.8246 2.38043 28.93 2.63478 28.93 2.9V5.28C30.025 5.7575 31.0111 6.45343 31.8278 7.32519C32.6446 8.19696 33.2748 9.22623 33.68 10.35H36.48C36.7452 10.35 36.9996 10.4554 37.1871 10.6429C37.3746 10.8304 37.48 11.0848 37.48 11.35V15.2Z" fill="#EF5226"/>
<path d="M32.7401 12.3299C32.5479 12.2907 32.3715 12.1959 32.2328 12.0572C32.0942 11.9185 31.9993 11.7421 31.9601 11.5499C31.672 10.4775 31.1245 9.49247 30.3659 8.68157C29.6073 7.87066 28.6609 7.2588 27.6101 6.8999C27.4588 6.84966 27.3216 6.76394 27.2101 6.6499C26.7301 6.2499 26.9901 4.7399 26.9301 3.8999H24.9901V5.6199C24.9755 5.91092 24.846 6.18425 24.6301 6.3799C24.4797 6.50042 24.3005 6.57968 24.1101 6.6099C22.8227 6.82456 21.624 7.40411 20.6562 8.27975C19.6884 9.1554 18.9921 10.2904 18.6501 11.5499C18.6175 11.7088 18.5468 11.8573 18.444 11.9827C18.3412 12.1082 18.2095 12.2067 18.0601 12.2699C17.083 12.3624 16.1008 12.3892 15.1201 12.3499V14.2499C15.6501 14.2999 17.9401 14.1099 18.2201 14.4099C18.3306 14.4828 18.4255 14.5769 18.4993 14.6868C18.5731 14.7967 18.6244 14.9201 18.6501 15.0499C18.9905 16.3113 19.686 17.4484 20.6539 18.3259C21.6219 19.2034 22.8215 19.7845 24.1101 19.9999C24.3406 20.0297 24.5535 20.1388 24.7123 20.3085C24.8711 20.4782 24.9658 20.6979 24.9801 20.9299C24.9801 20.9299 24.9801 20.9299 24.9801 20.9899V22.6999H26.9201V20.6399C26.9217 20.432 26.988 20.2297 27.1099 20.0612C27.2317 19.8927 27.4031 19.7664 27.6001 19.6999C28.6509 19.341 29.5973 18.7291 30.3559 17.9182C31.1145 17.1073 31.662 16.1223 31.9501 15.0499C31.9832 14.8871 32.0563 14.7352 32.1628 14.6077C32.2692 14.4803 32.4058 14.3814 32.5601 14.3199C33.528 14.2408 34.4996 14.2174 35.4701 14.2499V12.3499C35.3901 12.3499 32.7201 12.3699 32.7401 12.3299ZM25.3001 18.1999C24.0006 18.1999 22.7542 17.6837 21.8353 16.7647C20.9164 15.8458 20.4001 14.5995 20.4001 13.2999C20.4001 12.0003 20.9164 10.754 21.8353 9.83508C22.7542 8.91615 24.0006 8.3999 25.3001 8.3999C26.5997 8.3999 27.846 8.91615 28.7649 9.83508C29.6839 10.754 30.2001 12.0003 30.2001 13.2999C30.2001 14.5995 29.6839 15.8458 28.7649 16.7647C27.846 17.6837 26.5997 18.1999 25.3001 18.1999Z" fill="#EF5226"/>
<path d="M25.2994 10.3999C24.5303 10.3999 23.7927 10.7054 23.2488 11.2493C22.7049 11.7931 22.3994 12.5308 22.3994 13.2999C22.3994 14.069 22.7049 14.8067 23.2488 15.3505C23.7927 15.8944 24.5303 16.1999 25.2994 16.1999C26.0685 16.1999 26.8062 15.8944 27.35 15.3505C27.8939 14.8067 28.1994 14.069 28.1994 13.2999C28.1994 12.5308 27.8939 11.7931 27.35 11.2493C26.8062 10.7054 26.0685 10.3999 25.2994 10.3999Z" fill="#05A7CC"/>
<path d="M7.5898 35.4199C6.9598 35.5199 6.26981 34.51 5.85981 34.16C5.6715 33.969 5.56677 33.7111 5.56864 33.4429C5.57052 33.1747 5.67885 32.9183 5.8698 32.7299C6.06076 32.5416 6.3187 32.4369 6.58688 32.4388C6.85505 32.4407 7.1115 32.549 7.2998 32.74L7.5198 32.95L8.9898 31.2H5.2998V35.7H11.1898V31.7L8.2998 35.07C8.21151 35.1735 8.103 35.258 7.98091 35.3182C7.85883 35.3784 7.72574 35.413 7.5898 35.4199Z" fill="#05A7CC"/>
<path d="M7.5898 45.8201C6.9698 45.9501 6.26981 44.8901 5.85981 44.5601C5.6715 44.3691 5.56677 44.1112 5.56864 43.843C5.57052 43.5749 5.67885 43.3184 5.8698 43.1301C6.06076 42.9418 6.3187 42.8371 6.58688 42.8389C6.85505 42.8408 7.1115 42.9491 7.2998 43.1401L7.5198 43.3501L8.9898 41.6001H5.2998V46.1001H11.1898V42.1001L8.2998 45.4701C8.21151 45.5737 8.103 45.6582 7.98091 45.7183C7.85883 45.7785 7.72574 45.8132 7.5898 45.8201Z" fill="#05A7CC"/>
</svg>
