<svg width="55" height="46" viewBox="0 0 55 46" fill="none" xmlns="http://www.w3.org/2000/svg">
<path fill-rule="evenodd" clip-rule="evenodd" d="M41.5947 44H13.5947C13.3297 44 13.0748 44.105 12.8878 44.293C12.6998 44.48 12.5947 44.735 12.5947 45V46H42.5947V45C42.5947 44.735 42.4897 44.48 42.3017 44.293C42.1147 44.105 41.8597 44 41.5947 44Z" fill="#05A7CC"/>
<path fill-rule="evenodd" clip-rule="evenodd" d="M19.2129 42L20.2129 40H34.9769L35.9769 42H19.2129Z" fill="#05A7CC"/>
<path fill-rule="evenodd" clip-rule="evenodd" d="M3.59473 38H51.5947C53.2517 38 54.5947 36.657 54.5947 35V3C54.5947 1.343 53.2517 0 51.5947 0H3.59473C1.93773 0 0.594727 1.343 0.594727 3V35C0.594727 36.657 1.93773 38 3.59473 38ZM19.5947 36H35.5947C36.1467 36 36.5947 35.552 36.5947 35C36.5947 34.448 36.1467 34 35.5947 34H19.5947C19.0427 34 18.5947 34.448 18.5947 35C18.5947 35.552 19.0427 36 19.5947 36ZM52.5947 3C52.5947 2.448 52.1467 2 51.5947 2H3.59473C3.04273 2 2.59473 2.448 2.59473 3V31C2.59473 31.552 3.04273 32 3.59473 32H51.5947C52.1467 32 52.5947 31.552 52.5947 31V3ZM50.5947 4V30H4.59473V4H50.5947ZM19.5947 28H23.5947C24.1467 28 24.5947 27.552 24.5947 27C24.5947 26.448 24.1467 26 23.5947 26H19.5947C19.0427 26 18.5947 26.448 18.5947 27C18.5947 27.552 19.0427 28 19.5947 28ZM7.59473 28H15.5947C16.1467 28 16.5947 27.552 16.5947 27C16.5947 26.448 16.1467 26 15.5947 26H7.59473C7.04273 26 6.59473 26.448 6.59473 27C6.59473 27.552 7.04273 28 7.59473 28ZM32.5947 19C32.5947 18.448 32.1467 18 31.5947 18H27.5947C27.0427 18 26.5947 18.448 26.5947 19V27C26.5947 27.552 27.0427 28 27.5947 28H31.5947C32.1467 28 32.5947 27.552 32.5947 27V19ZM40.5947 7C40.5947 6.448 40.1467 6 39.5947 6H35.5947C35.0427 6 34.5947 6.448 34.5947 7V27C34.5947 27.552 35.0427 28 35.5947 28H39.5947C40.1467 28 40.5947 27.552 40.5947 27V7ZM48.5947 15C48.5947 14.448 48.1467 14 47.5947 14H43.5947C43.0427 14 42.5947 14.448 42.5947 15V27C42.5947 27.552 43.0427 28 43.5947 28H47.5947C48.1467 28 48.5947 27.552 48.5947 27V15ZM46.5947 16V26H44.5947V16H46.5947ZM38.5947 8V26H36.5947V8H38.5947ZM30.5947 20V26H28.5947V20H30.5947ZM7.59473 24H23.5947C24.1467 24 24.5947 23.552 24.5947 23C24.5947 22.448 24.1467 22 23.5947 22H7.59473C7.04273 22 6.59473 22.448 6.59473 23C6.59473 23.552 7.04273 24 7.59473 24ZM7.59473 20H11.5947C12.1467 20 12.5947 19.552 12.5947 19C12.5947 18.448 12.1467 18 11.5947 18H7.59473C7.04273 18 6.59473 18.448 6.59473 19C6.59473 19.552 7.04273 20 7.59473 20ZM15.5947 20H23.5947C24.1467 20 24.5947 19.552 24.5947 19C24.5947 18.448 24.1467 18 23.5947 18H15.5947C15.0427 18 14.5947 18.448 14.5947 19C14.5947 19.552 15.0427 20 15.5947 20ZM14.6177 9.37097L11.6767 10.841C11.1367 10.32 10.4027 10 9.59473 10C7.93873 10 6.59473 11.344 6.59473 13C6.59473 14.656 7.93873 16 9.59473 16C11.2507 16 12.5947 14.656 12.5947 13C12.5947 12.874 12.5867 12.751 12.5717 12.629L15.5128 11.159C16.0528 11.68 16.7867 12 17.5947 12C18.4027 12 19.1367 11.68 19.6767 11.159L22.6177 12.629C22.6027 12.751 22.5947 12.874 22.5947 13C22.5947 14.656 23.9387 16 25.5947 16C27.2507 16 28.5947 14.656 28.5947 13C28.5947 11.344 27.2507 10 25.5947 10C24.7867 10 24.0528 10.32 23.5128 10.841L20.5717 9.37097C20.5867 9.24897 20.5947 9.126 20.5947 9C20.5947 7.344 19.2507 6 17.5947 6C15.9387 6 14.5947 7.344 14.5947 9C14.5947 9.126 14.6027 9.24897 14.6177 9.37097ZM9.59473 12C10.1467 12 10.5947 12.448 10.5947 13C10.5947 13.552 10.1467 14 9.59473 14C9.04273 14 8.59473 13.552 8.59473 13C8.59473 12.448 9.04273 12 9.59473 12ZM25.5947 12C26.1467 12 26.5947 12.448 26.5947 13C26.5947 13.552 26.1467 14 25.5947 14C25.0427 14 24.5947 13.552 24.5947 13C24.5947 12.448 25.0427 12 25.5947 12ZM17.5947 8C18.1467 8 18.5947 8.448 18.5947 9C18.5947 9.552 18.1467 10 17.5947 10C17.0427 10 16.5947 9.552 16.5947 9C16.5947 8.448 17.0427 8 17.5947 8Z" fill="#EF5226"/>
</svg>
