<svg width="58" height="50" viewBox="0 0 58 50" fill="none" xmlns="http://www.w3.org/2000/svg">
<path fill-rule="evenodd" clip-rule="evenodd" d="M25.2026 46.4191C21.0912 46.4191 17.7424 43.0703 17.7424 38.9589C17.7424 35.1459 20.627 31.996 24.3405 31.565V35.2785C22.6827 35.6764 21.4227 37.1684 21.4227 38.9589C21.4227 41.0477 23.1137 42.7387 25.2026 42.7387C27.3909 42.7387 29.115 40.9151 28.9824 38.7268L32.5302 37.5332C33.4254 42.1088 29.9108 46.4191 25.2026 46.4191ZM45.8259 46.4191C49.5063 46.4191 52.5235 43.4019 52.5235 39.7215C52.5235 36.2732 49.9373 33.4549 46.5885 33.057V36.4058C48.1137 36.7706 49.2079 38.0968 49.2079 39.7215C49.2079 41.6114 47.6827 43.1366 45.8259 43.1366C43.8697 43.1366 42.3113 41.4788 42.4108 39.5225L39.2278 38.4284C38.432 42.5729 41.615 46.4191 45.8259 46.4191ZM37.9347 37.1684H35.1827C33.9227 37.1684 33.9227 35.2454 35.1827 35.2454H37.9347C39.1946 35.2454 39.1946 37.1684 37.9347 37.1684ZM40.6867 34.3501H35.1827C33.9227 34.3501 33.9227 32.4271 35.1827 32.4271H40.6867C41.9466 32.4271 41.9466 34.3501 40.6867 34.3501ZM51.8604 30.2387H48.81C47.5169 30.2387 47.5169 28.3157 48.81 28.3157H51.8604C53.1203 28.3157 53.1203 30.2387 51.8604 30.2387ZM44.3339 30.2387H41.2835C40.0235 30.2387 40.0235 28.3157 41.2835 28.3157H44.3339C45.5938 28.3157 45.5938 30.2387 44.3339 30.2387ZM36.8073 30.2387H33.7569C32.497 30.2387 32.497 28.3157 33.7569 28.3157H36.8073C38.1004 28.3157 38.1004 30.2387 36.8073 30.2387ZM29.314 30.2387H26.2304C24.9705 30.2387 24.9705 28.3157 26.2304 28.3157H29.314C30.5739 28.3157 30.5739 30.2387 29.314 30.2387ZM21.7874 30.2387H18.7039C17.4439 30.2387 17.4439 28.3157 18.7039 28.3157H21.7874C23.0474 28.3157 23.0474 30.2387 21.7874 30.2387ZM22.2185 27.321H18.2729C17.7424 27.321 17.3113 26.8899 17.3113 26.3594V21.6844C17.3113 21.1538 17.7424 20.7228 18.2729 20.7228H22.2185C22.749 20.7228 23.18 21.1538 23.18 21.6844V26.3594C23.18 26.8899 22.749 27.321 22.2185 27.321ZM29.745 27.321H25.7662C25.2357 27.321 24.8047 26.8899 24.8047 26.3594V19.3302C24.8047 18.7997 25.2357 18.3687 25.7662 18.3687H29.745C30.2755 18.3687 30.7065 18.7997 30.7065 19.3302V26.3594C30.7065 26.8899 30.2755 27.321 29.745 27.321ZM37.2715 27.321H33.2928C32.7623 27.321 32.3312 26.8899 32.3312 26.3594V15.8488C32.3312 15.3183 32.7623 14.8873 33.2928 14.8873H37.2715C37.802 14.8873 38.2331 15.3183 38.2331 15.8488V26.3594C38.2331 26.8899 37.802 27.321 37.2715 27.321ZM44.7981 27.321H40.8193C40.2888 27.321 39.8577 26.8899 39.8577 26.3594V19.3302C39.8577 18.7997 40.2888 18.3687 40.8193 18.3687H44.7981C45.3286 18.3687 45.7596 18.7997 45.7596 19.3302V26.3594C45.7596 26.8899 45.3286 27.321 44.7981 27.321ZM52.3246 27.321H48.3458C47.8153 27.321 47.3843 26.8899 47.3843 26.3594V10.5769C47.3843 10.0464 47.8153 9.61539 48.3458 9.61539H52.3246C52.8551 9.61539 53.2861 10.0464 53.2861 10.5769V26.3594C53.2861 26.8899 52.8551 27.321 52.3246 27.321ZM27.6561 10.7427H18.9028C17.6429 10.7427 17.6429 8.81963 18.9028 8.81963H27.6561C28.9493 8.81963 28.9493 10.7427 27.6561 10.7427ZM14.4599 50H1.46252C0.932011 50 0.500977 49.569 0.500977 49.0385V7.49337H15.4214V48.0769H55.176V7.49337H57.0991V49.0385C57.0991 49.569 56.6681 50 56.1376 50H14.4599ZM0.500977 6.49867V0.961538C0.500977 0.431035 0.932011 0 1.46252 0H56.1376C56.6681 0 57.0991 0.431035 57.0991 0.961538V6.49867C38.2331 6.49867 19.367 6.49867 0.500977 6.49867ZM10.7132 12.2679C11.4095 12.2679 11.4095 11.2069 10.7132 11.2069H5.17604C4.51291 11.2069 4.51291 12.2679 5.17604 12.2679H10.7132ZM10.7132 32.1286C11.4095 32.1286 11.4095 31.1008 10.7132 31.1008H5.17604C4.51291 31.1008 4.51291 32.1286 5.17604 32.1286H10.7132ZM10.7132 28.1499C11.4095 28.1499 11.4095 27.122 10.7132 27.122H5.17604C4.51291 27.122 4.51291 28.1499 5.17604 28.1499H10.7132ZM10.7132 24.2042C11.4095 24.2042 11.4095 23.1432 10.7132 23.1432H5.17604C4.51291 23.1432 4.51291 24.2042 5.17604 24.2042H10.7132ZM10.7132 20.2255C11.4095 20.2255 11.4095 19.1645 10.7132 19.1645H5.17604C4.51291 19.1645 4.51291 20.2255 5.17604 20.2255H10.7132ZM10.7132 16.2467C11.4095 16.2467 11.4095 15.1857 10.7132 15.1857H5.17604C4.51291 15.1857 4.51291 16.2467 5.17604 16.2467H10.7132ZM25.2026 41.8435C23.6111 41.8435 22.318 40.5504 22.318 38.9589C22.318 37.3674 23.6111 36.0743 25.2026 36.0743C26.7941 36.0743 28.0872 37.3674 28.0872 38.9589C28.0872 40.5504 26.7941 41.8435 25.2026 41.8435ZM25.2026 37.8316C23.7105 37.8316 23.7105 40.0862 25.2026 40.0862C26.6946 40.0862 26.6946 37.8316 25.2026 37.8316Z" fill="#EF5226"/>
</svg>
