<svg width="53" height="50" viewBox="0 0 53 50" fill="none" xmlns="http://www.w3.org/2000/svg">
<path d="M12.3225 16.071H23.9298V10.7138H20.3583C20.1759 10.7138 19.9979 10.6579 19.8482 10.5537C19.6985 10.4495 19.5843 10.3019 19.521 10.1308C19.4577 9.95977 19.4483 9.77342 19.4941 9.59686C19.5398 9.4203 19.6386 9.26199 19.777 9.14323L26.0271 3.78601C26.1889 3.64768 26.3947 3.57166 26.6075 3.57166C26.8203 3.57166 27.0261 3.64768 27.1879 3.78601L33.4379 9.14323C33.5763 9.26189 33.675 9.42004 33.7208 9.59643C33.7666 9.77282 33.7574 9.95901 33.6943 10.13C33.6312 10.301 33.5173 10.4486 33.3679 10.5529C33.2185 10.6573 33.0407 10.7134 32.8585 10.7138H29.287V16.071H40.8943C41.8415 16.071 42.7499 15.6947 43.4197 15.0249C44.0895 14.3552 44.4658 13.4467 44.4658 12.4995C44.4658 11.5523 44.0895 10.6439 43.4197 9.97411C42.7499 9.30433 41.8415 8.92805 40.8943 8.92805H38.7961C38.6535 8.92805 38.513 8.89391 38.3863 8.82848C38.2596 8.76305 38.1505 8.66824 38.0679 8.55197C37.9854 8.43571 37.9319 8.30137 37.912 8.1602C37.892 8.01902 37.9061 7.87512 37.9532 7.74053C38.1239 7.2618 38.2127 6.7577 38.2157 6.24944C38.2143 5.06586 37.7435 3.93115 36.9065 3.09423C36.0696 2.25731 34.9349 1.78651 33.7513 1.78509C32.5787 1.78187 31.4528 2.24432 30.6209 3.07082C30.5324 3.1587 30.4264 3.22704 30.3097 3.27143C30.1931 3.31583 30.0685 3.33529 29.9439 3.32855C29.8193 3.32182 29.6975 3.28906 29.5864 3.23236C29.4752 3.17567 29.3772 3.0963 29.2986 2.99939C28.2561 1.70332 26.8372 0.762665 25.2375 0.307181C23.6378 -0.148303 21.9361 -0.0961691 20.3673 0.456392C18.7985 1.00895 17.4398 2.03471 16.4786 3.39217C15.5175 4.74963 15.0012 6.37189 15.0011 8.03518C15.0011 8.27199 14.907 8.49909 14.7396 8.66654C14.5721 8.83398 14.345 8.92805 14.1082 8.92805H12.3225C11.3752 8.92805 10.4668 9.30433 9.79704 9.97411C9.12726 10.6439 8.75098 11.5523 8.75098 12.4995C8.75098 13.4467 9.12726 14.3552 9.79704 15.0249C10.4668 15.6947 11.3752 16.071 12.3225 16.071Z" fill="#EF5226"/>
<path d="M26.608 26.7855C27.5942 26.7855 28.3937 25.986 28.3937 24.9997C28.3937 24.0135 27.5942 23.214 26.608 23.214C25.6218 23.214 24.8223 24.0135 24.8223 24.9997C24.8223 25.986 25.6218 26.7855 26.608 26.7855Z" fill="#05A7CC"/>
<path d="M31.5666 26.8748L32.8586 26.2337V23.7658L31.5666 23.1247C31.4403 23.0614 31.3308 22.969 31.2472 22.8552C31.1635 22.7413 31.1081 22.6092 31.0854 22.4698C31.0628 22.3303 31.0735 22.1875 31.1168 22.053C31.1601 21.9185 31.2347 21.7962 31.3345 21.6961L31.5961 21.4283L29.8103 19.6425H28.3942C28.1574 19.6425 27.9303 19.5485 27.7629 19.381C27.5954 19.2136 27.5014 18.9865 27.5014 18.7497V9.82096C27.5014 9.58416 27.5954 9.35705 27.7629 9.1896C27.9303 9.02216 28.1574 8.92809 28.3942 8.92809H30.4478L26.6085 5.63965L22.7691 8.92809H24.8227C25.0596 8.92809 25.2867 9.02216 25.4541 9.1896C25.6215 9.35705 25.7156 9.58416 25.7156 9.82096V18.7497C25.7156 18.9865 25.6215 19.2136 25.4541 19.381C25.2867 19.5485 25.0596 19.6425 24.8227 19.6425H23.4067L21.6209 21.4283L21.8825 21.6899C21.9823 21.7899 22.0569 21.9122 22.1002 22.0467C22.1434 22.1812 22.1542 22.3241 22.1315 22.4635C22.1089 22.603 22.0534 22.735 21.9698 22.8489C21.8862 22.9628 21.7767 23.0552 21.6504 23.1185L20.3584 23.7658V26.2337L21.6504 26.8792C21.7767 26.9426 21.8862 27.0349 21.9698 27.1488C22.0534 27.2627 22.1089 27.3948 22.1315 27.5342C22.1542 27.6737 22.1434 27.8165 22.1002 27.951C22.0569 28.0855 21.9823 28.2078 21.8825 28.3078L21.6209 28.5712L23.4067 30.357H24.8227C25.0596 30.357 25.2867 30.451 25.4541 30.6185C25.6215 30.7859 25.7156 31.013 25.7156 31.2498V40.1785C25.7156 40.4153 25.6215 40.6425 25.4541 40.8099C25.2867 40.9773 25.0596 41.0714 24.8227 41.0714H22.7691L26.6085 44.3599L30.4478 41.0714H28.3942C28.1574 41.0714 27.9303 40.9773 27.7629 40.8099C27.5954 40.6425 27.5014 40.4153 27.5014 40.1785V31.2498C27.5014 31.013 27.5954 30.7859 27.7629 30.6185C27.9303 30.451 28.1574 30.357 28.3942 30.357H29.8103L31.5961 28.5712L31.3345 28.3096C31.2347 28.2096 31.1601 28.0873 31.1168 27.9528C31.0735 27.8183 31.0628 27.6755 31.0854 27.536C31.1081 27.3965 31.1635 27.2645 31.2472 27.1506C31.3308 27.0367 31.4403 26.9443 31.5666 26.881V26.8748ZM26.6085 28.5712C25.9021 28.5712 25.2116 28.3618 24.6243 27.9693C24.037 27.5769 23.5792 27.0191 23.3089 26.3665C23.0386 25.7139 22.9678 24.9958 23.1056 24.303C23.2434 23.6102 23.5836 22.9738 24.0831 22.4743C24.5826 21.9749 25.2189 21.6347 25.9117 21.4969C26.6045 21.3591 27.3226 21.4298 27.9752 21.7001C28.6278 21.9704 29.1856 22.4282 29.5781 23.0155C29.9705 23.6029 30.18 24.2934 30.18 24.9998C30.18 25.947 29.8037 26.8554 29.1339 27.5252C28.4641 28.195 27.5557 28.5712 26.6085 28.5712Z" fill="#EF5226"/>
<path d="M46.2519 39.2856H43.109C42.9663 39.2855 42.8257 39.2513 42.6989 39.1857C42.5722 39.1201 42.463 39.0251 42.3805 38.9086C42.2981 38.7921 42.2447 38.6576 42.225 38.5162C42.2052 38.3749 42.2196 38.2309 42.267 38.0963C42.6506 37.0192 42.7697 35.8657 42.6141 34.733C42.4586 33.6004 42.033 32.5217 41.3733 31.5879C40.7136 30.6541 39.839 29.8926 38.8234 29.3676C37.8077 28.8426 36.6808 28.5694 35.5375 28.5711C34.9183 28.5722 34.302 28.6547 33.7044 28.8167C33.667 28.9614 33.5933 29.0942 33.4901 29.2024L30.8115 31.881C30.6441 32.0484 30.417 32.1425 30.1802 32.1426H29.2874V39.2856H32.8589C33.0413 39.2856 33.2193 39.3415 33.369 39.4457C33.5186 39.5499 33.6328 39.6975 33.6961 39.8685C33.7594 40.0396 33.7688 40.2259 33.7231 40.4025C33.6773 40.5791 33.5786 40.7374 33.4401 40.8561L27.19 46.2133C27.0283 46.3517 26.8225 46.4277 26.6097 46.4277C26.3968 46.4277 26.191 46.3517 26.0293 46.2133L19.7792 40.8561C19.6409 40.7375 19.5422 40.5793 19.4963 40.4029C19.4505 40.2265 19.4598 40.0403 19.5229 39.8694C19.5859 39.6984 19.6998 39.5508 19.8493 39.4464C19.9987 39.3421 20.1764 39.2859 20.3587 39.2856H23.9302V32.1426H23.0373C22.8005 32.1425 22.5734 32.0484 22.406 31.881L19.7274 29.2024C19.56 29.0349 19.466 28.8079 19.466 28.5711C19.466 28.3344 19.56 28.1073 19.7274 27.9399L19.7444 27.9229L19.0667 27.5845C18.9349 27.5166 18.8223 27.4169 18.739 27.2943C16.371 28.0343 14.2999 29.5087 12.8254 31.5039C11.3508 33.4991 10.5494 35.9118 10.5371 38.3927C10.5371 38.6295 10.443 38.8566 10.2756 39.024C10.1081 39.1915 9.88103 39.2856 9.64423 39.2856H6.96562C5.5448 39.2856 4.18217 39.85 3.17749 40.8547C2.17282 41.8593 1.6084 43.222 1.6084 44.6428C1.6084 46.0636 2.17282 47.4262 3.17749 48.4309C4.18217 49.4356 5.5448 50 6.96562 50H46.2519C47.6727 50 49.0354 49.4356 50.04 48.4309C51.0447 47.4262 51.6091 46.0636 51.6091 44.6428C51.6091 43.222 51.0447 41.8593 50.04 40.8547C49.0354 39.85 47.6727 39.2856 46.2519 39.2856Z" fill="#EF5226"/>
<path d="M5.17919 30.357H8.75067V24.9998H13.215L6.96493 19.6426L0.714844 24.9998H5.17919V30.357Z" fill="#05A7CC"/>
<path d="M44.4653 19.6426V24.9998H40.001L46.2511 30.357L52.5012 24.9998H48.0368V19.6426H44.4653Z" fill="#05A7CC"/>
</svg>
