<svg width="49" height="50" viewBox="0 0 49 50" fill="none" xmlns="http://www.w3.org/2000/svg">
<path d="M32.3737 19.056L31.1052 20.3246C32.0283 21.6527 32.5714 23.2638 32.5714 25.0001C32.5714 29.529 28.8869 33.2135 24.358 33.2135C19.829 33.2135 16.1446 29.529 16.1446 25.0001C16.1446 20.4713 19.8291 16.7868 24.358 16.7868C26.0943 16.7868 27.7054 17.3299 29.0335 18.2531L30.3021 16.9844L29.8957 12.9303C28.2091 12.1534 26.3335 11.7192 24.3581 11.7192C17.035 11.7192 11.0771 17.6771 11.0771 25.0001C11.0771 32.3232 17.0349 38.2811 24.358 38.2811C31.681 38.2811 37.6389 32.3232 37.6389 25.0001C37.6389 23.0248 37.2047 21.1491 36.4278 19.4625L32.3737 19.056Z" fill="#EF5226"/>
<path d="M24.3568 26.465C23.9819 26.465 23.607 26.3219 23.321 26.0359C22.7489 25.4639 22.7489 24.5364 23.321 23.9643L26.9094 20.3759C26.1522 19.9563 25.2822 19.7166 24.3569 19.7166C21.4435 19.7166 19.0732 22.0868 19.0732 25.0002C19.0732 27.9136 21.4435 30.2838 24.3569 30.2838C27.2702 30.2838 29.6406 27.9136 29.6406 25.0002C29.6406 24.0749 29.4007 23.2047 28.9811 22.4475L25.3927 26.0359C25.1066 26.3219 24.7317 26.465 24.3568 26.465Z" fill="#05A7CC"/>
<path d="M46.371 28.7773C46.5834 27.5316 46.6908 26.264 46.6908 25.0001C46.6908 23.7362 46.5833 22.4686 46.371 21.2229L48.4262 18.4535C48.774 17.9846 48.8104 17.3538 48.5184 16.8482L45.8703 12.2616L39.3336 18.7981C40.1282 20.7097 40.5679 22.8044 40.5679 25.0002C40.5679 33.9387 33.2958 41.2108 24.3573 41.2108C15.4188 41.2108 8.14671 33.9386 8.14671 25.0001C8.14671 16.0616 15.4188 8.78949 24.3573 8.78949C26.5531 8.78949 28.6479 9.22914 30.5594 10.0238L35.1408 5.4424C34.1651 4.90393 33.1484 4.43888 32.0942 4.05002L30.7223 0.882621C30.4902 0.346779 29.962 0 29.378 0H19.3366C18.7527 0 18.2245 0.346779 17.9924 0.882621L16.6204 4.05002C14.2375 4.92893 12.0453 6.19582 10.0877 7.82532L6.65335 7.42913C6.07336 7.36194 5.50881 7.64622 5.21691 8.15189L0.19629 16.8481C-0.0957033 17.3539 -0.0594727 17.9846 0.288575 18.4535L2.34376 21.2228C2.13126 22.4686 2.02384 23.7362 2.02384 25C2.02384 26.2638 2.13136 27.5314 2.34376 28.7772L0.288575 31.5467C-0.0593751 32.0156 -0.0957033 32.6464 0.19629 33.152L5.21701 41.8481C5.50901 42.3538 6.07307 42.6381 6.65344 42.5709L10.0879 42.1747C12.0454 43.8043 14.2375 45.0711 16.6205 45.95L17.9925 49.1174C18.2246 49.6532 18.7527 50 19.3367 50H29.3781C29.962 50 30.4903 49.6532 30.7224 49.1174L32.0944 45.95C34.4773 45.0711 36.6695 43.8042 38.627 42.1747L42.0614 42.5709C42.6421 42.638 43.2059 42.3538 43.4978 41.8481L48.5185 33.152C48.8104 32.6463 48.7742 32.0156 48.4264 31.5467L46.371 28.7773Z" fill="#EF5226"/>
<path d="M41.5023 7.85478L43.3851 8.04355L47.1512 4.27743C47.7233 3.70545 47.7233 2.77791 47.1512 2.20584C46.5792 1.63386 45.6517 1.63386 45.0796 2.20584L41.3135 5.97196L41.5023 7.85478Z" fill="#EF5226"/>
<path d="M32.7441 11.9819L33.1661 16.1911L37.3753 16.6131L43.0357 10.9528L40.0185 10.6502C39.3249 10.5806 38.7766 10.0323 38.7071 9.33873L38.4044 6.32153L32.7441 11.9819Z" fill="#EF5226"/>
</svg>
