<svg width="51" height="50" viewBox="0 0 51 50" fill="none" xmlns="http://www.w3.org/2000/svg">
<path d="M47.421 25.0001C47.421 25.9862 46.6215 26.7858 45.6353 26.7858C44.6492 26.7858 43.8496 25.9862 43.8496 25.0001C43.8496 24.0139 44.6492 23.2144 45.6353 23.2144C46.6215 23.2144 47.421 24.0139 47.421 25.0001Z" fill="#EF5226"/>
<path d="M34.9213 22.3214H31.9803C31.6982 22.3214 31.4327 22.188 31.2644 21.9617C31.0961 21.7359 31.0443 21.4434 31.1249 21.1731C31.7313 19.3002 31.2614 17.2455 29.9012 15.822C28.541 14.3986 26.5098 13.8362 24.6112 14.3568C22.7125 14.8777 21.2525 16.3979 20.8087 18.3162C20.7437 18.5717 20.5689 18.7853 20.3313 18.8995C20.0941 19.0142 19.8182 19.0181 19.5775 18.91C19.026 18.6584 18.3847 18.7055 17.8759 19.0347C17.3672 19.3638 17.0611 19.9297 17.0642 20.5357C17.0677 20.7393 17.106 20.9407 17.1766 21.1312C17.273 21.4041 17.2311 21.7071 17.0637 21.9439C16.8968 22.1806 16.6252 22.321 16.3357 22.3214H15.2785C13.3062 22.3214 11.707 23.9205 11.707 25.8928C11.707 27.8651 13.3062 29.4643 15.2785 29.4643H34.9213C36.8936 29.4643 38.4927 27.8651 38.4927 25.8928C38.4927 23.9205 36.8936 22.3214 34.9213 22.3214ZM25.9927 22.3214H24.207V20.5357H25.9927V22.3214ZM29.5642 22.3214H27.7785V20.5357H29.5642V22.3214Z" fill="#05A7CC"/>
<path d="M42.0638 14.2857H49.2066C49.6997 14.2857 50.0995 13.8859 50.0995 13.3928V0.892857C50.0995 0.39978 49.6997 0 49.2066 0H48.3138V0.892857C48.3138 1.87901 47.5142 2.67857 46.528 2.67857H44.7423C43.7562 2.67857 42.9566 1.87901 42.9566 0.892857V0H42.0638C41.5707 0 41.1709 0.39978 41.1709 0.892857V13.3928C41.1709 13.8859 41.5707 14.2857 42.0638 14.2857Z" fill="#EF5226"/>
<path d="M44.7422 0H46.5279V0.892857H44.7422V0Z" fill="#EF5226"/>
<path d="M0.992466 14.2857H8.13532C8.6284 14.2857 9.02818 13.8859 9.02818 13.3928V0.892857C9.02818 0.39978 8.6284 0 8.13532 0H7.24246V0.892857C7.24246 1.87901 6.4429 2.67857 5.45675 2.67857H3.67104C2.68488 2.67857 1.88532 1.87901 1.88532 0.892857V0H0.992466C0.499389 0 0.0996094 0.39978 0.0996094 0.892857V13.3928C0.0996094 13.8859 0.499389 14.2857 0.992466 14.2857Z" fill="#EF5226"/>
<path d="M3.6709 0H5.45661V0.892857H3.6709V0Z" fill="#EF5226"/>
<path d="M42.0638 49.9999H49.2066C49.6997 49.9999 50.0995 49.6002 50.0995 49.1071V36.6071C50.0995 36.114 49.6997 35.7142 49.2066 35.7142H48.3138V36.6071C48.3138 37.5932 47.5142 38.3928 46.528 38.3928H44.7423C43.7562 38.3928 42.9566 37.5932 42.9566 36.6071V35.7142H42.0638C41.5707 35.7142 41.1709 36.114 41.1709 36.6071V49.1071C41.1709 49.6002 41.5707 49.9999 42.0638 49.9999Z" fill="#EF5226"/>
<path d="M44.7422 35.7142H46.5279V36.6071H44.7422V35.7142Z" fill="#EF5226"/>
<path d="M0.992466 49.9999H8.13532C8.6284 49.9999 9.02818 49.6002 9.02818 49.1071V36.6071C9.02818 36.114 8.6284 35.7142 8.13532 35.7142H7.24246V36.6071C7.24246 37.5932 6.4429 38.3928 5.45675 38.3928H3.67104C2.68488 38.3928 1.88532 37.5932 1.88532 36.6071V35.7142H0.992466C0.499389 35.7142 0.0996094 36.114 0.0996094 36.6071V49.1071C0.0996094 49.6002 0.499389 49.9999 0.992466 49.9999Z" fill="#EF5226"/>
<path d="M3.6709 35.7142H5.45661V36.6071H3.6709V35.7142Z" fill="#EF5226"/>
<path d="M25.9926 40.1785H24.2069V41.9642H21.5283V43.7499H28.6712V41.9642H25.9926V40.1785Z" fill="#EF5226"/>
<path d="M24.2069 9.82143H25.9926V8.03571H28.6712V6.25H21.5283V8.03571H24.2069V9.82143Z" fill="#EF5226"/>
<path d="M30.457 41.9642H32.2427V43.7499H30.457V41.9642Z" fill="#EF5226"/>
<path d="M34.0283 41.9642H37.5997V43.7499H34.0283V41.9642Z" fill="#EF5226"/>
<path d="M17.957 41.9642H19.7427V43.7499H17.957V41.9642Z" fill="#EF5226"/>
<path d="M12.5996 41.9642H16.171V43.7499H12.5996V41.9642Z" fill="#EF5226"/>
<path d="M24.207 36.6072H25.9927V38.3929H24.207V36.6072Z" fill="#EF5226"/>
<path d="M24.207 33.0356H25.9927V34.8214H24.207V33.0356Z" fill="#EF5226"/>
<path d="M30.457 6.25H32.2427V8.03571H30.457V6.25Z" fill="#EF5226"/>
<path d="M34.0283 6.25H37.5997V8.03571H34.0283V6.25Z" fill="#EF5226"/>
<path d="M17.957 6.25H19.7427V8.03571H17.957V6.25Z" fill="#EF5226"/>
<path d="M12.5996 6.25H16.171V8.03571H12.5996V6.25Z" fill="#EF5226"/>
<path d="M45.635 28.5715C45.3334 28.5741 45.033 28.5353 44.7422 28.4555V32.1429H46.5279V28.4555C46.2371 28.5353 45.9367 28.5741 45.635 28.5715ZM44.7422 17.8572V21.5446C45.3273 21.3898 45.9428 21.3898 46.5279 21.5446V17.8572H44.7422Z" fill="#EF5226"/>
<path d="M40.2783 24.1072H42.064V25.8929H40.2783V24.1072Z" fill="#EF5226"/>
<path d="M6.34975 25.0001C6.34975 25.9862 5.55019 26.7858 4.56403 26.7858C3.57788 26.7858 2.77832 25.9862 2.77832 25.0001C2.77832 24.0139 3.57788 23.2144 4.56403 23.2144C5.55019 23.2144 6.34975 24.0139 6.34975 25.0001Z" fill="#EF5226"/>
<path d="M3.6709 28.4555V32.1429H5.45661V28.4555C4.87155 28.6103 4.25596 28.6103 3.6709 28.4555ZM3.6709 17.8572V21.5446C4.25596 21.3898 4.87155 21.3898 5.45661 21.5446V17.8572H3.6709Z" fill="#EF5226"/>
<path d="M8.13574 24.1072H9.92146V25.8929H8.13574V24.1072Z" fill="#EF5226"/>
</svg>
