<svg width="44" height="50" viewBox="0 0 44 50" fill="none" xmlns="http://www.w3.org/2000/svg">
<path d="M36.6663 0H7.68683C3.68699 0 0.416016 3.25012 0.416016 7.27081V42.7292C0.416016 46.7295 3.68699 50 7.68683 50H36.6663C40.6662 50 43.9366 46.7295 43.9366 42.7292V7.27081C43.9366 3.25012 40.6662 0 36.6663 0ZM22.0647 42.3726H12.1302C10.8866 42.3726 9.88002 41.3656 9.88002 40.123C9.88002 38.8804 10.8866 37.8733 12.1302 37.8733H22.0647C23.3083 37.8733 24.3143 38.8804 24.3143 40.123C24.3143 41.3656 23.3083 42.3726 22.0647 42.3726ZM32.2189 31.6254H12.1302C10.8866 31.6254 9.88002 30.6178 9.88002 29.3757C9.88002 28.1331 10.8866 27.1255 12.1302 27.1255H32.2189C33.4625 27.1255 34.4691 28.1331 34.4691 29.3757C34.4691 30.6178 33.4625 31.6254 32.2189 31.6254ZM35.2045 11.3658L27.9876 19.4102C27.2516 20.2296 26.0299 20.3918 25.1032 19.8044L18.1015 15.3392L12.442 21.2443C11.5824 22.1425 10.1569 22.1707 9.26306 21.3125C8.36432 20.4524 8.3338 19.0287 9.19491 18.1315L16.1305 10.8932C16.8757 10.1191 18.0618 9.97823 18.9646 10.553L25.914 14.9841L31.8567 8.36029C32.6868 7.43561 34.111 7.36287 35.0336 8.18888C35.9583 9.01845 36.0351 10.4411 35.2045 11.3658Z" fill="#EF5226"/>
</svg>
