<svg width="52" height="51" viewBox="0 0 52 51" fill="none" xmlns="http://www.w3.org/2000/svg">
<path fill-rule="evenodd" clip-rule="evenodd" d="M17.5985 16.3559C17.5981 16.2776 17.6133 16.2 17.6432 16.1275C17.6732 16.0551 17.7172 15.9893 17.7727 15.9339C17.8283 15.8786 17.8943 15.8347 17.967 15.8049C18.0397 15.7751 18.1175 15.7599 18.1961 15.7602H27.669C27.8265 15.7602 27.9777 15.8226 28.0891 15.9337C28.2005 16.0447 28.2631 16.1953 28.2631 16.3524C28.2631 16.5095 28.2005 16.6601 28.0891 16.7711C27.9777 16.8822 27.8265 16.9446 27.669 16.9446H18.1961C18.1181 16.9451 18.0407 16.9303 17.9684 16.901C17.8961 16.8717 17.8303 16.8285 17.7748 16.7738C17.7193 16.7192 17.6751 16.6541 17.6449 16.5824C17.6146 16.5107 17.5988 16.4337 17.5985 16.3559ZM11.8999 28.5896V33.5182C11.9003 33.5965 11.8851 33.6741 11.8552 33.7465C11.8253 33.819 11.7812 33.8848 11.7257 33.9402C11.6701 33.9955 11.6041 34.0394 11.5314 34.0692C11.4587 34.099 11.3808 34.1142 11.3022 34.1138H5.60837C5.52979 34.1142 5.45191 34.099 5.37924 34.0692C5.30657 34.0394 5.24054 33.9955 5.18497 33.9401C5.1294 33.8848 5.08539 33.8189 5.05548 33.7465C5.02557 33.6741 5.01036 33.5965 5.01072 33.5182V28.5896C5.01022 28.5109 5.02528 28.4328 5.05505 28.3599C5.08482 28.287 5.12871 28.2207 5.18421 28.1647C5.23971 28.1087 5.30574 28.0642 5.37852 28.0336C5.4513 28.0031 5.5294 27.9871 5.60837 27.9867H11.3022C11.3812 27.9871 11.4593 28.003 11.5321 28.0336C11.6049 28.0641 11.671 28.1087 11.7265 28.1647C11.782 28.2207 11.8259 28.287 11.8556 28.3599C11.8854 28.4328 11.9004 28.5109 11.8999 28.5896ZM10.7046 29.1782H6.20603V32.9225H10.7046V29.1782ZM11.8999 21.3486V26.2776C11.9003 26.3559 11.8851 26.4335 11.8552 26.5059C11.8253 26.5784 11.7812 26.6442 11.7257 26.6996C11.6701 26.755 11.6041 26.7988 11.5314 26.8286C11.4587 26.8584 11.3808 26.8736 11.3022 26.8732H5.60837C5.52979 26.8736 5.45191 26.8584 5.37924 26.8286C5.30657 26.7988 5.24054 26.7549 5.18497 26.6995C5.1294 26.6442 5.08539 26.5784 5.05548 26.5059C5.02557 26.4335 5.01036 26.3559 5.01072 26.2776V21.3486C5.01036 21.2703 5.02557 21.1927 5.05548 21.1202C5.08539 21.0478 5.1294 20.982 5.18497 20.9266C5.24054 20.8712 5.30657 20.8274 5.37924 20.7976C5.45191 20.7678 5.52979 20.7526 5.60837 20.7529H11.3022C11.3808 20.7526 11.4587 20.7677 11.5314 20.7975C11.6041 20.8273 11.6701 20.8712 11.7257 20.9266C11.7812 20.982 11.8253 21.0478 11.8552 21.1202C11.8851 21.1926 11.9003 21.2703 11.8999 21.3486ZM10.7046 21.9442H6.20603V25.6817H10.7046V21.9442ZM14.1585 23.2135H23.8383C23.9968 23.2135 24.1488 23.1507 24.2609 23.039C24.373 22.9273 24.4359 22.7758 24.4359 22.6178C24.4359 22.4598 24.373 22.3083 24.2609 22.1966C24.1488 22.0849 23.9968 22.0222 23.8383 22.0222H14.1585C14 22.0222 13.848 22.0849 13.7359 22.1966C13.6239 22.3083 13.5609 22.4598 13.5609 22.6178C13.5609 22.7758 13.6239 22.9273 13.7359 23.039C13.848 23.1507 14 23.2135 14.1585 23.2135ZM26.209 24.6392H14.1585C14 24.6392 13.848 24.702 13.7359 24.8137C13.6239 24.9254 13.5609 25.0769 13.5609 25.2349C13.5609 25.3929 13.6239 25.5444 13.7359 25.6561C13.848 25.7678 14 25.8305 14.1585 25.8305H26.209C26.3675 25.8305 26.5195 25.7678 26.6316 25.6561C26.7437 25.5444 26.8066 25.3929 26.8066 25.2349C26.8066 25.0769 26.7437 24.9254 26.6316 24.8137C26.5195 24.702 26.3675 24.6392 26.209 24.6392ZM14.1585 30.3414H23.8383C23.9968 30.3414 24.1488 30.2786 24.2609 30.1669C24.373 30.0552 24.4359 29.9037 24.4359 29.7457C24.4359 29.5877 24.373 29.4362 24.2609 29.3245C24.1488 29.2128 23.9968 29.1501 23.8383 29.1501H14.1585C14 29.1501 13.848 29.2128 13.7359 29.3245C13.6239 29.4362 13.5609 29.5877 13.5609 29.7457C13.5609 29.9037 13.6239 30.0552 13.7359 30.1669C13.848 30.2786 14 30.3414 14.1585 30.3414ZM26.209 31.7668H14.1585C14 31.7668 13.848 31.8295 13.7359 31.9412C13.6239 32.0529 13.5609 32.2044 13.5609 32.3624C13.5609 32.5204 13.6239 32.6719 13.7359 32.7836C13.848 32.8953 14 32.958 14.1585 32.958H26.209C26.3675 32.958 26.5195 32.8953 26.6316 32.7836C26.7437 32.6719 26.8066 32.5204 26.8066 32.3624C26.8066 32.2044 26.7437 32.0529 26.6316 31.9412C26.5195 31.8295 26.3675 31.7668 26.209 31.7668ZM5.09608 16.9445H5.10664C5.26422 16.9445 5.41535 16.8821 5.52678 16.771C5.63821 16.66 5.70081 16.5094 5.70081 16.3523C5.70081 16.1953 5.63821 16.0446 5.52678 15.9336C5.41535 15.8225 5.26422 15.7601 5.10664 15.7601H5.09608C4.9385 15.7601 4.78737 15.8225 4.67594 15.9336C4.56451 16.0446 4.50191 16.1953 4.50191 16.3523C4.50191 16.5094 4.56451 16.66 4.67594 16.771C4.78737 16.8821 4.9385 16.9445 5.09608 16.9445ZM8.19931 16.9445H8.20927C8.36685 16.9445 8.51798 16.8821 8.62941 16.771C8.74084 16.66 8.80344 16.5094 8.80344 16.3523C8.80344 16.1953 8.74084 16.0446 8.62941 15.9336C8.51798 15.8225 8.36685 15.7601 8.20927 15.7601H8.19931C8.04173 15.7601 7.8906 15.8225 7.77917 15.9336C7.66774 16.0446 7.60514 16.1953 7.60514 16.3523C7.60514 16.5094 7.66774 16.66 7.77917 16.771C7.8906 16.8821 8.04173 16.9445 8.19931 16.9445ZM11.3022 16.9445H11.3128C11.4704 16.9445 11.6215 16.8821 11.7329 16.771C11.8444 16.66 11.907 16.5094 11.907 16.3523C11.907 16.1953 11.8444 16.0446 11.7329 15.9336C11.6215 15.8225 11.4704 15.7601 11.3128 15.7601H11.3022C11.1447 15.7601 10.9935 15.8225 10.8821 15.9336C10.7707 16.0446 10.7081 16.1953 10.7081 16.3523C10.7081 16.5094 10.7707 16.66 10.8821 16.771C10.9935 16.8821 11.1447 16.9445 11.3022 16.9445ZM13.4525 5.60435H6.17983C6.02132 5.60435 5.86931 5.66711 5.75722 5.77881C5.64514 5.89052 5.58217 6.04202 5.58217 6.2C5.58217 6.35797 5.64514 6.50948 5.75722 6.62118C5.86931 6.73289 6.02132 6.79565 6.17983 6.79565H13.4525C13.611 6.79565 13.763 6.73289 13.8751 6.62118C13.9872 6.50948 14.0502 6.35797 14.0502 6.2C14.0502 6.04202 13.9872 5.89052 13.8751 5.77881C13.763 5.66711 13.611 5.60435 13.4525 5.60435ZM13.4525 3.33494H6.17983C6.02132 3.33494 5.86931 3.39769 5.75722 3.5094C5.64514 3.6211 5.58217 3.77261 5.58217 3.93058C5.58217 4.08856 5.64514 4.24006 5.75722 4.35177C5.86931 4.46347 6.02132 4.52623 6.17983 4.52623H13.4525C13.611 4.52623 13.763 4.46347 13.8751 4.35177C13.9872 4.24006 14.0502 4.08856 14.0502 3.93058C14.0502 3.77261 13.9872 3.6211 13.8751 3.5094C13.763 3.39769 13.611 3.33494 13.4525 3.33494ZM13.4525 7.87387H6.17983C6.02132 7.87387 5.86931 7.93662 5.75722 8.04833C5.64514 8.16003 5.58217 8.31154 5.58217 8.46951C5.58217 8.62749 5.64514 8.77899 5.75722 8.8907C5.86931 9.0024 6.02132 9.06516 6.17983 9.06516H13.4525C13.611 9.06516 13.763 9.0024 13.8751 8.8907C13.9872 8.77899 14.0502 8.62749 14.0502 8.46951C14.0502 8.31154 13.9872 8.16003 13.8751 8.04833C13.763 7.93662 13.611 7.87387 13.4525 7.87387ZM6.17983 44.0076H13.4525C13.611 44.0076 13.763 43.9448 13.8751 43.8331C13.9872 43.7214 14.0502 43.5699 14.0502 43.4119C14.0502 43.254 13.9872 43.1025 13.8751 42.9908C13.763 42.8791 13.611 42.8163 13.4525 42.8163H6.17983C6.02132 42.8163 5.86931 42.8791 5.75722 42.9908C5.64514 43.1025 5.58217 43.254 5.58217 43.4119C5.58217 43.5699 5.64514 43.7214 5.75722 43.8331C5.86931 43.9448 6.02132 44.0076 6.17983 44.0076ZM6.17983 41.7381H13.4525C13.611 41.7381 13.763 41.6753 13.8751 41.5636C13.9872 41.4519 14.0502 41.3004 14.0502 41.1424C14.0502 40.9845 13.9872 40.833 13.8751 40.7212C13.763 40.6095 13.611 40.5468 13.4525 40.5468H6.17983C6.02132 40.5468 5.86931 40.6095 5.75722 40.7212C5.64514 40.833 5.58217 40.9845 5.58217 41.1424C5.58217 41.3004 5.64514 41.4519 5.75722 41.5636C5.86931 41.6753 6.02132 41.7381 6.17983 41.7381ZM6.17983 46.277H13.4525C13.611 46.277 13.763 46.2143 13.8751 46.1026C13.9872 45.9908 14.0502 45.8393 14.0502 45.6814C14.0502 45.5234 13.9872 45.3719 13.8751 45.2602C13.763 45.1485 13.611 45.0857 13.4525 45.0857H6.17983C6.02132 45.0857 5.86931 45.1485 5.75722 45.2602C5.64514 45.3719 5.58217 45.5234 5.58217 45.6814C5.58217 45.8393 5.64514 45.9908 5.75722 46.1026C5.86931 46.2143 6.02132 46.277 6.17983 46.277ZM45.8542 24.4267H51.3603C51.5187 24.4262 51.6704 24.3633 51.7824 24.2517C51.8944 24.1401 51.9575 23.9889 51.958 23.8311V11.661C51.9575 11.5032 51.8943 11.352 51.7824 11.2404C51.6704 11.1288 51.5187 11.0659 51.3603 11.0653H45.8541V6.2001C45.8537 6.04226 45.7906 5.89101 45.6786 5.7794C45.5666 5.66779 45.4149 5.6049 45.2565 5.60445H31.9779C31.8336 4.53245 31.3038 3.54907 30.487 2.83692C29.6702 2.12477 28.6218 1.73225 27.5365 1.73225C26.4513 1.73225 25.4029 2.12477 24.5861 2.83692C23.7693 3.54907 23.2395 4.53245 23.0952 5.60445H16.5177V1.56904C16.518 1.49072 16.5028 1.41312 16.4729 1.34069C16.443 1.26827 16.399 1.20247 16.3434 1.14709C16.2878 1.09172 16.2218 1.04785 16.1492 1.01804C16.0765 0.988227 15.9986 0.973053 15.92 0.973395H3.71241C3.63382 0.97304 3.55594 0.988205 3.48327 1.01801C3.4106 1.04782 3.34457 1.09168 3.28901 1.14706C3.23344 1.20245 3.18943 1.26825 3.15952 1.34068C3.12961 1.41311 3.11439 1.49072 3.11475 1.56904V10.8383C3.11525 10.9961 3.17838 11.1473 3.29035 11.2589C3.40232 11.3705 3.55405 11.4335 3.71241 11.4339H9.21861V13.1005H3.35242C2.71703 13.1014 2.10799 13.3537 1.65906 13.8018C1.21012 14.25 0.957981 14.8573 0.958008 15.4906V18.3558H30.8593V15.4906C30.8593 14.8574 30.6072 14.25 30.1583 13.8019C29.7093 13.3538 29.1003 13.1015 28.4649 13.1006H10.4138V11.434H15.92C16.0784 11.4335 16.2301 11.3706 16.3421 11.259C16.454 11.1474 16.5172 10.9962 16.5177 10.8384V6.79584H23.0952C23.2395 7.86784 23.7693 8.85123 24.5861 9.56337C25.4029 10.2755 26.4513 10.668 27.5365 10.668C28.6218 10.668 29.6702 10.2755 30.487 9.56337C31.3038 8.85123 31.8336 7.86784 31.9779 6.79584H44.6589V11.0652H39.1527C38.9944 11.0657 38.8426 11.1286 38.7306 11.2402C38.6187 11.3518 38.5555 11.5031 38.5551 11.6609V23.8308C38.5555 23.9886 38.6187 24.1398 38.7306 24.2514C38.8426 24.363 38.9944 24.4259 39.1527 24.4264H44.6589V28.2845H39.1527C39.0741 28.2841 38.9963 28.2993 38.9236 28.3291C38.8509 28.3589 38.7849 28.4028 38.7293 28.4581C38.6737 28.5135 38.6297 28.5793 38.5998 28.6518C38.5699 28.7242 38.5547 28.8018 38.5551 28.8801V41.0432C38.5547 41.1215 38.5699 41.1991 38.5998 41.2715C38.6297 41.344 38.6737 41.4098 38.7293 41.4652C38.7849 41.5206 38.8509 41.5644 38.9236 41.5942C38.9963 41.624 39.0741 41.6392 39.1527 41.6388H44.6589V45.9082H31.9779C31.8335 44.8362 31.3037 43.8529 30.4868 43.1408C29.67 42.4287 28.6216 42.0362 27.5364 42.0362C26.4511 42.0362 25.4028 42.4287 24.5859 43.1408C23.7691 43.8529 23.2393 44.8362 23.0949 45.9082H16.5177V38.7803C16.518 38.702 16.5028 38.6244 16.4729 38.552C16.443 38.4795 16.399 38.4137 16.3434 38.3583C16.2878 38.303 16.2218 38.2591 16.1492 38.2293C16.0765 38.1995 15.9986 38.1843 15.92 38.1847H10.4138V36.5113H28.4649C29.1003 36.5103 29.7093 36.2581 30.1583 35.81C30.6072 35.3618 30.8593 34.7545 30.8593 34.1212V19.5473H0.958008V34.1208C0.957875 34.7541 1.20997 35.3616 1.65891 35.8098C2.10786 36.258 2.71696 36.5103 3.35242 36.5113H9.21861V38.185H3.71241C3.63382 38.1847 3.55594 38.1999 3.48327 38.2297C3.4106 38.2595 3.34457 38.3033 3.28901 38.3587C3.23344 38.4141 3.18943 38.4799 3.15952 38.5523C3.12961 38.6248 3.11439 38.7024 3.11475 38.7807V48.043C3.11439 48.1213 3.12961 48.1989 3.15952 48.2714C3.18943 48.3438 3.23344 48.4096 3.28901 48.465C3.34457 48.5204 3.4106 48.5642 3.48327 48.594C3.55594 48.6238 3.63382 48.639 3.71241 48.6387H15.92C15.9986 48.639 16.0765 48.6238 16.1492 48.594C16.2218 48.5642 16.2878 48.5203 16.3434 48.465C16.399 48.4096 16.443 48.3438 16.4729 48.2714C16.5028 48.1989 16.518 48.1213 16.5177 48.043V47.0999H23.0952C23.2392 48.1721 23.7688 49.1559 24.5856 49.8683C25.4025 50.5807 26.4511 50.9734 27.5365 50.9734C28.622 50.9734 29.6706 50.5807 30.4874 49.8683C31.3043 49.1559 31.8339 48.1721 31.9779 47.0999H45.2565C45.3351 47.1003 45.413 47.0851 45.4857 47.0553C45.5583 47.0255 45.6244 46.9817 45.6799 46.9263C45.7355 46.8709 45.7795 46.8051 45.8094 46.7326C45.8393 46.6602 45.8545 46.5826 45.8541 46.5042V41.6388H51.3603C51.4389 41.6391 51.5168 41.624 51.5895 41.5942C51.6621 41.5643 51.7282 41.5205 51.7837 41.4651C51.8393 41.4097 51.8833 41.3439 51.9132 41.2715C51.9431 41.1991 51.9583 41.1215 51.958 41.0432V28.8802C51.9583 28.8019 51.9431 28.7243 51.9132 28.6519C51.8833 28.5795 51.8393 28.5137 51.7837 28.4583C51.7282 28.4029 51.6621 28.3591 51.5895 28.3292C51.5168 28.2994 51.4389 28.2843 51.3603 28.2846H45.8541L45.8542 24.4267ZM43.8364 16.987C43.7236 17.0962 43.5722 17.1568 43.4149 17.1556C43.2576 17.1544 43.1071 17.0916 42.996 16.9807C42.8849 16.8697 42.8221 16.7197 42.8211 16.5629C42.8202 16.4062 42.8813 16.2554 42.9911 16.1431L44.8338 14.3066C44.9472 14.1973 45.0987 14.1362 45.2563 14.1362C45.414 14.1362 45.5655 14.1973 45.6788 14.3066L47.5216 16.1431C47.6337 16.2551 47.6966 16.4069 47.6966 16.565C47.6966 16.7232 47.6337 16.875 47.5216 16.987C47.4666 17.0431 47.4008 17.0877 47.3283 17.1182C47.2557 17.1487 47.1777 17.1644 47.099 17.1644C47.0202 17.1644 46.9422 17.1487 46.8697 17.1182C46.7971 17.0877 46.7313 17.0431 46.6763 16.987L45.8538 16.1644V20.76C45.8538 20.918 45.7909 21.0695 45.6788 21.1812C45.5667 21.2929 45.4147 21.3556 45.2562 21.3556C45.0977 21.3556 44.9457 21.2929 44.8336 21.1812C44.7215 21.0695 44.6585 20.918 44.6585 20.76V16.1644L43.8364 16.987ZM44.834 38.3978L42.9913 36.5612C42.8816 36.4492 42.8208 36.2985 42.8221 36.142C42.8233 35.9854 42.8865 35.8358 42.9979 35.7254C43.1094 35.6151 43.26 35.5531 43.417 35.5529C43.5741 35.5527 43.7248 35.6143 43.8366 35.7243L44.6591 36.54V31.9441C44.6591 31.7861 44.7221 31.6346 44.8342 31.5229C44.9463 31.4112 45.0983 31.3484 45.2568 31.3484C45.4153 31.3484 45.5673 31.4112 45.6794 31.5229C45.7915 31.6346 45.8544 31.7861 45.8544 31.9441V36.5397L46.6769 35.724C46.7886 35.614 46.9394 35.5524 47.0965 35.5526C47.2535 35.5528 47.4041 35.6148 47.5155 35.7251C47.6269 35.8355 47.6902 35.9852 47.6914 36.1417C47.6927 36.2982 47.6318 36.4489 47.5222 36.5609L45.6794 38.3975C45.6244 38.4536 45.5587 38.4982 45.4861 38.5287C45.4136 38.5591 45.3357 38.5748 45.2569 38.5748C45.1782 38.5748 45.1003 38.5591 45.0277 38.5287C44.9552 38.4982 44.8891 38.4539 44.834 38.3978Z" fill="#EF5226"/>
</svg>
