<svg width="64" height="50" viewBox="0 0 64 50" fill="none" xmlns="http://www.w3.org/2000/svg">
<path d="M64 11.7669C64 12.9537 63.0225 13.9164 61.8175 13.9164C60.985 13.9164 60.2587 13.4596 59.8937 12.7825H55.8363V22.278H57.8237C58.5287 22.278 59.1025 22.8468 59.1025 23.5411V25.6069C59.1025 26.204 58.73 26.7137 58.1488 26.8984L54.6763 28.0076C54.215 28.1578 53.89 28.4963 53.7687 28.9568C53.2437 30.9105 52.4575 32.7609 51.4475 34.4635C51.2025 34.8747 51.1887 35.3425 51.4087 35.7648L53.07 38.9755C53.3462 39.5098 53.2475 40.1266 52.815 40.5525L49.5088 43.8088C49.08 44.2311 48.4488 44.3283 47.9075 44.0562L44.6512 42.4226C44.2225 42.2059 43.7475 42.2207 43.33 42.457C41.6013 43.4555 39.7225 44.2298 37.735 44.7432C37.2675 44.8651 36.9238 45.1827 36.775 45.637L35.645 49.0607C35.4613 49.6294 34.9438 50 34.3338 50H29.66C29.0537 50 28.5362 49.6307 28.3487 49.0607L27.2188 45.637C27.07 45.1827 26.7263 44.8663 26.2588 44.7432C24.275 44.2298 22.3962 43.4555 20.6637 42.457C20.2462 42.2194 19.775 42.2059 19.3425 42.4226L16.0875 44.0575C15.545 44.3295 14.915 44.2323 14.4862 43.81L11.18 40.5537C10.7513 40.1278 10.6525 39.5098 10.9288 38.9767L12.5875 35.766C12.8075 35.3437 12.7925 34.8759 12.5487 34.4647C11.5387 32.7621 10.7525 30.9118 10.2312 28.958C10.1075 28.4976 9.78125 28.159 9.32375 28.0088L5.8475 26.8996C5.27 26.7149 4.89375 26.2052 4.89375 25.6082V23.5424C4.89375 22.848 5.47125 22.2793 6.17625 22.2793H8.16375V12.7838H4.1075C3.73875 13.4609 3.01625 13.9176 2.18375 13.9176C0.97875 13.9164 0 12.9537 0 11.7669C0 10.5801 0.9775 9.61737 2.1825 9.61737C3.015 9.61737 3.7375 10.0741 4.10625 10.7512H9.195C9.765 10.7512 10.23 11.2055 10.23 11.7669V22.278H13.77V4.04786C13.0863 3.68469 12.6187 2.96942 12.6187 2.1495C12.6187 0.962722 13.5963 0 14.8013 0C16.01 0 16.9875 0.962722 16.9875 2.1495C16.9875 2.96942 16.52 3.68469 15.8363 4.04786V22.278H19.865C19.8362 22.6166 19.8188 22.9588 19.8188 23.3035C19.8188 29.9269 25.2725 35.2982 32.0013 35.2982C38.7263 35.2982 44.18 29.9269 44.18 23.3035C44.18 22.9576 44.1663 22.6166 44.1375 22.278H48.1662V4.04786C47.4787 3.68469 47.015 2.96942 47.015 2.1495C47.015 0.962722 47.9925 0 49.1975 0C50.4025 0 51.38 0.962722 51.38 2.1495C51.38 2.96942 50.9162 3.68469 50.2287 4.04786V22.278H53.7725V11.7669C53.7725 11.2055 54.2325 10.7512 54.8037 10.7512H59.895C60.26 10.0741 60.9862 9.61737 61.8187 9.61737C63.0212 9.61737 64 10.5801 64 11.7669ZM39.1362 13.8536C39.2562 13.7379 39.3312 13.5741 39.3312 13.3993V13.2737C39.3312 13.0952 39.2562 12.9352 39.1362 12.817C39.0162 12.7013 38.8525 12.6286 38.675 12.6286H38.02V14.0456H38.675C38.8525 14.0456 39.0162 13.973 39.1362 13.8536ZM32.46 13.8536C32.5775 13.7379 32.6512 13.5741 32.6512 13.3993V13.2737C32.6512 13.0952 32.5762 12.9352 32.46 12.817C32.34 12.7013 32.1763 12.6286 31.9963 12.6286H31.3412V14.0456H31.9963C32.1775 14.0456 32.34 13.973 32.46 13.8536ZM19.8888 20.355V9.76757C19.8888 8.71005 20.7675 7.84459 21.845 7.84459H42.155C43.2287 7.84459 44.1075 8.71005 44.1075 9.76757V20.355C44.1075 21.4126 43.2287 22.278 42.155 22.278H21.845C20.7675 22.278 19.8888 21.4126 19.8888 20.355ZM35.9538 18.5121C35.9538 19.0735 36.415 19.5277 36.985 19.5277C37.555 19.5277 38.02 19.0735 38.02 18.5121V16.0757H38.675C39.4225 16.0757 40.1025 15.7753 40.595 15.2903C41.0875 14.8052 41.3925 14.1355 41.3925 13.3993V13.2737C41.3925 12.5339 41.0875 11.8641 40.595 11.3791C40.1025 10.894 39.4225 10.5936 38.675 10.5936H36.985C36.415 10.5936 35.9538 11.0479 35.9538 11.6093V18.5121ZM29.275 18.5121C29.275 19.0735 29.7387 19.5277 30.31 19.5277C30.8775 19.5277 31.3412 19.0735 31.3412 18.5121V17.5075L32.7412 19.1584C33.1025 19.5905 33.7512 19.6472 34.1875 19.2914C34.6238 18.9356 34.6837 18.2966 34.3225 17.867L32.7275 15.9785C33.185 15.8529 33.5925 15.6116 33.9175 15.2915C34.4137 14.8065 34.7188 14.1368 34.7188 13.4006V13.275C34.7188 12.5351 34.4137 11.8654 33.9212 11.3803C33.4287 10.8953 32.745 10.5949 31.9975 10.5949H30.3113C29.7413 10.5949 29.2763 11.0491 29.2763 11.6105V18.5121H29.275ZM22.6038 18.5121C22.6038 19.0735 23.0638 19.5277 23.635 19.5277H27.0112C27.5812 19.5277 28.0462 19.0735 28.0462 18.5121C28.0462 17.9507 27.5825 17.4964 27.0112 17.4964H24.6688V16.0757H26.565C27.135 16.0757 27.6 15.6215 27.6 15.0601C27.6 14.4987 27.1363 14.0444 26.565 14.0444H24.6688V12.6274H27.0112C27.5812 12.6274 28.0462 12.1707 28.0462 11.6081C28.0462 11.0467 27.5825 10.5924 27.0112 10.5924H23.635C23.065 10.5924 22.6038 11.0467 22.6038 11.6081V18.5121Z" fill="#EF5226"/>
</svg>
