<svg width="51" height="50" viewBox="0 0 51 50" fill="none" xmlns="http://www.w3.org/2000/svg">
<path fill-rule="evenodd" clip-rule="evenodd" d="M41.7249 20.9458H43.7105C44.4923 20.9458 45.128 21.5843 45.128 22.3662V27.6368C45.128 28.4159 44.4924 29.0543 43.7105 29.0543H41.7249C41.3058 30.784 40.6224 32.4096 39.7224 33.8862L41.1258 35.2925C41.6799 35.8437 41.6799 36.7465 41.1258 37.2978L37.3993 41.0244C36.848 41.5784 35.9452 41.5784 35.3939 41.0244L33.9877 39.6209C32.5111 40.5237 30.8855 41.2044 29.1558 41.6262V43.609C29.1558 44.3909 28.5173 45.0294 27.7355 45.0294H22.4648C21.6858 45.0294 21.0473 44.3909 21.0473 43.609V41.6234C19.3176 41.2044 17.692 40.5208 16.2154 39.6208L14.8092 41.0243C14.2579 41.5783 13.3551 41.5783 12.8038 41.0243L9.07726 37.2977C8.52322 36.7464 8.52322 35.8436 9.07726 35.2924L10.4807 33.8889C9.5807 32.4095 8.89727 30.7839 8.47539 29.0541H6.49259C5.71074 29.0541 5.07227 28.4157 5.07227 27.6366V22.366C5.07227 21.5841 5.71074 20.9456 6.49259 20.9456H8.47539C8.89727 19.2159 9.57792 17.5903 10.4807 16.1137L9.07726 14.7075C8.52322 14.1562 8.52322 13.2534 9.07726 12.7022L12.8038 8.9756C13.3551 8.42156 14.2579 8.42156 14.8092 8.9756L16.2154 10.3791C17.692 9.47904 19.3176 8.79562 21.0473 8.37652V6.39094C21.0473 5.60909 21.6858 4.97339 22.4648 4.97339H27.7355C28.5173 4.97339 29.1558 5.60899 29.1558 6.39094V8.37374C30.8855 8.79562 32.5111 9.47904 33.9877 10.3791L35.3939 8.9756C35.9452 8.42156 36.848 8.42156 37.3993 8.9756L41.1258 12.7022C41.6799 13.2534 41.6799 14.1562 41.1258 14.7075L39.7224 16.1137C40.6224 17.5931 41.3058 19.2187 41.7249 20.9456V20.9458ZM25.1001 11.4564C32.5814 11.4564 38.6452 17.5202 38.6452 25.0014C38.6452 32.4827 32.5814 38.5437 25.1001 38.5437C17.6188 38.5437 11.5578 32.4799 11.5578 25.0014C11.5578 17.523 17.6216 11.4564 25.1001 11.4564Z" fill="#EF5226"/>
<path fill-rule="evenodd" clip-rule="evenodd" d="M31.6002 20.6393C30.6523 17.9139 28.0704 16.0211 25.1004 16.0211C22.1304 16.0211 19.5514 17.9139 18.6035 20.6393C18.8342 20.6815 19.0479 20.7687 19.2392 20.8924C20.0717 18.4568 22.3836 16.7045 25.1005 16.7045C27.8174 16.7045 30.1321 18.4568 30.9647 20.8924C31.1531 20.7687 31.3697 20.6815 31.6003 20.6393H31.6002Z" fill="#05A7CC"/>
<path fill-rule="evenodd" clip-rule="evenodd" d="M25.1005 12.6489C31.9237 12.6489 37.4531 18.1783 37.4531 25.0015C37.4531 27.4681 36.7303 29.766 35.4844 31.6954C34.711 29.1782 32.4356 27.5891 29.9437 26.7679C30.2109 26.4332 30.4471 26.0676 30.6412 25.6794C30.9505 26.0225 31.4005 26.2363 31.8956 26.2363H33.0797C34.0162 26.2363 34.7757 25.4769 34.7757 24.5432V22.31C34.7757 21.3735 34.0163 20.6141 33.0797 20.6141H32.8435C31.845 17.2306 28.7231 14.8316 25.1006 14.8316C21.4781 14.8316 18.359 17.2307 17.3606 20.6141H17.1214C16.1877 20.6141 15.4255 21.3735 15.4255 22.31V24.5432C15.4255 25.4769 16.1877 26.2363 17.1214 26.2363H18.3055C18.8033 26.2363 19.2505 26.0225 19.5627 25.6794C19.7568 26.0676 19.993 26.4332 20.2602 26.7679C17.7684 27.5863 15.4931 29.1782 14.7196 31.6954C13.4736 29.766 12.748 27.4681 12.748 25.0015C12.748 18.1784 18.2802 12.6489 25.1007 12.6489H25.1005Z" fill="#EF5226"/>
<path fill-rule="evenodd" clip-rule="evenodd" d="M34.536 32.9721C34.2322 30.272 31.9091 28.5227 28.9897 27.7239C26.7229 29.5549 23.48 29.5549 21.2103 27.7239C18.2938 28.5227 15.9706 30.272 15.6641 32.9721C20.6028 38.8109 29.6 38.8109 34.536 32.9721Z" fill="#EF5226"/>
<path fill-rule="evenodd" clip-rule="evenodd" d="M25.1001 17.8942C22.3355 17.8942 20.0967 20.1357 20.0967 22.9005C20.0967 25.6652 22.3355 27.9068 25.1001 27.9068C26.5851 27.9068 27.9155 27.2628 28.8324 26.2361H27.9689C26.9817 26.2361 26.183 25.4373 26.183 24.4502C26.183 23.4631 26.9817 22.6642 27.9689 22.6642H30.1008C29.977 20.0092 27.7861 17.8942 25.1001 17.8942Z" fill="#EF5226"/>
<path fill-rule="evenodd" clip-rule="evenodd" d="M31.8958 25.0465H33.0799C33.3583 25.0465 33.5862 24.8187 33.5862 24.5431V22.3099C33.5862 22.0315 33.3584 21.8037 33.0799 21.8037H31.8958C31.6201 21.8037 31.3923 22.0315 31.3923 22.3099V24.5431C31.3923 24.8187 31.6201 25.0465 31.8958 25.0465ZM17.1216 25.0465H18.3057C18.5841 25.0465 18.8119 24.8187 18.8119 24.5431V22.3099C18.8119 22.0315 18.5841 21.8037 18.3057 21.8037H17.1216C16.846 21.8037 16.6182 22.0315 16.6182 22.3099V24.5431C16.6182 24.8187 16.846 25.0465 17.1216 25.0465Z" fill="#05A7CC"/>
<path d="M30.2784 25.0464H27.9694C27.6403 25.0464 27.373 24.7792 27.373 24.4501C27.373 24.121 27.6402 23.8567 27.9694 23.8567H30.2025C30.2025 24.2476 30.1688 24.6948 30.2785 25.0463L30.2784 25.0464Z" fill="#05A7CC"/>
<path d="M42.0657 11.0203C41.7845 10.8515 41.6917 10.4888 41.8576 10.2047C42.0235 9.92345 42.3891 9.83068 42.6704 9.99657L44.3579 10.995C37.2197 1.16813 23.7703 -1.72313 13.198 4.38284C4.63102 9.32724 0.00164048 19.0698 1.60195 28.8545C1.65255 29.178 1.43318 29.4817 1.10972 29.5352C0.786268 29.5886 0.482557 29.3693 0.429078 29.0458C-1.25279 18.7689 3.61015 8.54529 12.6017 3.35343C23.7224 -3.06755 37.861 -0.0131806 45.3479 10.3397L45.1201 8.4047C45.0808 8.07846 45.3169 7.78319 45.6432 7.74657C45.9694 7.71006 46.2619 7.94342 46.3013 8.26966L46.8244 12.7331C46.8806 13.2141 46.3547 13.5628 45.9328 13.3097L42.0655 11.0203H42.0657ZM48.602 21.1454C48.5485 20.8219 48.7679 20.5182 49.0913 20.4647C49.4176 20.4112 49.7214 20.6335 49.7748 20.9568C51.4566 31.231 46.5938 41.4545 37.5994 46.6464C26.4786 53.0674 12.343 50.0131 4.85605 39.663L5.08386 41.5952C5.12047 41.9214 4.88701 42.2168 4.56077 42.2533C4.23454 42.2927 3.93916 42.0565 3.90265 41.7302L3.37957 37.2695C3.32331 36.7857 3.84639 36.4398 4.27115 36.6902L8.13555 38.9796C8.41962 39.1483 8.51239 39.5111 8.34649 39.7951C8.1806 40.0764 7.81497 40.172 7.53369 40.0033L5.84904 39.0049C12.9872 48.8346 26.4339 51.7231 37.0061 45.6199C45.5028 40.712 50.2222 30.9863 48.6022 21.1454H48.602Z" fill="#05A7CC"/>
</svg>
