<svg width="51" height="50" viewBox="0 0 51 50" fill="none" xmlns="http://www.w3.org/2000/svg">
<path d="M13.6507 20.8333H20.2595C20.1041 22.0707 19.6046 23.2397 18.8177 24.2073C18.0309 25.1749 16.9883 25.9022 15.8085 26.3066C14.6288 26.711 13.3592 26.7762 12.1443 26.4948C10.9293 26.2135 9.81766 25.5968 8.9358 24.7149C8.05395 23.8331 7.43726 22.7214 7.15588 21.5065C6.8745 20.2915 6.93971 19.0219 7.34411 17.8422C7.74851 16.6624 8.47586 15.6199 9.44343 14.833C10.411 14.0462 11.58 13.5466 12.8174 13.3912V20C12.8174 20.221 12.9052 20.433 13.0615 20.5893C13.2177 20.7455 13.4297 20.8333 13.6507 20.8333ZM45.3174 6.66667H0.317383V4.16667C0.31868 3.062 0.758083 2.00294 1.5392 1.22182C2.32032 0.4407 3.37938 0.00129681 4.48405 0H41.1507C42.2554 0.00129681 43.3144 0.4407 44.0956 1.22182C44.8767 2.00294 45.3161 3.062 45.3174 4.16667V6.66667ZM6.98405 3.33333C6.98405 3.16852 6.93518 3.0074 6.84361 2.87036C6.75204 2.73332 6.62189 2.62651 6.46962 2.56343C6.31735 2.50036 6.14979 2.48386 5.98814 2.51601C5.82649 2.54817 5.678 2.62753 5.56146 2.74408C5.44492 2.86062 5.36555 3.00911 5.33339 3.17076C5.30124 3.33241 5.31774 3.49996 5.38082 3.65224C5.44389 3.80451 5.5507 3.93466 5.68774 4.02622C5.82478 4.11779 5.9859 4.16667 6.15072 4.16667C6.37173 4.16667 6.58369 4.07887 6.73997 3.92259C6.89625 3.76631 6.98405 3.55435 6.98405 3.33333ZM11.984 3.33333C11.984 3.16852 11.9352 3.0074 11.8436 2.87036C11.752 2.73332 11.6219 2.62651 11.4696 2.56343C11.3173 2.50036 11.1498 2.48386 10.9881 2.51601C10.8265 2.54817 10.678 2.62753 10.5615 2.74408C10.4449 2.86062 10.3655 3.00911 10.3334 3.17076C10.3012 3.33241 10.3177 3.49996 10.3808 3.65224C10.4439 3.80451 10.5507 3.93466 10.6877 4.02622C10.8248 4.11779 10.9859 4.16667 11.1507 4.16667C11.3717 4.16667 11.5837 4.07887 11.74 3.92259C11.8963 3.76631 11.984 3.55435 11.984 3.33333ZM16.984 3.33333C16.984 3.16852 16.9352 3.0074 16.8436 2.87036C16.752 2.73332 16.6219 2.62651 16.4696 2.56343C16.3173 2.50036 16.1498 2.48386 15.9881 2.51601C15.8265 2.54817 15.678 2.62753 15.5615 2.74408C15.4449 2.86062 15.3655 3.00911 15.3334 3.17076C15.3012 3.33241 15.3177 3.49996 15.3808 3.65224C15.4439 3.80451 15.5507 3.93466 15.6877 4.02622C15.8248 4.11779 15.9859 4.16667 16.1507 4.16667C16.3717 4.16667 16.5837 4.07887 16.74 3.92259C16.8963 3.76631 16.984 3.55435 16.984 3.33333ZM14.484 13.3912V19.1667H20.2595C20.0726 17.7002 19.404 16.3373 18.3587 15.292C17.3134 14.2467 15.9505 13.5781 14.484 13.3912ZM22.1586 35.0879C21.6301 35.2331 21.1637 35.5477 20.8312 35.9834C20.4986 36.4191 20.3181 36.9519 20.3174 37.5V43.3333H4.48405C3.37938 43.332 2.32032 42.8926 1.5392 42.1115C0.758083 41.3304 0.31868 40.2713 0.317383 39.1667V8.33333H45.3174V15H42.8174C42.2316 15 41.6645 15.2057 41.2149 15.5812C40.7653 15.9567 40.4618 16.4781 40.3574 17.0545C40.253 17.6309 40.3543 18.2256 40.6437 18.735C40.933 19.2443 41.392 19.6358 41.9405 19.8413L37.8174 23.9644L36.2516 22.3991C36.0195 22.1669 35.744 21.9827 35.4407 21.857C35.1374 21.7314 34.8123 21.6667 34.484 21.6667C34.1558 21.6667 33.8307 21.7314 33.5274 21.857C33.2241 21.9827 32.9486 22.1669 32.7165 22.3991L22.7165 32.3991C22.3718 32.7443 22.1354 33.1826 22.0363 33.6602C21.9372 34.1379 21.9797 34.6341 22.1586 35.0879ZM24.484 12.5C24.484 12.721 24.5718 12.933 24.7281 13.0893C24.8844 13.2455 25.0964 13.3333 25.3174 13.3333H37.8174C38.0384 13.3333 38.2504 13.2455 38.4066 13.0893C38.5629 12.933 38.6507 12.721 38.6507 12.5C38.6507 12.279 38.5629 12.067 38.4066 11.9107C38.2504 11.7545 38.0384 11.6667 37.8174 11.6667H25.3174C25.0964 11.6667 24.8844 11.7545 24.7281 11.9107C24.5718 12.067 24.484 12.279 24.484 12.5ZM24.484 17.5C24.484 17.721 24.5718 17.933 24.7281 18.0893C24.8844 18.2455 25.0964 18.3333 25.3174 18.3333H37.8174C38.0384 18.3333 38.2504 18.2455 38.4066 18.0893C38.5629 17.933 38.6507 17.721 38.6507 17.5C38.6507 17.279 38.5629 17.067 38.4066 16.9107C38.2504 16.7545 38.0384 16.6667 37.8174 16.6667H25.3174C25.0964 16.6667 24.8844 16.7545 24.7281 16.9107C24.5718 17.067 24.484 17.279 24.484 17.5ZM24.484 22.5C24.484 22.721 24.5718 22.933 24.7281 23.0893C24.8844 23.2455 25.0964 23.3333 25.3174 23.3333H28.6507C28.8717 23.3333 29.0837 23.2455 29.24 23.0893C29.3963 22.933 29.484 22.721 29.484 22.5C29.484 22.279 29.3963 22.067 29.24 21.9107C29.0837 21.7545 28.8717 21.6667 28.6507 21.6667H25.3174C25.0964 21.6667 24.8844 21.7545 24.7281 21.9107C24.5718 22.067 24.484 22.279 24.484 22.5ZM14.484 37.5C14.484 37.279 14.3963 37.067 14.24 36.9107C14.0837 36.7545 13.8717 36.6667 13.6507 36.6667H6.15072C5.9297 36.6667 5.71774 36.7545 5.56146 36.9107C5.40518 37.067 5.31738 37.279 5.31738 37.5C5.31738 37.721 5.40518 37.933 5.56146 38.0893C5.71774 38.2455 5.9297 38.3333 6.15072 38.3333H13.6507C13.8717 38.3333 14.0837 38.2455 14.24 38.0893C14.3963 37.933 14.484 37.721 14.484 37.5ZM20.3174 32.5C20.3174 32.279 20.2296 32.067 20.0733 31.9107C19.917 31.7545 19.7051 31.6667 19.484 31.6667H6.15072C5.9297 31.6667 5.71774 31.7545 5.56146 31.9107C5.40518 32.067 5.31738 32.279 5.31738 32.5C5.31738 32.721 5.40518 32.933 5.56146 33.0893C5.71774 33.2455 5.9297 33.3333 6.15072 33.3333H19.484C19.7051 33.3333 19.917 33.2455 20.0733 33.0893C20.2296 32.933 20.3174 32.721 20.3174 32.5ZM21.984 20C21.984 18.3518 21.4953 16.7407 20.5796 15.3702C19.664 13.9998 18.3625 12.9317 16.8397 12.301C15.317 11.6703 13.6415 11.5052 12.025 11.8268C10.4085 12.1483 8.9236 12.942 7.75816 14.1074C6.59272 15.2729 5.79905 16.7577 5.47751 18.3742C5.15596 19.9908 5.32099 21.6663 5.95172 23.189C6.58245 24.7117 7.65055 26.0132 9.02096 26.9289C10.3914 27.8446 12.0025 28.3333 13.6507 28.3333C15.8601 28.3309 17.9783 27.4521 19.5406 25.8898C21.1028 24.3276 21.9816 22.2094 21.984 20ZM49.484 26.6667H42.8174C42.5964 26.6667 42.3844 26.7545 42.2281 26.9107C42.0718 27.067 41.984 27.279 41.984 27.5V49.1667C41.984 49.3877 42.0718 49.5996 42.2281 49.7559C42.3844 49.9122 42.5964 50 42.8174 50H49.484C49.7051 50 49.917 49.9122 50.0733 49.7559C50.2296 49.5996 50.3174 49.3877 50.3174 49.1667V27.5C50.3174 27.279 50.2296 27.067 50.0733 26.9107C49.917 26.7545 49.7051 26.6667 49.484 26.6667ZM39.484 31.6667H32.8174C32.5964 31.6667 32.3844 31.7545 32.2281 31.9107C32.0718 32.067 31.984 32.279 31.984 32.5V49.1667C31.984 49.3877 32.0718 49.5996 32.2281 49.7559C32.3844 49.9122 32.5964 50 32.8174 50H39.484C39.7051 50 39.917 49.9122 40.0733 49.7559C40.2296 49.5996 40.3174 49.3877 40.3174 49.1667V32.5C40.3174 32.279 40.2296 32.067 40.0733 31.9107C39.917 31.7545 39.7051 31.6667 39.484 31.6667ZM29.484 36.6667H22.8174C22.5964 36.6667 22.3844 36.7545 22.2281 36.9107C22.0718 37.067 21.984 37.279 21.984 37.5V49.1667C21.984 49.3877 22.0718 49.5996 22.2281 49.7559C22.3844 49.9122 22.5964 50 22.8174 50H29.484C29.7051 50 29.917 49.9122 30.0733 49.7559C30.2296 49.5996 30.3174 49.3877 30.3174 49.1667V37.5C30.3174 37.279 30.2296 37.067 30.0733 36.9107C29.917 36.7545 29.7051 36.6667 29.484 36.6667ZM41.984 17.5C41.984 17.721 42.0718 17.933 42.2281 18.0893C42.3844 18.2455 42.5964 18.3333 42.8174 18.3333H45.8057L37.8174 26.3216L35.0732 23.5774C34.9959 23.5 34.904 23.4386 34.8029 23.3968C34.7018 23.3549 34.5935 23.3333 34.484 23.3333C34.3746 23.3333 34.2662 23.3549 34.1651 23.3968C34.064 23.4386 33.9722 23.5 33.8948 23.5774L23.8948 33.5774C23.8175 33.6548 23.7561 33.7467 23.7142 33.8478C23.6723 33.9489 23.6508 34.0572 23.6508 34.1666C23.6508 34.2761 23.6723 34.3844 23.7142 34.4855C23.7561 34.5866 23.8175 34.6785 23.8948 34.7558C23.9722 34.8332 24.0641 34.8946 24.1652 34.9365C24.2662 34.9783 24.3746 34.9999 24.484 34.9999C24.5934 34.9999 24.7018 34.9783 24.8029 34.9365C24.904 34.8946 24.9958 34.8332 25.0732 34.7558L34.484 25.345L37.2282 28.0892C37.3056 28.1666 37.3974 28.228 37.4985 28.2699C37.5996 28.3118 37.708 28.3334 37.8174 28.3334C37.9268 28.3334 38.0352 28.3118 38.1363 28.2699C38.2374 28.228 38.3292 28.1666 38.4066 28.0892L46.984 19.5117V22.5C46.984 22.721 47.0718 22.933 47.2281 23.0893C47.3844 23.2455 47.5964 23.3333 47.8174 23.3333C48.0384 23.3333 48.2504 23.2455 48.4066 23.0893C48.5629 22.933 48.6507 22.721 48.6507 22.5V17.5C48.6507 17.279 48.5629 17.067 48.4066 16.9107C48.2504 16.7545 48.0384 16.6667 47.8174 16.6667H42.8174C42.5964 16.6667 42.3844 16.7545 42.2281 16.9107C42.0718 17.067 41.984 17.279 41.984 17.5Z" fill="#EF5226"/>
</svg>
