<svg width="45" height="46" viewBox="0 0 45 46" fill="none" xmlns="http://www.w3.org/2000/svg">
<path d="M8.06348 36.7246V45.5723C8.06348 45.8047 8.25195 45.9932 8.48438 45.9932H11.8818V43.3525C11.8818 42.4014 12.6562 41.627 13.6084 41.627H19.9854C20.9365 41.627 21.7109 42.4014 21.7109 43.3525V45.9932H36.4434C36.6748 45.9932 36.8633 45.8047 36.8633 45.5723V36.7246C36.8633 36.4932 36.6748 36.3047 36.4434 36.3047H33.1836C33.1802 36.3047 33.1772 36.3066 33.1738 36.3066H11.7539C11.7505 36.3066 11.7476 36.3047 11.7441 36.3047H8.48438C8.25195 36.3047 8.06348 36.4932 8.06348 36.7246ZM33.585 38.0898H34.1758C34.5898 38.0898 34.9258 38.4258 34.9258 38.8398C34.9258 39.2539 34.5898 39.5898 34.1758 39.5898H33.585C33.1709 39.5898 32.835 39.2539 32.835 38.8398C32.835 38.4258 33.1709 38.0898 33.585 38.0898ZM33.585 40.3428H34.1758C34.5898 40.3428 34.9258 40.6787 34.9258 41.0928C34.9258 41.5068 34.5898 41.8428 34.1758 41.8428H33.585C33.1709 41.8428 32.835 41.5068 32.835 41.0928C32.835 40.6787 33.1709 40.3428 33.585 40.3428ZM33.585 42.5967H34.1758C34.5898 42.5967 34.9258 42.9326 34.9258 43.3467C34.9258 43.7607 34.5898 44.0967 34.1758 44.0967H33.585C33.1709 44.0967 32.835 43.7607 32.835 43.3467C32.835 42.9326 33.1709 42.5967 33.585 42.5967ZM30.3838 38.0898H30.9746C31.3887 38.0898 31.7246 38.4258 31.7246 38.8398C31.7246 39.2539 31.3887 39.5898 30.9746 39.5898H30.3838C29.9697 39.5898 29.6338 39.2539 29.6338 38.8398C29.6338 38.4258 29.9697 38.0898 30.3838 38.0898ZM30.3838 40.3428H30.9746C31.3887 40.3428 31.7246 40.6787 31.7246 41.0928C31.7246 41.5068 31.3887 41.8428 30.9746 41.8428H30.3838C29.9697 41.8428 29.6338 41.5068 29.6338 41.0928C29.6338 40.6787 29.9697 40.3428 30.3838 40.3428ZM30.3838 42.5967H30.9746C31.3887 42.5967 31.7246 42.9326 31.7246 43.3467C31.7246 43.7607 31.3887 44.0967 30.9746 44.0967H30.3838C29.9697 44.0967 29.6338 43.7607 29.6338 43.3467C29.6338 42.9326 29.9697 42.5967 30.3838 42.5967ZM27.1826 38.0898H27.7734C28.1875 38.0898 28.5234 38.4258 28.5234 38.8398C28.5234 39.2539 28.1875 39.5898 27.7734 39.5898H27.1826C26.7686 39.5898 26.4326 39.2539 26.4326 38.8398C26.4326 38.4258 26.7686 38.0898 27.1826 38.0898ZM27.1826 40.3428H27.7734C28.1875 40.3428 28.5234 40.6787 28.5234 41.0928C28.5234 41.5068 28.1875 41.8428 27.7734 41.8428H27.1826C26.7686 41.8428 26.4326 41.5068 26.4326 41.0928C26.4326 40.6787 26.7686 40.3428 27.1826 40.3428ZM27.1826 42.5967H27.7734C28.1875 42.5967 28.5234 42.9326 28.5234 43.3467C28.5234 43.7607 28.1875 44.0967 27.7734 44.0967H27.1826C26.7686 44.0967 26.4326 43.7607 26.4326 43.3467C26.4326 42.9326 26.7686 42.5967 27.1826 42.5967Z" fill="#EF5226"/>
<path d="M19.9854 43.127H13.6084C13.4834 43.127 13.3818 43.2285 13.3818 43.3525V45.9932H20.2109V43.3525C20.2109 43.2285 20.1094 43.127 19.9854 43.127Z" fill="#EF5226"/>
<path d="M38.3701 24.5293C41.8496 24.5293 44.6807 21.6992 44.6807 18.2197C44.6807 14.7402 41.8496 11.9102 38.3701 11.9102C37.4539 11.9102 36.5569 12.1157 35.7517 12.491C35.3303 13.5804 34.7424 14.5898 33.9844 15.4883C33.8359 15.6631 33.624 15.7539 33.4111 15.7539C33.2402 15.7539 33.0684 15.6953 32.9268 15.5771C32.6104 15.3096 32.5713 14.8359 32.8379 14.5195C33.5576 13.6689 34.1074 12.7051 34.4727 11.6562C34.4766 11.6451 34.4858 11.6379 34.49 11.627C34.7385 10.7941 34.8701 9.92816 34.8701 9.0498C34.8701 4.05957 30.8145 0 25.8301 0C22.7437 0 19.9165 1.57098 18.2534 4.12708C18.9888 4.52637 19.6641 5.02661 20.2676 5.62207C20.5625 5.91309 20.5664 6.3877 20.2754 6.68262C20.1279 6.83203 19.9346 6.90625 19.7412 6.90625C19.5508 6.90625 19.3604 6.83398 19.2148 6.69043C18.5371 6.02148 17.7529 5.49609 16.8848 5.12891C16.8735 5.12421 16.8667 5.1145 16.856 5.10931C15.9197 4.73267 14.9556 4.54004 13.9902 4.54004C9.8877 4.54004 6.5498 7.88184 6.5498 11.9893C6.5498 12.493 6.60815 12.9493 6.69727 13.3895C7.31982 13.542 7.92065 13.7777 8.47363 14.1104C8.82812 14.3232 8.94336 14.7842 8.72949 15.1396C8.58887 15.373 8.34082 15.5029 8.08594 15.5029C7.95508 15.5029 7.82129 15.4688 7.7002 15.3955C7.14722 15.063 6.53369 14.848 5.89795 14.7531C5.85547 14.7455 5.81494 14.741 5.77417 14.7361C5.57471 14.7115 5.37354 14.6953 5.1709 14.6953C5.16406 14.6953 5.1582 14.6915 5.15137 14.6913C2.44727 14.7017 0.25 16.9078 0.25 19.6201C0.25 22.3271 2.45703 24.5293 5.16992 24.5293H6.56348V21.0889C6.56348 20.0303 7.4248 19.1689 8.48438 19.1689H36.4434C37.502 19.1689 38.3633 20.0303 38.3633 21.0889V24.5293H38.3701ZM21.2539 13.1758C21.1074 13.3223 20.916 13.3955 20.7236 13.3955C20.5312 13.3955 20.3398 13.3223 20.1934 13.1758L19.4971 12.48V16.0625C19.4971 16.4766 19.1611 16.8125 18.7471 16.8125C18.333 16.8125 17.9971 16.4766 17.9971 16.0625V12.4814L17.3008 13.1768C17.0068 13.4688 16.5312 13.4678 16.2393 13.1758C15.9473 12.8818 15.9473 12.4072 16.2402 12.1143L18.2148 10.1436C18.2852 10.0727 18.3696 10.0167 18.4634 9.97821C18.5283 9.9516 18.5974 9.94495 18.666 9.93726C18.6938 9.93408 18.7183 9.9209 18.7471 9.9209C18.7478 9.9209 18.7483 9.92126 18.749 9.92126C18.8472 9.92133 18.9446 9.94122 19.0366 9.97937C19.0789 9.99719 19.1113 10.0294 19.1494 10.0544C19.1934 10.0826 19.241 10.1024 19.2793 10.1406L21.2539 12.1152C21.5469 12.4082 21.5469 12.8828 21.2539 13.1758ZM28.6865 14.6201L26.7168 16.5839C26.6453 16.6577 26.5591 16.7162 26.4624 16.7556C26.3972 16.7824 26.3279 16.7891 26.2588 16.7967C26.2319 16.7996 26.2085 16.8125 26.1807 16.8125C26.1802 16.8125 26.1797 16.8122 26.1792 16.8122C26.1787 16.8122 26.1782 16.8125 26.1777 16.8125C26.0793 16.8125 25.9817 16.7921 25.8896 16.7537C25.8755 16.7478 25.8657 16.7356 25.8521 16.7289C25.7795 16.6934 25.708 16.6533 25.6475 16.5928L23.6738 14.6191C23.3809 14.3262 23.3809 13.8516 23.6738 13.5586C23.9668 13.2656 24.4414 13.2656 24.7344 13.5586L25.4307 14.2549V10.6709C25.4307 10.2568 25.7666 9.9209 26.1807 9.9209C26.5947 9.9209 26.9307 10.2568 26.9307 10.6709V14.253L27.6279 13.5576C27.9209 13.2656 28.3955 13.2656 28.6885 13.5596C28.9805 13.8525 28.9805 14.3271 28.6865 14.6201Z" fill="#EF5226"/>
<path d="M19.9854 27.4912H13.6084C13.4834 27.4912 13.3818 27.5928 13.3818 27.7168V30.3564H20.2109V27.7168C20.2109 27.5928 20.1094 27.4912 19.9854 27.4912Z" fill="#EF5226"/>
<path d="M36.4434 20.6689H8.48438C8.25195 20.6689 8.06348 20.8574 8.06348 21.0889V29.9365C8.06348 30.168 8.25195 30.3564 8.48438 30.3564H11.7539H11.8818V27.7168C11.8818 26.7656 12.6562 25.9912 13.6084 25.9912H19.9854C20.9365 25.9912 21.7109 26.7656 21.7109 27.7168V30.3564H33.1738H36.4434C36.6748 30.3564 36.8633 30.168 36.8633 29.9365V25.2938C36.8633 25.2887 36.8604 25.2844 36.8604 25.2793C36.8604 25.2742 36.8633 25.2699 36.8633 25.2648V21.0889C36.8633 20.8574 36.6748 20.6689 36.4434 20.6689ZM27.7734 28.46H27.1826C26.7686 28.46 26.4326 28.124 26.4326 27.71C26.4326 27.2959 26.7686 26.96 27.1826 26.96H27.7734C28.1875 26.96 28.5234 27.2959 28.5234 27.71C28.5234 28.124 28.1875 28.46 27.7734 28.46ZM27.7734 26.207H27.1826C26.7686 26.207 26.4326 25.8711 26.4326 25.457C26.4326 25.043 26.7686 24.707 27.1826 24.707H27.7734C28.1875 24.707 28.5234 25.043 28.5234 25.457C28.5234 25.8711 28.1875 26.207 27.7734 26.207ZM27.7734 23.9541H27.1826C26.7686 23.9541 26.4326 23.6182 26.4326 23.2041C26.4326 22.79 26.7686 22.4541 27.1826 22.4541H27.7734C28.1875 22.4541 28.5234 22.79 28.5234 23.2041C28.5234 23.6182 28.1875 23.9541 27.7734 23.9541ZM30.9746 28.46H30.3838C29.9697 28.46 29.6338 28.124 29.6338 27.71C29.6338 27.2959 29.9697 26.96 30.3838 26.96H30.9746C31.3887 26.96 31.7246 27.2959 31.7246 27.71C31.7246 28.124 31.3887 28.46 30.9746 28.46ZM30.9746 26.207H30.3838C29.9697 26.207 29.6338 25.8711 29.6338 25.457C29.6338 25.043 29.9697 24.707 30.3838 24.707H30.9746C31.3887 24.707 31.7246 25.043 31.7246 25.457C31.7246 25.8711 31.3887 26.207 30.9746 26.207ZM30.9746 23.9541H30.3838C29.9697 23.9541 29.6338 23.6182 29.6338 23.2041C29.6338 22.79 29.9697 22.4541 30.3838 22.4541H30.9746C31.3887 22.4541 31.7246 22.79 31.7246 23.2041C31.7246 23.6182 31.3887 23.9541 30.9746 23.9541ZM34.1758 28.46H33.585C33.1709 28.46 32.835 28.124 32.835 27.71C32.835 27.2959 33.1709 26.96 33.585 26.96H34.1758C34.5898 26.96 34.9258 27.2959 34.9258 27.71C34.9258 28.124 34.5898 28.46 34.1758 28.46ZM34.1758 26.207H33.585C33.1709 26.207 32.835 25.8711 32.835 25.457C32.835 25.043 33.1709 24.707 33.585 24.707H34.1758C34.5898 24.707 34.9258 25.043 34.9258 25.457C34.9258 25.8711 34.5898 26.207 34.1758 26.207ZM34.1758 23.9541H33.585C33.1709 23.9541 32.835 23.6182 32.835 23.2041C32.835 22.79 33.1709 22.4541 33.585 22.4541H34.1758C34.5898 22.4541 34.9258 22.79 34.9258 23.2041C34.9258 23.6182 34.5898 23.9541 34.1758 23.9541Z" fill="#EF5226"/>
<path d="M32.4238 34.8047V31.8564H20.9707L20.9609 31.8584H12.6318L12.6221 31.8564H12.5039V34.8047H32.4238Z" fill="#EF5226"/>
</svg>
