<svg width="49" height="50" viewBox="0 0 49 50" fill="none" xmlns="http://www.w3.org/2000/svg">
<path d="M42.5557 24.375C42.6338 21.4063 41.6963 18.6719 39.665 16.4844C34.4307 10.7032 24.9775 12.1875 21.6963 19.2969C16.7744 16.0938 9.82129 18.2032 7.71191 24.0625C3.64941 24.6875 0.680664 28.125 0.680664 32.2657C0.680664 36.875 4.43066 40.625 9.04004 40.625H17.0869V37.8907C17.0869 36.7188 17.9463 35.7813 19.1182 35.7032V34.2188C19.1182 30.2344 22.2432 27.0313 26.1494 27.0313H26.4619C30.3682 27.0313 33.4932 30.2344 33.4932 34.2188V35.7032C34.5869 35.8594 35.4463 36.7969 35.4463 37.8907V40.625H40.1338C44.7432 40.625 48.4932 36.875 48.4932 32.2657C48.3369 28.6719 45.9932 25.4688 42.5557 24.375ZM9.04004 36.1719C6.93066 36.1719 5.21191 34.4532 5.21191 32.3438C5.21191 30.3125 6.69629 28.6719 8.64941 28.5157C9.04004 28.5157 9.43066 28.75 9.43066 29.2188C9.50879 29.6094 9.19629 30 8.72754 30C7.47754 30.0782 6.61816 31.0938 6.61816 32.3438C6.61816 33.6719 7.71191 34.6875 8.96191 34.6875C9.35254 34.6875 9.74316 35 9.74316 35.4688C9.74316 35.8594 9.43066 36.1719 9.04004 36.1719ZM19.8213 24.375C19.5869 24.6875 19.1182 24.7657 18.8057 24.5313C16.9307 23.0469 14.04 23.9063 13.3369 26.25C13.2588 26.6407 12.79 26.875 12.3994 26.7188C12.0088 26.6407 11.7744 26.1719 11.9307 25.7813C12.9463 22.4219 17.0088 21.0938 19.7432 23.2813C19.9775 23.5938 20.0557 24.0625 19.8213 24.375ZM38.0244 24.5313C38.0244 24.9219 37.6338 25.2344 37.3213 25.2344H37.2432C36.8525 25.1563 36.54 24.8438 36.54 24.4532C37.165 18.5157 28.8057 16.7969 26.8525 22.2657C26.6963 22.6563 26.3057 22.8907 25.915 22.7344C25.5244 22.5782 25.29 22.1875 25.4463 21.7969C28.0244 14.6094 38.8057 16.9532 38.0244 24.5313ZM39.9775 36.1719C39.5869 36.1719 39.1963 35.8594 39.1963 35.3907C39.1963 35 39.5088 34.6094 39.9775 34.6094C41.3057 34.6094 42.3213 33.5157 42.3213 32.2657C42.3213 31.1719 41.54 30.2344 40.5244 29.9219C40.1338 29.8438 39.8994 29.4532 39.9775 29.0625C40.0557 28.6719 40.4463 28.4375 40.8369 28.5157C42.5557 28.9063 43.8057 30.4688 43.8057 32.2657C43.8838 34.4532 42.165 36.1719 39.9775 36.1719Z" fill="#EF5226"/>
<path d="M2.94629 18.6719H9.74316C12.9463 16.0938 17.3213 15.625 21.0713 17.2656C21.8525 16.0938 22.7119 15.0781 23.8057 14.2188V11.0938C23.8057 10.7031 23.4932 10.3125 23.0244 10.3125H21.3838V8.20312H23.1025C23.4932 8.20312 23.8838 7.89062 23.8838 7.42188V0.78125C23.8838 0.390625 23.5713 0 23.1025 0H2.94629C2.55566 0 2.16504 0.3125 2.16504 0.78125V7.57812C2.16504 7.96875 2.47754 8.35938 2.94629 8.35938H4.66504V10.4688H2.94629C2.55566 10.4688 2.16504 10.7812 2.16504 11.25V17.9688C2.24316 18.3594 2.55566 18.6719 2.94629 18.6719ZM14.1182 15.0781C13.8057 15.3906 13.3369 15.3906 13.0244 15.0781C12.7119 14.7656 12.7119 14.2969 13.0244 13.9844C13.3369 13.6719 13.8057 13.6719 14.1182 13.9844C14.4307 14.2969 14.4307 14.7656 14.1182 15.0781ZM16.6963 15.0781C16.3838 15.3906 15.915 15.3906 15.6025 15.0781C15.29 14.7656 15.29 14.2969 15.6025 13.9844C15.915 13.6719 16.3838 13.6719 16.6963 13.9844C17.0088 14.2969 17.0088 14.7656 16.6963 15.0781ZM19.2744 15.0781C18.9619 15.3906 18.4932 15.3906 18.1807 15.0781C17.8682 14.7656 17.8682 14.2969 18.1807 13.9844C18.4932 13.6719 18.9619 13.6719 19.2744 13.9844C19.5088 14.2969 19.5088 14.7656 19.2744 15.0781ZM19.8213 10.3906H6.14941V8.28125H19.8213V10.3906ZM18.1807 3.59375C18.415 3.28125 18.9619 3.28125 19.2744 3.59375C19.5869 3.90625 19.5869 4.375 19.2744 4.6875C18.9619 5 18.4932 5 18.1807 4.6875C17.9463 4.375 17.8682 3.90625 18.1807 3.59375ZM15.6025 3.59375C15.915 3.28125 16.3838 3.28125 16.6963 3.59375C17.0088 3.90625 17.0088 4.375 16.6963 4.6875C16.3838 5 15.915 5 15.6025 4.6875C15.3682 4.375 15.3682 3.90625 15.6025 3.59375ZM13.1025 3.59375C13.415 3.28125 13.8838 3.28125 14.1963 3.59375C14.5088 3.90625 14.5088 4.375 14.1963 4.6875C13.8838 5 13.415 5 13.1025 4.6875C12.79 4.375 12.79 3.90625 13.1025 3.59375ZM5.83691 3.4375H9.11816C9.50879 3.4375 9.89941 3.75 9.89941 4.21875C9.89941 4.60938 9.58691 5 9.11816 5H5.83691C5.44629 5 5.05566 4.6875 5.05566 4.21875C5.05566 3.75 5.36816 3.4375 5.83691 3.4375ZM5.83691 13.8281H9.11816C9.50879 13.8281 9.89941 14.1406 9.89941 14.6094C9.89941 15 9.58691 15.3906 9.11816 15.3906H5.83691C5.44629 15.3906 5.05566 15.0781 5.05566 14.6094C5.05566 14.1406 5.36816 13.8281 5.83691 13.8281Z" fill="#EF5226"/>
<path d="M33.1025 37.1875H31.8525V34.2187C31.8525 31.0937 29.3525 28.5156 26.3057 28.5156C26.2275 28.5156 20.5244 28.5156 20.5244 34.2187V37.1875H19.2744C18.8838 37.1875 18.4932 37.5 18.4932 37.9687V49.2188C18.4932 49.6094 18.8057 50 19.2744 50H33.1025C33.4932 50 33.8838 49.6875 33.8838 49.2188V37.8906C33.8838 37.5 33.4932 37.1875 33.1025 37.1875ZM30.3682 37.1875H22.0088V34.2187C22.0088 29.9219 26.2275 30 26.3057 30C28.5713 30 30.3682 31.875 30.3682 34.2187V37.1875Z" fill="#05A7CC"/>
</svg>
