<svg width="51" height="50" viewBox="0 0 51 50" fill="none" xmlns="http://www.w3.org/2000/svg">
<path d="M29.7603 9.26001C29.3502 9.56 29.2403 10.12 29.4903 10.56L31.1602 13.44C31.4102 13.88 31.9503 14.06 32.4202 13.86C32.8703 13.67 33.3903 13.7 33.8203 13.95C34.2503 14.2 34.5303 14.62 34.5903 15.12C34.6503 15.62 35.0803 16 35.5803 16H38.9203C39.4203 16 39.8502 15.62 39.9102 15.12C39.9703 14.62 40.2503 14.2 40.6803 13.95C41.1102 13.7 41.6203 13.67 42.0803 13.86C42.5503 14.06 43.0903 13.88 43.3403 13.44L45.0103 10.56C45.2603 10.12 45.1503 9.56 44.7403 9.26001C44.3403 8.95996 44.1203 8.5 44.1203 8C44.1203 7.5 44.3403 7.03998 44.7403 6.73999C45.1503 6.44 45.2603 5.88 45.0103 5.44L43.3403 2.56C43.0903 2.12 42.5503 1.94 42.0803 2.14002C41.6203 2.32996 41.1103 2.29999 40.6803 2.04999C40.2503 1.79999 39.9702 1.38 39.9102 0.88C39.8502 0.38 39.4202 0 38.9202 0H35.5803C35.0803 0 34.6503 0.38 34.5903 0.88C34.5303 1.38 34.2503 1.79999 33.8203 2.04999C33.3903 2.29999 32.8703 2.32996 32.4202 2.14001C31.9503 1.94 31.4102 2.12 31.1602 2.56L29.4903 5.44C29.2403 5.88 29.3502 6.44 29.7603 6.73999C30.1602 7.03998 30.3803 7.5 30.3803 8C30.3803 8.5 30.1602 8.95996 29.7603 9.26001ZM37.2503 5C38.9003 5 40.2503 6.34998 40.2503 8C40.2503 9.64996 38.9003 11 37.2503 11C35.6002 11 34.2503 9.64996 34.2503 8C34.2503 6.34998 35.6002 5 37.2503 5Z" fill="#EF5226"/>
<path d="M44.7403 40.74C45.1503 40.44 45.2603 39.88 45.0103 39.44L43.3403 36.56C43.0903 36.12 42.5503 35.94 42.0803 36.14C41.6203 36.33 41.1103 36.3 40.6803 36.05C40.2503 35.8 39.9702 35.38 39.9102 34.88C39.8502 34.38 39.4202 34 38.9202 34H35.5803C35.0803 34 34.6503 34.38 34.5903 34.88C34.5303 35.38 34.2503 35.8 33.8203 36.05C33.3903 36.3 32.8703 36.33 32.4203 36.14C31.9503 35.94 31.4102 36.12 31.1602 36.56L29.4903 39.44C29.2403 39.88 29.3502 40.44 29.7603 40.74C30.1602 41.04 30.3803 41.5 30.3803 42C30.3803 42.5 30.1602 42.96 29.7603 43.26C29.3502 43.56 29.2403 44.12 29.4903 44.56L31.1602 47.44C31.4102 47.88 31.9503 48.06 32.4202 47.86C32.8703 47.67 33.3903 47.7 33.8203 47.95C34.2503 48.2 34.5303 48.62 34.5903 49.12C34.6503 49.62 35.0803 50 35.5803 50H38.9203C39.4203 50 39.8503 49.62 39.9103 49.12C39.9703 48.62 40.2503 48.2 40.6803 47.95C41.1102 47.7 41.6203 47.67 42.0803 47.86C42.5503 48.06 43.0903 47.88 43.3403 47.44L45.0103 44.56C45.2603 44.12 45.1503 43.56 44.7403 43.26C44.3403 42.96 44.1203 42.5 44.1203 42C44.1203 41.5 44.3403 41.04 44.7403 40.74ZM37.2503 45C35.6002 45 34.2503 43.65 34.2503 42C34.2503 40.35 35.6002 39 37.2503 39C38.9003 39 40.2503 40.35 40.2503 42C40.2503 43.65 38.9003 45 37.2503 45Z" fill="#EF5226"/>
<path d="M20.7403 40.74C21.1503 40.44 21.2603 39.88 21.0103 39.44L19.3403 36.56C19.0903 36.12 18.5503 35.94 18.0803 36.14C17.6303 36.33 17.1103 36.3 16.6803 36.05C16.2503 35.8 15.9702 35.38 15.9102 34.88C15.8502 34.38 15.4202 34 14.9202 34H11.5803C11.0803 34 10.6503 34.38 10.5903 34.88C10.5303 35.38 10.2503 35.8 9.82028 36.05C9.39029 36.3 8.88028 36.33 8.42026 36.14C7.95028 35.94 7.41024 36.12 7.16024 36.56L5.49026 39.44C5.24026 39.88 5.35025 40.44 5.76028 40.74C6.16024 41.04 6.38027 41.5 6.38027 42C6.38027 42.5 6.16024 42.96 5.76027 43.26C5.35025 43.56 5.24026 44.12 5.49026 44.56L7.16024 47.44C7.41024 47.88 7.95028 48.06 8.42025 47.86C8.87026 47.67 9.39028 47.7 9.82027 47.95C10.2503 48.2 10.5303 48.62 10.5903 49.12C10.6503 49.62 11.0803 50 11.5803 50H14.9203C15.4203 50 15.8503 49.62 15.9103 49.12C15.9703 48.62 16.2503 48.2 16.6803 47.95C17.1103 47.7 17.6303 47.67 18.0803 47.86C18.5503 48.06 19.0903 47.88 19.3403 47.44L21.0103 44.56C21.2603 44.12 21.1503 43.56 20.7403 43.26C20.3403 42.96 20.1203 42.5 20.1203 42C20.1203 41.5 20.3403 41.04 20.7403 40.74ZM13.2503 45C11.6002 45 10.2503 43.65 10.2503 42C10.2503 40.35 11.6002 39 13.2503 39C14.9003 39 16.2503 40.35 16.2503 42C16.2503 43.65 14.9003 45 13.2503 45Z" fill="#EF5226"/>
<path d="M5.76028 9.26001C5.35025 9.56 5.24026 10.12 5.49026 10.56L7.16024 13.44C7.41024 13.88 7.95028 14.06 8.42025 13.86C8.87026 13.67 9.39028 13.7 9.82027 13.95C10.2503 14.2 10.5303 14.62 10.5903 15.12C10.6503 15.62 11.0803 16 11.5803 16H14.9203C15.4203 16 15.8502 15.62 15.9102 15.12C15.9703 14.62 16.2503 14.2 16.6803 13.95C17.1102 13.7 17.6303 13.67 18.0803 13.86C18.5503 14.06 19.0903 13.88 19.3403 13.44L21.0103 10.56C21.2603 10.12 21.1503 9.56 20.7403 9.26001C20.3403 8.95996 20.1203 8.5 20.1203 8C20.1203 7.5 20.3403 7.03998 20.7403 6.73999C21.1503 6.44 21.2603 5.88 21.0103 5.44L19.3403 2.56C19.0903 2.12 18.5503 1.94 18.0803 2.14002C17.6303 2.32996 17.1103 2.29999 16.6803 2.04999C16.2503 1.79999 15.9702 1.38 15.9102 0.88C15.8502 0.38 15.4202 0 14.9202 0H11.5803C11.0803 0 10.6503 0.38 10.5903 0.88C10.5303 1.38 10.2503 1.79999 9.82028 2.04999C9.39029 2.29999 8.88028 2.32996 8.42026 2.14002C7.95028 1.94 7.41024 2.12 7.16024 2.56L5.49026 5.44C5.24026 5.88 5.35025 6.44 5.76028 6.73999C6.16024 7.03998 6.38027 7.5 6.38027 8C6.38027 8.5 6.16024 8.95996 5.76028 9.26001ZM13.2503 5C14.9003 5 16.2503 6.34998 16.2503 8C16.2503 9.64996 14.9003 11 13.2503 11C11.6002 11 10.2503 9.64996 10.2503 8C10.2503 6.34998 11.6002 5 13.2503 5Z" fill="#EF5226"/>
<path d="M25.75 14.8965C25.4404 14.7178 25.0596 14.7178 24.75 14.8965L17.248 19.2272L25.25 23.8452L33.2519 19.2272L25.75 14.8965Z" fill="#05A7CC"/>
<path d="M47.25 29C46.7172 29 46.2237 29.1512 45.7897 29.3957L42.0333 26.1044C42.1697 25.7618 42.25 25.3907 42.25 25C42.25 24.6093 42.1697 24.2383 42.0333 23.8957L45.7903 20.6046C46.2242 20.8489 46.7175 21 47.25 21C48.9043 21 50.25 19.6543 50.25 18C50.25 16.3457 48.9043 15 47.25 15C45.5957 15 44.25 16.3457 44.25 18C44.25 18.3907 44.3303 18.7617 44.4667 19.1043L40.7097 22.3953C40.2758 22.1511 39.7825 22 39.25 22C37.9481 22 36.8484 22.8385 36.4343 24H34.25V20.9607L26.25 25.5776V34.8149L33.75 30.4853C34.0596 30.3066 34.25 29.9765 34.25 29.6191V26H36.4343C36.8484 27.1615 37.9481 28 39.25 28C39.7827 28 40.2763 27.8488 40.7103 27.6043L44.4667 30.8956C44.3303 31.2382 44.25 31.6093 44.25 32C44.25 33.6543 45.5957 35 47.25 35C48.9043 35 50.25 33.6543 50.25 32C50.25 30.3457 48.9043 29 47.25 29Z" fill="#EF5226"/>
<path d="M16.25 24H14.0657C13.6516 22.8385 12.5519 22 11.25 22C10.7175 22 10.2242 22.1511 9.79028 22.3954L6.03332 19.1043C6.1698 18.7617 6.25 18.3907 6.25 18C6.25 16.3457 4.9043 15 3.25 15C1.5957 15 0.25 16.3457 0.25 18C0.25 19.6543 1.5957 21 3.25 21C3.78247 21 4.27576 20.8489 4.70972 20.6046L8.46674 23.8957C8.33032 24.2383 8.25 24.6094 8.25 25C8.25 25.3907 8.33032 25.7618 8.4668 26.1044L4.71033 29.3957C4.27625 29.1512 3.78278 29 3.25 29C1.5957 29 0.25 30.3457 0.25 32C0.25 33.6543 1.5957 35 3.25 35C4.9043 35 6.25 33.6543 6.25 32C6.25 31.6093 6.16974 31.2382 6.03326 30.8956L9.78967 27.6043C10.2238 27.8488 10.7172 28 11.25 28C12.5519 28 13.6516 27.1615 14.0657 26H16.25V29.6191C16.25 29.9766 16.4404 30.3066 16.75 30.4854L24.25 34.8149V25.5776L16.25 20.9607V24Z" fill="#EF5226"/>
</svg>
