<svg width="52" height="50" viewBox="0 0 52 50" fill="none" xmlns="http://www.w3.org/2000/svg">
<path fill-rule="evenodd" clip-rule="evenodd" d="M7.3945 35.2111C3.31053 35.2111 0 38.5215 0 42.6055C0 46.6894 3.31053 50 7.3945 50C11.4785 50 14.7889 46.6894 14.7889 42.6055C14.7889 38.5215 11.4785 35.2111 7.3945 35.2111ZM6.73748 36.5047C6.73748 35.6404 8.05163 35.6404 8.05163 36.5047V36.7398C9.5829 37.0499 10.6887 38.4016 10.6887 39.9683C10.6887 40.8326 9.37452 40.8326 9.37452 39.9683C9.37452 38.8747 8.48816 37.9883 7.3945 37.9883C6.30085 37.9883 5.41449 38.8747 5.41449 39.9683C5.41449 41.062 6.30106 41.9483 7.3945 41.9483C9.21359 41.9483 10.6887 43.4234 10.6887 45.2425C10.6887 46.8092 9.5828 48.1609 8.05163 48.471V48.7061C8.05163 49.5704 6.73748 49.5704 6.73748 48.7061V48.4709C5.23305 48.1664 4.10033 46.8366 4.10033 45.2424C4.10033 44.3781 5.41449 44.3781 5.41449 45.2424C5.41449 46.3359 6.30106 47.2224 7.3945 47.2224C8.48794 47.2224 9.37452 46.336 9.37452 45.2424C9.37452 44.1487 8.48816 43.2624 7.3945 43.2624C5.5752 43.2624 4.10033 41.7875 4.10033 39.9682C4.10033 38.4015 5.20621 37.0497 6.73748 36.7397V36.5046V36.5047Z" fill="#EF5226"/>
<path fill-rule="evenodd" clip-rule="evenodd" d="M25.6259 35.2111C21.542 35.2111 18.2314 38.5215 18.2314 42.6055C18.2314 46.6894 21.542 50 25.6259 50C29.7099 50 33.0204 46.6895 33.0204 42.6055C33.0204 38.5214 29.71 35.2111 25.6259 35.2111ZM24.4481 36.0129C24.5679 35.8527 24.7591 35.7492 24.9745 35.7492H26.2775C26.4929 35.7492 26.684 35.8528 26.8039 36.0129L27.3598 36.6828C27.467 36.7996 27.5324 36.9555 27.5324 37.1266V37.9395L27.5773 37.9581L28.152 37.3833C28.2788 37.2565 28.4446 37.1924 28.6108 37.191L29.4325 37.1145C29.6369 37.0779 29.8552 37.1386 30.0132 37.2966L30.9346 38.2181C31.0926 38.376 31.1532 38.5944 31.1167 38.7988L31.0403 39.6205C31.0389 39.7868 30.9748 39.9525 30.848 40.0793L30.2723 40.6549L30.2906 40.699H31.1047C31.2759 40.699 31.4317 40.7644 31.5485 40.8716L32.2184 41.4275C32.3786 41.5473 32.4821 41.7385 32.4821 41.9539V43.257C32.4821 43.4724 32.3785 43.6635 32.2184 43.7834L31.5485 44.3393C31.4317 44.4465 31.2758 44.5119 31.1047 44.5119H30.2907L30.2723 44.556L30.8479 45.1315C30.9746 45.2583 31.0388 45.4241 31.0402 45.5904L31.1166 46.4121C31.1531 46.6165 31.0925 46.8349 30.9345 46.9928L30.013 47.9142C29.855 48.0722 29.6367 48.1329 29.4322 48.0963L28.6106 48.0198C28.4443 48.0184 28.2786 47.9543 28.1518 47.8275L27.5763 47.252L27.5321 47.2703V48.0843C27.5321 48.2554 27.4666 48.4113 27.3595 48.5281L26.8036 49.198C26.6838 49.3582 26.4926 49.4617 26.2772 49.4617H24.9742C24.7588 49.4617 24.5676 49.3581 24.4477 49.198L23.8919 48.5281C23.7847 48.4112 23.7193 48.2554 23.7193 48.0843V47.2703C23.7034 47.2637 23.69 47.2593 23.6743 47.2527L23.0994 47.8275C22.9727 47.9543 22.8068 48.0184 22.6407 48.0198L21.819 48.0963C21.6145 48.1329 21.3962 48.0722 21.2382 47.9142L20.3167 46.9928C20.1588 46.8349 20.0981 46.6165 20.1347 46.4121L20.211 45.5904C20.2124 45.4241 20.2766 45.2584 20.4034 45.1315L20.9789 44.556L20.9606 44.5119H20.1465C19.9755 44.5119 19.8196 44.4465 19.7027 44.3393L19.0328 43.7834C18.8726 43.6636 18.7691 43.4724 18.7691 43.257V41.9539C18.7691 41.7385 18.8728 41.5474 19.0328 41.4275L19.7027 40.8716C19.8197 40.7644 19.9755 40.699 20.1465 40.699H20.9595L20.9781 40.654L20.4034 40.0793C20.2766 39.9525 20.2124 39.7867 20.211 39.6205L20.1347 38.7988C20.0981 38.5944 20.1588 38.376 20.3167 38.2181L21.2381 37.2966C21.3961 37.1386 21.6144 37.0779 21.8189 37.1145L22.6405 37.191C22.8068 37.1924 22.9725 37.2565 23.0993 37.3833L23.675 37.9589L23.719 37.9406V37.1266C23.719 36.9554 23.7845 36.7996 23.8916 36.6828L24.4475 36.0129H24.4481Z" fill="#EF5226"/>
<path fill-rule="evenodd" clip-rule="evenodd" d="M43.8553 35.2111C39.7714 35.2111 36.4609 38.5215 36.4609 42.6055C36.4609 46.6894 39.7714 50 43.8553 50C47.9393 50 51.2498 46.6894 51.2498 42.6055C51.2498 38.5215 47.9394 35.2111 43.8553 35.2111ZM43.7385 42.1265L44.518 42.5985C44.8252 42.217 45.2714 41.9799 45.7597 41.94C45.9411 41.9253 46.1184 41.9385 46.2874 41.9761L46.9632 40.9785C46.5096 40.3207 46.5504 39.438 47.0721 38.8235C47.7079 38.0747 48.8261 37.9815 49.5753 38.6176C50.324 39.2534 50.4174 40.3714 49.7812 41.1208C49.4861 41.4683 49.0587 41.7033 48.5692 41.7432H48.5686C48.39 41.7577 48.2154 41.7451 48.0487 41.7087L47.3699 42.711C47.5386 42.9576 47.6472 43.25 47.6733 43.5687C47.753 44.5458 47.0206 45.4027 46.0446 45.4823C45.0842 45.5607 44.2357 44.8529 44.135 43.8958L42.8989 43.1475C42.4916 43.3707 42.0167 43.4243 41.5724 43.3022L40.8027 44.3191C41.2136 44.9976 41.127 45.8734 40.576 46.457C39.9052 47.1677 38.7769 47.2022 38.0656 46.5311C37.3521 45.8575 37.3189 44.7336 37.9916 44.0209C38.4487 43.5364 39.128 43.3543 39.7566 43.5272L40.5264 42.5102C40.1153 41.8314 40.2064 40.9514 40.7531 40.3723C41.4236 39.6616 42.5524 39.6271 43.2633 40.2982C43.7637 40.7704 43.944 41.4751 43.7384 42.1265H43.7385Z" fill="#EF5226"/>
<path fill-rule="evenodd" clip-rule="evenodd" d="M38.9474 44.9192C38.7716 45.1054 38.7789 45.4009 38.9649 45.5764C39.152 45.753 39.4452 45.7463 39.6222 45.5589C39.798 45.3725 39.7906 45.0772 39.6046 44.9016C39.4209 44.728 39.1249 44.7311 38.9474 44.9192Z" fill="#EF5226"/>
<path fill-rule="evenodd" clip-rule="evenodd" d="M48.7281 39.6187C48.5342 39.4542 48.2379 39.4763 48.0729 39.6705C47.9084 39.8643 47.9306 40.1608 48.1248 40.3257C48.3186 40.4902 48.6151 40.4682 48.78 40.2739C48.9449 40.0797 48.9229 39.784 48.7282 39.6187H48.7281Z" fill="#EF5226"/>
<path fill-rule="evenodd" clip-rule="evenodd" d="M45.8624 43.2492C45.6049 43.2701 45.4191 43.4949 45.4401 43.7512C45.4611 44.0086 45.6857 44.1945 45.9421 44.1735C46.1996 44.1526 46.3854 43.9279 46.3644 43.6716C46.3434 43.4141 46.1188 43.2283 45.8624 43.2493V43.2492Z" fill="#EF5226"/>
<path d="M26.354 12.8542C28.0662 12.4495 29.1261 10.7334 28.7214 9.02115C28.3167 7.30894 26.6005 6.24902 24.8883 6.65376C23.1761 7.05849 22.1162 8.77462 22.5209 10.4868C22.9257 12.199 24.6418 13.259 26.354 12.8542Z" fill="#05A7CC"/>
<path fill-rule="evenodd" clip-rule="evenodd" d="M31.9245 24.0532H19.326C19.005 24.0532 18.7402 24.3181 18.7402 24.639C18.7402 24.9599 19.005 25.2249 19.326 25.2249H31.9245C32.2455 25.2249 32.5103 24.96 32.5103 24.6391C32.5103 24.3182 32.2454 24.0532 31.9245 24.0532Z" fill="#EF5226"/>
<path fill-rule="evenodd" clip-rule="evenodd" d="M28.5539 22.7391H31.2478C32.2203 22.2221 33.1131 21.575 33.9031 20.8214C33.197 17.6962 30.7383 15.2244 27.6348 14.489L28.5539 22.7392V22.7391Z" fill="#EF5226"/>
<path fill-rule="evenodd" clip-rule="evenodd" d="M24.0166 22.739H27.2337L26.292 14.2847C25.8701 14.2554 25.3804 14.2554 24.9585 14.2847L24.0166 22.739Z" fill="#EF5226"/>
<path fill-rule="evenodd" clip-rule="evenodd" d="M20.003 22.7391H22.6969L23.616 14.4889C20.5141 15.2238 18.0543 17.6933 17.3477 20.8213C18.1378 21.575 19.0306 22.2221 20.003 22.7391Z" fill="#EF5226"/>
<path fill-rule="evenodd" clip-rule="evenodd" d="M25.9692 37.0635H25.2811L25.0328 37.3626V38.4031C25.0328 38.7165 24.8133 38.9787 24.5196 39.0443C24.2975 39.1129 24.0883 39.2001 23.883 39.309C23.6296 39.4664 23.2923 39.435 23.0723 39.215L22.3349 38.4776L21.9509 38.4418L21.4614 38.9312L21.4971 39.3153L22.2346 40.0527C22.4579 40.2759 22.4868 40.62 22.3215 40.8746C22.2161 41.0764 22.1282 41.292 22.0615 41.5097C21.9923 41.7985 21.7325 42.0132 21.4226 42.0132H20.3822L20.083 42.2615V42.9495L20.3822 43.1978H21.4226C21.736 43.1978 21.9982 43.4175 22.0639 43.7112C22.1306 43.927 22.2163 44.1359 22.3212 44.3359C22.4869 44.5905 22.458 44.9349 22.2346 45.1582L21.4972 45.8956L21.4615 46.2797L21.951 46.7691L22.335 46.7334L23.0646 46.0039C23.2703 45.7906 23.5997 45.7404 23.8615 45.8891C24.0675 46 24.2957 46.0976 24.5196 46.1668C24.8133 46.2323 25.0329 46.4945 25.0329 46.8081V47.8485L25.2813 48.1476H25.9693L26.2176 47.8485V46.8081C26.2176 46.4947 26.4369 46.2328 26.7304 46.167C26.9464 46.1002 27.1554 46.0146 27.3556 45.9095C27.6103 45.7438 27.9546 45.7727 28.178 45.996L28.9155 46.7334L29.2995 46.7691L29.789 46.2797L29.7533 45.8956L29.0158 45.1582C28.7955 44.9378 28.7644 44.5999 28.9225 44.3464C29.031 44.1414 29.118 43.9328 29.1865 43.7111C29.2521 43.4173 29.5143 43.1978 29.8277 43.1978H30.8681L31.1673 42.9495V42.2615L30.8681 42.0132H29.8277C29.5144 42.0132 29.2524 41.7939 29.1866 41.5004C29.1179 41.278 29.0308 41.069 28.9217 40.8633C28.7644 40.61 28.7957 40.2727 29.0157 40.0527L29.7532 39.3153L29.7889 38.9312L29.2994 38.4418L28.9154 38.4776L28.1852 39.2078C27.9747 39.4245 27.646 39.4687 27.3879 39.3214C27.1671 39.2025 26.9468 39.1111 26.7067 39.0385C26.4251 38.9643 26.2175 38.7079 26.2175 38.4031V37.3626L25.9692 37.0635ZM25.6251 39.9801C26.3501 39.9801 27.0065 40.2741 27.4817 40.7492C27.9568 41.2244 28.2507 41.8807 28.2507 42.6057C28.2507 43.3307 27.9568 43.9871 27.4817 44.4622C27.0065 44.9374 26.3501 45.2313 25.6251 45.2313C24.9002 45.2313 24.2438 44.9374 23.7686 44.4622C23.2935 43.9871 22.9996 43.3307 22.9996 42.6057C22.9996 41.8807 23.2935 41.2244 23.7686 40.7492C24.2438 40.2741 24.9003 39.9801 25.6251 39.9801Z" fill="#EF5226"/>
<path fill-rule="evenodd" clip-rule="evenodd" d="M26.5524 41.6781C26.3151 41.4408 25.9872 41.2941 25.6249 41.2941C25.2626 41.2941 24.9347 41.4408 24.6975 41.6781C24.4602 41.9154 24.3135 42.2433 24.3135 42.6055C24.3135 42.9677 24.4602 43.2957 24.6975 43.5329C24.9348 43.7702 25.2627 43.9169 25.6249 43.9169C25.9871 43.9169 26.3151 43.7702 26.5524 43.5329C26.7897 43.2956 26.9364 42.9677 26.9364 42.6055C26.9364 42.2433 26.7897 41.9153 26.5524 41.6781Z" fill="#EF5226"/>
<path fill-rule="evenodd" clip-rule="evenodd" d="M16.3015 19.6877C17.297 16.6175 19.7815 14.2162 22.874 13.3258C21.77 12.4721 21.1245 11.1639 21.1245 9.76414C21.1245 7.27887 23.1396 5.26383 25.6248 5.26383C28.1101 5.26383 30.1252 7.27887 30.1252 9.76414C30.1252 11.1639 29.4797 12.4721 28.3757 13.3258C31.4687 14.2163 33.9527 16.6177 34.9482 19.6877C35.2836 19.2738 35.592 18.8374 35.8708 18.3808C37.0214 16.4956 37.6178 14.3451 37.6178 12.1411C37.6178 5.51739 32.2485 0.148071 25.6248 0.148071C19.0012 0.148071 13.6318 5.51739 13.6318 12.1411C13.6318 14.891 14.5607 17.5401 16.3014 19.6878L16.3015 19.6877Z" fill="#EF5226"/>
<path d="M43.0556 2.61653C43.7373 2.61653 44.2899 2.06392 44.2899 1.38224C44.2899 0.70056 43.7373 0.147949 43.0556 0.147949C42.3739 0.147949 41.8213 0.70056 41.8213 1.38224C41.8213 2.06392 42.3739 2.61653 43.0556 2.61653Z" fill="#EF5226"/>
<path d="M8.19425 2.46858C8.87593 2.46858 9.42854 1.91597 9.42854 1.23429C9.42854 0.55261 8.87593 0 8.19425 0C7.51257 0 6.95996 0.55261 6.95996 1.23429C6.95996 1.91597 7.51257 2.46858 8.19425 2.46858Z" fill="#EF5226"/>
<path fill-rule="evenodd" clip-rule="evenodd" d="M22.792 26.5389L23.3435 27.4941C23.4277 27.64 23.5559 27.7106 23.7246 27.7106H27.526C27.6981 27.7106 27.8219 27.6418 27.9082 27.4923L28.4586 26.5389H22.792Z" fill="#EF5226"/>
<path d="M47.706 6.39924C48.3876 6.39924 48.9403 5.84663 48.9403 5.16495C48.9403 4.48327 48.3876 3.93066 47.706 3.93066C47.0243 3.93066 46.4717 4.48327 46.4717 5.16495C46.4717 5.84663 47.0243 6.39924 47.706 6.39924Z" fill="#EF5226"/>
<path d="M3.54484 6.39924C4.22652 6.39924 4.77913 5.84663 4.77913 5.16495C4.77913 4.48327 4.22652 3.93066 3.54484 3.93066C2.86316 3.93066 2.31055 4.48327 2.31055 5.16495C2.31055 5.84663 2.86316 6.39924 3.54484 6.39924Z" fill="#EF5226"/>
<path fill-rule="evenodd" clip-rule="evenodd" d="M42.3837 41.9103C42.5596 41.724 42.5521 41.4286 42.3662 41.2531C42.1791 41.0766 41.8859 41.0832 41.7089 41.2707C41.5324 41.4577 41.539 41.7509 41.7265 41.9279C41.9101 42.1016 42.2063 42.0983 42.3837 41.9103Z" fill="#EF5226"/>
<path fill-rule="evenodd" clip-rule="evenodd" d="M6.74079 33.9213V19.6667C6.74079 16.7639 9.11346 14.3912 12.0163 14.3912H12.5082C12.5844 14.8371 12.6826 15.2756 12.8019 15.7053H12.0163C9.83878 15.7053 8.05483 17.4892 8.05483 19.6667V33.9217C7.83695 33.9054 7.61689 33.8971 7.39486 33.8971C7.1748 33.8971 6.9567 33.9051 6.74079 33.9213ZM26.2854 29.0247V33.9217C26.0675 33.9054 25.8475 33.8971 25.6254 33.8971C25.4054 33.8971 25.1873 33.9052 24.9714 33.9214V29.0248H26.2855L26.2854 29.0247ZM48.366 7.62697V8.30516C48.366 10.3418 46.7743 12.1287 44.6952 12.1287H38.9325C38.932 11.6852 38.9099 11.2469 38.8671 10.8145H44.6952C46.0527 10.8145 47.0519 9.62106 47.0519 8.30516V7.6286C47.2606 7.68392 47.4799 7.71338 47.7059 7.71338C47.9342 7.71338 48.1555 7.68337 48.3659 7.62697H48.366ZM12.3183 12.1286H6.56142C4.48234 12.1286 2.89062 10.3418 2.89062 8.30505V7.62849C3.09934 7.68381 3.31864 7.71327 3.5447 7.71327C3.77295 7.71327 3.99421 7.68327 4.20467 7.62686V8.30505C4.20467 9.62095 5.20384 10.8144 6.56131 10.8144H12.3835C12.3408 11.2468 12.3186 11.6851 12.3183 12.1286ZM43.7157 3.84423C43.5052 3.90053 43.284 3.93064 43.0557 3.93064C42.8297 3.93064 42.6104 3.90119 42.4017 3.84587V4.21813C42.4017 5.40856 41.5416 6.57837 40.2854 6.57837H37.7175C37.914 7.00475 38.0887 7.44324 38.2399 7.89253H40.2854C42.2683 7.89253 43.7158 6.13345 43.7158 4.21813L43.7157 3.84423ZM13.011 7.89242C13.1622 7.44313 13.3369 7.00464 13.5334 6.57826H10.9714C9.71517 6.57826 8.85511 5.40845 8.85511 4.21802V3.69629C8.64464 3.75259 8.42338 3.7827 8.19514 3.7827C7.96907 3.7827 7.74978 3.75324 7.54106 3.69793V4.21813C7.54106 6.13334 8.98854 7.89253 10.9715 7.89253H13.0111L13.011 7.89242ZM38.7425 14.3912H39.2404C42.1432 14.3912 44.5159 16.7639 44.5159 19.6667V33.9217C44.298 33.9054 44.0779 33.8971 43.8559 33.8971C43.6358 33.8971 43.4177 33.9052 43.2018 33.9214V19.6668C43.2018 17.4893 41.418 15.7054 39.2404 15.7054H38.4488C38.5682 15.2757 38.6665 14.8371 38.7425 14.3912Z" fill="#EF5226"/>
</svg>
