<svg width="50" height="50" viewBox="0 0 50 50" fill="none" xmlns="http://www.w3.org/2000/svg">
<path d="M29.5103 9.26001C29.1002 9.56 28.9903 10.12 29.2403 10.56L30.9102 13.44C31.1602 13.88 31.7003 14.06 32.1702 13.86C32.6203 13.67 33.1403 13.7 33.5703 13.95C34.0003 14.2 34.2803 14.62 34.3403 15.12C34.4003 15.62 34.8303 16 35.3303 16H38.6703C39.1703 16 39.6002 15.62 39.6602 15.12C39.7203 14.62 40.0003 14.2 40.4303 13.95C40.8602 13.7 41.3703 13.67 41.8303 13.86C42.3003 14.06 42.8403 13.88 43.0903 13.44L44.7603 10.56C45.0103 10.12 44.9003 9.56 44.4903 9.26001C44.0903 8.95996 43.8703 8.5 43.8703 8C43.8703 7.5 44.0903 7.03998 44.4903 6.73999C44.9003 6.44 45.0103 5.88 44.7603 5.44L43.0903 2.56C42.8403 2.12 42.3003 1.94 41.8303 2.14002C41.3703 2.32996 40.8603 2.29999 40.4303 2.04999C40.0003 1.79999 39.7202 1.38 39.6602 0.88C39.6002 0.38 39.1702 0 38.6702 0H35.3303C34.8303 0 34.4003 0.38 34.3403 0.88C34.2803 1.38 34.0003 1.79999 33.5703 2.04999C33.1403 2.29999 32.6203 2.32996 32.1702 2.14001C31.7003 1.94 31.1602 2.12 30.9102 2.56L29.2403 5.44C28.9903 5.88 29.1002 6.44 29.5103 6.73999C29.9102 7.03998 30.1303 7.5 30.1303 8C30.1303 8.5 29.9102 8.95996 29.5103 9.26001ZM37.0003 5C38.6503 5 40.0003 6.34998 40.0003 8C40.0003 9.64996 38.6503 11 37.0003 11C35.3502 11 34.0003 9.64996 34.0003 8C34.0003 6.34998 35.3502 5 37.0003 5Z" fill="#EF5226"/>
<path d="M44.4903 40.74C44.9003 40.44 45.0103 39.88 44.7603 39.44L43.0903 36.56C42.8403 36.12 42.3003 35.94 41.8303 36.14C41.3703 36.33 40.8603 36.3 40.4303 36.05C40.0003 35.8 39.7202 35.38 39.6602 34.88C39.6002 34.38 39.1702 34 38.6702 34H35.3303C34.8303 34 34.4003 34.38 34.3403 34.88C34.2803 35.38 34.0003 35.8 33.5703 36.05C33.1403 36.3 32.6203 36.33 32.1703 36.14C31.7003 35.94 31.1602 36.12 30.9102 36.56L29.2403 39.44C28.9903 39.88 29.1002 40.44 29.5103 40.74C29.9102 41.04 30.1303 41.5 30.1303 42C30.1303 42.5 29.9102 42.96 29.5103 43.26C29.1002 43.56 28.9903 44.12 29.2403 44.56L30.9102 47.44C31.1602 47.88 31.7003 48.06 32.1702 47.86C32.6203 47.67 33.1403 47.7 33.5703 47.95C34.0003 48.2 34.2803 48.62 34.3403 49.12C34.4003 49.62 34.8303 50 35.3303 50H38.6703C39.1703 50 39.6003 49.62 39.6603 49.12C39.7203 48.62 40.0003 48.2 40.4303 47.95C40.8602 47.7 41.3703 47.67 41.8303 47.86C42.3003 48.06 42.8403 47.88 43.0903 47.44L44.7603 44.56C45.0103 44.12 44.9003 43.56 44.4903 43.26C44.0903 42.96 43.8703 42.5 43.8703 42C43.8703 41.5 44.0903 41.04 44.4903 40.74ZM37.0003 45C35.3502 45 34.0003 43.65 34.0003 42C34.0003 40.35 35.3502 39 37.0003 39C38.6503 39 40.0003 40.35 40.0003 42C40.0003 43.65 38.6503 45 37.0003 45Z" fill="#EF5226"/>
<path d="M20.4903 40.74C20.9003 40.44 21.0103 39.88 20.7603 39.44L19.0903 36.56C18.8403 36.12 18.3003 35.94 17.8303 36.14C17.3803 36.33 16.8603 36.3 16.4303 36.05C16.0003 35.8 15.7202 35.38 15.6602 34.88C15.6002 34.38 15.1702 34 14.6702 34H11.3303C10.8303 34 10.4003 34.38 10.3403 34.88C10.2803 35.38 10.0003 35.8 9.57028 36.05C9.14029 36.3 8.63028 36.33 8.17026 36.14C7.70028 35.94 7.16024 36.12 6.91024 36.56L5.24026 39.44C4.99026 39.88 5.10025 40.44 5.51028 40.74C5.91024 41.04 6.13027 41.5 6.13027 42C6.13027 42.5 5.91024 42.96 5.51027 43.26C5.10025 43.56 4.99026 44.12 5.24026 44.56L6.91024 47.44C7.16024 47.88 7.70028 48.06 8.17025 47.86C8.62026 47.67 9.14028 47.7 9.57027 47.95C10.0003 48.2 10.2803 48.62 10.3403 49.12C10.4003 49.62 10.8303 50 11.3303 50H14.6703C15.1703 50 15.6003 49.62 15.6603 49.12C15.7203 48.62 16.0003 48.2 16.4303 47.95C16.8603 47.7 17.3803 47.67 17.8303 47.86C18.3003 48.06 18.8403 47.88 19.0903 47.44L20.7603 44.56C21.0103 44.12 20.9003 43.56 20.4903 43.26C20.0903 42.96 19.8703 42.5 19.8703 42C19.8703 41.5 20.0903 41.04 20.4903 40.74ZM13.0003 45C11.3502 45 10.0003 43.65 10.0003 42C10.0003 40.35 11.3502 39 13.0003 39C14.6503 39 16.0003 40.35 16.0003 42C16.0003 43.65 14.6503 45 13.0003 45Z" fill="#EF5226"/>
<path d="M5.51028 9.26001C5.10025 9.56 4.99026 10.12 5.24026 10.56L6.91024 13.44C7.16024 13.88 7.70028 14.06 8.17025 13.86C8.62026 13.67 9.14028 13.7 9.57027 13.95C10.0003 14.2 10.2803 14.62 10.3403 15.12C10.4003 15.62 10.8303 16 11.3303 16H14.6703C15.1703 16 15.6002 15.62 15.6602 15.12C15.7203 14.62 16.0003 14.2 16.4303 13.95C16.8602 13.7 17.3803 13.67 17.8303 13.86C18.3003 14.06 18.8403 13.88 19.0903 13.44L20.7603 10.56C21.0103 10.12 20.9003 9.56 20.4903 9.26001C20.0903 8.95996 19.8703 8.5 19.8703 8C19.8703 7.5 20.0903 7.03998 20.4903 6.73999C20.9003 6.44 21.0103 5.88 20.7603 5.44L19.0903 2.56C18.8403 2.12 18.3003 1.94 17.8303 2.14002C17.3803 2.32996 16.8603 2.29999 16.4303 2.04999C16.0003 1.79999 15.7202 1.38 15.6602 0.88C15.6002 0.38 15.1702 0 14.6702 0H11.3303C10.8303 0 10.4003 0.38 10.3403 0.88C10.2803 1.38 10.0003 1.79999 9.57028 2.04999C9.14029 2.29999 8.63028 2.32996 8.17026 2.14002C7.70028 1.94 7.16024 2.12 6.91024 2.56L5.24026 5.44C4.99026 5.88 5.10025 6.44 5.51028 6.73999C5.91024 7.03998 6.13027 7.5 6.13027 8C6.13027 8.5 5.91024 8.95996 5.51028 9.26001ZM13.0003 5C14.6503 5 16.0003 6.34998 16.0003 8C16.0003 9.64996 14.6503 11 13.0003 11C11.3502 11 10.0003 9.64996 10.0003 8C10.0003 6.34998 11.3502 5 13.0003 5Z" fill="#EF5226"/>
<path d="M25.5 14.8965C25.1904 14.7178 24.8096 14.7178 24.5 14.8965L16.998 19.2272L25 23.8452L33.0019 19.2272L25.5 14.8965Z" fill="#05A7CC"/>
<path d="M47 29C46.4672 29 45.9737 29.1512 45.5397 29.3957L41.7833 26.1044C41.9197 25.7618 42 25.3907 42 25C42 24.6093 41.9197 24.2383 41.7833 23.8957L45.5403 20.6046C45.9742 20.8489 46.4675 21 47 21C48.6543 21 50 19.6543 50 18C50 16.3457 48.6543 15 47 15C45.3457 15 44 16.3457 44 18C44 18.3907 44.0803 18.7617 44.2167 19.1043L40.4597 22.3953C40.0258 22.1511 39.5325 22 39 22C37.6981 22 36.5984 22.8385 36.1843 24H34V20.9607L26 25.5776V34.8149L33.5 30.4853C33.8096 30.3066 34 29.9765 34 29.6191V26H36.1843C36.5984 27.1615 37.6981 28 39 28C39.5327 28 40.0263 27.8488 40.4603 27.6043L44.2167 30.8956C44.0803 31.2382 44 31.6093 44 32C44 33.6543 45.3457 35 47 35C48.6543 35 50 33.6543 50 32C50 30.3457 48.6543 29 47 29Z" fill="#EF5226"/>
<path d="M16 24H13.8157C13.4016 22.8385 12.3019 22 11 22C10.4675 22 9.97424 22.1511 9.54028 22.3954L5.78332 19.1043C5.9198 18.7617 6 18.3907 6 18C6 16.3457 4.6543 15 3 15C1.3457 15 0 16.3457 0 18C0 19.6543 1.3457 21 3 21C3.53247 21 4.02576 20.8489 4.45972 20.6046L8.21674 23.8957C8.08032 24.2383 8 24.6094 8 25C8 25.3907 8.08032 25.7618 8.2168 26.1044L4.46033 29.3957C4.02625 29.1512 3.53278 29 3 29C1.3457 29 0 30.3457 0 32C0 33.6543 1.3457 35 3 35C4.6543 35 6 33.6543 6 32C6 31.6093 5.91974 31.2382 5.78326 30.8956L9.53967 27.6043C9.97375 27.8488 10.4672 28 11 28C12.3019 28 13.4016 27.1615 13.8157 26H16V29.6191C16 29.9766 16.1904 30.3066 16.5 30.4854L24 34.8149V25.5776L16 20.9607V24Z" fill="#EF5226"/>
</svg>
