<svg width="51" height="50" viewBox="0 0 51 50" fill="none" xmlns="http://www.w3.org/2000/svg">
<path d="M44.9452 22.3818V24.3764H47.8749V22.3818C47.8749 16.4034 45.5468 10.7829 41.3194 6.55545C37.0921 2.32802 31.4715 0 25.4931 0C19.5147 0 13.8942 2.32812 9.66678 6.55545C5.43935 10.7828 3.11133 16.4035 3.11133 22.3818V24.3764H6.04101V22.3818C6.04101 11.6558 14.7672 2.92968 25.4931 2.92968C36.2191 2.92968 44.9452 11.6558 44.9452 22.3818Z" fill="#EF5226"/>
<path d="M6.37928 27.2085H0.493164V42.5241H6.37928C8.61981 42.5241 10.436 40.7078 10.436 38.4674V31.2652C10.436 29.0248 8.61981 27.2085 6.37928 27.2085Z" fill="#EF5226"/>
<path d="M14.1348 21.5935H17.9762V30.8792H14.1348V21.5935Z" fill="#05A7CC"/>
<path d="M20.934 30.8792L25.5911 32.7246H34.1294C35.5075 32.7243 36.6689 31.6945 36.8361 30.3266L37.8541 21.9945C38.0527 20.3691 36.7842 18.9364 35.1468 18.9364H31V15.6413C31 13.9653 29.6414 12.6067 27.9654 12.6067H26.8317V14.9272C26.5998 18.2586 24.0958 20.9249 20.9053 21.4838V30.8793L20.934 30.8792Z" fill="#05A7CC"/>
<path d="M50.4924 27.2085H44.6063C42.3659 27.2085 40.5496 29.0247 40.5496 31.2652V38.4674C40.5496 40.1437 41.5665 41.5823 43.0168 42.2007V42.9232C43.0168 45.21 41.1564 47.0704 38.8697 47.0704H31.0608V46.1414C31.0608 44.0136 29.3298 42.2827 27.2021 42.2827H23.2786C21.1509 42.2827 19.4199 44.0137 19.4199 46.1414C19.4199 48.2691 21.151 50 23.2786 50H38.8698C42.7719 50 45.9466 46.8254 45.9466 42.9232V42.5242H50.4924V27.2085Z" fill="#EF5226"/>
</svg>
