<svg width="66" height="50" viewBox="0 0 66 50" fill="none" xmlns="http://www.w3.org/2000/svg">
<path d="M13.3408 12.4722L17.2307 16.3817C16.3344 16.9967 15.2477 17.3578 14.0822 17.3578C12.5347 17.3578 11.1344 16.7249 10.12 15.708C9.10566 14.6885 8.47852 13.2812 8.47852 11.7258C8.47852 10.1705 9.10439 8.76311 10.12 7.74364C10.897 6.96277 11.905 6.40901 13.0311 6.1921V11.7258H13.0349C13.0349 11.9951 13.1352 12.2655 13.3408 12.4722ZM65.4932 1.47625V48.5237C65.4932 49.3378 64.8343 50 64.0243 50H1.96201C1.15586 50 0.493164 49.3378 0.493164 48.525V1.47625C0.493164 0.662209 1.15586 0 1.96201 0H64.0243C64.8343 0.00127593 65.4932 0.663485 65.4932 1.47625ZM12.9993 36.3973C12.9993 36.1804 12.8229 36.003 12.607 36.003H7.82344C7.60762 36.003 7.43115 36.1804 7.43115 36.3973V44.5645C7.43115 44.7814 7.60762 44.9588 7.82344 44.9588H12.6058C12.8216 44.9588 12.998 44.7814 12.998 44.5645V36.3973H12.9993ZM12.9993 23.4568C12.9993 23.2399 12.8229 23.0625 12.607 23.0625H7.82344C7.60762 23.0625 7.43115 23.2399 7.43115 23.4568V31.624C7.43115 31.8409 7.60762 32.0183 7.82344 32.0183H12.6058C12.8216 32.0183 12.998 31.8409 12.998 31.624V23.4568H12.9993ZM14.0822 19.4631C16.2087 19.4631 18.1308 18.5993 19.5272 17.1983C20.9199 15.7986 21.7794 13.863 21.7794 11.7258C21.7794 9.58864 20.9199 7.65305 19.5272 6.25335C18.1308 4.85365 16.2087 3.98602 14.0822 3.98602C11.9558 3.98602 10.0299 4.85365 8.63721 6.25335C7.24453 7.65305 6.38125 9.58864 6.38125 11.7258C6.38125 13.863 7.24453 15.7986 8.63721 17.1983C10.0299 18.5993 11.9558 19.4631 14.0822 19.4631ZM29.1351 43.3447C29.1351 42.7629 28.6666 42.2921 28.0877 42.2921H17.4719C16.893 42.2921 16.4245 42.7629 16.4245 43.3447C16.4245 43.9266 16.893 44.3974 17.4719 44.3974H28.0877C28.6679 44.3974 29.1351 43.9278 29.1351 43.3447ZM29.1351 37.6158C29.1351 37.034 28.6666 36.5631 28.0877 36.5631H17.4719C16.893 36.5631 16.4245 37.034 16.4245 37.6158C16.4245 38.1976 16.893 38.6684 17.4719 38.6684H28.0877C28.6679 38.6684 29.1351 38.1989 29.1351 37.6158ZM29.1351 30.4042C29.1351 29.8224 28.6666 29.3516 28.0877 29.3516H17.4719C16.893 29.3516 16.4245 29.8224 16.4245 30.4042C16.4245 30.986 16.893 31.4607 17.4719 31.4607H28.0877C28.6679 31.4607 29.1351 30.986 29.1351 30.4042ZM29.1351 24.6753C29.1351 24.0935 28.6666 23.6226 28.0877 23.6226H17.4719C16.893 23.6226 16.4245 24.0935 16.4245 24.6753C16.4245 25.2571 16.893 25.7318 17.4719 25.7318H28.0877C28.6679 25.7318 29.1351 25.2571 29.1351 24.6753ZM40.6002 31.4492C40.6002 31.2285 40.4237 31.0511 40.2079 31.0511H36.8005C36.5847 31.0511 36.4082 31.2285 36.4082 31.4492V42.9505C36.4082 43.1674 36.5847 43.3447 36.8005 43.3447H40.2079C40.4237 43.3447 40.6002 43.1674 40.6002 42.9505V31.4492ZM49.5796 23.4568C49.5796 23.2399 49.4031 23.0625 49.1873 23.0625H45.7799C45.5641 23.0625 45.3876 23.2399 45.3876 23.4568V42.9517C45.3876 43.1687 45.5641 43.346 45.7799 43.346H49.1873C49.4031 43.346 49.5796 43.1687 49.5796 42.9517V23.4568ZM58.5539 28.683C58.5539 28.4661 58.3774 28.2887 58.1616 28.2887H54.7542C54.5384 28.2887 54.3619 28.4661 54.3619 28.683V42.9517C54.3619 43.1687 54.5384 43.346 54.7542 43.346H58.1616C58.3774 43.346 58.5539 43.1687 58.5539 42.9517V28.683ZM59.6051 14.5916C59.6051 14.0097 59.1341 13.5389 58.5539 13.5389H36.4082C35.8293 13.5389 35.3608 14.0097 35.3608 14.5916C35.3608 15.1734 35.8293 15.6442 36.4082 15.6442H58.5539C59.1341 15.6442 59.6051 15.1734 59.6051 14.5916ZM59.6051 8.86263C59.6051 8.28081 59.1341 7.80999 58.5539 7.80999H36.4082C35.8293 7.80999 35.3608 8.28081 35.3608 8.86263C35.3608 9.44446 35.8293 9.91528 36.4082 9.91528H58.5539C59.1341 9.91528 59.6051 9.44446 59.6051 8.86263ZM18.0444 7.74492C17.2637 6.96404 16.2557 6.41029 15.1296 6.19338V11.2895L18.7135 14.8914C19.3254 13.9906 19.6847 12.9022 19.6847 11.7271C19.6847 10.1717 19.055 8.76439 18.0444 7.74492Z" fill="#EF5226"/>
</svg>
