<svg width="53" height="50" viewBox="0 0 53 50" fill="none" xmlns="http://www.w3.org/2000/svg">
<path d="M6.12296 29.099H11.8588C12.3788 29.099 12.8009 28.6768 12.8009 28.1568V24.1813C12.8009 23.6613 12.3788 23.2391 11.8588 23.2391H6.12296C5.60291 23.2391 5.17969 23.6613 5.17969 24.1813V28.1568C5.17969 28.6768 5.60291 29.099 6.12296 29.099Z" fill="#EF5226"/>
<path d="M19.1626 18.5924H24.8995C25.4196 18.5924 25.8417 18.1746 25.8417 17.661V13.6736C25.8417 13.1612 25.4196 12.7434 24.8995 12.7434H19.1626C18.6502 12.7434 18.2324 13.1612 18.2324 13.6736V17.661C18.2324 18.1746 18.6502 18.5924 19.1626 18.5924Z" fill="#EF5226"/>
<path d="M19.1626 29.099H24.8995C25.4196 29.099 25.8417 28.6768 25.8417 28.1568V24.1813C25.8417 23.6613 25.4196 23.2391 24.8995 23.2391H19.1626C18.6502 23.2391 18.2324 23.6613 18.2324 24.1813V28.1568C18.2324 28.6768 18.6502 29.099 19.1626 29.099Z" fill="#EF5226"/>
<path d="M19.1626 39.5946H24.8995C25.4196 39.5946 25.8417 39.1724 25.8417 38.6524V34.6769C25.8417 34.1569 25.4196 33.7347 24.8995 33.7347H19.1626C18.6502 33.7347 18.2324 34.1569 18.2324 34.6769V38.6524C18.2324 39.1724 18.6502 39.5946 19.1626 39.5946Z" fill="#EF5226"/>
<path d="M6.12296 39.5946H11.8588C12.3788 39.5946 12.8009 39.1724 12.8009 38.6524V34.6769C12.8009 34.1569 12.3788 33.7347 11.8588 33.7347H6.12296C5.60291 33.7347 5.17969 34.1569 5.17969 34.6769V38.6524C5.17969 39.1724 5.60291 39.5946 6.12296 39.5946Z" fill="#EF5226"/>
<path d="M6.12296 18.5924H11.8588C12.3788 18.5924 12.8009 18.1746 12.8009 17.661V13.6736C12.8009 13.1612 12.3788 12.7434 11.8588 12.7434H6.12296C5.60291 12.7434 5.17969 13.1612 5.17969 13.6736V17.661C5.17969 18.1746 5.60291 18.5924 6.12296 18.5924Z" fill="#EF5226"/>
<path d="M44.2412 48.2916L43.9347 48.1145C43.2471 48.5029 42.5171 48.8032 41.7555 49.011L41.4932 50H43.7563L44.1719 48.4104C44.1839 48.3642 44.2187 48.3321 44.2412 48.2916Z" fill="#EF5226"/>
<path d="M4.89287 44.2729H30.6469C30.3041 43.637 30.0259 42.9702 29.8347 42.2754L28.4312 41.8924C28.0406 41.8141 27.7316 41.4256 27.7316 40.9763V38.3684C27.7316 37.9398 28.0199 37.5623 28.4334 37.4513L29.8347 37.0792C30.0425 36.3187 30.3417 35.5898 30.729 34.9032L30.012 33.6684C29.7977 33.2658 29.8608 32.81 30.1589 32.5141L31.9932 30.6678C32.3076 30.3533 32.7885 30.2913 33.1584 30.5176L34.3911 31.2389C35.0896 30.8397 35.8066 30.5416 36.5692 30.3338L36.6012 30.2141H32.2097C31.0793 30.2141 30.16 29.2893 30.16 28.1524V24.1867C30.16 23.0498 31.0793 22.125 32.2097 22.125H37.9477C39.0835 22.125 40.0083 23.0498 40.0083 24.1867V28.1524C40.0083 28.1794 40.0005 28.2039 39.9995 28.2307H40.4761C40.8896 28.2307 41.2551 28.507 41.3868 28.9183C41.3955 28.9455 41.4118 29.0391 41.4161 29.0663L41.7545 30.3338C42.3432 30.4938 42.9008 30.7262 43.4398 30.9946V8.2196H0.636719V40.0287C0.636719 42.3689 2.54611 44.2729 4.89287 44.2729ZM30.1578 13.6736C30.1578 12.5465 31.0804 11.6293 32.2152 11.6293H37.951C39.0846 11.6293 40.0072 12.5465 40.0072 13.6736V17.661C40.0072 18.7893 39.0846 19.7064 37.951 19.7064H32.2152C31.0804 19.7064 30.1578 18.7893 30.1578 17.661V13.6736ZM17.1184 13.6736C17.1184 12.5465 18.0356 11.6293 19.1627 11.6293H24.8996C26.0333 11.6293 26.9559 12.5465 26.9559 13.6736V17.661C26.9559 18.7893 26.0333 19.7064 24.8996 19.7064H19.1627C18.0356 19.7064 17.1184 18.7893 17.1184 17.661V13.6736ZM17.1184 24.1813C17.1184 23.0476 18.0356 22.125 19.1627 22.125H24.8996C26.0333 22.125 26.9559 23.0476 26.9559 24.1813V28.1567C26.9559 29.2904 26.0333 30.213 24.8996 30.213H19.1627C18.0356 30.213 17.1184 29.2904 17.1184 28.1567V24.1813ZM17.1184 34.6769C17.1184 33.5433 18.0356 32.6207 19.1627 32.6207H24.8996C26.0333 32.6207 26.9559 33.5433 26.9559 34.6769V38.6524C26.9559 39.7861 26.0333 40.7087 24.8996 40.7087H19.1627C18.0356 40.7087 17.1184 39.7861 17.1184 38.6524V34.6769ZM4.06601 13.6736C4.06601 12.5465 4.98861 11.6293 6.12337 11.6293H11.8592C12.9928 11.6293 13.9154 12.5465 13.9154 13.6736V17.661C13.9154 18.7893 12.9928 19.7064 11.8592 19.7064H6.12337C4.98861 19.7064 4.06601 18.7893 4.06601 17.661V13.6736ZM4.06601 24.1813C4.06601 23.0476 4.98861 22.125 6.12337 22.125H11.8592C12.9928 22.125 13.9154 23.0476 13.9154 24.1813V28.1567C13.9154 29.2904 12.9928 30.213 11.8592 30.213H6.12337C4.98861 30.213 4.06601 29.2904 4.06601 28.1567V24.1813ZM4.06601 34.6769C4.06601 33.5433 4.98861 32.6207 6.12337 32.6207H11.8592C12.9928 32.6207 13.9154 33.5433 13.9154 34.6769V38.6524C13.9154 39.7861 12.9928 40.7087 11.8592 40.7087H6.12337C4.98861 40.7087 4.06601 39.7861 4.06601 38.6524V34.6769Z" fill="#EF5226"/>
<path d="M38.8946 28.1524V24.1868C38.8946 23.6558 38.479 23.2391 37.948 23.2391H32.2101C31.6944 23.2391 31.2744 23.6645 31.2744 24.1868V28.1524C31.2744 28.6747 31.6944 29.1 32.2101 29.1H36.8997L36.9417 28.9434C37.0472 28.5278 37.4247 28.2308 37.8588 28.2308H38.8778C38.8802 28.2019 38.8946 28.1823 38.8946 28.1524Z" fill="#EF5226"/>
<path d="M39.1658 44.2615C41.6989 44.2615 43.7525 42.208 43.7525 39.6748C43.7525 37.1417 41.6989 35.0881 39.1658 35.0881C36.6326 35.0881 34.5791 37.1417 34.5791 39.6748C34.5791 42.208 36.6326 44.2615 39.1658 44.2615Z" fill="#05A7CC"/>
<path d="M34.1148 46.9885C34.2899 46.8852 34.5075 46.8884 34.6805 46.994C35.4769 47.4727 36.2842 47.8056 37.1502 48.0101C37.3504 48.0569 37.5081 48.2092 37.5615 48.4072L37.9879 50H40.3478L40.7623 48.4094C40.8156 48.2103 40.9733 48.0569 41.1735 48.0101C42.045 47.8045 42.8751 47.4629 43.64 46.995C43.814 46.8906 44.0306 46.8852 44.2068 46.9874L45.6255 47.8067L45.7514 47.6816C45.7538 47.6791 45.7561 47.6769 45.7587 47.6745L47.3064 46.1366L46.4796 44.7212C46.3762 44.5438 46.3784 44.3252 46.485 44.15C46.9528 43.3862 47.2934 42.5605 47.499 41.6944C47.5458 41.4953 47.6981 41.3387 47.8939 41.2854L49.49 40.8502V38.4958L47.8972 38.0715C47.6992 38.0182 47.5458 37.8604 47.499 37.6602C47.2945 36.7899 46.9539 35.9597 46.485 35.1949C46.3784 35.0197 46.3762 34.7989 46.4807 34.6226L47.3054 33.218L45.6233 31.536L44.2164 32.3632L44.2131 32.3651L44.2112 32.3662C44.0316 32.4717 43.8097 32.4673 43.6345 32.3574C42.8816 31.8864 42.0537 31.5426 41.1735 31.3348C40.9733 31.288 40.8156 31.1346 40.7623 30.9355L40.3401 29.3448H37.9879L37.5615 30.9376C37.5081 31.1357 37.3504 31.288 37.1502 31.3348C36.2755 31.5415 35.4693 31.8766 34.6859 32.3596C34.5097 32.4673 34.2888 32.4706 34.1126 32.3662L32.6982 31.5393L31.0358 33.2126L31.8561 34.6248C31.9584 34.801 31.9562 35.0197 31.8496 35.1949C31.3818 35.9597 31.0412 36.7899 30.8356 37.6602C30.7888 37.8604 30.6354 38.0182 30.4374 38.0715L28.8457 38.4947V40.8513L30.4407 41.2854C30.6365 41.3387 30.7888 41.4953 30.8356 41.6933C31.0423 42.5605 31.3829 43.3862 31.8496 44.15C31.9562 44.3252 31.9584 44.5449 31.855 44.7212L31.6658 45.0455C31.6647 45.0481 31.6628 45.05 31.6617 45.0525L31.0293 46.1366L32.6971 47.8056L34.1148 46.9885ZM39.1662 33.9742C42.3094 33.9742 44.8672 36.532 44.8672 39.6752C44.8672 42.8183 42.3094 45.3761 39.1662 45.3761C36.023 45.3761 33.4652 42.8183 33.4652 39.6752C33.4652 36.532 36.023 33.9742 39.1662 33.9742Z" fill="#EF5226"/>
<path d="M32.2148 18.5924H37.9506C38.4706 18.5924 38.8927 18.1746 38.8927 17.661V13.6736C38.8927 13.1612 38.4706 12.7434 37.9506 12.7434H32.2148C31.6947 12.7434 31.2715 13.1612 31.2715 13.6736V17.661C31.2715 18.1746 31.6947 18.5924 32.2148 18.5924Z" fill="#EF5226"/>
<path d="M50.9086 41.6934C50.9553 41.4953 51.1077 41.3387 51.3035 41.2854L52.8985 40.8502V38.4947L51.3068 38.0715C51.1087 38.0182 50.9553 37.8604 50.9086 37.6602C50.7029 36.7899 50.3624 35.9597 49.8946 35.1949C49.7879 35.0197 49.7858 34.801 49.888 34.6248L50.7084 33.2126L49.034 31.5382L47.8776 32.2152L48.1788 32.5163C48.4671 32.8013 48.5368 33.2376 48.3562 33.6249L47.6066 34.9044C47.9939 35.5909 48.2931 36.3199 48.4998 37.0793L49.9 37.4513C50.3145 37.5623 50.6039 37.9388 50.6039 38.3685V40.9764C50.6039 41.4257 50.2939 41.8152 49.8663 41.9012L48.4998 42.2743C48.292 43.0305 47.9928 43.7572 47.6055 44.4416L48.3322 45.6862C48.5346 46.0844 48.4737 46.5185 48.1952 46.8221L47.8772 47.1384L49.0351 47.8078L50.7084 46.1432L49.8869 44.719C49.7858 44.5417 49.7879 44.3241 49.8946 44.15C50.3613 43.3862 50.7018 42.5605 50.9086 41.6934Z" fill="#EF5226"/>
<path d="M42.4551 0.0311279C43.7227 1.01425 44.5542 2.53279 44.5542 4.25505V30.8722L45.1591 30.5155C45.1939 30.4937 45.2309 30.4774 45.269 30.4643C45.64 30.3 46.0686 30.3816 46.3461 30.6841L46.3929 30.7309V4.25505C46.3929 2.01382 44.6506 0.192148 42.4551 0.0311279Z" fill="#EF5226"/>
<path d="M43.4307 4.25833C43.4307 2.77052 42.6633 1.46278 41.5074 0.700927C40.8356 0.26057 40.0349 0 39.1724 0H4.89254C4.60055 0 4.3155 0.0299193 4.03991 0.0862219C2.10148 0.484692 0.639648 2.20369 0.639648 4.25833V7.10555H43.4307V4.25833ZM5.09368 4.69719C4.45782 4.69719 3.9424 4.18163 3.9424 3.54584C3.9424 2.91006 4.45782 2.39449 5.09368 2.39449C5.7296 2.39449 6.24502 2.91006 6.24502 3.54584C6.24502 4.18163 5.7296 4.69719 5.09368 4.69719ZM9.08226 4.69719C8.4464 4.69719 7.93091 4.18163 7.93091 3.54584C7.93091 2.91006 8.4464 2.39449 9.08226 2.39449C9.71811 2.39449 10.2336 2.91006 10.2336 3.54584C10.2336 4.18163 9.71811 4.69719 9.08226 4.69719ZM13.0708 4.69719C12.435 4.69719 11.9195 4.18163 11.9195 3.54584C11.9195 2.91006 12.435 2.39449 13.0708 2.39449C13.7067 2.39449 14.2222 2.91006 14.2222 3.54584C14.2222 4.18163 13.7067 4.69719 13.0708 4.69719ZM24.9744 4.10275H22.5493C22.2414 4.10275 21.9922 3.8536 21.9922 3.54571C21.9922 3.23781 22.2414 2.98866 22.5493 2.98866H24.9744C25.2822 2.98866 25.5314 3.23781 25.5314 3.54571C25.5314 3.8536 25.2822 4.10275 24.9744 4.10275ZM40.1277 4.10275H27.7302C27.4223 4.10275 27.1731 3.8536 27.1731 3.54571C27.1731 3.23781 27.4223 2.98866 27.7302 2.98866H40.1277C40.4355 2.98866 40.6847 3.23781 40.6847 3.54571C40.6847 3.8536 40.4355 4.10275 40.1277 4.10275Z" fill="#EF5226"/>
</svg>
