<svg width="50" height="50" viewBox="0 0 50 50" fill="none" xmlns="http://www.w3.org/2000/svg">
<path fill-rule="evenodd" clip-rule="evenodd" d="M10.6572 34.0547H9.47168V22.4834H10.6572C10.9766 22.4834 11.2363 22.7422 11.2363 23.0615V33.4756C11.2363 33.7959 10.9766 34.0547 10.6572 34.0547ZM8.31445 34.0547H7.12891C4.86523 34.0547 3.02344 32.2129 3.02344 29.9482V26.5898C3.02344 24.3252 4.86523 22.4834 7.12891 22.4834H8.31445V34.0547Z" fill="#EF5226"/>
<path fill-rule="evenodd" clip-rule="evenodd" d="M42.248 34.0547H41.0625V22.4834H42.248C44.5127 22.4834 46.3545 24.3252 46.3545 26.5898V29.9482C46.3545 32.2129 44.5127 34.0547 42.248 34.0547ZM39.9063 34.0547H38.7207C38.4014 34.0547 38.1416 33.7959 38.1416 33.4756V23.0615C38.1416 22.9082 38.2031 22.7607 38.3115 22.6523C38.4199 22.5439 38.5674 22.4834 38.7207 22.4834H39.9063V34.0547Z" fill="#EF5226"/>
<path fill-rule="evenodd" clip-rule="evenodd" d="M42.9424 24.2881C42.8027 24.2881 42.8731 24.2949 42.7315 24.2686C42.1035 24.1524 41.6885 23.5479 41.8047 22.9199C41.999 21.8672 42.0977 20.794 42.0977 19.7227C42.0977 10.124 34.2881 2.31445 24.6895 2.31445C15.0908 2.31445 7.28027 10.124 7.28027 19.7227C7.28027 20.793 7.37793 21.8662 7.57324 22.919C7.69043 23.5469 7.27441 24.1514 6.64648 24.2676C6.01855 24.3838 5.41504 23.9688 5.29883 23.3408C5.07715 22.1494 4.9668 20.9346 4.9668 19.7227C4.9668 8.84766 13.8145 0 24.6895 0C35.5645 0 44.4111 8.84766 44.4111 19.7227C44.4111 20.9346 44.3008 22.1494 44.0801 23.3418C43.9785 23.8897 43.499 24.2881 42.9424 24.2881Z" fill="#EF5226"/>
<path fill-rule="evenodd" clip-rule="evenodd" d="M2.03906 31.2871C0.948242 30.7197 0.202148 29.5801 0.202148 28.2686C0.202148 26.958 0.948242 25.8174 2.03906 25.251C1.92578 25.6787 1.86621 26.127 1.86621 26.5898V29.9482C1.86621 30.4111 1.92578 30.8594 2.03906 31.2871Z" fill="#05A7CC"/>
<path fill-rule="evenodd" clip-rule="evenodd" d="M47.3398 25.251C48.4307 25.8174 49.1768 26.958 49.1768 28.2686C49.1768 29.5801 48.4297 30.7197 47.3398 31.2861C47.4521 30.8594 47.5127 30.4111 47.5127 29.9482V26.5898C47.5127 26.127 47.4531 25.6787 47.3398 25.251Z" fill="#05A7CC"/>
<path fill-rule="evenodd" clip-rule="evenodd" d="M25.8477 30.004H23.5273C23.2432 30.004 23.001 29.797 22.9561 29.5158L22.4883 26.5636C21.6816 26.3576 20.9131 26.0392 20.1953 25.6134L17.7754 27.3702C17.5459 27.5372 17.2275 27.5128 17.0264 27.3117L15.3867 25.671C15.1855 25.4699 15.1602 25.1525 15.3271 24.922L17.085 22.5031C16.6592 21.7843 16.3398 21.0158 16.1338 20.2091L13.1816 19.7413C12.9004 19.6974 12.6934 19.4552 12.6934 19.17V16.8507C12.6934 16.5656 12.9004 16.3234 13.1816 16.2784L16.1338 15.8116C16.3408 15.004 16.6592 14.2355 17.085 13.5177L15.3271 11.0988C15.1602 10.8683 15.1855 10.5509 15.3867 10.3497L17.0264 8.70911C17.2275 8.50794 17.5459 8.48255 17.7754 8.65051L20.1943 10.4074C20.9131 9.98157 21.6816 9.66321 22.4883 9.45618L22.9561 6.50501C23.001 6.22375 23.2432 6.01672 23.5273 6.01672H25.8477C26.1318 6.01672 26.374 6.22375 26.419 6.50403L26.8867 9.45618C27.6934 9.66321 28.4619 9.98157 29.1807 10.4074L31.5996 8.65051C31.8291 8.48255 32.1465 8.50794 32.3486 8.70911L33.9893 10.3497C34.1904 10.5509 34.2148 10.8683 34.0479 11.0988L32.29 13.5177C32.7158 14.2355 33.0352 15.004 33.2412 15.8116L36.1934 16.2784C36.4746 16.3234 36.6816 16.5656 36.6816 16.8507V19.17C36.6816 19.4552 36.4746 19.6974 36.1934 19.7413L33.2412 20.2091C33.0352 21.0158 32.7158 21.7843 32.29 22.5031L34.0479 24.922C34.2148 25.1525 34.1904 25.4699 33.9893 25.671L32.3486 27.3117C32.1465 27.5128 31.8291 27.5372 31.5996 27.3702L29.1807 25.6134C28.4619 26.0392 27.6934 26.3576 26.8867 26.5646L26.419 29.5158C26.374 29.797 26.1318 30.004 25.8477 30.004ZM24.6875 24.4083C21.1602 24.4083 18.29 21.5382 18.29 18.0099C18.29 14.4825 21.1602 11.6124 24.6875 11.6124C28.2158 11.6124 31.085 14.4825 31.085 18.0099C31.085 21.5382 28.2158 24.4083 24.6875 24.4083ZM23.1855 20.9689C23.0322 20.9689 22.8848 20.9083 22.7764 20.7999L21.0195 19.0431C20.7939 18.8175 20.7939 18.4503 21.0195 18.2247C21.2451 17.9992 21.6113 17.9992 21.8379 18.2247L23.1855 19.5724L27.5371 15.2208C27.7627 14.9952 28.1289 14.9952 28.3555 15.2208C28.5811 15.4464 28.5811 15.8126 28.3555 16.0392L23.5947 20.7999C23.4863 20.9083 23.3389 20.9689 23.1855 20.9689ZM24.6875 12.7697C21.7979 12.7697 19.4463 15.1202 19.4463 18.0099C19.4463 20.9005 21.7979 23.2511 24.6875 23.2511C27.5772 23.2511 29.9287 20.9005 29.9287 18.0099C29.9287 15.1202 27.5772 12.7697 24.6875 12.7697Z" fill="#EF5226"/>
<path fill-rule="evenodd" clip-rule="evenodd" d="M29.3529 48.3115C29.057 48.3115 28.8041 48.0849 28.7767 47.7851C28.7484 47.4668 28.9828 47.1855 29.3011 47.1562C34.3529 46.6973 37.8676 44.2783 39.7455 39.9678C41.1605 36.7197 41.0746 33.583 41.0726 33.5517C41.0629 33.2324 41.3129 32.9648 41.6322 32.9541C41.9496 32.9453 42.2191 33.1943 42.2299 33.5137C42.2338 33.6523 42.3246 36.9443 40.806 40.4297C39.39 43.6797 36.2631 47.6855 29.4056 48.3086C29.3881 48.3105 29.3705 48.3115 29.3529 48.3115Z" fill="#EF5226"/>
<path fill-rule="evenodd" clip-rule="evenodd" d="M28.5273 49.9999H26.7998C26.0254 49.9999 25.3955 49.371 25.3955 48.5966V46.868C25.3955 46.0936 26.0254 45.4637 26.7998 45.4637H28.5273C29.3018 45.4637 29.9316 46.0936 29.9316 46.868V48.5966C29.9316 49.371 29.3018 49.9999 28.5273 49.9999Z" fill="#EF5226"/>
</svg>
