<svg width="49" height="50" viewBox="0 0 49 50" fill="none" xmlns="http://www.w3.org/2000/svg">
<path fill-rule="evenodd" clip-rule="evenodd" d="M13.8337 38.1053V27.3913C13.9053 27.3583 13.9757 27.3219 14.0447 27.2822L14.7843 26.8557C15.1383 27.1638 15.507 27.4506 15.8887 27.7167V39.1329C15.8887 39.7006 15.4289 40.1604 14.8612 40.1604H7.29502C7.37596 39.831 7.41919 39.487 7.41919 39.133C7.41919 38.7789 7.37593 38.4348 7.29492 38.1054L13.8337 38.1053ZM34.3796 38.1064H40.9172C40.8362 38.4358 40.793 38.7799 40.793 39.134C40.793 39.488 40.8363 39.8321 40.9172 40.1614H33.3521C32.7849 40.1614 32.3245 39.7012 32.3245 39.134L32.3245 27.7167C32.7065 27.4506 33.0753 27.1638 33.4293 26.856L34.1671 27.2818C34.2365 27.3219 34.3074 27.3585 34.3795 27.3918L34.3796 38.1064ZM23.078 42.7171L23.0782 32.9107L25.1331 32.9107L25.1332 42.717C24.8038 42.636 24.4598 42.5928 24.1057 42.5928C23.7516 42.5928 23.4075 42.6361 23.078 42.7171Z" fill="#EF5226"/>
<path fill-rule="evenodd" clip-rule="evenodd" d="M15.207 15.8566C15.2073 20.7647 19.1996 24.7573 24.1066 24.7573C29.0148 24.7572 33.0073 20.7647 33.0073 15.8566C33.0075 10.9485 29.0148 6.95593 24.1068 6.95593C19.1997 6.95593 15.207 10.9485 15.207 15.8566Z" fill="#EF5226"/>
<path fill-rule="evenodd" clip-rule="evenodd" d="M24.1062 43.7898C22.3949 43.7898 21.001 45.1824 21.001 46.8949C21.0011 48.6073 22.3947 49.9999 24.1061 49.9999C25.8187 49.9999 27.2122 48.6073 27.2122 46.8949C27.2122 45.1824 25.8185 43.7898 24.1062 43.7898Z" fill="#05A7CC"/>
<path fill-rule="evenodd" clip-rule="evenodd" d="M45.0964 36.0286C43.3851 36.0286 41.9912 37.4213 41.9912 39.1337C41.9913 40.8462 43.3849 42.2388 45.0963 42.2388C46.809 42.2388 48.2024 40.8462 48.2024 39.1337C48.2025 37.4213 46.8087 36.0287 45.0964 36.0286Z" fill="#05A7CC"/>
<path fill-rule="evenodd" clip-rule="evenodd" d="M24.1074 25.9572C18.5389 25.9572 14.0077 21.4262 14.0077 15.8566C14.0079 10.287 18.5387 5.75601 24.1072 5.75601C29.6768 5.75601 34.2078 10.2871 34.2078 15.8566C34.208 21.4261 29.6768 25.9572 24.1074 25.9572ZM9.78183 19.8938C9.09866 20.2886 8.86311 21.1658 9.25784 21.8501L11.4934 25.7207C11.683 26.0499 11.9921 26.2864 12.363 26.3853C12.7339 26.4843 13.1192 26.4343 13.4483 26.2447L14.532 25.62C14.6119 25.5671 14.7052 25.5329 14.8059 25.5234C14.8246 25.5216 14.8433 25.5207 14.8619 25.5207L14.8629 25.5208C14.8728 25.5207 14.8828 25.521 14.8928 25.5215C14.8945 25.5216 14.8963 25.5217 14.8981 25.5218C15.0313 25.5299 15.1607 25.5823 15.2639 25.6749C15.2691 25.6792 15.274 25.6837 15.2788 25.6884C16.666 26.9356 18.2628 27.8571 20.0262 28.429C20.2741 28.5092 20.4407 28.7394 20.4407 28.9998V30.2819C20.4407 31.0715 21.0834 31.7132 21.873 31.7132H24.1072L26.3427 31.7132C27.1323 31.7132 27.7748 31.0716 27.7748 30.282L27.7749 29.0008C27.7749 28.7404 27.9414 28.5102 28.1894 28.43C29.9533 27.8569 31.5513 26.9353 32.9386 25.6887C32.9432 25.6843 32.9478 25.68 32.9527 25.676C33.0279 25.6078 33.1207 25.5588 33.2233 25.5361C33.2259 25.5355 33.2286 25.5349 33.2312 25.5343C33.2707 25.5261 33.3117 25.5218 33.3537 25.5216C33.4566 25.5215 33.5602 25.5479 33.6537 25.602L34.7672 26.2447C35.0965 26.4342 35.4817 26.4843 35.8526 26.3853C36.2235 26.2864 36.5328 26.0499 36.7223 25.7208L38.9576 21.8501C39.3526 21.1657 39.117 20.2887 38.4337 19.894L37.3225 19.2523C37.0975 19.1221 36.9817 18.8628 37.0358 18.6086C37.2266 17.7076 37.3233 16.7816 37.3233 15.8566C37.3234 14.9306 37.2265 14.0057 37.0358 13.1047C36.9817 12.8505 37.0983 12.5901 37.3233 12.4609L38.4339 11.8193C38.7629 11.6297 38.9993 11.3204 39.0983 10.9495C39.1974 10.5786 39.1472 10.1933 38.9576 9.86314L36.7225 5.99237C36.3276 5.3091 35.4505 5.07375 34.7672 5.46852L33.6528 6.11223C33.4278 6.24138 33.1444 6.21226 32.9517 6.03829C31.5611 4.7841 29.9591 3.85822 28.1894 3.28427C27.9416 3.204 27.7748 2.97384 27.7748 2.71345L27.7749 1.43118C27.7749 0.641588 27.1321 0 26.3426 0H21.8732C21.0836 0 20.4407 0.641656 20.4407 1.43118V2.71338C20.4407 2.97374 20.274 3.20404 20.0262 3.28427C18.2576 3.85815 16.6544 4.7842 15.2639 6.03829C15.0712 6.21222 14.7879 6.24141 14.5618 6.11226L13.4485 5.46845C12.765 5.07365 11.888 5.30916 11.4932 5.99247L9.25801 9.86408C8.86332 10.5475 9.09852 11.4245 9.78183 11.8193L10.8922 12.4608C11.1172 12.5901 11.2339 12.8505 11.1797 13.1047C10.9893 14.0046 10.8922 14.9306 10.8922 15.8566C10.8922 16.7825 10.9891 17.7086 11.1797 18.6086C11.2339 18.8626 11.1172 19.1231 10.8922 19.2523L9.78183 19.8938Z" fill="#EF5226"/>
<path fill-rule="evenodd" clip-rule="evenodd" d="M3.11778 36.0276C1.40553 36.0276 0.0126953 37.4213 0.0126953 39.1327C0.0126953 40.8451 1.40533 42.2388 3.11775 42.2388C4.8303 42.2387 6.22283 40.8451 6.22283 39.1327C6.22287 37.4212 4.8302 36.0276 3.11778 36.0276Z" fill="#05A7CC"/>
</svg>
